<?xml version="1.0" encoding="UTF-8" standalone="no"?>
<!-- Created with Inkscape (http://www.inkscape.org/) -->

<svg
   xmlns:dc="http://purl.org/dc/elements/1.1/"
   xmlns:cc="http://creativecommons.org/ns#"
   xmlns:rdf="http://www.w3.org/1999/02/22-rdf-syntax-ns#"
   xmlns:svg="http://www.w3.org/2000/svg"
   xmlns="http://www.w3.org/2000/svg"
   xmlns:sodipodi="http://sodipodi.sourceforge.net/DTD/sodipodi-0.dtd"
   xmlns:inkscape="http://www.inkscape.org/namespaces/inkscape"
   width="500"
   height="500"
   viewBox="0 0 132.29166 132.29167"
   version="1.1"
   id="svg8"
   inkscape:version="0.92.4 (5da689c313, 2019-01-14)"
   sodipodi:docname="icon.svg">
  <defs
     id="defs2" />
  <sodipodi:namedview
     id="base"
     pagecolor="#ffffff"
     bordercolor="#666666"
     borderopacity="1.0"
     inkscape:pageopacity="0.0"
     inkscape:pageshadow="2"
     inkscape:zoom="1.3898629"
     inkscape:cx="74.932264"
     inkscape:cy="269.77243"
     inkscape:document-units="mm"
     inkscape:current-layer="layer1"
     showgrid="false"
     units="px"
     inkscape:window-width="1920"
     inkscape:window-height="1017"
     inkscape:window-x="-8"
     inkscape:window-y="-8"
     inkscape:window-maximized="1" />
  <metadata
     id="metadata5">
    <rdf:RDF>
      <cc:Work
         rdf:about="">
        <dc:format>image/svg+xml</dc:format>
        <dc:type
           rdf:resource="http://purl.org/dc/dcmitype/StillImage" />
        <dc:title></dc:title>
      </cc:Work>
    </rdf:RDF>
  </metadata>
  <g
     inkscape:label="Ebene 1"
     inkscape:groupmode="layer"
     id="layer1"
     transform="translate(0,-164.70832)">
    <path
       style="fill:#000000;stroke-width:0.52077889"
       d="m 54.836661,293.97353 c -5.922572,-1.59155 -11.253837,-6.11842 -14.16362,-12.02659 l -1.732761,-3.5183 -0.149197,-18.70672 c -0.145168,-18.20164 -0.179513,-18.74931 -1.272019,-20.2836 l -1.122822,-1.57686 0.921121,-20.60995 c 1.37968,-30.87013 1.410956,-31.16983 3.747183,-35.90688 1.317709,-2.67185 3.024982,-5.04019 5.216077,-7.23577 12.086668,-12.11142 30.67028,-8.49105 38.581525,7.51627 l 1.975164,3.99647 1.124637,25.55997 c 1.121138,25.48033 1.121435,25.56524 0.09504,27.2525 -0.566285,0.93089 -1.244849,1.69253 -1.507915,1.69253 -0.263066,0 -0.478304,1.24011 -0.478304,2.7558 v 2.75579 l 2.875725,1.41039 c 4.837989,2.37277 7.538232,8.27859 6.839904,14.95983 -0.499276,4.77685 -1.406993,6.25052 -5.773547,9.37336 -3.751696,2.68311 -3.942082,2.91723 -3.942082,4.84777 0,4.36456 -5.856341,12.10074 -11.684679,15.43538 -5.315798,3.04139 -13.309644,3.98539 -19.549427,2.30861 z m 11.687833,-1.08177 c 3.281224,-1.14491 6.154293,-3.03095 8.509677,-5.58624 l 2.183355,-2.36866 v -20.30913 -20.30912 l -1.171752,0.44488 c -2.80002,1.06308 -11.103391,1.75593 -17.471894,1.45789 -7.31382,-0.34228 -13.472743,-1.68206 -17.130732,-3.72655 l -2.291356,-1.28067 0.154633,18.59485 0.154634,18.59484 1.742292,3.33859 c 5.151208,9.87078 15.688345,14.51046 25.321143,11.14932 z m 6.31436,-1.21974 c 3.727985,-1.80362 7.080223,-4.63051 9.501433,-8.01239 l 1.737699,-2.42717 -3.039646,1.98125 c -1.671804,1.08969 -4.328573,3.27653 -5.903929,4.85963 -1.575356,1.58311 -4.153212,3.53632 -5.728568,4.34047 -3.888405,1.98488 -0.842495,1.32673 3.433011,-0.74179 z m 8.384873,-9.30627 c 1.143651,-0.82846 2.584917,-2.14899 3.202811,-2.93452 1.102671,-1.40182 1.12345,-1.76904 1.12345,-19.85624 v -18.428 l -1.952921,0.98167 c -1.074106,0.53991 -2.835313,1.26708 -3.913788,1.61593 l -1.960868,0.63426 0.02859,19.74659 c 0.02303,15.92054 0.160785,19.74659 0.710967,19.74659 0.37532,0 1.618112,-0.67783 2.761758,-1.50628 z m 11.376221,-13.85817 c 3.17183,-2.95951 3.624059,-10.16345 0.994329,-15.83946 l -1.279981,-2.7627 -1.429231,0.92809 c -0.786079,0.51045 -2.187974,1.41536 -3.11532,2.01091 l -1.686084,1.08282 -0.0065,9.79697 -0.0065,9.79696 2.426595,-1.72489 c 1.334631,-0.94869 3.180792,-2.42861 4.102586,-3.2887 z m -2.328553,-18.04161 1.26755,-1.00638 -1.263441,-0.89085 c -0.694896,-0.48997 -1.925236,-1.17247 -2.734089,-1.51668 l -1.470648,-0.62583 v 3.38936 3.38937 l 1.466539,-0.86631 c 0.806598,-0.47647 2.036938,-1.31918 2.734089,-1.87268 z M 75.3948,244.1823 l 4.68701,-1.19142 -0.09668,-2.86428 c -0.162847,-4.82463 -2.382922,-46.60165 -2.48337,-46.7317 -0.05182,-0.0671 -1.836021,0.26727 -3.964877,0.74302 -4.908627,1.09698 -18.124793,1.22721 -22.618691,0.22289 -4.457128,-0.9961 -7.450394,-2.06911 -9.65591,-3.46139 l -1.918272,-1.21095 -0.325916,5.55966 c -0.179254,3.05782 -0.70831,13.81876 -1.17568,23.91322 -0.79369,17.14244 -0.792229,18.44136 0.02215,19.68426 1.757779,2.68271 7.289233,5.09372 14.35032,6.25492 6.365695,1.04683 17.126255,0.62057 23.179913,-0.91823 z m 12.12656,-6.16608 c 0.766472,-1.12302 1.10052,-2.21656 0.938303,-3.0716 -0.138543,-0.73027 -0.662077,-11.4183 -1.16341,-23.75118 l -0.911509,-22.42343 -2.891077,1.74333 c -1.590095,0.95884 -3.418367,1.87653 -4.062831,2.03932 -0.759915,0.19195 -1.17057,0.68797 -1.168383,1.41127 0.0021,0.61341 0.586861,11.66107 1.300021,24.55035 0.713159,12.88927 1.29752,23.63343 1.298582,23.8759 0.0042,0.91743 5.522251,-2.70652 6.660304,-4.37396 z M 73.513684,193.43667 c 4.733198,-0.95065 8.614589,-2.44222 10.921358,-4.19693 1.498494,-1.13988 1.710826,-1.56804 1.480741,-2.98587 -0.718826,-4.42961 -4.938041,-10.67043 -9.542106,-14.11412 -6.488035,-4.85285 -15.52547,-5.82305 -22.749987,-2.44229 -6.308195,2.95196 -12.001964,9.74201 -13.837855,16.50221 -0.686958,2.52955 -0.07025,3.37002 3.792551,5.16864 7.035987,3.27614 19.599734,4.14422 29.935298,2.06836 z"
       id="path3867"
       inkscape:connector-curvature="0" />
  </g>
</svg>
