<?xml version="1.0" encoding="UTF-8" standalone="no"?>
<svg
   xmlns:dc="http://purl.org/dc/elements/1.1/"
   xmlns:cc="http://creativecommons.org/ns#"
   xmlns:rdf="http://www.w3.org/1999/02/22-rdf-syntax-ns#"
   xmlns:svg="http://www.w3.org/2000/svg"
   xmlns="http://www.w3.org/2000/svg"
   id="svg8"
   version="1.1"
   viewBox="0 0 500 500"
   height="500mm"
   width="500mm">
  <defs
     id="defs2" />
  <metadata
     id="metadata5">
    <rdf:RDF>
      <cc:Work
         rdf:about="">
        <dc:format>image/svg+xml</dc:format>
        <dc:type
           rdf:resource="http://purl.org/dc/dcmitype/StillImage" />
        <dc:title></dc:title>
      </cc:Work>
    </rdf:RDF>
  </metadata>
  <g
     transform="translate(0,203)"
     id="layer1">
    <path
       id="path298"
       d="m 210.68134,293.37273 c -3.26299,-0.51668 -13.94188,-3.08058 -23.73085,-5.69756 -13.35655,-3.57074 -20.57595,-4.46913 -28.92921,-3.60005 -11.71248,1.21858 -37.66825,-3.37506 -47.46613,-8.40052 -15.254667,-7.82432 -29.020837,-36.51651 -36.193187,-75.43579 -2.95202,-16.0185 -7.56957,-72.85448 -10.16617,-125.131974 -1.2776,-25.722038 -1.53393,-26.934487 -7.01749,-33.193145 -5.31134,-6.062068 -5.69146,-7.615035 -5.69146,-23.252463 V 1.9046725 l -7.45489,-2.98287 c -12.9061,-5.163993 -12.60782,-2.55878 -9.95997,-86.9918225 1.31383,-41.89494 2.99588,-77.15489 3.73787,-78.35546 1.7886,-2.89403 41.24626,-12.33191 76.959277,-18.4079 34.39172,-5.8512 67.09229,-10.01739 101.86591,-12.97815 l 25.72941,-2.1907 22.7211,10.10836 c 27.91152,12.41753 76.32503,37.47079 88.20695,45.64577 14.77008,10.16208 24.49365,20.48075 24.49365,25.99271 0,4.63642 1.25071,5.321 16.88592,9.24242 30.27087,7.59216 50.11254,17.38345 58.81124,29.02168 4.51814,6.04494 10.74726,49.446637 12.56659,87.5581445 l 1.34271,28.1275125 -9.17336,8.542615 -9.17333,8.542633 -1.25707,16.60193 c -0.98202,12.969541 -0.36606,20.712371 2.81525,35.388865 9.56161,44.11069 9.70465,92.97718 0.38577,131.78425 -5.19474,21.63277 -9.01696,29.8073 -15.50614,33.16298 -13.15235,6.80136 -52.34554,14.2436 -105.1593,19.96829 -28.238,3.06082 -108.06213,5.52061 -119.64309,3.6868 z m 16.32008,-3.20501 c -0.8529,-2.57467 -24.6093,-6.70736 -26.67606,-4.64058 -2.17361,2.17358 1.54893,3.97246 10.93349,5.28345 14.85713,2.0755 16.61924,2.00356 15.74257,-0.64287 z m 98.37908,-2.48454 c 40.59656,-4.25182 44.49536,-4.97517 44.49536,-8.25551 0,-1.81822 -1.27215,-2.49063 -3.46075,-1.82919 -8.1788,2.47173 -65.70612,7.36756 -99.86736,8.49917 -31.07502,1.02936 -37.07948,1.70804 -37.07948,4.19108 0,2.56914 4.53299,2.78553 34.11312,1.62847 18.76221,-0.73391 46.57181,-2.63922 61.79911,-4.23402 z m -128.674,-2.8335 c -2.45658,-2.38422 -26.7004,-8.55472 -28.10252,-7.1526 -1.75076,1.75076 -0.26767,2.42593 14.39136,6.55163 13.76244,3.87336 17.2399,4.02579 13.71116,0.60097 z m 115.81979,-4.18302 c 49.34843,-3.88735 99.03468,-12.12738 119.66123,-19.84475 10.30263,-3.8547 10.917,-4.48877 13.84478,-14.28835 9.47946,-31.72893 11.96106,-83.44372 5.84653,-121.83843 -3.15769,-19.82808 -6.4558,-32.454344 -6.7299,-25.764394 -0.19044,4.645964 -13.70745,16.672354 -25.1641,22.388914 -39.4548,19.68694 -113.50952,22.27837 -181.41374,6.3483 -7.5016,-1.75986 -14.05235,-2.78663 -14.55723,-2.28174 -0.50489,0.50488 0.27882,8.75404 1.74157,18.33148 3.61285,23.65535 3.63401,103.45267 0.0326,122.96119 -2.27024,12.29769 -2.27024,14.86924 0,16.43119 2.90284,1.99719 45.65506,0.79287 86.73826,-2.44341 z m -156.60203,-0.43069 c 2.06842,-2.49232 10.26172,-55.50357 10.26172,-66.39416 v -5.6584 l -21.25889,-3.38778 c -11.69239,-1.86329 -22.73071,-3.80627 -24.52961,-4.31775 -2.81264,-0.79971 -3.45209,1.64227 -4.56567,17.43554 -0.71222,10.10102 -0.57526,27.26455 0.30437,38.1412 l 1.59931,19.77571 12.85421,3.32584 c 15.75649,4.07675 22.60505,4.36865 25.33456,1.0798 z m 55.09358,-10.83275 c 0.90204,-7.34173 1.6403,-24.83151 1.64058,-38.86618 l 4.9e-4,-25.51755 -8.34673,-3.05038 c -4.5907,-1.67769 -8.80843,-2.58866 -9.37274,-2.02434 -1.09776,1.09775 2.57904,76.18876 3.93358,80.3351 0.44415,1.35958 2.98941,2.47196 5.65614,2.47196 4.50555,0 4.96463,-0.94443 6.48868,-13.34861 z m -45.82064,9.39347 c 0.67221,-1.08767 -0.11266,-1.97757 -1.74415,-1.97757 -1.6315,0 -3.51635,0.8899 -4.18857,1.97757 -0.67221,1.08766 0.11267,1.97757 1.74416,1.97757 1.63149,0 3.51634,-0.88991 4.18856,-1.97757 z m 29.95603,-17.30375 c -0.6632,-10.60473 -1.787,-29.36618 -2.49732,-41.69213 -1.21386,-21.06383 -1.57321,-22.53919 -5.97878,-24.54649 -2.57801,-1.17461 -4.9658,-1.76864 -5.3062,-1.32005 -1.0264,1.35262 -11.65562,79.16308 -10.91515,79.90354 0.72532,0.72533 21.20006,6.45017 24.16535,6.75677 0.96603,0.0999 1.20236,-8.38413 0.5321,-19.10164 z m 207.62926,15.2823 c 20.59164,-4.22313 36.51558,-10.83014 38.02435,-15.77669 0.70455,-2.30991 0.28657,-2.47723 -1.88878,-0.75607 -5.3362,4.22208 -27.51229,10.16496 -57.67116,15.45506 -8.20382,1.439 -10.13108,5.07672 -2.68966,5.07672 2.59944,0 13.5008,-1.79957 24.22525,-3.99902 z m -179.2187,-11.98891 c 3.65813,-21.68789 3.64174,-54.90478 -0.0282,-57.18686 -2.56198,-1.59311 -3.13211,1.85348 -4.18226,25.28286 -0.66875,14.92008 -1.88217,31.35449 -2.69651,36.52089 -1.22045,7.74297 -0.95133,9.39347 1.53162,9.39347 2.19209,0 3.65563,-3.81458 5.37538,-14.01036 z m -52.02262,-19.63282 c 5.55328,-36.21277 10.01517,-83.04583 11.72605,-123.07935 1.13089,-26.462074 0.90106,-31.146754 -1.528,-31.146754 -2.32022,0 -3.31366,7.54775 -5.27087,40.045824 -2.76367,45.88895 -10.78417,118.78692 -15.35696,139.57877 -0.79839,3.63016 -0.26484,4.46529 2.51122,3.93068 2.93383,-0.56502 4.26182,-5.48367 7.91856,-29.32917 z m -59.72123,19.30579 c -0.81242,-4.62258 -1.79711,-21.25122 -2.1882,-36.95257 l -0.71107,-28.54786 -13.272767,-6.56293 c -7.30002,-3.60962 -15.32814,-8.49387 -17.84027,-10.85388 -2.51212,-2.36003 -4.5675,-3.84651 -4.5675,-3.30331 0,0.54321 1.8099,11.039 4.022,23.32397 5.14742,28.58631 13.54087,50.43234 23.896797,62.19731 10.1264,11.50418 12.58835,11.66567 10.66101,0.69927 z m 0.43464,-46.47293 c -0.42664,-4.07874 -0.77572,-0.74159 -0.77572,7.41589 0,8.15748 0.34908,11.49463 0.77572,7.41589 0.42666,-4.07874 0.42666,-10.75304 0,-14.83178 z m 104.78976,-3.92795 c -0.45455,-3.00603 -0.83861,-1.01598 -0.85345,4.42234 -0.0148,5.43832 0.35706,7.89781 0.82646,5.46551 0.4694,-2.43229 0.48154,-6.88183 0.027,-9.88785 z M 114.10127,201.17701 c -0.54861,-1.35958 -0.99746,-0.2472 -0.99746,2.47197 0,2.71916 0.44885,3.83154 0.99746,2.47196 0.5486,-1.35958 0.5486,-3.58435 0,-4.94393 z m 55.74311,-16.80936 c 1.2063,-11.69239 2.43016,-24.81065 2.71969,-29.15169 l 0.52642,-7.89283 -8.89058,-1.47615 c -31.85026,-5.28837 -42.57498,-6.90634 -43.05847,-6.49599 -0.98038,0.83206 -4.58136,56.86028 -3.71043,57.7312 0.98522,0.98521 39.84634,8.0206 46.02678,8.33264 3.89858,0.19677 4.34747,-1.2825 6.38659,-21.04718 z m 56.57722,-7.41589 c -1.57587,-24.50064 -4.85098,-46.97177 -7.27772,-49.93368 -1.41377,-1.72555 -1.31983,-2.47196 0.3111,-2.47196 1.28504,0 1.78643,-0.88991 1.11422,-1.97757 -2.62882,-4.25352 -4.50668,-1.62517 -3.88548,5.43832 0.35871,4.07874 1.28777,22.54431 2.06459,41.03461 0.87515,20.8311 2.24229,34.15655 3.59421,35.03267 3.68823,2.39021 5.29159,-8.27083 4.07908,-27.12239 z m -13.45258,-7.41589 c -1.79472,-45.63343 -2.62388,-50.48342 -9.21324,-53.89092 l -5.40273,-2.79387 -1.31035,25.12884 c -0.7207,13.82087 -1.84,32.3311 -2.48734,41.13386 l -1.17698,16.00502 7.66269,3.1744 c 13.84121,5.73397 13.33267,6.96002 11.92795,-28.75733 z m 4.07532,16.83655 c -0.45455,-3.00603 -0.83861,-1.01598 -0.85345,4.42234 -0.0148,5.43832 0.35706,7.89781 0.82646,5.46551 0.4694,-2.43229 0.48154,-6.88183 0.027,-9.88785 z M 111.77219,172.50223 c 0.74161,-12.78006 1.49683,-25.79594 1.67827,-28.9242 0.30572,-5.27112 -0.68405,-6.10199 -13.513117,-11.34361 -7.61365,-3.11074 -17.73552,-8.39744 -22.49304,-11.74821 l -8.65005,-6.09235 1.35042,23.36867 c 1.80824,31.29111 2.63722,35.21564 8.74242,41.38823 4.49267,4.54227 26.449147,16.58176 30.248627,16.58637 0.70845,8.5e-4 1.89487,-10.45485 2.63647,-23.2349 z m 4.77894,-10.21746 c 0.31625,-20.51911 -1.16735,-12.9632 -2.29742,11.70063 -0.6919,15.10088 -0.51385,19.08758 0.52992,11.86543 0.86455,-5.98215 1.65993,-16.58688 1.7675,-23.56606 z m 75.34766,28.0156 c 0.002,-1.90341 0.95093,-20.22803 2.10783,-40.72134 1.98038,-35.08044 1.89335,-37.41988 -1.48755,-39.98293 -1.97506,-1.49728 -4.12963,-2.75063 -4.78793,-2.78524 -0.65831,-0.0346 -1.8379,12.61829 -2.62133,28.11751 -0.78342,15.49922 -2.07614,34.23872 -2.8727,41.64334 -1.19921,11.14751 -0.91843,13.77306 1.63254,15.26604 4.84784,2.83726 8.02438,2.22902 8.02914,-1.53738 z M 118.09761,139.9959 c -0.63129,-1.57757 -1.09989,-1.10899 -1.19479,1.19479 -0.0859,2.08467 0.38153,3.25269 1.03867,2.59556 0.65712,-0.65715 0.72738,-2.3628 0.15612,-3.79035 z m 56.67895,-14.95539 c 0.70225,-10.60472 1.28142,-25.125604 1.28705,-32.268624 l 0.0102,-12.98729 -26.06395,-4.29052 C 135.67471,73.134283 123.76,71.41435 123.53275,71.672008 c -0.22725,0.257657 -1.05587,14.870628 -1.84138,32.473252 l -1.42819,32.00477 7.58487,1.42295 c 10.56849,1.98265 38.67102,6.31697 42.48921,6.55319 2.61466,0.16177 3.38366,-3.14434 4.4393,-19.08566 z m -59.6229,-17.30375 c 0.21149,-14.683464 0.43397,-29.466274 0.49439,-32.850664 0.10703,-5.994218 -0.28427,-6.267142 -15.12122,-10.546547 -8.377087,-2.416197 -19.854467,-6.791791 -25.505267,-9.723541 l -10.27419,-5.330425 1.26596,13.405007 c 0.69628,7.372762 1.27229,20.233526 1.28003,28.579466 0.0125,13.490324 0.59135,15.860544 5.21558,21.356134 6.0103,7.14283 31.749417,20.82031 40.777007,21.66845 0.81575,0.0765 1.65622,-11.87441 1.86771,-26.55788 z m 3.02361,8.40468 c -0.43868,-3.53491 -0.7976,-0.64271 -0.7976,6.42711 0,7.06982 0.35892,9.96201 0.7976,6.42711 0.43868,-3.53491 0.43868,-9.31931 0,-12.85422 z m 251.63135,15.19566 c 1.03405,-1.03405 1.24975,-2.88662 0.47929,-4.11681 -1.01774,-1.62499 -6.80916,-1.72885 -21.17655,-0.37971 -23.61426,2.21741 -64.91901,-0.52756 -94.57187,-6.2849 -23.92454,-4.64514 -25.07122,-4.70184 -25.07122,-1.23954 0,3.29265 30.99324,10.1037 63.2823,13.90685 12.94955,1.52526 75.16965,0.002 77.05805,-1.88589 z m 34.1312,-7.66807 c 29.28873,-10.18562 40.14991,-20.7064 37.88407,-36.696774 -2.66838,-18.831202 -8.23491,-22.28416 -24.30104,-15.074093 -16.01465,7.186933 -47.89439,14.481283 -80.1958,18.349433 -30.12532,3.60756 -114.82041,4.85723 -137.23323,2.02485 -16.68007,-2.10791 -15.59034,1.04517 3.8089,11.020814 27.59092,14.18806 79.79664,22.28066 133.84522,20.74787 51.84664,-1.47035 81.13817,-9.96465 97.11655,-28.163014 7.25973,-8.26839 8.50192,-6.00761 1.36164,2.47815 -8.72154,10.364974 -26.25932,18.072754 -56.95681,25.032264 -3.16814,0.71827 -5.43832,2.56099 -5.43832,4.41437 0,4.05555 10.83964,2.56729 30.10882,-4.13387 z m -177.0948,-6.16801 c 0.32467,-1.01969 -5.62659,-4.19324 -13.22501,-7.05233 -12.21507,-4.59624 -13.81531,-4.81244 -13.81531,-1.86661 0,2.25069 3.6896,4.69463 11.37104,7.53201 11.71189,4.32614 14.65062,4.58625 15.66928,1.38693 z m -32.97303,-16.68576 c -6.8615,-5.192824 -10.76856,-1.246544 -4.13297,4.17446 3.44806,2.81693 5.36218,3.29546 6.9215,1.73043 1.55702,-1.56273 0.78288,-3.20202 -2.78853,-5.90489 z M 336.25714,87.731256 c 34.69693,-3.85637 57.48522,-8.89741 78.6657,-17.401822 12.43258,-4.991924 17.53823,-6.238367 18.58906,-4.538071 0.84388,1.365434 1.30806,0.476496 1.11177,-2.129172 -0.23824,-3.162928 -1.22636,-4.121121 -3.37321,-3.271022 -10.23049,4.050996 -50.63666,13.394922 -74.22882,17.165397 -25.09132,4.01006 -34.68235,4.42695 -102.33965,4.44825 -59.36766,0.0178 -74.65358,0.54237 -74.65332,2.55754 4.8e-4,3.83557 2.76448,4.34753 33.69622,6.24131 35.29472,2.16091 87.14349,0.86084 122.53225,-3.07241 z M 120.11991,74.612436 c -0.47136,-2.447242 -0.85702,-0.444951 -0.85702,4.44954 0,4.89449 0.38566,6.89678 0.85702,4.44953 0.47136,-2.44724 0.47136,-6.45182 0,-8.89907 z m 211.1933,3.44323 c 15.22731,-1.61785 27.90848,-2.9432 28.1804,-2.9452 0.27191,-0.002 0.49439,-7.820935 0.49439,-17.375393 V 40.363295 l -22.24768,2.79417 C 308.12441,46.877059 216.23557,47.248427 185.9617,43.770888 120.75317,36.28044 79.539603,24.42128 60.440903,7.6524045 l -6.97649,-6.125428 V 17.483584 c 0,15.089166 0.33973,16.34354 6.24909,23.073948 3.437,3.914524 10.34013,9.190387 15.34029,11.724171 20.46126,10.368505 65.413967,20.953555 108.930337,25.649933 34.35724,3.7079 112.9745,3.77407 147.32908,0.12399 z M 445.02358,64.976841 c 0,-8.42135 -0.46341,-9.745413 -2.74736,-7.849911 -3.55855,2.953325 -5.02853,10.801416 -2.77681,14.825023 3.32226,5.936573 5.52417,3.156323 5.52417,-6.975112 z m -55.6472,4.258581 c 39.15233,-8.72105 61.38813,-18.348639 71.20664,-30.830872 3.74665,-4.763081 4.34652,-7.753287 4.02121,-20.044269 C 464.21443,3.6326345 463.21932,1.6358805 458.87699,6.8680605 450.73176,16.68247 418.87717,29.25227 386.14057,35.56978 c -11.37281,2.194709 -21.50415,4.501072 -22.51405,5.125233 -1.00991,0.624161 -1.41096,6.619861 -0.89126,13.323788 0.51971,6.703928 1.0041,13.746297 1.07642,15.649709 0.16928,4.456062 3.89894,4.392878 25.5647,-0.433088 z m -50.15288,-30.33642 19.77572,-2.354813 -0.51427,-22.742071 c -0.28283,-12.5081395 -1.01171,-25.746809 -1.61969,-29.419264 -1.09198,-6.595768 -1.20786,-6.663157 -9.50306,-5.526175 -61.44584,8.422089 -160.28745,5.472735 -214.28792,-6.394176 -34.317917,-7.54156 -66.353837,-22.245539 -69.349937,-31.830527 -0.50998,-1.631496 1.44199,-0.452181 4.3377,2.620702 24.21558,25.697187 131.620657,43.178851 228.310117,37.160629 47.82171,-2.976559 59.6607,-4.304516 59.6607,-6.692034 0,-1.146673 -3.06322,-1.471537 -7.41589,-0.786477 -39.70319,6.248827 -132.0964,6.44131 -176.09446,0.366858 -37.56612,-5.186448 -75.579957,-15.610419 -90.456257,-24.804477 -8.68663,-5.368633 -16.67129,-14.948363 -16.98393,-20.376751 -0.55429,-9.624176 -9.52959,48.030934 -9.59747,61.651807 -0.0353,7.0860435 1.03003,9.60227551 6.05155,14.2930745 C 80.632013,21.903278 133.32407,35.729152 203.75984,41.383287 231.4566,43.606611 312.1108,42.127486 339.2235,38.899002 Z m 48.60196,-7.329612 c 33.02203,-6.729458 59.91635,-17.893876 70.4281,-29.2362765 5.45345,-5.884365 5.65045,-11.141988 1.49682,-39.9478515 -4.05699,-28.135769 -6.27182,-39.523112 -6.56899,-33.774117 -0.14792,2.860179 -3.72736,8.122797 -8.88876,13.068286 -10.23882,9.810504 -32.81685,18.774319 -63.8811,25.361746 -21.94782,4.654214 -29.83542,8.568063 -12.91435,6.408138 30.22449,-3.858068 69.10641,-17.954624 81.23986,-29.453324 3.67389,-3.481704 6.27375,-4.995511 5.77746,-3.364015 -3.09182,10.163863 -36.40498,24.927292 -73.33803,32.501289 -11.73113,2.405748 -21.39742,4.981362 -21.48065,5.723594 -0.0833,0.74223 0.49346,13.8030405 1.28156,29.0240345 1.16362,22.4737535 1.98309,27.6745095 4.36064,27.6745095 1.61028,0 11.72961,-1.793697 22.48744,-3.986013 z M 55.405183,-34.651108 c 5.34142,-42.323612 4.95199,-40.902042 13.88086,-50.670092 7.0351,-7.69628 7.86464,-8.068 13.56795,-6.07981 5.85495,2.04105 6.11657,1.88969 7.23153,-4.18357 0.63624,-3.46568 0.88842,-15.05228 0.56039,-25.74801 l -0.59642,-19.44677 -22.32089,-9.7224 c -12.27648,-5.34732 -23.04766,-9.7224 -23.93595,-9.7224 -1.55432,0 -2.63449,22.34691 -5.40118,111.741012 l -1.28554,41.5372315 6.69606,3.215444 c 3.68284,1.768498 6.84561,3.09841501 7.02839,2.95539701 0.18278,-0.142978 2.24144,-15.38724151 4.5748,-33.87603251 z m 255.143527,8.907233 c 33.00542,-2.513355 40.49802,-3.805016 37.78861,-6.514431 -1.17816,-1.178168 -9.30901,-6.272714 -18.06854,-11.321217 l -15.92641,-9.179093 -12.27908,1.907379 c -6.75348,1.04906 -29.63227,2.004121 -50.84173,2.122358 l -38.56265,0.214976 -23.73085,-7.382595 c -13.05198,-4.060429 -41.97396,-13.176521 -64.27107,-20.257982 -22.29712,-7.08147 -42.018447,-12.87578 -43.825167,-12.87625 -4.00467,-10e-4 -13.52723,10.90234 -13.51701,15.477043 0.0296,13.265248 21.49713,26.054436 60.098067,35.80323 47.70839,12.048908 120.18302,16.800422 183.13583,12.006582 z m 100.85615,-17.874989 c 20.8743,-7.189738 29.98341,-12.634722 36.18143,-21.627502 4.56528,-6.623811 4.2428,-10.579084 -1.41034,-17.297454 -8.4617,-10.05615 -29.15613,-18.92029 -63.24519,-27.0901 l -5.73201,-1.37374 1.08861,19.75605 c 0.92596,16.80402 0.60047,20.178175 -2.17825,22.581002 -3.27759,2.834203 -24.78643,8.985265 -46.56076,13.315371 l -11.65272,2.317293 9.67515,5.354619 c 5.32133,2.94504 14.00267,8.078762 19.29186,11.408275 l 9.61671,6.053654 21.03565,-4.485045 c 11.5696,-2.466773 26.82004,-6.477365 33.88986,-8.912423 z M 245.28884,-72.222238 V -94.96431 l -5.43832,-0.0218 c -2.99107,-0.0121 -8.77547,-0.57336 -12.85421,-1.24753 l -7.41589,-1.22577 v 22.67123 c 0,12.469174 0.59327,23.264497 1.31838,23.989605 0.7251,0.72511 6.5095,1.318381 12.85422,1.318381 h 11.53582 z m 37.85874,20.74492 c 32.52459,-3.171761 29.37871,-0.311078 29.37871,-26.715312 0,-19.37157 -0.45854,-22.70439 -3.1237,-22.70439 -1.71803,0 -11.72949,0.91513 -22.24768,2.03363 -10.51819,1.1185 -23.796,2.51739 -29.50624,3.10866 l -10.38225,1.07502 v 22.59977 22.599773 h 7.70076 c 4.23541,0 16.91659,-0.898717 28.1804,-1.997151 z M 217.60284,-74.79293 v -23.33519 l -12.27949,-2.53628 c -6.75371,-1.39496 -19.2957,-4.75272 -27.87109,-7.46168 -8.57538,-2.70896 -15.8922,-4.62477 -16.25962,-4.25736 -0.36741,0.36741 -1.2895,10.4897 -2.0491,22.49398 l -1.38108,21.82597 20.52673,6.220645 c 25.21753,7.642198 33.64078,9.975805 36.84169,10.206754 1.84799,0.133334 2.47196,-5.711944 2.47196,-23.156839 z m 129.83541,13.096476 c 9.95644,-2.268691 18.85753,-4.675186 19.78021,-5.347768 0.92267,-0.67258 1.37342,-11.269018 1.0017,-23.547638 -0.66146,-21.84785 -0.76716,-22.29562 -4.94842,-20.96125 -2.34989,0.74993 -14.0615,3.28597 -26.02581,5.63564 l -21.75329,4.27213 -0.65625,8.77883 c -0.36095,4.82837 -0.0575,15.28361 0.67415,23.233884 l 1.33039,14.455043 6.24735,-1.196989 c 3.43605,-0.658343 14.39353,-3.05319 24.34997,-5.321882 z M 156.66915,-91.50356 c 0.33977,-12.23622 0.46231,-22.55144 0.27232,-22.92271 -0.36618,-0.71557 -54.53807,-21.75503 -60.525797,-23.50722 -3.2677,-0.95622 -3.48163,0.8034 -2.96636,24.39975 l 0.55532,25.43029 29.663567,9.20331 c 16.31496,5.06182 30.27548,9.302519 31.02338,9.423782 0.7479,0.121265 1.6378,-9.790982 1.97757,-22.027202 z m 219.13942,-0.49439 c 0,-18.89679 -0.50155,-22.74207 -2.96635,-22.74207 -2.34851,0 -2.96636,2.82583 -2.96636,13.56699 0,16.96379 1.97894,31.917149 4.22393,31.917149 0.93984,0 1.70878,-10.233929 1.70878,-22.742069 z m -130.51973,-6.9215 c 0,-1.08767 -2.00229,-1.98736 -4.44953,-1.99934 -2.44725,-0.0121 -7.78669,-0.57336 -11.86543,-1.24753 -4.69248,-0.77562 -7.41589,-0.45275 -7.41589,0.87919 0,1.15774 2.44724,2.47569 5.43832,2.92881 10.68282,1.61831 18.29253,1.38488 18.29253,-0.56113 z m 70.2038,-5.89047 c 26.40659,-3.82157 47.57292,-8.39332 49.97345,-10.79385 3.23331,-3.23332 -2.93815,-2.99444 -17.6767,0.68422 -21.64209,5.40174 -51.28379,9.7897 -75.80332,11.22141 -21.58374,1.26028 -25.47004,1.96464 -23.99636,4.34913 1.29066,2.08833 33.14544,-0.48869 67.50293,-5.46091 z m -95.91222,2.29692 c 0,-0.8888 -6.89353,-3.24114 -15.31895,-5.22744 -8.42542,-1.98629 -21.31275,-5.65007 -28.63851,-8.14172 -7.67093,-2.60905 -13.80475,-3.74524 -14.46363,-2.67915 -1.38658,2.24354 4.44607,4.5672 27.76873,11.0627 9.78898,2.7263 18.68805,5.2567 19.77571,5.62312 3.97549,1.3393 10.87665,0.9348 10.87665,-0.63751 z m 65.25986,-4.49533 c 25.8699,-2.3251 68.00738,-10.27477 78.78483,-14.86356 l 7.23953,-3.08244 -10.27033,-9.28707 c -11.42669,-10.33271 -53.04158,-33.39883 -92.86358,-51.47203 l -26.00863,-11.804 -31.34096,2.77706 c -33.73304,2.98902 -65.71145,6.989 -94.42233,11.81072 -24.525807,4.11888 -64.471967,13.20992 -64.471967,14.67269 0,1.76534 74.993457,32.42091 106.333527,43.46665 61.38183,21.6339 70.28861,22.88079 127.01991,17.78198 z m 89.51365,-10.89139 c 0.65017,-0.65016 0.69456,-2.45269 0.0987,-4.00561 -0.83133,-2.1664 -1.72007,-2.29517 -3.81889,-0.55331 -1.50449,1.24861 -2.73543,3.05113 -2.73543,4.00562 0,1.96021 4.65018,2.35877 6.45564,0.5533 z m -216.07823,-2.49762 c 0,-0.9362 -9.5665,-5.26949 -21.2589,-9.62954 -11.69238,-4.36005 -25.45411,-9.55862 -30.5816,-11.55237 -5.1275,-1.99376 -9.947827,-2.99992 -10.711847,-2.2359 -2.16351,2.16351 -1.1599,2.66421 28.089957,14.01384 27.59222,10.70643 34.46239,12.58113 34.46239,9.40397 z m -65.391697,-26.68587 c -0.47132,-0.42238 -11.06669,-5.10922 -23.54527,-10.41521 -12.47858,-5.30598 -23.37995,-9.94388 -24.22525,-10.30643 -0.84531,-0.36256 -1.53632,0.52735 -1.53558,1.97757 0.002,3.28451 45.76794,23.25538 48.31732,21.08406 1.01515,-0.86461 1.46011,-1.91761 0.98878,-2.33999 z"
       style="fill:#000000;stroke-width:1.97757149" />
  </g>
</svg>
