<?xml version="1.0" encoding="UTF-8" standalone="no"?>
<!-- Created with Inkscape (http://www.inkscape.org/) -->

<svg
   xmlns:dc="http://purl.org/dc/elements/1.1/"
   xmlns:cc="http://creativecommons.org/ns#"
   xmlns:rdf="http://www.w3.org/1999/02/22-rdf-syntax-ns#"
   xmlns:svg="http://www.w3.org/2000/svg"
   xmlns="http://www.w3.org/2000/svg"
   xmlns:sodipodi="http://sodipodi.sourceforge.net/DTD/sodipodi-0.dtd"
   xmlns:inkscape="http://www.inkscape.org/namespaces/inkscape"
   width="500"
   height="500"
   viewBox="0 0 132.29166 132.29167"
   version="1.1"
   id="svg8"
   inkscape:version="0.92.4 5da689c313, 2019-01-14"
   sodipodi:docname="icon.svg">
  <defs
     id="defs2" />
  <sodipodi:namedview
     id="base"
     pagecolor="#ffffff"
     bordercolor="#666666"
     borderopacity="1.0"
     inkscape:pageopacity="0.0"
     inkscape:pageshadow="2"
     inkscape:zoom="0.42657054"
     inkscape:cx="603.40158"
     inkscape:cy="369.71489"
     inkscape:document-units="mm"
     inkscape:current-layer="layer1"
     showgrid="false"
     units="px"
     inkscape:window-width="1920"
     inkscape:window-height="1003"
     inkscape:window-x="0"
     inkscape:window-y="0"
     inkscape:window-maximized="1" />
  <metadata
     id="metadata5">
    <rdf:RDF>
      <cc:Work
         rdf:about="">
        <dc:format>image/svg+xml</dc:format>
        <dc:type
           rdf:resource="http://purl.org/dc/dcmitype/StillImage" />
        <dc:title></dc:title>
      </cc:Work>
    </rdf:RDF>
  </metadata>
  <g
     inkscape:label="Layer 1"
     inkscape:groupmode="layer"
     id="layer1"
     transform="translate(0,-164.70832)">
    <path
       style="fill:#000000;stroke:#000000;stroke-width:0.52107513"
       d="M 49.773931,296.67676 C 35.233045,294.2667 23.641494,286.00928 12.311757,269.98998 0.45406617,253.2242 -0.64465669,231.71128 9.2598827,210.23467 14.584509,198.68895 19.758485,191.38723 27.432844,184.58824 39.295283,174.07887 54.843617,167.5114 70.439591,166.42261 c 11.976556,-0.83612 25.950891,3.40513 34.297269,10.4093 5.60981,4.70768 13.8796,14.62604 18.06561,21.66699 5.46727,9.19604 7.92877,22.44877 6.34749,34.17491 -1.37273,10.17959 -6.65128,23.59399 -12.63629,32.11268 -16.25901,23.14204 -42.852793,35.84935 -66.739739,31.89027 z m 24.17351,-2.03102 c 12.984823,-3.46588 23.75133,-10.01571 33.871029,-20.60548 10.97182,-11.48148 17.07413,-23.09247 20.06646,-38.18084 0.97482,-4.91532 1.09744,-15.61126 0.22973,-20.03812 -1.51899,-7.7496 -4.23141,-14.46063 -8.00535,-19.80671 -4.90856,-6.95337 -13.69878,-13.7076 -20.996419,-16.13321 -1.947876,-0.64745 -3.445042,-1.27841 -3.327013,-1.40215 0.118028,-0.12373 -0.396111,-0.24384 -1.142517,-0.26693 -0.746413,-0.0231 -2.845691,-0.32139 -4.665063,-0.66289 -4.753988,-0.89231 -13.391917,-0.77152 -18.635999,0.26059 -2.485825,0.48924 -5.142444,0.8842 -5.903605,0.87769 -0.806581,-0.007 -1.251075,0.21349 -1.065489,0.52831 0.195074,0.33089 -0.107007,0.42353 -0.779668,0.23913 -0.603956,-0.16559 -0.987005,-0.11259 -0.851212,0.11776 0.135792,0.23034 -0.47769,0.57073 -1.363292,0.75641 -2.725211,0.5714 -12.46728,5.47475 -16.511669,8.31061 -2.109802,1.47936 -4.05022,2.55094 -4.312034,2.38131 -0.261814,-0.16963 -0.413094,-0.10332 -0.336189,0.14737 0.07692,0.25068 -1.692259,2.15549 -3.931486,4.23291 -5.126289,4.75585 -8.503077,8.54789 -11.672792,13.10822 -1.368276,1.96857 -2.71496,3.43201 -2.992629,3.2521 -0.277678,-0.17992 -0.347352,-0.0599 -0.154845,0.26662 0.192507,0.32655 -0.781971,2.70448 -2.165519,5.28429 -2.763184,5.15235 -5.640494,13.28198 -6.985533,19.73712 -1.300399,6.24095 -1.19941,17.27456 0.210459,22.99299 3.4405,13.95466 10.773459,24.10828 21.990933,30.44989 4.655294,2.63179 7.084969,3.56827 12.711621,4.89953 6.436345,1.52283 19.593315,1.15522 26.718091,-0.74652 z M 56.531156,290.9978 c -14.412532,-1.25279 -26.537218,-9.5757 -32.790347,-22.5087 -3.316105,-6.85855 -4.164872,-11.01626 -4.152854,-20.34308 0.0094,-6.93876 0.189686,-8.71228 1.359399,-13.33811 3.119356,-12.33603 10.985949,-25.13213 20.639856,-33.57354 8.769978,-7.6685 18.960039,-12.90514 29.81565,-15.32216 4.945734,-1.10118 16.503384,-0.80262 21.37447,0.55214 11.94053,3.32094 21.21349,10.97716 26.24278,21.66732 3.18672,6.77365 4.17998,11.53826 4.17081,20.00717 -0.0102,9.46761 -1.73229,16.84554 -5.94889,25.48754 -11.98309,24.5596 -36.250328,39.49764 -60.710874,37.37142 z m 13.853874,-1.22181 c 15.940504,-2.71798 31.54254,-13.23684 41.56802,-28.02508 3.48329,-5.13808 7.31533,-13.46496 8.83904,-19.2069 1.99306,-7.51061 2.30871,-17.80591 0.76118,-24.82669 -3.25637,-14.77343 -13.36787,-25.82843 -27.597792,-30.17293 -5.616504,-1.71475 -16.857186,-2.00687 -23.321565,-0.60605 -18.367311,3.98013 -35.931322,18.01388 -44.301692,35.39729 -4.44429,9.22982 -6.143658,16.48652 -6.132176,26.18584 0.01749,14.77296 5.709208,26.74861 16.34207,34.38451 2.76419,1.98508 7.673709,4.59516 10.361625,5.50863 6.228378,2.11665 15.797856,2.67146 23.48129,1.36138 z M 64.023577,264.8761 c -11.259575,-1.94995 -18.348372,-12.57075 -16.322472,-24.45518 2.260725,-13.26197 14.058503,-24.67566 27.311864,-26.42273 3.698627,-0.48755 8.567305,0.59197 12.552854,2.78333 4.085964,2.24656 6.080164,4.47997 8.212767,9.19795 1.447466,3.20223 1.576817,3.93758 1.552959,8.82844 -0.02313,4.73996 -0.21219,5.82744 -1.694582,9.74664 -2.654792,7.01888 -8.660834,13.92537 -15.073613,17.33355 -2.476741,1.31631 -8.376867,3.06892 -10.104701,3.00159 -1.166224,-0.0455 -0.885546,-0.1875 1.034626,-0.52359 6.883387,-1.20482 12.988471,-4.77373 18.026881,-10.53814 10.99503,-12.57936 9.702014,-30.35431 -2.686825,-36.93568 -4.377456,-2.32546 -9.000599,-2.95606 -13.958408,-1.90396 -12.406624,2.63281 -22.56362,13.10596 -24.664911,25.4326 -2.049955,12.02556 4.912341,22.11986 16.562271,24.01285 1.951271,0.31706 3.649774,0.68342 3.774469,0.81414 0.312069,0.32716 -1.209181,0.20211 -4.523179,-0.37181 z m 1.638008,-18.46403 c -0.20114,-0.51352 -0.365717,-3.12929 -0.365717,-5.81284 0,-4.04936 0.164878,-5.07015 0.969485,-6.00215 1.002568,-1.16132 2.12718,-1.46782 2.423289,-0.66045 0.09329,0.25439 2.116244,0.0179 4.495429,-0.52545 4.18368,-0.95553 4.225471,-0.97962 1.27229,-0.73334 -1.679422,0.14006 -3.626029,0.41195 -4.325791,0.60423 -0.699763,0.19226 -1.123615,0.17827 -0.941913,-0.0311 0.491344,-0.56613 8.102414,-1.86314 8.94475,-1.52428 1.163299,0.46799 1.667113,2.58881 1.659063,6.984 -0.01053,5.78063 -0.503607,6.56023 -4.840053,7.65328 -4.935973,1.24415 -8.814478,1.26424 -9.290832,0.0481 z m 6.250195,-0.24183 c 1.959321,-0.29499 4.306702,-0.85918 5.216388,-1.25377 l 1.653976,-0.71744 v -5.11244 c 0,-6.04955 0.01411,-6.03566 -5.229591,-5.1278 -6.209909,1.07514 -6.179102,1.0404 -6.475475,7.30211 -0.290759,6.1429 -0.686917,5.74063 4.834702,4.90934 z m -5.351408,-5.36018 c -0.0056,-3.03889 -0.160534,-4.15381 -0.501134,-3.60129 -0.822493,1.33426 -0.565089,8.00287 0.308909,8.00287 0.110007,0 0.196504,-1.98071 0.192225,-4.40158 z m 1.025617,-6.39957 c 0,-0.29762 -0.337544,-0.23985 -0.763371,0.13066 -0.419856,0.36529 -0.76338,0.90426 -0.76338,1.1977 0,0.29761 0.337553,0.23983 0.76338,-0.13066 0.419856,-0.36529 0.763371,-0.90426 0.763371,-1.1977 z m 0.50892,-28.66953 c 0,-0.65949 0.430538,-1.15947 1.145056,-1.32974 6.281811,-1.49692 6.997598,-1.49838 6.997598,-0.0142 0,1.00213 -0.486313,1.24857 -3.102035,1.57193 l -2.241578,0.27712 2.026868,-0.54184 c 2.053153,-0.54887 3.212549,-1.32753 2.729942,-1.83347 -0.14546,-0.1525 -1.716503,0.0308 -3.491206,0.4074 -3.332928,0.70719 -4.496435,1.72724 -2.44,2.13916 1.04308,0.20895 1.017906,0.24337 -0.225129,0.3079 -1.079079,0.056 -1.399516,-0.16932 -1.399516,-0.98422 z m -2.035671,-2.6207 c 0,-1.10537 0.999296,-1.69259 2.713438,-1.59453 0.828078,0.0473 0.73292,0.14722 -0.381328,0.40014 -0.816616,0.18536 -1.590763,0.67101 -1.72033,1.07922 -0.173662,0.54718 0.08275,0.65902 0.975852,0.42565 0.666275,-0.17409 2.241963,-0.44343 3.50153,-0.59851 1.937729,-0.23859 1.820265,-0.164 -0.76337,0.48472 -4.014175,1.00794 -4.325792,0.99376 -4.325792,-0.19669 z m 9.542179,-1.16741 c 2.724421,-0.69662 2.936207,-1.82877 0.25446,-1.36029 -4.493924,0.78504 -5.698073,0.7763 -2.256746,-0.0164 2.776095,-0.63945 3.869862,-0.70362 4.300344,-0.25233 0.854645,0.89598 -0.126651,1.66955 -2.469209,1.94653 l -1.991745,0.23551 z m -9.824042,-1.60378 c -0.612532,-1.03903 0.501604,-1.53633 6.056325,-2.70327 4.131545,-0.86795 5.612423,-0.99838 6.055976,-0.53339 0.999192,1.04752 -0.252334,1.7397 -5.043525,2.7894 -5.262814,1.15304 -6.602719,1.23781 -7.068776,0.44726 z m 7.047458,-0.97621 c 4.66356,-1.02185 5.577111,-1.42191 4.362683,-1.91046 -0.963758,-0.38771 -10.047667,1.58689 -10.766341,2.34031 -0.823414,0.86322 1.087711,0.73494 6.403658,-0.42985 z m -5.04976,-2.43145 c -0.438382,-1.19763 -0.162001,-1.37183 3.473093,-2.18926 4.230549,-0.95131 4.480486,-0.93612 4.480486,0.2722 0,1.08279 -0.495369,1.32746 -3.816872,1.88515 -1.119618,0.18799 -2.437564,0.4656 -2.928777,0.6169 -0.534517,0.16465 -1.019514,-0.0702 -1.20793,-0.58499 z m 7.323885,-1.76804 c 0.249269,-0.78397 0.30635,-0.7825 -3.0349,-0.0778 -3.608331,0.76104 -4.080012,0.94562 -3.768188,1.47456 0.380472,0.64538 6.556988,-0.62274 6.803088,-1.39677 z m -59.659202,76.31437 c -4.533251,-9.60269 -6.1208357,-19.03465 -5.035767,-29.91796 0.179022,-1.79568 0.531725,-3.13126 0.783768,-2.96796 0.255315,0.16543 0.316018,-0.29724 0.137071,-1.04471 -0.496639,-2.07445 3.95967,-16.67109 4.903031,-16.05987 0.250181,0.1621 0.337778,-0.0252 0.19467,-0.41613 -0.368633,-1.00711 2.772042,-6.90565 3.444816,-6.46975 0.334468,0.21671 0.397878,0.1018 0.163336,-0.29608 -0.352402,-0.59779 2.890315,-6.45038 3.573922,-6.45038 0.156161,0 -0.205296,0.72026 -0.803224,1.60057 -1.544317,2.27368 -0.91246,1.98919 0.795306,-0.35807 0.783767,-1.07725 1.154469,-1.78334 0.823781,-1.56909 -1.163976,0.75416 -0.566086,-0.49702 1.246157,-2.6078 1.00774,-1.17375 1.548822,-1.71394 1.202401,-1.20043 -1.144134,1.69599 -0.248705,0.97378 2.312935,-1.86551 2.113676,-2.34277 2.172789,-2.45561 0.362558,-0.69201 -3.327014,3.2413 -2.562374,1.54159 1.003132,-2.22984 2.898073,-3.06546 4.591809,-4.32075 3.631126,-2.69117 -0.213262,0.36176 0.918281,-0.52434 2.514545,-1.96909 1.596255,-1.44474 2.902286,-2.73829 2.902286,-2.87451 0,-0.23921 -0.556325,0.21408 -3.808906,3.10345 -1.471399,1.30709 -1.487283,1.30951 -0.50892,0.0776 1.0273,-1.29354 6.057932,-5.39746 6.616251,-5.39746 0.168424,0 0.141491,0.3001 -0.05981,0.66689 -0.212697,0.38748 -0.171969,0.48062 0.09719,0.22231 0.254808,-0.24453 0.463283,-0.69139 0.463283,-0.99303 0,-0.80648 6.468168,-4.76913 7.262779,-4.44947 0.419169,0.16863 0.539087,0.0368 0.313911,-0.34521 -0.245554,-0.41652 -0.07965,-0.50352 0.508911,-0.26676 0.49329,0.19844 0.744863,0.13347 0.578151,-0.14933 -0.396995,-0.67341 1.656092,-1.78083 2.598597,-1.40166 0.481489,0.19369 0.619576,0.0804 0.385663,-0.31635 -0.245545,-0.41652 -0.07956,-0.50352 0.50892,-0.26676 0.588515,0.23675 0.754475,0.14977 0.508911,-0.26676 -0.245545,-0.41654 -0.07956,-0.50352 0.50892,-0.26677 0.588524,0.23676 0.754474,0.14978 0.50892,-0.26676 -0.245555,-0.41653 -0.07956,-0.50352 0.50891,-0.26676 0.480314,0.19322 0.754748,0.15023 0.609852,-0.0955 -0.267089,-0.45306 8.451177,-3.27053 13.278958,-4.29133 1.449582,-0.30651 4.426743,-0.47101 6.615903,-0.36557 3.113385,0.14996 3.426093,0.1078 1.435731,-0.19357 -2.063064,-0.31238 -1.581547,-0.38741 2.544581,-0.39654 3.86706,-0.008 4.600319,0.0907 3.053501,0.41345 -1.46209,0.30503 -0.888508,0.36438 2.035661,0.21062 2.727863,-0.14343 3.735462,-0.0523 3.053492,0.27632 -0.706543,0.34042 -0.332503,0.39117 1.223004,0.16594 1.44931,-0.20986 2.128854,-0.13452 1.92383,0.21325 -0.194218,0.32945 0.219083,0.44806 1.067126,0.30625 1.10614,-0.18499 1.230807,-0.11268 0.620742,0.36003 -0.607172,0.47047 -0.498632,0.52746 0.530414,0.27852 2.176889,-0.52663 9.662198,2.69563 15.131578,6.51381 l 4.9491,3.45496 -2.29012,-2.46837 c -1.25956,-1.35762 -3.48541,-3.33221 -4.94632,-4.388 -1.46092,-1.05579 -2.5466,-2.10554 -2.41263,-2.33279 0.4343,-0.73668 -3.32995,-3.53942 -8.092398,-6.02535 -14.886495,-7.77052 -33.903417,-7.21367 -51.554321,1.50961 -22.852433,11.29394 -39.3089483,34.5187 -41.9317039,59.17743 -0.7003551,6.58461 -0.3059745,12.26962 1.327623,19.1378 1.0214041,4.29428 4.3271176,12.66601 5.001396,12.66601 0.098929,0 -0.5877532,-2.35043 -1.525961,-5.22319 -7.1542104,-21.90583 0.8675564,-48.97896 20.1512209,-68.00958 10.583369,-10.44449 22.497991,-17.01141 37.162829,-20.48282 5.77669,-1.36745 17.744886,-1.25588 23.437176,0.21847 5.284949,1.36886 10.649833,3.44454 13.621069,5.26999 3.53068,2.16917 2.18262,1.95653 -2.23509,-0.35255 -2.229127,-1.16514 -6.338749,-2.7596 -9.132495,-3.54325 -4.491695,-1.25992 -6.051369,-1.42906 -13.476675,-1.46143 -5.124069,-0.0223 -9.587308,0.23397 -11.450615,0.65756 -16.536786,3.75941 -30.681683,12.2786 -41.624591,25.06968 -19.6396019,22.95657 -23.82934739,53.20874 -10.317502,74.49776 1.592982,2.50986 2.980847,4.56339 3.084158,4.56339 0.103311,0 -0.803892,-2.10075 -2.016007,-4.66834 z m -2.977969,-38.11369 c -0.162452,-0.4256 -0.283048,-0.29918 -0.30747,0.32235 -0.0221,0.56242 0.09819,0.87753 0.267297,0.70024 0.16911,-0.17728 0.187184,-0.63745 0.04015,-1.02259 z m 4.9357,-13.53255 c 0.173793,-0.4748 0.08849,-0.68895 -0.200011,-0.50204 -0.276701,0.17928 -0.50309,0.55188 -0.50309,0.828 0,0.76744 0.364777,0.59833 0.703101,-0.32596 z m 1.332569,-2.37316 c 0.299599,-0.58687 0.430219,-1.06704 0.290261,-1.06704 -0.139949,0 -0.499582,0.48017 -0.799181,1.06704 -0.299598,0.58688 -0.430218,1.06706 -0.29027,1.06706 0.139949,0 0.499582,-0.48018 0.79919,-1.06706 z m 13.995187,-19.74041 c 0.506616,-0.58687 0.806619,-1.06705 0.66667,-1.06705 -0.139958,0 -0.668965,0.48018 -1.17559,1.06705 -0.506616,0.58688 -0.806619,1.06705 -0.666661,1.06705 0.139949,0 0.668965,-0.48017 1.175581,-1.06705 z m 13.486276,-11.00992 c 0,-0.14672 -0.687039,0.24611 -1.526751,0.87295 -0.839711,0.62684 -1.52675,1.25975 -1.52675,1.40647 0,0.14672 0.687039,-0.24611 1.52675,-0.87295 0.839712,-0.62684 1.526751,-1.25975 1.526751,-1.40647 z m 22.254477,-9.05284 c -0.16912,-0.17729 -0.608056,-0.19624 -0.975429,-0.0421 -0.405975,0.17032 -0.285389,0.29673 0.30747,0.32234 0.536483,0.0232 0.83706,-0.10294 0.667959,-0.28022 z m 2.544581,-0.53352 c -0.16912,-0.17729 -0.608056,-0.19624 -0.975428,-0.0421 -0.405976,0.17031 -0.28539,0.29673 0.307469,0.32233 0.536483,0.0232 0.83706,-0.10293 0.667959,-0.28021 z m 3.328236,-0.56115 c -0.34455,-0.14614 -1.031589,-0.15503 -1.526751,-0.0198 -0.495152,0.13527 -0.213252,0.25485 0.626459,0.26573 0.839712,0.0109 1.244841,-0.0998 0.900292,-0.24595 z"
       id="path5016"
       inkscape:connector-curvature="0" />
  </g>
</svg>
