<?xml version="1.0" encoding="UTF-8" standalone="no"?>
<svg
   xmlns:dc="http://purl.org/dc/elements/1.1/"
   xmlns:cc="http://creativecommons.org/ns#"
   xmlns:rdf="http://www.w3.org/1999/02/22-rdf-syntax-ns#"
   xmlns:svg="http://www.w3.org/2000/svg"
   xmlns="http://www.w3.org/2000/svg"
   width="500mm"
   height="500mm"
   viewBox="0 0 500 500"
   version="1.1"
   id="svg8">
  <defs
     id="defs2" />
  <metadata
     id="metadata5">
    <rdf:RDF>
      <cc:Work
         rdf:about="">
        <dc:format>image/svg+xml</dc:format>
        <dc:type
           rdf:resource="http://purl.org/dc/dcmitype/StillImage" />
        <dc:title></dc:title>
      </cc:Work>
    </rdf:RDF>
  </metadata>
  <g
     id="layer1">
    <path
       style="fill:#000000;stroke-width:2.05683"
       d="M 208.20654,491.82653 C 163.93639,470.96439 137.82026,425.28672 126.23906,348.4636 108.10995,228.20545 143.85911,82.076564 205.33145,25.164016 227.74916,4.4091601 249.94654,-1.9031277 276.55742,4.9094253 c 50.3732,12.8958587 83.06683,60.9565257 97.11676,142.7646447 6.02051,35.05544 6.44908,99.94181 0.91864,139.08449 -7.42702,52.56609 -19.11902,92.60435 -38.38719,131.45368 -9.80365,19.7665 -12.04635,22.89372 -16.8136,23.44476 -3.8605,0.44622 -7.97939,3.91841 -13.81146,11.64294 -10.45502,13.84756 -15.37229,18.96828 -26.96632,28.08191 -21.87839,17.19779 -47.8893,21.05641 -70.40771,10.44468 z m 51.77898,-1.55073 c 13.79277,-6.42037 30.69695,-20.63513 41.40447,-34.81717 8.97048,-11.88128 9.52502,-13.40906 4.86732,-13.40906 -1.7652,0 -10.44723,7.40502 -19.29336,16.45558 -24.62775,25.19691 -43.51978,32.39675 -65.03797,24.78632 -6.71863,-2.3762 -15.62151,-4.52892 -19.7842,-4.78383 -7.28095,-0.44585 -7.43724,-0.31561 -4.11366,3.42751 1.90016,2.14006 8.08271,6.06471 13.739,8.72148 14.488,6.80499 33.0969,6.65801 48.2184,-0.38083 z m 0.24065,-14.35101 c 10.66303,-5.40336 36.26839,-30.31475 32.46302,-31.58321 -1.32996,-0.44333 -7.12346,4.30965 -12.8744,10.56218 -12.47102,13.55865 -21.20427,19.71623 -35.0953,24.74475 -9.8778,3.57572 -9.97412,3.68196 -2.21344,2.4413 4.46257,-0.7134 12.43662,-3.48765 17.72012,-6.16502 z m -9.20082,-0.93692 c 4.62315,-1.98781 14.34169,-9.33161 21.59677,-16.31958 l 13.19105,-12.70538 -9.25575,1.35117 c -11.14693,1.62726 -32.57648,10.44389 -49.51711,20.37252 -13.32964,7.81228 -18.22554,9.45241 -10.52097,3.52449 l 4.75223,-3.65636 -6.9503,-10.18153 c -19.65608,-28.79425 -30.53263,-60.10908 -36.75583,-105.82435 -3.35548,-24.64909 -3.36103,-84.52912 -0.0105,-114.15432 10.04941,-88.85841 48.76331,-174.110515 88.11149,-194.030788 11.36851,-5.755387 19.74216,-7.055048 29.14396,-4.523399 40.87382,11.006171 70.2125,88.352527 70.18396,185.027787 -0.0206,68.35414 -14.43245,136.4481 -39.64864,187.32893 -5.88679,11.87821 -11.0193,22.29093 -11.40562,23.13938 -0.38631,0.84844 2.01073,1.54263 5.32678,1.54263 5.55145,0 6.77868,-1.50756 15.48789,-19.02572 27.13251,-54.5757 41.27391,-122.22298 41.3849,-197.97033 C 376.24558,146.59941 363.13916,90.217747 337.13876,51.107548 307.20884,6.0866496 267.20717,0.69046476 228.91747,36.508615 c -39.847,37.274903 -71.44991,116.613785 -80.0185,200.885915 -2.90883,28.60828 -2.78876,83.8038 0.24117,110.86308 5.1539,46.02786 20.20404,90.7864 39.71927,118.12362 5.56488,7.79536 7.08927,8.75897 12.22984,7.73086 3.2299,-0.64597 7.87933,-0.0963 10.33204,1.22175 11.61507,6.24121 24.54661,6.12824 39.60406,-0.34597 z m -39.37931,-5.23644 c 2.19591,-1.66091 4.91816,-3.01985 6.04942,-3.01985 1.13125,0 0.26017,1.35894 -1.93575,3.01985 -2.19592,1.6609 -4.91816,3.01983 -6.04942,3.01983 -1.13126,0 -0.26017,-1.35893 1.93575,-3.01983 z m -22.30486,1.41619 c -0.58958,-0.95393 -4.22155,-6.41473 -8.07107,-12.13509 -23.08113,-34.29842 -36.98753,-95.44918 -37.07223,-163.01822 -0.0545,-43.51028 3.0065,-74.06425 11.15688,-111.36298 12.52905,-57.3369 31.49566,-101.613662 57.59852,-134.461372 18.30027,-23.02896 37.83426,-35.956369 60.5723,-40.086192 9.35358,-1.6988539 8.81996,-1.807278 -6.22392,-1.2645773 -11.76159,0.4242938 -18.84186,1.8218833 -24.82449,4.9001783 -48.8239,25.121719 -89.13427,106.690863 -102.93954,208.300943 -4.2396,31.20447 -4.77685,95.00318 -1.04728,124.36645 4.2175,33.20482 20.04578,89.47231 25.16893,89.47231 0.99439,0 3.68585,3.93369 5.98101,8.74154 4.33643,9.08389 17.67021,28.28148 19.64303,28.28148 0.6214,0 0.64744,-0.7805 0.0578,-1.73447 z m -18.07855,-18.31967 c -9.77466,-16.21723 -10.92408,-17.6458 -8.89469,-11.05501 1.0963,3.56044 0.83103,4.46936 -0.97811,3.35125 -1.9121,-1.18174 -1.94609,-0.53211 -0.14799,2.82766 2.67615,5.00046 4.7005,5.88144 2.93348,1.27664 -2.34076,-6.09989 0.81682,-2.89433 7.09113,7.19892 3.51614,5.6563 6.83653,10.28417 7.37865,10.28417 0.54211,0 -2.78,-6.24762 -7.38247,-13.88363 z m 61.62792,9.06664 c 13.06976,-8.20583 34.02241,-15.51128 54.17859,-18.89016 24.4976,-4.10666 27.28945,-5.3853 9.02821,-4.1349 -21.20418,1.45195 -55.79195,13.58288 -69.93238,24.52732 -6.32057,4.89203 -1.87855,3.89981 6.72558,-1.50226 z m 6.05081,-8.0413 c 18.20059,-9.4264 46.98136,-17.99422 60.44552,-17.99422 9.37368,0 10.33794,-0.50347 14.77202,-7.71313 23.07126,-37.51292 41.9118,-103.15067 46.78843,-163.00415 1.88543,-23.14114 1.67163,-34.27813 -1.28335,-66.84712 -1.95012,-21.49392 -3.58504,-42.53443 -3.6331,-46.75669 -0.0481,-4.22225 -0.75281,-6.60022 -1.56604,-5.28438 -0.85147,1.37769 -2.07038,-0.7621 -2.87385,-5.04494 -0.76741,-4.09056 -0.69772,-8.56601 0.15489,-9.94546 0.98982,-1.60157 0.69178,-1.97764 -0.82455,-1.04049 -1.30612,0.80719 -2.3747,0.56648 -2.3747,-0.53489 0,-5.36691 -13.55514,-36.504023 -20.7122,-47.577395 -7.06531,-10.931419 -8.5885,-12.242389 -12.06336,-10.382698 -2.18736,1.170642 -10.40121,2.128439 -18.25299,2.128439 h -14.27596 l -1.28551,-6.427608 c -0.70704,-3.535184 -1.28552,-8.561239 -1.28552,-11.169011 0,-4.331666 -0.55506,-4.582219 -6.42286,-2.899352 -7.22883,2.073197 -14.97525,6.651575 -21.91525,12.952588 l -4.68452,4.253191 15.37462,15.528729 c 8.45602,8.540802 16.15189,17.842677 17.10194,20.670827 0.96235,2.86474 0.78258,18.35065 -0.4059,34.96618 l -2.13329,29.82411 -40.79558,0.55827 -40.79559,0.55826 1.4355,-6.72877 c 6.71756,-31.48818 29.35215,-79.095406 44.91109,-94.461363 11.93826,-11.790157 31.93668,-22.326029 42.25782,-22.262894 22.04087,0.134825 46.78149,23.706718 58.82844,56.049437 2.01092,5.3987 4.02235,9.44964 4.4699,9.00211 1.55821,-1.55823 -11.83381,-32.60666 -18.61554,-43.158709 -13.94088,-21.691349 -27.16378,-30.995619 -43.82716,-30.838891 -45.05704,0.423786 -93.42369,91.05953 -105.72947,198.12967 -3.21259,27.95212 -3.28706,86.14369 -0.14213,111.06907 3.27082,25.92318 11.32927,56.88773 20.07324,77.1313 7.08415,16.40089 20.31617,36.85691 23.02541,35.59614 0.7845,-0.36509 8.10134,-4.12087 16.25961,-8.34616 z m -33.08132,-19.53685 c -10.68805,-21.2372 -14.66545,-35.74242 -22.84176,-83.3018 l -0.97241,-5.6563 h 41.35095 41.35093 l -1.21495,11.8268 c -0.66821,6.50474 -1.8353,21.35239 -2.59353,32.9948 l -1.37856,21.16799 -19.76263,18.42607 c -10.86942,10.13434 -21.37995,18.42608 -23.35672,18.42608 -2.37584,0 -5.96247,-4.70598 -10.58132,-13.88364 z m 34.56569,-7.39627 16.31761,-15.15719 1.57406,-14.17659 c 1.56993,-14.13896 2.10551,-40.70458 0.74197,-36.80179 -0.39522,1.13126 -1.30774,12.23817 -2.02779,24.68202 l -1.3092,22.62518 -19.92079,19.34198 c -23.01434,22.34564 -19.57382,21.96349 4.62414,-0.51361 z m -31.89172,0.0124 c -8.39331,-17.93603 -17.53095,-52.36602 -18.78376,-70.77578 -0.25019,-3.6766 -1.18359,-6.68471 -2.07423,-6.68471 -2.13004,0 -2.11215,0.25289 1.44887,20.48788 4.70679,26.74555 14.92523,57.73627 22.23735,67.44179 3.92428,5.20881 3.12657,2.256 -2.82823,-10.46914 z m 44.13871,-32.73701 c 0.72947,-8.19467 1.88191,-20.68428 2.56096,-27.75465 l 1.23461,-12.85521 h -32.35754 -32.35754 l 1.4131,11.3101 c 2.16867,17.35741 10.50281,46.42424 17.64548,61.54171 l 6.43359,13.6167 17.05048,-15.47962 17.05051,-15.47961 z m 9.48685,-41.63824 c 0,-2.82814 -0.79722,-5.14208 -1.77161,-5.14208 -0.97438,0 -1.32927,2.31394 -0.78863,5.14208 0.54064,2.82816 1.33785,5.14209 1.77161,5.14209 0.43375,0 0.78863,-2.31393 0.78863,-5.14209 z M 180.88771,322.1059 c -1.49106,-17.9 -0.75804,-55.82603 1.11506,-57.69298 1.47452,-1.46968 86.24411,-2.07671 87.69285,-0.62798 1.16809,1.16808 -2.78733,62.33713 -4.57786,70.79508 -0.97622,4.61134 -1.12593,4.62789 -41.89258,4.62789 H 182.3123 Z m 82.12936,8.36045 c 1.05645,-6.76509 5.31301,-56.64359 5.31301,-62.2581 0,-1.67551 -0.98021,-3.0464 -2.17823,-3.0464 -1.19803,0 -1.7595,0.69419 -1.24776,1.54263 0.67522,1.11943 -3.67581,64.3449 -4.6679,67.83014 -0.0734,0.25787 -17.48799,0.74236 -38.6991,1.07666 l -38.56565,0.60779 39.50087,0.466 39.50085,0.46599 z m -39.37242,-63.76504 37.4865,-0.60979 -38.29988,-0.46484 -38.29988,-0.46483 -1.41848,14.39528 c -0.78016,7.91738 -0.66836,23.42079 0.24845,34.45197 l 1.66692,20.05672 0.56493,-33.37737 0.56494,-33.37735 z m 35.27041,45.25354 c 0.71825,-10.46415 1.83548,-24.36953 2.48277,-30.90085 l 1.17688,-11.87509 -36.71639,0.56251 -36.71638,0.56252 -0.6308,21.59677 c -0.34694,11.87821 -0.0589,25.53045 0.64023,30.33831 l 1.27104,8.74155 h 33.59339 33.59339 z m -57.10462,-9.24009 c -0.59646,-0.96509 -0.31337,-3.00236 0.62907,-4.52726 2.08602,-3.37529 9.00087,-1.1941 7.78558,2.45584 -1.02926,3.09126 -6.89235,4.53458 -8.41465,2.07142 z m 6.87144,-1.43691 c 0,-0.49886 -0.92558,-1.47906 -2.05685,-2.17822 -1.13125,-0.69917 -2.05683,-0.29101 -2.05683,0.90702 0,1.19802 0.92558,2.17823 2.05683,2.17823 1.13127,0 2.05685,-0.40816 2.05685,-0.90703 z m 23.6536,0.90703 c -1.67846,-2.71578 0.56945,-6.17051 4.015,-6.17051 3.00849,0 5.69068,5.03497 3.72781,6.99783 -1.91801,1.91802 -6.338,1.44573 -7.74281,-0.82732 z m -50.39246,-48.23686 c 0,-4.09482 7.99514,-58.0467 9.92073,-66.94591 l 1.55769,-7.19892 41.83803,-0.55766 41.83803,-0.55766 -1.26071,13.92709 c -0.69339,7.65988 -1.78515,22.25726 -2.42615,32.43858 -0.64099,10.18134 -1.62549,21.51964 -2.18778,25.19623 l -1.02236,6.68471 h -44.12873 c -37.20551,0 -44.12875,-0.46854 -44.12875,-2.98646 z m 89.22557,-29.38725 c 0.76338,-13.30408 1.94461,-28.58572 2.62495,-33.9592 0.83095,-6.5628 0.48279,-9.76997 -1.06056,-9.76997 -1.26365,0 -2.09542,1.61976 -1.84835,3.59946 0.97958,7.84955 -3.09865,63.50244 -4.93624,67.36134 -1.80518,3.79085 -1.73167,3.83287 0.93666,0.53564 1.90526,-2.35428 3.37029,-11.85107 4.28354,-27.76727 z m -77.72555,-14.17603 c 1.86054,-11.46163 4.00775,-21.8505 4.77158,-23.08641 0.88559,-1.4329 13.65317,-2.48158 35.23789,-2.8943 l 33.84915,-0.64723 -35.9946,0.08 -35.99461,0.08 -3.49665,17.48309 c -1.92316,9.61571 -3.97234,24.88771 -4.55374,33.93778 -1.18787,18.49051 -0.26887,14.78046 6.18098,-24.95298 z m 71.59251,21.35352 c 0.74265,-9.33289 1.90733,-23.21652 2.58817,-30.85252 l 1.23789,-13.88363 h -34.06493 c -30.66348,0 -34.17191,0.35941 -35.13621,3.59946 -1.33369,4.48125 -6.70486,35.22204 -8.44541,48.33562 l -1.29676,9.76995 h 36.88347 36.88346 z m -41.56882,-13.34584 c 1.03255,-5.36162 7.84033,-5.95958 7.84033,-0.68864 0,2.94353 -1.32097,4.26449 -4.26448,4.26449 -2.94353,0 -4.05118,-1.10765 -3.57585,-3.57585 z m 5.78349,-0.53783 c 0,-1.13125 -0.92557,-2.05683 -2.05683,-2.05683 -1.13127,0 -2.05684,0.92558 -2.05684,2.05683 0,1.13126 0.92557,2.05684 2.05684,2.05684 1.13126,0 2.05683,-0.92558 2.05683,-2.05684 z M 155.10365,428.40624 C 139.17083,384.90014 131.952,341.38068 131.94891,288.81539 131.94067,151.59933 185.89676,24.986114 251.94309,7.2365223 c 9.40842,-2.5284604 10.1649,-3.0441155 4.63207,-3.1573707 -9.24921,-0.1893285 -24.62065,5.393698 -35.55228,12.9128514 -29.90204,20.567674 -57.94247,66.592038 -74.75694,122.702877 -14.03249,46.82715 -20.47868,93.56993 -20.28123,147.06368 0.22245,60.26737 7.85675,101.47426 26.58718,143.50695 6.73306,15.10957 8.31946,13.94456 2.53176,-1.85927 z m 165.20065,10.23734 c -1.39254,-0.56341 -4.16927,-0.5977 -6.17051,-0.0763 -2.00124,0.52149 -0.86188,0.98247 2.5319,1.02439 3.39378,0.0419 5.03114,-0.38475 3.63861,-0.94819 z M 276.80279,153.93116 c 0.70058,-8.39559 1.39477,-22.51458 1.54263,-31.37553 l 0.26883,-16.11083 -15.75994,-17.312737 c -8.66797,-9.522003 -16.69954,-17.312731 -17.84793,-17.312731 -1.14842,0 5.61021,7.886917 15.01917,17.526485 l 17.10716,17.526493 -1.4652,26.95386 c -0.80589,14.82464 -2.33104,29.23111 -3.38925,32.0144 -1.44323,3.79597 -1.27747,4.84747 0.66337,4.20791 1.60443,-0.52871 3.07128,-6.65171 3.86116,-16.11732 z m -70.35906,0.71073 c 5.12337,-21.09378 24.91883,-63.955323 34.68903,-75.109429 2.02732,-2.314482 2.29567,-3.59946 0.75171,-3.59946 -3.00592,0 -15.5103,19.374887 -22.3984,34.705129 -6.59132,14.66977 -19.03153,49.4397 -19.03153,53.19245 0,5.91058 3.70087,0.23265 5.98919,-9.18869 z m 64.82016,-10.31913 c 0.75261,-12.16104 1.85487,-24.62254 2.44948,-27.69223 0.91552,-4.72646 -1.06569,-7.87658 -12.93619,-20.568344 -7.70952,-8.242903 -14.94886,-15.220123 -16.08742,-15.504931 -2.46322,-0.616166 -15.11236,20.249485 -22.69058,37.429715 -6.09536,13.81855 -15.37415,41.35406 -15.37415,45.62405 0,2.27004 6.194,2.82271 31.63526,2.82271 h 31.63525 z M 313.45567,66.526915 C 309.81693,62.1425 296.2042,55.364654 291.0372,55.364654 c -3.42376,0 -4.19561,1.324359 -4.19561,7.198921 v 7.198922 h 14.64968 c 13.09126,0 14.36403,-0.344203 11.9644,-3.235582 z"
       id="path160" />
  </g>
</svg>
