<?xml version="1.0" encoding="UTF-8" standalone="no"?>
<!-- Created with Inkscape (http://www.inkscape.org/) -->

<svg
   xmlns:dc="http://purl.org/dc/elements/1.1/"
   xmlns:cc="http://creativecommons.org/ns#"
   xmlns:rdf="http://www.w3.org/1999/02/22-rdf-syntax-ns#"
   xmlns:svg="http://www.w3.org/2000/svg"
   xmlns="http://www.w3.org/2000/svg"
   xmlns:sodipodi="http://sodipodi.sourceforge.net/DTD/sodipodi-0.dtd"
   xmlns:inkscape="http://www.inkscape.org/namespaces/inkscape"
   width="500"
   height="500"
   viewBox="0 0 132.29166 132.29167"
   version="1.1"
   id="svg8"
   inkscape:version="0.92.4 5da689c313, 2019-01-14"
   sodipodi:docname="icon.svg">
  <defs
     id="defs2" />
  <sodipodi:namedview
     id="base"
     pagecolor="#ffffff"
     bordercolor="#666666"
     borderopacity="1.0"
     inkscape:pageopacity="0.0"
     inkscape:pageshadow="2"
     inkscape:zoom="0.42657054"
     inkscape:cx="322.0882"
     inkscape:cy="275.94377"
     inkscape:document-units="mm"
     inkscape:current-layer="layer1"
     showgrid="false"
     units="px"
     inkscape:window-width="1920"
     inkscape:window-height="1003"
     inkscape:window-x="0"
     inkscape:window-y="0"
     inkscape:window-maximized="1" />
  <metadata
     id="metadata5">
    <rdf:RDF>
      <cc:Work
         rdf:about="">
        <dc:format>image/svg+xml</dc:format>
        <dc:type
           rdf:resource="http://purl.org/dc/dcmitype/StillImage" />
        <dc:title></dc:title>
      </cc:Work>
    </rdf:RDF>
  </metadata>
  <g
     inkscape:label="Layer 1"
     inkscape:groupmode="layer"
     id="layer1"
     transform="translate(0,-164.70832)">
    <path
       style="fill:#000000;stroke:#000000;stroke-width:0.52927262"
       d="m 59.42138,285.86945 v -4.05053 H 35.04292 10.66446 l -0.041,-2.56533 c -0.0226,-1.41094 -0.006,-7.00067 0.0374,-12.42162 l 0.0784,-9.85629 H 6.9154304 c -2.28249,0 -4.07471,-0.26123 -4.44624,-0.64808 -0.46378,-0.4829 -0.62243,-6.26667 -0.62243,-22.69127 v -22.04317 l 3.17711,-6.60756 c 2.8025,-5.82845 3.73115,-7.1966 7.8759096,-11.60321 l 4.6988,-4.99565 H 38.51 59.42142 v -8.31897 -8.31897 l 2.72313,-0.22025 c 1.49772,-0.12113 3.01489,-0.11859 3.37149,0.006 0.45923,0.16001 0.64836,1.75438 0.64836,5.46561 0,5.37301 0.37133,6.5794 2.23324,7.25548 0.61259,0.22244 1.37506,-0.11657 2.20443,-0.98012 1.16767,-1.2158 1.26793,-1.72783 1.26793,-6.47541 v -5.15521 h 3.37149 3.37149 v 8.37109 8.37109 h 21.00326 21.00326 l 3.3752,7.0132 3.3752,7.01321 v 22.56832 22.56832 l -4.14952,4.29522 -4.14953,4.29523 v 8.39568 8.39569 l -4.29003,4.44365 -4.29004,4.44366 h -15.9389 -15.9389 v 4.05053 4.05053 H 75.24149 71.87 v -4.05053 -4.05053 h -2.8528 -2.8528 v 4.05053 4.05053 h -3.37149 -3.37149 z m 4.28907,3.1562 c -0.35117,-0.14793 -1.0514,-0.15694 -1.55607,-0.02 -0.50467,0.13692 -0.21735,0.25797 0.63849,0.26897 0.85584,0.011 1.26875,-0.10102 0.91758,-0.24897 z m 12.44858,0 c -0.35117,-0.14793 -1.0514,-0.15694 -1.55608,-0.02 -0.50467,0.13692 -0.21734,0.25797 0.6385,0.26897 0.85584,0.011 1.26875,-0.10102 0.91758,-0.24897 z m -15.84374,-5.72154 c -0.11506,-0.96537 -0.2092,-0.17552 -0.2092,1.75523 0,1.93075 0.0941,2.72061 0.2092,1.75523 0.11506,-0.96537 0.11506,-2.54508 0,-3.51046 z m 3.77431,1.75523 v -3.24042 h -1.55607 c -1.53446,0 -1.55608,0.04 -1.55608,2.88037 0,3.24155 0.1896,3.60047 1.90187,3.60047 1.13343,0 1.21028,-0.20574 1.21028,-3.24042 z m 12.44857,0 c 0,-3.0964 -0.0576,-3.24042 -1.29672,-3.24042 -1.2391,0 -1.29673,0.14402 -1.29673,3.24042 0,3.0964 0.0576,3.24042 1.29673,3.24042 1.23909,0 1.29672,-0.14402 1.29672,-3.24042 z M 11.5407,277.63337 c -0.13047,-0.51981 -0.23721,-0.0945 -0.23721,0.94513 0,1.03963 0.10674,1.46494 0.23721,0.94512 0.13046,-0.51982 0.13046,-1.37043 0,-1.89025 z m 97.1563,0.67509 v -1.35017 H 60.45876 12.22053 v 1.35017 1.35018 H 60.45876 108.697 Z m 8.29905,-13.88991 v -7.44287 h -3.11215 -3.11214 v 10.64949 10.64948 l 3.11214,-3.20661 3.11215,-3.20661 z m -105.4267,-2.98729 c -0.0951,-2.59909 -0.17288,-0.47256 -0.17288,4.72562 0,5.19818 0.0778,7.3247 0.17288,4.72561 0.0951,-2.59908 0.0951,-6.85214 0,-9.45123 z m 97.24562,3.51046 0.14137,-9.85629 4.01985,-0.15773 4.01986,-0.15774 v -2.94766 -2.94768 H 60.45876 3.9214804 v 2.97039 2.97039 h 4.14952 4.1495296 v 9.9913 9.9913 h 48.22653 48.22653 z m -86.39352,7.87602 c -0.19019,-0.19802 -0.3458,-5.05865 -0.3458,-10.8014 v -10.44136 h 38.38311 38.38311 v 10.8014 10.80141 H 60.80456 c -20.92053,0 -38.19293,-0.16202 -38.38311,-0.36005 z m 1.07839,-15.40969 c -0.0943,-2.76263 -0.17195,-0.6484 -0.17249,4.6983 -5.2e-4,5.3467 0.0766,7.60703 0.1715,5.02297 0.0949,-2.58407 0.0953,-6.95864 9.9e-4,-9.72127 z m 7.91224,4.6983 v -8.91116 H 28.0406 24.66911 v 8.91116 8.91116 h 3.37149 3.37148 z m 9.33644,0 v -8.91116 h -3.63084 -3.63083 v 8.91116 8.91116 h 3.63083 3.63084 z m 9.21961,0.13502 -0.14253,-8.77615 -3.50116,-0.15969 -3.50116,-0.15969 v 8.93583 8.93584 h 3.64368 3.64369 z m 9.45325,-0.13502 v -8.91116 H 55.5312 51.64102 v 8.91116 8.91116 h 3.89018 3.89018 z m 1.42287,-4.75213 c -0.0959,-2.43599 -0.17385,-0.29753 -0.17325,4.75213 5.2e-4,5.04966 0.079,7.04273 0.17433,4.42906 0.0953,-2.61367 0.0948,-6.74521 -10e-4,-9.18119 z m 7.91356,4.75213 v -8.91116 h -3.63083 -3.63084 v 8.91116 8.91116 h 3.63084 3.63083 z m 9.7383,0.13502 -0.14252,-8.77615 -4.01985,-0.15773 -4.01985,-0.15774 v 8.93388 8.93388 h 4.16237 4.16237 z m 1.021,-4.88715 c -0.0959,-2.43599 -0.17384,-0.29753 -0.17324,4.75213 5.1e-4,5.04966 0.079,7.04273 0.17433,4.42906 0.0953,-2.61367 0.0948,-6.74521 -10e-4,-9.18119 z m 7.91357,4.75213 v -8.91116 h -3.63084 -3.63083 v 8.91116 8.91116 h 3.63083 3.63084 z m 0.90417,-4.75213 c -0.0959,-2.43599 -0.17384,-0.29753 -0.17324,4.75213 5.2e-4,5.04966 0.079,7.04273 0.17433,4.42906 0.0953,-2.61367 0.0948,-6.74521 -10e-4,-9.18119 z m 8.95095,4.75213 v -8.91116 h -3.89018 -3.89018 v 8.91116 8.91116 h 3.89018 3.89018 z m 0.90418,-4.75213 c -0.0959,-2.43599 -0.17385,-0.29753 -0.17325,4.75213 5.2e-4,5.04966 0.079,7.04273 0.17433,4.42906 0.0953,-2.61367 0.0948,-6.74521 -10e-4,-9.18119 z m -68.47521,-5.09325 c -1.07616,-0.1169 -2.71004,-0.11494 -3.63083,0.004 -0.9208,0.11931 -0.0403,0.21497 1.95666,0.21257 1.99695,-0.002 2.75033,-0.10001 1.67417,-0.21692 z m 9.348,5.4e-4 c -1.0698,-0.11651 -2.82038,-0.11651 -3.89018,0 -1.0698,0.11652 -0.19451,0.21185 1.94509,0.21185 2.1396,0 3.01489,-0.0953 1.94509,-0.21185 z m 8.80618,-5.4e-4 c -1.07617,-0.1169 -2.71004,-0.11494 -3.63084,0.004 -0.9208,0.11931 -0.0403,0.21497 1.95666,0.21257 1.99696,-0.002 2.75034,-0.10001 1.67418,-0.21692 z m 9.8804,0.002 c -1.06226,-0.11605 -2.92955,-0.11765 -4.14953,-0.004 -1.21998,0.11409 -0.35086,0.20904 1.93138,0.211 2.28224,0.002 3.2804,-0.0914 2.21815,-0.20743 z m 8.79246,-0.002 c -1.07616,-0.1169 -2.71004,-0.11494 -3.63083,0.004 -0.9208,0.11931 -0.0403,0.21497 1.95665,0.21257 1.99696,-0.002 2.75034,-0.10001 1.67418,-0.21692 z m 10.12604,-10e-4 c -1.21244,-0.1137 -3.19643,-0.1137 -4.40887,0 -1.21244,0.11371 -0.22045,0.20674 2.20443,0.20674 2.42488,0 3.41688,-0.093 2.20444,-0.20674 z m 9.07708,0.002 c -1.0698,-0.11651 -2.82038,-0.11651 -3.89018,0 -1.0698,0.11652 -0.19451,0.21185 1.94509,0.21185 2.1396,0 3.01489,-0.0953 1.94509,-0.21185 z m 9.86884,0.001 c -1.06226,-0.11605 -2.92955,-0.11765 -4.14953,-0.004 -1.21998,0.11409 -0.35086,0.20904 1.93138,0.211 2.28224,0.002 3.2804,-0.0914 2.21815,-0.20743 z m -86.8943996,3.24172 c -0.92716,-0.1198 -2.44433,-0.1198 -3.37149,0 -0.92716,0.11981 -0.16858,0.21783 1.68574,0.21783 1.85432,0 2.61291,-0.098 1.68575,-0.21783 z m 106.8502796,0 c -0.92716,-0.1198 -2.44433,-0.1198 -3.37149,0 -0.92716,0.11981 -0.16858,0.21783 1.68574,0.21783 1.85432,0 2.61291,-0.098 1.68575,-0.21783 z m 7.39134,-4.46994 c 1.98166,-2.07927 3.48631,-3.7805 3.34367,-3.7805 -0.14264,0 -1.8807,1.70123 -3.86236,3.7805 -1.98166,2.07927 -3.48631,3.78049 -3.34367,3.78049 0.14264,0 1.8807,-1.70122 3.86236,-3.78049 z m 2.33411,-6.71707 v -2.70019 l -3.11215,3.20661 c -2.97815,3.06855 -3.11214,3.32287 -3.11214,5.90696 v 2.70035 l 3.11214,-3.20661 c 2.97816,-3.06856 3.11215,-3.32287 3.11215,-5.90696 z m -102.58754,-3.94932 0.14613,-6.34583 h 37.86442 37.86442 l 0.14613,6.34583 0.14614,6.34582 h 9.06062 9.06063 V 229.70212 212.68991 H 60.45876 3.9214804 v 17.01221 17.01222 h 9.3199696 9.31997 z m 56.95137,-12.17087 c -1.69141,-0.89107 -2.45778,-3.15095 -1.6751,-4.93955 1.13523,-2.59426 5.24286,-2.51122 6.29247,0.1272 0.8018,2.01553 -0.0125,4.2698 -1.79765,4.97649 -1.60488,0.63533 -1.26458,0.65514 -2.81972,-0.16414 z m 3.10353,-2.79076 c 0,-1.77527 -2.35233,-2.65801 -2.9271,-1.09843 -0.48227,1.30856 0.77345,2.5054 1.94419,1.85302 0.5406,-0.30125 0.98291,-0.64081 0.98291,-0.75459 z m 2.81879,0.56608 c -0.58406,-2.42301 0.10997,-3.43167 2.38373,-3.46434 1.13254,-0.0163 2.05915,0.1982 2.05915,0.47663 0,0.76956 4.02651,0.61136 4.29788,-0.16887 0.18784,-0.54007 0.45442,-0.54007 1.33291,0 0.60396,0.3713 1.58289,0.67509 2.1754,0.67509 0.90294,0 1.05098,0.28405 0.91475,1.75522 l -0.16254,1.75523 -6.34114,0.14722 -6.34113,0.14722 z m 8.07372,-0.84434 c 0,-0.28771 -0.35012,-0.38322 -0.77804,-0.21225 -0.42792,0.17098 -0.77804,0.40638 -0.77804,0.52312 0,0.11674 0.35012,0.21226 0.77804,0.21226 0.42792,0 0.77804,-0.23541 0.77804,-0.52313 z m -61.72419,21.15382 c 0,-0.23763 -0.23648,-0.67828 -0.5255,-0.97922 -0.35487,-0.3695 -0.33395,-1.11929 0.0644,-2.30921 0.43675,-1.30452 0.43852,-1.91972 0.007,-2.36922 -0.32073,-0.33394 -0.58314,-1.53069 -0.58314,-2.65944 v -2.05227 H 27.7814 24.66926 v 5.40071 5.4007 h 3.63083 c 1.99696,0 3.63084,-0.19442 3.63084,-0.43205 z m 9.33643,-4.96865 v -5.40071 h -4.14953 c -4.03089,0 -4.14952,0.037 -4.14952,1.2924 0,0.71082 0.35011,1.43228 0.77803,1.60326 0.89237,0.35655 1.04885,1.78098 0.22699,2.06622 -0.38509,0.13366 -0.37642,0.66951 0.0288,1.77915 0.3189,0.87335 0.44572,2.14421 0.28182,2.82415 -0.28933,1.20032 -0.19222,1.23623 3.34273,1.23623 h 3.64071 z m 0.90109,-2.83537 c -0.10478,-1.55945 -0.1905,-0.28354 -0.1905,2.83537 0,3.11891 0.0857,4.39482 0.1905,2.83537 0.10478,-1.55945 0.10478,-4.11129 0,-5.67074 z m 8.43534,8.0012 c 0,-0.12919 -0.24641,-0.90971 -0.54759,-1.73452 -0.40161,-1.09986 -0.37825,-1.82908 0.0876,-2.73551 1.36477,-2.6552 3.58407,-0.35752 2.57263,2.66349 -0.30614,0.91439 -0.55662,1.74778 -0.55662,1.85197 0,0.10419 1.75059,0.18944 3.89018,0.18944 h 3.89018 v -5.4007 -5.40071 H 57.86526 55.7905 v 2.43032 c 0,3.04197 -1.19567,3.31357 -2.0951,0.4759 -0.50436,-1.59121 -0.48774,-2.04132 0.0894,-2.42205 0.42408,-0.27973 -1.63565,-0.47095 -5.12634,-0.4759 l -5.83527,-0.008 v 5.40071 5.4007 h 3.89018 c 2.1396,0 3.89018,-0.10569 3.89018,-0.23487 z m -3.92072,-7.02307 c -0.89351,-0.68963 -0.91927,-0.86604 -0.22881,-1.56725 0.42792,-0.43458 1.76083,-0.95524 2.96202,-1.15702 2.03133,-0.34123 2.20695,-0.27158 2.51261,0.99648 0.18075,0.74985 0.17618,1.6202 -0.0102,1.93412 -0.49664,0.83671 -4.06653,0.69602 -5.23566,-0.20633 z m 14.15824,-0.97813 c -0.10477,-1.55945 -0.1905,-0.28354 -0.1905,2.83537 0,3.11891 0.0857,4.39482 0.1905,2.83537 0.10478,-1.55945 0.10478,-4.11129 0,-5.67074 z m 17.77178,2.83537 v -5.40071 h -3.37149 -3.37149 v 2.37687 c 0,2.37053 -0.005,2.37672 -1.83145,2.32281 -1.46047,-0.0431 -1.89255,-0.30753 -2.13309,-1.30539 -0.16589,-0.68824 -0.18053,-1.7335 -0.0325,-2.32281 0.2477,-0.98624 0.005,-1.07148 -3.05382,-1.07148 h -3.32293 v 5.40071 5.4007 h 8.55839 8.5584 z m 0.90109,-2.83537 c -0.10478,-1.55945 -0.19051,-0.28354 -0.19051,2.83537 0,3.11891 0.0857,4.39482 0.19051,2.83537 0.10477,-1.55945 0.10477,-4.11129 0,-5.67074 z m 8.32812,6.21081 c -0.1312,-1.74662 0.008,-2.04901 1.01493,-2.19784 1.04624,-0.15472 1.16705,0.0549 1.16705,2.02526 v 2.19784 h 3.37149 3.37149 v -5.4007 -5.40071 h -3.25553 -3.25552 l 0.19567,2.13633 c 0.1753,1.91394 0.0583,2.17223 -1.12387,2.48116 -1.8784,0.49088 -2.41587,-0.0629 -2.41587,-2.48908 v -2.12841 H 83.5405 80.16901 v 5.40071 5.4007 h 3.91263 3.91263 z m 34.60015,-1.21516 c 1.69382,-1.78223 2.96296,-3.24042 2.82032,-3.24042 -0.14264,0 -1.64519,1.45819 -3.33901,3.24042 -1.69382,1.78223 -2.96296,3.24042 -2.82032,3.24042 0.14264,0 1.64519,-1.45819 3.33901,-3.24042 z m 2.8528,-21.29897 v -16.74218 l -3.11215,3.20661 -3.11214,3.20661 v 16.74218 16.74218 l 3.11214,-3.20661 3.11215,-3.2066 z m -11.53255,-17.31606 -2.7086,-5.67074 H 60.60459 10.15523 l -2.5981896,5.39089 c -1.429,2.96499 -2.59818,5.51682 -2.59818,5.67074 0,0.15391 25.0902696,0.27985 55.7561496,0.27985 h 55.75614 z m 8.67975,2.43031 c 1.69382,-1.78223 2.96296,-3.24042 2.82032,-3.24042 -0.14264,0 -1.64519,1.45819 -3.33901,3.24042 -1.69382,1.78224 -2.96296,3.24043 -2.82032,3.24043 0.14264,0 1.64519,-1.45819 3.33901,-3.24043 z m -0.43825,-1.16315 3.22049,-3.32343 -2.61774,-5.45271 c -1.43976,-2.99899 -2.71403,-5.56062 -2.83171,-5.69251 -0.11767,-0.13189 -1.70661,1.30057 -3.53098,3.18325 l -3.31702,3.42305 2.67142,5.59289 c 1.46928,3.07609 2.78699,5.59289 2.92823,5.59289 0.14125,0 1.70604,-1.49554 3.47731,-3.32343 z M 14.55464,193.24737 c 1.98166,-2.07927 3.48631,-3.78049 3.34367,-3.78049 -0.14264,0 -1.88071,1.70122 -3.86236,3.78049 -1.98166,2.07927 -3.48631,3.7805 -3.34367,3.7805 0.14264,0 1.8807,-1.70123 3.86236,-3.7805 z m 99.58861,0.54007 3.07967,-3.24042 H 67.68796 18.153 l -3.07967,3.24042 -3.07967,3.24043 h 49.53496 49.53496 z m -53.81804,-16.8772 c -0.0985,-2.15353 -0.17902,-0.39155 -0.17902,3.91551 0,4.30706 0.0806,6.06904 0.17902,3.91551 0.0985,-2.15353 0.0985,-5.67749 0,-7.83102 z m 16.21296,3.91551 v -7.56098 h -1.23485 c -1.1986,0 -1.24117,0.15011 -1.44963,5.1129 -0.18774,4.46949 -0.37009,5.28504 -1.44901,6.48084 -0.89455,0.99146 -1.7687,1.36795 -3.17617,1.36795 -4.14538,0 -5.13891,-1.61324 -5.13891,-8.34427 v -4.61742 h -1.55607 -1.55608 v 7.56098 7.56099 h 7.78036 7.78036 z m -6.88345,4.53434 c -0.17236,-0.17946 -0.61973,-0.19864 -0.99416,-0.0426 -0.41378,0.1724 -0.29087,0.30037 0.31338,0.32629 0.54678,0.0234 0.85313,-0.1042 0.68078,-0.28366 z m -6.21349,-13.00768 c -0.49924,-0.13584 -1.31617,-0.13584 -1.81541,0 -0.49924,0.13584 -0.0908,0.24699 0.90771,0.24699 0.99848,0 1.40694,-0.11115 0.9077,-0.24699 z m 12.97332,0.001 c -0.49592,-0.13518 -1.42956,-0.14008 -2.07476,-0.0109 -0.64521,0.12918 -0.23946,0.23978 0.90166,0.24578 1.14112,0.006 1.66901,-0.0997 1.1731,-0.23488 z"
       id="path4070"
       inkscape:connector-curvature="0"
       inkscape:transform-center-x="202.82402"
       inkscape:transform-center-y="18.607708" />
  </g>
</svg>
