<?xml version="1.0" encoding="UTF-8" standalone="no"?>
<!-- Created with Inkscape (http://www.inkscape.org/) -->

<svg
   xmlns:dc="http://purl.org/dc/elements/1.1/"
   xmlns:cc="http://creativecommons.org/ns#"
   xmlns:rdf="http://www.w3.org/1999/02/22-rdf-syntax-ns#"
   xmlns:svg="http://www.w3.org/2000/svg"
   xmlns="http://www.w3.org/2000/svg"
   xmlns:sodipodi="http://sodipodi.sourceforge.net/DTD/sodipodi-0.dtd"
   xmlns:inkscape="http://www.inkscape.org/namespaces/inkscape"
   width="500"
   height="500"
   viewBox="0 0 132.29166 132.29167"
   version="1.1"
   id="svg8"
   inkscape:version="0.92.4 (5da689c313, 2019-01-14)"
   sodipodi:docname="icon.svg">
  <defs
     id="defs2" />
  <sodipodi:namedview
     id="base"
     pagecolor="#ffffff"
     bordercolor="#666666"
     borderopacity="1.0"
     inkscape:pageopacity="0.0"
     inkscape:pageshadow="2"
     inkscape:zoom="1.3898629"
     inkscape:cx="389.6017"
     inkscape:cy="269.38455"
     inkscape:document-units="mm"
     inkscape:current-layer="layer1"
     showgrid="false"
     units="px"
     inkscape:window-width="1920"
     inkscape:window-height="1017"
     inkscape:window-x="-8"
     inkscape:window-y="-8"
     inkscape:window-maximized="1" />
  <metadata
     id="metadata5">
    <rdf:RDF>
      <cc:Work
         rdf:about="">
        <dc:format>image/svg+xml</dc:format>
        <dc:type
           rdf:resource="http://purl.org/dc/dcmitype/StillImage" />
        <dc:title></dc:title>
      </cc:Work>
    </rdf:RDF>
  </metadata>
  <g
     inkscape:label="Ebene 1"
     inkscape:groupmode="layer"
     id="layer1"
     transform="translate(0,-164.70832)">
    <path
       style="fill:#000000;stroke-width:0.52891016"
       d="m 53.93682,295.29304 c -0.19393,-0.19393 -0.3526,-2.09801 -0.3526,-4.23128 v -3.87867 h -1.6078 c -2.02925,0 -5.11865,-1.57152 -6.92319,-3.52171 -1.42434,-1.53929 -2.21872,-3.58838 -2.83814,-7.32095 -0.1931,-1.1636 -1.5817,-4.97176 -3.08577,-8.46256 l -2.734683,-6.34693 v -29.09005 -29.09006 l 1.65159,-3.17346 c 2.362213,-4.53889 4.360703,-10.85436 5.272153,-16.66067 1.08803,-6.93114 1.61975,-8.6922 3.18666,-10.55437 l 1.3552,-1.61057 h 9.47336 9.47337 v -2.64455 -2.64455 h 5.2891 5.2891 v 2.64455 2.64455 h 7.56544 7.56545 l 1.69048,1.74414 1.69049,1.74414 v 56.17152 56.17153 H 94.597 c -1.25565,0 -1.3053,0.13994 -1.45451,4.09905 -0.1417,3.76022 -0.25034,4.1127 -1.3142,4.2641 -1.03799,0.14771 -1.17679,-0.10213 -1.32228,-2.3801 -0.1377,-2.15623 -0.33975,-2.57036 -1.32227,-2.71018 -1.03799,-0.14771 -1.17679,0.10212 -1.32228,2.3801 -0.13906,2.17752 -0.33443,2.56955 -1.35259,2.71415 -1.14977,0.16329 -1.19005,0.0245 -1.19005,-4.09906 v -4.26806 H 73.41835 61.51787 v 4.26806 c 0,4.12362 -0.0403,4.26235 -1.19005,4.09906 -1.01555,-0.14423 -1.21369,-0.53741 -1.35125,-2.68134 -0.13011,-2.02755 -0.34882,-2.51232 -1.13346,-2.51232 -1.14873,0 -1.61434,1.00405 -1.61434,3.48117 0,1.40054 -0.21851,1.80793 -0.96967,1.80793 -0.53332,0 -1.12834,-0.15867 -1.32228,-0.35261 z m 1.76304,-2.51862 c 0,-1.70039 1.0846,-3.47569 2.12343,-3.47569 0.82889,0 2.10785,2.31785 2.10785,3.82006 0,0.80797 0.23801,1.46904 0.52891,1.46904 0.30223,0 0.52891,-1.58673 0.52891,-3.70237 v -3.70237 H 57.8155 54.64204 v 3.70237 c 0,2.11564 0.22667,3.70237 0.52891,3.70237 0.2909,0 0.52891,-0.81603 0.52891,-1.81341 z m 31.7346,-0.23747 c 0,-2.4986 1.02922,-3.57382 2.61075,-2.72741 0.82111,0.43945 1.09162,1.10389 1.09162,2.68126 0,1.51142 0.22156,2.09703 0.79337,2.09703 0.62966,0 0.79336,-0.76398 0.79336,-3.70237 v -3.70237 h -3.43791 -3.43792 v 3.70237 c 0,2.93839 0.16371,3.70237 0.79337,3.70237 0.56881,0 0.79336,-0.58048 0.79336,-2.05088 z m -33.9763,-6.24618 c -0.50569,-0.13238 -1.45773,-0.13718 -2.11565,-0.0107 -0.65791,0.12651 -0.24417,0.23482 0.91943,0.2407 1.1636,0.006 1.7019,-0.0976 1.19622,-0.23003 z m 27.26571,-0.032 c -4.41808,-0.0884 -11.79638,-0.0885 -16.39622,-4.1e-4 -4.59983,0.0881 -0.98504,0.16045 8.03288,0.16068 9.01791,2.2e-4 12.78142,-0.0719 8.36334,-0.16027 z m 12.40254,0.032 c -0.50568,-0.13238 -1.45772,-0.13718 -2.11564,-0.0107 -0.65791,0.12651 -0.24417,0.23482 0.91943,0.2407 1.1636,0.006 1.7019,-0.0976 1.19621,-0.23003 z m -37.42655,-3.52583 c 0,-1.84818 0.14341,-4.7638 0.31869,-6.47915 l 0.3187,-3.11882 -1.90543,-1.00888 c -1.28599,-0.68091 -1.90542,-1.37925 -1.90542,-2.14818 0,-0.75805 -1.15182,-2.0921 -3.44208,-3.98667 l -3.44208,-2.84739 0.34166,-3.33478 0.34165,-3.33477 h -2.45313 c -1.34923,0 -2.45314,0.10729 -2.45314,0.23842 0,1.60394 1.6616,6.93334 3.51979,11.28937 1.27758,2.99492 2.67437,7.11629 3.10398,9.15859 0.88607,4.21224 1.26963,5.08008 2.89553,6.55151 1.07006,0.96838 3.44005,2.238 4.36459,2.33812 0.21818,0.0236 0.39669,-1.46919 0.39669,-3.31737 z m 39.13358,-12.63921 -0.006,-15.99953 -7.92789,-3.79298 -7.92788,-3.79297 0.003,5.90861 c 0.004,7.20912 0.52306,9.23288 3.41734,13.31337 3.20672,4.52097 4.48495,7.26001 5.37085,11.50882 0.42686,2.04723 0.98153,4.10607 1.2326,4.57519 0.83954,1.5687 3.44173,3.49873 5.71133,4.23607 0.0727,0.0236 0.12964,-7.15683 0.12647,-15.95658 z m -10.07386,13.50409 c -1.68771,-1.9222 -1.82309,-1.97081 -6.00503,-2.15616 -4.06009,-0.17995 -4.30537,-0.12684 -4.80729,1.04094 -0.74458,1.73233 -2.53107,1.7967 -5.39776,0.19447 -2.22753,-1.24499 -2.93784,-1.36524 -7.39252,-1.2515 l -4.92821,0.12582 v 2.00648 2.00649 H 71.3575 86.48622 Z M 49.703,283.48601 c -0.79559,-0.94551 -1.56429,-2.80652 -1.9116,-4.62797 -0.3195,-1.67559 -1.31835,-4.9506 -2.21966,-7.2778 -2.99292,-7.72771 -4.65871,-12.67999 -4.6701,-13.88389 -0.01,-1.03391 -0.28885,-1.19005 -2.126908,-1.19005 -1.842264,0 -2.115259,0.15377 -2.11269,1.19005 0.0048,1.9446 1.023282,5.10198 3.454808,10.71043 1.26119,2.909 2.64898,6.99829 3.08398,9.08729 1.18213,5.67694 2.66679,7.52632 6.06689,7.55729 l 1.76598,0.0161 -1.3307,-1.58144 z m 39.66826,0 c -0.78209,-0.92946 -1.57875,-2.83744 -1.93237,-4.62797 -1.03719,-5.25164 -2.12961,-7.96776 -4.49933,-11.1868 -3.04823,-4.14072 -3.92099,-5.91659 -4.31287,-8.77573 -0.32407,-2.3643 -0.34879,-2.38921 -2.37123,-2.38921 -1.89445,0 -2.04375,0.11014 -2.04375,1.5078 0,2.42053 1.05228,4.83103 3.98527,9.12923 2.92126,4.28102 4.0049,6.82094 4.99419,11.70587 0.78552,3.87869 2.9125,6.21825 5.65327,6.21825 h 1.85752 z m -16.44528,-0.59334 c 0.55414,-0.89661 -0.87453,-1.50869 -1.95153,-0.83609 -0.69504,0.43406 -0.77915,0.70416 -0.31178,1.00118 0.91719,0.58289 1.84276,0.51538 2.26331,-0.16509 z M 70.397,280.2355 c 0.19337,-1.00405 -1.0089,-1.60064 -1.99611,-0.99051 -0.95999,0.59331 -0.21863,2.23837 0.91073,2.02087 0.50661,-0.0976 0.99504,-0.56122 1.08538,-1.03036 z m 3.2858,0.61927 c 0,-0.28066 -0.47602,-0.76506 -1.05782,-1.07643 -0.83204,-0.44529 -1.05782,-0.40223 -1.05782,0.20177 0,0.69829 0.68621,1.2345 1.71896,1.34321 0.21817,0.0229 0.39668,-0.18788 0.39668,-0.46855 z m -6.7682,-1.59606 c 0.55183,-0.97751 1.32862,-1.59601 2.00448,-1.59601 1.44347,0 5.29263,1.97316 5.29263,2.71311 0,0.60808 7.56907,0.47233 8.18825,-0.14685 0.17919,-0.17919 0.1694,-0.9489 -0.0217,-1.71048 l -0.34753,-1.38469 H 69.39422 c -9.75274,0 -12.63815,0.15088 -12.64373,0.66114 -0.004,0.36363 -0.13779,1.14716 -0.29737,1.74119 -0.27539,1.02508 -0.0394,1.08612 4.63518,1.19932 l 4.92534,0.11928 z m 14.56993,-4.90169 c -0.16577,-0.49799 -3.24387,-0.69618 -12.47346,-0.80312 -10.66773,-0.1236 -12.25339,-0.0381 -12.25339,0.66114 0,0.69551 1.67125,0.80311 12.47346,0.80311 9.74354,0 12.4253,-0.14469 12.25339,-0.66113 z m -0.9259,-2.51233 c 0,-0.33857 -4.71071,-0.52599 -13.09052,-0.52081 -8.64718,0.005 -12.82124,0.18213 -12.29716,0.52081 1.08385,0.70044 25.38768,0.70044 25.38768,0 z m -1.32227,-2.11564 c -0.2035,-0.32926 -5.20645,-0.52891 -13.25397,-0.52891 -8.26545,0 -12.92708,0.19073 -12.92708,0.52891 0,0.33854 4.77059,0.52891 13.25396,0.52891 8.7013,0 13.14169,-0.18168 12.92709,-0.52891 z m -2.50826,-3.69286 -1.72302,-2.63506 -13.98462,-0.01 -13.98462,-0.01 2.8775,2.62054 2.87751,2.62054 12.83014,0.024 12.83013,0.024 -1.72302,-2.63505 z m -23.88066,1.26951 c -0.50348,-1.31204 -0.37595,-3.39466 0.20787,-3.39466 0.2909,0 0.52891,0.71403 0.52891,1.58673 0,1.23412 0.23507,1.58673 1.05782,1.58673 0.5818,0 1.05782,0.23801 1.05782,0.52891 0,0.86843 -2.50478,0.59823 -2.85242,-0.30771 z m 3.77801,0.53423 c -0.21818,-0.22155 -0.38945,-1.13668 -0.3806,-2.03363 0.0136,-1.38061 0.1001,-1.48647 0.5637,-0.69 0.6047,1.03886 0.44833,3.36483 -0.1831,2.72363 z m 2.63977,-0.40201 c -0.53842,-1.33106 -0.49329,-3.52688 0.0725,-3.52688 0.25542,0 0.86235,0.53552 1.34872,1.19005 l 0.88433,1.19005 -0.24139,-1.19005 c -0.13276,-0.65453 -0.0521,-1.19005 0.17915,-1.19005 0.53444,0 1.24856,3.69728 0.80064,4.1452 -0.1841,0.1841 -0.77171,-0.24459 -1.3058,-0.95265 l -0.97107,-1.28737 -0.18758,1.29528 c -0.16319,1.12684 -0.23854,1.16929 -0.57949,0.32642 z m 4.8972,-1.49322 c 0,-2.16411 0.0161,-2.18301 1.05782,-1.24029 0.95129,0.8609 1.05782,0.86916 1.05782,0.082 0,-1.67928 0.94381,-0.86056 1.16195,1.00795 0.26837,2.29879 -0.28072,2.76537 -1.39022,1.18133 l -0.82955,-1.18435 v 1.1755 c 0,0.64653 -0.23801,1.17551 -0.52891,1.17551 -0.2909,0 -0.52891,-0.98892 -0.52891,-2.19762 z m 9.99717,1.40426 c -0.26408,-1.6572 -0.21328,-3.43792 0.0981,-3.43792 0.63445,0 0.97783,2.27167 0.47365,3.13354 -0.26809,0.45831 -0.52537,0.59528 -0.57173,0.30438 z m -4.17916,-1.23024 c 0,-0.61241 -0.14831,-0.62739 -0.80615,-0.0814 -0.44338,0.36797 -0.92515,0.55004 -1.0706,0.40459 -0.14545,-0.14546 0.0831,-0.5529 0.50788,-0.90544 0.58751,-0.48759 1.04348,-0.49588 1.9053,-0.0346 0.62313,0.33348 1.49126,0.46884 1.92919,0.30079 0.49215,-0.18885 0.71205,-0.0529 0.57581,0.35596 -0.31224,0.93702 -3.04143,0.90128 -3.04143,-0.0398 z m 1.05782,-1.11864 c 0,-0.27374 0.23801,-0.6448 0.52891,-0.82458 0.2909,-0.17979 0.52891,0.0442 0.52891,0.49769 0,0.45352 -0.23801,0.82458 -0.52891,0.82458 -0.2909,0 -0.52891,-0.22396 -0.52891,-0.49769 z m 3.17346,-3.20468 c 0,-1.2548 -0.67188,-1.36678 -1.58673,-0.26446 -0.91208,1.09899 -2.30147,0.9913 -3.43986,-0.2666 -0.79261,-0.87583 -0.85476,-1.28931 -0.35777,-2.38009 0.73253,-1.60773 3.43273,-1.85639 4.28418,-0.39454 0.58852,1.01045 0.76597,0.19722 0.25023,-1.14679 -0.28081,-0.73177 -1.96499,-0.83662 -13.43826,-0.83662 H 46.80629 l -0.18118,2.95423 c -0.0997,1.62482 -0.082,3.05288 0.0392,3.17346 0.12121,0.12057 6.36896,0.21923 13.88389,0.21923 13.3109,0 13.66351,-0.0273 13.66351,-1.05782 z m -25.08545,-0.30224 c -1.59753,-1.59752 -0.67837,-3.92904 1.54895,-3.92904 1.41772,0 2.3801,0.96237 2.3801,2.38009 0,2.22732 -2.33152,3.14649 -3.92905,1.54895 z m 2.85014,-0.46572 c 0.99591,-1.19999 0.45288,-2.66996 -0.98633,-2.66996 -1.66841,0 -2.61351,1.46809 -1.67393,2.60022 0.86638,1.04393 1.83078,1.06921 2.66026,0.0697 z m 3.82924,0.66218 c -0.81585,-0.81585 -0.81585,-2.67497 0,-3.49081 1.48359,-1.48359 4.1255,-0.36586 4.1255,1.7454 0,1.41773 -0.96238,2.3801 -2.3801,2.3801 -0.61089,0 -1.39632,-0.28561 -1.7454,-0.63469 z m 3.04661,-0.6622 c 1.06482,-1.28303 0.15955,-3.0225 -1.47432,-2.83291 -1.57048,0.18223 -2.14032,1.61325 -1.12808,2.83293 0.81209,0.9785 1.7903,0.97849 2.6024,-2e-5 z m 3.82922,0.6622 c -0.34908,-0.34908 -0.63469,-1.29659 -0.63469,-2.10557 0,-2.64329 4.26058,-2.68761 4.65611,-0.0485 0.31248,2.08507 -2.55465,3.62079 -4.02142,2.15402 z m 3.08577,-0.98585 c 0.74193,-1.38631 -0.23439,-2.73135 -1.81759,-2.50404 -1.28681,0.18476 -1.73653,1.72814 -0.82396,2.82771 0.89898,1.08322 1.95806,0.95345 2.64155,-0.32367 z m 6.24288,0.62703 c 0.38908,-0.24662 0.62709,-1.0165 0.52891,-1.71086 -0.25543,-1.80648 -2.74613,-1.80648 -3.00156,0 -0.15262,1.0794 0.59793,2.15926 1.50078,2.15926 0.14545,0 0.58279,-0.20178 0.97187,-0.4484 z m 6.43287,-10.37806 V 246.457 H 57.55104 36.659092 v 4.49574 4.49574 H 57.55104 78.44299 Z m 16.39622,0.61863 c 0,-1.75061 -0.049,-1.78469 -7.93366,-5.522 l -7.93365,-3.76052 v 1.78468 c 0,1.77077 0.0588,1.81347 7.53697,5.47638 4.14533,2.03043 7.71548,3.71222 7.93365,3.73731 0.21818,0.0251 0.39669,-0.74704 0.39669,-1.71585 z m 0,-4.24909 c 0,-1.72603 -0.15436,-1.85462 -5.15688,-4.29601 -2.83628,-1.3842 -6.40642,-3.07962 -7.93365,-3.76761 l -2.77678,-1.25088 v 1.76309 c 0,1.7485 0.0645,1.79421 7.80143,5.5241 4.29078,2.06855 7.86092,3.77126 7.93365,3.78379 0.0727,0.0125 0.13223,-0.77788 0.13223,-1.75648 z m -16.39622,-3.24537 v -1.85119 H 57.55104 36.659092 v 1.85119 1.85118 H 57.55104 78.44299 Z m 16.39622,-1.06047 v -1.85383 l -7.74914,-3.69972 c -4.26202,-2.03485 -7.83216,-3.69973 -7.93365,-3.69973 -0.10148,0 -0.18452,0.78908 -0.18452,1.7535 0,1.73653 0.0755,1.78982 7.80143,5.50617 4.29078,2.06398 7.86092,3.774 7.93365,3.80006 0.0727,0.0261 0.13223,-0.78684 0.13223,-1.80645 z m -16.39622,-3.43527 v -1.58673 H 57.55104 36.659092 v 1.58673 1.58673 H 57.55104 78.44299 Z m 16.39622,-1.09598 c 0,-1.57092 -0.25495,-1.74662 -7.67474,-5.28911 -4.2211,-2.01531 -7.79125,-3.6642 -7.93365,-3.6642 -0.14241,0 -0.25388,0.77353 -0.24773,1.71896 0.011,1.6823 0.16601,1.79408 7.27251,5.24226 3.99373,1.93783 7.55884,3.54439 7.92247,3.57015 0.3956,0.028 0.66114,-0.60577 0.66114,-1.57806 z m -16.39622,-3.39975 v -1.85119 H 57.55104 36.659092 v 1.85119 1.85118 H 57.55104 78.44299 Z m 16.26821,-30.22311 -0.13645,-31.01647 -1.47356,-1.10009 c -1.13584,-0.84797 -1.68133,-0.97088 -2.38009,-0.53629 -1.63053,1.01409 -3.22753,3.93118 -3.53309,6.45355 -0.72707,6.00208 -2.45882,13.068 -4.25906,17.37797 -4.08953,9.79076 -3.92087,8.88188 -3.93978,21.23125 l -0.0173,11.27687 7.53697,3.64382 c 4.14533,2.00411 7.71738,3.65329 7.93788,3.66484 0.2205,0.0116 0.3395,-13.93639 0.26445,-30.99545 z m -16.26821,25.99183 v -1.85119 H 57.55104 36.659092 v 1.85119 1.85118 H 57.55104 78.44299 Z m 0,-11.37157 v -8.99148 H 57.55104 36.659092 v 8.99148 8.99147 H 57.55104 78.44299 Z m 0.0531,-12.73804 c 0.18815,-1.74961 1.18931,-4.87521 2.45653,-7.66919 3.24754,-7.16021 4.39911,-11.23001 5.34781,-18.89977 0.36615,-2.9601 0.90243,-4.72534 1.88804,-6.21469 l 1.37663,-2.08023 H 69.02229 48.47949 l -1.08392,1.19005 c -1.81239,1.98983 -2.30454,3.39799 -3.134,8.96709 -0.92844,6.23364 -2.73508,12.2995 -5.32387,17.8751 -1.121461,2.41536 -1.956189,5.15871 -2.134245,7.01427 l -0.292428,3.04744 20.833743,-0.13844 20.83375,-0.13843 z m -24.2772,-12.22652 c -0.34908,-0.34908 -0.63469,-1.77714 -0.63469,-3.17346 v -2.53877 h 2.909 2.90901 v 2.34231 c 0,1.42417 -0.3258,2.66812 -0.83115,3.17346 -0.98359,0.9836 -3.45354,1.09509 -4.35217,0.19646 z m 3.59659,-0.64433 c 0,-0.12166 0.13269,-0.56699 0.29487,-0.98962 0.47736,-1.24398 -1.22616,-2.59649 -2.44724,-1.94298 -0.99787,0.53404 -1.37121,2.09847 -0.66849,2.80119 0.38139,0.38139 2.82086,0.49503 2.82086,0.13141 z m -0.19755,-3.54693 c 1.01309,0.4616 1.25537,0.42106 1.25537,-0.21004 0,-0.57424 -0.6324,-0.78202 -2.3801,-0.78202 -1.78728,0 -2.38009,0.20224 -2.38009,0.81197 0,0.66418 0.20472,0.70241 1.12472,0.21004 0.81643,-0.43694 1.46883,-0.44515 2.3801,-0.0299 z m 6.83891,3.65044 c -0.45284,-0.64653 -0.82335,-2.07458 -0.82335,-3.17346 v -1.99795 h 3.17346 3.17346 v 1.99795 c 0,1.09888 -0.37051,2.52693 -0.82336,3.17346 -1.10345,1.57541 -3.59675,1.57541 -4.70021,0 z m 3.5717,-0.27899 c 0.12441,-0.21818 0.38726,-1.28922 0.58409,-2.3801 l 0.35789,-1.98341 h -2.16357 -2.16357 l 0.35788,1.98341 c 0.46002,2.54941 0.60787,2.77678 1.80569,2.77678 0.54746,0 1.09718,-0.17851 1.22159,-0.39668 z m -2.48939,-3.39384 c 0.14983,-0.24242 0.72033,-0.44076 1.2678,-0.44076 0.54746,0 1.11797,0.19834 1.26779,0.44076 0.14983,0.24241 -0.42068,0.44075 -1.26779,0.44075 -0.84711,0 -1.41762,-0.19834 -1.2678,-0.44075 z m 4.17698,-20.011 c 0.18476,-0.58211 0.79582,-1.30451 1.35792,-1.60534 1.27215,-0.68083 2.92367,0.0985 3.40192,1.60534 0.18475,0.58211 0.7959,1.05838 1.35809,1.05838 0.85887,0 1.02218,-0.38027 1.02218,-2.38009 v -2.3801 h -4.76019 -4.76019 v 2.3801 c 0,1.99982 0.16331,2.38009 1.02218,2.38009 0.5622,0 1.17334,-0.47627 1.35809,-1.05838 z m 3.86596,0.13279 c -0.11245,-0.5839 -0.66104,-0.92559 -1.48604,-0.92559 -0.825,0 -1.37359,0.34169 -1.48604,0.92559 -0.13927,0.72318 0.1857,0.92559 1.48604,0.92559 1.30034,0 1.62531,-0.20241 1.48604,-0.92559 z"
       id="path3828"
       inkscape:connector-curvature="0" />
  </g>
</svg>
