<?xml version="1.0" encoding="UTF-8" standalone="no"?>
<svg
   xmlns:dc="http://purl.org/dc/elements/1.1/"
   xmlns:cc="http://creativecommons.org/ns#"
   xmlns:rdf="http://www.w3.org/1999/02/22-rdf-syntax-ns#"
   xmlns:svg="http://www.w3.org/2000/svg"
   xmlns="http://www.w3.org/2000/svg"
   id="svg8"
   version="1.1"
   viewBox="0 0 500 500"
   height="500mm"
   width="500mm">
  <defs
     id="defs2" />
  <metadata
     id="metadata5">
    <rdf:RDF>
      <cc:Work
         rdf:about="">
        <dc:format>image/svg+xml</dc:format>
        <dc:type
           rdf:resource="http://purl.org/dc/dcmitype/StillImage" />
        <dc:title></dc:title>
      </cc:Work>
    </rdf:RDF>
  </metadata>
  <g
     transform="translate(0,203)"
     id="layer1">
    <path
       id="path1000"
       d="m 192.13081,291.29691 c -14.65445,-1.53815 -37.01204,-4.23855 -49.68353,-6.00084 -21.36178,-2.97089 -23.82379,-3.79285 -33.81795,-11.29033 -5.92838,-4.44738 -14.707858,-12.08449 -19.509935,-16.97135 L 80.388347,248.1492 80.08452,219.45518 c -1.260667,-119.05589 -1.697608,-331.21416 -0.693372,-336.66312 2.727995,-14.80189 47.171782,-49.55545 79.122032,-61.87078 38.04513,-14.66463 71.73341,-20.61407 116.57157,-20.58688 43.12622,0.0261 82.59326,5.73617 120.31899,17.40749 14.52192,4.49269 17.36296,6.15836 21.26065,12.46495 l 4.49886,7.27932 -0.74218,186.885365 -0.74217,186.885355 -6.10815,10.24787 c -10.47673,17.57712 -35.13317,40.48988 -52.47483,48.76386 -41.77247,19.93031 -104.75175,27.7683 -168.96511,21.0283 z m 4.56884,-4.41935 c -0.68105,-0.68104 -2.44882,-0.75384 -3.92835,-0.1617 -1.63501,0.65426 -1.14936,1.13993 1.23829,1.23827 2.16058,0.089 3.37112,-0.39543 2.69006,-1.07648 z m -38.38679,-7.05074 c -16.34535,-3.266 -31.79401,-6.44386 -34.33036,-7.06191 -3.15762,-0.76945 -4.61154,-0.19901 -4.61154,1.80953 0,3.1584 2.81025,3.80798 35.86754,8.29036 33.50806,4.5435 34.77108,3.29544 3.07436,-3.03798 z m 142.82762,3.06125 c 26.88156,-3.99152 55.87802,-13.33255 69.65761,-22.43976 10.33943,-6.83357 10.63289,-7.30155 11.83732,-18.87628 0.67927,-6.52795 1.71576,-16.33534 2.30331,-21.79421 l 1.06826,-9.9252 -10.85603,11.11549 c -20.73902,21.23472 -47.11156,30.22541 -93.15826,31.7587 -42.64161,1.4199 -68.75026,-3.77334 -82.17598,-16.34557 l -4.61154,-4.31839 v 24.82656 24.82656 l 8.71068,1.12299 c 4.79088,0.61765 11.01645,1.47087 13.83462,1.89605 14.06424,2.12188 64.12903,1.01306 83.39001,-1.84694 z M 192.30171,92.379888 c 0.094,-103.143763 -0.43421,-187.534111 -1.17379,-187.534111 -2.23934,0 -78.36761,-10.136157 -86.61636,-11.532607 l -7.685906,-1.30116 V 76.512343 261.01268 l 17.933776,4.39457 c 23.48376,5.75456 65.74752,14.1484 72.24745,14.34879 l 5.12393,0.15802 0.17089,-187.53409 z M 115.27182,271.71927 c 0,-1.12726 -0.97674,-2.04956 -2.17053,-2.04956 -1.1938,0 -1.60052,0.9223 -0.90383,2.04956 0.69668,1.12728 1.67343,2.04958 2.17053,2.04958 0.49711,0 0.90383,-0.9223 0.90383,-2.04958 z m 209.3723,-26.31583 c 29.27026,-7.76091 49.86121,-21.93893 58.35583,-40.18129 l 4.82503,-10.36185 0.0205,-159.354268 c 0.0105,-87.644846 -0.67511,-159.354262 -1.52415,-159.354262 -0.84903,0 -7.99691,1.85243 -15.88419,4.11651 -38.1712,10.95723 -96.23558,19.943153 -152.96436,23.672464 l -21.7982,1.433003 -0.93682,160.115073 c -0.77613,132.65129 -0.45852,160.90336 1.85174,164.71077 3.6458,6.00848 19.29975,13.80289 33.45842,16.65963 6.19995,1.25093 13.11726,2.6976 15.37179,3.21483 2.25453,0.51723 17.47262,0.61385 33.81796,0.21467 21.42861,-0.52329 34.09495,-1.88606 45.40646,-4.88528 z M 282.5313,176.24652 c -2.6618,-6.93656 -1.30714,-29.1953 1.97669,-32.47912 1.7714,-1.77143 3.44664,-3.22077 3.72273,-3.22077 0.27607,0 5.72419,-0.96539 12.10692,-2.14529 7.99975,-1.47885 12.83474,-1.48715 15.56356,-0.0267 4.86177,2.60195 7.20035,14.75631 5.29011,27.49461 -1.19232,7.95102 -2.27677,9.5774 -7.63058,11.44375 -9.98618,3.48119 -29.54226,2.80908 -31.02943,-1.06646 z m 28.99078,-0.98691 c 5.34973,-1.86495 6.36569,-3.37514 7.0421,-10.46793 0.43474,-4.55872 0.41232,-11.52741 -0.0498,-15.48598 l -0.84024,-7.19739 -8.96895,1.22933 c -4.93294,0.67613 -11.50593,1.78282 -14.60669,2.4593 -4.34098,0.94705 -4.9306,0.72762 -2.56338,-0.95399 3.84102,-2.7286 0.0965,-2.90869 -4.09915,-0.19717 -2.08786,1.34927 -2.24448,1.99688 -0.48817,2.01819 1.86194,0.0225 2.22342,2.30001 1.2908,8.13225 -0.71245,4.45549 -0.68156,11.37279 0.0686,15.3718 1.27858,6.81544 1.85261,7.27092 9.1636,7.27092 4.28976,0 10.61284,-0.9807 14.05124,-2.17933 z m -19.21715,-2.86989 c -0.55826,-1.45484 -0.72928,-7.13946 -0.38003,-12.63257 0.63123,-9.9285 0.68569,-9.99808 9.22472,-11.79031 12.74871,-2.67579 14.98035,-1.0802 14.98035,10.71066 0,5.60329 -1.13516,10.95792 -2.56197,12.08495 -4.3414,3.42935 -20.1085,4.636 -21.26307,1.62727 z m 19.34645,-2.87119 c 1.7415,-1.10435 2.46663,-4.90003 2.04958,-10.72888 l -0.64535,-9.01995 -8.19829,0.71127 c -10.99534,0.95394 -11.27265,1.24194 -11.27265,11.70714 v 9.10211 l 7.6859,-0.0313 c 4.22724,-0.0164 8.89861,-0.8004 10.38081,-1.74031 z m -26.84657,-14.11249 c -0.4696,-3.09999 -0.85383,-0.56364 -0.85383,5.63632 0,6.19996 0.38423,8.7363 0.85383,5.63632 0.46962,-3.09997 0.46962,-8.17267 0,-11.27264 z m 16.42306,-14.04813 c -0.68107,-0.68105 -2.44883,-0.75385 -3.92835,-0.1617 -1.63501,0.65426 -1.14936,1.13993 1.23829,1.23826 2.16058,0.089 3.37112,-0.39542 2.69006,-1.07648 z m -68.6545,-27.66207 c -15.08842,-3.62047 -15.50863,-5.21938 -17.40757,-66.235388 -1.16794,-37.5268953 -0.97673,-57.1230826 0.64159,-65.755699 9.77558,-52.146311 78.0385,-92.811613 123.74237,-73.715326 12.21347,5.103114 25.06108,18.405233 30.30579,31.377949 4.56267,11.285651 4.67194,13.173505 4.11136,71.031393 -0.5913,61.028256 -1.62173,70.536388 -8.60661,79.416222 -4.53015,5.759156 -28.74811,16.129769 -49.23033,21.081439 -16.23,3.92369 -71.1965,5.76522 -83.5566,2.79941 z m 8.83061,-14.653061 c 1.91797,-5.918138 7.20921,-19.937152 11.75831,-31.153357 7.69925,-18.983141 8.01877,-20.541922 4.6214,-22.545298 -2.00733,-1.18371 -6.89949,-4.292009 -10.87149,-6.907366 -8.57891,-5.648787 -7.84101,-6.438651 -18.12521,19.401459 -6.90114,17.339855 -7.35188,19.760195 -6.01127,32.278656 1.12378,10.493627 2.43581,14.224207 5.84156,16.609697 7.0551,4.94159 9.09165,3.71779 12.7867,-7.683791 z m 62.34355,7.599881 c 16.62506,-2.69615 45.67614,-11.003972 48.55859,-13.886429 0.50366,-0.503663 -7.07037,-12.61309 -16.83119,-26.909843 -13.91244,-20.37765 -18.47315,-25.676102 -21.10792,-24.522337 -16.43034,7.1948 -26.66472,9.420656 -38.38719,8.34873 l -12.48093,-1.141264 -6.46847,15.776359 c -3.55766,8.676988 -8.72343,22.46309 -11.47946,30.635761 l -5.01098,14.859403 21.91079,-0.008 c 12.05096,-0.004 30.6345,-1.423 41.29676,-3.15214 z m 59.65772,-21.686959 c 1.13895,-2.128132 2.62834,-9.83969 3.30976,-17.136784 L 367.95393,54.551461 355.87657,36.094014 C 349.23401,25.94244 343.30655,17.622119 342.7044,17.60443 c -0.60214,-0.01844 -5.91226,4.845908 -11.80029,10.807991 l -10.70547,10.840128 17.84625,25.830661 c 17.89326,25.898706 20.88189,28.240608 25.36036,19.872491 z M 227.49754,-38.094096 c 4.71158,-9.56369 10.96396,-17.592617 21.27359,-27.318186 8.03048,-7.575549 12.40622,-12.607426 9.72386,-11.181952 -8.70568,4.626439 -28.16465,26.56287 -33.42322,37.678569 -7.40023,15.642791 -8.46763,27.30965 -7.32446,80.058022 l 1.02161,47.140169 1.02796,-56.416084 1.02795,-56.416075 z m 143.90433,-5.820808 c -6.2596,-36.104463 -33.28299,-55.318591 -69.26589,-49.249281 -7.58013,1.278553 -15.14148,3.285453 -16.80302,4.459793 -2.35749,1.666227 -2.12069,1.810882 1.0782,0.658665 2.25453,-0.812072 11.13324,-1.933302 19.73049,-2.491618 27.12215,-1.76137 45.95095,8.392731 55.78236,30.082664 4.29084,9.466379 5.06478,20.814622 7.62765,111.844901 0.28563,10.145385 1.25852,-4.611538 2.16197,-32.793162 1.00183,-31.250929 0.88021,-55.636757 -0.31176,-62.511962 z M 231.37296,44.992028 c 6.75033,-15.523708 6.76955,-15.659985 2.96606,-21.010004 -6.34524,-8.925254 -8.93531,-21.1312379 -7.93167,-37.378951 0.51459,-8.330401 1.55776,-16.990799 2.31815,-19.245329 0.76042,-2.254529 -0.2118,-0.871068 -2.16048,3.07436 -2.9283,5.928874 -3.67615,14.641277 -4.31016,50.214527 -0.42193,23.672564 -0.0717,42.350154 0.7783,41.505751 0.84998,-0.844403 4.60289,-8.566558 8.3398,-17.160354 z m 78.04419,-4.839286 c 22.8794,-10.616684 39.55456,-33.2454209 44.06993,-59.804401 1.83017,-10.764768 1.62536,-14.986531 -1.19535,-24.639473 -7.61933,-26.074681 -25.56219,-39.590437 -52.55835,-39.590437 -18.58255,0 -33.87359,6.527972 -47.71652,20.370885 -25.63831,25.638309 -31.63194,64.29921128 -13.78734,88.932943 16.21363,22.382296 42.82898,27.889661 71.18763,14.730483 z m 52.92514,-91.211061 c -4.20868,-14.477356 -10.71765,-23.412964 -22.24697,-30.540994 -8.41366,-5.201773 -12.1196,-6.124144 -26.60578,-6.621922 l -16.83052,-0.57834 12.04756,1.905693 c 22.59572,3.574216 38.8886,17.793362 45.36069,39.587236 5.31016,17.881277 3.85656,29.076924 -7.24263,55.7824842 -2.48158,5.9708978 -2.12104,6.9731998 7.43108,20.6581138 l 10.03921,14.382753 0.55505,-42.0197635 c 0.42969,-32.5288595 -0.13671,-44.3994025 -2.50769,-52.5552605 z m 47.22343,272.707909 6.83507,-10.103 0.0328,-82.12776 c 0.0182,-45.170272 0.65873,-127.7819845 1.42359,-183.581597 l 1.39068,-101.453843 -14.58058,15.37181 -14.58056,15.37179 -0.0861,157.351926 -0.0861,157.351964 5.12393,-3.35735 c 2.81817,-1.84652 5.16232,-3.94298 5.20926,-4.65877 0.16253,-2.4778 14.26169,-17.34664 14.26169,-15.04016 0,1.27385 -5.60189,8.30452 -12.44866,15.62373 l -12.44865,13.30765 -1.84283,19.04809 c -1.01354,10.47647 -1.82998,22.73735 -1.81429,27.24641 l 0.0285,8.19829 8.37353,-9.22308 c 4.60543,-5.0727 11.4493,-13.76944 15.20862,-19.3261 z M 87.79322,63.838442 c 1.106816,-135.932414 0.886217,-179.762482 -0.899196,-178.659032 -1.758889,1.08706 -2.365799,47.524911 -2.365799,181.020366 0,98.757034 0.404631,179.153614 0.899185,178.659044 0.494554,-0.49453 1.559173,-81.95371 2.36581,-181.020378 z M 193.1556,-104.08622 v -6.88242 l -18.95855,-2.4921 c -10.4272,-1.37065 -30.35101,-4.372 -44.27513,-6.66967 -27.10083,-4.47201 -29.82142,-4.00065 -31.397883,5.43983 -0.566892,3.39477 0.94968,4.29893 9.574273,5.70798 11.30612,1.84715 78.42094,11.270146 82.49531,11.582445 1.57994,0.121087 2.56198,-2.441779 2.56198,-6.686065 z m 67.6359,1.47821 c 16.34534,-1.73011 40.32535,-4.92827 53.2889,-7.10704 25.63673,-4.30874 69.59628,-15.37846 72.55212,-18.26977 3.00293,-2.93737 -4.60484,-12.82135 -8.65554,-11.24523 -22.34237,8.69336 -96.40945,21.44888 -152.02822,26.18164 l -29.7188,2.52886 -0.65688,6.85389 -0.65687,6.85392 18.07824,-1.325313 c 9.94303,-0.728926 31.4517,-2.740857 47.79705,-4.470957 z M 98.446915,-122.32362 c 1.724775,-1.97962 2.511365,-4.2239 1.747965,-4.98728 -2.131817,-2.13183 -5.000623,1.77151 -6.310801,8.58661 -0.650152,3.38179 -0.595069,4.76525 0.122398,3.07435 0.717468,-1.69089 2.715666,-4.69405 4.440428,-6.67368 z m 101.882185,0.059 c 20.23431,-27.68803 67.45897,-40.80971 121.94959,-33.88451 14.09081,1.79079 32.72993,5.53079 41.42025,8.31111 l 15.8006,5.05513 7.86876,-6.73537 c 4.32783,-3.70445 10.55543,-10.61222 13.83913,-15.35061 5.50737,-7.94712 5.69927,-8.81348 2.47451,-11.17147 -5.18226,-3.78937 -40.90639,-12.95198 -64.14212,-16.45132 -97.40044,-14.66866 -187.88978,4.90908 -231.44151,50.07333 -9.457103,9.80727 -9.966949,10.8356 -6.60733,13.32678 3.16355,2.34577 29.86974,7.24638 72.19367,13.24759 19.51783,2.76748 20.01785,2.64699 26.64445,-6.42066 z m 58.41283,3.38206 c 33.7876,-3.96099 81.03041,-12.19489 101.45302,-17.68213 l 16.39574,-4.4053 -6.4415,-2.6284 c -3.54281,-1.44562 -15.9936,-4.60979 -27.66839,-7.03149 -39.05149,-8.10042 -84.75632,-5.15456 -111.74795,7.20261 -10.79569,4.94243 -27.90424,19.14251 -31.7732,26.37172 -2.055,3.8398 -1.50956,3.92751 16.01758,2.5758 9.97976,-0.76964 29.67388,-2.75091 43.7647,-4.40281 z m -170.114558,-1.89136 c 0,-1.6909 -0.362484,-3.07436 -0.805511,-3.07436 -0.443026,0 -1.336383,1.38346 -1.985243,3.07436 -0.64886,1.69089 -0.286386,3.07435 0.8055,3.07435 1.091886,0 1.985254,-1.38346 1.985254,-3.07435 z M 409.4535,-148.96776 c 8.50118,-11.30906 9.03702,-12.70371 6.4043,-16.66878 -1.5802,-2.37991 -3.72936,-4.32712 -4.77589,-4.32712 -1.04656,0 -7.63441,6.12709 -14.6397,13.61576 l -12.73688,13.61578 3.52392,6.14008 c 3.33316,5.80766 3.77899,5.97295 8.23541,3.05301 2.59129,-1.6979 8.88629,-8.64082 13.98884,-15.42873 z"
       style="fill:#000000;stroke-width:2.04957271" />
  </g>
</svg>
