<?xml version="1.0" encoding="UTF-8" standalone="no"?>
<!-- Created with Inkscape (http://www.inkscape.org/) -->

<svg
   xmlns:dc="http://purl.org/dc/elements/1.1/"
   xmlns:cc="http://creativecommons.org/ns#"
   xmlns:rdf="http://www.w3.org/1999/02/22-rdf-syntax-ns#"
   xmlns:svg="http://www.w3.org/2000/svg"
   xmlns="http://www.w3.org/2000/svg"
   xmlns:sodipodi="http://sodipodi.sourceforge.net/DTD/sodipodi-0.dtd"
   xmlns:inkscape="http://www.inkscape.org/namespaces/inkscape"
   width="500"
   height="500"
   viewBox="0 0 132.29166 132.29167"
   version="1.1"
   id="svg8"
   inkscape:version="0.92.4 (5da689c313, 2019-01-14)"
   sodipodi:docname="icon.svg">
  <defs
     id="defs2" />
  <sodipodi:namedview
     id="base"
     pagecolor="#ffffff"
     bordercolor="#666666"
     borderopacity="1.0"
     inkscape:pageopacity="0.0"
     inkscape:pageshadow="2"
     inkscape:zoom="1.3898629"
     inkscape:cx="141.85037"
     inkscape:cy="278.57008"
     inkscape:document-units="mm"
     inkscape:current-layer="layer1"
     showgrid="false"
     units="px"
     inkscape:window-width="1920"
     inkscape:window-height="1017"
     inkscape:window-x="-8"
     inkscape:window-y="-8"
     inkscape:window-maximized="1" />
  <metadata
     id="metadata5">
    <rdf:RDF>
      <cc:Work
         rdf:about="">
        <dc:format>image/svg+xml</dc:format>
        <dc:type
           rdf:resource="http://purl.org/dc/dcmitype/StillImage" />
        <dc:title></dc:title>
      </cc:Work>
    </rdf:RDF>
  </metadata>
  <g
     inkscape:label="Ebene 1"
     inkscape:groupmode="layer"
     id="layer1"
     transform="translate(0,-164.70832)">
    <path
       style="fill:#000000;stroke-width:0.52022523"
       d="m 62.782324,295.08634 c -0.420088,-0.447 -1.875776,-1.4953 -3.234865,-2.32955 l -2.47107,-1.51682 v -61.03388 c 0,-46.77715 0.145822,-61.17969 0.624271,-61.65814 0.343348,-0.34335 1.221228,-0.60782 1.950844,-0.58771 1.11451,0.0307 1.170965,0.0977 0.35314,0.41909 -0.908142,0.35687 -0.890699,0.43554 0.260112,1.17284 1.96769,1.26066 3.198652,1.58087 3.597331,0.93579 0.201343,-0.32577 1.828056,-0.93006 3.614931,-1.34287 2.973398,-0.68692 3.332098,-0.67522 4.230678,0.13798 0.54,0.4887 1.13646,0.73391 1.32546,0.54491 0.18899,-0.18899 0.0705,-0.34362 -0.26331,-0.34362 -0.33381,0 -0.60693,-0.34576 -0.60693,-0.76835 0,-1.43463 -2.20184,-2.39489 -4.186357,-1.82574 -0.984147,0.28225 -2.259109,0.49368 -2.833245,0.46984 -0.574137,-0.0238 0.331118,-0.37613 2.011669,-0.78287 l 3.055553,-0.73953 2.40681,1.72879 2.40681,1.72879 0.15649,56.66902 c 0.0861,31.16797 0.006,58.60505 -0.17762,60.9713 -0.19222,2.47505 -0.62919,4.59733 -1.02888,4.99703 -0.38213,0.38212 -2.11648,0.97447 -3.85412,1.31633 -2.126919,0.41845 -3.159358,0.86802 -3.159358,1.37572 0,0.44611 -0.478118,0.73923 -1.170506,0.7176 -1.116872,-0.0349 -1.122834,-0.0571 -0.130057,-0.48366 0.909864,-0.39098 0.853908,-0.45169 -0.445827,-0.48366 -1.115478,-0.0275 -1.411569,0.15811 -1.186832,0.74377 0.390023,1.01639 -0.275771,0.99906 -1.245122,-0.0324 z m 6.519358,-2.34985 c 1.716744,-0.35799 3.413974,-0.87498 3.771634,-1.14886 0.35765,-0.27389 0.65028,-1.51082 0.65028,-2.74874 v -2.25077 l -1.92013,0.80228 c -1.05607,0.44126 -3.221511,0.88067 -4.812084,0.97648 l -2.891952,0.1742 -0.159455,2.70232 c -0.152712,2.58806 -0.108716,2.69052 1.040451,2.42315 0.659947,-0.15355 2.604513,-0.57208 4.321256,-0.93006 z m -8.063491,0.12073 c 0,-0.24239 -0.526728,-0.70438 -1.170507,-1.02662 -1.104875,-0.55304 -1.090288,-0.56892 0.260113,-0.28321 l 1.430619,0.30268 V 254.9208 217.99153 l -1.511139,-0.62594 c -0.831128,-0.34426 -1.706141,-1.13349 -1.944477,-1.75384 -0.239278,-0.62282 -0.495962,15.8638 -0.573185,36.8157 -0.110631,30.01627 -0.0031,38.03033 0.513858,38.35865 0.359538,0.22826 0.419603,0.41984 0.133479,0.42572 -0.286123,0.006 0.182079,0.46057 1.040451,1.0104 1.878325,1.20315 1.820788,1.18308 1.820788,0.635 z m 1.992478,-3.20084 c -0.01389,-1.65525 -0.05316,-1.70255 -0.431802,-0.52023 -0.229081,0.71531 -0.423396,2.00287 -0.431803,2.86124 -0.013,1.32517 0.05217,1.40367 0.431803,0.52023 0.245905,-0.57225 0.440214,-1.85981 0.431802,-2.86124 z m 8.802197,-2.89874 1.69073,-0.68975 v -37.15816 -37.15816 l -3.10297,0.64753 c -1.706632,0.35614 -3.22829,0.52221 -3.381466,0.36903 -0.153169,-0.15317 -0.278492,-1.7783 -0.278492,-3.6114 0,-2.89345 -0.120036,-3.31003 -0.910394,-3.15946 -1.407745,0.26819 -1.581864,5.07498 -1.639099,45.24915 -0.04068,28.54311 0.08651,36.29936 0.598649,36.51071 0.942117,0.38879 5.054712,-0.1965 7.023042,-0.99949 z m -8.844091,-55.01452 c -0.07894,-10.06486 -0.143498,-1.67854 -0.143452,18.63625 5.2e-5,20.3148 0.06464,28.54968 0.143541,18.29974 0.0789,-10.24994 0.07886,-26.87114 -8.9e-5,-36.93599 z m -2.155038,-15.74116 c -0.173677,-0.45258 -0.315771,-10.59643 -0.315771,-22.54188 v -21.71901 l -1.299778,-0.69562 c -1.620798,-0.86742 -1.314359,-1.34146 0.344827,-0.53342 l 1.215063,0.59175 -1.228137,-1.06983 c -0.675481,-0.5884 -1.426816,-1.06982 -1.669642,-1.06982 -0.242825,0 -0.455483,10.03397 -0.472567,22.29771 -0.02694,19.33627 0.07389,22.38481 0.759243,22.9536 0.434674,0.36075 0.790315,0.95889 0.790315,1.32919 0,0.631 0.724419,1.145 1.746391,1.23915 0.245203,0.0226 0.303728,-0.32923 0.130056,-0.78182 z M 63.1885,182.65449 c -0.08405,-5.66989 -0.152936,-1.17894 -0.153082,9.97989 -1.51e-4,11.15883 0.06862,15.79783 0.152816,10.3089 0.08419,-5.48894 0.08431,-14.61889 2.66e-4,-20.28879 z m -1.560676,-0.52022 c -0.08405,-5.6699 -0.152936,-1.17895 -0.153081,9.97988 -1.51e-4,11.15883 0.06862,15.79784 0.152816,10.3089 0.08419,-5.48894 0.08431,-14.61889 2.65e-4,-20.28878 z m 9.495072,28.91941 2.65277,-0.56892 -0.10012,-3.78279 c -0.0551,-2.08054 0.0676,-4.10702 0.27265,-4.50328 0.20503,-0.39627 0.0118,-0.27632 -0.42947,0.26655 -0.44124,0.54287 -0.69181,1.16574 -0.55682,1.38416 0.3259,0.52731 -3.951436,3.65358 -4.518934,3.30285 -0.243018,-0.1502 -0.441853,0.79419 -0.441853,2.09863 0,1.30445 0.105527,2.37172 0.234507,2.37172 0.128979,0 1.428252,-0.25601 2.88727,-0.56892 z m 0.22906,-5.95044 c 0.5554,-0.42009 0.7895,-0.75635 0.52023,-0.74725 -0.26928,0.009 -0.94403,0.36025 -1.49943,0.78034 -0.5554,0.42008 -0.789502,0.75634 -0.52022,0.74725 0.26928,-0.009 0.94402,-0.36026 1.49942,-0.78034 z m -1.09013,-0.84446 c 2.90439,-1.98428 2.94154,-2.11964 2.94154,-10.71844 v -7.99912 l -1.1705,0.42092 c -0.64378,0.23151 -2.08666,0.38539 -3.2064,0.34197 -1.375449,-0.0534 -1.797346,0.072 -1.300563,0.38651 0.556444,0.35223 0.443107,0.4674 -0.465882,0.47343 -0.660665,0.004 -1.066524,-0.20996 -0.901909,-0.47632 0.16462,-0.26635 0.09419,-0.61104 -0.15651,-0.76598 -0.250697,-0.15494 -0.501575,1.64317 -0.55751,3.9958 -0.05594,2.35263 -0.322841,4.4999 -0.593124,4.77172 -0.270283,0.27182 -0.491426,2.54845 -0.491426,5.05919 v 4.56497 l 1.552664,-0.31053 c 1.150354,-0.23007 1.636561,-0.0919 1.876448,0.53323 0.41322,1.07684 0.506314,1.0664 2.473172,-0.27735 z m -5.522623,-15.38443 c -0.112619,-1.07935 -0.206644,-0.32374 -0.208954,1.67913 -0.0021,2.00286 0.08983,2.88597 0.204755,1.96244 0.114923,-0.92352 0.116812,-2.56223 0.0042,-3.64157 z m 6.167973,-5.02831 c 0.14651,-1.6584 0.0644,-1.88254 -0.45317,-1.23692 -1.071601,1.33673 -2.912647,1.48613 -3.553668,0.28836 -0.898934,-1.67967 0.194548,-3.52884 2.086727,-3.52884 0.840661,0 1.658891,0.29262 1.818291,0.65028 0.1594,0.35765 0.23743,0.065 0.17341,-0.65028 -0.0869,-0.97076 -0.44622,-1.33128 -1.416972,-1.42166 -1.194463,-0.11121 -1.215683,-0.0786 -0.260112,0.40011 0.832404,0.41699 0.683954,0.46612 -0.742403,0.24573 -0.980573,-0.15151 -1.6355,-0.12811 -1.455393,0.052 0.180102,0.1801 -0.02492,0.67986 -0.455649,1.11057 -0.485038,0.48504 -0.723124,1.50103 -0.625509,2.66925 0.154356,1.84727 0.20049,1.88403 2.238503,1.78353 l 2.080905,-0.10262 -1.820792,0.55552 c -1.608755,0.49082 -1.699628,0.60566 -0.780338,0.98616 2.08772,0.8641 2.97531,0.35916 3.16617,-1.80118 z m -1.995663,1.42076 c 0.357655,-0.14431 0.942903,-0.14431 1.300563,0 0.35765,0.14432 0.065,0.2624 -0.650282,0.2624 -0.715309,0 -1.007936,-0.11808 -0.650281,-0.2624 z m 3.465693,-1.20994 c -0.33856,-0.33856 -0.54262,-0.1345 -0.59778,0.59778 -0.0631,0.83737 0.0638,0.96425 0.51403,0.51403 0.39372,-0.39372 0.42231,-0.77326 0.0838,-1.11181 z m -7.641333,-3.77783 c -0.115401,-0.9299 -0.209822,-0.16907 -0.209822,1.69073 0,1.85981 0.09442,2.62064 0.209822,1.69073 0.115397,-0.9299 0.115397,-2.45156 0,-3.38146 z m 5.257553,0.96443 c 0.13935,-1.21682 0.009,-1.43553 -0.692832,-1.16606 -0.475392,0.18243 -0.96225,0.33169 -1.081912,0.33169 -0.119657,0 -0.217563,0.60241 -0.217563,1.3387 0,1.93901 1.763627,1.49256 1.992307,-0.50433 z m 2.00464,0.62876 c -0.16607,-0.415 -0.28934,-0.29173 -0.3143,0.3143 -0.0226,0.54841 0.10037,0.85566 0.27323,0.6828 0.17287,-0.17287 0.19135,-0.62156 0.041,-0.9971 z m 0,-2.60113 c -0.16607,-0.415 -0.28934,-0.29173 -0.3143,0.31431 -0.0226,0.5484 0.10037,0.85566 0.27323,0.68279 0.17287,-0.17287 0.19135,-0.62156 0.041,-0.9971 z m -6.919801,-1.75026 c 0.177651,-0.46296 0.09044,-0.67178 -0.204454,-0.48953 -0.282847,0.17481 -0.514269,0.53812 -0.514269,0.80736 0,0.74831 0.372882,0.58341 0.718723,-0.31783 z m 7.864991,-0.2331 c -0.17683,-0.28612 -0.60033,-0.51664 -0.9411,-0.51225 -0.37227,0.005 -0.30811,0.20924 0.16076,0.51225 0.99942,0.64588 1.17951,0.64588 0.78034,0 z m -3.19138,-2.72398 c 3.56355,-0.56698 3.97172,-0.75038 3.97172,-1.78451 0,-1.32569 -0.82121,-2.05681 -1.22112,-1.08717 -0.16971,0.41148 -0.39331,0.25059 -0.60374,-0.4344 -0.31135,-1.01353 -0.51619,-1.05194 -2.995266,-0.56177 -2.047679,0.40488 -2.42839,0.61724 -1.651652,0.92131 0.877458,0.34349 0.890407,0.39992 0.09902,0.43171 -0.500717,0.0201 -0.910394,0.27066 -0.910394,0.55679 0,0.28612 -0.48202,0.52022 -1.071154,0.52022 -0.677198,0 -0.934631,-0.22089 -0.699958,-0.6006 0.204157,-0.33033 0.146272,-0.4616 -0.128636,-0.29169 -0.274902,0.1699 -0.401728,1.14923 -0.281821,2.17628 0.166269,1.42421 0.372652,1.73904 0.869639,1.32657 0.358404,-0.29745 2.438915,-0.82518 4.623362,-1.17274 z m -0.320138,-3.34303 c 0.357658,-0.14431 0.942908,-0.14431 1.300558,0 0.35766,0.14432 0.065,0.2624 -0.65028,0.2624 -0.715306,0 -1.007933,-0.11808 -0.650278,-0.2624 z m 3.771628,3.98611 c 0,-0.28612 -0.52672,-0.50377 -1.1705,-0.48366 -1.11687,0.0349 -1.12284,0.057 -0.13006,0.48366 0.57225,0.24591 1.09898,0.46355 1.17051,0.48366 0.0715,0.0201 0.13005,-0.19753 0.13005,-0.48366 z m -2.68559,-5.4646 c 0.66984,-0.66984 -0.44461,-0.65953 -2.794801,0.0258 l -2.583095,0.7533 2.560013,-0.26064 c 1.408005,-0.14335 2.676053,-0.37668 2.817883,-0.51851 z m -8.619404,-2.17906 c 0.506164,-0.1319 1.208468,-0.12323 1.560676,0.0193 0.352208,0.1425 -0.06192,0.25042 -0.920294,0.23981 -0.858371,-0.0106 -1.146545,-0.12719 -0.640382,-0.25909 z"
       id="path3776"
       inkscape:connector-curvature="0" />
  </g>
</svg>
