<?xml version="1.0" encoding="UTF-8" standalone="no"?>
<svg
   xmlns:dc="http://purl.org/dc/elements/1.1/"
   xmlns:cc="http://creativecommons.org/ns#"
   xmlns:rdf="http://www.w3.org/1999/02/22-rdf-syntax-ns#"
   xmlns:svg="http://www.w3.org/2000/svg"
   xmlns="http://www.w3.org/2000/svg"
   id="svg8"
   version="1.1"
   viewBox="0 0 500 500"
   height="500mm"
   width="500mm">
  <defs
     id="defs2" />
  <metadata
     id="metadata5">
    <rdf:RDF>
      <cc:Work
         rdf:about="">
        <dc:format>image/svg+xml</dc:format>
        <dc:type
           rdf:resource="http://purl.org/dc/dcmitype/StillImage" />
        <dc:title></dc:title>
      </cc:Work>
    </rdf:RDF>
  </metadata>
  <g
     transform="translate(0,203)"
     id="layer1">
    <path
       id="path186"
       d="m 232.03136,293.24599 c -18.56459,-1.52114 -47.44693,-6.64177 -57.34957,-10.16766 -12.41008,-4.41868 -13.24272,-6.0542 -27.91969,-54.84086 -11.54972,-38.3916 -12.86626,-48.2816 -10.79332,-81.08043 C 136.2682,142.41949 115.64461,65.020979 113.85599,64.169733 95.373646,55.373337 79.845356,41.675056 69.138786,24.722404 45.785846,-12.254368 45.702506,-52.168892 68.934026,-73.342177 l 5.42453,-4.943929 -6.8644,-24.331394 c -3.77542,-13.38225 -6.38924,-25.56964 -5.80848,-27.08306 1.6777,-4.37203 45.396804,-32.76411 72.570894,-47.12904 26.6318,-14.07825 36.4152,-16.80234 75.44918,-21.00807 24.32108,-2.62048 44.061,-2.62048 68.38209,0 20.53585,2.21264 49.06394,7.09601 51.97905,8.89764 0.97452,0.60229 5.42151,7.23835 9.8822,14.74679 8.83401,14.86982 19.86961,49.27769 50.42245,157.211848 9.23655,32.629928 18.601,65.428187 20.80993,72.885035 14.65101,49.458517 35.20065,134.521787 36.47925,151.002417 1.38368,17.8354 1.30751,18.31446 -3.60905,22.69376 -5.77686,5.14558 -3.46164,4.92366 -68.64637,6.58011 -35.01998,0.88993 -55.13393,0.48662 -72.56092,-1.4549 l -24.11041,-2.68614 -17.93976,11.07917 c -9.86687,6.09353 -18.85545,11.99484 -19.97464,13.11403 -1.39476,1.39476 3.1237,2.72907 14.36419,4.24177 37.4135,5.03494 43.59956,5.08647 57.24603,0.47693 13.48247,-4.55415 27.71251,-4.81738 28.56122,-0.52835 0.27443,1.38677 0.0467,1.60925 -0.50632,0.4944 -0.55291,-1.11486 -1.92999,-2.02702 -3.06019,-2.02702 -1.19313,0 -0.96579,1.31232 0.54207,3.12918 2.90163,3.49624 16.65179,2.80174 46.26089,-2.33658 13.54222,-2.35011 18.06237,-4.2752 32.32568,-13.76724 9.12011,-6.06931 16.95993,-10.65721 17.42181,-10.19531 1.51799,1.51798 -35.33726,24.43582 -60.54722,37.65029 -21.75627,11.40412 -27.09034,13.34411 -44.49536,16.1829 -19.20577,3.13249 -76.9043,5.33139 -96.90101,3.69293 z m 94.87876,-6.04264 c 16.79404,-2.57154 22.82856,-4.61492 40.54022,-13.72761 17.95526,-9.23801 19.7243,-10.56512 12.89889,-9.67655 -4.35066,0.56639 -16.94725,1.84169 -27.99243,2.83397 -11.04519,0.99231 -21.72407,2.67103 -23.73085,3.73049 -5.83343,3.07972 -25.39757,6.58132 -29.0151,5.19315 -1.81962,-0.69826 -3.30842,-2.95416 -3.30842,-5.01313 0,-3.1806 -1.5072,-3.74356 -10.02254,-3.74356 -5.51241,0 -19.64014,-1.40599 -31.39496,-3.12442 l -21.37242,-3.12441 -9.85861,4.99572 c -5.42225,2.74766 -14.96344,8.07085 -21.20265,11.8293 -13.05941,7.8669 -13.11349,7.82331 13.75954,11.08886 36.16986,4.39527 76.77724,3.9324 110.69933,-1.26181 z M 207.67708,271.97191 c 21.02769,-11.58129 21.11508,-11.66007 18.07621,-16.29797 -1.6795,-2.56325 -3.62372,-4.34235 -4.32048,-3.95356 -47.52391,26.51694 -44.7772,24.54818 -40.63477,29.12553 1.9156,2.11671 3.99282,3.60444 4.61605,3.30606 0.62322,-0.29837 10.64157,-5.77941 22.26299,-12.18006 z m -34.38053,2.24409 c -2.72332,-8.0723 -2.39166,-7.73958 -6.242,-6.26208 -4.28437,1.64408 -4.09977,3.92853 0.70574,8.73405 5.88245,5.88244 8.03109,4.92306 5.53626,-2.47197 z m 27.79288,-13.3486 c 10.99607,-5.98216 20.03262,-11.76655 20.08127,-12.85422 0.085,-1.9011 -110.95298,-398.75775 -111.95963,-400.15061 -0.37213,-0.51491 -29.896114,18.48824 -42.759574,27.52226 -0.88702,0.62296 0.10984,6.85231 2.21524,13.843 2.1054,6.99069 8.43081,29.173632 14.05645,49.295421 11.1176,39.765358 25.897644,92.350567 42.521244,151.284212 23.01997,81.609967 30.52151,108.276827 40.76021,144.896527 6.35305,22.72229 11.55046,37.89214 12.87335,37.57385 1.22024,-0.29359 11.2154,-5.42829 22.21144,-11.41044 z m 123.94421,8.57392 c 12.76929,-4.35094 6.58752,-6.97092 -7.70197,-3.26428 -5.51416,1.43035 -12.05658,2.60064 -14.53871,2.60064 -2.48213,0 -4.51295,0.88991 -4.51295,1.97757 0,3.10526 16.1054,2.31428 26.75363,-1.31393 z m -156.10911,-5.35169 c 0.91609,-2.38728 -20.00635,-79.97738 -22.16751,-82.20738 -0.4643,-0.47909 -2.31124,0.59598 -4.10431,2.38906 -3.02844,3.02843 -2.95175,4.42539 1.07925,19.65799 13.57483,51.29747 21.41191,70.01257 25.19257,60.16033 z m 85.3288,-19.41872 c 11.1627,-6.73276 20.26752,-12.73964 20.23293,-13.34861 -0.0346,-0.60899 -1.3242,-2.77281 -2.86581,-4.80846 -2.66739,-3.52228 -3.76846,-3.10449 -22.77267,8.64076 -10.98337,6.78811 -20.35963,11.95212 -20.83615,11.47561 -0.47651,-0.47652 8.46462,-6.49437 19.8692,-13.37299 l 20.73561,-12.50662 v -13.67599 c 0,-8.70842 -2.20456,-22.4334 -6.06929,-37.78556 -17.71961,-70.389385 -58.29977,-216.423458 -60.9514,-219.343192 -0.71507,-0.787384 -12.66289,5.28958 -26.5507,13.504366 -22.52782,13.325454 -25.10313,15.398969 -23.88337,19.229752 0.75196,2.361576 18.16014,63.84719 38.68486,136.634694 34.22089,121.35872 39.28331,137.59758 42.89564,137.59758 0.66842,0 10.34844,-5.5086 21.51115,-12.24134 z M 420.49361,232.3808 c 11.20277,-1.48087 20.99174,-3.3598 21.75329,-4.17541 0.76154,-0.81563 -3.06492,-0.95653 -8.50324,-0.31313 -48.59999,5.74981 -93.71614,5.74934 -142.38515,-0.001 -5.68449,-0.67168 -9.19765,-0.42601 -8.26422,0.57795 5.52791,5.94548 101.37189,8.67437 137.39932,3.91205 z m 0.39583,-5.32175 c 24.94357,-2.86752 23.73086,-2.00822 23.73086,-16.81505 0,-8.87751 -0.81185,-13.09455 -2.65726,-13.8027 -1.46149,-0.56084 -8.35827,-0.0639 -15.32618,1.10448 -30.67324,5.14291 -88.71813,4.61731 -137.75032,-1.24736 l -10.38225,-1.24179 v 12.88751 c 0,7.92937 0.95104,13.65383 2.47197,14.87931 2.32706,1.87502 35.49109,5.73057 61.79911,7.18458 16.61131,0.91808 58.10064,-0.64823 78.11407,-2.94898 z m -140.40758,0.43177 c 0,-2.52882 -5.81481,-6.95196 -7.2511,-5.51567 -1.43629,1.43629 2.98685,7.2511 5.51567,7.2511 0.95449,0 1.73543,-0.78094 1.73543,-1.73543 z m -3.95514,-20.01785 c 0,-9.22867 -0.65918,-11.86543 -2.96636,-11.86543 -2.30717,0 -2.96635,2.63676 -2.96635,11.86543 0,9.22867 0.65918,11.86543 2.96635,11.86543 2.30718,0 2.96636,-2.63676 2.96636,-11.86543 z m 149.80104,-12.06908 c 8.97323,-1.31453 16.31497,-3.24039 16.31497,-4.27966 0,-1.08632 -2.92491,-1.34086 -6.88057,-0.59877 -36.43218,6.83472 -98.94843,6.85695 -148.85319,0.053 -4.72034,-0.64358 -8.40468,-0.33407 -8.40468,0.70603 0,1.01855 11.34632,2.87758 25.21404,4.13117 13.86772,1.25358 28.32872,2.62089 32.13554,3.03848 12.90263,1.41528 74.06824,-0.64681 90.47389,-3.05017 z m -149.80104,-4.95186 c 0,-0.42745 -1.33486,-0.7772 -2.96636,-0.7772 -1.63149,0 -2.96635,0.86198 -2.96635,1.91551 0,1.05351 1.33486,1.40327 2.96635,0.77721 1.6315,-0.62608 2.96636,-1.48805 2.96636,-1.91552 z m 135.46365,1.14343 c 9.78898,-1.10111 20.60054,-2.51086 24.02569,-3.13277 l 6.22755,-1.13073 -10.78403,-41.84075 C 420.5409,103.12792 400.35557,29.308946 384.8695,-24.891678 l -8.47541,-29.663571 -21.75329,-1.620106 c -19.20071,-1.430001 -140.92321,-0.501031 -142.51187,1.087631 -0.33823,0.338226 3.36224,14.389958 8.22325,31.226072 11.37988,39.414216 37.67719,136.024772 48.43516,177.940192 4.60612,17.94646 8.5139,32.83787 8.68399,33.09205 0.17007,0.25416 11.81838,1.71253 25.88512,3.24082 30.83826,3.35046 84.2038,3.93211 108.63392,1.18405 z m -137.44122,-5.18551 c 0,-4.52197 -37.92545,-145.84271 -54.48486,-203.025672 -5.92625,-20.464504 -10.775,-37.567285 -10.775,-38.006185 0,-0.438898 -1.19227,-0.340475 -2.64951,0.218719 -2.04324,0.784066 0.67437,12.648424 11.87645,51.8491828 7.98929,27.9578612 22.75267,82.1986692 32.80749,120.5351452 11.71221,44.65564 19.16979,69.7051 20.75347,69.70939 1.35958,0.004 2.47196,-0.57257 2.47196,-1.28058 z m -128.69541,-10.1533 c -0.0843,-1.86515 -1.72098,-7.84072 -3.63708,-13.27904 l -3.4838,-9.88786 -1.44077,7.6521 c -0.79243,4.20865 -0.85898,11.09574 -0.14789,15.30466 1.14614,6.78394 1.72254,7.42266 5.07785,5.62694 2.08173,-1.1141 3.71598,-3.55166 3.63168,-5.4168 z M 112.3883,56.250805 c 0,-1.769115 -1.15942,-2.459367 -2.96635,-1.765991 -1.6315,0.62608 -2.96636,1.932997 -2.96636,2.904301 0,0.971285 1.33486,1.765991 2.96636,1.765991 1.63149,0 2.96635,-1.306937 2.96635,-2.904301 z m -6.40248,-5.653204 c 4.15905,-2.309665 4.25318,-2.757367 1.33652,-6.357041 -1.72569,-2.129805 -2.63179,-2.85324 -2.01355,-1.607628 1.21254,2.442954 -4.09523,5.317037 -6.768336,3.664954 -1.27648,-0.788912 -1.35124,2.493481 -0.14644,6.430113 0.32966,1.077164 3.334026,0.234085 7.591806,-2.130398 z M 93.774926,47.570473 c -0.57677,-0.933216 2.04043,-3.360348 5.816008,-5.393628 6.716866,-3.617275 9.299796,-8.743001 4.392696,-8.717135 -1.35958,0.0079 -5.141686,1.78112 -8.404684,3.942111 -7.01898,4.648499 -11.33527,5.301315 -5.81629,0.879683 3.65668,-2.929594 3.61889,-2.968473 -0.7967,-0.819723 l -4.63543,2.255737 4.48575,4.774865 c 4.47254,4.760806 6.94851,6.297774 4.95865,3.07809 z m -2.69331,-14.116399 c 7.682008,-4.683719 11.817514,-5.260676 6.358488,-0.887079 -3.737978,2.994735 -3.729738,3.023015 0.31418,1.077955 5.001706,-2.405756 5.603046,-14.19663 0.79102,-15.510212 -2.20801,-0.602724 -2.33147,-0.360432 -0.48292,0.947791 1.77682,1.257459 0.0888,3.073937 -5.932718,6.384214 -11.2035,6.158987 -13.52481,8.091055 -12.2328,10.181585 1.62682,2.632247 4.04745,2.157353 11.18475,-2.194254 z M 77.877566,29.64808 c -0.619,-1.001561 3.75921,-4.615731 9.72935,-8.031511 12.111878,-6.929707 13.277364,-8.11621 11.228618,-11.431154 -0.99008,-1.6019719 -5.527958,0.148516 -14.835748,5.722855 -12.92919,7.743181 -13.28737,8.16559 -10.00208,11.795798 3.56722,3.941735 5.80859,5.064778 3.87986,1.944012 z m 17.9285,-9.487695 c -0.84972,-0.849723 -15.0589,7.325616 -15.0589,8.664234 0,0.506001 3.54967,-1.075047 7.88816,-3.513412 4.33849,-2.438366 7.565318,-4.756238 7.17074,-5.150822 z m -1.6625,-13.0175829 c 1.38586,-1.070162 2.164418,-2.301062 1.73013,-2.735357 -0.43429,-0.4342939 -6.30683,2.443923 -13.05008,6.3960409 -6.74325,3.952117 -12.68478,6.761336 -13.2034,6.242718 -0.51861,-0.518618 4.84834,-4.181595 11.92656,-8.1399619 13.58533,-7.5973539 16.282708,-10.0426213 13.18786,-11.9553501 -1.41481,-0.8743971 -24.85457,11.6789651 -29.45067,15.772539 -0.34728,0.309312 0.50791,2.38675 1.90043,4.616521 2.5086,4.016903 2.63241,3.997621 13.48563,-2.098658 6.02458,-3.38402 12.08767,-7.0283489 13.47354,-8.0984919 z m -14.1128,-5.8316599 c 13.3634,-7.7400542 17.416408,-11.3710362 12.69267,-11.3710362 -2.80457,0 -29.77441,16.5602031 -29.77441,18.2822921 0,2.5962949 2.21173,1.701424 17.08174,-6.9112559 z m -2.59499,-5.7295286 c 16.72719,-9.6692716 16.17446,-9.2581976 14.58534,-10.8473126 -1.49644,-1.496442 -31.04967,15.08773001 -31.04967,17.4239142 0,2.6539599 1.60553,2.0126339 16.46433,-6.5766016 z m -5.10773,-5.9320206 c -0.26397,-1.199797 0.7563,-2.630614 2.26728,-3.179593 1.79055,-0.650554 2.22394,-0.151443 1.24453,1.43328 -1.16679,1.887913 -0.56964,1.932063 2.67141,0.19752 2.29576,-1.228653 3.96049,-3.208491 3.6994,-4.399638 -0.2611,-1.191148 0.76154,-2.614887 2.27252,-3.163867 1.66891,-0.606359 2.21076,-0.130104 1.38047,1.213331 -0.90361,1.462062 -0.19309,1.761089 2.0967,0.882414 2.44912,-0.939815 2.70325,-1.582464 0.86773,-2.194305 -2.10889,-0.702965 -2.09014,-1.185578 0.1,-2.573151 2.1379,-1.35448 2.16005,-1.714168 0.10707,-1.738184 -1.42378,-0.01666 -2.03869,-0.9202 -1.36648,-2.007864 0.67222,-1.087664 0.33088,-1.977571 -0.75852,-1.977571 -1.08941,0 -1.62901,-1.826414 -1.19911,-4.058699 0.65219,-3.386541 0.0603,-3.837111 -3.57429,-2.720687 -2.39577,0.735906 -3.69622,0.641908 -2.88991,-0.208883 0.80631,-0.850791 0.47487,-2.741157 -0.73654,-4.200812 -2.33208,-2.809987 0.14377,-3.681865 3.32454,-1.17074 1.03328,0.815748 1.2808,0.707308 0.55005,-0.240977 -0.73075,-0.948285 -0.78853,-3.131657 -0.12841,-4.851934 0.85444,-2.226635 -1.61155,-1.479576 -8.55921,2.592962 -5.3677,3.146409 -12.20108,7.109592 -15.18528,8.807078 -6.58333,3.744759 -6.66009,4.348217 -1.00129,7.872273 4.0119,2.498434 4.19385,2.461533 1.84989,-0.375175 -2.2065,-2.670358 -1.97602,-3.479907 1.52405,-5.353086 2.26803,-1.213815 5.13271,-1.583333 6.36595,-0.821149 1.33829,0.827109 1.69811,0.505353 0.89253,-0.798112 -1.45609,-2.356006 6.21927,-7.448746 8.21633,-5.451686 4.41505,4.415051 -2.5061,13.063463 -7.82413,9.776741 -1.37465,-0.84958 -1.69627,-0.50237 -0.83121,0.897335 1.87993,3.041786 -1.27616,2.91654 -4.75859,-0.188838 -2.35283,-2.098091 -2.38222,-1.955996 -0.19427,0.939495 2.2383,2.962135 1.90015,3.720223 -2.56735,5.755751 -5.17858,2.359519 -7.42509,6.415336 -2.5084,4.528623 1.5143,-0.581088 2.63677,0.32341 2.63677,2.124738 0,1.828081 -1.11907,2.707131 -2.68253,2.107177 -2.0542,-0.788271 -2.2249,-0.174303 -0.72876,2.621241 1.07456,2.00784 1.34475,4.2596135 0.60043,5.0039417 -0.74433,0.7443262 0.32287,0.7101044 2.37156,-0.076057 2.70473,-1.0379026 3.30562,-0.7509906 2.19402,1.0476066 -1.00654,1.6286131 0.5707,1.3902208 4.60508,-0.6960379 3.37477,-1.7451573 5.91996,-4.1546679 5.65598,-5.3544654 z m -11.01182,2.8860781 c -1.56029,-0.6233423 2.44259,-4.1622811 9.88786,-8.7418381 12.51044,-7.695124 21.46218,-10.965582 10.833,-3.957767 -3.09736,2.042094 -4.87717,4.115146 -3.95514,4.606784 0.92204,0.491639 0.49174,0.594967 -0.95621,0.229622 -1.44795,-0.365344 -4.53816,0.670413 -6.86713,2.301686 -2.89527,2.02793 -3.31353,2.975526 -1.3225,2.996231 2.52785,0.02629 2.52068,0.2831643 -0.0544,1.9472891 -3.26107,2.1074662 -3.7394,2.1465391 -7.56551,0.617993 z m 0.31441,-9.5817871 c 0,-3.745885 10.37448,-9.581828 13.54744,-7.620827 1.32177,0.816897 1.67712,0.488579 0.87532,-0.808748 -0.74235,-1.201147 0.39651,-3.118458 2.5308,-4.260695 5.06673,-2.711632 5.45892,-2.641608 5.45892,0.974666 0,1.787614 -1.13463,2.61606 -2.73947,2.000222 -1.50671,-0.578178 -2.2192,-0.209418 -1.58332,0.819464 1.44137,2.332184 -10.23205,8.580139 -12.92323,6.916895 -1.08268,-0.669127 -1.72397,-0.149307 -1.42511,1.155164 0.29887,1.30447 -0.42067,2.730196 -1.59898,3.168283 -1.1783,0.438088 -2.14237,-0.616903 -2.14237,-2.344424 z m 116.511904,-26.48423 c 11.69239,-6.807524 21.2589,-13.316133 21.2589,-14.463575 0,-2.52761 -11.3075,-40.935107 -21.91486,-74.436879 -4.26318,-13.46461 -10.46905,-29.23136 -13.79082,-35.03721 l -6.03959,-10.5561 -22.66511,11.28209 c -12.46581,6.20515 -22.34765,12.18292 -21.95965,13.28394 0.38801,1.10101 8.62557,30.21828 18.30569,64.705025 17.01771,60.627838 17.73175,62.618742 21.5734,60.151611 2.18523,-1.403372 13.53965,-8.121377 25.23204,-14.928902 z m -98.438534,-5.428878 c 2.14543,-1.446317 3.1906,-2.629668 2.32261,-2.629668 -2.19056,0 -28.96545,15.752917 -28.96545,17.041724 0,1.025513 18.94408,-9.222005 26.64284,-14.412056 z m 0.69377,-7.405244 c 0.91618,-4.491664 -1.24535,-3.943386 -13.48986,3.421739 -5.98009,3.59705 -11.18775,8.174999 -11.57257,10.173222 -0.58676,3.046777 1.32761,2.495859 11.86168,-3.413559 6.90874,-3.875682 12.84908,-8.457314 13.20075,-10.181402 z m -3.62223,-5.032895 c 1.62244,-0.968172 2.51031,-2.199884 1.97306,-2.737139 -1.29392,-1.293917 -21.7323,11.058395 -21.7323,13.134313 0,0.887174 3.78211,-0.693186 8.40468,-3.511909 4.62257,-2.818726 9.73213,-5.917096 11.35456,-6.885265 z m -7.89381,-3.184901 c 0,-0.543832 -1.77981,-0.03625 -3.95514,1.127944 -2.17533,1.1642 -3.95515,2.561682 -3.95515,3.105514 0,0.543833 1.77982,0.03625 3.95515,-1.127943 2.17533,-1.1642 3.95514,-2.561683 3.95514,-3.105515 z m 137.710864,1.622336 c -13.68609,-48.053642 -28.45881,-93.411422 -30.42763,-93.424202 -1.35958,-0.009 -2.494,0.65139 -2.52093,1.46714 -0.0269,0.81575 6.39037,22.61847 14.26066,48.4505 9.50046,31.182569 15.21099,46.967312 16.9916,46.967312 1.61134,0 2.28848,-1.381491 1.6963,-3.46075 z M 365.39911,-91.14032 c -5.0454,-16.85879 -11.62344,-38.72891 -14.61786,-48.60026 l -5.44441,-17.94791 -18.0901,-3.47262 c -43.3276,-8.31728 -86.35655,-8.29051 -130.02018,0.0809 l -17.00667,3.26061 9.5419,30.86768 c 5.24805,16.97722 11.84689,38.876836 14.66408,48.665814 l 5.12217,17.798143 h 82.51225 82.51224 z M 75.855566,-69.00511 c -0.60887,-0.608869 -2.20459,-0.0013 -3.54604,1.350254 -1.93855,1.953081 -1.7114,2.180233 1.10703,1.107035 1.95033,-0.74264 3.04788,-1.848421 2.43901,-2.457289 z m 21.521158,-78.63639 c 6.081036,-4.03759 11.056436,-8.55371 11.056436,-10.03583 0,-3.42749 -43.391774,25.05847 -43.458144,28.52954 -0.0467,2.44376 6.46694,-1.274 32.401708,-18.49371 z m 37.644326,-21.78414 c 11.4806,-6.07634 20.87382,-12.25225 20.87382,-13.72424 0,-1.76449 -5.89558,0.40702 -17.30375,6.37345 -22.29929,11.66245 -26.20282,14.11556 -26.20282,16.46671 0,2.85741 0.0437,2.83983 22.63275,-9.11592 z m 40.63097,9.56472 c -0.0102,-0.81575 -2.75608,-6.25702 -6.10195,-12.09171 -4.0536,-7.06887 -6.7429,-9.94901 -8.05999,-8.63192 -2.22991,2.22991 6.87038,18.25167 10.36688,18.25167 1.1382,0 1.51948,0.8899 0.84726,1.97757 -0.67221,1.08766 -0.27978,1.97757 0.87208,1.97757 1.15185,0 2.08593,-0.66743 2.07572,-1.48318 z m 33.63727,-5.52077 c 10.33281,-1.73309 32.13554,-3.84775 48.4505,-4.69923 l 29.66357,-1.54815 -23.73085,-0.27961 c -33.44364,-0.39405 -77.76171,5.01463 -83.058,10.13658 -1.28068,1.23852 0.11311,1.49471 3.95514,0.72698 3.26299,-0.65202 14.38683,-2.60348 24.71964,-4.33657 z m 132.4973,3.24777 c -4.97611,-2.78188 -40.64759,-8.44614 -47.73034,-7.57908 -6.48179,0.79349 -6.44943,0.82448 1.2574,1.20524 4.35066,0.21495 15.91945,2.03294 25.70843,4.03998 21.14339,4.33506 25.14959,4.78534 20.76451,2.33386 z m -140.40758,-7.53477 c 26.91271,-5.00171 90.47337,-4.93157 117.29551,0.12943 10.67316,2.01389 19.87316,3.19419 20.44446,2.62289 1.55809,-1.55809 -8.92836,-18.62081 -12.22043,-19.88409 -10.17692,-3.90525 -50.9773,-7.96631 -80.0354,-7.96631 -30.26276,0 -73.49097,4.48508 -80.34477,8.33606 -3.49296,1.96261 9.10623,22.24659 13.10734,21.10207 1.6315,-0.46668 11.42048,-2.41971 21.75329,-4.34005 z m -39.55143,-16.62847 c 0,-1.08767 -0.88991,-1.42758 -1.97757,-0.75537 -1.08767,0.67222 -1.97757,2.11212 -1.97757,3.19978 0,1.08767 0.8899,1.42758 1.97757,0.75537 1.08766,-0.67222 1.97757,-2.11212 1.97757,-3.19978 z m 181.93658,430.3552 c 1.71204,-2.06288 6.15256,-2.94502 14.57952,-2.89627 11.50644,0.0664 11.8683,0.21263 7.17376,2.89627 -2.71916,1.55441 -9.27995,2.85775 -14.57952,2.89627 -8.34474,0.0607 -9.3058,-0.32731 -7.17376,-2.89627 z"
       style="fill:#000000;stroke-width:1.97757137" />
  </g>
</svg>
