<?xml version="1.0" encoding="UTF-8" standalone="no"?>
<!-- Created with Inkscape (http://www.inkscape.org/) -->

<svg
   xmlns:dc="http://purl.org/dc/elements/1.1/"
   xmlns:cc="http://creativecommons.org/ns#"
   xmlns:rdf="http://www.w3.org/1999/02/22-rdf-syntax-ns#"
   xmlns:svg="http://www.w3.org/2000/svg"
   xmlns="http://www.w3.org/2000/svg"
   xmlns:sodipodi="http://sodipodi.sourceforge.net/DTD/sodipodi-0.dtd"
   xmlns:inkscape="http://www.inkscape.org/namespaces/inkscape"
   width="500"
   height="500"
   viewBox="0 0 132.29166 132.29167"
   version="1.1"
   id="svg8"
   inkscape:version="0.92.4 5da689c313, 2019-01-14"
   sodipodi:docname="icon.svg">
  <defs
     id="defs2" />
  <sodipodi:namedview
     id="base"
     pagecolor="#ffffff"
     bordercolor="#666666"
     borderopacity="1.0"
     inkscape:pageopacity="0.0"
     inkscape:pageshadow="2"
     inkscape:zoom="0.42657054"
     inkscape:cx="322.0882"
     inkscape:cy="275.94377"
     inkscape:document-units="mm"
     inkscape:current-layer="layer1"
     showgrid="false"
     units="px"
     inkscape:window-width="1920"
     inkscape:window-height="1003"
     inkscape:window-x="0"
     inkscape:window-y="0"
     inkscape:window-maximized="1" />
  <metadata
     id="metadata5">
    <rdf:RDF>
      <cc:Work
         rdf:about="">
        <dc:format>image/svg+xml</dc:format>
        <dc:type
           rdf:resource="http://purl.org/dc/dcmitype/StillImage" />
        <dc:title></dc:title>
      </cc:Work>
    </rdf:RDF>
  </metadata>
  <g
     inkscape:label="Layer 1"
     inkscape:groupmode="layer"
     id="layer1"
     transform="translate(0,-164.70832)">
    <path
       style="fill:#000000;stroke:#000000;stroke-width:0.6357739"
       d="m 33.926148,272.66169 v -23.12256 l 5.818866,-4.30627 5.818867,-4.30626 0.01125,-34.87122 0.01125,-34.87124 2.194258,-1.4062 2.194259,-1.40619 20.154766,0.13896 20.154751,0.13896 0.197735,57.60538 0.197737,57.60535 -7.561535,5.57196 c -4.158829,3.06456 -7.920828,5.74384 -8.359982,5.95396 -0.439154,0.21011 -9.806076,0.38561 -20.815399,0.38998 l -20.016934,0.008 z m 5.441498,14.28295 v -7.79966 h -2.13773 -2.137732 v 7.79966 7.79967 h 2.137732 2.13773 z m 29.539564,0 v -7.79966 H 54.526102 40.144994 v 7.79966 7.79967 H 54.526102 68.90721 Z m 4.819516,5.2e-4 -0.233292,-7.80046 h -1.904438 -1.904438 v 7.79968 7.79966 l 2.13773,5.3e-4 2.13773,5.2e-4 -0.233292,-7.80045 z m 9.498787,1.07498 5.892976,-4.38376 v -56.64707 c 0,-50.29397 -0.130722,-56.57446 -1.166038,-55.99974 -1.015078,0.56352 -1.167493,5.16625 -1.177342,35.55216 l -0.01125,34.90483 -5.818866,4.30628 -5.818866,4.30627 v 21.93404 c 0,18.95305 0.14994,21.83057 1.103248,21.17265 0.606774,-0.41877 3.755075,-2.7342 6.996209,-5.14541 z M 39.367646,274.20518 v -3.89984 l -2.13773,-10e-4 -2.137732,-0.001 0.255749,3.90105 c 0.244767,3.73307 0.336625,3.9007 2.13773,3.9007 1.823772,0 1.881983,-0.12056 1.881983,-3.89983 z m 29.539564,0 v -3.89984 H 54.526102 40.144994 v 3.89984 3.89983 H 54.526102 68.90721 Z m 4.664133,1.29994 c 0,-2.42656 -0.12959,-2.59987 -1.943385,-2.59987 -1.813838,0 -1.9434,0.17331 -1.9434,2.59987 0,2.42657 0.12959,2.59989 1.9434,2.59989 1.813823,0 1.943385,-0.17332 1.943385,-2.59989 z M 39.367646,259.9058 v -9.87958 h -1.9434 -1.943387 v 9.87958 9.87957 h 1.943387 1.9434 z m 29.193129,6.10972 c -0.692174,-4.76761 -1.678876,-8.04554 -3.756474,-12.47947 l -1.64462,-3.50983 H 51.652345 40.144994 v 9.87958 9.87957 h 14.481544 14.481558 z m 5.010568,-6.10972 v -9.87958 h -4.543489 -4.543489 l 1.508317,2.98851 c 2.104236,4.16925 3.691876,10.05928 3.691876,13.69651 0,2.93241 0.08959,3.07413 1.9434,3.07413 h 1.943385 z M 44.761419,245.3464 c 4.768105,-3.53221 5.353144,-4.15982 3.877671,-4.15982 -1.140091,0 -3.233531,1.102 -6.087559,3.20452 -6.236385,4.59425 -6.734695,5.11513 -4.893442,5.11513 0.873856,0 3.805696,-1.71692 7.10333,-4.15983 z m 24.002957,-2.7e-4 5.687367,-4.15955 H 63.276963 52.102182 l -5.642667,4.15982 -5.642668,4.15983 11.130081,-2.8e-4 11.130095,-2.7e-4 z m 10.978104,2.7e-4 5.615309,-4.15982 h -4.644831 -4.64483 l -5.606208,4.15982 -5.606221,4.15983 h 4.635744 4.635743 z m 6.266571,-38.99834 V 172.02953 H 66.575135 47.141204 v 34.31853 34.31855 h 19.433931 19.433916 z m -22.764945,24.13201 c -2.635278,-0.95591 -3.511367,-2.93738 -2.618701,-5.92288 0.296236,-0.99079 1.268593,-1.80613 2.775567,-2.32741 3.285679,-1.13651 4.53747,-1.01037 7.120741,0.71758 1.682283,1.12529 2.272282,2.01325 2.272282,3.41986 0,1.40661 -0.589999,2.29457 -2.272282,3.41985 -2.537314,1.69723 -4.099077,1.84595 -7.277607,0.693 z m 6.440452,-1.25298 c 3.203769,-2.14301 1.055991,-6.75971 -3.144753,-6.75971 -2.173937,0 -5.406168,2.27558 -5.406168,3.80608 0,1.7762 2.83683,3.9936 5.109239,3.9936 1.03783,0 2.586592,-0.468 3.441682,-1.03997 z m -6.644534,-17.36402 c -9.124061,-2.68241 -6.221517,-12.79469 3.672488,-12.79469 2.520314,0 3.640663,0.34324 5.770536,1.76792 2.37813,1.59075 2.643007,2.06051 2.643007,4.68745 0,2.58297 -0.291206,3.12414 -2.526404,4.69481 -2.936772,2.06367 -6.215426,2.62768 -9.559627,1.64451 z m 8.266401,-1.65582 c 5.523252,-3.34349 2.316459,-10.09892 -4.793953,-10.09892 -4.487879,0 -7.035948,1.72404 -7.519109,5.08747 -0.365555,2.54482 -0.236331,2.78641 2.452536,4.58501 2.505913,1.67622 3.166022,1.86307 5.634951,1.59507 1.538108,-0.16696 3.439605,-0.69284 4.225575,-1.16863 z m -9.042082,-21.77479 c -2.764656,-1.84927 -2.831742,-4.97623 -0.148329,-6.91333 3.576389,-2.58172 10.677981,-0.58623 10.677981,3.00041 0,4.47134 -6.232427,6.78736 -10.529652,3.91292 z m 7.739896,-0.75259 c 1.989937,-1.47083 1.378499,-4.62293 -1.139596,-5.87483 -5.197706,-2.58411 -10.410885,2.91701 -5.730922,6.04745 1.669181,1.11653 5.248015,1.02661 6.870518,-0.17262 z m 17.559537,-17.47026 c 0.855797,-0.68977 -1.279743,-0.77997 -18.466208,-0.77997 -16.326259,0 -19.588663,0.12472 -20.401639,0.77997 -0.855809,0.68976 1.27973,0.77996 18.466195,0.77996 16.32626,0 19.588677,-0.12472 20.401652,-0.77996 z"
       id="path4414"
       inkscape:connector-curvature="0" />
  </g>
</svg>
