<?xml version="1.0" encoding="UTF-8" standalone="no"?>
<svg
   xmlns:dc="http://purl.org/dc/elements/1.1/"
   xmlns:cc="http://creativecommons.org/ns#"
   xmlns:rdf="http://www.w3.org/1999/02/22-rdf-syntax-ns#"
   xmlns:svg="http://www.w3.org/2000/svg"
   xmlns="http://www.w3.org/2000/svg"
   id="svg8"
   version="1.1"
   viewBox="0 0 500 500"
   height="500mm"
   width="500mm">
  <defs
     id="defs2" />
  <metadata
     id="metadata5">
    <rdf:RDF>
      <cc:Work
         rdf:about="">
        <dc:format>image/svg+xml</dc:format>
        <dc:type
           rdf:resource="http://purl.org/dc/dcmitype/StillImage" />
        <dc:title></dc:title>
      </cc:Work>
    </rdf:RDF>
  </metadata>
  <g
     transform="translate(0,203)"
     id="layer1">
    <path
       id="path443"
       d="m 66.745255,292.08743 c -3.706397,-1.34283 -6.195218,-2.98518 -5.530717,-3.64968 0.66451,-0.66451 -1.098208,-0.7673 -3.917149,-0.22844 -4.100657,0.78391 -5.529902,-0.0842 -7.148897,-4.34255 -1.112948,-2.9273 -3.103953,-5.32235 -4.424444,-5.32235 -1.79486,0 -2.056342,-7.32636 -1.035923,-29.02445 0.750737,-15.96343 2.282093,-48.73051 3.403014,-72.81569 1.120921,-24.0852 3.834224,-75.41263 6.029554,-114.060964 2.195341,-38.648332 5.456035,-100.974496 7.245995,-138.502587 2.180198,-45.709979 4.044923,-68.991179 5.649157,-70.530119 1.317087,-1.26347 22.100774,-5.18115 46.185965,-8.70595 24.0852,-3.52481 61.6642,-9.15321 83.50891,-12.50756 21.84471,-3.35435 57.59061,-8.80251 79.43531,-12.107 21.84471,-3.30449 58.04887,-8.84604 80.45371,-12.31456 22.40483,-3.4685 48.06854,-7.0121 57.03047,-7.87464 15.59731,-1.50117 16.8502,-1.29947 29.28516,4.7145 l 12.99072,6.28277 -1.30775,25.46005 c -2.32348,45.2352 -7.17923,137.957968 -10.50646,200.625062 -1.78431,33.607243 -4.84353,92.508668 -6.79823,130.892048 -1.95471,38.38336 -4.46097,70.6949 -5.5695,71.80343 -2.99339,2.9934 -63.80437,12.51261 -70.9793,11.11093 -4.65525,-0.90943 -5.42743,-0.68186 -3.12672,0.92151 2.45373,1.71002 1.96697,2.13535 -2.4724,2.16039 -3.0402,0.0163 -22.28799,2.70571 -42.77286,5.97458 -89.09436,14.2172 -107.02979,16.67068 -112.71253,15.41839 -4.5628,-1.00547 -5.27113,-0.80204 -2.94962,0.84711 2.45156,1.74154 1.89261,2.17653 -2.82893,2.20157 -3.23628,0.0163 -16.52641,1.84139 -29.53364,4.05386 -34.62192,5.88905 -79.913373,12.28472 -85.771993,12.11197 -2.8006,-0.0825 -8.124506,-1.24883 -11.830902,-2.59163 z m 16.777661,-1.08718 c 0.61246,-0.99099 5.478501,-2.41999 10.813414,-3.17556 10.79551,-1.52897 55.36143,-8.37274 106.46284,-16.34903 18.49216,-2.8864 36.82339,-4.75061 40.73605,-4.1427 5.44444,0.84591 6.15795,0.65174 3.04036,-0.82727 -3.7869,-1.79657 -3.71522,-1.941 1.01841,-2.05199 2.80061,-0.0656 22.50668,-2.84596 43.79126,-6.1784 21.28459,-3.33245 53.95448,-8.42608 72.59973,-11.31918 18.64528,-2.8931 36.51822,-4.68591 39.71765,-3.98402 3.85938,0.84665 4.91426,0.63767 3.13438,-0.62094 -1.8321,-1.29555 1.36888,-2.32058 10.09485,-3.23264 7.0277,-0.73454 13.45096,-2.01723 14.27391,-2.85045 0.82297,-0.83321 2.93679,-30.38661 4.69738,-65.67422 1.76059,-35.2876 4.5669,-88.448163 6.23624,-118.134557 2.66127,-47.3263152 6.73005,-127.581137 10.22295,-201.643473 0.60758,-12.88277 1.44405,-27.08947 1.85886,-31.57044 0.41477,-4.48097 0.32077,-6.58629 -0.20892,-4.67851 -1.1688,4.20979 -3.33971,4.89653 -24.12445,7.63151 -8.96194,1.17926 -30.9594,4.41911 -48.88326,7.19968 -36.86216,5.71849 -92.33152,14.18706 -153.77861,23.47753 -132.725617,20.06743 -117.83995,17.19956 -118.97675,22.92209 -0.91332,4.59762 -3.67002,54.403216 -7.354214,132.8703522 -1.104551,23.5250728 -4.280298,84.9346698 -7.057215,136.4657978 -2.776917,51.5311 -5.61425,104.92079 -6.305178,118.64376 -0.950286,18.8744 -1.921047,24.95082 -3.986127,24.95082 -1.501442,0 -3.296374,0.91657 -3.988716,2.03681 -0.692351,1.12024 0.116037,2.0368 1.796387,2.0368 1.680361,0 3.556309,-0.81081 4.168769,-1.80177 z M 140.9424,214.28586 c -0.66576,-1.73495 1.06401,-47.79215 3.84393,-102.34934 9.09033,-178.401478 9.22407,-180.304177 12.93406,-184.005073 2.38082,-2.374989 15.68697,-5.152946 46.11914,-9.628411 23.52507,-3.45968 61.10408,-9.100383 83.50891,-12.534895 91.61293,-14.043651 103.88799,-15.730191 106.68273,-14.657731 7.42457,2.84907 -6.46244,281.3738 -14.39319,288.67741 -2.70218,2.48847 -19.03146,5.31817 -105.52876,18.28704 -26.32567,3.94711 -65.27952,9.92975 -86.56411,13.29477 -44.73843,7.07296 -45.00131,7.08942 -46.60271,2.91623 z m 14.48063,-0.11283 c -0.67681,-0.67682 -2.43356,-0.74916 -3.90387,-0.16071 -1.62481,0.65019 -1.14218,1.13282 1.23056,1.23056 2.14714,0.0884 3.35012,-0.39296 2.67331,-1.06977 z m 11.28361,-2.14225 c -1.37898,-0.55793 -4.12866,-0.59188 -6.1104,-0.0756 -1.98175,0.51641 -0.85349,0.9729 2.50724,1.01441 3.36072,0.0416 4.98215,-0.38101 3.60316,-0.93895 z m -17.39402,-1.93137 c -0.67681,-0.6768 -2.43355,-0.74915 -3.90388,-0.1607 -1.62481,0.6502 -1.14217,1.13283 1.23058,1.23056 2.14713,0.0884 3.35012,-0.39296 2.6733,-1.06977 z m 24.99327,-0.96946 c -3.87566,-1.36542 -2.71535,-1.61257 4.85748,-1.03462 5.47222,0.41763 8.84958,0.0795 7.50523,-0.75133 -1.34434,-0.83084 3.41474,-2.05775 10.57574,-2.72645 15.57634,-1.45455 103.47742,-14.54096 127.44149,-18.97306 9.33315,-1.72613 18.31724,-2.62123 19.96462,-1.98906 1.64738,0.63215 2.5072,0.3597 1.91067,-0.60549 -0.59651,-0.96518 4.4725,-2.38357 11.26444,-3.15199 15.84627,-1.79282 22.11294,-4.66731 22.05879,-10.11833 -0.0234,-2.35277 0.949,-12.9851 2.16085,-23.6274 1.21184,-10.64229 3.32619,-37.95993 4.69855,-60.705868 2.34851,-38.925216 2.28781,-41.302001 -1.03262,-40.433692 -1.9403,0.507409 -21.79597,3.929706 -44.12373,7.605116 l -40.59593,6.682547 -1.22946,7.688706 c -1.08336,6.774858 -2.13619,7.940496 -8.85832,9.807326 -17.48044,4.854601 -24.94167,2.398819 -24.94167,-8.209231 0,-2.148847 -0.5195,-3.907015 -1.15442,-3.907015 -0.63494,0 -12.77937,1.754237 -26.98764,3.898319 -14.20826,2.144079 -35.09548,4.980659 -46.41603,6.303471 l -20.58282,2.405164 -1.3653,26.794577 c -0.75091,14.73702 -2.81415,41.77436 -4.58497,60.083 -1.96644,20.33121 -2.48821,34.01992 -1.34047,35.16766 5.33804,5.33804 141.03393,-12.90178 192.80264,-25.91593 11.05574,-2.7793 20.40064,-4.75396 20.7665,-4.3881 0.36585,0.36584 -0.18759,2.01346 -1.2297,3.66137 -1.0624,1.67988 -1.90857,1.96691 -1.92607,0.65333 -0.0216,-1.62786 -4.53805,-1.16149 -14.798,1.52806 -34.33485,9.00053 -116.30719,21.80209 -167.3693,26.13789 -13.35615,1.13412 -25.22562,3.00371 -26.37659,4.1547 -3.17881,3.17879 -6.18864,2.50027 -3.46526,-0.78118 1.73991,-2.09649 1.77072,-3.25359 0.11388,-4.27757 -1.99841,-1.23508 -7.87197,4.11638 -8.04583,7.33061 -0.0355,0.65866 3.27292,1.32307 7.35232,1.47642 4.07939,0.15338 7.8984,0.76016 8.48667,1.34843 0.58828,0.58826 2.9791,0.97821 5.31293,0.86655 3.76141,-0.18005 3.66503,-0.40676 -0.84867,-1.99693 z m -22.36954,-8.49325 c 0.0194,-2.52054 0.88148,-12.83186 1.9157,-22.91403 3.41346,-33.27622 8.39131,-121.300391 10.07856,-178.22024997 1.35415,-45.68304303 1.15823,-56.55311903 -1.06251,-58.94604003 -1.49756,-1.613681 -3.41202,-2.244783 -4.25435,-1.402448 -1.50827,1.508263 -5.29121,63.9345845 -11.85148,195.573638 -2.77373,55.65786 -2.87988,67.28305 -0.62749,68.71091 4.35646,2.7617 5.76397,2.08198 5.80157,-2.80178 z m 5.95019,-3.33097 c 2.30312,-4.30344 7.40234,-54.90885 9.5157,-94.43556 1.1966,-22.38021 0.96481,-25.96925 -1.67715,-25.96925 -2.5065,0 -3.31543,4.92228 -4.43518,26.98765 -1.55176,30.57801 -4.7251,73.1676 -6.52576,87.58252 -1.27955,10.24324 -0.25833,12.15156 3.12239,5.83464 z M 295.31719,72.802099 c 1.11261,-1.112596 2.41112,-8.119403 2.88558,-15.570659 l 0.86267,-13.547713 -10.79455,1.278441 c -5.937,0.703165 -11.57649,2.060429 -12.53222,3.016158 -2.37378,2.373772 -4.51483,21.736532 -2.87585,26.007711 1.09396,2.850774 3.00321,3.227777 10.87912,2.148272 5.25379,-0.72011 10.46264,-2.219603 11.57525,-3.33221 z M 276.14603,61.663706 c 0,-10.082927 0.47286,-11.282298 4.88484,-12.389627 2.68666,-0.674304 7.04034,-0.920899 9.67482,-0.548002 4.37918,0.619861 4.74414,1.54239 4.25551,10.757415 -0.5934,11.191399 -2.49479,13.266938 -12.19556,13.312645 l -6.61961,0.03115 z m 11.03583,5.85369 c 3.47119,-1.332008 4.7032,-15.058103 1.35158,-15.058103 -5.70004,0 -8.31381,2.950085 -8.31381,9.38353 0,6.990918 1.13058,7.912387 6.96223,5.674573 z M 169.17005,66.207711 c 0.63754,-3.640785 1.36649,-31.500681 1.6199,-61.9108812 0.2534,-30.4101858 1.04431,-54.9382908 1.75755,-54.5068918 0.71326,0.431401 2.44373,-0.597578 3.84551,-2.286619 2.07679,-2.502365 1.8725,-3.818172 -1.1033,-7.106385 -4.81316,-5.318489 -7.85602,-5.13165 -6.41112,0.393659 0.63703,2.435984 0.34921,8.622773 -0.63959,13.748419 -2.70799,14.037362 -4.68716,118.288308 -2.24566,118.288308 1.10966,0 2.53918,-2.978828 3.17671,-6.619609 z m 54.01911,-0.137606 43.79125,-6.482003 0.62693,-6.467928 c 0.83847,-8.650118 4.07043,-10.888279 17.76374,-12.301555 12.45885,-1.285855 15.12562,0.311285 15.1854,9.09467 0.0163,2.520544 0.7186,4.571666 1.55878,4.55806 1.32943,-0.02159 63.11335,-10.3271 81.47211,-13.589528 6.19778,-1.101381 6.62218,-1.710996 6.65992,-9.566252 0.0222,-4.614458 0.9194,-31.73575027 1.9938,-60.269555 1.25376,-33.296951 1.24985,-52.583264 -0.0103,-53.844033 -2.56994,-2.569925 -46.67801,1.495883 -85.53211,7.884208 -16.2435,2.670726 -34.57473,5.484975 -40.73606,6.253883 -6.16133,0.768907 -28.15879,4.490829 -48.88326,8.270936 -27.43271,5.003681 -38.3733,7.818108 -40.22686,10.34823 -1.59257,2.173868 -2.548,10.384919 -2.55136,21.926439 -0.003,10.148121 -0.60668,37.0114962 -1.34168,59.696387 -1.28715,39.727227 -1.19325,41.240181 2.55135,41.10765 2.13824,-0.07571 23.59376,-3.054511 47.67896,-6.619609 z m 46.21368,-2.917598 c -0.51231,-1.960422 -0.93149,-0.356441 -0.93149,3.564405 0,3.920844 0.41918,5.52483 0.93149,3.564399 0.5123,-1.960417 0.5123,-5.168381 0,-7.128804 z m -57.99752,-124.80416 c 18.49396,-3.640271 52.04387,-8.936525 120.75279,-19.062272 11.20241,-1.650919 27.99066,-3.6262 37.30722,-4.389515 15.51467,-1.271128 17.09907,-1.808374 18.84042,-6.388451 1.04568,-2.750334 1.90123,-5.276635 1.90123,-5.613998 0,-0.337367 -20.39348,2.840278 -45.31886,7.061432 -49.38393,8.363247 -119.32475,18.815996 -150.72339,22.52581 -10.92236,1.2905 -19.85884,2.96644 -19.85884,3.724312 0,3.136872 5.25332,6.266278 10.51915,6.266278 3.09696,0 15.05809,-1.855618 26.58028,-4.123596 z m -44.3056,-1.86163 c 0.64979,-1.051389 -0.44182,-2.844755 -2.4258,-3.985257 -2.78202,-1.599256 -1.97641,-1.830532 3.52156,-1.010965 10.63218,1.584912 99.50739,-10.319365 183.31225,-24.553526 38.30957,-6.506842 36.62509,-6.024482 31.19231,-8.932019 -3.52634,-1.88723 -11.28509,-1.31716 -37.67541,2.768217 -39.65367,6.13862 -83.7733,12.905202 -139.14829,21.341029 -46.37488,7.064748 -47.86487,7.412139 -47.86487,11.159656 0,4.119385 6.99884,6.593603 9.08825,3.212865 z m 227.14969,-29.149622 c -0.0237,-5.023206 -0.50735,-5.882808 -2.00562,-3.564403 -2.58715,4.003323 -2.58715,10.184013 0,10.184013 1.12023,0 2.02276,-2.978824 2.00562,-6.61961 z M 74.507024,285.16401 c 0.002,-1.96042 1.805608,-34.72748 4.006984,-72.8157 2.201376,-38.08821 4.9671,-90.3322 6.146055,-116.097754 2.38802,-52.189286 9.426173,-182.305458 11.260654,-208.178416 l 1.185432,-16.71894 -10.215683,-5.17669 c -5.618625,-2.84717 -10.604261,-5.17667 -11.079187,-5.17667 -0.474926,0 -1.447163,9.85303 -2.160527,21.89563 -2.172348,36.672425 -11.040123,203.430416 -12.374653,232.70472 -0.689433,15.12325 -3.028569,58.59155 -5.19808,96.59625 -2.169522,38.00467 -3.723479,69.2714 -3.453239,69.48165 0.850424,0.66157 18.748459,6.72092 20.350177,6.88952 0.84018,0.0884 1.529612,-1.44317 1.532067,-3.4036 z m 6.971381,-0.2617 c 0.608211,-0.98414 2.025511,-20.91933 3.149557,-44.30046 1.985362,-41.29769 8.538851,-165.133351 16.100648,-304.240314 2.04003,-37.528086 2.94663,-69.088346 2.01471,-70.133906 -2.7269,-3.05935 -4.620981,0.49336 -1.96757,3.69053 1.72344,2.0766 1.76803,3.12103 0.15623,3.65829 -1.435128,0.47838 -2.944482,13.70368 -4.148637,36.351325 -1.04105,19.579654 -3.267977,59.429965 -4.948739,88.5562435 C 90.153842,27.610299 87.839617,72.063514 86.691875,97.268954 84.116644,153.8237 79.048278,247.31477 77.333805,269.88799 c -0.856313,11.2745 -0.566351,16.80362 0.881246,16.80362 1.186619,0 2.655134,-0.80519 3.263354,-1.7893 z m 50.563835,0.44036 c -1.40032,-0.56502 -3.69171,-0.56502 -5.09201,0 -1.4003,0.56503 -0.2546,1.02736 2.546,1.02736 2.8006,0 3.9463,-0.46233 2.54601,-1.02736 z m 12.25958,-2.02388 c -1.37899,-0.55791 -4.12867,-0.59188 -6.11041,-0.0756 -1.98174,0.51642 -0.85349,0.9729 2.50723,1.01441 3.36073,0.0416 4.98215,-0.381 3.60318,-0.93894 z m 10.14525,-2.04972 c -1.40031,-0.56503 -3.69171,-0.56503 -5.09201,0 -1.4003,0.56504 -0.25461,1.02734 2.54599,1.02734 2.80061,0 3.94631,-0.4623 2.54602,-1.02734 z m 12.2208,-2.0368 c -1.40029,-0.56503 -3.69169,-0.56503 -5.09199,0 -1.40031,0.56503 -0.2546,1.02734 2.546,1.02734 2.8006,0 3.94631,-0.46231 2.54599,-1.02734 z M 53.108196,226.38099 c 1.615261,-26.76209 4.348059,-77.53 6.072878,-112.81761 1.72482,-35.287617 5.463328,-105.7749613 8.307799,-156.638566 2.844462,-50.863604 4.698397,-93.712844 4.119844,-95.220524 -0.578553,-1.50769 -1.866799,-2.74125 -2.862751,-2.74125 -1.950775,0 -3.256289,18.01574 -6.494267,89.619311 -1.13982,25.205436 -3.869513,77.449426 -6.065988,116.097758 -2.196486,38.648341 -4.932647,90.892331 -6.080368,116.097751 -1.14772,25.20544 -2.669668,55.60866 -3.382104,67.56269 -1.179141,19.78511 -0.251776,30.39865 2.422442,27.72443 0.564112,-0.56413 2.347244,-22.92191 3.962515,-49.68399 z m 158.369344,46.74088 c -1.4003,-0.56503 -3.69171,-0.56503 -5.09201,0 -1.4003,0.56503 -0.2546,1.02734 2.54602,1.02734 2.8006,0 3.94629,-0.46231 2.54599,-1.02734 z m 12.22082,-2.03681 c -1.4003,-0.56503 -3.6917,-0.56503 -5.09201,0 -1.4003,0.56503 -0.2546,1.02734 2.546,1.02734 2.80061,0 3.94631,-0.46231 2.54601,-1.02734 z m 12.25957,-2.02389 c -1.37897,-0.55793 -4.12866,-0.59187 -6.1104,-0.0755 -1.98175,0.51641 -0.85348,0.9729 2.50724,1.01441 3.36073,0.0416 4.98215,-0.38101 3.60316,-0.93895 z m 43.71009,-6.00496 c -0.67685,-0.67681 -2.43358,-0.74916 -3.90389,-0.1607 -1.62482,0.65018 -1.1422,1.13282 1.23057,1.23054 2.14712,0.0884 3.35012,-0.39295 2.67332,-1.06976 z m 13.32039,-2.14225 c -1.37898,-0.55792 -4.12866,-0.59187 -6.1104,-0.0756 -1.98176,0.5164 -0.85349,0.97289 2.50724,1.0144 3.36072,0.0416 4.98214,-0.381 3.60316,-0.93894 z m 12.22082,-2.03681 c -1.37897,-0.55791 -4.12866,-0.59186 -6.11042,-0.0756 -1.98174,0.5164 -0.85347,0.9729 2.50725,1.0144 3.36073,0.0416 4.98215,-0.381 3.60317,-0.93894 z m 10.14525,-2.0497 c -1.40029,-0.56504 -3.69171,-0.56504 -5.092,0 -1.40031,0.56503 -0.2546,1.02733 2.54601,1.02733 2.8006,0 3.9463,-0.4623 2.54599,-1.02733 z m 11.15999,-1.91845 c -0.67683,-0.6768 -2.43357,-0.74916 -3.90387,-0.1607 -1.62483,0.65017 -1.14221,1.13282 1.23057,1.23055 2.14711,0.0884 3.35011,-0.39297 2.6733,-1.06977 z m 45.87049,-6.22877 c -1.4003,-0.56502 -3.69171,-0.56502 -5.09201,0 -1.4003,0.56503 -0.2546,1.02735 2.54601,1.02735 2.8006,0 3.9463,-0.46232 2.546,-1.02735 z m 12.25957,-2.02388 c -1.37896,-0.55793 -4.12865,-0.59189 -6.11041,-0.0756 -1.98173,0.51642 -0.85347,0.9729 2.50725,1.01442 3.36072,0.0416 4.98214,-0.381 3.60316,-0.93896 z m 10.14526,-2.04973 c -1.40031,-0.56503 -3.6917,-0.56503 -5.09201,0 -1.40029,0.56503 -0.25459,1.02734 2.54601,1.02734 2.8006,0 3.9463,-0.46231 2.546,-1.02734 z m -216.4103,-386.70535 c 19.60423,-2.84006 46.64279,-6.93398 60.08569,-9.09762 13.44289,-2.16364 43.23114,-6.76878 66.19608,-10.23365 22.96496,-3.46488 55.96116,-8.50836 73.32491,-11.20776 17.36375,-2.69938 39.81949,-5.98782 49.90166,-7.30762 17.43436,-2.28225 23.60669,-4.35993 20.92349,-7.04312 -0.66537,-0.66537 -16.64408,1.18629 -35.50825,4.11483 -41.08082,6.3775 -96.59354,14.88094 -153.45146,23.50571 -22.96496,3.48355 -58.71085,8.96407 -79.43531,12.17893 -20.72446,3.21486 -46.16281,6.96149 -56.52966,8.32585 -14.39709,1.89476 -18.3626,3.06647 -16.79018,4.96111 1.61511,1.9461 5.67582,1.88659 18.8488,-0.27622 9.2346,-1.51619 32.83001,-5.08039 52.43423,-7.92044 z m -80.810143,6.37278 c 0.511793,-2.46386 -18.862051,-9.70608 -21.539043,-8.0516 -1.254628,0.7754 2.173823,3.39695 7.79059,5.95704 10.263371,4.678 13.121376,5.11341 13.748453,2.09456 z m 46.693703,-8.40072 c 18.76405,-2.78163 49.01057,-7.32122 67.21449,-10.08799 92.60483,-14.07479 131.82465,-20.01249 162.43502,-24.59192 18.48398,-2.76528 39.10662,-5.95033 45.82806,-7.0779 6.72145,-1.12756 15.42878,-2.5855 19.34964,-3.23986 l 7.1288,-1.18976 -8.88842,-4.54563 -8.88845,-4.54565 -21.6636,3.56128 c -11.91499,1.95868 -43.66108,6.86501 -70.54688,10.90293 -26.8858,4.0379 -63.54824,9.59677 -81.47211,12.35302 -17.92386,2.75625 -54.12802,8.25167 -80.45371,12.21204 -26.32567,3.96038 -57.88077,8.70916 -70.12244,10.55285 l -22.257578,3.35215 10.036765,4.53169 c 5.520216,2.49243 11.869873,4.15786 14.110363,3.70096 2.24049,-0.4569 19.42601,-3.10659 38.19005,-5.88821 z"
       style="fill:#000000;stroke-width:2.03680277" />
  </g>
</svg>
