<?xml version="1.0" encoding="UTF-8" standalone="no"?>
<svg
   xmlns:dc="http://purl.org/dc/elements/1.1/"
   xmlns:cc="http://creativecommons.org/ns#"
   xmlns:rdf="http://www.w3.org/1999/02/22-rdf-syntax-ns#"
   xmlns:svg="http://www.w3.org/2000/svg"
   xmlns="http://www.w3.org/2000/svg"
   id="svg8"
   version="1.1"
   viewBox="0 0 500 500"
   height="500mm"
   width="500mm">
  <defs
     id="defs2" />
  <metadata
     id="metadata5">
    <rdf:RDF>
      <cc:Work
         rdf:about="">
        <dc:format>image/svg+xml</dc:format>
        <dc:type
           rdf:resource="http://purl.org/dc/dcmitype/StillImage" />
        <dc:title></dc:title>
      </cc:Work>
    </rdf:RDF>
  </metadata>
  <g
     transform="translate(0,203)"
     id="layer1">
    <path
       id="path81"
       d="m 253.47666,283.67064 c -17.74011,-1.71322 -35.22392,-4.35881 -42.2632,-6.39512 -5.52283,-1.59764 -10.44213,-5.43758 -15.37819,-12.00397 -4.11894,-5.47941 -5.56018,-8.04716 -8.65912,-15.42735 -1.39523,-3.32274 -1.93901,-7.33691 -3.03685,-22.41777 -0.57844,-7.94585 -1.47229,-19.82727 -1.98635,-26.40314 -3.10605,-39.73365 -3.72357,-48.29696 -5.85559,-81.20214 -1.11727,-17.24381 -2.29432,-32.986077 -4.02283,-53.802641 -2.78745,-33.569471 -4.22729,-52.818901 -5.96205,-79.707618 -1.72481,-26.734543 -3.58349,-51.741572 -5.9984,-80.703963 -0.57115,-6.849878 -1.46456,-18.058758 -1.98535,-24.908628 -0.52078,-6.84988 -1.2445,-15.97066 -1.60826,-20.26842 -0.64203,-7.58548 0.76195,-17.76912 2.76198,-20.03375 0.45977,-0.52059 0.83594,-1.54214 0.83594,-2.27012 0,-2.45346 6.87968,-15.84562 9.47147,-18.43741 5.28238,-5.28237 7.85187,-5.9697 34.36772,-9.1932 23.50132,-2.85702 53.55837,-1.26374 81.7003,4.33083 17.36648,3.45243 17.23757,3.4019 21.7286,8.51691 4.92749,5.61211 5.33952,7.97844 8.16517,46.89353 0.51726,7.12387 1.3933,18.55693 1.94675,25.40681 3.08312,38.159031 5.59545,71.997207 10.02351,135.004773 0.9607,13.670136 1.99329,27.149889 3.94968,51.56087 2.1348,26.636937 4.17126,54.771307 6.07603,83.942077 0.57251,8.76784 1.47666,21.77015 2.00919,28.89401 0.53255,7.12387 1.37803,19.902 1.87884,28.39584 0.50082,8.49385 1.21617,19.75878 1.58967,25.03321 1.2311,17.38533 -2.93132,28.27958 -12.03373,31.49575 -12.8656,4.54582 -50.43742,6.33492 -77.71493,3.70063 z m 21.43361,-6.44971 c 1.27572,-2.38372 1.94578,-104.94767 0.69386,-106.20736 -0.43366,-0.43635 -6.26228,-1.13068 -12.95249,-1.54295 -6.69021,-0.41227 -15.3025,-1.20104 -19.13843,-1.75281 -11.96428,-1.721 -11.10719,-2.23746 -11.8681,7.15141 -1.8813,23.21328 -3.82678,44.28755 -5.54169,60.0298 -0.53726,4.93191 -1.43358,14.1232 -1.99182,20.42508 -0.55824,6.30188 -1.28329,12.63839 -1.61122,14.08113 -0.32794,1.44274 -0.13588,2.90768 0.42678,3.25542 1.79261,1.1079 37.87977,5.96987 47.70141,6.42674 2.29372,0.1067 3.50928,-0.42319 4.2817,-1.86646 z m 41.83432,0.68061 11.45797,-1.18463 -0.31206,-16.92356 c -0.17162,-9.30796 -0.51611,-17.63887 -0.76551,-18.51313 -0.2494,-0.87427 -0.90852,-8.27213 -1.46471,-16.4397 -1.74659,-25.64872 -4.36249,-52.48093 -5.25759,-53.92926 -0.6515,-1.05413 -35.05141,-0.77692 -40.38007,0.32542 -2.13807,0.4423 -2.29597,0.86034 -1.7656,4.67454 0.91064,6.549 0.95225,31.99166 0.11316,69.20034 l -0.76956,34.12483 13.843,-0.0751 c 7.61365,-0.0413 18.99908,-0.60818 25.30097,-1.25972 z m 18.63237,-4.89231 c 1.12303,-1.23298 2.50941,-3.15228 3.08086,-4.26511 1.05514,-2.05475 2.85971,-15.66883 2.43918,-18.40175 -0.12648,-0.82198 -0.70131,-10.01327 -1.27738,-20.42507 -1.78354,-32.23492 -4.60205,-68.24299 -5.40449,-69.04543 -0.22642,-0.22642 -2.12023,1.35966 -4.20847,3.52464 -2.08823,2.16497 -4.48197,4.34215 -5.3194,4.83819 -1.63017,0.96559 -1.56092,3.07552 0.96148,29.29772 2.50944,26.08736 3.0469,33.3597 3.95685,53.54049 1.11593,24.74871 1.39079,25.74581 5.77137,20.93632 z M 220.53665,268.0275 c 0.37765,-1.78097 1.14216,-8.39421 1.69892,-14.69609 0.55676,-6.30188 1.40451,-15.26899 1.88389,-19.9269 1.01739,-9.88554 2.68505,-28.00108 3.94397,-42.84285 0.48806,-5.75389 1.19226,-13.63513 1.56487,-17.51387 l 0.6775,-7.05225 -3.15144,-1.30537 c -4.97667,-2.06141 -7.92265,-4.84145 -10.02816,-9.46333 -3.6321,-7.97298 -4.72342,-6.70565 -5.39269,6.26246 -0.3303,6.39998 -1.02719,16.11987 -1.54864,21.59977 -4.41475,46.3935 -4.94137,54.55801 -3.972,61.57992 0.77468,5.61164 1.31054,7.99959 3.50889,15.63684 0.83089,2.88659 4.13772,7.92468 6.35537,9.68268 2.51624,1.99468 3.7343,1.45906 4.45952,-1.96101 z m -29.1489,-15.90831 c -0.71494,-0.71494 -1.17901,-0.77377 -1.17901,-0.14946 0,1.32991 1.17829,2.50819 1.84324,1.84324 0.28313,-0.28312 -0.0157,-1.04532 -0.66423,-1.69378 z m 0.4468,-13.48387 c -0.35626,-4.79491 -1.09913,-14.77082 -1.6508,-22.16868 -0.55166,-7.39787 -1.45203,-20.62435 -2.00082,-29.39219 -1.11685,-17.84366 -2.38786,-35.52649 -3.93885,-54.79898 -0.5733,-7.12387 -1.45686,-18.33276 -1.96347,-24.90863 -0.5066,-6.57588 -1.16123,-14.646277 -1.45473,-17.934217 -0.2935,-3.28794 -1.02817,-12.479226 -1.6326,-20.425079 -1.12827,-14.832203 -2.25385,-19.926904 -4.40251,-19.926904 -1.25644,0 -1.25668,0.381899 -0.0105,16.937869 1.22674,16.297004 2.55086,35.070511 3.44342,48.820911 1.97398,30.41057 3.72413,54.21308 6.00726,81.70031 0.56895,6.84988 1.44655,18.28294 1.95023,25.40681 1.06251,15.02825 1.77431,20.05694 3.27897,23.16502 2.20386,4.55239 3.02698,2.30727 2.37435,-6.47624 z m 14.50285,-36.89843 c 0.43122,-5.32439 1.18761,-13.71591 1.68086,-18.64782 2.0292,-20.2893 3.57498,-41.24306 3.49131,-47.3264 -0.1124,-8.1718 -2.52056,-43.794177 -5.33791,-78.960355 -0.97385,-12.155541 -1.64388,-20.695096 -3.96741,-50.5645197 -1.23889,-15.9261299 -2.68355,-36.4727613 -4.06313,-57.7880223 -1.13117,-17.476723 -2.42454,-34.797238 -3.90602,-52.308123 -0.55635,-6.57588 -1.29936,-16.88805 -1.65116,-22.91594 -0.69851,-11.9687 -1.73787,-14.72351 -10.3268,-27.37127 -2.20249,-3.24333 -4.00454,-6.36991 -4.00454,-6.94797 0,-0.57806 -0.51472,-1.05102 -1.14382,-1.05102 -0.82691,0 -0.95748,2.55353 -0.47126,9.2162 0.36993,5.0689 1.12424,16.1657 1.67627,24.65954 1.34749,20.73375 2.7349,40.707617 3.87561,55.795333 0.88648,11.72521 1.53492,19.755822 4.02255,49.817261 1.08538,13.1161284 2.40029,31.4430703 4.03891,56.293505 2.09986,31.845335 3.16077,46.165632 5.90515,79.707621 3.02524,36.97473 4.94318,64.04691 5.85868,82.69665 0.63576,12.95123 1.46403,17.45067 2.94054,15.97415 0.32897,-0.32896 0.95094,-4.95443 1.38217,-10.27882 z m 106.4218,-34.6316 c 10.05607,-0.65632 13.22563,-1.45575 15.42279,-3.88992 3.30821,-3.66506 3.7432,-6.09329 3.62757,-20.24958 -0.0646,-7.9001 -0.32932,-14.70683 -0.58843,-15.12608 -0.25911,-0.41926 -0.93084,-7.21476 -1.49274,-15.10113 -0.5619,-7.88637 -1.48119,-20.167467 -2.04286,-27.291337 -1.41511,-17.948365 -2.6373,-35.046645 -4.38,-61.275234 -1.5431,-23.2246977 -2.93246,-42.06438 -4.55556,-61.773403 -0.51898,-6.301884 -1.40183,-17.28659 -1.96189,-24.410458 -0.56007,-7.123869 -1.45963,-18.55693 -1.99902,-25.406803 -0.53938,-6.849874 -1.5031,-20.524715 -2.14159,-30.388525 -0.63847,-9.86382 -1.74646,-19.38681 -2.46217,-21.16219 -1.77931,-4.41367 -5.50972,-5.81733 -20.34204,-7.65419 -24.05871,-2.97947 -40.8281,-3.83142 -61.27523,-3.11303 -34.43315,1.20978 -33.92119,0.92286 -32.95528,18.46909 0.34721,6.30719 1.05061,16.17536 1.56312,21.92925 1.15745,12.994812 2.63318,32.61268 3.97226,52.806296 2.06252,31.10281 3.08234,45.584777 3.99924,56.7916783 0.5156,6.301883 1.39482,17.2865897 1.95382,24.4104577 0.55901,7.123868 1.46324,18.55693 2.00942,25.406803 1.91994,24.079004 2.95488,38.524518 3.9974,55.795335 2.43949,40.4134 4.01044,48.28639 10.76989,53.97409 3.03372,2.55271 11.8586,4.81028 18.80349,4.81028 1.64469,0 5.41899,0.46381 8.38733,1.03069 5.06362,0.96705 46.47809,2.93483 49.73434,2.36311 0.82199,-0.14432 6.20225,-0.56966 11.95614,-0.9452 z M 287.3524,62.987058 c -9.31583,-0.368498 -26.95095,-1.030559 -39.18916,-1.471253 l -22.25128,-0.801271 -1.65171,-2.520843 c -2.41607,-3.687384 -3.03954,-23.091306 -0.80162,-24.948603 1.29151,-1.071869 8.84418,-1.095542 42.19869,-0.132245 26.72223,0.771749 41.46484,1.573727 43.07779,2.343384 1.93257,0.922167 2.71503,2.436761 3.69282,7.148169 0.68237,3.287939 1.26024,8.556114 1.28415,11.707056 0.0508,6.691714 -2.15294,9.834754 -6.68186,9.529982 -1.50697,-0.101418 -10.36199,-0.485877 -19.67782,-0.854376 z m 22.41777,-12.719642 c 0,-4.683111 -0.49578,-8.434869 -1.24543,-9.424568 -1.03748,-1.369686 -4.20496,-1.759417 -18.96995,-2.334039 L 271.83028,37.819 l 0.28847,9.367109 0.28847,9.36712 7.97076,0.564549 c 4.38392,0.310501 12.79059,0.646768 18.68148,0.747259 l 10.71071,0.18271 z m -42.41235,5.004543 c 0.71083,-2.239655 -0.98627,-16.134107 -2.09604,-17.160502 -0.45392,-0.41983 -8.82077,-0.969305 -18.59299,-1.221051 l -17.76769,-0.457731 -0.89649,2.35796 c -0.97599,2.567044 -0.17535,13.267294 1.1543,15.426663 0.79821,1.296314 10.4048,2.131411 30.47777,2.649421 6.09262,0.157233 7.24031,-0.07981 7.72114,-1.59476 z m 0.56585,-33.137655 c -5.75389,-0.388933 -17.7224,-0.762095 -26.59668,-0.829238 -15.27045,-0.115546 -16.26366,-0.242222 -18.53536,-2.363869 -4.11686,-3.844946 -5.66237,-19.7504917 -2.51713,-25.9049757 0.75035,-1.4682739 2.34083,-1.7458259 10.07219,-1.7576819 13.1531,-0.02013 63.9725,2.0167209 70.40389,2.8218479 7.63647,0.955983 9.1835,3.750493 9.35071,16.8908807 0.0679,5.331444 -0.22954,10.253977 -0.66086,10.938965 -0.86867,1.379559 -22.55004,1.486128 -41.51676,0.204071 z M 306.24675,9.4895273 c -0.0199,-4.513434 -0.47622,-8.646254 -1.01401,-9.184041 -1.09511,-1.095113 -33.40747,-3.598182 -35.59802,-2.757585 -1.00865,0.38705 -1.30283,1.887785 -1.05088,5.360975 0.81254,11.2012017 1.3556,13.2619627 3.63477,13.7929947 1.89494,0.441521 24.53001,1.190942 31.57349,1.045376 2.45415,-0.05071 2.49032,-0.172438 2.45465,-8.2577197 z m -42.43025,-2.75356 -0.22624,-9.465279 -6.05315,-0.0812 c -3.32923,-0.04465 -11.65758,-0.42797 -18.50745,-0.851825 -15.16614,-0.938448 -15.42907,-0.778764 -14.48899,8.79983 1.01127,10.3041027 0.47605,9.9642897 16.25267,10.3190577 7.52382,0.16918 15.83286,0.405951 18.46454,0.52615 l 4.78486,0.218549 z m 31.83972,-23.9113383 c -0.27348,-0.273477 -16.82526,-1.001496 -36.78175,-1.617825 -19.95647,-0.61633 -37.26634,-1.492107 -38.46635,-1.946191 -2.98841,-1.130792 -4.2821,-6.431897 -4.28884,-17.574215 -0.005,-7.884448 0.25225,-9.319116 1.81987,-10.158078 1.20478,-0.644775 14.50127,-0.493789 39.10655,0.444071 20.50462,0.781553 38.87675,1.429586 40.82698,1.440058 5.31119,0.02849 6.8229,1.72812 8.44872,9.498697 2.1946,10.489074 1.53795,17.47725 -1.84437,19.627921 -1.32255,0.840945 -8.0477,1.058656 -8.82081,0.285562 z m 7.95821,-11.458916 c 0.42697,-7.300212 -1.18662,-12.579287 -4.06505,-13.299326 -1.22844,-0.307293 -9.18303,-0.625745 -17.67688,-0.707674 l -15.44335,-0.148954 -0.31724,5.334373 c -0.17449,2.933908 -0.0374,7.223951 0.30482,9.533429 l 0.62208,4.199067 9.65862,0.342604 c 5.31224,0.188439 13.46965,0.316459 18.12756,0.284496 l 8.46893,-0.05809 0.32051,-5.479898 z m -42.30847,1.96533 c -0.35669,-6.211594 -1.70536,-16.012632 -2.24738,-16.33211 -0.33011,-0.194567 -8.82928,-0.681969 -18.88706,-1.083117 l -18.28687,-0.729365 0.35266,9.004181 c 0.19395,4.952304 0.72502,9.377253 1.18014,9.83324 0.66759,0.668857 30.89639,2.210043 36.53546,1.862717 0.94253,-0.05809 1.44227,-1.001915 1.35305,-2.555546 z m 14.58847,-31.518454 c -33.77842,-1.011141 -58.39549,-2.623756 -59.85726,-3.921127 -1.81464,-1.610572 -3.90883,-11.813236 -3.90883,-19.043415 0,-7.604535 1.56599,-8.532391 14.16364,-8.391996 22.90422,0.255263 71.16674,2.329544 73.20533,3.146298 1.35039,0.541036 2.5819,2.316035 3.23256,4.65914 1.46622,5.279962 1.37215,21.509061 -0.13339,23.014598 -1.16544,1.165445 -3.87362,1.219855 -26.70205,0.536502 z M 300.78838,-70.2317 c -0.008,-3.698932 -0.58058,-7.846219 -1.27223,-9.216194 -1.24379,-2.463652 -1.44678,-2.499411 -18.58179,-3.273303 -9.52833,-0.430331 -17.68486,-0.421822 -18.12561,0.01893 -0.44074,0.440743 -0.27005,4.697678 0.37932,9.45984 l 1.18068,8.658489 6.5101,0.343639 c 3.58056,0.189007 11.77827,0.431467 18.21716,0.538794 l 11.70705,0.195134 -0.0146,-6.72533 z m -43.32634,-3.529523 c 0,-4.719339 -0.44835,-9.021617 -0.99634,-9.56062 -1.15412,-1.135186 -35.45214,-1.790552 -37.19921,-0.710803 -0.63805,0.394334 -1.16008,2.285397 -1.16008,4.202355 0,3.348696 1.82485,12.302871 2.71764,13.334885 0.38014,0.439418 33.09125,1.76121 35.64165,1.440207 0.57739,-0.07263 0.99634,-3.733435 0.99634,-8.706024 z m -7.19916,-26.465107 c -3.44543,-0.45907 -5.68968,-1.35455 -6.63507,-2.64745 -2.1608,-2.95507 -3.60181,-11.72464 -3.60181,-21.91957 0,-12.44656 0.4102,-12.80092 14.2262,-12.28949 13.86357,0.51319 14.80508,1.16845 16.41929,11.42719 1.63853,10.41331 1.55295,21.29783 -0.18546,23.59022 -1.57635,2.07869 -11.59026,2.98936 -20.22315,1.8391 z m 17.64864,-5.61008 c 1.55054,-1.86828 0.39451,-22.52498 -1.39776,-24.97605 -0.88968,-1.2167 -3.42186,-1.77721 -9.83687,-2.17743 -11.99793,-0.74852 -12.07066,-0.66625 -11.16432,12.63086 0.90238,13.23913 1.46677,14.7593 5.67223,15.27802 8.31934,1.02615 15.51798,0.70105 16.72672,-0.7554 z m -17.66151,-5.24544 c -0.37029,-0.95899 -0.69249,-5.10627 -0.71599,-9.2162 l -0.0427,-7.47259 5.20096,-0.30012 c 5.26302,-0.3037 9.24605,0.96626 9.24605,2.94804 0,0.73665 -0.45346,0.70695 -1.41711,-0.0928 -2.01856,-1.67526 -10.59666,-0.93972 -11.82067,1.01357 -1.30677,2.08536 -0.0165,10.43414 1.91024,12.36094 2.17299,2.17299 9.93932,2.00922 11.24773,-0.23718 0.90696,-1.55716 1.01879,-1.50389 1.04586,0.49817 0.0286,2.11513 -0.36549,2.24178 -6.97539,2.24178 -5.75138,0 -7.12623,-0.31218 -7.67894,-1.74361 z m 13.76694,-10.79374 c 0.0478,-1.16069 0.2839,-1.39678 0.60195,-0.60196 0.28782,0.71923 0.25243,1.57858 -0.0786,1.90966 -0.33108,0.33108 -0.56656,-0.25739 -0.5233,-1.3077 z m -67.83014,266.60537 c 0,-1.64397 -0.44835,-2.98903 -0.99634,-2.98903 -1.10823,0 -1.37515,4.27081 -0.33211,5.31383 1.12564,1.12564 1.32845,0.77072 1.32845,-2.3248 z M 180.52107,37.871756 c -0.16106,-5.616896 -0.7246,-13.126848 -1.25232,-16.688782 -0.52771,-3.561935 -1.19984,-12.5290417 -1.4936,-19.9269047 -0.50904,-12.8191073 -1.34304,-25.0658543 -3.59608,-52.8062963 -3.8282,-47.134513 -6.23323,-78.814253 -7.46943,-98.389093 -0.35472,-5.61689 -0.99248,-10.21254 -1.41723,-10.21254 -0.78611,0 -2.98022,4.98255 -5.64513,12.81941 -0.83824,2.46506 -1.19343,5.48765 -0.81959,6.97442 0.36289,1.44317 1.08238,8.45256 1.59889,15.57643 0.51649,7.12387 1.38393,18.55693 1.92764,25.4068 2.69821,33.993428 3.75488,48.632011 5.89748,81.70031 0.58584,9.0418334 1.50037,22.0441383 2.03229,28.894011 0.53192,6.849874 1.246,16.265336 1.58685,20.92325 0.58524,7.997583 0.81906,8.676882 4.20113,12.205229 1.96976,2.054962 3.8425,3.736295 4.16165,3.736295 0.31915,0 0.4485,-4.595643 0.28745,-10.212539 z m 5.3964,-31.3659137 c -0.25261,-0.969414 -0.47591,-0.417499 -0.49622,1.226471 -0.0203,1.643969 0.18638,2.4371197 0.45931,1.762564 0.27292,-0.674555 0.28953,-2.019621 0.037,-2.989035 z m -1.6868,-21.6894693 c 0,-1.369975 -0.44835,-2.490863 -0.99634,-2.490863 -0.54799,0 -0.99635,1.120888 -0.99635,2.490863 0,1.369975 0.44836,2.490863 0.99635,2.490863 0.54799,0 0.99634,-1.120888 0.99634,-2.490863 z M 311.72064,-151.43384 c -0.0498,-9.69248 -1.58537,-16.80752 -4.71059,-21.82596 -4.56118,-7.32432 -6.26912,-5.39887 -4.26848,4.81208 0.51818,2.64476 1.42545,8.38963 2.01615,12.76639 0.80494,5.96426 1.62969,8.50749 3.2923,10.15231 1.22007,1.20703 2.55459,2.22169 2.96558,2.25481 0.41099,0.0331 0.72826,-3.63871 0.70504,-8.15963 z m -116.82669,4.03902 c 1.80706,-1.75147 3.28555,-3.87718 3.28555,-4.72381 0,-0.84663 -1.62463,-4.90597 -3.61028,-9.02075 -1.98566,-4.11477 -5.17757,-10.73199 -7.09313,-14.70491 -1.91557,-3.97293 -4.01742,-7.22351 -4.67078,-7.22351 -2.25264,0 -5.47749,4.00483 -6.60922,8.20775 -1.32325,4.91422 -0.90285,5.93288 8.27388,20.04805 3.15633,4.85488 5.73877,9.22634 5.73877,9.71436 0,1.59859 1.34739,0.93796 4.68521,-2.29718 z m 108.38982,-3.61725 c -0.36458,-0.91696 -1.06199,-5.25404 -1.54979,-9.63796 -1.23733,-11.11988 -2.45337,-17.36434 -3.60598,-18.51694 -1.69593,-1.69594 -30.96179,-6.57179 -45.39859,-7.56365 -7.68389,-0.52791 -8.71803,-0.40368 -8.71803,1.04728 0,0.90543 0.40678,2.42478 0.90395,3.37632 0.49716,0.95155 2.85103,7.83606 5.23081,15.29891 l 4.32687,13.56882 9.15799,1.12727 c 5.03689,0.62 10.83852,1.12727 12.8925,1.12727 3.36305,0 7.10542,0.54654 19.79601,2.89104 4.79274,0.88542 7.91289,-0.33247 6.96426,-2.71836 z m -129.01655,-1.36829 c 0,-2.05356 -0.34299,-2.84532 -0.96372,-2.2246 -0.53003,0.53004 -0.70192,1.96478 -0.38196,3.18831 0.82064,3.13814 1.34568,2.76214 1.34568,-0.96371 z m 59.53163,-0.38363 c 10.00081,-0.34757 18.1833,-1.03721 18.1833,-1.53256 0,-0.49534 -0.40204,-1.67916 -0.89342,-2.6307 -0.49136,-0.95155 -2.33112,-6.43782 -4.08831,-12.19171 -1.75719,-5.7539 -3.59695,-11.24017 -4.08831,-12.19171 -0.49138,-0.95155 -0.89342,-2.38224 -0.89342,-3.17932 0,-0.79708 -0.52458,-1.77345 -1.16575,-2.16972 -1.74822,-1.08046 -32.18597,-0.582 -40.18257,0.65804 -3.83593,0.59484 -8.43157,1.29445 -10.21254,1.55468 -1.78097,0.26023 -3.23812,0.92578 -3.23812,1.479 0,1.18099 2.51001,6.92479 8.44663,19.32893 2.36042,4.9319 4.56408,9.78851 4.89704,10.79246 0.53657,1.61794 1.42617,1.76225 7.82876,1.26995 3.97288,-0.30548 15.40589,-0.83978 25.40671,-1.18734 z"
       style="fill:#000000;stroke-width:0.99634522" />
  </g>
</svg>
