<?xml version="1.0" encoding="UTF-8" standalone="no"?>
<svg
   xmlns:dc="http://purl.org/dc/elements/1.1/"
   xmlns:cc="http://creativecommons.org/ns#"
   xmlns:rdf="http://www.w3.org/1999/02/22-rdf-syntax-ns#"
   xmlns:svg="http://www.w3.org/2000/svg"
   xmlns="http://www.w3.org/2000/svg"
   id="svg8"
   version="1.1"
   viewBox="0 0 500 500"
   height="500mm"
   width="500mm">
  <defs
     id="defs2" />
  <metadata
     id="metadata5">
    <rdf:RDF>
      <cc:Work
         rdf:about="">
        <dc:format>image/svg+xml</dc:format>
        <dc:type
           rdf:resource="http://purl.org/dc/dcmitype/StillImage" />
        <dc:title></dc:title>
      </cc:Work>
    </rdf:RDF>
  </metadata>
  <g
     transform="translate(0,203)"
     id="layer1">
    <path
       id="path75"
       d="m 251.24236,289.43928 c -39.14123,-4.46973 -71.50728,-8.46817 -71.92454,-8.88543 -0.41727,-0.41726 -1.77849,-50.13151 -3.02494,-110.4761 -1.79798,-87.045588 -1.73736,-110.044325 0.2933,-111.299336 1.95796,-1.210093 2.26224,-10.019181 1.29454,-37.47793 -0.69578,-19.7427886 -1.67168,-36.302639 -2.16869,-36.799642 -0.497,-0.497 -1.05108,15.74005635 -1.23128,36.082328 -0.30596,34.539309 -0.42759,33.230625 -1.83868,-19.78318835 C 171.811,-30.423059 170.57257,-76.528751 169.89001,-101.65711 l -1.24102,-45.68793 6.04528,-2.50404 c 4.21043,-1.74402 11.50725,-2.04906 24.04074,-1.00503 l 17.99543,1.49901 -1.33367,-9.7301 c -2.98727,-21.79454 -15.17376,-34.20019 -35.03571,-35.66579 -14.10712,-1.04094 -22.80387,4.25545 -28.82929,17.55728 -5.17084,11.41526 -5.07719,-9.13599 -1.14495,251.277524 3.38241,224.000796 3.41222,206.433326 -0.35042,206.433326 -4.53943,0 -5.5006,-24.01283 -8.09765,-202.304659 -3.03797,-208.560101 -3.09178,-242.027911 -0.40499,-251.848661 3.5529,-12.98655 9.41573,-20.74989 19.27435,-25.52237 28.15974,-13.6319 59.47311,6.28402 62.95724,40.04203 l 1.1246,10.89633 8.50464,1.15213 c 4.67756,0.63368 26.61917,3.07059 48.75915,5.41536 52.0756,5.51517 53.67267,5.79477 53.67267,9.39673 0,3.80827 1.04034,3.76907 7.20703,-0.27148 4.85682,-3.18232 9.30764,-2.56546 9.30764,1.28998 0,1.04529 -3.7158,3.7962 -8.25733,6.11312 -6.60836,3.37133 -8.25102,5.33787 -8.22573,9.84754 0.0454,8.07749 3.18068,12.53789 6.4883,9.23029 3.34504,-3.34506 9.99476,-3.30255 9.99476,0.0639 0,1.44488 -3.25133,4.37802 -7.22517,6.518071 -6.5948,3.551537 -7.22517,4.693825 -7.22517,13.092854 v 9.201848 l 5.08822,-3.333919 c 6.27291,-4.110168 9.36212,-4.244065 9.36212,-0.405773 0,1.610473 -3.25133,4.937563 -7.22517,7.393532 -6.32122,3.906725 -7.22517,5.505054 -7.22517,12.775225 0,7.121553 0.51659,8.090746 3.61259,6.777741 11.22806,-4.761787 14.52707,0.463753 3.94653,6.251199 -6.8541,3.749135 -7.54846,4.935171 -7.55355,12.902083 -0.006,9.865065 0.24507,10.056976 7.20146,5.49898 4.85682,-3.182309 9.30764,-2.565453 9.30764,1.289979 0,1.045302 -3.80691,3.842695 -8.45982,6.216428 -8.14467,4.155094 -8.40698,4.598866 -7.04107,11.9118715 1.71457,9.17972725 2.46417,10.10461045 5.6265,6.9422851 3.2479,-3.2479085 9.87439,-3.1242489 9.87439,0.1842623 0,1.4448848 -3.25132,4.3780258 -7.22517,6.5180788 -6.5948,3.5515203 -7.22516,4.6938191 -7.22516,13.0928483 v 9.201848 l 5.08821,-3.333919 c 6.38211,-4.18172 9.36212,-4.235144 9.36212,-0.16783 0,1.741348 -3.25132,5.084432 -7.22517,7.42906 -6.29417,3.713654 -7.22516,5.300672 -7.22516,12.316391 0,9.042358 -0.11044,8.955801 7.18403,5.632224 3.82855,-1.744403 5.94166,-1.793513 7.55952,-0.175675 1.61786,1.61786 -0.12902,3.744514 -6.249,7.607936 -7.63309,4.818567 -8.49455,6.197148 -8.49455,13.5938 0,9.29404 0.2868,9.491308 7.20702,4.957 4.89456,-3.207024 9.30765,-2.55967 9.30765,1.36535 0,1.086727 -3.25133,3.526336 -7.22517,5.421332 -6.60866,3.151453 -7.22516,4.20548 -7.22516,12.352598 0,8.394921 2.30924,11.456791 5.16082,6.842834 1.8474,-2.989136 9.28951,-2.538306 9.28951,0.562737 0,1.44486 -3.25133,4.37802 -7.22517,6.51807 -6.59481,3.55151 -7.22516,4.69381 -7.22516,13.09284 v 9.20184 l 5.3276,-3.49078 c 6.59823,-4.32334 13.07498,-2.77839 8.98949,2.14432 -1.46441,1.76451 -5.28484,4.56422 -8.48984,6.22159 -4.94935,2.55943 -5.82725,4.28267 -5.82725,11.43858 0,7.22624 0.51408,8.20909 3.61257,6.90668 13.43204,-5.64593 17.64341,-1.58143 5.67692,5.47896 -6.53933,3.85831 -7.22516,5.13651 -7.22516,13.46561 0,9.09748 0.0524,9.16593 4.588,5.98909 2.52338,-1.76744 5.7747,-3.21355 7.22517,-3.21355 5.18531,0 2.50935,5.8606 -4.58801,10.04815 -6.35866,3.75169 -7.22516,5.26159 -7.22516,12.58989 0,7.8971 2.37184,10.7753 5.16083,6.26262 1.84739,-2.98912 9.2895,-2.5383 9.2895,0.56274 0,1.44487 -3.25133,4.37802 -7.22517,6.51807 -6.5948,3.55152 -7.22516,4.69382 -7.22516,13.09285 v 9.20185 l 5.32761,-3.49078 c 6.59823,-4.32334 13.07497,-2.77839 8.98949,2.14431 -1.46442,1.76452 -5.28483,4.56423 -8.48984,6.2216 -4.94936,2.55942 -5.82726,4.28267 -5.82726,11.43857 0,7.22624 0.51408,8.20909 3.61259,6.90669 13.43204,-5.64593 17.64339,-1.58142 5.6769,5.47897 -7.05018,4.15971 -7.22516,4.58013 -7.22516,17.36015 0,11.19412 -0.66665,13.56416 -4.588,16.31077 -5.96024,4.17472 -6.8321,4.12249 -90.31772,-5.41115 z m 82.47781,-3.24522 c -0.0231,-5.39308 -1.39,-66.93601 -3.03766,-136.76208 -1.64767,-69.826075 -3.52911,-157.1473736 -4.18094,-194.04733 -0.65183,-36.899958 -1.63054,-70.81444 -2.17486,-75.36551 l -0.9897,-8.27469 -48.63962,-5.21279 -48.63962,-5.21279 0.69557,20.36581 c 0.59302,17.36321 1.29195,20.801478 4.74075,23.320877 5.13681,3.752512 8.1614,2.763349 9.00107,-2.943711 0.96476,-6.557296 6.98072,-9.118416 12.43876,-5.295466 8.35502,5.852088 4.05842,21.191376 -5.25859,18.7737 -2.91466,-0.756325 -2.71429,-1.014592 0.933,-1.202632 2.55461,-0.131705 4.64474,-1.515408 4.64474,-3.074892 0,-2.301154 -1.29685,-2.203909 -6.88246,0.516082 -4.97948,2.42482 -6.61141,4.403371 -5.90214,7.155705 0.79001,3.065609 2.22644,3.543898 7.39856,2.463505 3.53001,-0.737378 9.84929,-1.84512 14.04284,-2.46165 5.79075,-0.851347 7.77681,-2.188647 8.25733,-5.560004 0.49864,-3.498406 2.27309,-4.574808 8.37396,-5.079741 l 7.74125,-0.640699 v 9.190325 c 0,8.08138 0.62273,9.346619 5.16084,10.48561 4.64078,1.164761 5.16082,2.33143 5.16082,11.577624 0,7.883755 -0.74182,10.282336 -3.18008,10.282336 -1.74905,0 -5.78796,1.928079 -8.97535,4.284621 -5.12497,3.789054 -7.50296,4.116351 -20.55975,2.829767 -13.32082,-1.312599 -14.74107,-1.882936 -14.52502,-5.83287 0.19079,-3.487972 0.43139,-3.643584 1.18353,-0.765434 0.51924,1.986921 2.87783,3.612583 5.24131,3.612583 4.03236,0 4.08665,-0.232717 0.88081,-3.77513 -4.31534,-4.768398 -4.40042,-13.524986 -0.17249,-17.752916 4.65722,-4.657219 8.54273,-4.013354 12.53319,2.07686 3.82454,5.836977 2.12208,15.214643 -3.07552,16.940932 -2.25827,0.75004 -2.31534,0.05376 -0.3037,-3.705022 1.85156,-3.459699 1.89645,-5.90316 0.17773,-9.675338 -3.28983,-7.220406 -9.30731,-5.461761 -10.12253,2.958373 -0.54484,5.627487 0.40356,7.283403 6.193,10.813129 12.03466,7.337315 14.06155,6.040891 14.06155,-8.993956 0,-14.823868 -0.93933,-15.640062 -18.06293,-15.695076 l -8.77341,-0.02819 -0.0567,8.773416 c -0.0531,8.228884 -0.5977,9.043666 -8.77342,13.127662 -7.46397,3.728463 -10.61055,4.126993 -21.89405,2.772995 -7.24752,-0.869691 -13.98973,-2.829103 -14.98268,-4.354248 -0.99295,-1.525146 -1.56582,-8.811167 -1.27302,-16.19116 0.48086,-12.120461 0.93164,-13.354491 4.66102,-12.759784 2.27076,0.362111 9.23789,1.151427 15.4825,1.754036 l 11.35384,1.095651 -0.68549,14.244768 c -0.54198,11.262535 -0.10583,14.02233 2.0833,13.182284 3.50028,-1.343184 3.79947,-25.671354 0.36063,-29.324123 -1.30362,-1.384718 -7.86134,-2.734525 -14.57273,-2.999572 l -12.2025,-0.481901 -0.45836,-6.806012 c -0.45091,-6.695368 0.64431,-7.662322 7.92831,-6.999809 2.60445,0.236891 2.9824,-2.923685 2.37852,-19.889525 -0.3949,-11.09415 -0.94778,-20.41441 -1.22862,-20.71168 -1.32757,-1.40522 -44.53466,-5.27468 -45.71526,-4.09408 -0.74105,0.74105 -0.56146,5.80279 0.39909,11.2483 l 1.74646,9.90095 0.68526,-8.77342 c 0.67827,-8.68379 0.76313,-8.77004 8.30782,-8.44304 7.6196,0.33024 7.61996,0.33068 0.91347,1.16296 -3.68999,0.45792 -6.70907,1.57386 -6.70907,2.47986 0,0.90601 2.21347,1.22415 4.91884,0.70698 2.70539,-0.51717 5.49352,-0.0106 6.19586,1.12591 0.74805,1.21039 -0.33779,1.64394 -2.62155,1.04673 -2.14419,-0.56072 -4.61138,0.13391 -5.48263,1.54363 -1.0418,1.68566 -0.73725,2.03975 0.88961,1.0343 1.36055,-0.84087 3.73611,-0.48115 5.27904,0.79937 2.21122,1.83514 3.25051,1.10771 4.90743,-3.43487 1.85321,-5.08069 2.12583,-4.2965 2.30239,6.62292 0.11015,6.8123 1.53993,71.374326 3.1773,143.471166 6.48464,285.533154 6.27045,260.956294 2.26078,259.417644 -1.97217,-0.75678 -6.23202,-1.37598 -9.46634,-1.37598 -4.45709,0 -6.09715,-1.12434 -6.77521,-4.64475 -0.66232,-3.43872 -0.96761,-2.94129 -1.17573,1.91579 -0.27528,6.42395 -0.0555,6.58703 10.55662,7.83246 35.10079,4.11947 133.36705,15.05459 137.27818,15.2764 4.20725,0.23862 4.64081,-0.66017 4.60284,-9.54215 z m -21.61006,-1.03217 c -0.59801,-2.55461 -1.48655,-27.40402 -1.9745,-55.22092 -1.91015,-108.89153 -6.90897,-329.114676 -7.59101,-334.42199 -0.21886,-1.70307 -0.25159,-7.09794 -0.0727,-11.9886 l 0.32519,-8.89212 8.77343,0.63477 8.77341,0.63478 1.36913,31.997174 c 0.75301,17.598441 2.49476,84.018365 3.87054,147.59983 1.37578,63.581466 3.08205,142.311046 3.79171,174.954646 l 1.29029,59.35199 -8.7341,-0.002 c -7.35818,-0.002 -8.90536,-0.73407 -9.82137,-4.64715 z m 10.87097,-0.63313 c 2.60785,-1.82661 4.46666,-5.16769 4.30688,-7.74124 l -0.28113,-4.52771 -0.87798,4.51781 c -0.51358,2.6427 -2.68598,4.7847 -5.2341,5.16084 -2.39585,0.35365 -4.73853,1.80421 -5.20593,3.22343 -1.15204,3.49823 1.75419,3.24588 7.29226,-0.63313 z m 0.16081,-14.51781 c 3.16821,1.95806 5.1982,-3.68796 3.60633,-10.03039 -1.15707,-4.61016 -1.79884,-4.8592 -7.44779,-2.88995 -7.89333,2.75164 -9.02684,10.80113 -1.24599,8.84825 2.71458,-0.68131 5.45525,-0.39798 6.09035,0.62964 0.63511,1.02763 -0.86022,1.79961 -3.32295,1.71553 -2.91644,-0.0994 -4.74476,1.28666 -5.24367,3.97578 -0.74733,4.02823 -0.69375,4.03311 2.20283,0.20066 1.64348,-2.17443 4.03668,-3.26797 5.36089,-2.44957 z m -4.34622,-10.47214 c 1.41922,-0.57267 3.7416,-0.57267 5.16082,0 1.41924,0.57266 0.25805,1.04122 -2.58041,1.04122 -2.83846,0 -3.99965,-0.46856 -2.58041,-1.04122 z m 3.48238,-14.45095 c 4.52696,1.73718 6.11278,-2.98963 4.22121,-12.58201 -0.83793,-4.24914 -1.94636,-6.56451 -2.46321,-5.14529 -0.51682,1.41922 -2.31052,2.58041 -3.986,2.58041 -1.67547,0 -2.43304,0.99229 -1.6835,2.20507 0.74956,1.21279 2.89451,1.62223 4.76659,0.90987 2.76323,-1.05146 2.90848,-0.79632 0.77183,1.35581 -2.09974,2.11497 -3.45638,2.13618 -6.70909,0.10487 -3.48077,-2.17378 -4.07301,-2.01524 -4.04895,1.08386 0.0547,7.04695 2.52851,13.39874 4.17853,10.72893 0.86329,-1.3968 3.09194,-1.95547 4.95259,-1.24148 z m 0.186,-2.67073 c -0.67106,-1.0858 -2.81602,-1.41356 -4.7666,-0.72834 -2.64319,0.92854 -2.97715,0.62543 -1.31123,-1.18999 2.36933,-2.58201 9.11861,-1.06536 9.11861,2.04904 0,2.41558 -1.50713,2.3508 -3.04078,-0.13067 z m 0.35223,-24.30675 c -2.80229,-2.80228 -3.97733,-2.96889 -6.07013,-0.86072 -2.08848,2.10384 -1.89324,2.34704 1.00002,1.2456 2.34557,-0.89293 4.04864,-0.18703 4.89978,2.03106 0.71752,1.86985 1.83125,2.87306 2.47493,2.22938 0.6437,-0.64371 -0.39338,-2.73409 -2.3046,-4.64532 z m 4.7528,-5.20015 c 0,-3.93206 -1.10863,-4.64476 -7.22517,-4.64476 -5.26801,0 -7.22516,0.90104 -7.22516,3.32633 0,2.3913 1.38268,3.062 4.91885,2.38602 2.70537,-0.51718 5.54705,0.0761 6.31483,1.31843 2.15569,3.48796 3.21665,2.70096 3.21665,-2.38602 z m -2.77059,-18.08872 c 0.32105,-11.15921 0.23645,-11.33131 -5.67691,-11.54784 -3.87436,-0.14182 -6.00283,0.80517 -6.00283,2.67092 0,1.58988 1.16119,2.73992 2.58041,2.55562 5.74919,-0.74657 8.44151,0.6584 3.76564,1.96506 -2.75428,0.76969 -5.37961,2.76721 -5.83408,4.43897 -0.69254,2.54753 -0.50041,2.57315 1.18684,0.15834 2.72203,-3.89575 8.62285,-1.33226 8.62285,3.74604 0,2.24998 -1.62566,5.10018 -3.61258,6.33381 -3.30215,2.05019 -3.25779,2.18985 0.51608,1.62502 3.5038,-0.52441 4.17798,-2.3324 4.45458,-11.94594 z m -1.90465,-14.94062 c 1.1128,-1.41922 2.09965,-7.31791 2.193,-13.10819 0.16556,-10.27519 0.0366,-10.50937 -5.3831,-9.76144 -5.2586,0.72572 -5.30672,0.65813 -0.90807,-1.27563 6.81361,-2.99544 5.66454,-4.38007 -1.54826,-1.86567 -7.90243,2.75482 -9.04619,10.80712 -1.25736,8.85224 2.71458,-0.68131 5.45524,-0.39798 6.09034,0.62964 0.63511,1.02763 -0.86021,1.79961 -3.32294,1.71552 -2.94997,-0.1007 -4.70168,1.25576 -5.13422,3.97579 -0.61344,3.85754 -0.50504,3.88389 1.65045,0.40161 1.82128,-2.94236 2.92386,-3.21509 5.23686,-1.29549 4.51154,3.74424 3.67648,10.18337 -1.32063,10.18337 -2.33778,0 -3.67637,0.92895 -2.97467,2.06433 1.72529,2.79159 4.23728,2.59748 6.6786,-0.51608 z m 1.65483,-50.38048 c -1.21523,-6.47778 -1.81083,-7.20042 -3.47849,-4.22051 -1.10671,1.97756 -3.02757,2.96804 -4.2686,2.20103 -1.39763,-0.86378 -1.6627,-0.4339 -0.69649,1.1295 0.85796,1.38821 3.09163,1.94118 4.96371,1.22881 2.76323,-1.05147 2.90848,-0.79631 0.77183,1.35582 -2.09973,2.11497 -3.45637,2.13617 -6.70908,0.10487 -3.53024,-2.20469 -4.07714,-2.01272 -4.07714,1.43109 0,7.0445 2.14619,10.10007 6.32632,9.00694 2.48029,-0.64861 4.04832,0.025 4.13506,1.77638 0.0768,1.55166 1.12061,0.7919 2.31944,-1.68833 1.25238,-2.59095 1.55591,-7.83483 0.71344,-12.32556 z m -7.28045,9.83205 c -3.18914,-0.88765 -4.23924,-1.98734 -2.7667,-2.89742 2.80491,-1.73353 8.93889,0.25383 8.93889,2.89613 0,1.0139 -0.23224,1.75087 -0.51608,1.6377 -0.28385,-0.11313 -2.82909,-0.84955 -5.65611,-1.63641 z m 3.07569,-22.01918 c 1.70307,2.20393 3.0965,3.01438 3.0965,1.80101 0,-1.21336 -1.39343,-3.36255 -3.0965,-4.77598 -2.47043,-2.05027 -3.72256,-2.05027 -6.193,0 -1.70308,1.41343 -3.0965,3.56262 -3.0965,4.77598 0,1.21337 1.39342,0.40292 3.0965,-1.80101 3.06521,-3.96663 3.1278,-3.96663 6.193,0 z m 3.99311,-5.25866 c -0.77628,-1.25604 -1.33117,-6.28106 -1.23312,-11.16672 0.10901,-5.42744 -0.98526,-9.848685 -2.8128,-11.365412 -3.48267,-2.890356 -9.25103,-1.286472 -9.20509,2.559464 0.0235,1.978044 0.49175,1.918528 1.856,-0.236036 2.53167,-3.998222 8.43407,-1.259512 8.43407,3.913398 0,2.342027 -1.55774,4.856006 -3.46166,5.586596 -3.10497,1.1915 -3.05179,1.50682 0.51608,3.06032 3.14958,1.37135 2.79579,1.57071 -1.69917,0.95745 -4.29577,-0.58609 -5.67692,0.0906 -5.67692,2.78163 0,2.63343 1.2763,3.31216 4.91885,2.61584 2.70537,-0.51717 5.54705,0.0761 6.31484,1.31843 0.76779,1.2423 1.86044,2.25873 2.42813,2.25873 0.56769,0 0.39706,-1.02766 -0.37921,-2.28369 z m -4.45589,-26.339362 c 2.83527,1.586709 3.55928,1.170498 3.55928,-2.046104 0,-3.02522 -1.03825,-3.76648 -4.13967,-2.955445 -2.27681,0.595416 -5.52814,-0.06977 -7.22517,-1.478187 -2.60613,-2.162904 -3.08549,-1.708421 -3.08549,2.925492 0,4.615683 0.5817,5.174911 3.66589,3.524311 2.32554,-1.244607 4.96726,-1.233645 7.22516,0.02993 z m 0.38558,-8.410011 c 0.65922,-1.066662 -0.61501,-1.802782 -2.83168,-1.635798 -2.21663,0.167004 -3.57532,1.039701 -3.01927,1.939399 1.3718,2.219613 4.38824,2.063116 5.85095,-0.303601 z m -1.91288,-12.390788 c 1.89196,3.061261 5.00997,-1.469517 5.05497,-7.345311 0.0256,-3.348267 -1.33406,-4.128667 -7.19356,-4.128667 -7.422,0 -8.89738,2.529778 -5.95192,10.205527 0.94119,2.452717 1.96999,2.739783 3.9449,1.100764 1.91704,-1.591023 3.08796,-1.543646 4.14561,0.167624 z m -5.94829,-4.764894 c 0.52628,-0.851538 2.24065,-1.548251 3.8097,-1.548251 1.56907,0 3.28343,0.696713 3.80971,1.548251 0.52628,0.851536 -1.18808,1.548249 -3.80971,1.548249 -2.62161,0 -4.33598,-0.696713 -3.8097,-1.548249 z m 8.44055,-11.869917 c 0.54305,-1.991627 0.2358,-2.286208 -0.8611,-0.82561 -0.93797,1.248983 -3.09883,2.858255 -4.80191,3.576168 -2.17571,0.917143 -1.91965,1.162653 0.86109,0.825631 2.1767,-0.263843 4.33756,-1.873115 4.80192,-3.576189 z m -1.75864,-8.600323 c 1.36469,2.192261 1.983,2.05265 3.03352,-0.684924 0.7257,-1.891136 1.31944,-5.692688 1.31944,-8.447913 0,-4.471635 -0.43776,-4.736117 -4.07714,-2.463265 -3.25271,2.031345 -4.60934,2.010144 -6.70909,-0.104869 -2.13618,-2.151675 -2.01376,-2.415869 0.64992,-1.402611 1.80501,0.686638 4.43093,-0.136246 5.83538,-1.8284 3.82239,-4.605714 1.87501,-12.127504 -3.9564,-15.2816822 l -5.16084,-2.7914741 5.49028,1.1840396 c 5.36104,1.1561505 5.48502,0.9533705 5.26703,-8.61404995 -0.12283,-5.38893795 -0.58157,-8.11965475 -1.01947,-6.06825885 -0.43793,2.0513945 -2.99273,4.5649246 -5.67738,5.5856176 -4.0865,1.55369995 -4.82821,3.183264 -4.55599,10.0097257 0.27715,6.9504242 0.69807,7.6494272 2.85179,4.7360342 3.34698,-4.5275782 7.5481,-0.608338 6.59193,6.149628 -0.46355,3.276345 -2.04923,4.882851 -4.81952,4.882851 -3.44883,0 -4.14169,1.40259 -4.20778,8.518016 -0.0717,7.719286 0.27295,8.300004 3.67556,6.193001 2.87883,-1.782655 4.15453,-1.6827 5.46876,0.428493 z m -3.88357,-3.563535 c -2.96708,-0.825816 -4.18651,-2.019928 -2.88453,-2.824585 1.24053,-0.766693 4.018,-0.05987 6.17219,1.570751 4.31413,3.265548 4.1563,3.325744 -3.28766,1.253834 z M 312.60266,1.4971485 c 1.41923,-0.57266685 3.74161,-0.57266685 5.16083,0 1.41924,0.5726666 0.25805,1.041229 -2.58041,1.041229 -2.83846,0 -3.99965,-0.4685624 -2.58042,-1.041229 z m 3.92033,-14.2938395 c 2.95062,1.123805 3.26477,0.894789 1.37927,-1.005465 -2.89508,-2.917708 -8.92567,-1.106318 -8.88057,2.667432 0.0236,1.9780631 0.49173,1.9185363 1.85599,-0.236019 1.13316,-1.789591 3.27206,-2.329852 5.64531,-1.425948 z m 1.2938,-4.704712 c 2.83528,1.586703 3.55929,1.170499 3.55929,-2.046108 0,-3.025226 -1.03825,-3.766472 -4.13967,-2.955437 -2.27682,0.5954 -5.52814,-0.06979 -7.22516,-1.478195 -2.60615,-2.162911 -3.0855,-1.708412 -3.0855,2.92549 0,4.615681 0.5817,5.174916 3.66588,3.524306 2.32555,-1.244596 4.96726,-1.233646 7.22516,0.02995 z m 1.18555,-10.728302 c 0.7983,-2.415252 0.4028,-2.490614 -2.12525,-0.404973 -1.70832,1.409379 -3.86623,1.873853 -4.79532,1.032167 -0.92912,-0.841686 -0.99076,-0.320116 -0.13687,1.159044 1.88008,3.257255 5.71104,2.287649 7.05754,-1.786238 z m -1.90725,-9.627443 c 2.88418,2.247194 2.92208,2.115291 0.33768,-1.175232 -1.6877,-2.148789 -4.29043,-3.181858 -6.193,-2.458113 -2.66369,1.013261 -2.7861,0.749064 -0.64992,-1.402614 2.09974,-2.114961 3.45638,-2.136155 6.70909,-0.104805 3.60806,2.253269 4.07714,2.009818 4.07714,-2.116029 0,-3.952054 -1.1006,-4.662243 -7.22517,-4.662243 -7.44511,0 -8.89844,2.527002 -5.91889,10.291589 0.90709,2.363841 1.9645,2.745865 3.46025,1.250121 1.49573,-1.495743 3.14679,-1.380438 5.40282,0.377326 z m 1.51914,-25.638389 c 0.29532,-10.240051 -0.10173,-11.48927 -3.3796,-10.632097 -2.04285,0.534215 -4.4271,-0.182115 -5.29836,-1.591831 -1.0418,-1.685663 -0.73725,-2.039744 0.88961,-1.034291 3.48783,2.155599 8.52517,-2.621778 8.28009,-7.852778 -0.18187,-3.882569 -0.37211,-3.794088 -1.63991,0.762858 -0.90339,3.24717 -2.92813,5.157057 -5.47113,5.160834 -3.35197,0.005 -4.04987,1.475664 -4.11272,8.66669 -0.0583,6.673232 0.51308,8.172056 2.48999,6.531364 3.58481,-2.975127 6.87521,-0.380343 6.87521,5.421736 0,2.872956 -1.48911,5.326631 -3.61258,5.95264 -2.80957,0.828272 -2.69486,0.970897 0.51608,0.641636 3.54329,-0.36334 4.17611,-2.068564 4.46332,-12.026761 z m -8.07591,-5.194649 c 1.41924,-0.57267 3.74162,-0.57267 5.16084,0 1.41924,0.572673 0.25805,1.041221 -2.58041,1.041221 -2.83846,0 -3.99965,-0.468548 -2.58043,-1.041221 z m 4.04222,-22.354615 c 3.07419,-0.01507 3.74208,-1.935982 3.95384,-11.371889 0.17216,-7.67029 -0.27677,-9.93293 -1.38366,-6.97418 -0.90117,2.40881 -4.0349,4.98112 -6.96388,5.71625 -5.37665,1.34945 -7.13979,6.08594 -3.17713,8.535001 1.18157,0.730249 1.5852,3.339685 0.89694,5.798748 -0.97465,3.482391 -0.78411,3.790315 0.86175,1.39257 1.16221,-1.69315 3.77767,-3.086575 5.81214,-3.0965 z m -2.49396,-3.114549 c -3.36571,-1.446293 -3.48359,-1.800961 -0.63792,-1.919241 1.91991,-0.0798 4.06488,0.783857 4.76658,1.919241 1.46705,2.373734 1.39531,2.373734 -4.12866,0 z m -1.54826,-7.56017 c 1.41924,-0.57267 3.74162,-0.57267 5.16084,0 1.41924,0.57268 0.25805,1.04123 -2.58041,1.04123 -2.83846,0 -3.99965,-0.46855 -2.58043,-1.04123 z m 3.75757,-14.78995 c 2.34931,0.41338 4.12147,-0.72433 4.5763,-2.93796 0.5969,-2.90506 -0.70244,-3.61258 -6.63425,-3.61258 -4.05709,0 -7.37653,0.76805 -7.37653,1.7068 0,0.93874 2.78685,1.29778 6.193,0.79787 3.40616,-0.49992 6.193,-0.033 6.193,1.03752 0,1.07055 -1.99612,1.8727 -4.43582,1.78255 -2.4397,-0.0901 -4.8328,1.22951 -5.31799,2.93259 -0.6966,2.44509 -0.47717,2.52031 1.04305,0.35755 1.05886,-1.50643 3.65053,-2.43537 5.75924,-2.06434 z m -36.27081,324.34259 c -1.70308,-0.62619 -4.48993,-2.29979 -6.19301,-3.71908 -2.06578,-1.72155 -4.47078,-1.96136 -7.22516,-0.72041 -3.80649,1.71494 -3.76623,1.79132 0.51608,0.97883 2.55461,-0.48472 4.64475,0.0768 4.64475,1.24782 0,2.90565 -12.57019,0.24921 -16.25441,-3.43501 -1.97635,-1.97635 -4.33888,-2.34129 -7.46432,-1.15298 -10.61577,4.03609 -35.94359,-1.04147 -28.70629,-5.75486 1.23493,-0.80426 2.87052,-4.01689 3.63466,-7.1392 2.41946,-9.88599 12.22892,-6.67719 14.19919,4.64475 0.87664,5.03753 0.96018,5.00054 3.49625,-1.54825 4.06557,-10.4984 12.9995,-8.35855 15.08275,3.61259 0.8721,5.01139 0.97447,4.96331 3.5353,-1.66025 3.58754,-9.27922 10.49001,-8.45088 13.83484,1.66025 2.4138,7.29669 2.58382,7.20596 5.80241,-3.09651 1.53823,-4.92377 9.17791,-3.67788 11.72488,1.91211 4.76419,10.45627 -0.74642,17.80358 -10.62792,14.1702 z m 7.69824,-1.84702 c -0.68596,-0.68596 -2.46645,-0.75928 -3.95664,-0.16288 -1.64679,0.65898 -1.15762,1.14815 1.24721,1.2472 2.17614,0.0896 3.39539,-0.39827 2.70943,-1.08424 z m -54.26474,-6.81761 c 0.63627,-1.0295 -0.70233,-1.38562 -2.97466,-0.79139 -4.8202,1.26049 -5.42951,2.66321 -1.15685,2.66321 1.63607,0 3.49525,-0.84231 4.13151,-1.87182 z m 53.04171,-8.01172 c -1.48929,-0.49642 -3.68929,0.0788 -4.88888,1.27847 -1.53187,1.53188 -0.72589,1.80053 2.70781,0.90261 2.79139,-0.72996 3.72715,-1.66571 2.18107,-2.18108 z m -18.579,-2.06433 c -1.4893,-0.49643 -3.68929,0.0788 -4.88888,1.27847 -1.53188,1.53187 -0.7259,1.80053 2.7078,0.90261 2.79141,-0.72998 3.72715,-1.66571 2.18108,-2.18108 z m -18.579,-2.06433 c -1.4893,-0.49643 -3.6893,0.0788 -4.88888,1.27847 -1.53187,1.53187 -0.72589,1.80053 2.70781,0.9026 2.79139,-0.72997 3.72715,-1.66571 2.18107,-2.18107 z m -15.76472,-0.43814 c -0.70171,-1.13538 -2.84667,-1.99903 -4.76658,-1.91922 -2.84568,0.11828 -2.72779,0.47294 0.63792,1.91922 5.52397,2.37374 5.59571,2.37374 4.12866,0 z m 12.47533,18.72356 c -0.59128,-0.95673 0.7724,-2.22261 3.03039,-2.81309 2.258,-0.59049 4.10545,-0.331 4.10545,0.57661 0,2.42544 -5.88008,4.26833 -7.13584,2.23648 z m 32.42393,-23.57249 c -2.55462,-1.27769 -4.64476,-3.20931 -4.64476,-4.29247 0,-1.08315 -1.25157,-0.25774 -2.78126,1.83425 -2.51543,3.44005 -3.40336,3.52825 -9.28951,0.92279 -3.57952,-1.58446 -6.50823,-3.76055 -6.50823,-4.83578 0,-1.07523 -1.27537,-0.21079 -2.83417,1.92099 -2.67482,3.65804 -3.22308,3.68757 -9.75193,0.52558 -4.86407,-2.35574 -7.68114,-2.71683 -9.48917,-1.21631 -1.79279,1.48789 -4.46561,1.29562 -8.82707,-0.63494 -6.53099,-2.8909 -7.67004,-4.77205 -4.19133,-6.922 1.13539,-0.70171 2.06433,-2.96518 2.06433,-5.02989 0,-9.95327 11.78554,-9.84231 13.77996,0.12964 1.32171,6.60855 4.79904,8.09862 4.79904,2.05641 0,-2.13173 1.49991,-5.12069 3.33311,-6.64211 2.8575,-2.3715 3.88848,-2.08037 7.22517,2.04027 2.14063,2.64356 3.89206,6.097 3.89206,7.67428 0,5.43295 3.61497,2.85586 4.88225,-3.48051 1.66163,-8.30817 7.45934,-7.44766 11.48889,1.70518 3.53327,8.02571 6.33654,8.68126 6.33654,1.48194 0,-6.13763 4.90402,-8.73567 9.41798,-4.98941 2.13345,1.7706 2.96992,5.38975 2.55413,11.0509 -0.67077,9.13262 -3.40124,10.72982 -11.45603,6.70119 z m 8.56077,-1 c 0.58476,-0.94617 -0.28936,-1.72029 -1.9425,-1.72029 -1.65313,0 -3.00569,0.77412 -3.00569,1.72029 0,0.94614 0.87413,1.72027 1.94251,1.72027 1.06836,0 2.42094,-0.77413 3.00568,-1.72027 z m -18.579,-2.06434 c 0.58476,-0.94616 -0.28937,-1.72028 -1.9425,-1.72028 -1.65313,0 -3.00569,0.77412 -3.00569,1.72028 0,0.94615 0.87412,1.72027 1.9425,1.72027 1.06838,0 2.42094,-0.77412 3.00569,-1.72027 z m -17.33419,-2.06433 c 0,-0.94617 -1.39343,-1.72029 -3.09651,-1.72029 -1.70307,0 -3.09649,0.77412 -3.09649,1.72029 0,0.94615 1.39342,1.72027 3.09649,1.72027 1.70308,0 3.09651,-0.77412 3.09651,-1.72027 z m -18.57901,-2.06433 c 0,-0.94617 -1.35256,-1.7203 -3.00569,-1.7203 -1.65314,0 -2.52726,0.77413 -1.94251,1.7203 0.58476,0.94614 1.93733,1.72027 3.00569,1.72027 1.06838,0 1.94251,-0.77413 1.94251,-1.72027 z m 53.64318,-9.45663 c -1.33689,-1.33688 -2.73278,-1.33688 -4.06969,0 -1.33689,1.3369 -0.63895,2.03485 2.03485,2.03485 2.67381,0 3.37175,-0.69795 2.03484,-2.03485 z m -18.57899,-2.06433 c -1.33691,-1.33689 -2.73279,-1.33689 -4.06969,0 -1.33691,1.3369 -0.63897,2.03485 2.03484,2.03485 2.6738,0 3.37175,-0.69795 2.03485,-2.03485 z m -18.13665,-1.62197 c -1.92671,-1.92671 -3.02769,-1.92671 -4.9544,0 -1.92672,1.92671 -1.37622,2.4772 2.4772,2.4772 3.85343,0 4.40391,-0.55049 2.4772,-2.4772 z m -19.01646,-2.50178 c -1.34344,-1.34345 -2.8495,-1.23 -4.41183,0.33233 -1.78656,1.78656 -1.28307,2.29005 2.03975,2.03975 2.90579,-0.21889 3.71554,-1.02864 2.37208,-2.37208 z m 38.21476,-27.37746 c -12.81637,-1.59937 -15.4825,-2.78846 -15.4825,-6.90522 0,-4.80748 -1.30899,-4.96486 -8.25733,-0.99283 -5.5382,3.16592 -16.88717,3.84236 -29.49849,1.75825 l -7.82299,-1.29281 0.59782,-15.71524 0.59782,-15.715206 8.25733,0.988918 c 4.54153,0.543891 12.18285,0.98444 16.9807,0.97899 5.67109,-0.0062 8.01858,0.694875 6.70909,2.004365 -3.13554,3.135556 -2.60978,28.123603 0.56614,26.906003 1.76434,-0.67642 2.51312,-5.71558 2.36763,-15.93379 L 241.4737,92.662814 229.39129,91.342549 c -6.64533,-0.72615 -13.09286,-0.932542 -14.32786,-0.458613 -2.76059,1.059334 -4.00486,-12.898883 -1.29892,-14.571261 1.04859,-0.648056 4.87465,-0.584661 8.50236,0.140994 5.85914,1.171818 6.49919,1.977796 5.73039,7.215959 -0.8264,5.63049 -0.50012,5.896685 7.2276,5.896685 6.35695,0 8.32468,0.885682 9.17274,4.128667 1.14508,4.378781 9.6172,5.842083 11.95197,2.064334 0.70171,-1.135384 4.93681,-2.064334 9.41134,-2.064334 7.30164,0 8.1355,-0.528965 8.1355,-5.160833 0,-4.660666 0.81536,-5.160833 8.41291,-5.160833 7.89226,0 8.38975,0.351329 8.03859,5.676917 -0.69597,10.554932 0.0331,12.610659 4.70791,13.274589 3.96538,0.56317 4.73692,2.09699 5.2748,10.4863 0.50984,7.95156 -0.081,10.08367 -3.09649,11.17365 -2.04961,0.74088 -6.19234,3.05378 -9.20606,5.1398 -5.31745,3.68057 -8.36223,4.02292 -21.35683,2.4013 z m 13.41817,-14.05173 c 0,-14.83331 1.06766,-13.86107 -18.06292,-16.44838 l -8.77342,-1.186577 0.0282,9.829977 c 0.0405,14.13344 1.79444,19.11948 6.72552,19.11948 3.94574,0 3.99504,-0.23515 0.79141,-3.77512 -1.87904,-2.07633 -3.41644,-6.741 -3.41644,-10.36593 0,-8.15224 8.42259,-13.45892 13.35858,-8.41664 5.33891,5.45388 5.96378,13.55699 1.39758,18.12319 l -4.18061,4.18061 4.51781,0.878 c 2.48479,0.48289 5.21452,1.00449 6.06606,1.15911 0.85153,0.15462 1.54825,-5.73936 1.54825,-13.09772 z m 6.86902,-3.68461 c 0.34852,-13.56358 0.228,-13.904977 -5.62882,-15.945281 -7.7059,-2.684439 -21.88354,-2.697795 -21.88354,-0.0206 0,1.137424 5.32976,2.062244 11.86992,2.059694 l 11.86992,-0.004 -0.69456,14.686497 c -0.49691,10.50728 -0.0108,14.4586 1.70818,13.88561 1.45904,-0.48636 2.54264,-6.24478 2.7589,-14.66124 z m -52.28436,-2.54772 c 0,-11.706397 -0.48995,-13.418163 -3.84055,-13.418163 -2.1123,0 -8.15047,-0.59075 -13.41817,-1.312751 l -9.57762,-1.312771 v 13.698765 c 0,12.73764 0.31864,13.69875 4.54153,13.69875 3.53231,0 3.99105,-0.55049 2.06435,-2.4772 -1.36247,-1.36245 -2.47721,-5.35694 -2.47721,-8.87663 0,-12.520277 12.33067,-16.275717 16.27635,-4.95714 2.4648,7.07052 0.58267,12.637 -5.46391,16.15979 -2.885,1.68081 -2.07179,2.10227 4.15397,2.15274 l 7.74126,0.0628 z m 36.10109,9.36747 c 1.72179,-5.42488 -2.49692,-12.87565 -6.82362,-12.05133 -3.60493,0.68678 -5.6698,8.02595 -3.70134,13.15566 1.66979,4.3514 9.03878,3.57822 10.52496,-1.10433 z m 23.76458,-6.27097 c 0,-5.96363 -0.86014,-8.25733 -3.09649,-8.25733 -2.23637,0 -3.09651,2.2937 -3.09651,8.25733 0,5.96363 0.86014,8.25733 3.09651,8.25733 2.23635,0 3.09649,-2.2937 3.09649,-8.25733 z m -69.44472,1.63386 c 2.46316,-3.90489 -3.64879,-14.76364 -7.58327,-13.47275 -3.43301,1.12634 -4.29183,11.47105 -1.25603,15.12899 2.93245,3.53335 5.91875,2.97381 8.8393,-1.65624 z m 21.59182,-14.26805 c -2.03312,-1.26961 -2.89026,0.19342 -3.38221,5.77275 -0.40396,4.58153 0.39485,8.13142 2.06434,9.17397 2.03312,1.2696 2.89026,-0.19342 3.38221,-5.77276 0.40395,-4.58153 -0.39484,-8.13142 -2.06434,-9.17396 z m 39.59557,-11.105639 c 0,-1.926705 -1.94965,-3.096501 -5.16084,-3.096501 -5.01192,0 -6.59129,2.010103 -3.7846,4.816771 2.59688,2.59689 8.94544,1.376023 8.94544,-1.72027 z m -63.99434,-6.984404 c 0,-1.002956 -1.8579,-2.309411 -4.12867,-2.903237 -2.68335,-0.701709 -4.12866,-0.06338 -4.12866,1.823569 0,1.596783 1.85789,2.903238 4.12866,2.903238 2.27077,0 4.12867,-0.820614 4.12867,-1.82357 z m 48.51184,-9.868587 c -18.21932,-2.211995 -19.61117,-2.780657 -19.61117,-8.012545 0,-3.128042 -1.18504,-5.067298 -3.0965,-5.067298 -1.70308,0 -3.0965,0.816259 -3.0965,1.813888 0,4.198793 -12.27122,6.78435 -25.48367,5.369414 l -13.42815,-1.438035 -0.67134,-15.50977 c -0.51758,-11.957382 0.0379,-16.043276 2.42515,-17.83906 1.70308,-1.281084 3.0965,-5.116119 3.0965,-8.522269 0,-5.698179 0.57568,-6.193 7.2049,-6.193 6.39333,0 7.32445,0.697579 8.26636,6.193 0.91358,5.33017 2.06684,6.282633 8.27761,6.836287 4.24973,0.378826 8.56303,2.381436 10.49261,4.871558 3.1547,4.071155 3.5274,4.098548 10.02792,0.736988 3.94379,-2.039417 8.80518,-2.97586 11.68995,-2.251816 4.18608,1.050622 4.93849,0.480846 4.93849,-3.739828 0,-2.738607 1.22007,-5.447488 2.71126,-6.019699 4.10487,-1.575191 13.76235,0.765578 14.10906,3.419753 0.16809,1.286864 0.49504,3.733182 0.72651,5.436256 0.23149,1.703075 0.55842,4.722163 0.72653,6.709083 0.18059,2.13448 1.9949,3.612584 4.43431,3.612584 3.56639,0 4.12867,1.37623 4.12867,10.105325 0,10.025558 -0.0811,10.147746 -10.28367,15.482499 -5.65602,2.957446 -10.53301,5.237998 -10.83775,5.067876 -0.30475,-0.170121 -3.34093,-0.647663 -6.74708,-1.061191 z m 7.22517,-16.176342 c 0,-13.256262 -0.0685,-13.418435 -5.67692,-13.440895 -3.12231,-0.01239 -8.92824,-0.562655 -12.90209,-1.222581 l -7.22517,-1.199873 0.68699,13.490129 c 0.75904,14.905127 0.9986,15.13309 16.34377,15.551923 l 8.77342,0.239463 z m -20.9496,6.345223 c -3.37578,-7.409037 -0.66018,-15.313493 5.81973,-16.939857 8.88799,-2.230739 14.06036,8.246475 8.86423,17.95551 -3.10598,5.803604 -11.85254,5.198631 -14.68396,-1.015653 z m 12.28826,-3.522929 c 0.81288,-6.987685 -4.99226,-13.278555 -9.10421,-9.865944 -3.55781,2.952719 -3.74273,10.513814 -0.34034,13.916208 3.95584,3.955839 8.75248,1.898814 9.44455,-4.050264 z m 16.97061,2.174445 c 0.94208,-6.135942 1.25484,-6.452528 2.38716,-2.416322 2.1315,7.59782 5.81823,5.3087 5.81823,-3.612584 0,-6.77636 -0.71333,-8.257333 -3.9773,-8.257333 -2.18752,0 -4.40213,1.625662 -4.92137,3.612583 -0.72897,2.789493 -0.99863,2.582089 -1.18353,-0.91033 -0.1317,-2.487603 0.68949,-5.097045 1.82487,-5.798753 4.03946,-2.496522 2.13956,-5.346355 -2.06433,-3.0965 -3.48337,1.864237 -4.12867,4.322342 -4.12867,15.727164 0,9.892327 0.69203,13.289001 2.58042,12.665346 1.41923,-0.468708 3.06826,-4.029683 3.66452,-7.913271 z m -53.72462,-8.884643 c 0,-14.676605 -1.04197,-15.63685 -17.03074,-15.695084 l -7.74126,-0.02818 v 13.418165 c 0,11.779665 0.47624,13.418167 3.89998,13.418167 2.14498,0 6.0743,-1.76067 8.73182,-3.912593 4.15308,-3.362964 4.54171,-4.737625 2.76646,-9.785538 -2.37729,-6.759763 -8.57507,-8.925104 -10.58134,-3.696849 -0.74998,1.954407 -0.31066,6.435579 0.97627,9.958137 2.12987,5.829863 2.06755,6.045049 -0.69449,2.397537 -4.67787,-6.177517 -3.71799,-12.996588 2.39306,-17.000693 5.25655,-3.444237 5.54903,-3.406026 9.2895,1.213271 4.6547,5.748301 4.99577,13.187311 0.76558,16.698061 -4.57261,3.794926 -3.77325,6.193001 2.06434,6.193001 4.9659,0 5.16082,-0.497732 5.16082,-13.177404 z m 8.19194,3.715883 c -2.79601,-7.354063 -2.49117,-16.831026 0.58149,-18.077801 4.53594,-1.840497 -2.74649,-5.21368 -14.39915,-6.669572 -15.32103,-1.914235 -21.64845,1.347927 -6.76028,3.485318 6.24461,0.896499 13.21174,1.217502 15.48251,0.713351 2.27077,-0.504173 2.96748,-0.383347 1.54825,0.268467 -1.70323,0.782279 -2.58042,6.063627 -2.58042,15.536089 0,13.63424 0.20292,14.242331 4.06326,12.176346 3.35218,-1.794029 3.71345,-3.094704 2.06434,-7.432198 z m 8.32274,-6.085758 c 0,-4.666199 -1.14652,-7.729938 -3.18554,-8.512361 -4.69327,-1.800986 -5.72962,0.294725 -4.19388,8.48088 1.86245,9.927792 7.37942,9.951325 7.37942,0.03138 z m 33.02933,-11.089826 c 0,-1.025787 -4.87698,-2.24393 -10.83775,-2.70696 -12.98478,-1.008654 -19.90656,0.730402 -10.83775,2.722918 9.46864,2.080353 21.6755,2.071372 21.6755,-0.01651 z m 2.06434,-7.424395 c 0,-1.926705 -1.94966,-3.0965 -5.16084,-3.0965 -6.42361,0 -6.80765,3.524333 -0.51608,4.736137 2.55461,0.492035 4.87699,1.021124 5.16084,1.175742 0.28384,0.154619 0.51608,-1.112304 0.51608,-2.815379 z m -62.43576,-7.74125 c -1.30747,-3.970084 -9.81592,-4.541884 -9.81592,-0.659657 0,2.107725 1.86373,3.240074 5.33286,3.240074 3.3433,0 5.01583,-0.962702 4.48306,-2.580417 z m 34.05117,-11.298922 c -5.50581,-0.683252 -6.70908,-1.73472 -6.70908,-5.8626238 0,-3.0949311 -1.19126,-5.0300371 -3.09651,-5.0300371 -1.70307,0 -3.09649,0.816258 -3.09649,1.8138883 0,4.0913434 -11.60463,6.3752606 -24.77201,4.8753774 L 204.74123,8.0251484 204.12833,-7.257318 c -0.63693,-15.881636 1.34903,-21.243498 6.3355,-17.105098 1.54059,1.278578 7.85037,2.487381 14.02174,2.686232 l 11.22067,0.361544 -0.68549,14.1540282 c -0.5395,11.1395223 -0.0999,13.9293036 2.06433,13.0988224 1.89865,-0.7285652 2.74983,-5.19479165 2.74983,-14.4285134 0,-12.8999572 -0.21185,-13.4471572 -5.98496,-15.4596782 -3.29175,-1.147503 -10.02663,-2.08637 -14.96643,-2.08637 -8.8883,0 -8.98145,-0.07494 -8.98145,-7.225167 0,-7.086365 0.16312,-7.225166 8.49163,-7.225166 8.23894,0 8.4649,0.182178 7.59316,6.121695 -0.85498,5.825368 -0.46662,6.186459 8.02304,7.45956 5.95927,0.893648 8.92151,2.365973 8.92151,4.434271 0,2.40093 1.50691,2.785691 6.70908,1.713028 3.68999,-0.760857 10.14016,-1.887809 14.33371,-2.504339 5.79075,-0.851348 7.77682,-2.188648 8.25733,-5.560005 0.50976,-3.576455 2.0367,-4.439044 7.85788,-4.439044 7.71816,0 7.17053,-1.085999 8.06764,15.998583 0.11411,2.173128 1.83479,3.612583 4.31836,3.612583 3.56684,0 4.12866,1.376223 4.12866,10.1132377 0,9.7181111 -0.3251,10.2826856 -8.32089,14.4503273 -8.01833,4.179387 -16.02969,4.881467 -32.44969,2.843763 z M 278.02508,0.04839925 V -13.089167 l -9.57762,-1.312758 c -17.88836,-2.451873 -17.25872,-2.893508 -17.25872,12.1054068 0,11.863703 0.45996,13.4181672 3.97045,13.4181672 3.68788,0 3.75874,-0.424366 0.99576,-5.9628894 -3.99,-7.9981376 -0.89577,-16.7447776 5.92367,-16.7447776 6.5861,0 9.75345,3.7393806 9.75345,11.51491305 0,4.46725855 -1.48198,7.59429005 -4.64475,9.80052575 -4.58279,3.1967852 -4.5415,3.2414582 3.09651,3.3482862 l 7.74125,0.108275 z m 6.8736,-3.89966795 c 0.26187,-9.9849323 -0.30683,-13.1522203 -2.22885,-12.4134843 -1.72859,0.664385 -2.58042,5.825434 -2.58042,15.63413105 0,18.94479995 4.30355,16.06282495 4.80927,-3.22064675 z m -52.32055,1.0386672 c -0.0173,-6.5284538 -0.71411,-12.9067365 -1.54826,-14.1739625 -0.83415,-1.267223 -6.89706,-2.740307 -13.47314,-3.273518 l -11.95652,-0.969473 0.60268,13.5951854 c 0.55846,12.5977813 0.96801,13.6467929 5.58235,14.2987301 4.56045,0.6443197 4.70217,0.4260577 1.68348,-2.5926375 -5.32392,-5.3239157 -6.26722,-11.2827474 -2.65809,-16.790984 1.8234,-2.782866 5.11908,-5.059757 7.32373,-5.059757 8.34522,0 11.34882,16.1970646 3.96294,21.3703294 -4.05168,2.8379008 -4.08367,3.0862608 -0.51608,4.0062722 10.40702,2.6837574 11.0302,2.0938332 10.99691,-10.4101851 z m 34.75836,5.018353 c 0.64629,-5.6193196 -2.48199,-11.7274365 -6.00622,-11.7274365 -3.71201,0 -6.03762,7.9234234 -3.94281,13.4332157 2.74793,7.2275823 9.04576,6.1478123 9.94903,-1.7057792 z m 24.74745,-4.8587801 c -0.92029,-10.8901604 -5.80153,-11.6033784 -5.80153,-0.8476833 0,6.26148 0.82841,8.4293602 3.22111,8.4293602 2.4502,0 3.06778,-1.8145282 2.58042,-7.5816769 z m -70.54062,2.41621955 c 2.05645,-5.35899705 -1.09415,-13.41354295 -5.24682,-13.41354295 -4.55498,0 -6.45461,5.5508054 -4.08853,11.9469065 1.92728,5.209954 7.55937,6.0947892 9.33535,1.46663645 z m 25.51676,-7.22054215 c 0,-5.9636298 -0.86015,-8.2573328 -3.09651,-8.2573328 -2.23636,0 -3.09649,2.293703 -3.09649,8.2573328 0,5.9636295 0.86013,8.25733285 3.09649,8.25733285 2.23636,0 3.09651,-2.29370335 3.09651,-8.25733285 z m 33.88948,-10.0433448 c 1.46294,-2.367086 -20.11359,-4.838015 -24.95085,-2.857353 -2.7724,1.135195 -1.30557,1.87639 5.5117,2.785064 14.7446,1.965313 18.26112,1.978389 19.43915,0.07229 z m 1.20418,-9.567821 c 0,-1.720277 -1.83496,-3.0965 -4.12866,-3.0965 -2.2937,0 -4.12867,1.376223 -4.12867,3.0965 0,1.720276 1.83497,3.096499 4.12867,3.096499 2.2937,0 4.12866,-1.376223 4.12866,-3.096499 z m 3.47451,-1.41923 c -0.65899,-1.646786 -1.14815,-1.157628 -1.2472,1.247203 -0.0896,2.176149 0.39827,3.395396 1.08423,2.709437 0.68596,-0.685961 0.75929,-2.466449 0.16298,-3.95664 z m -65.40452,-4.773771 c 0,-1.720277 -1.83496,-3.096499 -4.12866,-3.096499 -2.2937,0 -4.12867,1.376222 -4.12867,3.096499 0,1.720278 1.83497,3.096501 4.12867,3.096501 2.2937,0 4.12866,-1.376223 4.12866,-3.096501 z M 343.15521,265.03464 c -0.65435,-14.19229 -2.12438,-73.18062 -3.26671,-131.08516 -3.95792,-200.627044 -6.0456,-263.93394 -8.76243,-265.71368 -1.38866,-0.9097 -4.38272,-2.08007 -6.65349,-2.60086 -8.65786,-1.98561 -96.94629,-11.13595 -97.93238,-10.14986 -0.56984,0.56984 0.10131,1.73902 1.49153,2.5982 2.39014,1.47719 81.14454,10.67742 94.37651,11.02524 l 6.19301,0.16279 -0.67167,16.16926 c -0.60234,14.49995 3.72785,231.27693 7.19739,360.31614 1.30042,48.36406 1.46058,49.80447 5.27954,47.47967 3.64565,-2.21932 3.85,-4.31599 2.7487,-28.20174 z m -146.74853,4.2536 c 0.65924,-1.06665 -0.615,-1.80278 -2.83165,-1.6358 -2.21665,0.16701 -3.57533,1.03971 -3.01929,1.9394 1.37181,2.21961 4.38824,2.06312 5.85094,-0.3036 z m -13.62379,-38.83118 c -0.18531,-19.01767 -0.98624,-42.00918 -1.77983,-51.09225 -1.34843,-15.43329 -1.46269,-14.68984 -1.74506,11.35383 -0.29778,27.46464 1.66792,74.316 3.11802,74.316 0.40908,0 0.59218,-15.55991 0.40687,-34.57758 z m 11.71826,26.38796 c 4.40326,3.65437 5.82726,-5.64564 4.51392,-29.4799 -1.23931,-22.49068 -4.35814,-29.59722 -10.6849,-24.34646 -1.76006,1.46073 -3.2001,3.64861 -3.2001,4.86197 0,1.21337 1.33088,0.40291 2.95752,-1.80102 2.21197,-2.99699 3.55701,-3.41667 5.33561,-1.66481 3.03169,2.9861 1.72291,12.27611 -1.63307,11.59192 -1.39226,-0.28384 -2.5314,0.52121 -2.5314,1.78902 0,1.34039 1.85235,1.8207 4.42604,1.14766 3.37729,-0.88318 3.85422,-0.5856 2.0128,1.2558 -1.8414,1.84141 -3.3793,1.80991 -6.49037,-0.13294 -3.94027,-2.46079 -4.07713,-1.95536 -4.07713,15.05739 0,17.53222 0.02,17.59863 4.93562,16.36488 2.7146,-0.68131 5.45525,-0.39798 6.09036,0.62964 0.63511,1.02763 -0.86022,1.7996 -3.32295,1.71552 -2.94998,-0.10069 -4.70169,1.25576 -5.13422,3.97578 -0.61343,3.85755 -0.50504,3.8839 1.65046,0.40162 1.78662,-2.88637 2.94869,-3.1945 5.15181,-1.36607 z m -4.53007,-19.76791 c -0.67232,-1.75204 -0.70496,-3.70296 -0.0725,-4.33537 1.80776,-1.80775 5.55321,1.25852 5.55321,4.54624 0,3.96114 -3.93783,3.80965 -5.48065,-0.21087 z m 7.54498,-52.65447 c 0,-15.02299 -0.25887,-15.95745 -4.13965,-14.9426 -2.27682,0.59542 -5.52815,-0.0698 -7.22517,-1.47819 -2.66638,-2.2129 -3.08242,-1.19444 -3.06279,7.49762 0.0126,5.53209 0.56278,13.30967 1.22286,17.28351 1.03894,6.2546 2.00645,7.25469 7.20245,7.44497 l 6.0023,0.21982 z m -9.2895,2.16733 c -1.50531,-2.43564 0.44727,-6.193 3.21833,-6.193 1.06838,0 1.94251,1.8579 1.94251,4.12867 0,4.35385 -3.00336,5.5552 -5.16084,2.06433 z m 6.11579,-20.51839 c 0.65924,-1.06667 -0.615,-1.80278 -2.83165,-1.6358 -2.21665,0.16701 -3.57534,1.0397 -3.01929,1.9394 1.3718,2.21961 4.38824,2.06312 5.85094,-0.3036 z m -13.97861,-40.42671 c -0.45821,-19.8952 -1.43113,-36.771119 -2.16205,-37.502038 -1.7199,-1.719899 -1.73336,51.569438 -0.0161,64.097528 0.72202,5.26768 1.69494,9.57762 2.16205,9.57762 0.46711,0 0.4744,-16.27789 0.0161,-36.17311 z m 12.87132,28.48097 c 2.8842,2.24721 2.9221,2.1153 0.33769,-1.17522 -1.68769,-2.14879 -4.29041,-3.18187 -6.19301,-2.45811 -2.66367,1.01325 -2.78609,0.74906 -0.6499,-1.40261 2.09974,-2.11497 3.45638,-2.13618 6.70909,-0.10487 3.60805,2.25332 4.07713,2.00987 4.07713,-2.11598 0,-3.95205 -1.10058,-4.66224 -7.22517,-4.66224 -7.44511,0 -8.89844,2.52699 -5.91888,10.29159 0.90709,2.36385 1.9645,2.74588 3.46025,1.25012 1.49574,-1.49573 3.14678,-1.38044 5.4028,0.37732 z m 1.68669,-17.07987 c 0.54303,-1.99161 0.23578,-2.2862 -0.86111,-0.8256 -0.93797,1.24898 -3.09883,2.85826 -4.80191,3.57616 -2.17571,0.91715 -1.91964,1.16266 0.86111,0.82564 2.17668,-0.26385 4.33753,-1.87312 4.80191,-3.5762 z m -2.74265,-8.4035 c 2.90382,2.40997 3.18822,2.32822 2.06686,-0.59401 -0.71516,-1.86366 -3.29103,-3.49624 -5.72417,-3.62794 -3.63481,-0.19673 -3.76184,-0.41127 -0.71214,-1.20264 2.04146,-0.52973 5.06055,0.15626 6.70908,1.5244 2.51168,2.08451 2.99733,1.44033 2.99733,-3.97569 0,-5.91927 -0.34315,-6.24897 -4.07713,-3.91703 -3.25271,2.03133 -4.60935,2.01014 -6.70909,-0.10487 -2.13799,-2.1535 -1.91485,-2.37791 1.18898,-1.19575 4.35446,1.65849 7.56476,-2.0536 7.29553,-8.43584 -0.13961,-3.30964 -0.45866,-3.10608 -1.60829,1.02618 -0.90341,3.24716 -2.92813,5.15706 -5.47115,5.16083 -3.40985,0.004 -4.06469,1.5188 -4.21512,9.74393 -0.1496,8.17996 0.22749,9.18325 2.35703,6.27091 2.15731,-2.95031 3.03695,-3.05053 5.90228,-0.67252 z m -1.45857,-27.70428 c 3.07418,-0.0145 3.74207,-1.935977 3.95383,-11.371877 0.18476,-8.232581 -0.22257,-10.076959 -1.48172,-6.709083 -0.9551,2.554613 -2.92766,4.658974 -4.38347,4.676355 -4.68525,0.05594 -7.98219,3.304853 -6.71221,6.614392 0.7245,1.887998 2.79137,2.81253 4.99778,2.235528 2.06931,-0.541122 4.47521,0.169482 5.34647,1.579258 1.0418,1.68565 0.73725,2.039747 -0.88961,1.03429 -2.77429,-1.714592 -8.50289,2.207637 -8.45426,5.788437 0.0173,1.28021 0.90743,0.94234 1.97788,-0.75081 1.07045,-1.69314 3.61084,-3.08656 5.64531,-3.09649 z m -4.04221,-10.67471 c 1.41922,-0.572666 3.7416,-0.572666 5.16083,0 1.41923,0.572667 0.25804,1.041229 -2.58042,1.041229 -2.83846,0 -3.99965,-0.468562 -2.58041,-1.041229 z m -8.327,-22.888749 c -0.473,-3.122304 -0.85999,-0.567692 -0.85999,5.676916 0,6.244608 0.38699,8.799221 0.85999,5.676917 0.47298,-3.122305 0.47298,-8.23153 0,-11.353833 z m 12.24731,8.594914 c 2.95064,1.123801 3.26479,0.894784 1.37928,-1.005475 -2.89508,-2.917709 -8.92566,-1.106318 -8.88057,2.667449 0.0236,1.978044 0.49174,1.918528 1.85599,-0.236037 1.13317,-1.789591 3.27205,-2.329848 5.6453,-1.425937 z m 4.8531,-7.369485 c 0,-2.406022 -1.22677,-3.098522 -4.13966,-2.336784 -2.27681,0.595416 -5.52814,-0.06977 -7.22517,-1.478187 -2.59032,-2.149776 -3.0855,-1.774747 -3.0855,2.336785 0,4.220921 0.99813,4.897507 7.22516,4.897507 5.34933,0 7.22517,-0.887746 7.22517,-3.419321 z M 193.078,60.536627 c 0.79828,-2.41525 0.40279,-2.490619 -2.12526,-0.404981 -1.70832,1.409382 -3.86622,1.873857 -4.79533,1.032166 -0.9291,-0.841669 -0.99073,-0.320116 -0.13696,1.159061 1.88008,3.257251 5.71105,2.287633 7.05755,-1.786246 z m -1.7915,-11.268865 c -1.47931,-1.78247 -4.16579,-2.678658 -5.97109,-1.991917 -2.46796,0.938818 -2.69688,0.658708 -0.92306,-1.12948 1.7596,-1.773819 3.46389,-1.786432 6.70909,-0.04975 3.90264,2.088734 4.35029,1.779228 4.35029,-3.007753 0,-4.44544 -0.59405,-5.003593 -3.55927,-3.344159 -2.25792,1.263579 -4.89963,1.27454 -7.22517,0.02993 -2.93009,-1.56813 -3.66589,-1.152538 -3.66589,2.070546 0,7.455588 2.24084,10.922182 5.37749,8.318996 2.18328,-1.811969 3.13108,-1.56749 4.14261,1.068498 0.72138,1.879927 1.79371,2.935936 2.38293,2.346714 0.58921,-0.589223 -0.13885,-2.529449 -1.61793,-4.311628 z m 0.83811,-20.097482 c -0.12683,-4.189771 0.43568,-7.205989 1.25005,-6.702684 0.81436,0.503305 1.08647,-1.146923 0.6047,-3.667164 -0.66234,-3.464839 -2.31988,-4.582284 -6.797,-4.582284 -5.49359,0 -5.89933,0.544798 -5.62012,7.546522 0.24678,6.188251 0.72434,6.967496 2.65338,4.329381 1.29384,-1.769442 3.42232,-2.555934 4.72994,-1.747788 3.73089,2.305819 2.84793,11.105969 -1.23508,12.309661 -2.77338,0.8176 -2.65349,0.956653 0.51608,0.598573 3.34757,-0.378186 4.08504,-1.90765 3.89805,-8.084217 z m -7.51062,-9.094132 c 1.41922,-0.572666 3.7416,-0.572666 5.16082,0 1.41924,0.572667 0.25805,1.041229 -2.58041,1.041229 -2.83846,0 -3.99965,-0.468562 -2.58041,-1.041229 z m 6.21421,-9.470583 c 2.14975,-2.6733529 2.96999,-18.5419946 1.27322,-24.631647 -0.80786,-2.899342 -1.97368,-3.121472 -7.06593,-1.346307 -7.82676,2.728429 -8.88539,10.7575151 -1.1628,8.8192672 2.7146,-0.6813213 5.54969,-0.2451831 6.30022,0.9691919 0.85673,1.3862309 0.0947,1.7206674 -2.04747,0.8986231 -1.93311,-0.7418037 -4.20284,-0.060464 -5.23644,1.5718969 -2.87393,4.5387608 -2.18901,7.1790224 0.80142,3.08937175 2.406,-3.29039245 2.96715,-3.34235995 5.33131,-0.4937267 3.50945,4.22864235 2.00965,10.67968385 -2.4003,10.32422665 -1.9312,-0.155651 -3.00197,0.5410622 -2.37949,1.5482492 1.58817,2.569703 4.15196,2.278096 6.58626,-0.749146 z m -6.21421,-23.558751 c 1.41922,-0.572671 3.7416,-0.572671 5.16082,0 1.41924,0.572672 0.25805,1.04122 -2.58041,1.04122 -2.83846,0 -3.99965,-0.468548 -2.58041,-1.04122 z m -8.48548,-43.123727 c -0.94967,-40.603614 -3.39245,-51.624217 -3.36977,-15.202743 0.0144,23.215004 1.89745,51.436305 3.43195,51.436305 0.4319,0 0.40392,-16.305104 -0.0622,-36.233562 z m 10.03372,27.976228 c 1.51385,0 3.1798,1.161189 3.70212,2.580417 1.63356,4.438637 4.04185,-8.489645 2.62962,-14.116429 -1.02785,-4.095263 -1.96811,-4.822567 -4.02631,-3.114408 -1.47692,1.225732 -3.29655,1.61736 -4.04362,0.870288 -0.74707,-0.747072 -1.35831,-0.166191 -1.35831,1.290844 0,1.632822 1.58393,2.234945 4.12867,1.569484 2.27077,-0.593818 4.12866,-0.237689 4.12866,0.791401 0,2.72115 -7.01034,2.292323 -9.9088,-0.606129 -1.92671,-1.926711 -2.47719,-1.302215 -2.47719,2.810234 0,4.457428 0.77215,5.139829 4.91886,4.347136 2.70537,-0.517163 5.44602,-0.0873 6.09035,0.95523 0.64432,1.042543 -0.77843,1.826733 -3.16167,1.742649 -2.38325,-0.08408 -4.58977,1.031528 -4.90337,2.479142 -0.31361,1.447614 -0.098,1.679851 0.47918,0.516083 0.57716,-1.163767 2.28797,-2.115942 3.80181,-2.115942 z m 98.05585,-20.643332 c 2.42596,-1.567777 2.48398,-2.007956 0.26797,-2.032722 -2.1725,-0.02427 -2.6244,-2.853718 -1.94841,-12.199271 0.68179,-9.425556 0.27248,-11.934481 -1.81621,-11.132972 -1.82984,0.702175 -2.69635,5.275847 -2.69635,14.231992 0,13.423193 0.70051,14.682488 6.193,11.132973 z m -95.20906,-2.731177 c 1.20367,2.069839 2.21675,2.787946 2.25127,1.595793 0.0722,-2.493545 -4.1328,-7.12195 -6.47046,-7.12195 -0.86836,0 -2.67564,2.090138 -4.01618,4.644751 -2.39419,4.562516 -2.36224,4.578121 1.80475,0.881406 4.10484,-3.641571 4.31292,-3.641571 6.43062,0 z m 41.12019,-25.107897 c -0.33879,-0.282919 -6.42192,-1.148121 -13.51806,-1.922671 l -12.90209,-1.40827 0.0316,10.940259 c 0.0173,6.017141 0.89344,12.302906 1.94677,13.968367 1.11133,1.757142 6.51337,3.490042 12.87048,4.128667 l 10.95532,1.100555 0.61597,-13.146254 c 0.33878,-7.230439 0.33878,-13.377733 0,-13.660653 z m -20.11523,20.748758 c -3.43054,-4.133553 -1.87687,-15.774318 2.4685,-18.495105 4.69742,-2.941215 10.14717,0.335602 12.76252,7.673827 3.40923,9.565707 -8.97235,18.362518 -15.23102,10.821278 z m 11.274,-3.332426 c 0.79714,-2.511582 -0.041,-6.341182 -2.06333,-9.42765 -2.743,-4.186356 -3.98152,-4.720096 -6.36419,-2.742657 -5.40704,4.487446 -2.99812,16.400049 3.31636,16.400049 2.07278,0 4.3728,-1.903384 5.11116,-4.229742 z m 69.1231,-1.963258 c 0,-5.963629 -0.86015,-8.257334 -3.09651,-8.257334 -2.23635,0 -3.09649,2.293705 -3.09649,8.257334 0,5.96363 0.86014,8.257333 3.09649,8.257333 2.23636,0 3.09651,-2.293703 3.09651,-8.257333 z m -97.02368,1.823568 c 0,-3.267763 -0.98335,-4.112282 -3.90015,-3.349522 -2.14508,0.560952 -5.16417,0.117193 -6.70909,-0.986133 -2.18133,-1.557835 -2.03549,-1.759336 0.65273,-0.901851 8.85585,2.824827 10.36754,-12.135751 1.69918,-16.815994 l -5.16084,-2.786447 5.67692,0.900258 c 4.21826,0.668941 5.67535,0.04558 5.67084,-2.426061 -0.004,-2.400938 -2.03767,-3.370375 -7.30876,-3.484681 -5.91555,-0.128278 -7.02752,0.459893 -5.85405,3.0965 0.79675,1.790176 1.39417,5.392175 1.32761,8.004442 -0.10932,4.290333 0.12762,4.409542 2.45046,1.232871 3.26413,-4.463963 7.32648,-2.070035 7.32648,4.317471 0,3.505061 -1.31917,5.082779 -4.64474,5.555086 -3.04965,0.43312 -4.87997,2.320938 -5.32967,5.497105 -0.54901,3.87761 0.0654,4.60376 3.0965,3.659708 2.07977,-0.647755 5.17484,-0.284218 6.87791,0.807862 4.14975,2.660979 4.12867,2.672827 4.12867,-2.320614 z m 51.60834,-5.952235 c 0,-5.963629 -0.86014,-8.257332 -3.0965,-8.257332 -2.13314,0 -3.09651,2.140789 -3.09651,6.881109 0,3.784613 0.61931,7.500413 1.37624,8.257334 3.19048,3.190495 4.81677,0.867234 4.81677,-6.881111 z m 48.84684,-0.516083 c -0.57268,-1.419229 -1.04122,-0.258042 -1.04122,2.580417 0,2.838458 0.46854,3.999646 1.04122,2.580416 0.57267,-1.419229 0.57267,-3.741604 0,-5.160833 z m -14.94067,-9.554242 c 1.22759,-1.986302 -8.35142,-4.380008 -17.52771,-4.380008 -10.06874,0 -8.71962,3.859209 1.63381,4.673567 5.42092,0.426385 10.9626,0.94269 12.31482,1.147341 1.35222,0.204658 2.9628,-0.443755 3.57908,-1.4409 z m 3.25183,-9.540841 c 0,-1.926711 -1.94965,-3.096499 -5.16083,-3.096499 -3.21119,0 -5.16084,1.169788 -5.16084,3.096499 0,1.926711 1.94965,3.0965 5.16084,3.0965 3.21118,0 5.16083,-1.169789 5.16083,-3.0965 z m -53.67267,-1.942503 c 0,-2.178852 -3.96169,-3.094251 -5.14003,-1.18767 -0.71315,1.153904 0.15161,2.098006 1.92169,2.098006 1.77008,0 3.21834,-0.40965 3.21834,-0.910336 z m -8.25734,-4.250497 c 0,-1.92671 -1.94965,-3.0965 -5.16083,-3.0965 -5.01192,0 -6.59129,2.0101 -3.78461,4.816778 2.59689,2.596885 8.94544,1.376007 8.94544,-1.720278 z m -31.45986,-1.54825 c 2.13623,-2.656538 2.9734,-18.52203 1.29596,-24.55996 -0.61242,-2.20442 -2.36352,-3.02952 -4.97836,-2.34572 -2.2185,0.58015 -3.54986,1.83759 -2.95858,2.7943 0.59128,0.95671 2.67098,1.22795 4.62153,0.60274 2.89929,-0.9293 3.00171,-0.75078 0.56121,0.97828 -1.95039,1.38183 -4.27619,1.42415 -6.70909,0.12211 -3.13521,-1.67793 -3.72381,-1.16294 -3.72381,3.25803 0,4.71208 0.41842,4.98965 4.07714,2.70474 3.28544,-2.05179 4.58822,-1.99619 6.70909,0.28633 2.18187,2.34819 1.95416,2.59214 -1.33168,1.42664 -2.36451,-0.8387 -4.6421,-0.33664 -5.64532,1.24442 -2.7718,4.36839 -1.95912,6.828923 0.94413,2.85849 2.406,-3.2904 2.96715,-3.34236 5.3313,-0.49373 3.50946,4.22865 2.00966,10.67968 -2.40029,10.324238 -1.9312,-0.155651 -3.00197,0.541055 -2.37949,1.548249 1.58816,2.569698 4.15194,2.278079 6.58626,-0.749157 z m -14.52372,-20.60637 c -0.45944,-3.71033 -0.84483,-1.17234 -0.85641,5.63996 -0.0116,6.81229 0.36431,9.848018 0.83534,6.74605 0.47103,-3.10198 0.48052,-8.67567 0.021,-12.38601 z m 74.4972,12.99414 c 0.51608,-1.54825 -0.25805,-2.32237 -1.8063,-1.80629 -1.49019,0.49673 -3.11585,2.122398 -3.61258,3.612585 -0.51609,1.548248 0.25804,2.322373 1.80629,1.806289 1.49019,-0.49673 3.11586,-2.12239 3.61259,-3.612584 z m -30.57795,-43.34091 c 0,-2.67896 -4.76243,-3.79398 -23.05416,-5.39764 -8.70596,-0.76327 -17.0665,-0.58905 -18.579,0.38713 -2.38874,1.54173 5.6029,2.90193 39.05275,6.64684 1.41922,0.15889 2.58041,-0.57746 2.58041,-1.63633 z"
       style="fill:#000000;stroke-width:2.06433344" />
  </g>
</svg>
