<?xml version="1.0" encoding="UTF-8" standalone="no"?>
<svg
   xmlns:dc="http://purl.org/dc/elements/1.1/"
   xmlns:cc="http://creativecommons.org/ns#"
   xmlns:rdf="http://www.w3.org/1999/02/22-rdf-syntax-ns#"
   xmlns:svg="http://www.w3.org/2000/svg"
   xmlns="http://www.w3.org/2000/svg"
   id="svg8"
   version="1.1"
   viewBox="0 0 500 500"
   height="500mm"
   width="500mm">
  <defs
     id="defs2" />
  <metadata
     id="metadata5">
    <rdf:RDF>
      <cc:Work
         rdf:about="">
        <dc:format>image/svg+xml</dc:format>
        <dc:type
           rdf:resource="http://purl.org/dc/dcmitype/StillImage" />
        <dc:title></dc:title>
      </cc:Work>
    </rdf:RDF>
  </metadata>
  <g
     transform="translate(0,203)"
     id="layer1">
    <path
       id="path6492"
       d="M 166.62953,277.06031 V 260.17515 H 156.07631 145.52308 V 242.23466 224.29418 H 133.91453 122.30599 V 103.38766 -17.518866 l 11.60854,-11.464349 11.60855,-11.464348 V -69.092714 -97.73787 l 10.55323,-10.39454 10.55321,-10.39454 v -29.70046 -29.70048 l 11.14726,-11.00879 11.14725,-11.00878 h 94.385 94.38498 V 35.991218 271.92789 l -11.14727,11.00879 -11.14724,11.00878 h -94.385 -94.38498 z m 187.84739,-10.55323 c 0,-13.93026 -0.63757,-25.32774 -1.4168,-25.32774 -0.77923,0 -3.1537,1.57188 -5.27661,3.4931 -2.82223,2.55407 -3.85982,6.52575 -3.85982,14.77452 0,10.96958 -0.16041,11.27348 -5.80428,10.99398 -4.97656,-0.24643 -5.12707,-0.41787 -1.05532,-1.20212 3.1143,-0.59984 4.74896,-2.42979 4.74896,-5.31631 0,-4.3257 -0.0758,-4.33303 -4.39435,-0.42479 -4.12806,3.73585 -4.51808,3.75566 -6.43681,0.32713 -1.16892,-2.08874 -4.48007,-3.621 -7.74185,-3.58258 -5.46723,0.0643 -5.53251,0.19333 -1.60237,3.16596 2.25337,1.70437 3.08201,3.09885 1.84142,3.09885 -1.24058,0 -3.43799,-1.42469 -4.88313,-3.16597 -1.44514,-1.74128 -4.30917,-3.16596 -6.36457,-3.16596 -2.05536,0 -4.28372,1.42468 -4.95192,3.16596 -0.66819,1.74128 -2.90683,3.13577 -4.97478,3.09885 -3.5562,-0.0635 -3.56156,-0.21771 -0.099,-2.84701 2.01345,-1.52892 3.04238,-3.3983 2.28653,-4.15417 -0.75591,-0.75584 4.95761,-1.37428 12.69662,-1.37428 h 14.07098 v -26.75097 -26.75099 l -5.27662,4.95713 c -4.34734,4.08409 -5.27661,6.93674 -5.27661,16.19774 v 11.24064 h -30.60435 -30.60435 v -6.33193 -6.33194 h -18.9958 -18.99581 v 6.33194 6.33193 h -31.65963 -31.65968 v -6.33193 c 0,-5.34696 -0.8208,-6.33194 -5.27661,-6.33194 -5.18867,0 -5.27661,0.28142 -5.27661,16.88516 v 16.88516 h 77.03854 c 42.37118,0 77.03853,0.78529 77.03853,1.7451 0,0.9598 -3.08682,1.37964 -6.8596,0.93299 -6.51653,-0.77149 -6.6547,-0.64762 -2.76256,2.47618 2.71316,2.17759 3.12574,3.28831 1.22152,3.28831 -1.58153,0 -4.61244,-1.57188 -6.73535,-3.4931 -3.62209,-3.27796 -3.85982,-3.22198 -3.85982,0.90853 0,2.88652 1.63465,4.71647 4.74895,5.31631 4.07175,0.78425 3.92124,0.95569 -1.05532,1.20212 -4.86078,0.2407 -5.80427,-0.57029 -5.80427,-4.98918 0,-5.21454 -0.21107,-5.27661 -17.94048,-5.27661 -17.72942,0 -17.94049,0.0621 -17.94049,5.27661 0,2.90214 -0.81808,5.27661 -1.81796,5.27661 -0.99988,0 -1.3366,-2.61192 -0.74828,-5.80428 1.03885,-5.63702 0.94961,-5.69785 -3.09719,-2.11064 -2.29178,2.03149 -5.51676,3.66343 -7.16663,3.62651 -2.28823,-0.0513 -2.13937,-0.72072 0.62762,-2.82256 3.17601,-2.41256 2.51944,-2.79021 -5.27661,-3.03499 -8.26159,-0.25935 -8.60842,-0.0557 -4.80697,2.82258 3.64118,2.75694 3.6925,3.10209 0.4614,3.10209 -1.99958,0 -4.18231,-1.42469 -4.8505,-3.16597 -0.6682,-1.74128 -2.89656,-3.16596 -4.95192,-3.16596 -2.0554,0 -4.91943,1.42468 -6.36456,3.16596 -1.44515,1.74128 -3.69847,3.13577 -5.00738,3.09885 -1.30895,-0.0369 -0.74538,-1.30866 1.25233,-2.82609 3.16346,-2.4029 2.34629,-2.79705 -6.33194,-3.05404 -9.20792,-0.27271 -9.6532,-0.0582 -5.86711,2.82607 2.25337,1.71665 3.27795,3.12118 2.27684,3.12118 -1.00111,0 -3.55712,-1.57188 -5.68002,-3.4931 -3.62188,-3.27774 -3.85982,-3.22223 -3.85982,0.90057 0,2.41651 1.66213,4.82802 3.69363,5.35889 2.77953,0.72637 2.51836,1.02585 -1.05533,1.21009 -3.72374,0.19208 -4.74894,-0.89427 -4.74894,-5.03177 0,-4.4558 -0.98498,-5.27661 -6.33194,-5.27661 h -6.33193 v 15.82983 15.82984 h 92.86837 92.86838 z m -146.16217,2.73174 c 2.61193,-0.50309 6.88598,-0.50309 9.49791,0 2.61192,0.50307 0.47489,0.9147 -4.74895,0.9147 -5.22385,0 -7.36088,-0.41163 -4.74896,-0.9147 z m 99.20031,0 c 2.61194,-0.50309 6.88598,-0.50309 9.49791,0 2.61192,0.50307 0.47489,0.9147 -4.74895,0.9147 -5.22384,0 -7.36088,-0.41163 -4.74896,-0.9147 z m 67.54976,-231.657463 -0.53678,-234.360847 -91.87982,-0.54951 -91.87981,-0.54951 -9.34294,9.51974 -9.34292,9.51976 h 91.64495 91.64496 l 9.57779,-8.97024 9.57779,-8.97024 -8.97024,9.57779 -8.97024,9.57779 v 28.48592 28.48591 l -11.60854,11.46435 -11.60855,11.464356 v 29.457516 29.457521 l -11.60854,11.333851 -11.60855,11.333851 v 118.555075 118.5551 l 10.09806,-9.94623 c 5.55392,-5.47043 10.77777,-9.94622 11.60854,-9.94622 0.83077,0 1.51049,11.46531 1.51049,25.4785 0,21.1433 0.60837,26.08132 3.57554,29.02136 3.19724,3.16804 3.43828,3.18009 2.27839,0.11378 -0.85553,-2.26165 1.37074,-6.03422 6.53901,-11.0809 4.30991,-4.20847 8.50847,-7.65178 9.33015,-7.65178 0.82169,0 1.49401,12.07013 1.49401,26.82252 v 26.82252 l 9.50702,-9.33045 9.50701,-9.33044 z M 337.59176,261.35504 c 0,-0.51192 -0.94979,-1.51777 -2.11065,-2.23522 -1.16086,-0.71744 -2.11064,-0.29861 -2.11064,0.93076 0,1.22936 0.94978,2.23521 2.11064,2.23521 1.16085,0 2.11065,-0.41884 2.11065,-0.93075 z M 219.39564,229.24366 c 0,-5.48478 -0.0904,-5.52199 -4.25485,-1.75314 -4.05769,3.67216 -4.38104,3.67803 -6.97785,0.12663 -1.6867,-2.30669 -4.68612,-3.42679 -7.88136,-2.94322 l -5.15835,0.78068 6.33193,3.71816 c 5.69091,3.34176 5.79775,3.58195 1.05533,2.37262 -2.90214,-0.74006 -6.41823,-2.79346 -7.81352,-4.56313 -2.53906,-3.22032 -3.44913,-3.0406 -13.29293,2.62507 -5.72445,3.29476 -11.60659,2.37455 -17.41283,-2.724 -3.40469,-2.98972 -3.69362,-2.80509 -3.69362,2.36029 v 5.60379 h 29.54903 29.54902 z m 99.20031,-3.97639 v -9.58011 l -4.61926,4.30349 c -4.08423,3.80506 -7.38468,4.30353 -28.4937,4.30353 h -23.87444 v 5.27662 5.27661 h 28.49371 28.4937 z m -138.83632,2.46564 c 3.17492,-2.4116 2.44414,-2.80389 -5.80427,-3.11588 -10.38329,-0.39275 -11.97073,0.90519 -4.68753,3.83267 6.21765,2.4992 6.26188,2.49618 10.4918,-0.71679 z m 34.3594,-1.32808 c 0.71745,-1.16086 -0.23235,-2.11065 -2.11064,-2.11065 -1.87831,0 -2.82811,0.94979 -2.11064,2.11065 0.71745,1.16085 1.66723,2.11064 2.11064,2.11064 0.4434,0 1.39318,-0.94979 2.11064,-2.11064 z M 308.04273,102.9321 V -16.319346 H 216.22969 124.41663 V 102.9321 222.18354 h 91.81306 91.81305 z m -141.41321,75.98322 v -32.71501 h 32.715 32.71499 v 15.77487 15.77487 l 32.18733,0.58262 32.18735,0.58265 0.61644,16.35749 0.61644,16.3575 h -65.51878 -65.51876 z m 31.65968,15.82983 v -14.77451 h -14.77451 -14.77451 v 14.77451 14.77452 h 14.77451 14.77451 z m -21.71745,8.44469 c -0.60684,-2.32057 -0.24273,-4.75108 0.80914,-5.40119 1.05188,-0.65009 1.9125,1.24854 1.9125,4.21919 0,6.46712 -1.20293,6.98954 -2.72164,1.182 z m 13.17409,2.0456 c -2.64673,-1.63634 -2.60038,-2.36 0.33954,-5.30074 3.13287,-3.13374 3.49625,-3.05573 4.5508,0.97689 1.35807,5.19328 -0.63447,6.95502 -4.89034,4.32385 z m -14.42891,-17.41612 c 0.16377,-4.54365 0.5941,-5.39542 1.2995,-2.57207 0.58005,2.32171 1.97419,4.80147 3.09809,5.51055 1.12389,0.70909 0.53913,1.86651 -1.29948,2.57206 -2.64915,1.01657 -3.29213,-0.12707 -3.09811,-5.51054 z m 13.89545,4.09613 c -0.59721,-1.55635 -0.23849,-4.16827 0.79719,-5.80427 1.37043,-2.16483 1.89186,-1.39453 1.91536,2.8297 0.0351,6.30286 -0.99984,7.43779 -2.71255,2.97457 z m 40.7365,2.8297 v -14.77451 h -14.77452 -14.77451 v 14.77451 14.77452 h 14.77451 14.77452 z m -20.81902,10.02556 c -0.15809,-2.03149 -1.42718,-3.69362 -2.8202,-3.69362 -1.95012,0 -1.95823,-0.57457 -0.0353,-2.4976 3.35581,-3.35582 5.23004,-1.08051 4.08125,4.95469 -0.58538,3.07546 -1.04656,3.54064 -1.22586,1.23653 z m 11.09177,-8.12421 c 0.986,-10.61504 3.37338,-16.97893 3.41855,-9.11273 0.0126,2.22498 0.61194,7.60713 1.33148,11.96033 1.07634,6.51189 0.68269,7.91492 -2.22076,7.91492 -2.96755,0 -3.36994,-1.71224 -2.52927,-10.76252 z m -13.48984,-9.2886 c 0,-2.90214 0.36416,-5.27661 0.80926,-5.27661 0.44511,0 1.26318,2.37447 1.81796,5.27661 0.55478,2.90213 0.19058,5.27661 -0.80927,5.27661 -0.99987,0 -1.81795,-2.37448 -1.81795,-5.27661 z m 56.98741,7.38725 v -14.77451 h -15.82984 -15.82984 v 14.77451 14.77452 h 15.82984 15.82984 z m -24.47053,8.66148 c 2.81459,-3.11008 3.00515,-4.24932 0.8548,-5.10998 -1.9013,-0.76097 -1.68128,-1.15974 0.703,-1.27422 2.41387,-0.11587 3.37769,1.43929 3.16597,5.10848 -0.21194,3.67322 -1.52537,5.27557 -4.32513,5.27661 -3.81378,0.001 -3.83429,-0.20452 -0.39864,-4.00089 z m 13.81652,1.82881 c -2.64673,-1.63634 -2.60036,-2.36 0.33955,-5.30074 3.13288,-3.13374 3.49624,-3.05573 4.5508,0.97689 1.35807,5.19328 -0.6345,6.95502 -4.89035,4.32385 z M 236.28081,187.3579 c 0,-2.90214 0.94979,-5.27661 2.11064,-5.27661 1.16086,0 2.11064,2.37447 2.11064,5.27661 0,2.90213 -0.94979,5.27661 -2.11064,5.27661 -1.16086,0 -2.11064,-2.37448 -2.11064,-5.27661 z m 14.77451,1.05532 c 0,-1.16086 0.94979,-2.11064 2.11064,-2.11064 1.16085,0 2.11065,0.94978 2.11065,2.11064 0,1.16085 -0.9498,2.11065 -2.11065,2.11065 -1.16086,0 -2.11064,-0.9498 -2.11064,-2.11065 z m 43.89232,6.85959 -0.62409,-14.24685 -14.24686,-0.6241 -14.24685,-0.6241 v 14.87096 14.87095 h 14.87095 14.87095 z m -23.8412,7.91492 c 2.37065,-2.61952 2.84794,-4.22129 1.25788,-4.22129 -1.40926,0 -1.96575,-0.96528 -1.2366,-2.14507 2.19536,-3.55218 5.22021,-0.1125 4.7627,5.41565 -0.29476,3.56138 -1.70112,5.172 -4.51614,5.172 -3.95436,0 -3.9631,-0.13803 -0.26784,-4.22129 z m 11.60856,-0.93075 c 0,-9.15708 7.31393,-8.78318 7.885,0.40309 0.21085,3.39265 -0.87291,4.74895 -3.79489,4.74895 -2.92933,0 -4.09012,-1.46217 -4.09011,-5.15204 z m -14.52969,-15.42675 c 0.18764,-4.44879 0.49113,-4.81848 1.29949,-1.58298 0.58006,2.32171 2.13202,4.91909 3.4488,5.77195 1.51939,0.98412 1.04462,1.56247 -1.29949,1.58299 -2.68869,0.0235 -3.62702,-1.54689 -3.4488,-5.77196 z m 15.59533,3.71035 c -0.71177,-1.15166 -0.3218,-3.76358 0.86658,-5.80428 1.85347,-3.18275 2.16983,-2.88499 2.22487,2.09393 0.0671,6.06966 -0.90915,7.24137 -3.09145,3.71035 z M 198.2892,163.08547 V 148.31096 H 183.51469 168.74018 V 163.08547 177.86 h 14.77451 14.77451 z m -21.62304,7.38726 c -0.55477,-2.90213 -0.1906,-5.27661 0.80927,-5.27661 0.99989,0 1.81796,2.37448 1.81796,5.27661 0,2.90214 -0.36417,5.27662 -0.80927,5.27662 -0.4451,0 -1.26318,-2.37448 -1.81796,-5.27662 z m 11.06981,3.23221 c 0,-1.12441 1.42468,-1.4977 3.16597,-0.82951 4.04744,1.55316 4.04085,-0.17096 -0.0163,-4.228 -1.8364,-1.83642 -2.3275,-3.71039 -1.16122,-4.43117 2.49773,-1.54369 7.13055,6.62025 5.37175,9.46606 -1.65137,2.67207 -7.36024,2.6896 -7.36024,0.0226 z m -12.1362,-18.00673 c 0,-3.98312 1.09947,-5.26868 4.48512,-5.24429 3.66938,0.0264 3.9093,0.40445 1.31916,2.07833 -2.11066,1.36401 -2.28653,2.05678 -0.52767,2.07834 1.45105,0.0168 2.63831,1.45699 2.63831,3.19827 0,1.74129 -1.78086,3.16597 -3.95746,3.16597 -2.8142,0 -3.95746,-1.52435 -3.95746,-5.27662 z m 13.63585,1.05744 c -0.60684,-2.32056 -0.24272,-4.75108 0.80914,-5.40118 1.05188,-0.65011 1.9125,1.24853 1.9125,4.21917 0,6.46713 -1.20294,6.98956 -2.72164,1.18201 z m 40.71326,6.32982 V 148.31096 H 215.17436 200.39985 V 163.08547 177.86 h 14.77451 14.77452 z m -21.59368,8.53476 c -1.45884,-5.19456 -0.58615,-8.20104 1.71308,-5.90179 0.67422,0.67423 0.89222,3.44444 0.48439,6.15605 l -0.74149,4.93018 z m 11.86467,-2.07244 c 0.13656,-3.81141 1.36926,-6.45465 3.01164,-6.4575 1.90202,-0.004 2.32723,1.49562 1.34574,4.74414 -2.34075,7.74767 -4.60538,8.63813 -4.35738,1.71336 z m -12.96044,-13.84958 c 0,-4.01951 1.06853,-5.24127 4.48512,-5.12825 4.37676,0.14479 4.38314,0.19207 0.26384,1.96229 -3.60967,1.55111 -3.68612,1.83544 -0.52767,1.96229 4.99421,0.20051 4.73855,6.48029 -0.26383,6.48029 -2.81418,0 -3.95746,-1.52435 -3.95746,-5.27662 z m 13.75964,1.1475 c -1.45884,-5.19455 -0.58615,-8.20104 1.71308,-5.90178 0.67422,0.67423 0.89221,3.44444 0.48439,6.15605 l -0.74149,4.93017 z m -85.97495,40.14884 c -3.06461,-5.72624 -2.72399,-9.85139 1.13181,-13.70718 5.025,-5.02501 12.95325,-4.10711 16.92849,1.95988 3.20272,4.88798 3.20272,5.66525 0,10.55323 -4.33025,6.6088 -14.79225,7.3005 -18.0603,1.19407 z m 16.81089,-2.2494 c 1.60512,-2.9992 1.60512,-5.44338 0,-8.44257 -3.98704,-7.44985 -16.88516,-4.22533 -16.88516,4.22129 0,8.44661 12.89812,11.67112 16.88516,4.22128 z m -24.5994,-20.14216 c -0.68741,-1.79134 -0.77822,-3.7286 -0.20183,-4.305 0.57641,-0.57641 1.55462,0.88924 2.1738,3.257 1.31525,5.02952 -0.1461,5.80615 -1.97197,1.048 z m 8.65606,0.96271 c -0.75049,-1.21432 -0.79452,-2.77785 -0.0979,-3.47453 0.69667,-0.69665 1.28122,0.0789 1.299,1.72341 0.0271,2.50762 0.32827,2.52288 1.86654,0.0946 1.00882,-1.59256 2.90322,-2.53923 4.2098,-2.1037 1.34237,0.44746 0.57312,1.9175 -1.76869,3.37998 -2.81769,1.75967 -4.58106,1.88141 -5.5088,0.3803 z m 20.86818,-0.87167 c 0,-1.74129 0.79149,-3.16598 1.75887,-3.16598 0.96738,0 1.75888,1.42469 1.75888,3.16598 0,1.74128 -0.7915,3.16597 -1.75888,3.16597 -0.96738,0 -1.75887,-1.42469 -1.75887,-3.16597 z m -8.9795,-1.75888 c -0.19063,-4.42688 4.42783,-3.74592 5.66641,0.83547 0.6781,2.50816 0.47087,2.53537 -1.19557,0.15703 -1.70192,-2.42907 -2.19402,-2.42907 -3.16003,0 -0.76987,1.93592 -1.19869,1.61127 -1.31081,-0.99239 z m -10.29772,-8.16116 c -1.39303,-1.39303 -2.5039,-3.53005 -2.46859,-4.74895 0.0353,-1.2189 1.03228,-0.55404 2.21552,1.47745 2.71762,4.66587 12.19147,4.82936 13.95227,0.24079 3.15775,-8.22896 -8.33496,-14.82228 -13.69637,-7.85756 -1.72256,2.23769 -2.63529,2.62776 -2.12453,0.90796 1.61901,-5.45133 7.24456,-7.51885 13.1442,-4.8308 9.27809,4.22739 6.20965,17.34388 -4.05737,17.34388 -2.4378,0 -5.57211,-1.13975 -6.96513,-2.53277 z m 46.2117,-37.04182 c 1.55494,-2.03149 3.04498,-4.03842 3.31121,-4.45985 0.26621,-0.42143 0.33285,1.24069 0.14807,3.69362 -0.18477,2.45294 -1.67483,4.45986 -3.3112,4.45986 -2.50348,0 -2.52696,-0.58566 -0.14808,-3.69363 z m 11.40891,1.58298 c -1.53909,-2.49028 0.45731,-6.33193 3.29054,-6.33193 1.09233,0 1.98607,1.89958 1.98607,4.22129 0,4.45152 -3.07074,5.67984 -5.27661,2.11064 z m 16.41016,-2.11064 c 0.17495,-2.32171 1.54054,-4.22129 3.03478,-4.22129 3.08698,0 3.21696,0.46209 1.43569,5.10398 -1.81889,4.7399 -4.84894,4.14162 -4.47047,-0.88269 z m 10.35375,-0.52766 c 0.37095,-2.61192 1.62425,-4.74895 2.78511,-4.74895 1.16086,0 2.41416,2.13703 2.78509,4.74895 0.46409,3.26764 -0.40467,4.74895 -2.78509,4.74895 -2.38043,0 -3.2492,-1.48131 -2.78511,-4.74895 z m -29.76327,-10.36576 c -0.13457,-2.83162 2.37125,-3.65992 13.02491,-4.30539 7.25534,-0.43957 13.51604,-0.59516 13.91265,-0.34577 0.39663,0.24939 -0.28684,2.18684 -1.5188,4.3054 -1.23196,2.11855 -2.26882,2.66468 -2.3041,1.21362 -0.0425,-1.74422 -3.58099,-2.63831 -10.44153,-2.63831 -6.327,0 -10.79285,1.02975 -11.44191,2.63831 -0.66581,1.65003 -1.127,1.32495 -1.23122,-0.86786 z m 46.26757,-3.75652 c 0,-1.09234 1.05118,-2.63575 2.33597,-3.4298 1.63248,-1.00893 1.47357,-2.04832 -0.52765,-3.45122 -2.2795,-1.59801 -2.29319,-1.85633 -0.0671,-1.26639 1.53813,0.40761 2.72538,1.42971 2.6383,2.27133 -0.0872,0.84162 -0.15829,2.9549 -0.15829,4.69619 0,1.74128 -0.94979,3.16596 -2.11064,3.16596 -1.16086,0 -2.11064,-0.89373 -2.11064,-1.98607 z m 10.63658,0.93075 c -1.81703,-9.43849 -1.80018,-9.94833 0.26085,-7.88731 1.18926,1.18926 1.70853,3.92533 1.15388,6.08014 -0.55463,2.15479 -1.19126,2.96803 -1.41473,1.80717 z m 4.51879,-3.50257 c 0.78653,-5.31534 7.7584,-7.13101 9.54133,-2.4848 0.99081,2.58199 1.55196,2.64926 3.00309,0.36007 1.38025,-2.1774 1.79192,-2.00661 1.81693,0.75378 0.0458,5.06494 -3.57191,6.65666 -5.85543,2.57623 -1.76341,-3.151 -2.03589,-3.15476 -3.22946,-0.0443 -1.93012,5.02985 -6.05815,4.12162 -5.27646,-1.1609 z m -38.81841,-4.99444 c -0.65218,-2.29178 -1.82889,-6.066439 -2.61491,-8.388149 -0.78603,-2.321709 0.11607,-1.552421 2.0049,1.709517 1.88871,3.261962 3.06542,7.036612 2.61489,8.388142 -0.4505,1.35154 -1.35271,0.58225 -2.00488,-1.70951 z m -14.18021,-4.76075 c 0.12979,-5.018419 0.35877,-5.20863 1.82614,-1.516754 l 1.67781,4.221294 1.09498,-4.221294 c 1.03744,-3.999482 1.10783,-3.98361 1.33982,0.301843 0.13466,2.487731 -1.17985,5.069831 -2.92113,5.738041 -2.35362,0.90315 -3.12792,-0.25746 -3.01762,-4.52313 z m 73.72422,1.20007 c 0,-2.33389 5.82559,-2.07768 7.30831,0.32141 0.67401,1.09059 -0.69461,1.83826 -3.04141,1.66148 -2.34678,-0.17677 -4.2669,-1.06909 -4.2669,-1.98289 z m -31.32643,-7.993436 c 0,-2.902137 0.47908,-4.089375 1.06459,-2.638306 0.58552,1.451068 0.58552,3.825543 0,5.276612 -0.58551,1.451069 -1.06459,0.26383 -1.06459,-2.638306 z m 5.99869,-0.111822 c 0,-2.260205 1.05139,-4.109468 2.33647,-4.109468 1.28504,0 1.8505,1.266387 1.25654,2.814186 -0.59395,1.547821 0.25423,2.814208 1.88483,2.814208 1.6306,0 2.96474,-1.266387 2.96474,-2.814208 0,-4.052671 3.72564,-3.462808 6.09538,0.965071 1.77366,3.314114 1.00343,3.819909 -6.25769,4.109468 -6.91112,0.275587 -8.28027,-0.349312 -8.28027,-3.779257 z m -44.30525,-4.065947 c -9.08793,-0.861607 -11.66174,-1.905237 -11.92136,-4.833841 -0.27218,-3.070081 -0.14575,-3.121433 0.71018,-0.288504 0.85264,2.82208 3.29926,3.283172 13.50436,2.544994 6.85468,-0.495833 12.46304,-0.18468 12.46304,0.691596 0,2.68282 -2.70414,3.028395 -14.75622,1.885755 z M 182.90314,72.327744 c -0.60715,-2.321709 -0.24303,-4.22129 0.80914,-4.22129 1.05217,0 1.91305,1.899581 1.91305,4.22129 0,2.321709 -0.36412,4.22129 -0.80917,4.22129 -0.44503,0 -1.3059,-1.899581 -1.91302,-4.22129 z m 12.25171,2.161786 c -0.72348,-1.170585 -0.45331,-3.66885 0.60038,-5.551672 1.66878,-2.98194 2.06615,-2.848294 3.08205,1.036516 1.24183,4.748762 -1.47742,8.082948 -3.68243,4.515156 z m 17.29786,-2.159675 c -0.60684,-2.320571 -0.24273,-4.751083 0.80915,-5.401184 1.05188,-0.650099 1.9125,1.248532 1.9125,4.21918 0,6.467122 -1.20295,6.989549 -2.72165,1.182004 z m 9.05359,-1.233313 c 0,-6.612061 4.95678,-5.888362 5.95106,0.868868 0.44791,3.043993 -0.43829,4.583624 -2.6383,4.583624 -2.15501,0 -3.31276,-1.905554 -3.31276,-5.452492 z m 9.34916,-45.884832 c -0.61268,-1.596617 -0.82986,-9.457229 -0.48262,-17.4680339 l 0.63136,-14.5651186 h 32.715 32.71499 V 10.063718 26.948877 l -32.2324,0.582875 c -25.80758,0.466707 -32.45442,0.0042 -33.34633,-2.320042 z M 262.66387,10.063718 V -4.7107976 L 247.36169,-5.3309262 232.05951,-5.9510526 V 10.063718 26.078489 l 15.30218,-0.620129 15.30218,-0.620128 z m -24.27242,11.733117 c 0,-1.092342 0.94978,-2.573087 2.11064,-3.290537 1.16085,-0.71745 2.11065,-2.254232 2.11065,-3.415087 0,-1.160855 -1.09655,-1.432959 -2.43677,-0.604657 -1.50974,0.933074 -1.86382,0.578992 -0.93075,-0.930753 2.78582,-4.5075563 5.31178,-2.487543 4.86552,3.890974 -0.24348,3.480264 -1.62993,6.329634 -3.08098,6.331935 -1.45107,0.0021 -2.6383,-0.889532 -2.63831,-1.981875 z m 16.35895,-3.340918 c -0.56008,-2.929829 -0.19587,-5.835258 0.80926,-6.456484 1.00518,-0.621247 1.82759,1.775897 1.82759,5.326972 0,7.835621 -1.25235,8.372083 -2.63685,1.129512 z M 242.76109,4.2594445 c -0.15301,-5.9835418 2.64716,-7.7081397 5.3678,-3.3060636 1.06138,1.7173702 2.04351,1.2225936 3.14219,-1.58298473 1.25131,-3.19538767 1.63038,-2.59234687 1.74653,2.77840323 0.15999,7.3989086 -2.68447,9.1547326 -5.12899,3.1659675 -1.38404,-3.3907027 -1.65004,-3.3474283 -3.24343,0.5276613 -1.52302,3.7039288 -1.75392,3.5099178 -1.8841,-1.5829837 z m 51.56246,5.8042735 V -4.7107976 L 280.07669,-5.3348944 265.82983,-5.9589913 V 10.063718 26.086426 l 14.24685,-0.624097 14.24687,-0.624097 z m -24.27242,10.677795 c 0,-1.67277 1.05119,-3.691075 2.33597,-4.48512 1.62843,-1.006419 1.46862,-1.993315 -0.52765,-3.258224 -2.23077,-1.413478 -2.04733,-1.821634 0.82998,-1.846814 4.08334,-0.03567 5.03567,5.221081 1.35766,7.494203 -1.62843,1.006419 -1.46861,1.993315 0.52765,3.258224 2.23077,1.413478 2.04733,1.821634 -0.82998,1.846814 -2.0315,0.01689 -3.69363,-1.336312 -3.69363,-3.009083 z m 13.51764,0.604636 c -0.89886,-1.454381 -0.5824,-1.865957 0.7849,-1.020897 1.26002,0.778723 2.88752,0.45058 3.61665,-0.729207 0.72915,-1.179787 -0.23415,-2.145069 -2.14069,-2.145069 -4.76813,0 -2.67753,-5.159282 2.33688,-5.767064 2.22551,-0.26974 2.81952,0.06015 1.31998,0.732922 -2.04895,0.919376 -2.13489,1.936052 -0.34596,4.091612 2.43946,2.939369 1.12586,7.274464 -2.20425,7.274464 -1.02382,0 -2.53922,-1.096544 -3.36751,-2.436761 z M 274.40621,2.7819929 c -0.0918,-4.9980908 0.54831,-6.5996248 2.04119,-5.10674 1.44021,1.44021147 1.48541,3.9001919 0.13381,7.281726 -1.91797,4.7984371 -2.04927,4.6671131 -2.17498,-2.174986 z m 5.15314,4.1324741 c -0.71176,-1.1516608 -0.32179,-3.763584 0.86659,-5.8042733 1.85347,-3.1827506 2.16983,-2.8850044 2.22487,2.0939283 0.0671,6.069666 -0.90916,7.24137 -3.09146,3.710345 z m 40.09194,-35.897682 10.39452,-10.553224 H 238.392 146.73818 l -9.05013,8.882032 c -4.97758,4.885117 -9.05013,9.634069 -9.05013,10.553225 0,0.919157 40.63923,1.671192 90.30941,1.671192 h 90.30941 z M 156.07631,-58.532244 v -16.88516 h 31.65967 31.65967 v 16.88516 16.885159 h 18.99581 18.9958 v -16.885159 -16.88516 h 31.65968 31.65967 v 16.88516 c 0,16.60374 0.088,16.885159 5.27661,16.885159 h 5.27661 V -69.08547 -96.523861 h -91.81306 -91.81305 v 27.438391 c 0,26.031287 0.21647,27.438385 4.22129,27.438385 3.86952,0 4.2213,-1.407098 4.2213,-16.885159 z m 61.20869,1.055322 V -73.30676 h -29.54902 -29.54903 v 15.829838 15.829837 h 29.54903 29.54902 z m 101.31095,0 V -73.30676 h -29.54901 -29.54903 v 15.829838 15.829837 h 29.54903 29.54901 z m 24.27243,-51.710808 10.39454,-10.55322 H 261.44987 169.6368 l -10.39453,10.55322 -10.39454,10.553224 h 91.81304 91.81305 z m -161.46433,-29.60545 v -16.94159 l 31.132,0.58409 31.13202,0.58408 0.61644,16.35751 0.61645,16.35749 h 17.85168 17.85172 v -16.88516 -16.88516 h 31.65967 31.65967 v 16.88516 c 0,16.65692 0.0722,16.88516 5.33967,16.88516 h 5.33966 l -0.5907,-26.91072 -0.59072,-26.91072 H 261.60855 169.7955 l -0.59072,26.91072 -0.59073,26.91072 h 6.39499 6.39501 z m 61.2087,1.11174 v -15.82983 h -29.54903 -29.54903 v 15.82983 15.82984 h 29.54903 29.54903 z m 99.20031,11.28143 c 0,-4.27273 -0.23395,-4.3367 -3.85983,-1.05532 -4.70481,4.25781 -6.6934,4.42941 -6.6934,0.57763 0,-1.6035 -3.32426,-5.451 -7.38725,-8.54999 l -7.38726,-5.63454 v 5.26434 c 0,3.04736 1.97548,6.64804 4.69092,8.55 2.57998,1.80711 3.84204,3.28565 2.80449,3.28565 -4.059,0 -9.60607,-7.26875 -9.60607,-12.58759 0,-12.15824 12.28068,-18.36158 21.2399,-10.7289 l 5.14317,4.38163 -6.72334,-3.68447 c -9.69669,-5.31389 -11.04572,-1.74684 -2.63031,6.95483 l 7.243,7.48937 1.33327,-5.93801 c 3.66115,-16.30581 5.22315,-15.43589 -27.71633,-15.43589 H 282.715 v 5.34441 c 0,7.54255 5.22407,19.13816 9.82779,21.81424 2.14027,1.24411 2.74116,2.2909 1.33531,2.32619 -1.40584,0.0353 -4.49268,-2.01449 -6.85958,-4.55509 l -4.30352,-4.61927 v 5.6746 5.67459 h 29.54902 c 28.85031,0 29.54904,-0.10755 29.54904,-4.54841 z m -41.2996,0.55694 c 0.6393,-1.03446 -2.79154,-5.45299 -7.62416,-9.81897 l -8.78657,-7.93813 4.81657,-3.90023 c 5.49685,-4.45109 9.17506,-4.85462 15.14194,-1.66125 8.5667,4.58476 9.15776,18.15519 1.02723,23.5841 -3.2306,2.15713 -5.97391,1.99791 -4.57501,-0.26552 z m 5.41864,-4.02275 c 0,-0.92526 -3.79917,-5.39208 -8.44258,-9.92626 -10.07114,-9.83419 -11.42139,-6.21808 -1.58299,4.23941 6.73321,7.15691 10.02557,9.02445 10.02557,5.68685 z m 2.26372,-11.63426 c -2.03134,-5.34287 -11.41829,-9.89212 -14.35396,-6.95644 -0.73723,0.73723 1.86958,4.65231 5.79293,8.70017 7.74122,7.98691 11.93579,7.13255 8.56103,-1.74373 z m 22.00869,4.87397 c -4.53417,-4.64342 -9.19376,-8.44258 -10.35462,-8.44258 -1.16085,0 1.59915,3.79916 6.13333,8.44258 4.53417,4.64342 9.19376,8.44258 10.3546,8.44258 1.16087,0 -1.59915,-3.79916 -6.13331,-8.44258 z"
       style="fill:#000000;stroke-width:2.11064482" />
  </g>
</svg>
