<?xml version="1.0" encoding="UTF-8" standalone="no"?>
<svg
   xmlns:dc="http://purl.org/dc/elements/1.1/"
   xmlns:cc="http://creativecommons.org/ns#"
   xmlns:rdf="http://www.w3.org/1999/02/22-rdf-syntax-ns#"
   xmlns:svg="http://www.w3.org/2000/svg"
   xmlns="http://www.w3.org/2000/svg"
   id="svg8"
   version="1.1"
   viewBox="0 0 500 500"
   height="500mm"
   width="500mm">
  <defs
     id="defs2" />
  <metadata
     id="metadata5">
    <rdf:RDF>
      <cc:Work
         rdf:about="">
        <dc:format>image/svg+xml</dc:format>
        <dc:type
           rdf:resource="http://purl.org/dc/dcmitype/StillImage" />
        <dc:title></dc:title>
      </cc:Work>
    </rdf:RDF>
  </metadata>
  <g
     transform="translate(0,203)"
     id="layer1">
    <path
       id="path198"
       d="m 181.75442,284.35697 c -2.97932,-2.97932 -3.34861,-41.38506 -0.39793,-41.38506 1.09432,0 1.98967,-4.47675 1.98967,-9.94834 0,-8.62188 -0.53058,-9.94833 -3.97934,-9.94833 -3.30896,0 -3.97933,-1.32645 -3.97933,-7.87377 v -7.87378 l -58.86095,-0.5823 -58.860955,-0.58232 -5.80322,-6.49781 -5.80322,-6.49779 V 46.564397 -100.03868 l 43.27525,-43.52829 c 23.801395,-23.94056 45.713415,-44.81456 48.693385,-46.38666 4.57063,-2.41126 28.1807,-2.84698 150.94022,-2.78559 148.73484,0.0744 149.2147,0.0979 157.11644,7.70451 7.84241,7.54948 7.85642,7.82711 7.85642,155.701238 V 114.46308 l -45.72414,45.85 -45.72413,45.84999 -58.73338,0.58232 -58.73337,0.5823 v 7.87378 c 0,5.67246 -0.83439,7.87377 -2.9845,7.87377 -2.25495,0 -2.9845,2.43181 -2.9845,9.94833 0,5.47159 0.89535,9.94834 1.98967,9.94834 1.1845,0 1.98965,7.52426 1.98965,18.59345 0,25.32585 0.19268,25.17921 -33.08564,25.17921 -17.42038,0 -26.58449,-0.77601 -28.1961,-2.3876 z m 56.00015,-1.09431 c 0.50725,-0.82074 -11.44164,-1.49225 -26.55308,-1.49225 -15.11144,0 -27.06032,0.67151 -26.55308,1.49225 0.50724,0.82073 12.45613,1.49225 26.55308,1.49225 14.09695,0 26.04584,-0.67152 26.55308,-1.49225 z m -28.9557,-35.28525 c -0.32003,-0.25808 -6.17782,-1.02848 -13.0173,-1.71203 l -12.43541,-1.2428 v 16.78672 16.78673 l 12.43541,0.59235 12.43542,0.59236 0.58188,-15.66707 c 0.32003,-8.61689 0.32003,-15.8782 0,-16.13626 z m 28.26829,13.48755 c 0,-16.62495 -0.0903,-16.94328 -4.47675,-15.76779 -2.46221,0.65986 -7.83431,1.21197 -11.938,1.22691 l -7.46125,0.0272 -0.004,16.41475 -0.004,16.41475 11.94162,-0.67414 11.94163,-0.67414 V 261.465 Z m -9.94833,-20.45281 c 6.31038,-1.17333 3.66727,-1.34544 -8.9535,-0.58298 -9.84885,0.59499 -18.28007,1.41052 -18.73603,1.81227 -1.53064,1.34866 18.64131,0.45311 27.68953,-1.22929 z m -36.35287,-1.23201 c -0.66115,-0.66114 -2.37724,-0.73182 -3.81353,-0.15698 -1.58723,0.63514 -1.11575,1.10661 1.20209,1.20208 2.09745,0.0864 3.27258,-0.38387 2.61144,-1.04502 z m 42.81928,-4.09495 c -1.36789,-0.55195 -3.60627,-0.55195 -4.97416,0 -1.3679,0.55195 -0.24871,1.00357 2.48708,1.00357 2.73579,0 3.85498,-0.45162 2.48708,-1.00357 z m -8.45608,-2.57825 c 9.39455,-1.29867 9.8169,-1.52184 2.9845,-1.57695 -4.37727,-0.0352 -13.33077,0.60235 -19.89667,1.417 -10.90303,1.3528 -11.16177,1.48951 -2.9845,1.57695 4.92443,0.0527 13.87793,-0.58498 19.89667,-1.417 z m -11.40272,-3.37813 c -1.34707,-0.54501 -4.03312,-0.57818 -5.969,-0.0738 -1.93588,0.50446 -0.83373,0.95038 2.44922,0.99093 3.28295,0.0406 4.86685,-0.37218 3.51978,-0.91721 z m 19.89667,-1.98967 c -1.34707,-0.54501 -4.03312,-0.57818 -5.969,-0.0738 -1.93588,0.50446 -0.83373,0.95039 2.44922,0.99094 3.28295,0.0406 4.86685,-0.37219 3.51978,-0.91722 z m -5.50945,-2.40408 c 5.23321,-0.97987 -0.75141,-1.45162 -17.47582,-1.37758 -13.98896,0.0619 -23.39014,0.69485 -20.8915,1.40651 6.28027,1.78873 28.75016,1.7718 38.36732,-0.0289 z m -36.80884,-11.21332 c 0,-6.63221 -0.33161,-6.96383 -6.96383,-6.96383 -6.37776,0 -6.96383,0.49174 -6.96383,5.84293 0,5.10099 0.82113,5.94485 6.46641,6.64541 3.55653,0.44137 6.69026,0.94577 6.96384,1.1209 0.27358,0.17513 0.49741,-2.8153 0.49741,-6.64541 z m 3.39688,-3.45872 c -0.47591,-2.47496 -0.88336,-0.91855 -0.90545,3.45872 -0.0221,4.37727 0.3673,6.40225 0.8653,4.49995 0.498,-1.9023 0.51607,-5.4837 0.0402,-7.95867 z m 28.43779,3.45872 v -6.96383 h -12.93282 -12.93284 v 6.96383 6.96383 h 12.93284 12.93282 z m 3.3612,-2.48708 c -0.50046,-1.91506 -0.90992,-0.34819 -0.90992,3.48191 0,3.83011 0.40946,5.39698 0.90992,3.48192 0.50045,-1.91505 0.50045,-5.04878 0,-6.96383 z m 16.53547,1.27456 c 0,-5.24649 -0.61125,-5.75131 -6.96383,-5.75131 -6.55149,0 -6.96384,0.38868 -6.96384,6.56431 0,6.33048 0.24808,6.53533 6.96384,5.75131 6.16508,-0.71973 6.96383,-1.47268 6.96383,-6.56431 z m 118.30621,-10.82136 c 12.38099,-5.87515 11.95934,-0.92462 12.61676,-148.134278 0.32988,-73.866374 0.0257,-138.277605 -0.67593,-143.136065 -0.91145,-6.31117 -3.16705,-10.7249 -7.89924,-15.457087 l -6.62352,-6.62352 -149.34223,0.53458 -149.342235,0.53459 -5.51616,5.51612 -5.51617,5.516107 -0.53655,142.704921 c -0.40175,106.853972 0.0583,144.140922 1.83111,148.420952 1.30221,3.14381 5.12506,7.3975 8.49522,9.4526 5.84652,3.56521 12.77537,3.73694 151.072535,3.74402 126.73392,0.006 145.7606,-0.37959 151.43641,-3.07294 z M 59.260305,195.0755 c -8.91001,-7.00862 -6.73326,-21.62802 4.07762,-27.38593 6.97389,-3.71431 12.47316,-2.71383 18.56441,3.37742 4.69263,4.69265 5.56654,7.04288 4.9771,13.3851 -1.28089,13.78188 -16.27287,19.54838 -27.61913,10.62341 z m 20.248,-1.92278 c 8.84885,-8.24394 2.89558,-23.83467 -9.07574,-23.76802 -7.15776,0.0398 -9.74479,1.84616 -12.31094,8.59564 -2.95289,7.76669 -2.74801,8.82791 2.76958,14.3455 5.94551,5.94552 12.7963,6.2498 18.6171,0.82688 z m 259.407035,1.98967 c -3.07994,-2.8694 -4.35449,-6.39011 -4.35449,-12.02843 0,-13.71161 12.55549,-21.80794 24.17525,-15.58924 5.78983,3.09863 10.07726,14.37194 7.77193,20.43539 -4.13051,10.8641 -19.38007,14.8335 -27.59269,7.18228 z m 20.60676,-2.81655 c 5.9153,-5.91528 6.28195,-13.61473 0.90441,-18.99227 -8.25336,-8.25335 -23.87601,-2.33568 -23.87601,9.04394 0,6.12252 8.17849,14.83206 13.92767,14.83206 2.28812,0 6.35788,-2.19768 9.04393,-4.88373 z M 91.721985,166.46923 c -1.03959,-1.03961 -1.91831,-10.44078 -1.95269,-20.8915 -0.0584,-17.75621 -0.37697,-19.22997 -4.8611,-22.49084 -2.63922,-1.91923 -8.20702,-4.19792 -12.3729,-5.06376 l -7.57432,-1.57422 -0.42125,-68.441825 c -0.28826,-46.8338089 0.25978,-69.262403 1.73588,-71.040988 1.18642,-1.42955 4.37156,-2.599181 7.07809,-2.599181 2.70654,0 7.52133,-1.536068 10.69955,-3.413488 5.73894,-3.390076 5.77857,-3.544269 5.77857,-22.483233 0,-12.179136 0.86273,-19.932475 2.3876,-21.457345 1.80227,-1.802273 30.749215,-2.387603 118.076805,-2.387603 110.14357,0 115.84931,0.1769 119.02902,3.690443 3.06026,3.381553 3.29423,13.484625 2.79545,120.70698 -0.36928,79.38169 -1.21526,117.24001 -2.63038,117.71134 -5.19227,1.72942 -236.031215,1.47233 -237.768325,-0.26478 z M 327.59701,46.989748 V -70.400583 H 210.20666 92.816315 l -0.51641,115.400665 c -0.28402,63.470358 -0.0855,116.527008 0.44108,117.903678 0.75733,1.97974 25.405755,2.39568 117.906755,1.98967 l 116.94927,-0.51335 z M 119.67682,102.72048 V 69.870915 h -9.94834 c -7.51652,0 -9.948325,-0.729551 -9.948325,-2.9845 0,-2.346792 2.763415,-2.9845 12.932825,-2.9845 h 12.93284 v 32.8295 32.829495 h 5.969 5.969 V 48.979415 c 0,-70.301554 0.38074,-80.581499 2.9845,-80.581499 2.60376,0 2.9845,10.279945 2.9845,80.581499 v 80.581495 h 6.0129 6.01289 L 155.0373,48.978738 c -0.50801,-75.624917 -0.32711,-80.582135 2.9406,-80.5815 3.25879,6.34e-4 3.48192,5.164595 3.48192,80.582177 v 80.581495 h 6.0129 6.01289 L 172.9443,48.928619 c -0.47527,-70.795387 -0.17721,-80.562146 2.44319,-80.05724 2.58355,0.497805 3.05436,11.330302 3.50449,80.632293 l 0.51999,80.057238 h 4.95159 4.9516 V 48.979415 c 0,-70.301554 0.38074,-80.581499 2.9845,-80.581499 2.60376,0 2.9845,10.279945 2.9845,80.581499 v 80.581495 h 5.969 5.969 V 48.979415 c 0,-70.301554 0.38074,-80.581499 2.9845,-80.581499 2.60376,0 2.9845,10.279945 2.9845,80.581499 v 80.581495 h 5.969 5.969 V 48.979415 c 0,-70.301554 0.38074,-80.581499 2.9845,-80.581499 2.60376,0 2.9845,10.279945 2.9845,80.581499 v 80.581495 h 5.969 5.969 V 48.979415 c 0,-70.301554 0.38074,-80.581499 2.9845,-80.581499 2.60376,0 2.9845,10.279945 2.9845,80.581499 v 80.581495 h 5.969 5.969 V 48.979415 c 0,-70.301554 0.38075,-80.581499 2.9845,-80.581499 2.60376,0 2.9845,10.279945 2.9845,80.581499 v 80.581495 h 5.969 5.96901 V 48.813616 c 0,-63.713324 0.52465,-80.572516 2.48708,-79.918715 1.92299,0.640661 2.60503,18.955066 3.00706,80.747312 l 0.52,79.918697 h 4.95159 4.9516 V 45.000082 c 0,-83.381752 0.0557,-84.560833 4.00025,-84.560833 3.95416,0 3.99427,1.002874 3.48191,87.047916 l -0.51833,87.047915 -91.02725,0.51749 -91.02725,0.51749 z m 7.95866,-16.269017 V 51.963915 h -15.06839 c -13.277505,0 -14.989425,-0.413831 -14.403975,-3.481917 0.54701,-2.866691 3.209445,-3.5852 15.068385,-4.0665 l 14.40398,-0.584584 V 1.1181831 -41.59456 l 82.07376,0.519488 82.07376,0.519488 0.51946,80.747298 c 0.45637,70.941196 0.1544,80.747316 -2.48708,80.747316 -2.63132,0 -3.00655,-9.76706 -3.00655,-78.260233 v -78.260214 h -5.969 -5.969 v 78.260214 c 0,68.238203 -0.38218,78.260233 -2.9845,78.260233 -2.6023,0 -2.9845,-10.02203 -2.9845,-78.260233 v -78.260214 h -5.969 -5.969 v 78.757631 c 0,62.122066 -0.52533,78.582436 -2.48708,77.928136 -1.93322,-0.64477 -2.48709,-18.18404 -2.48709,-78.758006 v -77.928499 l -6.46641,3.7e-4 -6.46642,3.68e-4 v 78.757631 c 0,62.122066 -0.52533,78.582436 -2.48709,77.928136 -1.93321,-0.64477 -2.48708,-18.18404 -2.48708,-78.758006 v -77.928499 l -6.46642,3.7e-4 -6.46641,3.68e-4 v 78.757631 c 0,62.121646 -0.52535,78.582596 -2.48709,77.928926 -1.93323,-0.64417 -2.48708,-18.18286 -2.48708,-78.757304 v -77.928609 l -5.47158,-3.22e-4 -5.47159,-3.22e-4 v 78.260214 c 0,68.238203 -0.38219,78.260233 -2.9845,78.260233 -2.6023,0 -2.9845,-10.02203 -2.9845,-78.260233 v -78.260214 h -5.969 -5.96899 v 78.260214 c 0,68.238203 -0.38221,78.260233 -2.9845,78.260233 -2.60231,0 -2.9845,-10.02203 -2.9845,-78.260233 v -78.260214 h -5.969 -5.969 v 78.260214 c 0,68.238203 -0.3822,78.260233 -2.9845,78.260233 -2.60231,0 -2.9845,-10.02203 -2.9845,-78.260233 v -78.260214 h -5.969 -5.969 v 78.260214 c 0,68.238203 -0.3822,78.260233 -2.9845,78.260233 -2.60231,0 -2.9845,-10.02203 -2.9845,-78.260233 v -78.260214 h -5.969 -5.96901 v 78.260214 c 0,68.238203 -0.38219,78.260233 -2.9845,78.260233 -2.5381,0 -2.9845,-5.15841 -2.98451,-34.487567 z m -37.803665,-40.4273 v -75.57809 l -6.46642,3.94265 c -3.55653,2.168458 -8.48095,3.945998 -10.94316,3.950089 l -4.47675,0.0074 v 67.711102 c 0,62.748846 0.25517,67.790286 3.48191,68.791266 1.91506,0.59409 6.16797,2.29942 9.45092,3.78964 3.28295,1.49022 6.64051,2.76675 7.46125,2.83674 0.82074,0.07 1.49225,-33.882898 1.49225,-75.450834 z m -17.80812,28.010845 c -1.54229,-2.881793 -1.1681,-4.859939 1.55556,-8.223531 3.05066,-3.767413 4.23513,-4.081741 7.92979,-2.10443 4.77125,2.553498 5.68069,8.010079 1.95584,11.734934 -3.56899,3.568985 -9.14512,2.883266 -11.44119,-1.406973 z m 9.84945,-3.16926 c 0,-5.055703 -4.53154,-6.920021 -7.02272,-2.889215 -1.91648,3.100935 0.49144,7.863382 3.97578,7.863382 1.92363,0 3.04694,-1.833816 3.04694,-4.974167 z m -9.73742,-44.373406 c -2.86726,-5.357516 1.49883,-10.931746 7.85923,-10.033969 3.92402,0.553884 4.86269,1.838612 4.86269,6.655376 0,4.995675 -0.87039,6.069557 -5.33776,6.585657 -3.65687,0.422486 -5.98218,-0.587449 -7.38416,-3.207064 z m 9.37839,-2.725326 c -0.34969,-2.376498 -1.75452,-4.689326 -3.12184,-5.139627 -3.60756,-1.18807 -5.61302,5.531153 -2.28064,7.641195 4.4885,2.842099 6.08032,2.105027 5.40248,-2.501568 z m -18.74244,-98.051809 c -6.8786,-2.94062 -8.75386,-6.3314 -8.75386,-15.82836 0,-8.6825 6.94119,-15.106597 16.32256,-15.106597 9.34283,0 15.58946,5.287057 16.7923,14.212757 1.76248,13.07843 -11.53419,22.205698 -24.361,16.7222 z m 17.11181,-5.06929 c 8.25335,-8.25335 2.33568,-23.875997 -9.04394,-23.875997 -7.61156,0 -15.52903,8.813017 -13.94296,15.520037 2.68808,11.36703 15.36694,15.975919 22.9869,8.35596 z m 265.140625,6.556787 c -6.21898,-1.199327 -10.46326,-8.074027 -10.46326,-16.947837 0,-9.65583 5.54998,-15.474617 14.75976,-15.474617 9.60659,0 12.81254,1.63998 16.26776,8.321607 4.44607,8.59774 0.65569,18.96872 -8.30029,22.71078 -3.67516,1.535569 -6.93469,2.670015 -7.24341,2.520989 -0.30873,-0.149026 -2.56798,-0.657941 -5.02056,-1.130922 z m 15.4024,-6.556787 c 5.37753,-5.37754 5.01089,-13.07698 -0.90441,-18.99227 -6.19702,-6.197037 -11.89082,-6.197037 -18.08785,0 -5.43885,5.43885 -5.94719,8.51232 -2.61685,15.82165 3.55239,7.79665 15.26461,9.515133 21.60911,3.17062 z m 34.80356,244.278093 c 0.64733,-3.58212 0.91566,-69.274055 0.59629,-145.982095 -0.66349,-159.360045 5e-4,-153.325095 -14.98496,-136.194475 -4.83199,5.52373 -9.80466,10.04314 -11.05031,10.04314 -1.24565,0 2.51808,-4.84305 8.36385,-10.76234 l 10.62865,-10.76234 -6.12106,-3.16533 c -5.43032,-2.80812 -22.30962,-3.16532 -149.5747,-3.16532 -158.526295,0 -147.895825,-0.87281 -161.578035,13.26626 l -7.37886,7.62524 H 212.24597 360.36103 l 7.49398,7.49417 7.494,7.494177 0.49025,143.720497 c 0.26964,79.046266 0.49348,143.920756 0.49742,144.165526 0.004,0.24479 3.99175,-3.53951 8.86178,-8.40954 5.49229,-5.4923 9.30155,-11.32775 10.03161,-15.36757 z m 29.30158,-23.92252 24.43504,-24.37341 0.51158,-145.245664 c 0.49741,-141.228376 0.40375,-145.421536 -3.38703,-151.604126 -2.68857,-4.38497 -5.93503,-6.72633 -10.45989,-7.54372 -3.60874,-0.6519 -72.14164,-0.92432 -152.29533,-0.60538 l -145.73402,0.57989 -25.36759,25.36825 -25.367585,25.36825 H 233.665 c 133.53154,0 147.25457,0.29903 151.84809,3.30883 l 5.04992,3.30882 26.71475,-26.65976 c 14.69312,-14.66287 26.71476,-25.92729 26.71476,-25.03203 0,0.89525 -11.58727,13.30519 -25.74946,27.57764 l -25.74945,25.9499 3.3657,5.13597 c 3.08166,4.70253 3.3657,17.10727 3.3657,146.987695 0,78.018465 0.19618,141.851845 0.4358,141.852005 0.23967,1.4e-4 11.43155,-10.96778 24.87084,-24.37316 z"
       style="fill:#000000;stroke-width:1.9896667" />
  </g>
</svg>
