<?xml version="1.0" encoding="UTF-8" standalone="no"?>
<svg
   xmlns:dc="http://purl.org/dc/elements/1.1/"
   xmlns:cc="http://creativecommons.org/ns#"
   xmlns:rdf="http://www.w3.org/1999/02/22-rdf-syntax-ns#"
   xmlns:svg="http://www.w3.org/2000/svg"
   xmlns="http://www.w3.org/2000/svg"
   id="svg8"
   version="1.1"
   viewBox="0 0 500 500"
   height="500mm"
   width="500mm">
  <defs
     id="defs2" />
  <metadata
     id="metadata5">
    <rdf:RDF>
      <cc:Work
         rdf:about="">
        <dc:format>image/svg+xml</dc:format>
        <dc:type
           rdf:resource="http://purl.org/dc/dcmitype/StillImage" />
        <dc:title></dc:title>
      </cc:Work>
    </rdf:RDF>
  </metadata>
  <g
     transform="translate(0,203)"
     id="layer1">
    <path
       id="path260"
       d="m 224.53692,286.61294 c -7.33791,-1.53266 -7.80635,-1.70827 -18.98436,-7.11706 -6.17019,-2.98561 -11.48788,-6.56794 -16.82744,-11.33599 -4.29359,-3.83405 -9.26023,-7.86942 -11.03699,-8.96753 -7.04135,-4.35179 -20.20966,-24.34049 -28.21594,-42.83013 -13.53069,-31.24763 -21.20064,-68.476 -24.10521,-117.001674 -0.94798,-15.837585 0.0551,-55.577532 1.61119,-63.834982 0.30981,-1.64397 0.92873,-6.800056 1.37537,-11.45797 2.02732,-21.1425565 6.06784,-44.152779 11.02216,-62.769749 0.51039,-1.917964 1.87179,-7.298229 3.02532,-11.956143 2.07659,-8.385291 3.34249,-12.582016 4.95883,-16.439696 0.45921,-1.095979 2.22973,-6.252066 3.9345,-11.45797 1.70476,-5.205903 3.70075,-10.810347 4.43552,-12.454317 0.73477,-1.64397 2.77902,-6.3517 4.54278,-10.461619 9.10499,-21.21651 19.04288,-38.23918 31.41827,-53.81653 14.20284,-17.87765 28.79885,-29.1657 44.80214,-34.64843 15.29895,-5.24142 22.14498,-5.29921 39.35564,-0.33219 1.91796,0.55353 5.14247,1.42695 7.16556,1.94094 3.57006,0.90702 6.29244,2.18857 19.60345,9.22826 12.52361,6.62325 27.27735,21.37464 36.33787,36.33208 4.76837,7.8718 10.863,20.23603 15.6901,31.83059 1.73414,4.16537 4.89602,14.850519 4.89602,16.545449 0,0.97313 0.39666,2.01449 0.88146,2.31411 0.48482,0.29963 1.12044,1.78325 1.41251,3.29692 0.29208,1.51368 1.04612,4.54557 1.67565,6.737529 2.11539,7.365592 3.13806,11.92152 4.02571,17.934214 0.48539,3.287939 1.39213,9.116559 2.01497,12.952488 6.48621,39.946897 7.21384,84.920645 2.01497,124.543152 -2.74192,20.897124 -4.82998,34.944258 -6.03522,40.601068 -2.25598,10.58854 -2.89543,13.35683 -3.85495,16.68878 -1.27236,4.41832 -2.00506,7.33324 -3.25571,12.95249 -1.41204,6.34431 -2.96127,12.12152 -3.87413,14.44701 -0.43023,1.09598 -1.32109,3.56193 -1.97968,5.4799 -0.65859,1.91796 -1.54945,4.38391 -1.97968,5.47989 -0.43022,1.09598 -1.35964,4.01029 -2.06538,6.47625 -0.70573,2.46595 -1.65355,4.90949 -2.10626,5.43008 -0.4527,0.52059 -0.83716,1.64148 -0.85436,2.49086 -0.0172,0.84939 -1.36226,4.22305 -2.98904,7.49704 -1.62677,3.27399 -2.95777,6.38153 -2.95777,6.90565 0,0.97217 -12.02841,25.59112 -12.94614,26.49728 -0.27748,0.274 -1.24593,1.84324 -2.1521,3.48721 -1.86265,3.37921 -6.97732,6.35703 -11.04131,6.42839 -1.96836,0.0346 -3.35221,0.99294 -4.98173,3.45012 -9.9303,14.97393 -26.35244,31.9417 -37.12836,38.36198 -11.47264,6.83538 -16.14018,8.71471 -27.22642,10.96245 -6.53384,1.32473 -11.82563,1.21398 -19.60181,-0.4102 z m 19.31385,-1.60819 c 3.62513,-0.60591 7.48784,-1.4392 8.58382,-1.85176 3.15443,-1.18741 18.8775,-9.18208 19.42873,-9.87886 0.27399,-0.34635 2.29159,-1.94321 4.48355,-3.54857 8.04422,-5.8915 29.58785,-29.66799 31.21881,-34.45445 0.18663,-0.54767 -1.80111,-0.97466 -4.5373,-0.97466 -4.84563,0 -4.8946,0.0331 -10.01642,6.77021 -8.7137,11.46178 -20.69874,22.12318 -31.40585,27.93736 -16.29419,8.84808 -30.80694,9.46342 -45.39022,1.92455 -4.41455,-2.28212 -6.60032,-2.75639 -12.7034,-2.75639 -4.05428,0 -7.35755,0.33627 -7.3406,0.74726 0.0543,1.31661 8.21555,6.91458 15.63115,10.7217 11.29754,5.80008 20.36094,7.31695 32.04773,5.36361 z m 4.80064,-13.9508 c 8.70918,-3.44893 17.7685,-8.7459 24.25186,-14.18006 6.97845,-5.84912 18.88695,-18.92452 18.88695,-20.73766 0,-2.27609 -3.78118,-0.35365 -7.40412,3.76444 -6.65449,7.56395 -14.02351,14.84612 -18.12854,17.91489 -2.12185,1.58623 -4.72743,3.66866 -5.79019,4.62764 -1.06275,0.95898 -2.52027,1.7436 -3.23893,1.7436 -0.71865,0 -1.30665,0.44836 -1.30665,0.99635 0,0.54799 -0.67862,0.99634 -1.50803,0.99634 -0.82942,0 -2.39867,0.44836 -3.48721,0.99635 -1.08855,0.54799 -2.8698,1.4447 -3.95834,1.99269 -1.08855,0.54799 -2.88197,0.99634 -3.98538,0.99634 -1.10342,0 -2.00621,0.44836 -2.00621,0.99635 0,1.32587 4.20424,1.2671 7.67479,-0.10727 z m -8.74188,-2.03934 c 9.19646,-2.97314 15.29083,-5.45872 16.82444,-6.86181 0.92328,-0.8447 3.69629,-2.92129 6.16224,-4.61464 5.11737,-3.51405 19.92691,-18.63529 19.92691,-20.34632 0,-0.68073 -0.89726,-0.90818 -2.24178,-0.5683 -1.23298,0.31169 -3.58684,0.8336 -5.23081,1.15982 -4.56041,0.9049 -10.67817,2.60341 -13.45066,3.73438 -1.36998,0.55885 -3.61176,1.46444 -4.98173,2.01243 -1.36998,0.54799 -3.61175,1.4447 -4.98173,1.99269 -1.36997,0.54799 -3.61175,1.43702 -4.98172,1.97563 -7.90674,3.10853 -31.38488,17.22874 -31.38488,18.87547 0,3.02801 17.32693,4.90784 24.33972,2.64065 z m -30.83352,-7.12097 c 1.92762,-1.09946 5.1861,-2.90988 7.24106,-4.02316 2.05496,-1.11326 3.7363,-2.50961 3.7363,-3.10298 0,-0.59337 -1.79374,-3.3124 -3.9861,-6.04231 -4.75304,-5.91846 -5.09303,-6.38644 -6.81831,-9.38517 -1.25776,-2.18613 -2.17859,-3.80653 -7.12981,-12.54647 -1.09598,-1.93464 -1.99269,-3.94101 -1.99269,-4.4586 0,-0.5176 -1.34506,-3.87785 -2.98903,-7.46724 -1.64397,-3.58938 -2.98904,-7.11272 -2.98904,-7.82965 0,-0.71693 -0.30727,-1.61079 -0.68283,-1.98634 -1.19457,-1.19457 -3.27199,-8.01875 -3.28755,-10.79936 -0.008,-1.47464 -0.46336,-2.95825 -1.01135,-3.29693 -0.54799,-0.33868 -0.99634,-1.90792 -0.99634,-3.48721 0,-1.57929 -0.44836,-3.14853 -0.99635,-3.48721 -0.54799,-0.33867 -0.99634,-1.90792 -0.99634,-3.48721 0,-1.57928 -0.401,-3.11925 -0.8911,-3.42216 -0.4901,-0.3029 -1.1457,-2.23486 -1.45689,-4.29326 -0.31119,-2.0584 -1.0521,-6.88103 -1.64646,-10.71696 -5.2346,-33.78296 -6.89359,-76.525453 -4.15723,-107.107114 3.20947,-35.869056 4.93112,-47.5411905 10.14042,-68.74782 0.60575,-2.465955 1.51517,-6.501153 2.02092,-8.967107 0.50576,-2.465955 1.41092,-6.276975 2.01147,-8.468935 0.60056,-2.191959 1.34508,-5.106269 1.65448,-6.476244 0.30941,-1.369974 0.86738,-2.939218 1.23994,-3.487208 0.37255,-0.54799 1.70351,-4.35901 2.95767,-8.468934 1.25417,-4.109924 2.6826,-8.251124 3.1743,-9.202673 0.4917,-0.95155 0.894,-2.414782 0.894,-3.251643 0,-0.83686 0.39929,-2.300092 0.88731,-3.251642 0.48802,-0.951549 1.88989,-3.97186 3.11525,-6.71181 2.10201,-4.700099 2.76164,-6.301236 4.82308,-11.707056 0.91251,-2.392952 3.20457,-6.997585 9.05115,-18.183304 7.30456,-13.97513 20.71104,-32.18053 29.61453,-40.2152 5.34588,-4.82421 14.17676,-10.93398 18.76564,-12.98327 1.64397,-0.73416 3.76757,-1.73088 4.71912,-2.21493 2.39523,-1.21846 22.4157,-1.11806 23.17855,0.11624 0.33867,0.54799 1.28645,0.99635 2.10616,0.99635 2.31944,0 12.33888,7.19087 17.51906,12.57328 7.13182,7.41025 8.66178,9.34894 12.48682,15.82256 6.43653,10.89339 8.16529,14.18371 10.28292,19.57133 2.56472,6.52509 4.797,11.739259 6.01154,14.041799 0.50192,0.95155 0.91258,2.60642 0.91258,3.67749 0,1.07108 0.39882,2.19389 0.88626,2.49515 0.83659,0.51704 1.42437,3.040255 2.74443,11.781341 0.31086,2.0584 0.96618,3.990363 1.45628,4.293262 0.49011,0.302908 0.89111,1.84288 0.89111,3.422166 0,1.579287 0.40099,3.119258 0.8911,3.422167 0.4901,0.302899 1.14509,2.234862 1.45553,4.293262 0.31044,2.058399 1.04717,6.432674 1.63717,9.720613 1.33771,7.454645 2.38055,16.026721 4.12118,33.875737 3.32895,34.136113 0.30151,96.800329 -6.05305,125.290413 -2.59781,11.64708 -2.97597,13.37308 -3.54713,16.19061 -2.79458,13.78541 -6.4092,27.4229 -7.64516,28.84419 -0.45271,0.52059 -0.8231,1.75966 -0.8231,2.75347 0,0.99382 -0.40465,2.58548 -0.89924,3.53703 -0.49457,0.95155 -1.44239,3.74768 -2.10625,6.21364 -0.66386,2.46595 -1.66426,5.60444 -2.22311,6.97441 -0.55885,1.36998 -1.35977,3.38758 -1.77983,4.48356 -0.42006,1.09598 -1.70513,4.11749 -2.85572,6.71447 -1.15059,2.59698 -2.09199,5.1811 -2.09199,5.7425 0,0.5614 -0.40404,1.79926 -0.89786,2.75081 -0.49381,0.95155 -3.28494,6.66199 -6.2025,12.68988 -2.91756,6.02789 -6.54872,12.834 -8.06925,15.1247 -1.52054,2.29069 -2.7646,4.59365 -2.7646,5.11768 0,1.1732 8.03373,2.47102 10.18526,1.6454 1.34819,-0.51735 15.73972,-27.59303 15.72503,-29.5845 -0.006,-0.79625 5.42669,-13.20388 6.98484,-15.95296 0.53933,-0.95155 0.9806,-2.60642 0.9806,-3.67749 0,-1.07108 0.44836,-2.22451 0.99635,-2.56318 0.54799,-0.33868 0.99634,-1.84472 0.99634,-3.34675 0,-1.50203 0.35684,-3.1569 0.79296,-3.67749 0.43612,-0.52059 1.36247,-2.73995 2.05854,-4.93191 0.69608,-2.19196 1.63321,-4.88209 2.08253,-5.97807 0.4493,-1.09598 1.34676,-4.01029 1.99434,-6.47624 0.64758,-2.46596 1.5954,-5.86045 2.10625,-7.54333 0.51086,-1.68288 0.92884,-4.23446 0.92884,-5.67018 0,-1.43573 0.44835,-2.88751 0.99634,-3.22619 0.54799,-0.33868 0.99635,-2.1321 0.99635,-3.98538 0,-1.85328 0.401,-3.61743 0.8911,-3.92034 0.4901,-0.3029 1.13364,-2.23486 1.43007,-4.29326 0.29645,-2.0584 1.03999,-5.98432 1.65231,-8.72427 1.60287,-7.17228 3.50235,-20.201894 6.02784,-41.348326 4.4165,-36.980309 4.41161,-75.0573462 -0.0138,-107.605283 -2.82758,-20.796206 -3.60209,-25.951595 -5.65189,-37.621268 -0.31372,-1.786049 -0.96922,-3.493834 -1.45666,-3.795099 -0.48742,-0.301255 -0.88623,-1.498244 -0.88623,-2.659973 0,-2.243341 -1.65709,-8.079642 -3.11135,-10.958212 -0.48072,-0.95155 -0.87403,-2.48896 -0.87403,-3.41647 0,-1.71277 -1.4608,-6.772579 -3.2604,-11.293139 -0.54538,-1.36998 -1.32317,-3.38758 -1.72841,-4.48356 -0.40526,-1.09598 -1.74713,-4.23446 -2.98195,-6.97441 -1.23483,-2.73995 -2.689,-6.10262 -3.23151,-7.47259 -1.14416,-2.88936 -2.14835,-4.87319 -4.98635,-9.85087 -1.12882,-1.97989 -2.96919,-5.29223 -4.0897,-7.36076 -1.12052,-2.06853 -2.74501,-4.53448 -3.60998,-5.4799 -0.86496,-0.94541 -2.66229,-3.28817 -3.99405,-5.20614 -6.20714,-8.93935 -19.97531,-21.09546 -27.76299,-24.51232 -11.97804,-5.25538 -14.25804,-5.79318 -24.56045,-5.79318 -9.14361,0 -11.43132,0.41139 -18.93056,3.40418 -1.09598,0.43738 -3.56194,1.36963 -5.4799,2.07166 -3.15599,1.15518 -11.72206,6.36264 -12.95249,7.87404 -0.27399,0.33656 -2.06742,1.68529 -3.98538,2.99717 -4.71118,3.22242 -16.56168,15.44185 -21.90457,22.58649 -2.39334,3.20043 -5.61759,7.47401 -7.16501,9.49684 -1.5474,2.02283 -2.81347,3.89542 -2.81347,4.16133 0,0.2659 -2.13662,3.99112 -4.74804,8.27827 -4.24551,6.96981 -13.99199,26.086179 -16.29285,31.956179 -1.33049,3.394412 -2.74696,6.921703 -4.00105,9.963456 -0.6213,1.506972 -1.57033,3.860837 -2.10893,5.230812 -0.53861,1.369975 -1.37533,3.269397 -1.85938,4.220947 -0.48406,0.951549 -0.8801,2.414782 -0.8801,3.251642 0,0.836861 -0.40466,2.300093 -0.89925,3.251643 -0.49457,0.951549 -1.44238,3.747682 -2.10625,6.213637 -0.66385,2.465954 -1.55088,5.380264 -1.97116,6.476244 -2.06666,5.389351 -5.54513,18.368013 -7.47698,27.897666 -0.33327,1.64397 -1.0302,4.894546 -1.54874,7.223503 -3.91706,17.5929445 -4.79445,22.0783815 -5.99302,30.637615 -2.80818,20.053789 -5.41941,57.666459 -5.1878,74.725892 0.20999,15.467224 1.80301,42.516614 3.22727,54.798984 1.92232,16.57751 2.8622,21.91604 6.09554,34.623 0.59261,2.32896 1.3125,5.91861 1.59976,7.97701 0.28726,2.0584 0.92328,3.99036 1.41338,4.29326 0.4901,0.30291 0.8911,1.72542 0.8911,3.16115 0,2.52766 1.21396,7.07655 3.2604,12.21716 0.54538,1.36997 1.31998,3.38757 1.72133,4.48355 1.08868,2.97287 3.10495,7.7416 4.10162,9.70085 0.48406,0.95155 0.89417,2.29661 0.91137,2.98903 0.0314,1.2625 2.84908,7.05142 8.85069,18.18346 4.50016,8.3471 14.16851,21.54832 16.38131,22.36713 2.69524,0.99733 7.57276,0.0587 11.58395,-2.22916 z m 4.99929,1.29682 c 0,-0.54799 -0.44836,-0.99635 -0.99635,-0.99635 -0.54799,0 -0.99635,0.44836 -0.99635,0.99635 0,0.54799 0.44836,0.99634 0.99635,0.99634 0.54799,0 0.99635,-0.44835 0.99635,-0.99634 z m -21.9196,-0.58015 c 0,-0.31908 -2.04604,-3.34548 -4.54677,-6.72533 -4.2805,-5.7853 -9.13646,-13.99713 -13.64988,-23.08305 -1.08886,-2.19196 -2.37196,-4.76392 -2.85134,-5.71547 -0.47938,-0.95155 -0.8716,-2.1894 -0.8716,-2.75081 0,-0.5614 -0.9414,-3.14552 -2.09199,-5.7425 -4.24081,-9.57185 -5.63393,-13.83507 -8.95002,-27.38863 -1.08669,-4.44158 -2.54834,-10.29573 -3.85586,-15.44336 -1.92134,-7.56426 -2.20333,-9.33248 -5.04482,-31.63396 -5.03079,-39.48423 -4.472,-77.076446 1.92531,-129.524876 0.53472,-4.383919 1.45909,-10.4367165 2.05416,-13.4506615 2.29308,-11.6141455 2.92028,-14.5844805 3.94466,-18.6814715 2.07206,-8.287171 3.07461,-12.750409 3.6368,-16.19061 0.31343,-1.917964 0.93137,-4.383919 1.37321,-5.479899 0.44184,-1.095979 1.3465,-4.010289 2.01036,-6.476243 0.66386,-2.465955 1.61168,-5.262088 2.10625,-6.213638 0.49459,-0.951549 0.89924,-2.414782 0.89924,-3.251642 0,-0.83686 0.40466,-2.300093 0.89925,-3.251642 0.49457,-0.95155 1.44239,-3.747683 2.10625,-6.213638 0.66386,-2.465954 1.66426,-5.604442 2.22311,-6.974416 0.55885,-1.369975 1.34765,-3.387574 1.7529,-4.483554 0.40525,-1.095979 1.64569,-4.010289 2.75654,-6.476244 1.11086,-2.465954 3.0171,-7.071316 4.23609,-10.234116 2.89444,-7.509949 13.36815,-28.202089 14.99255,-29.619689 0.31397,-0.274 0.86492,-1.17071 1.22433,-1.99269 1.88308,-4.30659 12.39418,-19.44266 17.43901,-25.11228 10.49863,-11.79889 13.28882,-14.50236 20.61962,-19.97873 6.87639,-5.13691 12.14854,-8.09458 20.92325,-11.73792 3.12663,-1.2982 8.44518,-2.73151 14.94518,-4.0276 4.6296,-0.92314 5.52858,-1.36994 3.98538,-1.98077 -4.40278,-1.7427 -15.55405,-0.75032 -25.90497,2.30534 -16.73183,4.93936 -38.86245,24.42947 -54.39499,47.90489 -8.45459,12.77801 -18.75662,32.25399 -23.81622,45.024539 -1.73333,4.37498 -3.75622,9.299575 -4.4953,10.943544 -3.19371,7.103882 -12.6925,37.668216 -15.01777,48.322743 -0.89695,4.109924 -2.05271,9.266011 -2.56833,11.45797 -1.04341,4.43556 -2.55719,11.6400718 -3.87295,18.4323865 -3.93759,20.3270965 -7.93417,64.8043465 -7.90255,87.9462875 0.0319,23.34412 3.47916,60.48298 7.51237,80.93423 4.87001,24.69443 16.27583,59.08701 20.3117,61.24694 0.94017,0.50317 3.19323,3.74177 5.00678,7.19689 7.15113,13.62406 20.95106,32.14579 20.95106,28.11968 z m 27.13085,-2.40889 c 1.81395,-1.68994 1.8833,-1.99269 0.45651,-1.99269 -0.92531,0 -1.68238,0.44836 -1.68238,0.99635 0,0.54799 -0.67254,0.99634 -1.49452,0.99634 -0.82199,0 -1.49452,0.44836 -1.49452,0.99635 0,1.60324 1.90895,1.15198 4.21491,-0.99635 z m 12.22479,-6.97441 c 2.38942,-1.64397 4.82407,-2.98904 5.41033,-2.98904 0.58625,0 1.06591,-0.44836 1.06591,-0.99635 0,-0.54799 0.89671,-0.99634 1.99269,-0.99634 1.09598,0 1.99269,-0.44836 1.99269,-0.99635 0,-0.54799 0.9028,-0.99634 2.00621,-0.99634 1.10341,0 2.78475,-0.39929 3.7363,-0.88731 0.95155,-0.48802 3.97186,-1.88215 6.71181,-3.09807 2.73995,-1.21592 5.76026,-2.61006 6.71181,-3.09808 0.95155,-0.48802 2.76739,-0.8873 4.03519,-0.8873 1.26781,0 2.73106,-0.40244 3.25165,-0.89429 0.52059,-0.49187 2.73995,-1.12408 4.93191,-1.40492 2.19196,-0.28084 7.57222,-1.21464 11.95614,-2.07514 4.38392,-0.86048 10.45913,-1.57334 13.50048,-1.58413 5.18903,-0.0184 7.92094,-1.17438 7.92094,-3.35171 0,-1.03099 -10.90757,-0.26149 -19.9269,1.40578 -3.01395,0.55715 -6.94121,1.26803 -8.72726,1.57975 -1.78605,0.31171 -3.49383,0.96558 -3.7951,1.45302 -0.30125,0.48744 -1.83988,0.88626 -3.41917,0.88626 -1.57928,0 -3.14853,0.44835 -3.48721,0.99634 -0.33867,0.54799 -1.90792,0.99635 -3.4872,0.99635 -1.57929,0 -3.14853,0.44835 -3.48721,0.99634 -0.33868,0.54799 -1.4405,0.99635 -2.44849,0.99635 -1.00799,0 -4.38973,1.34506 -7.51496,2.98903 -3.12524,1.64397 -6.30926,2.98904 -7.0756,2.98904 -0.76634,0 -1.39334,0.44835 -1.39334,0.99634 0,0.54799 -0.65889,0.99635 -1.46421,0.99635 -2.37566,0 -15.43772,7.78604 -15.46132,9.21619 -0.0242,1.46802 2.18607,0.70145 6.46391,-2.24177 z m -4.98173,-2.04753 c 4.99743,-3.40137 29.11184,-14.89034 31.25359,-14.89034 1.1035,0 2.28347,-0.44836 2.62215,-0.99635 0.33868,-0.54799 1.68374,-0.99634 2.98903,-0.99634 1.3053,0 2.61842,-0.39667 2.91804,-0.88147 0.29963,-0.48481 1.78325,-1.12976 3.29693,-1.43322 1.51367,-0.30346 4.76974,-1.05897 7.23569,-1.6789 6.79902,-1.70926 14.60719,-2.9253 23.21688,-3.61579 l 7.77352,-0.62342 3.74812,-5.59797 c 3.97109,-5.93097 16.07509,-29.93238 16.07509,-31.87579 0,-0.6318 0.39605,-1.92724 0.8801,-2.87879 0.48406,-0.95155 1.33505,-2.85098 1.8911,-4.22095 0.55606,-1.36997 1.69488,-4.06011 2.53071,-5.97807 2.60511,-5.97782 4.63193,-12.36193 4.64705,-14.63729 0.008,-1.20064 0.46285,-2.46008 1.01084,-2.79875 0.54799,-0.33868 0.99634,-1.68375 0.99634,-2.98904 0,-1.30529 0.44836,-2.65036 0.99635,-2.98903 0.54799,-0.33868 0.99634,-1.68375 0.99634,-2.98904 0,-1.30529 0.44836,-2.65036 0.99635,-2.98904 0.54799,-0.33867 0.99634,-1.90792 0.99634,-3.4872 0,-1.57929 0.38786,-3.11114 0.8619,-3.40412 0.47404,-0.29297 1.18019,-2.44912 1.56922,-4.79144 0.88173,-5.30899 2.13353,-11.73484 3.54696,-18.20759 8.10428,-37.113424 10.85882,-73.465 8.07828,-106.6089425 -0.59764,-7.123869 -1.55161,-18.5569297 -2.11993,-25.4068025 -0.56833,-6.849873 -1.47852,-14.92027 -2.02266,-17.934214 -0.54414,-3.013944 -1.26012,-7.842044 -1.59108,-10.729103 -0.33095,-2.88706 -0.99388,-5.491566 -1.47317,-5.78779 -0.47929,-0.296213 -0.87144,-1.489088 -0.87144,-2.650816 0,-1.161729 -0.41397,-3.489131 -0.91993,-5.172008 -0.50595,-1.682877 -1.44913,-5.4333 -2.09596,-8.334279 -1.26719,-5.683342 -10.58145,-29.704826 -14.3961,-37.127595 -7.37992,-14.36029 -13.96401,-23.31092 -16.37161,-22.25612 -0.87266,0.38232 -7.86364,1.31284 -15.53549,2.06782 -19.04076,1.87377 -19.13667,1.81479 -20.14016,-12.38458 -0.57143,-8.08584 -0.62403,-8.21985 -3.22636,-8.21985 -3.75172,0 -19.63954,8.19541 -24.90368,12.84606 l -4.43102,3.91461 12.40178,13.221 c 6.82097,7.27155 14.12,14.989209 16.22005,17.150359 l 3.81829,3.92937 -0.50043,16.564887 c -0.74847,24.775838 -2.29167,45.413694 -3.57513,47.811867 -1.13452,2.119864 -1.33316,2.130585 -39.46449,2.130585 h -38.32424 v -3.926577 c 0,-2.159618 0.39882,-4.173062 0.88626,-4.474317 0.48744,-0.301265 1.12799,-2.009051 1.42344,-3.795099 0.8996,-5.438351 1.78034,-9.114855 2.74707,-11.467206 0.50672,-1.232977 1.30967,-3.250577 1.78434,-4.483554 0.47468,-1.232977 1.34175,-3.362665 1.92683,-4.73264 0.58509,-1.369974 1.59682,-4.284284 2.2483,-6.476243 0.65149,-2.19196 1.57783,-4.763916 2.05856,-5.715465 0.48072,-0.95155 0.87403,-2.632882 0.87403,-3.736295 0,-1.103412 0.44836,-2.006211 0.99635,-2.006211 0.54799,0 0.99635,-0.609554 0.99635,-1.354571 0,-0.745007 1.40408,-4.219761 3.12019,-7.721671 1.71611,-3.50191 3.60792,-7.488 4.20401,-8.85797 0.59609,-1.36998 2.25746,-4.28429 3.69193,-6.476249 1.43446,-2.19195 3.23895,-5.44253 4.00998,-7.2235 0.77101,-1.78097 1.74075,-3.23812 2.15497,-3.23812 0.41422,0 0.75419,-0.56044 0.75547,-1.24543 10e-4,-0.68499 1.3453,-2.81468 2.98669,-4.73264 1.6414,-1.91797 2.98541,-3.80933 2.9867,-4.20304 0.001,-0.39371 2.50452,-2.63548 5.56275,-4.98173 3.05823,-2.34624 7.42969,-5.7073 9.71437,-7.46903 2.28467,-1.76172 7.74079,-5.0596 12.12471,-7.32862 7.69661,-3.98358 8.31346,-4.1299 17.93422,-4.25409 9.68323,-0.125 10.18763,-0.0189 17.93421,3.77193 14.40142,7.04744 29.65879,25.42701 37.47084,45.138739 0.48865,1.23298 1.3968,3.47476 2.01811,4.98173 1.09023,2.64435 1.8166,4.48579 3.43884,8.718019 0.71018,1.852743 0.79336,1.820043 1.18437,-0.465612 0.2313,-1.352071 -0.0717,-2.622407 -0.67347,-2.822987 -0.60171,-0.20056 -1.09402,-1.42173 -1.09402,-2.7137 0,-1.29197 -0.44835,-2.62613 -0.99634,-2.96481 -0.54799,-0.33868 -0.99635,-1.48603 -0.99635,-2.54967 0,-1.06363 -0.44835,-1.93388 -0.99634,-1.93388 -0.54799,0 -0.99635,-1.09443 -0.99635,-2.43206 0,-1.337629 -0.44835,-2.709159 -0.99634,-3.047839 -0.54799,-0.33868 -0.99635,-1.28351 -0.99635,-2.09962 0,-1.59893 -2.26268,-6.47304 -5.96323,-12.84556 -1.27288,-2.19196 -3.23112,-5.67781 -4.35163,-7.74634 -1.12052,-2.06853 -2.73283,-4.53485 -3.5829,-5.48071 -0.85007,-0.94586 -2.85177,-3.46677 -4.4482,-5.60201 -1.59644,-2.13525 -4.28657,-5.21384 -5.97807,-6.84131 -4.2155,-4.05591 -14.09535,-10.69623 -15.91448,-10.69623 -0.81971,0 -1.76748,-0.44835 -2.10616,-0.99634 -0.34024,-0.55053 -4.82963,-0.99635 -10.03312,-0.99635 -7.5769,0 -10.34011,0.42532 -14.13911,2.17635 -10.42112,4.80328 -23.29346,15.4051 -30.6523,25.24564 -1.62992,2.17959 -3.50822,4.53964 -4.17401,5.24457 -0.66578,0.70493 -1.99543,2.61044 -2.95477,4.23447 -0.95933,1.62403 -2.09593,2.95278 -2.52578,2.95278 -0.42983,0 -0.78152,0.47296 -0.78152,1.05101 0,0.57806 -1.69341,3.60446 -3.76314,6.72533 -2.06973,3.12088 -4.3115,6.9073 -4.98172,8.41427 -2.95402,6.641979 -3.74016,8.250249 -4.26154,8.718019 -0.92889,0.83339 -4.79953,9.583794 -6.14209,13.885515 -0.69497,2.226782 -1.60278,4.048698 -2.01735,4.048698 -0.41457,0 -0.75376,0.678621 -0.75376,1.508039 0,0.829417 -0.39604,2.286572 -0.8801,3.238122 -0.94925,1.866025 -2.91374,6.490033 -4.12136,9.700845 -0.41222,1.09598 -1.30004,4.01029 -1.97295,6.476244 -0.67291,2.465954 -1.57189,5.380264 -1.99772,6.476244 -2.20537,5.676009 -5.85036,18.404967 -6.99005,24.410458 -0.46798,2.465954 -1.35539,6.501152 -1.97203,8.967107 -0.61664,2.465954 -1.52085,6.5011518 -2.00936,8.9671058 -0.4885,2.4659547 -1.38076,6.7253307 -1.98282,9.4652797 -4.01588,18.2764995 -7.39582,57.8814505 -7.35505,86.1838595 0.0411,28.550064 3.15614,62.003854 7.42186,79.707624 0.59418,2.46595 1.32164,5.94486 1.61658,7.73091 0.29495,1.78605 0.93509,3.49383 1.42253,3.7951 0.48744,0.30125 0.88626,2.06406 0.88626,3.91734 0,1.85328 0.44836,3.6467 0.99635,3.98538 0.54798,0.33868 0.99634,1.6891 0.99634,3.00095 0,1.31186 0.50418,3.63926 1.1204,5.17202 0.61622,1.53276 1.45295,3.68354 1.85939,4.77952 0.40644,1.09598 1.3073,3.33775 2.00194,4.98172 1.6549,3.91664 3.08399,7.49672 3.97721,9.96346 1.61709,4.4658 9.23605,18.82504 10.22071,19.26267 0.41099,0.18267 0.7478,0.8552 0.74847,1.49451 6.7e-4,0.63933 1.17171,2.50748 2.60231,4.15145 1.43062,1.64397 3.72506,4.44619 5.09877,6.22715 1.37372,1.78097 2.78072,3.23517 3.12667,3.23156 0.34595,-0.004 1.97407,-0.92205 3.61804,-2.04096 z m -14.21538,-15.6376 c -6.84398,-9.88644 -18.47023,-40.48126 -21.10798,-55.54625 -0.67163,-3.83593 -1.59306,-8.76784 -2.04762,-10.9598 -3.47428,-16.75381 -5.16502,-28.60304 -4.21663,-29.55144 0.47346,-0.47346 18.31893,-0.7434 39.65661,-0.59987 l 38.79577,0.26096 -0.20398,3.98538 c -0.11219,2.19196 -0.66873,10.48653 -1.23674,18.43239 -0.56802,7.94585 -1.2982,19.82727 -1.62262,26.40314 -0.33178,6.72521 -1.18727,13.26388 -1.95536,14.94518 -0.75102,1.64397 -4.36487,5.67917 -8.03076,8.96711 -3.66589,3.28794 -9.40314,8.60162 -12.74942,11.80816 -12.61658,12.08973 -16.01933,14.59499 -19.82349,14.59499 -2.76071,0 -3.98731,-0.61579 -5.45778,-2.73995 z m 14.71638,-5.23081 c 1.92378,-1.91797 5.96072,-5.56675 8.97099,-8.10841 8.5474,-7.21687 19.29831,-18.04227 20.64255,-20.78561 0.6713,-1.36997 1.45555,-7.19859 1.74277,-12.95248 1.22741,-24.58812 1.62608,-40.29175 1.00717,-39.67285 -0.36525,0.36526 -1.09954,7.53557 -1.63174,15.93401 -2.40617,37.97103 -2.24565,37.26206 -9.9959,44.14761 -11.62797,10.33063 -27.71308,25.81891 -27.71308,26.68481 0,1.16405 2.225,-0.50922 6.97724,-5.24708 z m -10.98478,1.24543 c -0.0122,-0.411 -0.89893,-1.86815 -1.97053,-3.23812 -1.07161,-1.36998 -1.95835,-3.27549 -1.97054,-4.23447 -0.0122,-0.95898 -0.47051,-1.74361 -1.0185,-1.74361 -0.54799,0 -0.99635,-0.85433 -0.99635,-1.89853 0,-1.04419 -0.96037,-3.84641 -2.13416,-6.22716 -1.17379,-2.38074 -2.57117,-5.44951 -3.10529,-6.81948 -0.53411,-1.36998 -1.36715,-3.2694 -1.85121,-4.22095 -0.48405,-0.95155 -0.8801,-2.41478 -0.8801,-3.25164 0,-0.83686 -0.40677,-2.3001 -0.90392,-3.25165 -0.49717,-0.95155 -1.65266,-4.86857 -2.56778,-8.7045 -0.91512,-3.83593 -2.10568,-8.76783 -2.6457,-10.95979 -1.61515,-6.5561 -2.89526,-13.53674 -3.83688,-20.92325 -0.489,-3.83593 -1.02737,-7.87113 -1.19638,-8.96711 -0.30123,-1.95331 0.3278,-1.99789 31.82483,-2.25558 20.27854,-0.16591 32.13213,-0.62535 32.13213,-1.24543 0,-0.626 -11.94266,-0.98254 -32.91066,-0.98254 -37.58041,0 -34.86885,-0.76619 -33.07926,9.34699 0.59334,3.35299 1.59491,9.45902 2.22572,13.56895 1.89651,12.35649 2.78016,15.75667 9.06263,34.87208 4.0655,12.3699 13.20921,31.88305 14.94016,31.88305 0.49717,0 0.89397,-0.33627 0.88179,-0.74726 z m 4.88701,-3.00294 c 0.88627,-0.96662 6.99165,-6.61943 13.56753,-12.56179 17.63306,-15.93429 17.05813,-15.11432 17.76382,-25.33471 0.3292,-4.76781 1.12486,-14.94571 1.76814,-22.61757 0.64327,-7.67186 1.21946,-15.51808 1.28044,-17.43604 l 0.11085,-3.48721 -30.32382,-0.26397 c -16.67811,-0.14519 -30.65094,0.079 -31.05073,0.49817 -1.26573,1.3271 1.68703,19.40754 6.02291,36.87966 0.57795,2.32896 1.44301,5.9158 1.92235,7.97076 0.9192,3.94071 1.63681,6.13653 3.33751,10.21254 0.57162,1.36997 1.36769,3.38757 1.76904,4.48355 0.40135,1.09598 1.29806,3.33776 1.99269,4.98173 0.69463,1.64397 1.7103,4.10992 2.25705,5.4799 2.3308,5.84023 6.41988,12.79833 7.58953,12.91458 0.20972,0.0208 1.10643,-0.75297 1.99269,-1.7196 z m -1.67655,-23.35039 c -0.65759,-0.65759 -1.19561,-2.42455 -1.19561,-3.92658 0,-1.50203 -0.44836,-3.00807 -0.99635,-3.34674 -0.54799,-0.33868 -0.99634,-2.14493 -0.99634,-4.01388 0,-1.86895 -0.82272,-4.86889 -1.82825,-6.66653 -2.60876,-4.6638 -3.33649,-8.34212 -2.60954,-13.18984 1.06333,-7.09074 8.33634,-13.4927 15.32853,-13.4927 3.53537,0 4.72715,0.62027 8.56421,4.45733 4.18605,4.18605 4.4529,4.7773 4.38451,9.71437 -0.0433,3.12785 -0.74951,6.29222 -1.74361,7.81297 -0.91893,1.40576 -2.6779,4.09589 -3.90883,5.97807 -1.23093,1.88217 -2.24625,4.09467 -2.25628,4.91665 -0.0254,2.08193 -2.91602,10.18246 -4.17481,11.69921 -1.3219,1.59278 -6.99432,1.63097 -8.56763,0.0577 z m 5.7788,-1.79343 c 0,-0.54799 -0.44835,-0.99634 -0.99634,-0.99634 -0.54799,0 -0.99635,0.44835 -0.99635,0.99634 0,0.54799 0.44836,0.99635 0.99635,0.99635 0.54799,0 0.99634,-0.44836 0.99634,-0.99635 z m 2.98904,-5.97807 c 0,-0.54799 -0.44836,-0.99634 -0.99635,-0.99634 -0.54799,0 -0.99634,0.44835 -0.99634,0.99634 0,0.54799 0.44835,0.99635 0.99634,0.99635 0.54799,0 0.99635,-0.44836 0.99635,-0.99635 z m -0.91486,-4.98172 c 0.50317,0 0.91486,-0.80894 0.91486,-1.79763 0,-0.98869 1.34506,-3.91857 2.98903,-6.51085 3.73409,-5.88803 4.05486,-11.85001 0.82268,-15.29051 -2.93267,-3.12167 -5.8044,-3.04754 -5.8044,0.14982 0,1.4361 -0.82742,2.89863 -1.99269,3.52226 -1.09598,0.58655 -1.99269,1.91072 -1.99269,2.94261 0,2.93669 -1.08042,5.02815 -2.59747,5.02815 -1.52053,0 -1.90969,2.54896 -0.52026,3.40767 0.47721,0.29494 1.15241,1.96 1.50044,3.70014 0.7937,3.96851 2.51087,6.09732 4.34927,5.39185 0.77901,-0.29893 1.82806,-0.54351 2.33123,-0.54351 z m 1.9112,-28.89401 c 0,-0.54799 -1.12088,-0.99635 -2.49086,-0.99635 -1.36997,0 -2.49086,0.44836 -2.49086,0.99635 0,0.54799 1.12089,0.99634 2.49086,0.99634 1.36998,0 2.49086,-0.44835 2.49086,-0.99634 z m 32.69319,-20.67417 c -0.18278,-0.95898 -1.33654,-1.88688 -2.56393,-2.06198 -2.67518,-0.38167 -2.87464,0.6069 -0.48799,2.41862 2.40583,1.8263 3.44483,1.70487 3.05192,-0.35664 z m -38.36285,-9.97496 -39.04723,-0.2606 -0.80658,-4.72112 c -0.99977,-5.85192 -1.07562,-64.842739 -0.0865,-67.25252 0.67404,-1.642096 3.44662,-1.737696 43.34102,-1.494518 l 42.62091,0.259807 -0.13914,6.476244 c -0.0765,3.561934 -0.62905,12.753219 -1.22782,20.425077 -0.59876,7.671856 -1.50952,19.55328 -2.02392,26.40315 -0.99194,13.2094 -1.96577,19.83153 -2.97056,20.20018 -0.33713,0.1237 -18.18423,0.10763 -39.6602,-0.0357 z m -34.18415,-3.22661 c 0,-0.54799 -0.69899,-0.99635 -1.55332,-0.99635 -0.85432,0 -1.27622,0.44836 -0.93754,0.99635 0.33868,0.54799 1.03768,0.99634 1.55332,0.99634 0.51565,0 0.93754,-0.44835 0.93754,-0.99634 z m 73.15084,-3.7363 c 0.34007,-2.60295 1.02205,-9.66454 1.51552,-15.69243 0.49347,-6.02789 1.43164,-17.012594 2.08483,-24.410462 1.85467,-21.005628 1.80426,-24.305244 -0.3779,-24.731999 -1.42271,-0.278229 -1.70192,0.07463 -1.23161,1.556471 0.3345,1.053944 0.13207,8.605105 -0.44987,16.780366 -0.58193,8.17525 -1.4486,21.366864 -1.9259,29.314694 -0.7188,11.96873 -1.53099,18.83431 -2.38249,20.13956 -0.0776,0.11894 -15.60934,0.46682 -34.51499,0.77305 l -34.37391,0.55681 35.51902,0.22329 35.51901,0.22329 z M 188.24376,95.510296 c -0.13555,-21.045628 0.13317,-30.592538 0.8611,-30.592538 0.58199,0 1.05815,-0.479541 1.05815,-1.065641 0,-0.5861 -1.0088,-0.922367 -2.24178,-0.747259 -2.07716,0.294998 -2.30131,1.013433 -3.05249,9.783662 -1.33513,15.587976 0.52827,54.22891 2.5821,53.5443 0.63281,-0.21094 0.91887,-11.36702 0.79292,-30.922524 z m 68.25097,29.795524 c 0.6726,-0.2581 1.35642,-5.22111 1.75267,-12.72051 0.65662,-12.42674 2.48792,-39.510573 2.91994,-43.183999 0.23047,-1.959671 -0.35176,-1.99269 -35.1359,-1.99269 h -35.37026 v 28.682135 c 0,20.592634 0.32417,28.882404 1.14938,29.392184 1.19377,0.73749 62.73994,0.56895 64.68417,-0.17712 z m -40.15725,-16.20368 c -3.13023,-0.67418 -6.42734,-5.74654 -6.99206,-10.756774 -1.46093,-12.961262 12.9215,-21.097328 21.72762,-12.2912 2.52768,2.52768 2.92916,3.67653 2.92916,8.38189 0,8.957484 -3.90404,14.079114 -11.24895,14.757264 -2.30692,0.213 -5.19401,0.17197 -6.41577,-0.0912 z m 2.34746,-7.07052 c 0.0302,-0.95898 0.40211,-4.321654 0.82646,-7.472594 0.63449,-4.71112 0.51308,-5.72898 -0.68333,-5.72898 -4.26885,0 -7.02503,9.51224 -3.86088,13.324814 1.76633,2.12829 3.6488,2.06589 3.71775,-0.12324 z m 9.26687,-0.88163 c 3.17241,-4.033054 2.27036,-12.319944 -1.34105,-12.319944 -1.7185,0 -2.54127,3.12408 -2.55841,9.71436 -0.0153,5.857254 0.87421,6.451574 3.89946,2.605584 z M 184.5683,46.734458 c 1.38528,-14.01513 4.81982,-37.7102325 7.54582,-52.0590392 0.52054,-2.739949 1.35128,-7.1574238 1.84609,-9.8166198 0.49481,-2.659185 1.52419,-5.230364 2.28752,-5.713731 1.6007,-1.013592 64.25433,-1.233166 73.5854,-0.257874 l 6.23289,0.65146 -0.64244,6.07387 c -0.97751,9.2416498 -2.3824,26.43814 -3.42654,41.942288 -0.51667,7.671858 -1.26821,16.526877 -1.67009,19.677818 l -0.73068,5.728985 H 226.77453 183.9528 Z m 4.59836,3.238122 c 0,-0.54799 -0.69899,-0.996346 -1.55332,-0.996346 -0.85432,0 -1.27622,0.448356 -0.93754,0.996346 0.33868,0.54799 1.03768,0.996345 1.55332,0.996345 0.51565,0 0.93754,-0.448355 0.93754,-0.996345 z m 79.20027,-3.238122 c 1.06545,-6.460821 1.51643,-33.000299 0.47829,-28.146753 -0.46884,2.19196 -0.87828,7.934126 -0.90986,12.760373 -0.059,9.008903 -1.60634,17.628156 -3.16473,17.628156 -0.48294,0 -0.87807,0.448356 -0.87807,0.996346 0,0.54799 0.84961,0.996345 1.88803,0.996345 1.44746,0 2.051,-0.988135 2.58634,-4.234467 z m -77.80736,-6.457852 c 0.35549,-3.161054 1.07344,-9.558398 1.59543,-14.216312 0.88443,-7.89199 1.67671,-12.667951 3.96679,-23.9122855 0.50223,-2.465955 1.34378,-6.7253307 1.87011,-9.4652797 0.52634,-2.7399488 1.27054,-6.2147028 1.65378,-7.7216748 0.38324,-1.506972 0.31193,-2.733084 -0.15846,-2.724695 -1.81257,0.03238 -3.09389,1.595746 -3.66207,4.468299 -0.32517,1.64397 -1.06772,5.2308118 -1.65013,7.9707608 -2.98279,14.0326067 -7.44445,49.7882782 -6.4196,51.4465162 1.14833,1.858034 2.17957,-0.291601 2.80415,-5.845329 z m 72.13737,4.514979 c 0.6644,-0.664403 1.19562,-3.853405 1.19562,-7.177602 0,-3.290091 0.43954,-10.710372 0.97677,-16.489513 2.79832,-30.1022502 2.96962,-33.266273 1.8726,-34.588085 -0.87335,-1.052329 -7.53237,-1.326245 -32.24156,-1.326245 -35.29071,0 -33.25474,-0.49059 -34.54284,8.3234578 -0.41211,2.819966 -1.20084,7.3689787 -1.75274,10.1089287 -2.01189,9.9881715 -2.92297,15.0379085 -3.50537,19.4287325 -0.32708,2.465954 -1.11128,8.219868 -1.74268,12.786477 -0.96691,6.993297 -0.92419,8.444563 0.27092,9.200929 2.26693,1.434737 68.02027,1.181934 69.46928,-0.26708 z M 215.70296,32.757109 c -1.54141,-1.127115 -1.62467,-2.003939 -0.72227,-7.607325 0.91745,-5.696803 0.82306,-6.583689 -0.93906,-8.823862 -1.07746,-1.369776 -1.95903,-2.825745 -1.95903,-3.235492 0,-0.889477 11.7278,-12.3878695 14.90435,-14.6128085 2.14669,-1.5036037 2.45795,-1.331296 8.61067,4.766735 7.23344,7.1691535 8.15232,9.0218175 6.05908,12.2165185 -0.81283,1.24052 -1.80137,5.276395 -2.19677,8.968611 -0.39541,3.692207 -1.36882,7.363012 -2.16315,8.157338 -1.90556,1.90556 -19.03594,2.040644 -21.59382,0.170285 z m 8.53833,-12.923972 c 0.22045,-5.068907 0.31015,-9.357924 0.19932,-9.531158 -0.11082,-0.173225 -1.14329,0.695937 -2.29437,1.931485 -1.7306,1.857586 -2.09287,3.507394 -2.09287,9.531148 0,6.493361 0.2057,7.284718 1.89355,7.284718 1.69515,0 1.93555,-0.965658 2.29437,-9.216193 z m 10.57261,2.125334 c 1.08535,-7.312616 0.26259,-10.843355 -2.52683,-10.843355 -0.88592,0 -1.06691,1.23214 -0.63925,4.352185 0.37654,2.747213 0.1858,4.606025 -0.51724,5.040521 -0.61257,0.378591 -1.11376,2.455313 -1.11376,4.614931 0,3.178202 0.35685,3.926577 1.87232,3.926577 1.55823,0 2.04888,-1.189546 2.92476,-7.090859 z m -5.59131,-6.058048 c -1.34926,-1.349261 -3.19115,-0.147649 -3.19115,2.081853 0,2.817116 1.19564,3.25514 2.76588,1.013303 0.99362,-1.418586 1.1275,-2.392932 0.42527,-3.095156 z m -6.98625,-6.7779985 c 2.7544,-2.739949 5.59024,-4.981726 6.3019,-4.981726 0.71165,0 3.30946,2.241777 5.77292,4.981726 4.86433,5.4103055 5.66911,5.8744325 5.66911,3.2694585 0,-1.727085 -9.66114,-12.2365655 -11.24882,-12.2365655 -1.4389,0 -12.66346,11.1736045 -12.66346,12.6059805 0,2.148668 0.86077,1.640871 6.16835,-3.6388735 z m 49.98549,-8.967107 c 0.27892,-6.8498727 0.64862,-13.7870655 0.82157,-15.4159905 0.21407,-2.016393 -0.16257,-3.056976 -1.18008,-3.26028 -1.27063,-0.253879 -1.54409,2.204782 -1.82541,16.4123255 -0.3929,19.8433815 1.39273,21.6944515 2.18392,2.263945 z M 178.20687,251.69083 c 0,-0.29691 -0.84813,-1.45019 -1.88473,-2.56285 -1.0366,-1.11266 -3.80168,-5.82151 -6.14464,-10.46411 -2.34296,-4.6426 -4.63331,-8.67186 -5.08969,-8.95392 -1.61658,-0.9991 -0.75675,3.12869 1.16291,5.58284 1.07161,1.36998 1.95835,3.05131 1.97054,3.7363 0.0121,0.68498 0.36106,1.24543 0.77528,1.24543 0.41422,0 1.39803,1.45715 2.18625,3.23812 0.78822,1.78097 2.24275,4.10728 3.23226,5.1696 0.98952,1.06231 1.79913,2.29529 1.79913,2.73995 0,0.44465 0.44835,0.80847 0.99634,0.80847 0.54799,0 0.99635,-0.24293 0.99635,-0.53983 z m -11.95615,-11.85568 c 0,-0.24165 -0.44835,-0.71647 -0.99634,-1.05515 -0.54799,-0.33868 -0.99635,-0.14096 -0.99635,0.43937 0,0.58033 0.44836,1.05515 0.99635,1.05515 0.54799,0 0.99634,-0.19772 0.99634,-0.43937 z m -4.37976,-9.25424 c -1.0128,-1.0128 -1.84847,0.51201 -1.01749,1.85657 0.62773,1.01569 0.86242,1.01648 1.1999,0.004 0.23075,-0.69225 0.14867,-1.52952 -0.18241,-1.86059 z m 154.88676,-0.83895 c 1.14834,-1.38366 0.8533,-1.52828 -2.54094,-1.24543 -2.11208,0.17602 -4.02425,0.88046 -4.24927,1.56545 -0.60694,1.84757 5.21914,1.573 6.79021,-0.32002 z m -160.25949,-14.3365 c -6.13942,-15.14424 -12.88332,-40.05074 -15.65792,-57.8276 -3.48408,-22.32254 -6.43231,-55.96821 -6.4577,-73.696115 -0.0218,-15.230044 2.38801,-46.609289 4.97611,-64.795867 0.50689,-3.561934 1.40683,-10.0630875 1.99985,-14.4470065 1.59068,-11.7589257 3.83728,-23.2104295 6.05946,-30.8867015 0.47591,-1.643969 1.98813,-7.776833 3.36051,-13.628587 6.91336,-29.478438 22.92536,-68.584353 38.14018,-93.149273 15.30349,-24.70806 34.83029,-43.72259 53.67565,-52.26748 3.47009,-1.57342 7.10372,-2.87664 8.07473,-2.89606 0.97102,-0.0194 2.88637,-0.70798 4.25635,-1.53013 2.36115,-1.41698 2.2055,-1.46335 -2.98904,-0.89046 -15.7606,1.73818 -31.38401,10.42395 -46.36496,25.77641 -7.65668,7.84655 -23.3792,27.9096 -23.3792,29.8335 0,0.33546 -1.51258,2.97448 -3.36129,5.86447 -8.71008,13.61604 -21.34736,43.126824 -28.48601,66.52101 -5.40719,17.71998 -5.8248,19.22195 -7.61828,27.399493 -0.84129,3.835929 -1.94649,8.767838 -2.45602,10.959798 -5.0733,21.8253895 -8.36003,47.512794 -10.8361,84.689343 -1.19568,17.952388 0.0448,48.798906 2.98506,74.227716 2.29424,19.84162 2.41214,20.48527 8.39518,45.83188 3.08125,13.0534 12.47135,39.01134 16.20545,44.79826 1.48364,2.29926 1.62549,2.33308 2.25526,0.53774 0.41797,-1.19154 -0.632,-5.13256 -2.77727,-10.42434 z m 47.61361,-244.535726 c 0,-0.21537 -0.67253,-0.649647 -1.49451,-0.96508 -0.82199,-0.315423 -1.49452,-0.13921 -1.49452,0.391573 0,0.530793 0.67253,0.96508 1.49452,0.96508 0.82198,0 1.49451,-0.176213 1.49451,-0.391573 z m 69.8727,-2.348376 c 1.30663,-3.32863 2.8526,-22.958813 3.52762,-44.792393 l 0.49922,-16.147476 -9.3012,-9.718819 c -18.05468,-18.86537 -21.52132,-22.2505 -22.78625,-22.2505 -1.23405,0 0.6365,2.0974 20.67555,23.18286 l 9.24922,9.732189 0.01,9.198367 c 0.005,5.059093 -0.429,13.457735 -0.9651,18.663639 -0.53608,5.205903 -1.45735,14.599805 -2.04726,20.875335 -0.5899,6.27553 -1.55558,11.992061 -2.14594,12.703402 -0.80603,0.971207 -0.6646,1.293345 0.5678,1.293345 0.90264,0 2.12518,-1.232977 2.71673,-2.739949 z m -67.00255,-12.419523 c 1.74517,-5.636026 3.63638,-11.816575 4.20269,-13.734539 0.5663,-1.917965 1.50835,-4.608097 2.09344,-5.978071 0.58508,-1.369975 1.40748,-3.387574 1.82754,-4.483554 0.42005,-1.09598 1.70513,-4.117496 2.85572,-6.71447 1.15059,-2.596984 2.09199,-5.096475 2.09199,-5.554435 0,-1.886251 11.916,-24.152806 16.76328,-31.324316 6.06586,-8.97441 6.88979,-10.72612 5.01382,-10.65978 -1.28374,0.0454 -7.63984,8.14519 -10.27204,13.09 -0.675,1.26804 -2.40888,4.32314 -3.85307,6.78909 -2.61415,4.463659 -5.15692,9.590219 -10.87204,21.919596 -3.58776,7.739958 -3.87496,8.491412 -6.66384,17.436041 -1.19602,3.835929 -2.59992,7.983216 -3.11976,9.216193 -3.50618,8.315926 -4.93057,13.390452 -4.93057,17.565577 0,2.048406 0.38021,3.48938 0.8449,3.202183 0.4647,-0.287196 2.27277,-5.133479 4.01794,-10.769515 z m 62.26592,6.067822 c 0.3425,-1.712468 0.62272,-5.541164 0.62272,-8.5082 0,-2.967047 0.41787,-9.524243 0.92862,-14.571549 0.51074,-5.047316 1.19938,-13.324214 1.53032,-18.393131 l 0.60169,-9.216208 -12.7392,-13.698219 c -7.00656,-7.53401 -13.26762,-14.25934 -13.91346,-14.94516 -0.64585,-0.68582 -1.41891,-1.24695 -1.71791,-1.24695 -2.06425,0 -19.51836,30.716699 -23.49531,41.348324 -0.40997,1.09598 -1.19376,3.113579 -1.74175,4.483554 -0.54799,1.369974 -1.4447,3.611751 -1.99269,4.981726 -0.54799,1.369974 -1.45943,3.611751 -2.02544,4.981726 -1.35305,3.274977 -2.71167,7.445747 -4.21924,12.952488 -0.67509,2.465954 -1.58737,5.604442 -2.02725,6.974416 -0.4399,1.369975 -1.06897,3.72384 -1.39796,5.230813 l -0.59813,2.739949 h 30.78114 30.78114 z m -39.23109,-17.252694 c 0,-4.625572 -0.44836,-8.687233 -0.99635,-9.025911 -0.54799,-0.338678 -0.99634,-1.67388 -0.99634,-2.967126 0,-1.647288 2.15121,-4.314723 7.18427,-8.908313 3.95135,-3.606321 7.87446,-6.562577 8.71803,-6.569462 2.14396,-0.01753 13.91338,13.026238 13.95439,15.465281 0.0185,1.101161 -0.86305,2.562121 -1.95903,3.246571 -1.6364,1.021951 -1.99269,2.323497 -1.99269,7.279587 0,9.725973 -0.21476,9.889503 -12.98754,9.889503 h -10.92474 z m 18.89551,2.497559 c 0.56727,-1.059952 1.03139,-4.804477 1.03139,-8.321157 0,-5.74924 -0.30227,-6.710275 -2.9977,-9.530789 -1.64873,-1.725241 -3.35421,-3.136804 -3.78993,-3.136804 -1.42297,0 -7.01339,6.408373 -8.09644,9.281056 -1.16943,3.101842 -1.43698,11.9269 -0.39322,12.970651 0.36532,0.36533 3.48804,0.664233 6.93936,0.664233 5.18432,0 6.45442,-0.335001 7.30654,-1.92719 z m -11.42292,-18.996059 c 2.69875,-2.73995 5.4773,-4.981726 6.17455,-4.981726 0.69726,0 2.95589,2.21624 5.01919,4.924984 2.06329,2.708744 4.53606,4.950521 5.49504,4.981726 0.95898,0.03119 1.7436,-0.202836 1.7436,-0.520102 0,-1.542093 -10.48078,-12.375644 -11.97267,-12.375644 -1.71714,0 -13.9323,10.655155 -13.9323,12.153011 0,2.041421 2.99173,0.367003 7.47259,-4.182249 z m 113.28445,9.764183 c -0.92992,-0.929919 -1.19561,-0.664233 -1.19561,1.195614 0,1.859848 0.26569,2.125533 1.19561,1.195615 0.92992,-0.929919 0.92992,-1.46131 0,-2.391229 z m -3.52479,-17.984031 c -0.2764,-0.684988 -0.50255,-0.124543 -0.50255,1.245431 0,1.369975 0.22615,1.930419 0.50255,1.245432 0.27639,-0.684988 0.27639,-1.805876 0,-2.490863 z m -34.82852,-48.943135 c 0.89225,-0.89225 -6.13498,-6.52113 -11.16505,-8.94331 -7.60432,-3.66179 -10.33206,-4.63422 -12.99936,-4.63422 -2.35598,0 -2.44399,0.24517 -2.44399,6.80836 0,3.7446 0.33627,7.1616 0.74726,7.59334 0.77079,0.8097 24.99941,0.0376 25.86114,-0.82417 z"
       style="fill:#000000;stroke-width:0.99634522" />
  </g>
</svg>
