<?xml version="1.0" encoding="UTF-8" standalone="no"?>
<svg
   xmlns:dc="http://purl.org/dc/elements/1.1/"
   xmlns:cc="http://creativecommons.org/ns#"
   xmlns:rdf="http://www.w3.org/1999/02/22-rdf-syntax-ns#"
   xmlns:svg="http://www.w3.org/2000/svg"
   xmlns="http://www.w3.org/2000/svg"
   width="500mm"
   height="500mm"
   viewBox="0 0 500 500"
   version="1.1"
   id="svg8">
  <defs
     id="defs2" />
  <metadata
     id="metadata5">
    <rdf:RDF>
      <cc:Work
         rdf:about="">
        <dc:format>image/svg+xml</dc:format>
        <dc:type
           rdf:resource="http://purl.org/dc/dcmitype/StillImage" />
        <dc:title></dc:title>
      </cc:Work>
    </rdf:RDF>
  </metadata>
  <g
     id="layer1">
    <path
       style="fill:#000000;stroke-width:2.10426"
       d="M 288.05399,497.86205 C 194.17309,486.51969 98.18526,419.00314 43.574405,325.89843 -4.3002911,244.27802 -11.778532,143.84664 25.410377,81.958983 c 11.596866,-19.298832 35.858048,-41.669067 55.369,-51.053458 16.0251,-7.707759 43.682973,-15.716492 54.276343,-15.716492 3.43888,0 14.88716,-3.063517 25.44062,-6.8078149 18.55228,-6.5822274 20.2689,-6.804472 51.80418,-6.7069378 28.87856,0.089318 35.02738,0.7634959 53.65871,5.8833199 C 360.44255,33.52129 444.45312,110.86271 481.73012,206.19959 c 19.82584,50.70515 21.76213,102.96858 5.33601,144.02743 -2.98096,7.45125 -5.41995,15.926 -5.41995,18.83277 0,10.08441 -8.4923,38.41322 -16.25812,54.23418 -10.30361,20.99105 -35.27993,46.39675 -56.33895,57.30746 -27.11303,14.04731 -39.94981,16.90443 -78.90986,17.56327 -19.09618,0.32294 -38.03455,0.18665 -42.08526,-0.30265 z m 87.13366,-6.42375 c 6.83778,-1.69278 19.62118,-6.73244 28.40755,-11.19923 28.00395,-14.23655 45.38699,-31.62837 59.33026,-59.36014 7.9861,-15.88357 15.7641,-41.6524 12.57225,-41.6524 -0.86167,0 -6.94821,1.08078 -13.52563,2.4017 -10.32945,2.07445 -12.11946,3.14969 -13.13679,7.891 -6.58226,30.67718 -21.20351,57.1057 -41.4682,74.95552 -10.86429,9.56962 -45.01641,28.35245 -51.66452,28.41421 -1.9077,0.0168 -4.88893,0.9378 -6.62495,2.04463 -3.95267,2.52008 8.59905,0.83981 26.11003,-3.49529 z m -31.64077,0.38611 c 23.0622,-4.88605 47.26401,-17.78786 63.13056,-33.6544 7.49666,-7.49667 15.74771,-17.39771 18.33564,-22.0023 2.5879,-4.60459 5.48865,-7.88786 6.44608,-7.29613 0.95741,0.59171 1.11723,-0.54905 0.35515,-2.53504 -0.93378,-2.43338 -0.59071,-3.11957 1.05213,-2.10425 1.64282,1.01533 1.98592,0.32914 1.05213,-2.10427 -0.93378,-2.43339 -0.5907,-3.11957 1.05214,-2.10426 1.51639,0.93719 2.02427,0.42914 1.34375,-1.34425 -0.60167,-1.56797 0.26977,-6.11501 1.93656,-10.10454 1.66679,-3.98951 4.02722,-14.82902 5.2454,-24.08778 2.56358,-19.48415 4.51175,-67.78702 2.41878,-59.9715 -1.09404,4.08547 -1.76096,2.4402 -2.98544,-7.36491 -2.26558,-18.1419 -14.45332,-53.46003 -26.86747,-77.85774 C 380.84237,170.07505 320.74978,110.66097 253.33365,78.401835 241.76021,72.863849 230.14672,67.670272 227.52588,66.860556 c -2.6782,-0.827435 -4.14858,-2.46984 -3.35733,-3.750099 0.85511,-1.383599 0.4221,-1.668679 -1.10297,-0.726143 -1.38092,0.853461 -12.18006,-1.094093 -23.99809,-4.327899 -18.81492,-5.148396 -25.28206,-5.88979 -51.99911,-5.961213 -33.72928,-0.09017 -50.503885,3.526901 -73.404757,15.828104 -11.365634,6.105044 -17.424797,6.412595 -12.635076,0.641331 1.398965,-1.685647 3.861425,-2.55911 5.472128,-1.941021 1.610703,0.618081 2.404902,0.276505 1.764882,-0.759072 -1.219185,-1.97269 22.586961,-12.558753 38.821833,-17.263198 12.64629,-3.664567 64.80326,-3.711798 79.96199,-0.07241 97.33299,23.368264 182.2932,90.243224 231.347,182.100864 12.2081,22.8608 26.09927,59.31764 24.67584,64.76084 -0.558,2.13383 -0.28289,3.42751 0.61134,2.87485 3.36988,-2.08272 9.05954,41.8358 8.1409,62.83977 l -0.90024,20.58319 6.41785,-1.36663 c 3.52984,-0.75167 9.44162,-1.89424 13.13729,-2.53905 6.38095,-1.11335 6.79323,-1.76316 8.18479,-12.90071 1.91894,-15.35876 -0.18055,-50.22688 -4.14109,-68.77392 C 453.13363,195.94179 372.66661,97.076955 272.45438,47.838848 219.62319,21.880867 164.40291,11.767572 122.86935,20.443161 63.335066,32.878767 27.457199,65.544327 11.24096,122.07694 c -6.5605316,22.87116 -5.9258842,30.0145 0.957254,10.77451 2.656582,-7.42577 8.483579,-19.18291 12.948889,-26.12698 9.427183,-14.660367 30.069766,-35.814306 33.113123,-33.933404 1.14741,0.709141 -4.761267,8.160795 -13.1304,16.559243 C 34.220246,100.2981 27.737932,109.08726 22.227981,120.40218 10.053586,145.4028 7.190501,159.23881 7.205473,192.99925 c 0.011122,25.15881 0.8601614,32.82154 5.815435,52.48744 19.352472,76.80377 74.020001,151.34052 147.230782,200.74266 30.76986,20.76328 75.45234,39.82921 106.52673,45.45475 21.36355,3.86753 58.85257,3.93606 76.76846,0.14035 z m -44.68104,-58.22513 c -8.6748,-4.29389 -17.09945,-14.27256 -17.11676,-20.27411 -0.0169,-5.87859 10.11018,-13.05601 18.42168,-13.05601 10.91713,0 29.26533,9.37056 33.18322,16.9469 4.36053,8.43235 3.89578,11.57985 -2.44638,16.56859 -7.29882,5.74125 -20.21946,5.6665 -32.04176,-0.18539 z m 29.52953,-1.04017 c 7.659,-6.93132 2.46138,-17.62956 -11.68658,-24.05439 -16.11329,-7.31731 -30.75906,-4.36449 -30.75906,6.20152 0,14.66849 31.38003,27.8671 42.44564,17.85287 z M 200.72709,386.61793 c -34.84935,-9.44976 -63.42198,-33.48152 -80.22095,-67.47195 -6.71088,-13.57854 -8.00964,-18.51603 -8.79218,-33.42544 -0.56451,-10.75528 0.0864,-20.53767 1.69011,-25.39669 2.50748,-7.59776 15.53444,-24.1872 18.99314,-24.1872 3.27471,0 0.72373,5.91822 -5.70896,13.24465 -9.0271,10.2813 -11.90412,20.36414 -10.68249,37.43802 3.43193,47.96564 55.09816,96.75254 102.26896,96.56954 24.41137,-0.0946 44.13098,-16.62105 44.67603,-37.44145 0.13215,-5.04878 0.34025,-5.2021 1.95635,-1.44121 1.39544,3.24738 1.84224,2.13771 1.95636,-4.85879 0.0904,-5.54162 -0.6703,-8.56162 -1.95636,-7.76679 -1.22565,0.75749 -2.10427,-1.35647 -2.10427,-5.06294 0,-17.33723 -16.38855,-46.32792 -36.47853,-64.52898 -25.57178,-23.16747 -61.11768,-34.133 -82.15376,-25.34355 -9.83987,4.11135 -9.02632,4.10611 -9.02632,0.0582 0,-3.87125 9.01239,-7.8815 14.49204,-6.44855 2.0597,0.53854 3.74491,0.12097 3.74491,-0.92802 0,-5.75628 29.91684,0.42354 49.45017,10.21474 17.58205,8.8131 43.17121,33.40432 53.19689,51.12225 23.52953,41.58272 14.18752,85.19751 -20.43666,95.41217 -13.59784,4.01157 -20.77874,4.0614 -34.86448,0.24191 z m 58.05614,-18.26572 c 3.19505,-5.97001 1.12282,-4.56623 -4.40394,2.98334 -3.09801,4.23188 -3.60615,5.70161 -1.33297,3.85552 2.02042,-1.64083 4.60204,-4.71831 5.73691,-6.83886 z M 126.05727,245.62088 c 5.04494,-6.0759 5.05549,-6.15085 0.29964,-2.12779 -2.71123,2.29346 -5.90462,6.07436 -7.09643,8.40199 -2.28839,4.46926 -1.58326,3.81835 6.79679,-6.2742 z m 58.18689,87.91265 c -7.64253,-0.82972 -8.41025,-1.61162 -14.62782,-14.89826 -4.19139,-8.95682 -6.5988,-17.45922 -6.66397,-23.53551 l -0.10198,-9.51293 15.7572,-0.62837 c 22.43562,-0.89469 23.84272,-0.25134 30.05964,13.7439 6.86923,15.46377 10.74804,30.10018 8.52113,32.15396 -2.29266,2.11439 -22.78743,3.77992 -32.94415,2.67721 z m 28.83914,-4.37347 c 1.40571,-2.27448 -7.33056,-27.78139 -11.9081,-34.7676 -3.50414,-5.34799 -4.59662,-5.64923 -20.48712,-5.64923 -14.82431,0 -16.7856,0.44711 -16.7856,3.8266 0,6.24846 5.93113,24.06953 10.45701,31.4198 4.18069,6.78968 4.33135,6.83886 20.95182,6.83886 9.20746,0 17.20487,-0.75081 17.77199,-1.66843 z m -28.37756,-3.97771 c -3.28403,-0.53192 -6.46338,-3.00517 -7.891,-6.13843 -3.32012,-7.2869 -2.86174,-9.3294 0.66099,-2.94528 2.99553,5.42868 11.09377,8.18919 19.56889,6.67056 5.69368,-1.02023 6.07775,-5.81542 1.27282,-15.89146 -2.62272,-5.49991 -5.16569,-7.57907 -10.49183,-8.57826 -9.3085,-1.74629 -15.39846,1.58386 -14.22095,7.77637 0.84088,4.42223 0.7628,4.46176 -1.09404,0.55361 -4.69459,-9.88087 -3.16652,-11.57345 10.44855,-11.57345 h 12.7439 l 3.93591,8.94312 c 6.66653,15.14758 7.42227,20.51202 2.89442,20.54529 -2.15082,0.0169 -5.80442,0.36625 -8.11911,0.77876 -2.31469,0.41253 -6.68354,0.34914 -9.70855,-0.14077 z M 64.080204,312.87415 c -3.260069,-2.59947 -5.284039,-5.7673 -4.497709,-7.03959 0.851526,-1.37781 0.28345,-1.87343 -1.404725,-1.22561 -2.668585,1.02402 -7.443901,-7.41637 -10.93431,-19.32646 -1.290688,-4.40412 3.162179,-11.26911 7.30953,-11.26911 2.525947,0 19.06622,17.33549 17.773602,18.62812 -0.561477,0.56146 0.553597,2.7606 2.477936,4.88698 1.924328,2.12636 2.881529,4.48339 2.127106,5.2378 -0.754424,0.75443 -0.416646,2.52245 0.750625,3.92892 1.167271,1.40649 1.567014,4.00433 0.888311,5.77298 -2.022648,5.27095 -8.173007,5.44326 -14.490366,0.40597 z M 55.532938,284.5347 c 0.715279,-1.15735 0.297699,-2.10427 -0.927939,-2.10427 -1.225648,0 -2.228458,0.94692 -2.228458,2.10427 0,1.15734 0.417579,2.10426 0.92795,2.10426 0.51037,0 1.513169,-0.94692 2.228447,-2.10426 z M 213.1742,201.58168 c -12.9483,-5.6377 -21.15173,-24.29043 -15.50474,-35.25424 9.6455,-18.7271 24.37989,-21.94172 38.02553,-8.29609 7.15599,7.156 8.16948,9.38791 8.16948,17.99074 0,12.69161 -4.3284,20.81665 -13.37696,25.11048 -8.5924,4.07735 -8.95837,4.08685 -17.31331,0.44911 z m 19.64039,-4.45094 c 2.539,-1.77839 5.62991,-6.99742 6.86867,-11.59784 3.18754,-11.83761 -3.12041,-26.12346 -13.43847,-30.43462 -14.87186,-6.21386 -26.56983,3.87049 -26.56983,22.90477 0,7.70418 1.17473,10.58655 6.47464,15.88647 7.38569,7.38569 18.77194,8.76973 26.66499,3.24122 z m 214.45273,181.56973 c -0.58374,-1.44668 -1.06136,-0.26304 -1.06136,2.63033 0,2.89336 0.47762,4.07701 1.06136,2.63033 0.58374,-1.44668 0.58374,-3.81398 0,-5.26066 z m 2.25738,-34.72034 c -0.43349,-5.49739 -0.78814,-0.99952 -0.78814,9.99525 0,10.99478 0.35465,15.49263 0.78814,9.99525 0.43347,-5.49739 0.43347,-14.49311 0,-19.9905 z m 41.4057,-17.13397 c -0.421,-0.45426 -2.20872,0.37187 -3.9727,1.83585 -2.09913,1.74212 -3.13269,6.02617 -2.99138,12.39937 l 0.21587,9.7376 3.75683,-11.57344 c 2.06627,-6.36539 3.41238,-11.94513 2.99138,-12.39938 z m 3.32547,-32.43355 c -0.019,-29.54417 -2.52996,-45.26312 -11.54043,-72.27209 C 454.46636,137.46372 385.04261,61.936327 301.40092,24.885098 254.24993,3.9983684 202.68996,-1.7387735 166.00675,9.8196226 c -11.24129,3.5419794 -10.28044,3.6856544 28.40754,4.2477304 71.83005,1.043578 140.74207,34.408348 201.23056,97.428747 25.42549,26.48974 43.69575,51.85391 58.79546,81.62433 20.69503,40.80204 29.26706,73.74439 29.37663,112.89425 l 0.0665,23.76168 5.19417,-5.90407 c 4.86428,-5.52912 5.19315,-7.40005 5.17827,-29.45968 z m -49.04898,17.08296 c -0.67172,-1.67864 -1.17034,-1.18003 -1.27131,1.27133 -0.0913,2.21823 0.40596,3.46108 1.1052,2.76185 0.69923,-0.69924 0.77397,-2.51417 0.16603,-4.03318 z m 34.35512,-28.70888 C 476.18221,255.9352 469.08173,232.11033 456.52637,205.49298 411.25252,109.51244 317.73345,34.607809 224.22711,19.431557 c -21.6694,-3.516985 -24.44521,-2.193894 -6.52191,3.108674 99.69468,29.494435 185.70788,102.028209 233.46399,196.877059 10.38635,20.62844 25.2863,63.28563 27.52273,78.79512 2.73032,18.93458 3.49303,5.41267 0.87009,-15.42572 z m -44.34113,-9.69392 c -2.46842,-6.59746 -4.83174,-11.65165 -5.25182,-11.23157 -0.42009,0.42008 1.23303,6.18447 3.67363,12.80977 2.44058,6.62529 4.8039,11.6795 5.25182,11.23156 0.44793,-0.44793 -1.2052,-6.21231 -3.67363,-12.80976 z M 416.57743,231.1782 c -5.93476,-10.9764 -12.76739,-22.16319 -15.18361,-24.85951 l -4.39313,-4.90238 3.36234,5.26065 c 1.84929,2.89337 8.34786,14.41385 14.44126,25.60108 6.09342,11.18723 11.41297,20.00672 11.82129,19.59885 0.40828,-0.40787 -4.11337,-9.72225 -10.04815,-20.69869 z M 394.1975,194.57745 c -8.73436,-13.43452 -27.34021,-35.08004 -44.56284,-51.84316 -23.4445,-22.81898 -55.26788,-48.539914 -55.26788,-44.669739 0,0.526539 6.65936,5.800939 14.79857,11.720909 21.10595,15.35117 57.58113,51.29055 73.55457,72.47406 13.47067,17.86443 18.80692,23.59137 11.47758,12.31793 z M 288.05399,93.00418 c -6.45089,-5.098182 -47.46141,-26.271038 -54.71084,-28.246039 -2.89335,-0.788252 4.20853,3.211088 15.78198,8.887421 11.57345,5.676333 25.72588,13.310662 31.44985,16.965176 11.70845,7.475322 15.40693,8.658918 7.47901,2.393442 z M 106.03526,53.065768 c 2.6527,-1.139912 3.04166,-1.808465 1.05213,-1.808465 -1.73602,0 -5.05024,0.813809 -7.364924,1.808465 -2.652721,1.139911 -3.041668,1.808464 -1.052132,1.808464 1.736016,0 5.050226,-0.813809 7.364926,-1.808464 z m 93.06978,0.832937 c -0.69922,-0.699228 -2.51415,-0.773986 -4.03316,-0.166132 -1.67864,0.671735 -1.18002,1.170356 1.27133,1.271326 2.21823,0.09136 3.46107,-0.405971 2.76183,-1.105201 z m -8.41705,-2.104263 c -0.69922,-0.699228 -2.51415,-0.773986 -4.03316,-0.166132 -1.67864,0.671735 -1.18002,1.170355 1.27133,1.271326 2.21823,0.09136 3.46107,-0.405971 2.76183,-1.105201 z m -72.55322,-2.226551 c -1.44669,-0.583748 -3.81398,-0.583748 -5.26067,0 -1.44668,0.58375 -0.26303,1.061361 2.63034,1.061361 2.89336,0 4.07701,-0.477611 2.63033,-1.061361 z m 63.16793,0.01326 c -1.42466,-0.576407 -4.26541,-0.611493 -6.31279,-0.07797 -2.04738,0.533608 -0.88175,1.005214 2.59028,1.048096 3.47204,0.04288 5.14716,-0.393635 3.72251,-0.97004 z m -46.29379,-2.104263 c -1.42464,-0.576407 -4.2654,-0.611493 -6.31278,-0.07797 -2.04738,0.533608 -0.88175,1.005213 2.59027,1.048096 3.47204,0.04288 5.14717,-0.393635 3.72251,-0.97004 z m 28.39204,-0.06552 c -2.01186,-0.526682 -5.79954,-0.545791 -8.41706,-0.04246 -2.61751,0.503409 -0.97145,0.934331 3.65794,0.957688 4.62937,0.02336 6.77098,-0.388457 4.75912,-0.915137 z"
       id="path190" />
  </g>
</svg>
