<?xml version="1.0" encoding="UTF-8" standalone="no"?>
<svg
   xmlns:dc="http://purl.org/dc/elements/1.1/"
   xmlns:cc="http://creativecommons.org/ns#"
   xmlns:rdf="http://www.w3.org/1999/02/22-rdf-syntax-ns#"
   xmlns:svg="http://www.w3.org/2000/svg"
   xmlns="http://www.w3.org/2000/svg"
   id="svg8"
   version="1.1"
   viewBox="0 0 500 500"
   height="500mm"
   width="500mm">
  <defs
     id="defs2" />
  <metadata
     id="metadata5">
    <rdf:RDF>
      <cc:Work
         rdf:about="">
        <dc:format>image/svg+xml</dc:format>
        <dc:type
           rdf:resource="http://purl.org/dc/dcmitype/StillImage" />
        <dc:title></dc:title>
      </cc:Work>
    </rdf:RDF>
  </metadata>
  <g
     transform="translate(0,203)"
     id="layer1">
    <path
       id="path3778"
       d="m 196.48784,295.2617 c -68.03538,-4.8511 -77.39604,-5.88974 -87.06364,-9.66036 -5.47712,-2.13622 -12.884072,-4.98149 -16.459882,-6.32281 l -6.50148,-2.43876 V 241.07429 205.3088 h 14.003182 c 13.94693,0 14.00311,-0.0222 13.98518,-5.50125 -0.051,-15.57304 14.19424,-366.51719 15.09843,-371.96397 5.29771,-31.91296 112.25553,-39.94113 233.89283,-17.55582 23.64414,4.3513 26.60483,5.37285 31.5905,10.89976 3.20463,3.55252 5.50125,8.40768 5.50125,11.62985 0,3.04226 2.69752,90.122851 5.99449,193.512422 3.29697,103.389588 6.22262,201.075708 6.50146,217.080288 l 0.507,29.09925 -7.85208,10.33017 c -4.31866,5.68159 -9.26978,10.90722 -11.0025,11.6125 -5.10348,2.07729 -170.9166,2.75472 -198.19474,0.8097 z m 196.06482,-3.19527 c 0.93307,-0.95607 -0.014,-57.55099 -2.1066,-125.7665 -2.09169,-68.215492 -5.17319,-170.3083063 -6.84777,-226.872913 -1.67457,-56.564607 -3.27511,-102.925147 -3.55677,-103.023417 -0.28165,-0.0983 -34.43841,0.11355 -75.90395,0.47069 l -75.39185,0.64936 -1.05827,10.35314 c -0.58203,5.69422 -1.61898,108.834819 -2.30432,229.201314 l -1.24608,218.848166 83.35956,-1.06076 c 45.84776,-0.58341 84.12298,-1.843 85.05605,-2.79908 z m -194.28232,0.37759 c -1.38736,-1.38736 -56.06778,-15.51267 -56.88551,-14.69494 -0.40155,0.40155 5.65612,2.90428 13.46149,5.5616 7.80537,2.65733 13.32872,5.11913 12.27411,5.47067 -1.05461,0.35154 -7.95189,-1.63219 -15.32729,-4.40828 -10.56628,-3.97715 -16.68764,-4.98178 -28.86767,-4.73772 l -15.45786,0.30973 16.40481,1.25837 c 20.47248,1.57039 24.77745,4.72313 5.1908,3.80148 -7.92692,-0.37299 -13.77825,-0.063 -13.00296,0.68892 1.69883,1.64755 49.8337,6.22839 51.94091,4.94304 0.81429,-0.49669 6.88177,-0.21225 13.48327,0.63212 16.3554,2.09194 17.80424,2.19334 16.7859,1.17501 z m 24.89321,-147.64897 c 0.73022,-81.693562 1.32836,-184.316883 1.32918,-228.051822 l 0.001,-79.518078 H 186.6487 c -20.81476,0 -39.0439,0.45764 -40.5092,1.01697 -2.00069,0.76369 -2.50403,5.21211 -2.02111,17.86215 0.35369,9.26485 -0.77157,69.373871 -2.50057,133.575599 -1.729,64.201724 -3.30872,125.704551 -3.51048,136.672971 l -0.36684,19.94255 -1.1335,-16.00364 c -0.62343,-8.802 -1.1335,19.4616 -1.1335,62.80801 v 78.81165 l 36.00818,9.34501 c 19.8045,5.13977 37.35849,9.8876 39.00887,10.55078 1.65037,0.66315 4.87811,1.27681 7.17275,1.36366 l 4.17204,0.15784 1.32773,-148.53375 z m 184.61437,131.29721 c 4.81859,-8.2223 4.96512,-9.46769 3.78457,-32.16677 -1.01041,-19.42815 -13.02873,-394.05574 -13.02873,-406.12366 0,-3.10144 -1.28665,-3.56039 -8.14721,-2.90613 l -8.14719,0.77697 1.22948,31.28317 c 1.03259,26.27357 5.75876,186.626205 10.09039,342.35387 0.59679,21.45487 1.59918,48.27225 2.22757,59.59414 1.27488,22.97058 2.36069,23.62151 11.99112,7.18841 z m -297.73935,1.26021 c 3.6526,-0.0218 4.23587,-0.73093 2.90199,-3.5281 -0.91818,-1.92544 -1.08465,-17.00387 -0.36994,-33.50762 0.7147,-16.50375 1.20922,-30.13064 1.09891,-30.28198 -0.1103,-0.15133 -5.82683,-0.91489 -12.7034,-1.69676 l -12.502842,-1.42159 v 34.20414 34.20415 l 7.50171,0.14063 c 6.261482,0.11743 6.840252,0.45486 3.50079,2.04151 -3.4869,1.65669 -3.3584,1.77064 1.000232,0.88694 2.75063,-0.55769 7.05827,-1.02628 9.57255,-1.0413 z m 8.37361,-4.10635 c -2.16887,-1.37163 -1.233,-1.86911 3.55873,-1.89169 l 6.50148,-0.0306 0.32607,-11.50261 0.32606,-11.50262 1.17428,11.0025 c 0.64585,6.05138 1.28295,-17.80404 1.41578,-53.01204 0.13283,-35.20801 2.15829,-131.420583 4.50102,-213.805721 2.34273,-82.385148 4.25952,-151.475859 4.25952,-153.534899 0,-2.38115 -1.42319,-3.74371 -3.91027,-3.74371 -2.87384,0 -4.17398,1.72323 -4.90525,6.50147 -0.54725,3.57582 -4.24503,91.57082 -8.21731,195.544448 -3.97227,103.973622 -7.62058,199.297822 -8.10735,211.831572 -0.59877,15.41736 -0.14263,23.68316 1.41013,25.55415 1.26235,1.52102 2.81598,2.24471 3.45252,1.60816 0.63654,-0.63652 -0.1669,-1.99481 -1.78541,-3.01838 z m 18.60021,2.76687 c -1.35437,-0.54797 -4.05498,-0.58132 -6.00136,-0.0742 -1.94638,0.50719 -0.83826,0.95554 2.46249,0.99631 3.30075,0.0408 4.89324,-0.37421 3.53887,-0.92219 z m -3.06195,-83.13998 c -0.40537,-5.8132 -0.74131,-1.56739 -0.74651,9.43511 -0.005,11.0025 0.32646,15.75874 0.73704,10.56944 0.41059,-5.1893 0.41485,-14.19135 0.009,-20.00455 z m -0.1106,-15.94566 c -0.6386,-1.59582 -1.11262,-1.12182 -1.20861,1.20861 -0.0869,2.1088 0.38594,3.29033 1.05068,2.6256 0.66473,-0.66475 0.7358,-2.39014 0.15793,-3.83421 z M 137.936,44.711969 c -0.41954,-4.642875 -0.75782,-0.339737 -0.75172,9.562513 0.006,9.90225 0.34936,13.700954 0.76281,8.441578 0.41344,-5.259395 0.40845,-13.361236 -0.011,-18.004091 z m 2.0158,-77.890316 c -0.40537,-5.813195 -0.7413,-1.567401 -0.74651,9.4351 -0.005,11.0025 0.32646,15.7587512 0.73704,10.569446 0.41059,-5.189306 0.41485,-14.191351 0.009,-20.004546 z m 2.00046,-78.017733 c -0.40537,-5.8132 -0.74131,-1.5674 -0.74652,9.4351 -0.005,11.002504 0.32647,15.758754 0.73705,10.569449 0.41058,-5.189305 0.41485,-14.191359 0.009,-20.004549 z m 84.92207,-60.58081 0.81741,-7.00159 h -40.60763 -40.60763 v 7.00159 7.00159 h 39.79023 39.79023 z m 93.6417,3.86939 c 0,-1.7227 -0.93187,-4.87342 -2.07083,-7.00159 -1.94814,-3.64014 -4.60227,-3.86939 -44.7962,-3.86939 -45.75718,0 -45.15388,-0.13583 -45.15388,10.16588 0,3.67153 1.98755,3.8373 46.01045,3.8373 40.42315,0 46.01046,-0.38036 46.01046,-3.1322 z m 47.71746,1.84699 c 6.7629,-0.70686 12.29618,-2.00697 12.29618,-2.88913 0,-0.88216 -2.07381,-4.01487 -4.60847,-6.96158 l -4.60847,-5.35766 -26.03655,1.44819 -26.03656,1.44819 2.12792,6.7986 2.12793,6.7986 h 16.22092 c 8.92151,0 21.75421,-0.57834 28.5171,-1.28521 z m -227.21842,-4.21604 c 0.55362,-1.92544 1.65513,-5.07616 2.44779,-7.00159 1.09975,-2.67136 0.45926,-3.5008 -2.70333,-3.5008 -4.24929,0 -8.28623,5.29621 -8.28623,10.87099 0,4.29422 7.29154,3.97957 8.54177,-0.3686 z m 256.49292,1.54168 c 3.49855,-5.6608 -8.14718,-15.18849 -16.11929,-13.18761 -4.71753,1.18402 -4.73331,1.27336 -1.4436,8.17192 2.79293,5.85685 4.36997,6.9748 9.83907,6.9748 3.58216,0 7.05786,-0.8816 7.72382,-1.95911 z m -162.76335,-16.90832 c 14.58401,-8.10387 33.92917,-11.57956 55.76457,-10.01906 10.45238,0.747 18.35797,0.67929 17.56799,-0.15046 -1.55271,-1.63091 -59.90641,-3.77852 -87.5839,-3.22339 -9.35213,0.18758 -24.94794,1.6831 -34.65737,3.32339 -9.70942,1.64029 -18.6255,2.38161 -19.81351,1.64738 -1.22708,-0.75837 -1.58655,-0.40707 -0.83229,0.81336 0.7779,1.25865 -1.51313,3.08589 -5.53225,4.41232 -3.773,1.2452 -7.94243,3.56826 -9.26542,5.16236 -2.08641,2.51398 2.76693,2.89835 36.59643,2.89835 37.5756,0 39.32197,-0.17788 47.75575,-4.86425 z m 61.76593,-1.4815 c -11.94555,-5.55737 -14.31771,-5.97172 -29.17044,-5.09526 -14.49962,0.85562 -34.8441,6.88602 -34.8441,10.3283 0,0.61199 17.32894,1.04601 38.50875,0.96449 l 38.50875,-0.14821 z m 72.85606,3.99558 c 13.02982,0.47933 11.08096,-0.88141 -6.58446,-4.59744 -17.39621,-3.65941 -25.38312,-3.73005 -11.25909,-0.0996 14.44936,3.71409 9.05377,3.43708 -15.00341,-0.7703 -13.24857,-2.31705 -19.15806,-4.04032 -16.00364,-4.66684 2.75062,-0.54632 1.85042,-0.67135 -2.00045,-0.27786 -3.85088,0.39349 -11.95272,0.72815 -18.0041,0.74369 l -11.0025,0.0283 12.00273,5.99317 c 11.88602,5.9349 12.22642,5.98001 35.00796,4.63902 12.65287,-0.74479 27.43401,-1.19124 32.84696,-0.99211 z m -215.88856,-4.86549 c 5.64912,-3.59367 6.53138,-4.67716 3.00068,-3.68505 -6.06772,1.705 -16.00363,6.64165 -16.00363,7.9514 0,2.27938 5.60336,0.44089 13.00295,-4.26635 z m 185.54216,-4.11147 c -1.37531,-0.55496 -3.62582,-0.55496 -5.00113,0 -1.37531,0.55495 -0.25006,1.009 2.50057,1.009 2.75062,0 3.87588,-0.45405 2.50056,-1.009 z"
       style="fill:#000000;stroke-width:2.00045466" />
  </g>
</svg>
