<?xml version="1.0" encoding="UTF-8" standalone="no"?>
<svg
   xmlns:dc="http://purl.org/dc/elements/1.1/"
   xmlns:cc="http://creativecommons.org/ns#"
   xmlns:rdf="http://www.w3.org/1999/02/22-rdf-syntax-ns#"
   xmlns:svg="http://www.w3.org/2000/svg"
   xmlns="http://www.w3.org/2000/svg"
   id="svg8"
   version="1.1"
   viewBox="0 0 500 500"
   height="500mm"
   width="500mm">
  <defs
     id="defs2" />
  <metadata
     id="metadata5">
    <rdf:RDF>
      <cc:Work
         rdf:about="">
        <dc:format>image/svg+xml</dc:format>
        <dc:type
           rdf:resource="http://purl.org/dc/dcmitype/StillImage" />
        <dc:title></dc:title>
      </cc:Work>
    </rdf:RDF>
  </metadata>
  <g
     transform="translate(0,203)"
     id="layer1">
    <path
       id="path188"
       d="M 72.66234,278.13504 C 53.9674,270.49252 37.54685,262.72283 36.17222,260.86901 c -1.91295,-2.57978 -2.49933,-24.59046 -2.49933,-93.81716 0,-83.205905 0.2696,-90.49851 3.36769,-91.095149 2.81201,-0.541533 3.28132,-2.792683 2.84423,-13.642946 -0.3122,-7.750141 -1.67133,-14.268356 -3.36769,-16.151027 -4.19323,-4.6538 -4.2475,-184.137958 -0.0567,-187.615988 1.53312,-1.27238 7.60648,-2.87989 13.49635,-3.57225 5.88987,-0.69237 11.68149,-2.57696 12.87028,-4.18799 1.5104,-2.04687 4.52164,-2.63218 9.9973,-1.94322 10.62148,1.33642 45.51763,-1.90806 57.82232,-5.37605 15.30874,-4.31465 69.04444,-11.57638 75.74576,-10.23612 8.97182,1.79437 25.22688,-0.8538 25.22688,-4.1098 0,-1.50788 0.26985,-2.7416 0.59968,-2.7416 0.32981,0 16.07828,-2.24939 34.99662,-4.99865 18.91831,-2.74925 37.65692,-4.99864 41.64132,-4.99864 9.70657,0 42.72989,-7.85504 42.72989,-10.16389 0,-1.00807 3.59902,-1.83286 7.99783,-1.83286 5.77622,0 7.99784,0.8331 7.99784,2.99918 0,3.79999 3.29774,3.89353 5.39915,0.15316 0.95251,-1.69541 6.44914,-3.372 13.5957,-4.14698 13.40221,-1.45335 10.03374,-2.80539 54.48524,21.86955 l 24.49337,13.59623 0.25113,89.235605 c 0.13817,49.079581 0.46946,123.876222 0.73628,166.21476 0.55789,88.523465 -0.97439,136.749945 -4.45553,140.231085 -2.27352,2.27352 -24.61153,6.07839 -138.49343,23.58987 -29.14211,4.48115 -75.92944,11.69945 -103.97184,16.04066 -28.04241,4.34122 -63.58278,9.78883 -78.97861,12.10582 -15.39583,2.31697 -29.34206,4.55991 -30.99161,4.98429 -1.64955,0.42437 -18.29504,-5.48135 -36.98998,-13.12386 z m 71.98051,5.19697 c 17.59523,-2.73174 55.83487,-8.6402 84.97698,-13.12993 29.14211,-4.48972 69.63114,-10.79457 89.97563,-14.01078 20.34449,-3.21621 52.28584,-8.11427 70.98078,-10.88456 47.78324,-7.08068 67.43981,-10.69564 69.53141,-12.78723 0.99323,-0.99323 2.30607,-12.66224 2.91741,-25.9311 l 1.11154,-24.12519 -21.78424,6.93976 c -40.90245,13.03019 -77.34982,21.31297 -134.86252,30.64792 -79.21139,12.85686 -130.59169,18.21729 -174.61497,18.21729 h -26.69824 l -1.23934,7.49797 c -0.68163,4.12388 -1.24923,15.37084 -1.26134,24.99323 -0.0262,20.86271 -4.19316,19.5839 40.9669,12.57262 z m -50.9862,-1.07573 c -1.64955,-1.06603 -3.89894,-1.93822 -4.99865,-1.93822 -1.0997,0 -0.64982,0.87219 0.99973,1.93822 1.64956,1.06603 3.89895,1.93821 4.99865,1.93821 1.0997,0 0.64982,-0.87218 -0.99973,-1.93821 z m -8.16446,-2.81326 c -1.78592,-1.74455 -36.2743,-15.39767 -37.01759,-14.65439 -0.43388,0.43388 7.08025,4.0537 16.69808,8.04406 15.96818,6.62507 22.51489,8.75483 20.31951,6.61033 z m 10.16392,-5.14395 c 0,-4.93768 -1.36934,-6.65631 -7.99784,-10.03792 -5.26346,-2.68521 -7.99783,-5.43349 -7.99783,-8.03846 0,-4.73086 0.21782,-4.75637 9.06178,-1.06113 6.32841,2.64418 6.93342,2.60053 6.92849,-0.49987 -0.003,-1.87323 -3.35574,-5.19079 -7.47437,-7.39594 -8.34616,-4.46857 -12.04299,-12.52499 -4.71866,-10.28323 2.31033,0.70713 6.14919,1.87947 8.53082,2.60523 l 4.33022,1.31957 -1.32923,-121.78695 C 94.25841,52.137551 93.65944,-25.38998 93.65845,-53.163037 l -0.002,-50.496473 -24.90673,-12.40635 c -13.69871,-6.8235 -25.17261,-11.99254 -25.49758,-11.48676 -0.32496,0.50579 -0.29375,87.910363 0.0694,194.232393 l 0.66021,193.312777 8.34184,2.96627 c 4.58801,1.63146 15.98977,6.17445 25.33723,10.09555 9.34747,3.9211 17.22034,7.14575 17.49527,7.16586 0.27492,0.0202 0.49986,-2.64438 0.49986,-5.92116 z m 6.34676,-95.65738 c -1.6731,-35.80236 -1.74549,-34.45247 -1.75018,32.63381 -0.004,63.49545 0.15732,66.95667 1.74529,37.34725 0.99876,-18.62292 1.00086,-48.66835 0.005,-69.98106 z m -4.3473,83.62 c 0,-1.0997 -2.47433,-1.98568 -5.49851,-1.96884 -4.28472,0.0238 -4.83644,0.45849 -2.49933,1.96884 3.91201,2.52814 7.99784,2.52814 7.99784,0 z m -9.9973,-4.78472 c 0,-0.4322 -1.34963,-1.30371 -2.99918,-1.93672 -1.64956,-0.63299 -2.99919,-0.27936 -2.99919,0.78581 0,1.06519 1.34963,1.93672 2.99919,1.93672 1.64955,0 2.99918,-0.35363 2.99918,-0.78581 z m -47.987,-89.18983 c 0,-57.31782 -0.69678,-87.976175 -1.99946,-87.976175 -1.24606,0 -1.99946,11.55507 -1.99946,30.666305 0,39.10268 2.42722,145.28605 3.32106,145.28605 0.37282,0 0.67786,-39.58928 0.67786,-87.97618 z m 57.9843,78.19281 c 0,-2.50788 -5.91781,-4.49865 -8.54542,-2.87469 -1.36279,0.84226 -0.73003,1.92136 1.68003,2.86515 5.33319,2.08849 6.86539,2.09061 6.86539,0.01 z m -9.9973,-4.99865 c 0,-0.4322 -1.34963,-1.30371 -2.99918,-1.93672 -1.64956,-0.63298 -2.99919,-0.27936 -2.99919,0.78581 0,1.06519 1.34963,1.93672 2.99919,1.93672 1.64955,0 2.99918,-0.35363 2.99918,-0.78581 z m 100.97266,-10.23745 c 83.20943,-7.28603 191.186,-26.66182 246.42578,-44.21971 l 28.49976,-9.0586 v -44.82839 c 0,-29.83948 -0.69863,-44.828355 -2.08943,-44.828355 -1.14919,0 -16.43221,3.60599 -33.9623,8.01329 C 331.66557,120.4174 241.83856,133.75405 123.14867,141.50991 l -17.49527,1.14325 v 44.74486 44.74489 l 23.49364,0.63323 c 12.9215,0.34828 23.94352,0.81566 24.49337,1.03864 0.54985,0.22298 16.29558,-0.93395 34.99052,-2.57093 z m -26.99269,-97.08827 c 75.3191,-4.85321 167.05144,-19.25319 252.9315,-39.704725 l 47.987,-11.42767 0.51562,-120.708028 c 0.28361,-66.389427 -0.25425,-121.477917 -1.19521,-122.418887 -1.55362,-1.55362 -24.05831,1.70003 -162.27627,23.4614 -23.6436,3.7225 -47.48714,7.35098 -52.98565,8.06328 -5.49851,0.7123 -23.19744,3.4713 -39.33095,6.13111 -16.1335,2.65982 -44.80118,7.05329 -63.70595,9.76327 -18.90476,2.70999 -35.62151,5.96401 -37.14834,7.23117 -2.28419,1.89571 -2.77511,16.519571 -2.77079,82.537302 0.003,44.128362 0.59465,98.424821 1.31503,120.658823 l 1.30979,40.425405 11.18158,-0.94332 c 6.14987,-0.51884 26.02756,-1.89995 44.17264,-3.06913 z m 101.97238,-19.68425 c -2.23897,-1.50647 -3.16992,-6.99473 -3.67278,-21.652015 -0.83292,-24.277106 1.06003,-27.47636 18.71419,-31.628836 15.81352,-3.719532 23.86234,-3.591447 27.20227,0.432923 4.0831,4.919848 3.86936,44.103398 -0.25505,46.753438 -8.06639,5.18286 -37.08383,9.39463 -41.98863,6.09449 z m 34.21426,-6.15408 c 6.8628,-1.94689 7.28305,-2.56792 8.45953,-12.501525 0.68089,-5.74908 0.68141,-15.18859 0.001,-20.976661 l -1.23687,-10.523771 -8.22241,0.191948 c -4.52234,0.105572 -12.68109,1.230247 -18.13059,2.499324 -7.90658,1.841261 -10.18884,3.317162 -11.29758,7.306022 -1.84552,6.639638 -2.10847,23.890788 -0.48767,31.994813 l 1.30035,6.50172 11.19627,-1.22161 c 6.15795,-0.67188 14.44596,-2.1435 18.41783,-3.27026 z m -23.80985,-18.253565 0.59262,-14.751369 11.66322,-1.84834 c 13.76313,-2.181109 15.25223,-0.919371 15.29885,12.963069 0.0438,13.02823 -3.11071,16.311755 -16.7579,17.443495 l -11.38939,0.94448 z m 20.18219,8.90271 c 3.01536,-0.83062 3.49817,-2.81426 2.99919,-12.32205 -0.58964,-11.235395 -0.64587,-11.32839 -6.5931,-10.904925 -14.43283,1.027662 -14.99593,1.579553 -14.99593,14.697545 v 12.049245 l 7.49796,-1.26493 c 4.12389,-0.6957 9.11524,-1.710395 11.09188,-2.254885 z m -31.12203,-17.15584 c -0.42097,-4.673733 -0.76539,-0.84977 -0.76539,8.4977 0,9.34747 0.34442,13.171425 0.76539,8.4977 0.42095,-4.67373 0.42095,-12.32166 0,-16.9954 z m 11.99067,-16.703816 c -0.66442,-0.6644 -2.38895,-0.735421 -3.8323,-0.157757 -1.59503,0.638267 -1.12126,1.112059 1.20801,1.207993 2.10775,0.08678 3.28869,-0.385756 2.62429,-1.050156 z M 151.64095,-5.4102126 c 0,-41.9292344 0.67482,-76.2635064 1.49959,-76.2983774 4.61508,-0.195127 75.59311,-11.03438 176.45221,-26.94651 23.6436,-3.73015 50.18641,-7.76409 58.98403,-8.96431 8.79762,-1.20022 18.47,-2.66607 21.49418,-3.25745 l 5.49851,-1.07524 v 75.864326 75.864319 l -45.48768,7.27711 c -51.05435,8.167648 -90.52436,14.277534 -156.45763,24.219362 -24.7433,3.73095 -48.81178,7.406395 -53.48551,8.167649 l -8.4977,1.384105 z m 45.98754,66.7333766 c 19.24479,-2.84543 48.48687,-7.359628 64.98241,-10.031564 16.49553,-2.671917 42.58846,-6.678892 57.98429,-8.904349 15.39583,-2.225458 42.61346,-6.438737 60.48362,-9.362845 l 32.4912,-5.316541 v -72.671654 c 0,-70.159291 -0.13182,-72.671661 -3.81327,-72.671661 -4.5742,0 -59.15462,7.90231 -102.15803,14.79072 -17.04538,2.73038 -55.28503,8.663027 -84.97698,13.183651 -29.69196,4.520622 -57.13453,8.879276 -60.98349,9.685894 l -6.9981,1.466581 -0.66535,14.927242 c -0.36594,8.209983 -0.0373,41.272823 0.7304,73.4729704 1.26011,52.8567096 1.71335,58.4514546 4.66426,57.5754116 1.79769,-0.533695 19.01426,-3.298427 38.25904,-6.143856 z m -95.974,-43.995149 c 0,-64.332581 -0.67482,-116.968492 -1.4996,-116.968692 -0.82478,-1.9e-4 -1.26044,52.635557 -0.96814,116.968333 0.29229,64.332779 0.96711,116.968684 1.49959,116.968684 0.53248,0 0.96815,-52.635745 0.96815,-116.968325 z M 39.67127,-42.537742 c 0,-55.748837 -0.71613,-87.301048 -1.99946,-88.094188 -1.32141,-0.81668 -1.99946,28.63815 -1.99946,86.858455 0,57.396474 0.69674,88.094182 1.99946,88.094182 1.30229,0 1.99946,-30.28578 1.99946,-86.858449 z m 64.95195,-66.797078 c -1.51047,-1.51047 -4.9682,2.10581 -4.9682,5.19601 0,2.72919 0.46416,2.62857 2.83572,-0.61472 1.55964,-2.13294 2.51926,-4.19452 2.13248,-4.58129 z m -6.96765,-2.24504 c 0,-0.79893 -11.32371,-7.09025 -25.1638,-13.98071 -18.50199,-9.21146 -25.75384,-11.93808 -27.39258,-10.29933 -3.24892,3.24892 -0.97966,4.89893 24.73584,17.98582 15.87484,8.07886 23.58269,11.02566 25.32121,9.68056 1.37463,-1.06356 2.49933,-2.58741 2.49933,-3.38634 z m 69.98105,-12.05885 c 29.1421,-4.47636 75.92943,-11.70033 103.97184,-16.05327 28.0424,-4.35294 73.92998,-11.47484 101.97238,-15.82645 28.04241,-4.35161 55.69278,-8.51887 61.44528,-9.26056 5.75248,-0.7417 10.05318,-2.0053 9.55707,-2.80801 -2.14004,-3.46265 -41.60449,-24.02842 -46.10909,-24.02842 -2.72858,0 -24.51674,3.0797 -48.41809,6.84377 -93.18746,14.67548 -259.75139,40.42654 -279.893,43.2719 -9.07254,1.28167 -16.49553,2.66934 -16.49553,3.08373 0,0.41439 10.57214,6.13446 23.49364,12.71127 18.83927,9.58884 24.88005,11.78419 30.49174,11.08135 3.84896,-0.48206 30.84165,-4.53895 59.98376,-9.01531 z m 0.49986,4.67906 c -1.37463,-0.55467 -3.62402,-0.55467 -4.99864,0 -1.37463,0.55468 -0.24994,1.0085 2.49932,1.0085 2.74925,0 3.87395,-0.45382 2.49932,-1.0085 z m 11.99675,-1.99946 c -1.37462,-0.55467 -3.62402,-0.55467 -4.99864,0 -1.37463,0.55468 -0.24994,1.0085 2.49932,1.0085 2.74926,0 3.87395,-0.45382 2.49932,-1.0085 z m 11.99675,-1.99946 c -1.37462,-0.55467 -3.62401,-0.55467 -4.99864,0 -1.37463,0.55468 -0.24993,1.0085 2.49932,1.0085 2.74926,0 3.87395,-0.45382 2.49932,-1.0085 z m 10.95538,-1.88326 c -0.66442,-0.6644 -2.38895,-0.73544 -3.83231,-0.15786 -1.59503,0.63828 -1.12124,1.11207 1.20801,1.20801 2.10776,0.0868 3.2887,-0.38575 2.6243,-1.05016 z m 11.99675,-1.99946 c -0.66442,-0.6644 -2.38896,-0.73544 -3.8323,-0.15786 -1.59503,0.63828 -1.12126,1.11207 1.20801,1.20801 2.10775,0.0868 3.28869,-0.38575 2.62429,-1.05015 z m -174.62503,-9.95254 c 1.87694,-4.89124 1.47,-5.53752 -1.78554,-2.83566 -3.32385,2.75855 -3.97937,5.99837 -1.21365,5.99837 0.98205,0 2.33168,-1.42322 2.99919,-3.16271 z m 230.60987,1.95471 c -0.66442,-0.66441 -2.38896,-0.73544 -3.83231,-0.15786 -1.59502,0.63828 -1.12125,1.11206 1.20802,1.20801 2.10775,0.0868 3.28869,-0.38576 2.62429,-1.05016 z m 13.03812,-2.11566 c -1.37462,-0.55467 -3.62401,-0.55467 -4.99864,0 -1.37463,0.55468 -0.24993,1.0085 2.49932,1.0085 2.74926,0 3.87395,-0.45382 2.49932,-1.0085 z m 9.9973,-1.99946 c -1.37463,-0.55467 -3.62402,-0.55467 -4.99865,0 -1.37463,0.55468 -0.24993,1.0085 2.49932,1.0085 2.74926,0 3.87395,-0.45382 2.49933,-1.0085 z m 11.99675,-1.99946 c -1.37463,-0.55467 -3.62402,-0.55467 -4.99865,0 -1.37463,0.55468 -0.24993,1.0085 2.49932,1.0085 2.74926,0 3.87396,-0.45382 2.49933,-1.0085 z m -228.43814,-4.67417 c 3.9581,-1.2676 4.16621,-1.60084 0.99973,-1.60084 -2.1994,0 -6.24831,0.72038 -8.99756,1.60084 -3.9581,1.2676 -4.16621,1.60085 -0.99973,1.60085 2.1994,0 6.24831,-0.72038 8.99756,-1.60085 z m 297.37781,-5.20692 c -0.66442,-0.6644 -2.38896,-0.73544 -3.83231,-0.15786 -1.59502,0.63828 -1.12125,1.11207 1.20802,1.20801 2.10775,0.0868 3.28869,-0.38575 2.62429,-1.05016 z m 11.03867,-2.11566 c -1.37463,-0.55467 -3.62402,-0.55467 -4.99865,0 -1.37463,0.55468 -0.24993,1.0085 2.49932,1.0085 2.74926,0 3.87395,-0.45382 2.49933,-1.0085 z m 11.99675,-1.99946 c -1.37463,-0.55467 -3.62402,-0.55467 -4.99865,0 -1.37463,0.55468 -0.24993,1.0085 2.49932,1.0085 2.74926,0 3.87396,-0.45382 2.49933,-1.0085 z m -252.97315,-1.88326 c -0.66441,-0.6644 -2.38894,-0.73544 -3.8323,-0.15786 -1.59504,0.63828 -1.12125,1.11207 1.20801,1.20801 2.10776,0.0868 3.28869,-0.38575 2.62429,-1.05015 z m 264.9699,-0.11619 c -1.37463,-0.55468 -3.62402,-0.55468 -4.99865,0 -1.37463,0.55467 -0.24993,1.00849 2.49933,1.00849 2.74925,0 3.87395,-0.45382 2.49932,-1.00849 z m -161.95614,-15.99567 c -1.37463,-0.55468 -3.62402,-0.55468 -4.99864,0 -1.37463,0.55467 -0.24994,1.00849 2.49932,1.00849 2.74925,0 3.87395,-0.45382 2.49932,-1.00849 z m 114.469,-16.67093 c 5.09506,-2.18942 -0.16156,-2.18942 -6.99811,0 -4.01837,1.28691 -4.21443,1.61237 -0.99972,1.65962 2.1994,0.0323 5.79843,-0.7145 7.99783,-1.65962 z"
       style="fill:#000000;stroke-width:1.99945855" />
  </g>
</svg>
