<?xml version="1.0" encoding="UTF-8" standalone="no"?>
<svg
   xmlns:dc="http://purl.org/dc/elements/1.1/"
   xmlns:cc="http://creativecommons.org/ns#"
   xmlns:rdf="http://www.w3.org/1999/02/22-rdf-syntax-ns#"
   xmlns:svg="http://www.w3.org/2000/svg"
   xmlns="http://www.w3.org/2000/svg"
   width="500mm"
   height="500mm"
   viewBox="0 0 500 500"
   version="1.1"
   id="svg8">
  <defs
     id="defs2" />
  <metadata
     id="metadata5">
    <rdf:RDF>
      <cc:Work
         rdf:about="">
        <dc:format>image/svg+xml</dc:format>
        <dc:type
           rdf:resource="http://purl.org/dc/dcmitype/StillImage" />
        <dc:title></dc:title>
      </cc:Work>
    </rdf:RDF>
  </metadata>
  <g
     id="layer1">
    <path
       style="fill:#000000;stroke-width:1.99129"
       d="m 190.87592,491.10639 -16.42813,-8.03499 v -95.49653 c 0,-62.33685 0.69144,-95.49656 1.99128,-95.49656 1.09521,0 1.99129,-3.13628 1.99129,-6.96951 0,-3.83323 -0.89608,-6.96951 -1.99129,-6.96951 -1.30724,0 -1.99128,-44.78065 -1.99128,-130.35938 0,-125.214161 0.14669,-130.437895 3.71679,-132.348554 6.40782,-3.429356 47.34934,-9.9630918 54.82687,-8.7496558 4.33776,0.703923 8.28476,0.203804 10.06736,-1.2756233 1.75538,-1.4568318 12.35143,-2.8577101 26.40145,-3.4904704 l 23.46923,-1.0569677 15.25013,10.3380012 15.25013,10.338001 1.30214,20.274885 c 0.71619,11.151187 1.02227,114.555554 0.68019,229.787484 -0.54366,183.13886 -0.99796,209.86003 -3.60889,212.2726 -2.73496,2.52718 -17.43605,5.94434 -48.78659,11.34003 -6.57125,1.13098 -24.04482,2.47828 -38.83014,2.99403 l -26.8824,0.93769 z m 99.75963,-2.76279 c 14.07126,-2.65545 26.0363,-5.28028 26.58897,-5.83297 1.40292,-1.40292 -1.47392,-21.17957 -3.07553,-21.14249 -0.71864,0.0159 -11.16349,1.82516 -23.21079,4.01894 -12.0473,2.19378 -32.35996,4.55414 -45.13924,5.24526 l -23.23504,1.25654 -4.14518,10.83201 c -2.27985,5.9576 -4.14517,11.33874 -4.14517,11.95805 0,2.52347 52.49946,-1.83214 76.36198,-6.33534 z m -74.70324,-6.24797 c 2.48302,-6.3002 3.33894,-11.15012 2.27234,-12.87592 -2.11094,-3.41557 -5.78941,5.04701 -7.39351,17.0093 -1.32999,9.91819 0.01,8.83736 5.12117,-4.13338 z m -9.19203,-98.91584 c 0.31009,-59.41509 0.30312,-160.89616 -0.0159,-225.5135 l -0.5788,-117.486059 -14.35543,-8.221229 -14.35543,-8.22123 -0.51279,125.545338 c -0.50434,123.47516 -0.44688,125.60675 3.48475,129.26961 5.41486,5.04471 5.41192,15.51987 -0.005,16.93635 -3.94521,1.03171 -3.99492,2.35219 -3.48475,92.57406 l 0.51757,91.52744 12.94338,5.66408 c 7.11886,3.11525 13.58577,5.729 14.37089,5.80833 0.78513,0.0793 1.68121,-48.4681 1.99129,-107.88319 z m 114.18511,76.61655 c -2.45903,-2.45903 -3.04182,1.38635 -1.61783,10.6748 l 1.49998,9.784 0.61567,-9.67267 c 0.33862,-5.31994 0.1145,-10.17371 -0.49782,-10.78613 z M 216.08815,288.09573 c 0.002,-139.3189 -0.53737,-176.63224 -2.69306,-186.18554 -2.332,-10.33458 -2.70172,13.99709 -2.73832,180.21168 -0.0362,164.50275 0.35138,191.2996 2.69306,186.18554 2.25324,-4.92088 2.73591,-36.6863 2.73832,-180.21168 z m 63.072,176.10914 c 9.95021,-1.52256 22.59044,-3.73317 28.0894,-4.91249 l 9.99814,-2.1442 0.78575,-100.95436 c 0.43215,-55.52491 0.33702,-138.14168 -0.21138,-183.59286 l -0.9971,-82.638499 -7.96515,-0.666182 c -19.57077,-1.63684 -83.50296,8.564332 -86.76637,13.844651 -1.80168,2.91517 -2.36593,361.71858 -0.57341,364.61895 1.33181,2.15491 33.14873,0.19256 57.64012,-3.55501 z m -25.74409,-51.55764 c -2.2766,-5.93273 -1.41365,-26.07265 1.27469,-29.74917 1.99135,-2.72332 5.7272,-3.60835 16.31634,-3.86535 l 13.73364,-0.33332 1.8204,7.54054 c 2.44501,10.12783 0.15353,24.60002 -4.15694,26.25413 -1.85054,0.71011 -8.83562,1.80202 -15.52239,2.42644 -10.29258,0.96114 -12.35842,0.61239 -13.46574,-2.27327 z m 28.60877,-4.10781 c 1.06913,-0.66075 1.94386,-6.52498 1.94386,-13.0316 0,-13.15061 -0.14477,-13.24358 -16.42813,-10.5521 l -7.46734,1.23426 v 12.96021 12.96021 l 10.00388,-1.18482 c 5.50215,-0.65163 10.87863,-1.72541 11.94773,-2.38616 z M 181.78193,285.73108 c -0.63567,-1.58851 -1.10752,-1.11668 -1.20307,1.20307 -0.0865,2.09914 0.38417,3.27526 1.04586,2.61357 0.66169,-0.6617 0.73244,-2.37919 0.15722,-3.81664 z m 141.49561,-45.92411 c -0.38884,-6.84506 -0.70699,-1.24456 -0.70699,12.44556 0,13.69011 0.31815,19.29061 0.70699,12.44556 0.38884,-6.84506 0.38884,-18.04606 0,-24.89112 z m -0.0237,-42.81272 c -0.42962,-4.10703 -0.7811,-0.74673 -0.7811,7.46734 0,8.21406 0.35148,11.57437 0.7811,7.46733 0.4296,-4.10703 0.4296,-10.82763 0,-14.93467 z M 216.17449,72.040858 c -2.418,-14.237718 -4.84721,-26.3348 -5.3982,-26.882404 -1.7467,-1.735897 0.9775,34.283162 3.66714,48.486661 2.18442,11.535535 2.8561,12.917565 4.3551,8.960795 1.18797,-3.135719 0.32273,-13.213954 -2.62404,-30.565052 z m 28.96406,20.912035 c 10.95209,-2.181208 31.21314,-4.550876 45.02454,-5.26593 l 25.11165,-1.300099 1.27294,-17.933182 c 0.70011,-9.86325 1.27293,-23.756226 1.27293,-30.87328 V 24.640305 l -24.3933,1.259371 c -22.71483,1.172716 -45.43763,4.201714 -70.77461,9.434416 -8.34408,1.723252 -10.34599,2.868892 -9.61528,5.502547 0.50756,1.829394 2.94073,15.199232 5.40704,29.710752 2.46633,14.51152 5.00105,26.3816 5.6327,26.37796 0.63168,-0.004 10.1093,-1.791249 21.06139,-3.972458 z m 76.66464,-34.304817 c 0,-14.355616 -0.32377,-25.727753 -0.71948,-25.271417 -1.81012,2.087432 -2.9981,53.670132 -1.21062,52.565407 1.0871,-0.671867 1.9301,-12.592873 1.9301,-27.29399 z M 204.1986,32.455078 c -5.46368,-5.051676 -25.46587,-15.283616 -26.5256,-13.568933 -1.15366,1.866658 26.82595,18.789088 28.4239,17.19114 0.53354,-0.533556 -0.32068,-2.163548 -1.8983,-3.622207 z m 45.91817,-6.98423 c 12.59491,-2.11718 32.13947,-4.497429 43.43237,-5.289443 l 20.53254,-1.440026 -11.57174,-7.85406 -11.57174,-7.8540604 -20.83324,1.1566048 c -15.53082,0.8622288 -21.25769,1.9150758 -22.50095,4.1366398 -1.856,3.3165058 -11.80952,3.9807448 -17.11364,1.142065 -4.09825,-2.193311 -46.62702,5.3256828 -45.00131,7.9561318 0.57662,0.932995 6.44379,4.736912 13.03814,8.453148 10.6787,6.017961 12.90279,6.575585 20.33976,5.099606 4.59249,-0.911453 18.65491,-3.389425 31.24981,-5.506606 z"
       id="path190" />
  </g>
</svg>
