<?xml version="1.0" encoding="UTF-8" standalone="no"?>
<svg
   xmlns:dc="http://purl.org/dc/elements/1.1/"
   xmlns:cc="http://creativecommons.org/ns#"
   xmlns:rdf="http://www.w3.org/1999/02/22-rdf-syntax-ns#"
   xmlns:svg="http://www.w3.org/2000/svg"
   xmlns="http://www.w3.org/2000/svg"
   id="svg8"
   version="1.1"
   viewBox="0 0 500 500"
   height="500mm"
   width="500mm">
  <defs
     id="defs2" />
  <metadata
     id="metadata5">
    <rdf:RDF>
      <cc:Work
         rdf:about="">
        <dc:format>image/svg+xml</dc:format>
        <dc:type
           rdf:resource="http://purl.org/dc/dcmitype/StillImage" />
        <dc:title></dc:title>
      </cc:Work>
    </rdf:RDF>
  </metadata>
  <g
     transform="translate(0,203)"
     id="layer1">
    <path
       id="path77"
       d="m 59.705005,278.58095 c -13.16899,-6.12312 -24.60329,-12.14734 -25.40955,-13.38716 -0.80626,-1.23982 -1.47967,-44.13436 -1.49647,-95.32115 -0.0266,-80.904515 0.36057,-93.216988 2.9624,-94.215418 4.22984,-1.623138 4.22984,-25.69752 0,-29.207976 -2.58179,-2.142695 -2.99296,-15.2146 -2.99296,-95.152356 0,-58.14386 0.74555,-94.06151 2.00115,-96.40763 1.53096,-2.86061 5.25358,-4.05967 15.84338,-5.10316 8.89016,-0.87601 14.21932,-2.34667 14.89629,-4.11085 0.80502,-2.09783 6.1494,-2.74687 22.61855,-2.74687 11.860451,0 28.724005,-0.91664 37.474545,-2.03699 8.75054,-1.12034 31.77361,-4.07616 51.16238,-6.56848 19.38878,-2.49231 36.89756,-3.89369 38.90841,-3.11417 5.20048,2.01602 25.22112,-0.26193 27.5997,-3.14029 1.80804,-2.18796 26.58032,-5.56468 82.80505,-11.28718 10.42545,-1.0611 25.47506,-3.69306 33.44358,-5.8488 15.69323,-4.24553 28.41079,-5.10688 28.41079,-1.92423 0,2.41969 7.3764,2.68823 8.31377,0.30266 0.3658,-0.93095 5.64503,-2.26413 11.7316,-2.96261 l 11.0665,-1.26997 21.30684,13.97395 c 11.71877,7.68567 22.22166,15.68325 23.33975,17.77241 1.28895,2.40845 2.4473,52.95899 3.16535,138.137543 1.23242,146.196707 -0.66194,263.393747 -4.3165,267.045417 -2.52733,2.52531 -15.07766,4.42657 -110.52275,16.74316 -85.2537,11.00146 -180.29894,22.16206 -222.47621,26.12411 -17.55866,1.64942 -35.067444,3.41297 -38.908405,3.91898 -5.4811,0.72206 -12.13484,-1.47517 -30.92719,-10.21294 z m 76.819145,3.03496 c 53.79106,-5.1234 135.91709,-15.2249 137.45644,-16.90716 0.66939,-0.73154 -4.59556,-0.74824 -11.69989,-0.0371 -14.88336,1.48981 -87.10159,6.46041 -130.321,8.96966 -26.04294,1.51202 -30.03891,2.21395 -34.048744,5.98098 -6.036621,5.67111 -9.111651,5.49203 -3.80335,-0.2215 l 4.17103,-4.48943 -4.73535,-3.52041 c -4.577011,-3.40271 -4.810311,-3.38032 -6.977831,0.6697 -1.23337,2.30458 -2.74031,3.69233 -3.34876,3.08386 -0.60845,-0.60845 0.33579,-3.30711 2.09831,-5.99706 3.69288,-5.63607 4.6555,-23.68436 6.35713,-119.19117 1.05438,-59.178625 0.96722,-61.137154 -2.7641,-62.112917 -3.66359,-0.958065 -3.91066,0.67112 -5.03059,33.171157 -0.64779,18.79828 -1.57692,63.55483 -2.06474,99.459 l -0.88696,65.28034 7.34736,-0.12112 c 4.04104,-0.0665 25.754015,-1.87409 48.251045,-4.01682 z m -64.847325,-2.12183 c -12.30384,-6.50522 -28.93189,-13.63677 -28.93189,-12.40852 0,1.32236 32.06241,16.56819 34.91779,16.60357 1.09742,0.014 -1.59624,-1.87417 -5.9859,-4.19505 z m 7.65927,-39.99933 c 1.69754,-52.39353 1.69951,-256.024449 0.003,-310.499328 l -1.3166,-42.275772 -17.60416,-9.92382 c -9.68229,-5.4581 -18.06869,-9.92382 -18.63643,-9.92382 -0.56775,0 -0.9888,89.11521 -0.93568,198.033784 l 0.0966,198.033766 17.36231,8.33096 c 9.54927,4.58204 17.89321,8.39805 18.54209,8.48004 0.64888,0.082 1.76888,-18.03313 2.48889,-40.25581 z m 76.177485,30.43232 c 52.0854,-3.25237 88.56019,-6.00303 108.70993,-8.19808 35.63256,-3.88172 134.01402,-20.28447 185.03905,-30.85083 2.4553,-0.50844 6.04684,-3.33992 7.98121,-6.29215 3.29317,-5.02605 3.51702,-16.76744 3.51702,-184.478374 0,-176.470346 -0.0589,-179.168656 -3.99061,-183.041226 -3.97053,-3.91074 -4.29664,-3.90642 -64.84732,0.85921 -33.4712,2.63434 -64.89721,5.27413 -69.83559,5.86619 -63.0893,7.56378 -112.03179,14.07813 -135.68056,18.05938 -15.91253,2.67886 -41.34054,6.69162 -56.50669,8.91726 -29.953074,4.39561 -34.690874,6.0152 -36.973505,12.639158 -0.82789,2.402465 -0.73959,33.549414 0.19623,69.215446 0.935811,35.6660323 1.053311,114.231068 0.261101,174.588956 -1.741731,132.70166 -1.883661,120.77245 1.46208,122.89122 3.64804,2.31024 21.687794,2.25785 60.667654,-0.17618 z m 101.22754,-80.01642 c -2.9912,-3.10984 -3.45802,-36.91066 -0.61311,-44.39331 2.26069,-5.9461 4.82162,-6.85797 26.06437,-9.28077 24.31013,-2.77263 24.18049,-2.91342 23.49608,25.52194 l -0.56126,23.31812 -5.82249,2.78684 c -8.21779,3.93328 -39.31101,5.42878 -42.56359,2.04718 z m 28.27739,-1.87495 c 7.59629,-1.09793 15.00385,-2.98587 16.46124,-4.19538 3.14851,-2.61303 3.80788,-40.66532 0.73755,-42.5629 -2.66086,-1.64448 -36.57318,2.74528 -38.87496,5.03216 -3.07342,3.05351 -4.00876,37.32067 -1.1139,40.80876 2.90598,3.5015 4.47455,3.56463 22.79007,0.91736 z m -14.75179,-6.64671 c -3.21976,-3.21976 -2.54343,-24.42224 0.88851,-27.85418 3.22097,-3.22098 21.5592,-6.44978 24.90115,-4.38432 2.47114,1.52724 2.76527,24.83018 0.36125,28.6213 -2.18236,3.44159 -23.39269,6.37543 -26.15091,3.6172 z m 19.39689,-4.40653 c 4.05334,-0.82575 4.48943,-2.07379 4.48943,-12.84839 0,-13.12246 -0.7907,-13.67119 -15.4693,-10.73548 -5.33362,1.06673 -6.12618,2.18002 -7.21689,10.13773 -2.08166,15.1873 0.45375,17.06079 18.19676,13.44614 z m -30.98667,-14.31049 c 0.30708,-6.86084 -0.11512,-12.47263 -0.93817,-12.47064 -0.82306,0.002 -1.36195,7.86014 -1.19752,17.46253 0.31261,18.25546 1.18669,16.21243 2.13569,-4.99189 z m 3.55126,-18.68842 c 0,-1.09741 -0.89788,-1.44039 -1.9953,-0.76214 -1.09742,0.67824 -1.9953,2.13104 -1.9953,3.22846 0,1.09741 0.89788,1.44039 1.9953,0.76214 1.09742,-0.67824 1.9953,-2.13104 1.9953,-3.22846 z m 9.43613,-2.9653 c -0.66304,-0.66302 -2.38399,-0.73389 -3.82434,-0.15743 -1.59171,0.63694 -1.11892,1.10975 1.2055,1.20549 2.10337,0.0866 3.28186,-0.38496 2.61884,-1.04798 z m 13.049,-2.0986 c -1.35088,-0.54655 -4.04454,-0.57981 -5.98591,-0.074 -1.94137,0.50589 -0.83609,0.95308 2.45616,0.99374 3.29224,0.0407 4.88063,-0.37324 3.52975,-0.91982 z m 70.29643,116.97892 c 34.01991,-4.42215 69.03746,-8.94622 77.8168,-10.05351 21.2422,-2.67917 21.63282,-2.8439 18.89096,-7.96714 -2.60878,-4.87455 0.5445,-5.19996 -58.79701,6.06787 -21.94833,4.16757 -56.74141,10.09847 -77.31797,13.17977 -20.57655,3.08131 -37.41192,6.33403 -37.41192,7.22825 0,0.89423 3.36708,1.16667 7.48239,0.60543 4.11531,-0.56124 35.31685,-4.63854 69.33675,-9.06067 z M 36.258295,124.76486 c -0.31662,-24.966213 -0.57566,-4.53931 -0.57566,45.39313 0,49.93245 0.25904,70.35935 0.57566,45.39313 0.31661,-24.96622 0.31661,-65.82004 0,-90.78626 z M 460.97221,239.16447 c 0.5961,-1.55342 0.7924,-5.07735 0.43619,-7.83096 -0.64238,-4.96617 -0.6845,-4.97647 -5.22252,-1.27598 -3.98368,3.24847 -4.24397,4.26045 -2.01416,7.83096 2.99535,4.79631 5.28478,5.22588 6.80049,1.27598 z m 2.22963,-67.51 c -0.44262,-3.56661 -0.80476,-0.64848 -0.80476,6.48473 0,7.13321 0.36214,10.05134 0.80476,6.48473 0.4426,-3.5666 0.4426,-9.40286 0,-12.96946 z m 2.02922,-117.722839 c -0.38962,-6.858853 -0.70841,-1.247064 -0.70841,12.47064 0,13.717705 0.31879,19.329493 0.70841,12.470641 0.38963,-6.858853 0.38963,-18.082429 0,-24.941281 z M 91.666805,22.006791 c -1.64265,-94.409871 -2.6854,-114.760681 -6.23158,-121.618247 -1.69317,-3.274234 -2.58846,-6.443174 -1.98954,-7.042094 0.59892,-0.59893 1.98462,1.26682 3.07932,4.14609 l 1.99036,5.235068 5.203141,-5.203158 5.20315,-5.20314 -6.488191,-6.69411 c -11.42261,-11.78515 -11.61934,-10.56868 -10.62227,65.681263 0.49053,37.512309 1.42468,82.794849 2.07589,100.627865 1.10502,30.260339 1.44024,32.423666 5.02432,32.423666 3.73141,0 3.80954,-1.767878 2.7554,-62.353203 z M 36.258295,-92.723102 c -0.31662,-24.966228 -0.57566,-4.53932 -0.57566,45.393131 0,49.9324452 0.25904,70.359354 0.57566,45.3931321 0.31661,-24.9662231 0.31661,-65.8200411 0,-90.7862631 z M 465.23703,-1.8495444 c -0.37971,-8.0042796 -0.69291,-1.9828319 -0.69602,13.3809974 -0.004,15.363829 0.30755,21.912791 0.69035,14.553237 0.38282,-7.359553 0.38538,-19.9299588 0.006,-27.9342344 z M 463.21647,-109.74339 c -0.41846,-4.63091 -0.75586,-0.33885 -0.74978,9.53789 0.006,9.876761 0.34846,13.665684 0.76083,8.419845 0.41239,-5.245847 0.4074,-13.326825 -0.012,-17.957735 z m -337.66648,-1.42948 c 8.77933,-1.2273 35.35551,-5.32919 59.05817,-9.11533 23.70266,-3.78613 53.67993,-8.19686 66.61613,-9.80161 12.9362,-1.60475 23.86791,-3.26526 24.29267,-3.69002 1.6149,-1.6149 -1.86591,-7.32937 -4.46447,-7.32937 -1.49632,0 -24.52081,2.65254 -51.16556,5.89452 -26.64474,3.24199 -64.15799,7.31823 -83.36278,9.05832 -19.20478,1.7401 -37.957284,3.69969 -41.672224,4.35465 l -6.754431,1.19085 7.752081,6.6169 c 4.263654,3.63929 9.098924,6.26491 10.745044,5.83471 1.64612,-0.4302 10.17604,-1.78633 18.95537,-3.01362 z M 81.161145,-122.8687 c -0.75647,-2.15323 -33.87762,-20.21088 -36.25556,-19.76653 -6.0726,1.13476 -3.95947,5.45504 5.20609,10.64382 5.27633,2.98703 13.61815,7.95796 18.53738,11.04653 8.15884,5.12257 9.11169,5.316 10.85364,2.20331 1.05028,-1.87674 1.79658,-3.73395 1.65845,-4.12713 z m 50.374755,-5.22959 c 39.90491,-3.66569 121.3393,-13.14531 122.56544,-14.2676 0.46859,-0.42892 -0.78978,-1.98034 -2.7964,-3.44761 -2.00661,-1.46727 -2.83896,-3.14326 -1.84964,-3.72441 3.29496,-1.93557 28.73508,-3.88704 28.75089,-2.20544 0.008,0.91041 2.38771,2.75662 5.28701,4.10269 4.38671,2.03663 13.84458,1.28932 56.35173,-4.4526 90.11609,-12.17299 110.8998,-14.92595 112.79484,-14.94057 1.02052,-0.008 -5.71363,-5.03017 -14.96477,-11.16069 l -16.82026,-11.14638 -67.84028,8.28277 c -37.31215,4.55552 -93.43003,11.36361 -124.7064,15.12907 -31.27636,3.76547 -82.51784,9.99247 -113.86996,13.83778 -31.352115,3.84531 -58.243805,6.99148 -59.759315,6.99148 -4.42873,0 0.46621,3.93812 16.57547,13.33544 10.53164,6.14363 15.99458,8.17809 20.37559,7.58811 3.292251,-0.44336 21.249975,-2.20827 39.906055,-3.92204 z m 185.56312,-9.89792 c 15.36383,-1.6285 47.23878,-4.35341 70.83323,-6.05536 61.59541,-4.44309 59.44279,-4.0305 63.30719,-12.13423 1.78915,-3.75189 2.77695,-7.29767 2.1951,-7.87952 -0.58185,-0.58185 -10.39505,0.28144 -21.80712,1.91843 -58.17508,8.34486 -140.42647,19.04239 -146.41355,19.04239 -7.48905,0 -9.67834,1.94486 -7.77438,6.90647 0.88773,2.31342 2.79502,2.96552 6.4912,2.21935 2.87876,-0.58114 17.8045,-2.38904 33.16833,-4.01753 z m -276.379935,-7.84673 c 0.0168,-0.95744 -1.30639,-0.63123 -2.94043,0.7249 -1.63405,1.35614 -2.4197,3.35771 -1.74589,4.44795 1.23659,2.00084 4.62607,-1.74054 4.68632,-5.17285 z m 421.039355,-10.34878 c 0,-10.78483 -3.12317,-11.42455 -7.27409,-1.48995 -2.84383,6.80624 -2.8135,7.56592 0.39576,9.91259 5.09106,3.72267 6.87833,1.53411 6.87833,-8.42264 z m -384.556565,5.79252 c -1.35088,-0.54656 -4.04454,-0.57983 -5.9859,-0.0739 -1.94137,0.50589 -0.8361,0.95308 2.45615,0.99374 3.29225,0.0407 4.88064,-0.37325 3.52975,-0.91981 z m 127.661385,-15.97508 c -1.37177,-0.55352 -3.61648,-0.55352 -4.98826,0 -1.37177,0.55352 -0.24941,1.0064 2.49413,1.0064 2.74354,0 3.8659,-0.45288 2.49413,-1.0064 z m 179.57721,-21.94833 c -1.37177,-0.55352 -3.61648,-0.55352 -4.98825,0 -1.37177,0.55353 -0.24942,1.00641 2.49413,1.00641 2.74354,0 3.86589,-0.45288 2.49412,-1.00641 z"
       style="fill:#000000;stroke-width:1.99530244" />
  </g>
</svg>
