<?xml version="1.0" encoding="UTF-8" standalone="no"?>
<svg
   xmlns:dc="http://purl.org/dc/elements/1.1/"
   xmlns:cc="http://creativecommons.org/ns#"
   xmlns:rdf="http://www.w3.org/1999/02/22-rdf-syntax-ns#"
   xmlns:svg="http://www.w3.org/2000/svg"
   xmlns="http://www.w3.org/2000/svg"
   width="500mm"
   height="500mm"
   viewBox="0 0 500 500"
   version="1.1"
   id="svg8">
  <defs
     id="defs2" />
  <metadata
     id="metadata5">
    <rdf:RDF>
      <cc:Work
         rdf:about="">
        <dc:format>image/svg+xml</dc:format>
        <dc:type
           rdf:resource="http://purl.org/dc/dcmitype/StillImage" />
        <dc:title></dc:title>
      </cc:Work>
    </rdf:RDF>
  </metadata>
  <g
     id="layer1">
    <path
       style="fill:#000000;stroke-width:2.2959"
       d="M 175.95142,487.80197 C 24.86442,487.22968 19.969308,487.07465 13.777656,482.6658 -0.17671292,472.72941 -0.02948532,474.61633 0.11290643,307.54351 0.20812595,195.7711 0.96847742,153.48443 2.982779,147.92915 6.1996905,139.05714 110.09365,22.567209 120.38851,16.289284 c 6.66242,-4.062819 14.82787,-4.279624 161.49022,-4.287772 170.2845,-0.0094 166.05552,-0.352813 174.92975,14.202632 4.41851,7.247214 4.63389,11.403242 4.64206,89.573336 l 0.009,81.9735 15.49732,0.67888 15.49732,0.67887 4.04025,11.4795 c 4.80479,13.65174 4.47377,55.63423 -0.51965,65.90961 -2.77122,5.70255 -4.27464,6.27168 -18.19405,6.8877 l -15.17384,0.67147 -0.55846,32.14259 c -0.30716,17.67843 -1.10536,34.48173 -1.77378,37.34067 -1.14838,4.91189 -100.54135,117.73421 -113.06341,128.33982 -3.22583,2.73214 -8.0264,5.31503 -10.6679,5.73975 -2.6415,0.42472 -74.90794,0.50667 -160.59211,0.18206 z M 347.8095,477.37434 c 6.47177,-6.47177 7.79564,-9.72906 9.09806,-22.38503 0.83828,-8.14611 1.20105,-79.89988 0.80615,-159.4528 -0.66835,-134.64005 -1.00638,-145.17013 -4.88833,-152.28421 -7.90446,-14.48578 -4.03907,-14.1685 -172.61394,-14.1685 -168.574887,0 -164.709493,-0.31728 -172.6139684,14.1685 -3.8873052,7.12391 -4.2173497,17.76983 -4.8635298,156.87601 -0.3812696,82.0784 -0.030282,153.82039 0.779971,159.42661 1.0501435,7.26605 3.6556697,12.37564 9.0732572,17.79323 l 7.600061,7.60007 H 180.21144 340.23563 Z M 23.440054,472.1814 c -6.115914,-4.28375 -11.977245,-14.94456 -11.977245,-21.78466 0,-14.50803 16.401786,-29.73298 28.184125,-26.16187 7.672886,2.32559 14.998767,9.95179 17.84529,18.57681 7.019555,21.26945 -16.569659,41.61495 -34.05217,29.36972 z m 24.308542,-4.42727 c 7.819572,-6.57973 10.004232,-14.55653 6.98324,-25.49766 -5.033992,-18.2316 -28.70188,-20.29654 -37.505507,-3.27221 -4.373512,8.45745 -4.355964,12.4033 0.09683,21.78701 6.269186,13.21133 19.432807,16.23249 30.425365,6.98286 z m 263.804934,3.38278 c -7.14649,-5.62142 -11.68252,-18.30378 -9.72855,-27.20016 2.19458,-9.99182 13.48343,-19.60028 23.02812,-19.60028 9.5447,0 20.83355,9.60846 23.02813,19.60028 3.33339,15.17691 -8.71393,31.82786 -23.02813,31.82786 -4.07903,0 -10.06382,-2.08247 -13.29957,-4.6277 z m 22.2645,-0.28222 c 3.15542,-1.43768 7.45567,-6.23552 9.55607,-10.66183 7.21914,-15.21318 -2.66997,-32.64214 -18.521,-32.64214 -9.75723,0 -16.62247,5.51111 -19.71232,15.82408 -5.753,19.20176 11.19726,35.4443 28.67725,27.47989 z M 23.440054,187.48986 C 17.32414,183.20611 11.462809,172.5453 11.462809,165.7052 c 0,-14.50803 16.401786,-29.73296 28.184125,-26.16185 7.672886,2.32558 14.998767,9.95176 17.84529,18.57681 7.019555,21.26944 -16.569659,41.61494 -34.05217,29.3697 z m 24.308542,-4.42725 c 15.950259,-13.42127 7.837142,-40.20341 -12.178842,-40.20341 -9.757214,0 -16.622484,5.51109 -19.712317,15.82407 -2.179077,7.2731 -1.974004,10.14764 1.201331,16.83916 6.52849,13.75778 19.510158,16.94724 30.689828,7.54018 z m 263.804934,3.38278 c -7.14649,-5.62143 -11.68252,-18.30379 -9.72855,-27.20018 2.19458,-9.99182 13.48343,-19.60028 23.02812,-19.60028 9.5447,0 20.83355,9.60846 23.02813,19.60028 3.33339,15.1769 -8.71393,31.82788 -23.02813,31.82788 -4.07903,0 -10.06382,-2.08248 -13.29957,-4.6277 z m 22.06013,-0.33912 c 10.81164,-5.75832 14.85546,-18.41159 9.77217,-30.5776 -7.85599,-18.80202 -32.27004,-16.78826 -38.24505,3.1546 -5.70267,19.03378 12.07543,36.15633 28.47288,27.423 z m 49.84104,248.33215 c 1.69268,-5.50079 2.25488,-56.99207 1.78223,-163.23106 -0.5835,-131.15528 -1.20383,-155.81382 -4.00471,-159.18775 -3.05963,-3.68563 -4.35812,-2.87481 -16.90119,10.55375 -7.47281,8.00034 -12.23894,12.47978 -10.59138,9.95429 1.64754,-2.52549 7.56713,-9.40042 13.15463,-15.27763 5.58751,-5.8772 9.48313,-11.77959 8.65693,-13.11641 -0.82621,-1.33682 -5.33919,-3.49622 -10.02884,-4.79868 C 354.20606,96.192064 63.847465,96.065596 52.922711,99.198767 45.03705,101.46035 33.051526,111.4357 25.291123,122.1961 l -4.139504,5.73975 H 181.46153 341.77144 l 7.07478,6.77835 c 3.89112,3.72809 8.11966,10.6588 9.39675,15.40159 1.48751,5.52412 2.09319,63.86819 1.68533,162.34189 l -0.63671,153.71864 10.84522,-11.85111 c 5.96486,-6.51813 11.95791,-15.46718 13.31789,-19.88679 z m 37.87522,-37.30835 c 18.51907,-20.51962 34.60754,-39.70022 35.75217,-42.62361 1.14461,-2.92337 2.08114,-20.22872 2.08114,-38.45632 0,-31.61047 -0.21208,-33.14108 -4.59181,-33.14108 -2.55099,0 -4.59179,-1.53061 -4.59179,-3.44385 0,-2.26334 -2.26468,-3.44385 -6.60659,-3.44385 -3.63361,0 -7.89273,1.54974 -9.46471,3.44385 -1.81355,2.18519 -6.88249,3.44385 -13.86927,3.44385 -10.0254,0 -11.43893,-0.69224 -15.79017,-7.73266 -4.09565,-6.62691 -4.77906,-11.40448 -4.77906,-33.40967 0,-22.41684 0.6559,-26.82564 5.16578,-34.72378 4.69898,-8.22931 6.0221,-9.04839 14.64224,-9.06449 5.6413,-0.0115 10.63313,1.37604 12.33458,3.42617 3.75628,4.52604 17.46064,4.52604 19.19747,0 0.72683,-1.89411 2.90366,-3.44385 4.83743,-3.44385 3.09017,0 3.5159,-9.71191 3.5159,-80.20702 0,-74.411302 -1.21836,-92.290583 -6.25691,-91.818923 -1.64142,0.153665 -51.00997,54.411593 -65.48919,71.975151 -6.11943,7.422962 -6.20644,7.912652 -2.83834,15.973662 3.00766,7.19833 3.39326,29.29738 2.86912,164.43565 -0.33305,85.86587 -0.42181,156.1196 -0.19722,156.11944 0.22455,-1.8e-4 15.56021,-16.78907 34.07928,-37.30867 z m 3.39481,-117.55684 c 0,-0.57195 -1.19898,-3.67142 -2.66443,-6.8877 -2.19348,-4.81418 -4.25013,-5.84777 -11.63582,-5.84777 h -8.97142 l 4.90447,6.8877 c 3.54014,4.97166 6.77704,6.8877 11.63583,6.8877 3.70225,0 6.73137,-0.46797 6.73137,-1.03993 z m 6.8877,-1.25596 c 0,-1.26275 -0.99334,-2.29591 -2.20741,-2.29591 -6.428,0 -8.789,-43.08701 -3.52258,-64.28519 l 1.42596,-5.73974 -3.50636,5.73974 c -5.15884,8.44472 -5.0227,49.81141 0.19997,60.76345 3.68751,7.73277 7.61042,10.73158 7.61042,5.81765 z m 56.50413,-1.72193 c -0.66152,-2.2098 -2.92307,-10.99162 -5.02562,-19.51515 l -3.82287,-15.49731 h -18.24278 c -16.30168,0 -18.1148,0.42751 -17.04,4.01781 0.66152,2.20981 2.92307,10.99163 5.02562,19.51516 l 3.82287,15.49731 h 18.24278 c 16.30168,0 18.1148,-0.42752 17.04,-4.01782 z m 4.33721,-33.64124 c 0,-34.83212 -1.80541,-41.68706 -4.75712,-18.06226 -0.82788,6.62599 -2.32444,11.54094 -3.32571,10.92213 -1.00127,-0.61881 -1.45533,0.68431 -1.00903,2.89586 3.99522,19.79692 8.33389,39.60753 8.67449,39.60794 0.22959,2.7e-4 0.41737,-15.91339 0.41737,-35.36367 z m -44.77005,29.52129 c 0,-0.68755 -1.67533,-7.91964 -3.72295,-16.07129 -3.43336,-13.6683 -3.43336,-15.97416 0,-29.64246 2.04762,-8.15165 3.72295,-15.38373 3.72295,-16.07129 0,-0.68753 -4.11294,-1.25007 -9.13985,-1.25007 -8.01212,0 -9.35772,0.77905 -10.90552,6.31372 -2.22993,7.9738 -2.3171,48.59296 -0.11572,53.95364 1.18643,2.88922 4.24974,4.01782 10.90553,4.01782 5.09053,0 9.25556,-0.56254 9.25556,-1.25007 z m 50.5098,-29.74457 c 0,-11.88345 -1.02928,-22.17618 -2.2959,-22.95899 -1.47553,-0.91193 -2.2959,7.29166 -2.2959,22.95899 0,15.66733 0.82037,23.87092 2.2959,22.95899 1.26662,-0.7828 2.2959,-11.07553 2.2959,-22.95899 z m -80.35649,0 v -21.81104 h -8.03565 -8.03564 v 21.81104 21.81105 h 8.03564 8.03565 z M 482.964,224.93761 c 2.03273,-7.89216 4.28684,-16.45107 5.00914,-19.01981 1.23301,-4.38504 0.3577,-4.65441 -14.3223,-4.40802 -8.59955,0.14442 -16.79086,0.43801 -18.20288,0.65262 -1.41205,0.21466 -4.32293,6.8474 -6.46865,14.73955 -2.14573,7.89216 -4.4178,16.1574 -5.04905,18.36719 -1.02432,3.5857 0.8143,4.01783 17.09503,4.01783 h 18.24278 z m -61.21499,-14.36148 c 2.55744,-5.36296 4.41821,-7.1085 5.57778,-5.23226 0.95704,1.54851 2.54119,2.01435 3.52035,1.03522 2.71022,-2.71022 -4.07614,-6.04784 -12.37717,-6.08725 -5.93649,-0.0282 -8.11508,1.34243 -10.99936,6.91997 -4.25258,8.22357 -2.91166,11.41206 4.79933,11.41206 4.18842,0 6.6298,-2.07273 9.47907,-8.04774 z M 416.06308,62.178186 c 18.02272,-20.120656 33.11787,-37.591909 33.54479,-38.825 0.4269,-1.23309 -2.89768,-3.777017 -7.38795,-5.653168 -6.94268,-2.900842 -30.85641,-3.411188 -159.84096,-3.411188 -165.54191,0 -161.52268,-0.309476 -172.38296,13.273311 -3.05209,3.817207 -18.050153,20.730793 -33.32904,37.585754 L 48.887177,95.79327 205.23734,95.197394 c 147.23099,-0.561127 156.81884,-0.352807 164.3858,3.571607 5.13643,2.663889 9.05233,3.414269 10.85351,2.079849 1.54982,-1.148194 17.56372,-18.549993 35.58643,-38.670664 z"
       id="path4548" />
  </g>
</svg>
