<?xml version="1.0" encoding="UTF-8" standalone="no"?>
<svg
   xmlns:dc="http://purl.org/dc/elements/1.1/"
   xmlns:cc="http://creativecommons.org/ns#"
   xmlns:rdf="http://www.w3.org/1999/02/22-rdf-syntax-ns#"
   xmlns:svg="http://www.w3.org/2000/svg"
   xmlns="http://www.w3.org/2000/svg"
   id="svg8"
   version="1.1"
   viewBox="0 0 132.29167 132.29167"
   height="500"
   width="500">
  <defs
     id="defs2" />
  <metadata
     id="metadata5">
    <rdf:RDF>
      <cc:Work
         rdf:about="">
        <dc:format>image/svg+xml</dc:format>
        <dc:type
           rdf:resource="http://purl.org/dc/dcmitype/StillImage" />
        <dc:title></dc:title>
      </cc:Work>
    </rdf:RDF>
  </metadata>
  <g
     transform="translate(0,-164.70834)"
     id="layer1">
    <path
       id="path75"
       d="m 13.708674,294.74257 c -1.66377,-1.27934 -2.50959,-2.32592 -2.50959,-3.10527 0,-0.64655 -0.23775,-1.32249 -0.52833,-1.50208 -0.34646,-0.21412 -0.52834,-18.3092 -0.52834,-52.56482 0,-49.29296 0.0521,-52.25392 0.92459,-52.51543 3.73795,-1.12042 103.333216,-20.3527 103.824626,-20.04899 0.34481,0.21311 1.1084,0.39983 1.69686,0.41493 0.58845,0.0151 2.08036,1.12393 3.31534,2.46405 l 2.24542,2.43659 v 52.61106 c 0,32.69889 -0.19018,52.7286 -0.50248,52.92161 -0.54506,0.33687 -1.55818,0.54079 -62.973136,12.67553 -22.85236,4.51531 -41.75352,8.19455 -42.00256,8.1761 -0.24905,-0.0184 -1.58213,-0.90193 -2.9624,-1.96328 z m 4.09459,0.94016 c 0.17959,-0.29058 -0.0441,-0.52833 -0.49716,-0.52833 -0.45302,0 -0.82368,0.23775 -0.82368,0.52833 0,0.29059 0.22372,0.52834 0.49715,0.52834 0.27344,0 0.6441,-0.23775 0.82369,-0.52834 z m 52.79335,-10.82244 c 30.095846,-5.91558 49.791856,-10.0194 50.051566,-10.42865 0.53658,-0.84553 0.57184,-100.83249 0.0359,-101.67501 -0.28569,-0.4491 -14.13867,2.08884 -50.958556,9.33587 -27.81141,5.47395 -50.81187,10.10447 -51.11213,10.29004 -0.60562,0.37429 -0.807,101.80634 -0.20332,102.41001 0.18843,0.18844 0.84225,0.22538 1.45292,0.0821 0.61067,-0.14327 23.44082,-4.64974 50.73367,-10.01436 z m -36.35324,-8.82869 c -0.77331,-0.43277 -0.85426,-3.77642 -0.85426,-35.28413 0,-38.65308 -0.25073,-36.07888 3.58324,-36.78869 1.08035,-0.20001 16.5816,-3.27149 34.44723,-6.82551 17.865618,-3.55402 32.766076,-6.35321 33.112116,-6.22042 0.34603,0.13278 0.79696,0.63911 1.00206,1.12516 0.54154,1.28338 0.97272,53.97576 0.51638,63.10438 l -0.38678,7.73716 -1.66332,0.53487 c -4.674068,1.503 -35.900226,7.88751 -54.232566,11.08841 -10.54363,1.84096 -14.30445,2.21131 -15.5241,1.52877 z m 5.44672,-1.17103 c 0.68713,-0.82794 -0.0937,-1.67476 -1.01764,-1.1037 -0.75275,0.46522 -0.6549,-0.4546 0.13209,-1.2416 0.51268,-0.51269 0.65773,-7.18458 0.64839,-29.82446 -0.0102,-24.71277 -0.13114,-29.38145 -0.7925,-30.58852 -0.6954,-1.26922 -0.78048,2.11424 -0.78048,31.03967 0,32.77913 0.0598,33.82759 1.81014,31.71861 z m 10.34155,-1.07912 c 8.11793,-1.47321 7.39226,-1.67401 -1.82668,-0.50544 -4.00775,0.50801 -6.93708,1.13908 -7.41209,1.59679 -0.68668,0.66167 -0.58704,0.719 0.7925,0.45595 0.86786,-0.16547 4.66868,-0.86176 8.44627,-1.5473 z m -12.67276,-6.31112 c 0.20781,-3.60289 0.28804,-18.12921 0.17829,-32.28072 l -0.19954,-25.73003 -1.31384,-1.06396 -1.31384,-1.06396 -0.13618,32.37398 c -0.12435,29.5615 -0.0599,32.4583 0.7423,33.34468 0.48317,0.53389 1.05545,0.97071 1.27173,0.97071 0.21629,0 0.56328,-2.94781 0.77108,-6.5507 z m 12.67276,4.99899 c 11.18042,-1.44208 22.8077,-3.46594 30.726818,-5.34834 11.16982,-2.65511 22.592148,-5.84142 23.278758,-6.49372 0.89178,-0.84721 1.47437,-29.83421 0.9554,-47.53665 -0.33831,-11.53982 -0.52529,-13.69259 -1.2122,-13.95619 -1.92288,-0.73787 -61.363886,10.9706 -63.128166,12.43475 -0.51441,0.42691 -0.63926,7.24956 -0.56917,31.10312 0.0494,16.80593 0.10882,30.61568 0.13208,30.68833 0.0907,0.28313 2.18641,0.0928 9.81648,-0.8913 z m 8.84959,-0.38319 c -0.36323,-0.14657 -0.9576,-0.14657 -1.32083,0 -0.36323,0.14656 -0.066,0.26648 0.66042,0.26648 0.72646,0 1.02364,-0.11992 0.66041,-0.26648 z m 2.89484,-0.49764 c -0.17557,-0.17556 -0.63126,-0.19432 -1.01265,-0.0417 -0.42146,0.16865 -0.29628,0.29385 0.31921,0.3192 0.55695,0.0229 0.869,-0.10194 0.69344,-0.2775 z m 3.17,-0.52833 c -0.17556,-0.17556 -0.63125,-0.19433 -1.01264,-0.0417 -0.42147,0.16866 -0.29628,0.29385 0.3192,0.3192 0.55695,0.0229 0.869,-0.10193 0.69344,-0.27749 z m 21.133368,-4.22667 c -0.17557,-0.17556 -0.63126,-0.19433 -1.01265,-0.0417 -0.42146,0.16865 -0.29628,0.29385 0.31921,0.3192 0.55695,0.0229 0.869,-0.10193 0.69344,-0.27749 z m 2.11333,-0.52834 c -0.17556,-0.17556 -0.63125,-0.19433 -1.01264,-0.0417 -0.42147,0.16865 -0.29628,0.29384 0.3192,0.31919 0.55695,0.0229 0.869,-0.10193 0.69344,-0.27749 z m 8.36466,-1.82137 c 3.759778,-0.88673 7.192578,-1.68188 7.628458,-1.767 0.43587,-0.0851 0.86921,-0.54753 0.96296,-1.02758 0.1186,-0.60725 -0.0823,-0.7758 -0.66041,-0.55397 -0.45699,0.17536 -0.83089,0.47929 -0.83089,0.67541 0,0.19612 -0.53494,0.41393 -1.18875,0.48403 -1.50131,0.16098 -14.065808,3.71544 -13.308048,3.76481 0.3084,0.0201 3.63691,-0.68897 7.39668,-1.5757 z M 40.190904,210.9653 c 0.4504,-0.5427 0.34793,-0.93242 -0.43035,-1.63676 -1.39089,-1.25874 -2.2813,-0.64199 -1.5117,1.0471 0.67402,1.47931 1.0971,1.60777 1.94205,0.58966 z m 10.8155,-2.71206 c 9.75856,-2.1535 34.529648,-7.04198 44.657318,-8.81296 6.416348,-1.122 7.107658,-1.35085 7.543538,-2.49722 0.26392,-0.69411 0.41246,-1.32942 0.33008,-1.4118 -0.0824,-0.0824 -3.12034,0.55723 -6.751038,1.42135 -8.90335,2.11902 -35.852568,7.49223 -45.962158,9.16407 -12.14721,2.00881 -11.33836,1.77466 -10.25725,2.96928 0.50105,0.55365 1.17953,1.00664 1.50773,1.00664 0.3282,0 4.3475,-0.82771 8.93178,-1.83936 z m -13.15259,-0.23167 c 0.38883,-0.62915 -2.31663,-2.7678 -2.98153,-2.35687 -0.27828,0.17199 0.0289,0.882 0.68253,1.5778 1.27791,1.36027 1.82518,1.54573 2.299,0.77907 z m 9.46429,-1.90959 c 16.00254,-2.67937 51.857228,-9.97048 55.307786,-11.24692 1.06175,-0.39277 1.06009,-0.41128 -0.13545,-1.5105 l -1.21039,-1.11285 -32.228376,6.36425 c -17.72561,3.50034 -32.32599,6.44546 -32.44529,6.54471 -0.32507,0.27045 1.62347,2.30026 2.20817,2.30026 0.27867,0 4.10527,-0.60252 8.50355,-1.33895 z m 57.827456,-9.40056 c 0.0919,-0.77669 -0.0864,-1.41217 -0.39625,-1.41217 -0.30988,0 -0.56667,0.17831 -0.57064,0.39625 -0.004,0.21794 -0.15889,0.96302 -0.34428,1.65574 -0.25132,0.93904 -0.14867,1.19751 0.40346,1.01592 0.4073,-0.13396 0.81577,-0.87904 0.90771,-1.65574 z m -91.566336,-6.67527 -1.85181,-1.8518 -0.005,51.76794 -0.005,51.76794 1.72185,1.41505 1.72185,1.41506 0.13472,-51.33119 0.13471,-51.33119 -1.8518,-1.85181 z m 3.95459,53.27354 c -0.008,-27.89563 0.12205,-50.94196 0.29022,-51.21406 0.36571,-0.59173 -0.15051,-1.55139 -0.83452,-1.55139 -0.29401,0 -0.49307,20.65084 -0.50196,52.07506 -0.01,35.22629 0.15942,51.96743 0.52353,51.7424 0.35959,-0.22224 0.53311,-17.16868 0.52273,-51.05201 z m -6.46693,-30.7075 c -0.0783,-14.02067 -0.14236,-2.54921 -0.14236,25.49212 0,28.04134 0.0641,39.51279 0.14236,25.49212 0.0783,-14.02066 0.0783,-36.96357 0,-50.98424 z m 59.18789,-31.24617 c 27.104828,-5.32642 49.433546,-9.83644 49.619376,-10.02227 0.18583,-0.18583 0.18942,-0.48632 0.008,-0.66776 -0.28282,-0.28282 -100.696696,19.21281 -101.207196,19.64965 -0.49451,0.42316 0.56252,1.15804 1.37427,0.95543 0.50823,-0.12686 23.10074,-4.58863 50.20557,-9.91505 z m -55.68009,7.0149 c -1.39099,-1.4245 -2.17201,-1.88327 -2.55467,-1.50062 -0.38265,0.38266 0.0941,1.09342 1.55938,2.32483 2.80887,2.36055 3.52557,1.76704 0.99529,-0.82421 z m 54.47699,-8.70363 c 27.605448,-5.42696 50.279016,-9.94299 50.385686,-10.03562 0.46647,-0.40506 -2.40277,-3.33517 -3.29174,-3.36157 -0.93485,-0.0277 -100.160536,19.31916 -101.731706,19.83554 -1.06226,0.34912 2.53869,3.99429 3.62708,3.67163 0.45041,-0.13353 23.40522,-4.68302 51.01068,-10.10998 z m -18.58604,-1.33667 c 19.70781,-3.87498 35.607458,-7.12039 35.332558,-7.21202 -0.64825,-0.21608 -73.140428,14.08289 -73.519168,14.50155 -0.15809,0.17475 0.30694,0.19132 1.0334,0.0368 0.72646,-0.15451 17.4454,-3.45136 37.15321,-7.32634 z m 71.155276,-7.30356 c 0,-0.27343 -0.23775,-0.64409 -0.52833,-0.82368 -0.29059,-0.17959 -0.52834,0.0441 -0.52834,0.49715 0,0.45303 0.23775,0.82368 0.52834,0.82368 0.29058,0 0.52833,-0.22372 0.52833,-0.49715 z m -21.628478,-2.40013 c 13.662698,-2.73033 14.424158,-2.89997 14.162058,-3.15501 -0.10693,-0.10405 -6.37593,1.07259 -13.93111,2.61477 -7.555178,1.54218 -13.365118,2.82764 -12.910968,2.85657 0.45414,0.0289 6.16015,-1.01341 12.68002,-2.31633 z"
       style="fill:#000000;stroke-width:0.52833414" />
  </g>
</svg>
