<?xml version="1.0" encoding="UTF-8" standalone="no"?>
<svg
   xmlns:dc="http://purl.org/dc/elements/1.1/"
   xmlns:cc="http://creativecommons.org/ns#"
   xmlns:rdf="http://www.w3.org/1999/02/22-rdf-syntax-ns#"
   xmlns:svg="http://www.w3.org/2000/svg"
   xmlns="http://www.w3.org/2000/svg"
   id="svg8"
   version="1.1"
   viewBox="0 0 500 500"
   height="500mm"
   width="500mm">
  <defs
     id="defs2" />
  <metadata
     id="metadata5">
    <rdf:RDF>
      <cc:Work
         rdf:about="">
        <dc:format>image/svg+xml</dc:format>
        <dc:type
           rdf:resource="http://purl.org/dc/dcmitype/StillImage" />
        <dc:title></dc:title>
      </cc:Work>
    </rdf:RDF>
  </metadata>
  <g
     transform="translate(0,203)"
     id="layer1">
    <path
       id="path75"
       d="m 172.48101,279.97566 0.66304,-14.07573 -18.07149,0.4363 -18.07149,0.43633 -13.36101,-10.50001 -13.36101,-10.50002 v -89.62497 c 0,-82.696177 0.27,-89.894979 3.4925,-93.117479 3.22643,-3.226431 9.44276,-3.451049 81.59917,-2.948448 l 78.1067,0.544072 1.19531,-25.490501 c 0.65741,-14.019754 1.76457,-72.324012 2.46032,-129.564994 l 1.26502,-104.07452 5.45091,-1.09018 c 2.99799,-0.59959 7.28544,-0.61043 9.52766,-0.0241 3.87225,1.01261 4.13644,2.98481 5.26554,39.30611 0.65379,21.03201 1.87152,79.102276 2.70603,129.045028 l 1.51728,90.805003 h 43.42774 43.42772 l -0.51986,92.593179 -0.51988,92.59319 -26.94215,11.53369 c -17.26091,7.38923 -28.55568,11.15099 -31.4325,10.46868 -4.18046,-0.99151 -4.49495,-0.39585 -4.55675,8.63098 -0.0425,6.20278 -1.30073,11.13401 -3.4925,13.68743 -3.29543,3.8392 -6.22969,4.01079 -76.93272,4.49904 l -73.50661,0.50761 z m 7.64804,9.18686 c 0,-0.48404 -0.89807,-1.43512 -1.99571,-2.1135 -1.09765,-0.67839 -1.99572,-0.28236 -1.99572,0.88007 0,1.16242 0.89807,2.1135 1.99572,2.1135 1.09764,0 1.99571,-0.39603 1.99571,-0.88007 z m 41.91,-1.11565 c 0,-1.09764 -0.39603,-1.99571 -0.88007,-1.99571 -0.48404,0 -1.43511,0.89807 -2.1135,1.99571 -0.67838,1.09765 -0.28235,1.99572 0.88007,1.99572 1.16243,0 2.1135,-0.89807 2.1135,-1.99572 z m 7.58372,-4.39057 c 1.31717,-1.31717 2.39486,-5.99997 2.39486,-10.40623 0,-7.19908 -0.31032,-7.70105 -3.06051,-4.95085 -3.50781,3.50781 -6.38595,17.75194 -3.5869,17.75194 1.02173,0 2.93538,-1.07769 4.25255,-2.39486 z m 83.82956,-7.08479 -0.60827,-9.47964 -9.47964,-0.60827 c -9.23737,-0.59273 -9.47965,-0.46267 -9.47965,5.08907 0,6.88982 -3.21745,10.48706 -9.37985,10.48706 -4.0247,0 -4.59015,-0.98339 -4.59015,-7.98286 v -7.98286 h -21.95286 -21.95286 v 7.58372 c 0,4.17104 -1.07768,8.6614 -2.39485,9.97857 -1.86266,1.86266 6.80973,2.39486 39.02577,2.39486 h 41.42064 z m 7.80616,-5.98714 c -0.45726,-3.01852 -0.83139,-0.54882 -0.83139,5.48822 0,6.03703 0.37413,8.50673 0.83139,5.48821 0.45728,-3.01852 0.45728,-7.95791 0,-10.97643 z m -142.1273,7.48393 c 0.67839,-1.09764 0.28235,-1.99571 -0.88007,-1.99571 -1.16242,0 -2.1135,0.89807 -2.1135,1.99571 0,1.09764 0.39604,1.99572 0.88008,1.99572 0.48404,0 1.43511,-0.89808 2.11349,-1.99572 z m 42.90786,0 c 0,-1.09764 -0.95107,-1.99571 -2.1135,-1.99571 -1.16242,0 -1.55845,0.89807 -0.88007,1.99571 0.67839,1.09764 1.62946,1.99572 2.1135,1.99572 0.48404,0 0.88007,-0.89808 0.88007,-1.99572 z m 63.24286,-9.47964 c -0.50199,-1.92088 -0.9127,-0.34925 -0.9127,3.4925 0,3.84175 0.41071,5.41337 0.9127,3.4925 0.50196,-1.92088 0.50196,-5.06413 0,-6.985 z m -73.72036,2.01768 c -6.31144,-0.39604 -16.63927,-0.39604 -22.95071,0 -6.31145,0.39605 -1.14754,0.7201 11.47536,0.7201 12.62289,0 17.7868,-0.32405 11.47535,-0.7201 z m 120.2418,-93.59541 V 90.471154 h -93.79858 -93.79858 v 86.713886 86.71391 l 93.79858,-0.17403 93.79858,-0.17402 v -86.53981 z m -115.25251,83.63351 c -1.37205,-0.47862 -2.43773,-2.81602 -2.36814,-5.19423 0.12414,-4.24353 0.16106,-4.23804 1.97884,0.29451 1.74866,4.3601 5.87751,4.45503 5.87751,0.13511 0,-1.09764 -0.89807,-1.44069 -1.99571,-0.7623 -1.09764,0.67838 -1.99572,0.28235 -1.99572,-0.88007 0,-1.16243 1.34711,-2.11351 2.99358,-2.11351 1.64646,0 2.99357,1.70007 2.99357,3.77791 0,4.02671 -3.38555,6.17211 -7.48393,4.74252 z m -28.43893,-3.53114 c 0,-1.64646 0.96221,-2.99357 2.13827,-2.99357 1.17603,0 3.48537,1.34711 5.13184,2.99357 2.66094,2.66095 2.42335,2.99357 -2.13827,2.99357 -3.23116,0 -5.13184,-1.10874 -5.13184,-2.99357 z m 91.01461,0.65871 c 0.97028,-1.56993 0.35504,-1.91737 -1.87794,-1.06049 -1.97827,0.75913 -3.31983,0.2911 -3.31816,-1.15763 0.004,-3.63278 13.48662,-3.56942 14.88316,0.0698 0.8417,2.19337 0.0886,2.69365 -2.88476,1.91612 -2.21311,-0.57875 -3.52056,-0.23795 -2.90544,0.75734 0.61512,0.99536 -0.33472,1.80967 -2.11075,1.80967 -1.95726,0 -2.66077,-0.91964 -1.78611,-2.33486 z M 170.64848,253.6208 c 0.45683,-1.37205 2.34542,-2.62776 4.19686,-2.79043 2.60384,-0.22881 2.67385,-0.0816 0.30911,0.64997 -1.68142,0.52016 -2.54409,1.77586 -1.91705,2.79042 0.62704,1.01459 0.11415,1.84468 -1.13973,1.84468 -1.2539,0 -1.90603,-1.12259 -1.44919,-2.49464 z m 123.69944,-1.49679 c -1.37098,-2.19528 -1.80303,-3.99142 -0.96012,-3.99142 0.84291,0 2.65428,1.79614 4.02526,3.99142 1.37097,2.19529 1.80302,3.99143 0.96011,3.99143 -0.84291,0 -2.65428,-1.79614 -4.02525,-3.99143 z m -63.55957,-2.877 c -0.6072,-1.58234 -0.6832,-4.50107 -0.16884,-6.48607 0.62731,-2.42106 1.01133,-1.84821 1.16663,1.74034 0.16724,3.86496 1.47757,5.58942 4.72186,6.2143 l 4.49036,0.86488 -4.55298,0.27178 c -2.50416,0.14948 -5.0498,-1.02287 -5.65701,-2.60523 z m 50.12428,0.88129 c -0.67838,-1.09764 -0.28235,-1.99571 0.88007,-1.99571 1.16242,0 2.1135,0.89807 2.1135,1.99571 0,1.09764 -0.39603,1.99571 -0.88007,1.99571 -0.48404,0 -1.43512,-0.89807 -2.1135,-1.99571 z m -84.6603,-1.49679 c -0.0866,-1.37205 -1.37289,-2.49464 -2.85828,-2.49464 -1.82528,0 -2.63393,-2.41657 -2.49465,-7.45503 0.16225,-5.87117 1.05408,-7.56358 4.19751,-7.96591 l 3.99143,-0.51089 -3.99143,1.76455 c -3.66906,1.62206 -3.70936,1.87971 -0.49893,3.19015 1.92088,0.78408 3.4925,2.78658 3.4925,4.45001 0,2.46209 -0.55658,2.56249 -2.99357,0.53998 -3.96772,-3.29291 -3.8473,-1.13884 0.16045,2.86884 1.73466,1.73467 2.70364,4.26851 2.15326,5.63077 -0.7918,1.95983 -1.03354,1.95612 -1.15821,-0.018 z m -25.60385,-2.99357 c 1.3778,-4.13805 7.50543,-4.26043 7.3273,-0.14628 -0.0908,2.09639 -0.58424,2.58139 -1.16417,1.14418 -0.55363,-1.37205 -1.88284,-2.49464 -2.95379,-2.49464 -1.07095,0 -1.39215,0.89807 -0.71377,1.99571 0.67838,1.09764 0.20751,1.99572 -1.04638,1.99572 -1.2539,0 -1.90603,-1.12259 -1.44919,-2.49465 z m 41.00823,-2.05171 c -0.7846,-4.10431 -0.2251,-4.47116 5.75448,-3.77308 3.64296,0.42529 6.62358,1.59019 6.62358,2.58866 0,0.99846 -2.24518,1.25189 -4.98929,0.56315 -3.18783,-0.80008 -4.98928,-0.41099 -4.98928,1.07763 0,1.28141 0.89096,1.7792 1.9799,1.10618 1.08895,-0.67299 3.55864,-0.30426 5.48822,0.8194 2.93526,1.70933 2.48686,2.05295 -2.74511,2.10373 -4.94709,0.0481 -6.43498,-0.88904 -7.1225,-4.48567 z m 31.06016,1.17058 c 0.15247,-1.85667 -1.96799,-4.53763 -4.7121,-5.95772 -4.08076,-2.11179 -4.30252,-2.58731 -1.21787,-2.61137 3.96256,-0.0309 9.02935,5.20945 9.13726,9.45022 0.0349,1.37206 -0.73482,2.49465 -1.7105,2.49465 -0.97569,0 -1.64924,-1.5191 -1.49679,-3.37578 z m -42.63067,-1.06736 c 0,-1.71199 1.47413,-3.67836 3.27584,-4.36974 2.85196,-1.09441 2.92504,-0.79922 0.56473,2.28112 -1.49112,1.946 -2.96525,3.91238 -3.27585,4.36974 -0.31059,0.45734 -0.56472,-0.56916 -0.56472,-2.28112 z m 83.32107,-0.95673 c 4.83793,-0.93184 5.99637,-3.74408 2.08004,-5.04954 -1.32568,-0.44189 -2.62179,-4.10901 -2.88026,-8.14916 -0.42313,-6.61429 0.0226,-7.34572 4.47625,-7.34572 4.08726,0 4.62387,0.6065 3.09012,3.4925 -1.02083,1.92087 -1.48032,6.86027 -1.02106,10.97643 0.79209,7.09947 0.55065,7.46996 -4.70023,7.21215 -4.7061,-0.23108 -4.8626,-0.40134 -1.04486,-1.13666 z m 4.49036,-8.57014 c 0,-1.09764 -0.89807,-1.99571 -1.99571,-1.99571 -1.09765,0 -1.99572,0.89807 -1.99572,1.99571 0,1.09765 0.89807,1.99572 1.99572,1.99572 1.09764,0 1.99571,-0.89807 1.99571,-1.99572 z m 0,-7.98285 c 0,-1.09765 -0.89807,-1.99572 -1.99571,-1.99572 -1.09765,0 -1.99572,0.89807 -1.99572,1.99572 0,1.09764 0.89807,1.99571 1.99572,1.99571 1.09764,0 1.99571,-0.89807 1.99571,-1.99571 z m -111.76001,11.97428 c 0,-1.09764 -1.34711,-1.99571 -2.99357,-1.99571 -1.64646,0 -2.92267,-1.57163 -2.83602,-3.4925 0.0941,-2.0864 0.56283,-2.48814 1.16417,-0.99786 0.55364,1.37206 2.27888,2.49464 3.83387,2.49464 1.555,0 2.82727,1.34711 2.82727,2.99358 0,1.64646 -0.44904,2.99357 -0.99786,2.99357 -0.54882,0 -0.99786,-0.89807 -0.99786,-1.99572 z m 38.2985,-3.4925 c 0.36993,-1.92087 2.44413,-3.4925 4.60936,-3.4925 2.16523,0 4.23944,1.57163 4.60936,3.4925 0.50378,2.61589 -0.65317,3.4925 -4.60936,3.4925 -3.95618,0 -5.11314,-0.87661 -4.60936,-3.4925 z m 7.60293,-0.49893 c 0,-1.09764 -1.3471,-1.99571 -2.99357,-1.99571 -1.64646,0 -2.99357,0.89807 -2.99357,1.99571 0,1.09765 1.34711,1.99572 2.99357,1.99572 1.64647,0 2.99357,-0.89807 2.99357,-1.99572 z m -17.64908,-6.985 c 0.39286,-4.93939 0.0343,-8.98071 -0.79689,-8.98071 -0.83115,0 -1.45425,-2.02066 -1.38466,-4.49036 0.12513,-4.44495 0.14608,-4.44152 2.05654,0.33832 1.45053,3.62894 2.49824,4.26047 4.21693,2.54178 1.71867,-1.71867 1.40705,-3.25902 -1.25421,-6.19969 -1.94758,-2.15206 -3.03007,-4.73962 -2.40553,-5.75015 0.62455,-1.01055 0.32617,-4.65942 -0.66304,-8.10863 -1.70223,-5.93533 -1.51205,-6.26375 3.55034,-6.13099 4.78292,0.12533 4.92656,0.32175 1.35746,1.85543 l -3.99143,1.71518 3.99143,0.28054 c 3.73702,0.26265 3.75647,0.373 0.30544,1.73104 -3.1833,1.25269 -3.28845,1.78042 -0.77106,3.86967 2.80877,2.33105 4.27173,18.34786 1.67588,18.34786 -0.68146,0 -0.91761,4.04132 -0.52475,8.98071 0.58891,7.4047 0.11834,8.98072 -2.68122,8.98072 -2.79961,0 -3.27014,-1.57602 -2.68123,-8.98072 z m 5.6748,-20.955 c 0,-1.09764 -0.89807,-1.99571 -1.99572,-1.99571 -1.09764,0 -1.99571,0.89807 -1.99571,1.99571 0,1.09765 0.89807,1.99572 1.99571,1.99572 1.09765,0 1.99572,-0.89807 1.99572,-1.99572 z m -41.91001,15.84793 c 0,-1.16242 0.82137,-1.60585 1.82526,-0.98542 1.0039,0.62045 2.17949,0.0655 2.61243,-1.23341 0.95277,-2.85831 5.55335,-0.39256 5.51033,2.95333 -0.0205,1.59045 -0.59822,1.48098 -1.74625,-0.33085 -1.19602,-1.88756 -2.12918,-2.03868 -3.0808,-0.49892 -1.73673,2.8101 -5.12097,2.87307 -5.12097,0.0953 z m 19.95715,-0.64731 c 0,-2.83012 6.86434,-5.67533 8.86516,-3.67451 2.83647,2.83649 0.66897,6.43532 -3.87588,6.43532 -2.91749,0 -4.98928,-1.14642 -4.98928,-2.76081 z m 95.17063,-4.51522 c -0.75464,-0.75464 -1.3583,-2.34497 -1.3415,-3.53409 0.016,-1.18911 0.91488,-0.81491 1.99572,0.83155 1.7468,2.66095 2.20378,2.66095 4.1128,0 1.74961,-2.43874 2.0039,-2.46185 1.37206,-0.12473 -0.89809,3.32197 -4.14778,4.81855 -6.13908,2.82727 z m -87.18777,-4.69825 c 0,-1.09765 -1.34711,-1.99572 -2.99358,-1.99572 -1.64646,0 -2.92266,-1.57162 -2.83601,-3.4925 0.0942,-2.0864 0.56282,-2.48813 1.16416,-0.99785 0.55364,1.37205 2.27889,2.49464 3.83387,2.49464 1.555,0 2.82727,1.34711 2.82727,2.99357 0,1.64646 -0.44903,2.99357 -0.99786,2.99357 -0.54882,0 -0.99785,-0.89807 -0.99785,-1.99571 z m -27.94001,-1.99572 c 0,-1.09764 2.4697,-1.93259 5.48822,-1.85543 4.86324,0.12433 5.03369,0.33558 1.49679,1.85543 -5.45106,2.34239 -6.98501,2.34239 -6.98501,0 z m 0.9158,-6.11992 c -0.72351,-1.17066 -0.77651,-2.66745 -0.11778,-3.32619 0.65873,-0.65873 1.1977,0.0217 1.1977,1.51207 0,1.80381 0.899,1.48032 2.68894,-0.96756 1.86316,-2.54803 3.12511,-2.97162 4.10921,-1.3793 0.78115,1.26393 0.86523,3.19612 0.18686,4.29376 -1.62591,2.63077 -6.40559,2.55208 -8.06492,-0.13272 z m 114.33671,-1.27566 c 5.09305,-0.98097 5.89997,-3.61074 1.61276,-5.25591 -1.5827,-0.60734 -2.74337,-2.88638 -2.5793,-5.06454 0.16405,-2.17817 0.97073,-3.54473 1.79259,-3.0368 0.82185,0.50793 0.91631,2.46638 0.20993,4.35211 -1.07645,2.87355 -0.78839,3.02594 1.77938,0.94144 2.62213,-2.12863 3.08822,-1.62525 3.23373,3.4925 0.14968,5.2625 -0.47218,5.94705 -5.1847,5.70786 -4.70338,-0.23872 -4.80852,-0.37699 -0.86439,-1.13666 z m -92.55756,-5.57656 c 0.4087,-7.18148 6.12118,-8.40411 6.47468,-1.38578 0.15187,3.01674 -0.66274,4.25809 -2.3657,3.60461 -1.42862,-0.54822 -3.01423,0.0754 -3.5236,1.38579 -0.50936,1.31038 -0.7728,-0.31169 -0.58538,-3.60462 z m 5.24506,-2.99357 c 0,-1.09765 -0.89808,-1.99572 -1.99572,-1.99572 -1.09764,0 -1.99571,0.89807 -1.99571,1.99572 0,1.09764 0.89807,1.99571 1.99571,1.99571 1.09764,0 1.99572,-0.89807 1.99572,-1.99571 z m -25.06392,0.99847 c 3.83478,-2.96391 3.83478,-2.99491 0,-3.06491 -3.32401,-0.0607 -3.16567,-0.46269 1.11534,-2.83188 2.74411,-1.51862 4.68993,-3.35779 4.32405,-4.08701 -0.36588,-0.72923 -0.30853,-1.68256 0.12745,-2.11855 0.43598,-0.43598 0.73533,2.00595 0.66524,5.42651 -0.0981,4.78439 -1.27852,6.61727 -5.11674,7.94462 -4.73516,1.63754 -4.79197,1.57292 -1.11534,-1.26878 z m 19.57476,-9.48026 c 0.45684,-1.37205 2.34543,-2.62776 4.19687,-2.79043 2.60385,-0.2288 2.67386,-0.0816 0.30912,0.64997 -1.68143,0.52016 -2.5441,1.77586 -1.91707,2.79043 0.62706,1.01458 0.11416,1.84467 -1.13973,1.84467 -1.25389,0 -1.90603,-1.12258 -1.44919,-2.49464 z m 93.69973,0.0998 c -2.9056,-2.9056 -3.10287,-6.91058 -0.42199,-8.56744 1.18515,-0.73249 1.43438,0.21651 0.62418,2.37685 -1.14618,3.05628 -0.88059,3.21605 1.76912,1.0642 2.67148,-2.16957 3.11777,-1.81247 3.11777,2.49464 0,5.53066 -1.4436,6.27722 -5.08908,2.63175 z m -78.89723,-2.92706 c -3.05107,-3.05107 -1.03235,-6.65237 3.72901,-6.65237 4.44108,0 4.79842,0.48787 2.92336,3.99143 -2.20436,4.11887 -4.34014,4.9732 -6.65237,2.66094 z m 4.65666,-2.66094 c 0,-1.09765 -0.89807,-1.99572 -1.99572,-1.99572 -1.09764,0 -1.99571,0.89807 -1.99571,1.99572 0,1.09764 0.89807,1.99571 1.99571,1.99571 1.09765,0 1.99572,-0.89807 1.99572,-1.99571 z m -36.29706,-5.35472 c 1.44066,-0.57651 3.16196,-0.50562 3.82512,0.15746 0.66316,0.66315 -0.51556,1.13484 -2.61937,1.04819 -2.3249,-0.0958 -2.7978,-0.56866 -1.20575,-1.20573 z m -5.61295,-45.3972 c 0,-4.38486 0.95914,-7.11204 2.49465,-7.09324 8.49742,0.10417 10.30441,12.39929 1.99571,13.57931 -3.93713,0.55916 -4.49036,-0.23994 -4.49036,-6.48607 z m 6.98501,-0.1388 c 0,-2.01234 -1.12259,-4.033 -2.49465,-4.49036 -1.57994,-0.52665 -2.49464,1.11982 -2.49464,4.49036 0,3.37054 0.9147,5.01701 2.49464,4.49036 1.37206,-0.45736 2.49465,-2.47802 2.49465,-4.49036 z m 6.3853,4.30939 c -0.5647,-1.4716 -0.23915,-3.9413 0.72345,-5.48822 1.40899,-2.26432 2.51239,-2.34031 5.66018,-0.38992 2.88942,1.79032 4.10862,1.82682 4.67093,0.1399 1.08326,-3.24978 7.50657,-0.31939 7.50657,3.42457 0,4.03202 -5.92394,6.32497 -7.93481,3.0713 -1.09578,-1.77299 -1.94165,-1.85753 -2.90995,-0.2908 -1.88479,3.04968 -6.47349,2.77205 -7.71637,-0.46683 z m 6.58684,-2.31367 c 0,-1.64647 -0.89807,-2.99358 -1.99572,-2.99358 -1.09764,0 -1.99571,1.34711 -1.99571,2.99358 0,1.64646 0.89807,2.99357 1.99571,2.99357 1.09765,0 1.99572,-1.34711 1.99572,-2.99357 z m 9.97857,0 c 0,-1.64647 -0.89807,-2.99358 -1.99571,-2.99358 -1.09765,0 -1.99572,1.34711 -1.99572,2.99358 0,1.64646 0.89807,2.99357 1.99572,2.99357 1.09764,0 1.99571,-1.34711 1.99571,-2.99357 z m 6.25892,0.49892 c -0.18161,-3.66872 0.72067,-5.48821 2.7218,-5.48821 1.64646,0 2.99357,-0.93306 2.99357,-2.07347 0,-1.14039 1.91151,-0.29259 4.24782,1.884 2.47003,2.30119 3.7491,5.25707 3.05621,7.06275 -1.73196,4.51341 -7.30403,3.8374 -7.30403,-0.88614 0,-5.44506 -3.50745,-5.06287 -4.57871,0.49893 -0.74155,3.85003 -0.90364,3.70772 -1.13666,-0.99786 z m 11.70251,-0.49892 c 0,-1.64647 -0.89807,-2.99358 -1.99571,-2.99358 -1.09765,0 -1.99572,1.34711 -1.99572,2.99358 0,1.64646 0.89807,2.99357 1.99572,2.99357 1.09764,0 1.99571,-1.34711 1.99571,-2.99357 z m 5.10059,3.17366 c -1.6669,-2.69709 0.93122,-8.16295 3.88013,-8.16295 1.41158,0 3.08345,1.34711 3.71528,2.99357 0.74462,1.94049 -0.0579,3.00433 -2.28112,3.02413 -2.94408,0.0261 -3.00587,0.30456 -0.43631,1.96516 2.57984,1.66722 2.52716,1.93881 -0.38114,1.96516 -1.85609,0.016 -3.87967,-0.78647 -4.49684,-1.78507 z m 11.36841,-5.16938 c 0.0221,-4.39057 0.43085,-5.95172 0.9082,-3.46923 0.47736,2.48249 0.45924,6.07478 -0.0403,7.98286 -0.49951,1.90808 -0.89009,-0.12314 -0.86793,-4.51363 z m 5.98714,0 c 0.0222,-4.39057 0.43085,-5.95172 0.90821,-3.46923 0.47735,2.48249 0.45923,6.07478 -0.0403,7.98286 -0.4995,1.90808 -0.89008,-0.12314 -0.86793,-4.51363 z m 9.47529,5.05191 c 0,-1.06317 1.34711,-1.41614 2.99357,-0.78433 1.64647,0.63182 2.99357,0.15466 2.99357,-1.06049 0,-1.21509 -1.3471,-2.20923 -2.99357,-2.20923 -1.66309,0 -2.99357,-1.77397 -2.99357,-3.99143 0,-4.1183 4.81199,-5.51172 6.97087,-2.01857 0.69918,1.13129 -0.10198,1.46586 -1.87793,0.78434 -1.70348,-0.6537 -3.09722,-0.19438 -3.09722,1.02071 0,1.21509 1.3471,2.20923 2.99357,2.20923 1.66309,0 2.99357,1.77397 2.99357,3.99143 0,2.66095 -1.33048,3.99143 -3.99143,3.99143 -2.19529,0 -3.99143,-0.86989 -3.99143,-1.93309 z m 11.08773,0.11755 c -1.6669,-2.69717 0.93122,-8.16303 3.88013,-8.16303 1.41159,0 3.08346,1.34711 3.71528,2.99357 0.74462,1.94049 -0.0579,3.00433 -2.28112,3.02413 -2.94408,0.0261 -3.00587,0.30456 -0.4363,1.96516 2.57984,1.66722 2.52715,1.93881 -0.38114,1.96516 -1.8561,0.016 -3.87967,-0.78647 -4.49685,-1.78507 z m 11.13691,-2.82106 c -0.21049,-4.36393 0.51579,-5.48444 3.22072,-4.96891 1.92088,0.36611 3.71702,2.67713 3.99143,5.13563 0.42539,3.8111 0.33139,3.88162 -0.63773,0.47853 -1.51704,-5.32716 -4.36595,-5.06578 -5.43776,0.49893 -0.72245,3.75095 -0.90963,3.56253 -1.13666,-1.14418 z m 13.36663,2.88814 c 2.12775,-1.34879 2.00224,-1.94058 -0.62543,-2.94891 -3.98046,-1.52746 -2.1361,-5.29319 2.57159,-5.25057 2.9083,0.0263 2.96099,0.29794 0.38115,1.96516 -1.99572,1.28973 -2.16202,1.94479 -0.49893,1.96516 1.37205,0.016 2.49464,1.37767 2.49464,3.02413 0,1.64646 -1.57163,2.97982 -3.4925,2.96302 -2.67462,-0.0233 -2.86912,-0.42573 -0.83052,-1.71799 z m 7.75236,-0.8291 c -0.58539,-1.52549 -0.33999,-3.94561 0.54532,-5.37807 2.2387,-3.62233 8.44595,-0.82497 7.62527,3.4364 -0.8297,4.30828 -6.72486,5.70922 -8.17059,1.94167 z m 6.54923,-2.41172 c 0,-1.64647 -0.89807,-2.99358 -1.99571,-2.99358 -1.09765,0 -1.99572,1.34711 -1.99572,2.99358 0,1.64646 0.89807,2.99357 1.99572,2.99357 1.09764,0 1.99571,-1.34711 1.99571,-2.99357 z m 3.99143,0 c 0,-2.74411 0.77354,-4.98929 1.71897,-4.98929 0.94543,0 1.28977,2.24518 0.7652,4.98929 -0.52458,2.7441 -1.2981,4.98928 -1.71897,4.98928 -0.42086,0 -0.7652,-2.24518 -0.7652,-4.98928 z M 203.6401,113.19257 c -2.40805,-4.22678 -3.63016,-13.02553 -1.63818,-11.79441 1.14163,0.70556 2.13262,2.80148 2.20221,4.65757 0.0834,2.22758 0.80936,1.67876 2.1354,-1.61457 l 2.00892,-4.989277 2.65804,4.925497 2.65805,4.9255 0.9219,-4.9255 0.92192,-4.925497 0.24122,4.989277 c 0.13271,2.74411 -0.64314,6.33639 -1.724,7.98286 -1.62812,2.48009 -2.1873,2.18117 -3.2601,-1.74274 l -1.29488,-4.73631 -2.41208,4.507 c -1.32663,2.47886 -2.86492,3.71211 -3.41842,2.7406 z m 16.7923,-3.76212 c 0.0407,-3.29293 0.48796,-4.39844 0.99395,-2.45667 0.50599,1.94177 0.47272,4.63599 -0.0738,5.98715 -0.54669,1.35115 -0.96068,-0.23755 -0.92001,-3.53048 z m 3.60237,0 c 0,-2.74411 0.77354,-4.98929 1.71897,-4.98929 0.94543,0 1.28977,2.24518 0.76519,4.98929 -0.52457,2.7441 -1.29809,4.98928 -1.71896,4.98928 -0.42086,0 -0.7652,-2.24518 -0.7652,-4.98928 z m 7.0963,3.17366 c -1.6669,-2.69709 0.93122,-8.16295 3.88013,-8.16295 1.41159,0 3.08346,1.34711 3.71528,2.99357 0.74462,1.9405 -0.0579,3.00433 -2.28112,3.02413 -2.94408,0.0261 -3.00587,0.30456 -0.43631,1.96516 2.57984,1.66722 2.52716,1.93882 -0.38114,1.96516 -1.85609,0.016 -3.87967,-0.78647 -4.49684,-1.78507 z m 11.36841,-5.16938 c 0.0221,-4.39057 0.43085,-5.95172 0.90821,-3.46923 0.47735,2.48249 0.45923,6.07478 -0.0403,7.98286 -0.4995,1.90808 -0.89009,-0.12314 -0.86793,-4.51363 z m 4.59731,5.16938 c -1.72225,-2.78663 0.97392,-8.16295 4.09364,-8.16295 1.52902,0 2.78005,1.07769 2.78005,2.39486 0,1.86266 0.5322,1.86266 2.39486,0 1.31717,-1.31717 3.78687,-2.38111 5.48822,-2.3643 2.45578,0.0243 2.54469,0.37836 0.43137,1.71799 -2.12775,1.34878 -2.00224,1.94057 0.62544,2.9489 3.98045,1.52746 2.13609,5.2932 -2.5716,5.25057 -2.66671,-0.0242 -2.80398,-0.39216 -0.65426,-1.75413 2.29681,-1.45516 2.29681,-1.86602 0,-2.6382 -1.49624,-0.50306 -4.368,-0.48717 -6.38165,0.0353 -2.84839,0.73903 -3.06991,1.32475 -0.99786,2.63819 2.06096,1.30643 1.90006,1.6952 -0.71137,1.71885 -1.8561,0.016 -3.87967,-0.78647 -4.49684,-1.78507 z m 22.50782,0.0671 c 2.12775,-1.34879 2.00224,-1.94057 -0.62544,-2.94891 -3.98045,-1.52746 -2.13609,-5.29319 2.5716,-5.25056 2.61008,0.0237 2.77157,0.41289 0.71273,1.71799 -2.12775,1.34878 -2.00224,1.94057 0.62544,2.9489 3.98045,1.52746 2.13609,5.2932 -2.5716,5.25057 -2.61007,-0.0237 -2.77157,-0.41289 -0.71273,-1.71799 z M 140.1842,175.78794 c -0.0198,-55.70685 -0.70762,-85.253103 -1.93989,-83.321072 -1.1368,1.782353 -1.87993,35.292692 -1.83666,82.822142 0.0668,73.40952 0.52134,86.81358 2.94374,86.81358 0.47486,0 0.84962,-38.84159 0.83281,-86.31465 z m 197.10529,-42.90786 c -0.31838,-23.87373 -0.57886,-4.34068 -0.57886,43.40679 0,47.74746 0.26048,67.28052 0.57886,43.40679 0.31835,-23.87374 0.31835,-62.93985 0,-86.81358 z M 134.22762,250.1283 c 0,-5.70479 -0.39643,-5.98714 -8.4064,-5.98714 h -8.4064 l 6.90961,5.90603 c 8.72158,7.45482 9.90319,7.46449 9.90319,0.0811 z m 236.49216,-4.07347 c 2.87756,-1.19723 1.10546,-1.69598 -6.35019,-1.78717 -9.29288,-0.11375 -10.77637,0.48409 -14.629,5.89463 l -4.28743,6.02111 10.63759,-4.23393 c 5.85068,-2.32868 12.43374,-4.98126 14.62903,-5.89464 z m -23.11349,1.34327 c 4.02129,-6.50659 4.1542,-9.19513 4.1542,-84.03352 0,-69.67841 -0.31169,-77.192295 -3.1568,-76.100519 -1.73623,0.666269 -3.98141,1.211379 -4.98929,1.211379 -1.08339,0 -1.83248,33.85597 -1.83248,82.82214 0,45.55218 0.37579,82.82215 0.83509,82.82215 0.45929,0 2.70447,-3.02475 4.98928,-6.72163 z M 134.215,234.66151 c -0.009,-4.02751 -1.63844,-6.41352 -6.12123,-8.96485 -7.94197,-4.52007 -7.61631,-13.13204 0.64563,-17.07359 l 5.48822,-2.61828 v -49.56762 -49.56759 l -4.98929,-1.25223 c -3.92205,-0.98439 -4.98928,-2.52117 -4.98928,-7.184453 0,-3.644554 1.44683,-6.835761 3.75184,-8.27527 4.03055,-2.517114 4.14963,-2.36069 -10.23791,-13.449239 -3.31337,-2.553616 -3.4925,1.568951 -3.4925,80.374842 v 83.0665 h 9.97857 c 9.5583,0 9.97804,-0.23115 9.96595,-5.48822 z M 383.69192,156.35884 V 72.56796 l -10.4775,4.207664 c -5.76262,2.31421 -12.04912,4.651032 -13.97,5.192929 -3.2504,0.91697 -3.4925,6.433843 -3.4925,79.583217 v 78.59796 h 13.97 13.97 z m -22.80816,66.68476 c -1.72488,-1.72485 -3.13613,-4.35493 -3.13613,-5.84459 0,-1.48966 1.41125,-4.11973 3.13613,-5.84459 6.02788,-6.02789 14.8253,-2.55966 14.8253,5.84459 0,8.40426 -8.79742,11.87249 -14.8253,5.84459 z m 9.83602,-4.98571 c 0,-1.53995 -1.57163,-3.1026 -3.4925,-3.47252 -3.4401,-0.6625 -4.86224,3.57222 -2.12045,6.31404 2.09193,2.0919 5.61295,0.30943 5.61295,-2.84152 z m -9.47965,-111.78088 c -4.25161,-2.47632 -4.64183,-12.36756 -0.6196,-15.705691 5.10581,-4.237461 13.79196,-1.742159 16.00946,4.599084 1.71254,4.897277 1.33643,6.228127 -2.67901,9.479637 -5.25502,4.25525 -7.66807,4.56412 -12.71085,1.62697 z m 11.01507,-6.326217 c 1.41552,-4.058002 -0.70153,-7.483925 -4.62473,-7.483925 -4.39989,0 -6.65591,3.111998 -5.13304,7.080575 1.36128,3.547397 8.55731,3.844857 9.75777,0.40335 z M 134.22762,217.19901 c 0,-5.58095 -4.83597,-6.87635 -6.77796,-1.81562 -1.51473,3.94735 0.1239,6.80491 3.90217,6.80491 1.73703,0 2.87579,-1.97566 2.87579,-4.98929 z m 0,-118.744999 c 0,-2.217458 -1.33048,-3.991428 -2.99357,-3.991428 -3.0383,0 -4.09374,4.221734 -1.6631,6.652367 2.53015,2.53015 4.65667,1.315 4.65667,-2.660939 z M 360.24228,75.730508 c 12.8973,-5.363243 23.44964,-10.527153 23.44964,-11.475357 0,-0.948204 -18.14104,-1.723998 -40.31343,-1.723998 -31.35489,0 -39.78123,0.532197 -37.91857,2.394857 1.31717,1.317172 2.39485,4.506243 2.39485,7.086842 0,3.528902 -1.8407,5.461072 -7.42559,7.794581 -17.15774,7.168966 -40.56789,-4.407375 -30.09384,-14.881423 1.86266,-1.86266 -14.67959,-2.394857 -74.44015,-2.394857 -54.49275,0 -77.4913,0.656311 -79.09202,2.257013 -1.67888,1.678895 0.39149,4.408972 8.08264,10.658173 5.68682,4.620617 11.68677,8.935172 13.33324,9.58787 1.64646,0.652699 46.99907,1.020429 100.78358,0.817185 l 97.79,-0.369526 z M 301.3687,74.082487 c 1.37206,-1.133825 2.49464,-3.021252 2.49464,-4.194273 0,-1.173041 -1.13927,-0.574746 -2.53172,1.329545 -2.69529,3.686025 -14.51992,5.029859 -23.41256,2.660746 -4.08122,-1.087285 -3.89961,-0.792258 0.99785,1.620979 6.26966,3.089406 17.88568,2.35628 22.45179,-1.416997 z M 296.34242,-53.22028 c -0.29475,-67.50504 -1.02333,-126.55324 -1.61907,-131.21822 -0.9972,-7.80872 -1.54855,-8.48179 -6.948,-8.48179 h -5.86486 l -0.014,14.46893 c -0.008,7.95791 -0.93621,66.36942 -2.06287,129.803343 -1.12668,63.433919 -1.48683,116.243235 -0.80033,117.35401 0.68651,1.110795 4.98257,1.747487 9.5468,1.414882 l 8.29822,-0.604722 z"
       style="fill:#000000;stroke-width:1.99571443" />
  </g>
</svg>
