<?xml version="1.0" encoding="UTF-8" standalone="no"?>
<!-- Created with Inkscape (http://www.inkscape.org/) -->

<svg
   xmlns:dc="http://purl.org/dc/elements/1.1/"
   xmlns:cc="http://creativecommons.org/ns#"
   xmlns:rdf="http://www.w3.org/1999/02/22-rdf-syntax-ns#"
   xmlns:svg="http://www.w3.org/2000/svg"
   xmlns="http://www.w3.org/2000/svg"
   xmlns:sodipodi="http://sodipodi.sourceforge.net/DTD/sodipodi-0.dtd"
   xmlns:inkscape="http://www.inkscape.org/namespaces/inkscape"
   width="500"
   height="500"
   viewBox="0 0 132.29166 132.29167"
   version="1.1"
   id="svg8"
   inkscape:version="0.92.4 5da689c313, 2019-01-14"
   sodipodi:docname="icon.svg">
  <defs
     id="defs2" />
  <sodipodi:namedview
     id="base"
     pagecolor="#ffffff"
     bordercolor="#666666"
     borderopacity="1.0"
     inkscape:pageopacity="0.0"
     inkscape:pageshadow="2"
     inkscape:zoom="0.42657054"
     inkscape:cx="322.0882"
     inkscape:cy="275.94377"
     inkscape:document-units="mm"
     inkscape:current-layer="layer1"
     showgrid="false"
     units="px"
     inkscape:window-width="1920"
     inkscape:window-height="1003"
     inkscape:window-x="0"
     inkscape:window-y="0"
     inkscape:window-maximized="1" />
  <metadata
     id="metadata5">
    <rdf:RDF>
      <cc:Work
         rdf:about="">
        <dc:format>image/svg+xml</dc:format>
        <dc:type
           rdf:resource="http://purl.org/dc/dcmitype/StillImage" />
        <dc:title></dc:title>
      </cc:Work>
    </rdf:RDF>
  </metadata>
  <g
     inkscape:label="Layer 1"
     inkscape:groupmode="layer"
     id="layer1"
     transform="translate(0,-164.70832)">
    <path
       style="fill:#000000;stroke:#000000;stroke-width:0.56325203"
       d="M 31.82858,295.06982 C 26.625071,294.7989 23.225615,294.36099 22.278144,293.83956 20.148623,292.66758 5.6785972,278.52977 4.769048,276.73244 3.4679146,274.16132 2.8012876,264.30809 2.4817745,242.92493 2.15521,221.06989 2.7679681,208.2622 5.137736,187.41087 c 1.7437783,-15.34331 1.2957937,-14.94034 19.463881,-17.50876 20.12439,-2.845 32.311139,-3.69296 52.916945,-3.68205 9.959854,0.005 20.518403,0.25046 23.463438,0.54485 l 5.35459,0.53526 6.9037,4.4535 c 11.42465,7.36996 13.10016,8.64321 14.04162,10.67055 1.57891,3.40004 2.79717,27.43767 2.40254,47.40509 -0.34654,17.53473 -0.48711,19.74791 -2.58565,40.71032 -1.32255,13.21107 -2.11765,16.13552 -4.89271,17.9957 -1.92026,1.28718 -18.31078,3.81321 -34.936621,5.38426 -13.582021,1.28342 -41.684256,1.86645 -55.440889,1.15023 z m 48.475953,-1.48595 c 6.588828,-0.47088 17.934707,-1.68131 25.213067,-2.68985 l 13.23338,-1.83371 v -5.8441 c 0,-4.2961 -0.18449,-5.84389 -0.69649,-5.84331 -0.38308,4.3e-4 -2.82777,0.38457 -5.43266,0.85365 -2.60488,0.46907 -5.98984,0.73464 -7.52212,0.59015 -2.30623,-0.21746 -2.49813,-0.1718 -1.1144,0.26521 1.3077,0.413 0.96571,0.46818 -1.57098,0.25351 -1.78342,-0.15093 -3.112195,-0.0589 -2.952844,0.20463 0.159352,0.26346 -6.028995,1.03119 -13.751877,1.70606 -11.22615,0.98098 -17.504976,1.20081 -31.314637,1.09636 -9.500174,-0.0719 -15.768618,-0.27975 -13.929872,-0.46198 l 3.343168,-0.33131 -3.343168,-0.0213 c -1.838746,-0.0117 -5.213512,0.13737 -7.499474,0.33131 -3.81081,0.32331 -4.192074,0.47094 -4.586507,1.77605 -0.408332,1.35109 -0.420067,1.34158 -0.230829,-0.18722 0.136712,-1.10443 -0.08548,-1.71269 -0.706844,-1.93531 -0.49842,-0.17856 -1.453301,-0.82717 -2.121947,-1.44137 l -1.215728,-1.11672 -1.988146,4.03422 c -1.093478,2.21881 -1.988135,4.6615 -1.988135,5.42818 0,1.6414 2.297451,4.63423 3.882646,5.05782 0.934813,0.24982 1.259174,-0.18739 2.056404,-2.77178 0.520599,-1.68761 1.05527,-2.95727 1.188169,-2.82147 0.132909,0.13582 -0.161935,1.45725 -0.655189,2.93653 -0.493265,1.47928 -0.834885,2.75265 -0.759165,2.82972 0.07574,0.0771 5.152427,0.35388 11.281576,0.61515 14.336513,0.61116 28.172811,0.39355 43.182602,-0.67913 z m -52.889529,-7.43389 c 0.02675,-0.66329 0.158767,-0.7982 0.336639,-0.344 0.160961,0.41102 0.14117,0.9021 -0.04397,1.09131 -0.185149,0.18919 -0.316839,-0.14709 -0.292651,-0.74731 z m -10.450823,1.61324 c -0.29677,-0.86376 -7.6069034,-8.48001 -11.3396576,-11.81453 -1.2579954,-1.12379 -1.266871,-1.12396 -0.6754206,-0.0124 0.4927113,0.92599 11.8359462,12.81153 12.2356172,12.8206 0.06703,0.002 -0.03228,-0.44561 -0.220539,-0.99364 z M 122.5605,287.1382 c 0.93423,-0.89177 1.81444,-2.23692 1.95601,-2.98921 1.612,-8.56571 2.87402,-20.99108 4.00029,-39.38522 1.02247,-16.69893 1.0173,-29.36103 -0.0182,-44.54196 -0.44857,-6.57628 -0.81939,-12.33206 -0.82404,-12.7906 -0.007,-0.67139 -0.19832,-0.63973 -0.98355,0.16258 -0.85862,0.87731 -0.97596,2.26906 -0.98237,11.65186 -0.004,5.86054 0.15456,9.37444 0.35233,7.80865 0.19779,-1.56577 0.27434,7.52999 0.17011,20.21282 -0.1472,17.91397 -0.43749,25.49358 -1.30085,33.96681 -0.61125,5.99891 -0.99148,11.89195 -0.84494,13.09562 0.22831,1.87544 0.18386,1.99595 -0.31074,0.84243 -0.47689,-1.11225 -0.72138,-1.22379 -1.40737,-0.64201 -0.45662,0.38724 -0.83022,0.8322 -0.83022,0.98877 0,0.15658 0.42424,-0.067 0.94275,-0.49675 0.65061,-0.53928 0.81232,-0.55963 0.52187,-0.0657 -0.2315,0.39368 -1.15721,1.10486 -2.05714,1.58041 l -1.63624,0.86463 v 5.67913 c 0,6.39458 0.3486,6.8295 3.25232,4.05771 z m 1.87105,-8.91201 c 0.0114,-0.93947 0.13624,-1.25488 0.27752,-0.70089 0.14126,0.55398 0.13197,1.32264 -0.0207,1.70812 -0.15264,0.38549 -0.26821,-0.0678 -0.25686,-1.00723 z M 15.917275,273.95587 c -1.478401,-22.58241 -0.742132,-47.56766 2.195494,-74.50461 1.432597,-13.13636 1.677108,-13.89656 5.274872,-16.39978 l 1.764707,-1.22783 -6.123543,-4.883 c -5.310221,-4.23446 -6.298022,-4.81521 -7.437282,-4.37259 -1.187185,0.46122 -4.1749689,3.54844 -4.3506269,4.4954 -0.2701846,1.45649 -0.5699786,3.78368 -1.589674,12.34022 -2.7309229,22.91574 -3.4871877,50.75883 -1.9710504,72.56739 l 0.8095086,11.64426 5.9800767,6.12981 c 3.289044,3.3714 6.032183,6.07425 6.095871,6.00637 0.06365,-0.0679 -0.228082,-5.37594 -0.648353,-11.79564 z m 1.735907,-85.92094 c -0.17122,-0.28309 -2.570341,-2.24505 -5.331406,-4.35994 -2.7610554,-2.11488 -4.9126012,-3.95508 -4.781219,-4.08933 0.1313924,-0.13427 2.578407,1.61599 5.437822,3.88944 6.507174,5.17371 6.397284,5.07452 5.621843,5.07452 -0.349666,0 -0.77583,-0.23161 -0.94704,-0.51469 z m 4.439957,93.86079 1.97967,-4.01703 -0.379142,-14.63 c -0.402561,-15.53383 0.225314,-39.79668 0.95323,-36.83564 0.232889,0.94732 0.333708,-1.2083 0.22637,-4.83968 -0.142799,-4.83105 -0.07215,-5.80139 0.269386,-3.70093 0.358603,2.20526 0.42436,1.49949 0.291748,-3.13157 -0.105349,-3.67923 -0.0288,-4.88358 0.198954,-3.13156 0.362477,2.78792 0.380526,2.74076 0.871433,-2.2775 0.275709,-2.81841 0.593121,-4.72197 0.705358,-4.23013 0.112247,0.49182 -0.203002,4.59132 -0.700551,9.10999 -0.559033,5.07716 -0.994401,14.9587 -1.13964,25.86639 -0.12925,9.70784 -0.311303,22.10527 -0.404549,27.54982 -0.09327,5.44456 0.01609,9.41596 0.243076,8.82531 0.357886,-0.93141 0.417822,-0.89098 0.451787,0.30472 0.02152,0.75823 0.454134,1.84717 0.961317,2.41985 0.507183,0.57268 0.646764,1.04124 0.310187,1.04124 -0.336568,0 -1.002283,-0.56945 -1.479344,-1.26544 -0.477061,-0.696 -0.867385,-0.99193 -0.867385,-0.65763 0,0.3343 0.438792,0.99292 0.975092,1.46358 1.214201,1.06562 3.113222,1.80025 2.64273,1.02234 -0.206538,-0.3415 0.603811,-0.53338 2.060545,-0.4879 l 2.400956,0.075 -1.950184,0.3701 c -1.07259,0.20356 8.706173,0.36199 21.730606,0.35207 13.024432,-0.01 21.048041,0.124 17.830238,0.29757 -5.425994,0.29267 -5.547291,0.32342 -1.671584,0.42362 2.298425,0.0594 6.310229,-0.0819 8.915119,-0.31396 4.630579,-0.41259 4.674055,-0.43013 1.950174,-0.78679 -1.725935,-0.226 -0.665889,-0.30412 2.78598,-0.20532 3.593706,0.10287 4.978471,-0.005 3.900367,-0.30377 -1.322267,-0.36645 -0.914725,-0.46421 1.950183,-0.46781 1.991969,-0.002 6.505247,-0.40365 10.029505,-0.89144 3.524259,-0.48778 7.536069,-0.77334 8.915119,-0.63456 1.87937,0.18912 2.0887,0.14461 0.83579,-0.17772 -1.56778,-0.40335 -1.4961,-0.45521 1.15412,-0.83521 1.55414,-0.22284 3.68542,-0.2694 4.73617,-0.10347 1.55976,0.2463 1.70588,0.19326 0.79605,-0.28901 -0.90566,-0.48004 -0.72494,-0.54243 0.96488,-0.33305 1.1436,0.14168 2.23863,-0.006 2.43339,-0.32788 0.19477,-0.32204 0.96026,-0.46711 1.70109,-0.3224 0.74081,0.14472 1.21061,0.1238 1.04397,-0.0465 -0.16664,-0.17029 0.19171,-0.84769 0.79633,-1.50534 1.1447,-1.24513 2.23985,-8.21152 2.24948,-14.30932 0.003,-1.59188 0.1381,-3.03076 0.30128,-3.19752 0.58963,-0.60251 0.87126,-10.89557 0.99393,-36.3266 0.0688,-14.24861 -0.0512,-24.75357 -0.2667,-23.34437 -0.25635,1.67706 -0.32512,0.79193 -0.19899,-2.56219 0.12803,-3.40533 0.0216,-4.74237 -0.31728,-3.98563 -0.39738,0.88737 -0.47345,0.67227 -0.34461,-0.9744 0.0909,-1.16223 0.0706,-2.01629 -0.0453,-1.89791 -0.11585,0.11838 -0.69122,-0.27585 -1.27859,-0.87607 -0.86083,-0.87965 -1.95947,-1.10987 -5.66482,-1.18702 -4.54654,-0.0947 -4.56026,-0.0994 -1.25368,-0.42703 5.04365,-0.49984 -36.162996,-0.01 -45.132784,0.53652 -4.290403,0.2614 -11.047909,0.88675 -15.016688,1.38967 -3.968769,0.50292 -7.980573,0.76166 -8.915119,0.57499 -1.349479,-0.26955 -1.527156,-0.20541 -0.863368,0.31168 0.658285,0.5128 0.394188,0.58856 -1.243482,0.35672 -1.143596,-0.16189 -2.224027,-0.055 -2.400966,0.23754 -0.176919,0.29251 -0.975871,0.53186 -1.775438,0.53186 -0.799567,0 -3.095931,0.29222 -5.103027,0.64938 -4.863775,0.86551 -6.71897,2.65078 -6.823469,6.56635 -0.07236,2.71146 -0.07933,2.72159 -0.522956,0.75551 -0.315342,-1.3977 -0.391298,-0.63256 -0.25433,2.5622 0.128779,3.00373 0.05965,3.77937 -0.203084,2.2775 -0.369088,-2.11019 -0.433154,-1.94287 -0.872058,2.2775 -0.26053,2.50524 -0.591984,4.20273 -0.736567,3.77218 -0.240544,-0.71631 0.669497,-9.41876 1.30263,-12.45669 0.205739,-0.98721 -0.15231,-1.54407 -1.554561,-2.41771 -2.507084,-1.562 -3.119422,-1.4356 -3.445136,0.71112 -0.758335,4.99813 -2.589537,24.65989 -3.168197,34.01736 -0.851704,13.77262 -0.127744,58.07905 0.948998,58.07905 0.113672,0 1.097526,-1.80767 2.186341,-4.01703 z m 45.901277,-18.79576 c -12.192674,-1.8322 -22.094087,-11.28176 -25.29216,-24.13793 -1.076076,-4.3258 -1.067835,-11.49893 0.01865,-16.24991 2.408755,-10.53273 10.577531,-21.09986 19.768451,-25.57248 6.022908,-2.93095 10.287658,-4.03501 15.58637,-4.03501 8.408643,0 16.475226,3.3804 22.146403,9.28073 10.39202,10.81195 12.16595,26.27408 4.71632,41.10894 -3.04926,6.07216 -10.202779,13.11802 -16.46123,16.21351 -6.948599,3.43684 -13.245637,4.47968 -20.482828,3.39215 z m 12.610946,-1.39131 C 99.2003,256.8948 111.51034,237.6625 107.93476,219.01119 103.25368,194.59315 75.383528,185.8884 55.416071,202.60789 c -5.533107,4.63308 -10.592709,13.53931 -12.135299,21.36132 -1.073554,5.44366 -1.07914,8.71672 -0.02357,13.83135 2.487714,12.05442 11.340089,21.32921 23.068533,24.16932 3.281223,0.79456 10.727545,0.65835 14.279671,-0.26123 z m -11.96575,-0.89705 c -4.025856,-0.72011 -4.444128,-1.2695 -0.583262,-0.76609 l 3.054464,0.39826 -4.256284,-3.45455 c -3.173609,-2.57583 -4.803541,-3.51233 -6.407738,-3.68168 l -2.151453,-0.22712 2.368076,-0.0957 2.368077,-0.0957 v -4.55499 c 0,-3.96183 0.126975,-4.55387 0.975092,-4.54629 0.833307,0.007 0.853569,0.089 0.139294,0.56066 -0.695252,0.45912 -0.648404,0.56014 0.278599,0.60068 1.104312,0.0483 1.104424,0.0527 0.0124,0.48867 -1.080575,0.43141 -1.078956,0.45253 0.08363,1.0883 0.969475,0.53019 1.249816,0.47726 1.538121,-0.29047 0.193912,-0.51637 0.09357,-1.20347 -0.222906,-1.52689 -1.030262,-1.05278 -0.612348,-1.49904 1.403849,-1.49904 h 1.979301 l -0.168422,2.98922 c -0.157087,2.78805 -0.271537,3.00134 -1.700702,3.16938 -1.597401,0.18782 -2.035783,0.94078 -0.835797,1.43557 0.41608,0.17156 0.303925,0.30528 -0.278589,0.33213 -0.5363,0.0247 -0.975091,0.3174 -0.975091,0.6504 0,0.81463 3.477932,0.42937 3.748988,-0.41528 0.117167,-0.36516 -0.239622,-0.78381 -0.792884,-0.93037 -0.794791,-0.21052 -0.742778,-0.28032 0.247759,-0.3325 0.714203,-0.0376 1.253691,-0.43357 1.253691,-0.92011 0,-1.4363 2.588175,-1.00595 3.856081,0.64118 l 1.151006,1.49524 2.929108,-1.27845 c 3.549481,-1.54923 7.165212,-4.20329 10.225374,-7.50578 4.390895,-4.73861 4.683423,-5.45511 4.683423,-11.47117 0,-6.71972 0.174592,-7.21821 2.528238,-7.21821 1.477386,0 1.900639,-0.25903 2.09329,-1.28109 0.224812,-1.19271 0.246704,-1.18187 0.317351,0.15714 0.05596,1.06099 1.025855,2.17149 3.697644,4.23378 3.73715,2.88462 4.05524,3.57736 3.01658,6.56954 -0.43483,1.25263 -0.46327,1.20137 -0.23699,-0.42702 0.23066,-1.66004 0.11521,-1.85047 -1.12193,-1.85047 -1.34462,0 -1.37793,0.10309 -1.33395,4.12797 l 0.0451,4.12797 1.05468,-2.2775 c 0.58007,-1.25264 1.06124,-1.96291 1.06929,-1.5784 0.0236,1.12843 -2.95249,6.98746 -3.54926,6.98746 -0.300166,0 -1.981917,-1.15299 -3.737236,-2.56219 -1.755318,-1.40921 -3.307911,-2.56219 -3.450198,-2.56219 -0.142298,0 -1.295938,1.40383 -2.563649,3.11961 -2.742135,3.71131 -8.301121,8.15253 -12.566271,10.0395 -2.908999,1.28699 -3.071436,1.46686 -3.027868,3.35276 0.05094,2.20756 0.445279,3.70698 1.417102,5.3891 0.633809,1.09704 0.725579,1.09935 4.723813,0.1188 2.242588,-0.54999 5.712793,-1.92585 7.711557,-3.05746 5.152212,-2.91694 11.45722,-9.60136 14.1266,-14.97668 1.16635,-2.34867 1.94973,-3.62977 1.74087,-2.84688 -1.10087,4.12621 -6.126844,11.2208 -10.396954,14.6762 -7.473379,6.0475 -17.324808,8.93972 -25.481008,7.48078 z m 5.685684,-0.32483 c -0.377246,-0.15596 -1.129452,-0.16545 -1.671594,-0.0211 -0.542132,0.14436 -0.233473,0.27198 0.685895,0.28358 0.919367,0.0116 1.362935,-0.10651 0.985699,-0.26248 z m -1.264298,-2.79169 c 0,-0.85583 -0.321133,-1.38984 -0.835787,-1.38984 -0.833984,0 -1.197086,2.2879 -0.47948,3.02119 0.631555,0.64536 1.315267,-0.20267 1.315267,-1.63135 z m 1.807957,0.0336 c -0.146458,-0.78289 -0.487791,-1.42344 -0.758519,-1.42344 -0.270738,0 -0.49224,0.64055 -0.49224,1.42344 0,0.82125 0.320897,1.42344 0.758519,1.42344 0.508649,0 0.670809,-0.46893 0.49224,-1.42344 z m -4.593928,0.2847 c 0,-0.31315 -0.250742,-0.56938 -0.557198,-0.56938 -0.306456,0 -0.557198,0.25623 -0.557198,0.56938 0,0.31316 0.250742,0.56937 0.557198,0.56937 0.306456,0 0.557198,-0.25621 0.557198,-0.56937 z m -0.834649,-0.9333 c 1.225731,-0.48064 0.01548,-1.32308 -1.918524,-1.33548 -1.315359,-0.008 -1.324542,0.0188 -0.278599,0.82724 1.297526,1.00285 1.070008,0.95022 2.197123,0.50824 z m 0.690435,-2.36094 c -0.0412,-0.55921 -0.507172,-1.01674 -1.035458,-1.01674 -0.749429,0 -0.843494,0.22344 -0.42802,1.01674 0.292887,0.55921 0.758838,1.01674 1.035469,1.01674 0.276631,0 0.469231,-0.45753 0.428009,-1.01674 z m 4.044581,-1.19768 c 0,-2.68195 -1.58539,-4.9922 -3.035606,-4.42354 -0.665509,0.26096 -0.854706,0.70292 -0.589072,1.37604 0.215219,0.54538 0.524985,1.95243 0.688365,3.12677 0.24777,1.7808 0.516069,2.13515 1.61669,2.13515 1.161829,0 1.319623,-0.26478 1.319623,-2.21442 z m -6.137676,1.21802 c -0.01937,-0.97058 -0.910831,-1.74765 -2.220255,-1.93541 -1.677386,-0.24053 -1.900804,-2.09042 -0.391329,-3.24027 0.785783,-0.59858 0.861144,-0.93602 0.349666,-1.56579 -0.358592,-0.44151 -0.973062,-0.80275 -1.365487,-0.80275 -1.110419,0 -0.900827,6.35284 0.238895,7.24142 0.979427,0.7636 3.402038,0.98008 3.38851,0.3028 z m -0.712635,-9.96406 c -0.132807,-0.70461 -0.241467,-0.12812 -0.241467,1.28109 0,1.4092 0.10866,1.98569 0.241467,1.28109 0.132817,-0.7046 0.132817,-1.85759 0,-2.56218 z m 1.114396,0 c -0.132817,-0.70461 -0.241477,-0.12812 -0.241477,1.28109 0,1.4092 0.10866,1.98569 0.241477,1.28109 0.132807,-0.7046 0.132807,-1.85759 0,-2.56218 z m 31.969551,-8.1136 0.28255,5.12438 0.11458,-4.98263 0.11458,-4.98262 -3.39392,-2.70394 c -1.866654,-1.48717 -3.621819,-2.78935 -3.900366,-2.89373 -0.281316,-0.10543 -0.506435,2.21786 -0.506435,5.22647 v 5.41625 l 3.203864,2.4916 3.203874,2.4916 0.299363,-5.15587 0.29936,-5.15589 z m 3.4476,-6.35191 c -0.37725,-0.15597 -1.12946,-0.16546 -1.67159,-0.0211 -0.54214,0.14436 -0.23348,0.27196 0.68589,0.28357 0.91936,0.0116 1.36293,-0.10651 0.9857,-0.26247 z m -0.83223,-1.05134 c 0.43067,-0.34373 -5.980811,-4.83706 -6.891282,-4.8296 -2.623288,0.0215 -2.502883,0.93858 0.429792,3.27367 2.412681,1.92105 3.22838,2.27525 4.61907,2.00574 0.92892,-0.18003 1.75802,-0.38244 1.84242,-0.44981 z m -5.633984,-1.78291 c -2.640352,-2.10206 -3.392927,-3.00201 -1.623721,-1.94171 1.247951,0.74791 4.931535,4.01068 4.527955,4.01068 -0.16798,0 -1.474885,-0.93104 -2.904234,-2.06897 z m -37.360359,30.57166 c -3.941435,-2.11864 -7.453138,-5.11088 -9.99427,-8.51585 -2.348347,-3.14668 -5.559713,-10.99618 -5.222797,-12.76604 0.214061,-1.12446 0.244521,-1.10727 0.320917,0.18107 0.04643,0.7829 0.327467,1.80777 0.624545,2.2775 0.386675,0.61142 0.542552,0.005 0.54866,-2.13515 0.0082,-3.02632 -0.339847,-3.54423 -1.551609,-2.30597 -0.520056,0.53142 -0.64701,-0.32264 -0.57129,-3.84328 0.05719,-2.66064 0.185435,-3.52549 0.311047,-2.09809 0.160694,1.82612 0.561913,2.66159 1.617603,3.36842 1.340828,0.89776 1.397669,1.15958 1.265016,5.8275 -0.153684,5.40793 0.134703,6.7412 2.121813,9.80955 1.253916,1.93622 4.356479,3.80764 7.68125,4.63322 0.931165,0.23121 0.951119,0.28757 0.1214,0.34276 -0.54614,0.0363 -1.893127,-0.31829 -2.993308,-0.78802 -2.771427,-1.18329 -2.959743,-1.07343 -1.028448,0.59994 2.706182,2.34478 7.447624,5.40832 9.652649,6.23677 1.126644,0.42329 1.635108,0.78766 1.129934,0.80973 -0.505185,0.022 -2.320081,-0.71326 -4.033112,-1.63406 z m 45.152423,-22.52425 c 0.73262,-3.32225 1.32289,-4.69852 0.9768,-2.2775 -0.17906,1.25262 -0.55685,2.66183 -0.83952,3.13156 -0.34397,0.57158 -0.38937,0.28911 -0.13728,-0.85406 z m 1.16518,-10.67578 c -0.16011,-3.20985 -0.67678,-6.86097 -1.14817,-8.1136 -0.96663,-2.56867 -1.16747,-1.70863 -0.39553,1.69375 0.37014,1.63136 0.32754,2.3839 -0.15258,2.69581 -1.18766,0.77153 -3.2436,0.47662 -4.85596,-0.69657 -1.472825,-1.07168 -1.592708,-1.08099 -1.832258,-0.14234 -0.194567,0.7624 -0.271886,0.69442 -0.320958,-0.28216 -0.04089,-0.81359 -0.876138,-1.86008 -2.272259,-2.84686 l -2.207639,-1.56038 -0.02111,-6.44346 c -0.01988,-6.05479 -0.109049,-6.56121 -1.478308,-8.39565 -1.112593,-1.49057 -2.312291,-2.2221 -5.073449,-3.09358 -1.988955,-0.62775 -4.279396,-1.17626 -5.089878,-1.21891 -1.315338,-0.0692 -1.338757,-0.10407 -0.218038,-0.32453 1.610285,-0.31679 6.814112,1.22851 10.421736,3.09478 1.545378,0.79945 4.591683,3.27498 6.769559,5.5012 l 3.959782,4.04765 -0.26531,5.55141 c -0.25624,5.36145 -0.22491,5.5514 0.91567,5.5514 1.34386,0 1.4872,-0.9634 0.59359,-3.98938 -0.79793,-2.70195 -1.03902,-5.72867 -0.42547,-5.34118 0.27555,0.17402 0.33857,0.83936 0.14005,1.47854 -0.22703,0.73091 -0.14784,1.02754 0.21342,0.79939 1.17856,-0.74432 3.02176,5.95226 3.3125,12.03467 0.15341,3.20985 0.15358,5.83609 3.4e-4,5.83609 -0.15322,0 -0.40959,-2.62624 -0.5697,-5.83609 z m -5.01976,-12.54344 c -0.11685,-1.32146 -0.21107,-0.0967 -0.20937,2.72172 0.002,2.81841 0.0973,3.8996 0.21246,2.40266 0.11516,-1.49694 0.11376,-3.80291 -0.003,-5.12438 z m -0.8617,1.15593 0.17665,-5.83609 -3.113826,-3.20444 c -1.712601,-1.76243 -3.67496,-3.5113 -4.360794,-3.88637 -1.155054,-0.63169 -1.202148,-0.59639 -0.638965,0.47893 0.334395,0.63847 1.66974,2.0528 2.96745,3.14294 4.182881,3.51384 5.162775,4.41869 4.309641,3.97961 -0.459689,-0.23659 -1.864574,-1.28099 -3.121964,-2.32088 -1.257391,-1.03989 -2.448399,-1.89072 -2.646676,-1.89072 -0.198278,0 -0.360509,2.42241 -0.360509,5.38314 v 5.38314 l 2.925275,2.29413 c 1.608901,1.26177 3.096669,2.2983 3.306169,2.30341 0.209489,0.005 0.460379,-2.61694 0.557549,-5.8268 z m -52.478966,12.09923 c -1.266902,-1.2946 -2.539348,-1.47458 -3.018982,-0.42704 -0.179235,0.39145 -0.178076,-0.31315 0.002,-1.56578 1.124789,-7.79969 8.319815,-18.02836 16.110494,-22.90314 3.274828,-2.04913 10.618773,-4.71155 12.996207,-4.71155 1.431061,0 1.620965,0.17261 1.350924,1.22779 -0.215281,0.84122 -0.111141,1.09954 0.330766,0.82046 0.354729,-0.22403 0.644961,-0.77653 0.644961,-1.22778 0,-0.45126 0.259556,-0.82047 0.576804,-0.82047 0.397601,0 0.397601,0.34216 0,1.10133 -0.317248,0.60572 -0.576804,1.7017 -0.576804,2.4355 0,1.95753 -1.524603,3.86505 -3.089178,3.86505 -0.979796,0 -1.753474,-0.646 -2.797244,-2.33558 -1.432597,-2.31897 -1.461356,-2.33283 -4.046651,-1.94927 -3.152301,0.46768 -8.250778,3.705 -11.866324,7.5346 -3.546366,3.75633 -6.617535,8.65932 -6.617535,10.56462 0,1.57521 0.01322,1.581 1.643912,0.71932 2.349751,-1.24168 3.236896,-1.09315 5.15047,0.86225 1.415635,1.44658 1.63602,2.02667 1.341545,3.53122 -0.796441,4.06926 -5.505199,5.96671 -8.135927,3.27847 z m 4.457555,-4.27031 c 0,-3.97212 -0.22059,-4.20249 -2.746123,-2.86794 -1.753637,0.92666 -2.26863,1.90064 -2.26863,4.29049 0,1.7909 0.539969,2.16731 3.203874,2.23343 l 1.810879,0.0449 z m 2.250397,1.93949 c 0.774703,-1.9112 0.249933,-4.50666 -0.996707,-4.92963 -0.506209,-0.17177 -0.696492,0.70996 -0.696492,3.22737 0,3.81031 0.595857,4.40936 1.693199,1.70226 z m -7.830875,-2.11544 c -0.0072,-1.1984 -0.126197,-1.34613 -0.548661,-0.67812 -0.711487,1.125 -0.711487,3.01152 0,2.56219 0.306456,-0.19354 0.553355,-1.04138 0.548661,-1.88407 z m 28.405863,-19.43006 c 0.968542,-1.8493 0.695221,-2.88431 -0.761677,-2.88431 -1.000335,0 -1.493015,0.45299 -1.950183,1.79309 -0.788939,2.31261 -0.830652,2.19254 0.761676,2.19254 0.787555,0 1.619427,-0.46977 1.950184,-1.10132 z m -3.110957,-1.49044 c 0.190273,-0.5067 0.09685,-0.73525 -0.218991,-0.53577 -0.30294,0.19132 -0.550813,0.58896 -0.550813,0.88363 0,0.81901 0.399384,0.63854 0.769804,-0.34786 z m -0.568308,-2.24793 c 0.137204,-0.36535 -0.09193,-0.66428 -0.509243,-0.66428 -0.417278,0 -0.870941,0.29893 -1.008145,0.66428 -0.137193,0.36535 0.09193,0.66427 0.509243,0.66427 0.417279,0 0.870952,-0.29892 1.008145,-0.66427 z m 3.141673,-0.56938 c 0,-0.46973 -0.376108,-0.85406 -0.835787,-0.85406 -0.459689,0 -0.835797,0.38433 -0.835797,0.85406 0,0.46973 0.376108,0.85406 0.835797,0.85406 0.459679,0 0.835787,-0.38433 0.835787,-0.85406 z m 4.254111,27.00399 c -0.807479,-0.64904 -1.468131,-1.46667 -1.468131,-1.81695 0,-0.35028 0.325325,-0.18223 0.722956,0.37344 0.571721,0.79898 1.154521,0.92759 2.78597,0.61484 l 2.063015,-0.39548 v -3.63758 c 0,-3.97777 0.830068,-4.77309 2.475784,-2.37213 1.415635,2.06528 1.102026,4.84551 -0.761338,6.74961 -1.922583,1.96461 -3.783815,2.11952 -5.818256,0.48425 z m 6.243149,-2.54765 c 0.895406,-2.00816 0.816171,-2.77068 -0.449214,-4.32279 l -1.095846,-1.34417 -0.01855,3.55859 c -0.01968,3.7772 0.504416,4.48388 1.56361,2.10837 z m -7.70307,-2.5785 c -0.01025,-1.09793 2.272433,-3.37629 3.370871,-3.36476 0.439929,0.005 0.177975,0.32995 -0.582123,0.72295 -0.760109,0.39299 -1.696684,1.35003 -2.081269,2.12676 -0.429075,0.86654 -0.702437,1.06556 -0.707479,0.51505 z m 30.790838,-16.04174 c -0.66925,-0.88156 -0.84861,-9.54362 -0.21897,-10.57462 0.94478,-1.54699 8.51174,-2.41057 10.68897,-1.21988 0.93247,0.50995 1.07661,1.21994 1.06923,5.26672 -0.009,5.24585 -0.20265,5.77803 -2.40715,6.6345 -2.18564,0.84914 -8.46211,0.77579 -9.13208,-0.10672 z m 10.14262,-1.03998 c 0.31315,-0.31946 0.56935,-2.55415 0.56935,-4.96597 v -4.38515 l -4.23187,-0.1647 c -3.12419,-0.12159 -4.40312,0.0461 -4.88612,0.64084 -0.74379,0.9158 -1.02628,8.3769 -0.35895,9.48028 0.51904,0.8582 7.96931,0.35192 8.90759,-0.6053 z m -7.81982,-1.03221 c -0.52933,-0.5409 -0.21881,-5.75672 0.34273,-5.75672 0.32454,0 0.41117,-0.29581 0.19251,-0.65735 -0.21867,-0.36154 -0.15594,-0.50474 0.13938,-0.31823 0.30438,0.19223 0.3958,1.64969 0.21106,3.36475 l -0.32591,3.02563 2.24311,-0.1693 c 1.72973,-0.13056 2.03203,-0.0339 1.32084,0.42225 -0.87965,0.56421 -3.60118,0.62293 -4.12372,0.089 z m 6.10719,0.025 c 0.21866,-0.36153 0.1555,-0.65735 -0.14034,-0.65735 -0.29586,0 -0.40679,-0.51243 -0.2465,-1.13875 0.16028,-0.6263 0.51291,-1.13875 0.78363,-1.13875 0.72707,0 0.59845,2.71258 -0.15108,3.18594 -0.39857,0.25171 -0.49204,0.15619 -0.24571,-0.25108 z m -0.002,-6.26027 c 0.27628,-0.45682 -0.28717,-0.62715 -1.86556,-0.56395 -1.24377,0.0498 -2.42791,-0.0796 -2.63141,-0.28754 -0.20355,-0.20794 0.92543,-0.37808 2.50879,-0.37808 2.73939,0 3.63652,0.59303 2.23556,1.47781 -0.39756,0.25107 -0.49208,0.15625 -0.24744,-0.24824 z m -8.19547,0.0624 c -0.14132,-0.55398 -0.26619,-0.23859 -0.27755,0.70088 -0.0114,0.93947 0.10422,1.39273 0.25686,1.00725 0.15262,-0.38549 0.16191,-1.15415 0.0207,-1.70813 z m 7.27525,-3.39254 c -0.5363,-0.14321 -1.41388,-0.14321 -1.95018,0 -0.53631,0.14321 -0.0975,0.26038 0.97509,0.26038 1.0726,0 1.51139,-0.11717 0.97509,-0.26038 z m -98.090115,87.37115 c -0.133278,-0.70825 -0.24738,-0.26286 -0.253571,0.98977 -0.0061,1.25262 0.102859,1.83211 0.242328,1.28773 0.139458,-0.54437 0.144521,-1.56925 0.01127,-2.2775 z m 94.478955,-1.37652 c -0.37724,-0.15596 -1.12945,-0.16546 -1.67159,-0.0211 -0.54213,0.14436 -0.23348,0.27198 0.68589,0.28358 0.91938,0.0116 1.36293,-0.10651 0.9857,-0.26248 z m -95.027165,-7.17075 c -0.123593,-1.01775 -0.22472,-0.18504 -0.22472,1.85047 0,2.03553 0.101158,2.86823 0.22472,1.85048 0.123604,-1.01776 0.123604,-2.68318 0,-3.70095 z m -0.552278,-9.67937 c -0.11731,-1.33091 -0.213293,-0.24198 -0.213293,2.41985 0,2.66183 0.09593,3.75075 0.213293,2.41984 0.11731,-1.33092 0.11731,-3.50877 0,-4.83969 z M 24.4437,243.63671 c -0.09644,-3.83617 -0.175278,-0.6975 -0.175278,6.97484 0,7.67233 0.07892,10.811 0.175278,6.97483 0.09644,-3.83615 0.09644,-10.11352 0,-13.94967 z m -7.256695,9.10999 c -0.123593,-1.01775 -0.22472,-0.18505 -0.22472,1.85047 0,2.03552 0.101158,2.86823 0.22472,1.85047 0.123604,-1.01776 0.123604,-2.68318 0,-3.70094 z m -0.546098,-16.79656 c -0.104448,-2.42696 -0.189904,-0.44127 -0.189904,4.41265 0,4.85392 0.08548,6.83963 0.189904,4.41267 0.104448,-2.42696 0.104448,-6.39836 0,-8.82532 z m 0.546098,-9.96406 c -0.123593,-1.01776 -0.22472,-0.18505 -0.22472,1.85047 0,2.03551 0.101158,2.86823 0.22472,1.85047 0.123604,-1.01777 0.123604,-2.68319 0,-3.70094 z m 1.11041,-3.70094 c -0.127662,-0.86118 -0.23212,-0.15658 -0.23212,1.56578 0,1.72236 0.104458,2.42696 0.23212,1.56579 0.127672,-0.86119 0.127672,-2.27039 0,-3.13157 z m 0,-13.665 c -0.127662,-0.86118 -0.23212,-0.15658 -0.23212,1.56578 0,1.72237 0.104458,2.42696 0.23212,1.56578 0.127672,-0.86118 0.127672,-2.27038 0,-3.13156 z m 0.714152,-4.12797 -0.416562,-2.56218 -0.06969,2.32494 c -0.03833,1.27872 0.09747,2.49576 0.301721,2.70453 0.597774,0.61084 0.625272,0.24326 0.184585,-2.46729 z m 0.624913,-4.27031 c -0.26833,-1.87894 -0.51569,-2.64759 -0.549686,-1.70812 -0.0739,2.04139 0.594976,6.49136 0.854984,5.6883 0.10044,-0.31017 -0.037,-2.10124 -0.305298,-3.98018 z m 0.876752,-2.409 c -0.141272,-0.554 -0.266146,-0.23859 -0.277502,0.70088 -0.01138,0.93946 0.104232,1.39272 0.256861,1.00723 0.152628,-0.38547 0.161924,-1.15413 0.0206,-1.70811 z m -0.549234,-4.27452 c -0.133279,-0.70825 -0.247391,-0.26285 -0.253571,0.98977 -0.0061,1.25262 0.102859,1.8321 0.242317,1.28773 0.139469,-0.54437 0.144522,-1.56924 0.01127,-2.2775 z m 1.089327,-0.007 c -0.154576,-0.39145 -0.281049,-0.0712 -0.281049,0.71173 0,0.78288 0.126473,1.10316 0.281049,0.71171 0.154565,-0.39144 0.154565,-1.03199 0,-1.42344 z m 9.315179,-2.83422 c 0.649604,-0.54105 0.885874,-0.98943 0.525047,-0.9964 -0.76718,-0.0148 -2.973507,2.69578 -2.948776,3.62272 0.0092,0.34922 0.292723,0.1225 0.629782,-0.50382 0.33707,-0.62631 1.144334,-1.58143 1.793947,-2.1225 z m -1.305653,0.0388 2.204779,-2.36836 -1.32859,-1.77995 c -0.732016,-0.9807 -1.845213,-1.77993 -2.479156,-1.77993 -0.632815,0 -1.055311,0.0973 -0.938892,0.2163 0.116429,0.11897 -0.61858,0.96122 -1.633355,1.87169 -2.75836,2.47481 -2.855767,3.72747 -0.393204,5.05682 1.122226,0.60581 2.113143,1.11279 2.202032,1.12663 0.08886,0.0138 1.153763,-1.04061 2.366386,-2.3432 z m -7.733325,-1.57983 c 0.412143,0.60177 0.475564,0.4218 0.241026,-0.68401 -0.219985,-1.03715 -0.01876,-1.74056 0.651417,-2.2775 0.872243,-0.69878 0.894883,-0.67922 0.225243,0.1946 -0.409448,0.5343 -0.580177,1.24309 -0.379388,1.57507 0.50746,0.83903 1.419489,0.15415 1.062085,-0.79757 -0.160428,-0.42721 0.273721,-1.18144 0.964771,-1.67604 0.691051,-0.49461 1.311752,-1.28429 1.379334,-1.75484 0.109264,-0.7607 -0.05617,-0.76092 -1.492381,-0.002 -2.127204,1.12407 -3.361924,3.13632 -3.552853,5.79019 -0.08558,1.19021 -0.04387,1.40809 0.09316,0.48615 0.194865,-1.31114 0.368678,-1.49495 0.807612,-0.85406 z m 2.266785,-4.35257 c 0.529003,-0.56438 1.081754,-0.90358 1.228345,-0.75379 0.146592,0.14979 -0.286234,0.61156 -0.961829,1.02614 -1.173615,0.72021 -1.185494,0.70808 -0.266516,-0.27235 z m 10.309765,4.54052 c -0.185159,-0.1892 -0.665735,-0.20943 -1.067958,-0.045 -0.4445,0.18176 -0.312462,0.31668 0.336639,0.344 0.587372,0.0247 0.916468,-0.10985 0.731319,-0.29905 z m 6.980207,-1.67278 c 3.139172,-0.48292 6.710535,-0.74816 7.936359,-0.58942 1.818155,0.23543 1.972147,0.19011 0.835797,-0.24602 -1.041567,-0.39976 -0.549583,-0.4734 1.950173,-0.2919 2.434091,0.17672 2.964385,0.10202 1.950183,-0.27468 -1.136646,-0.42218 -0.880318,-0.50432 1.392996,-0.44642 1.532279,0.039 3.162078,-0.073 3.621757,-0.24893 0.459689,-0.17594 5.474442,-0.60073 11.143902,-0.94397 27.029102,-1.63638 51.51097,-1.26126 53.42242,0.81855 0.59511,0.64753 0.63663,0.82896 0.1215,0.53086 -0.52784,-0.30546 -0.65134,-0.23587 -0.3794,0.21376 0.22176,0.36665 0.6212,0.52897 0.88764,0.36069 0.26645,-0.16828 0.74752,0.14783 1.06905,0.70244 0.54054,0.93235 0.66786,0.90106 1.6888,-0.41506 1.34208,-1.73013 1.04244,-3.17525 -1.08017,-5.20945 -1.38386,-1.32623 -2.23705,-1.56619 -7.06065,-1.98581 -7.88111,-0.6856 -43.840529,-0.48925 -51.733759,0.28249 -15.7222,1.53719 -23.813647,2.48257 -30.171841,3.52518 -3.723305,0.61055 -6.93297,1.11009 -7.13259,1.11009 -0.19962,0 0.306425,0.89676 1.124543,1.9928 1.742795,2.33489 2.178737,2.38156 10.41329,1.1148 z m 61.287767,-3.52737 c -1.6089,-0.11501 -4.241645,-0.11501 -5.850547,0 -1.608901,0.11502 -0.292527,0.20912 2.925275,0.20912 3.217802,0 4.534182,-0.0941 2.925272,-0.20912 z m -62.758839,-4.08926 c 19.318765,-2.75956 33.078401,-3.64175 54.818815,-3.51465 10.572774,0.0618 20.351544,0.16295 21.730604,0.22475 1.37906,0.0618 2.50737,-0.13206 2.50737,-0.43079 0,-0.29875 -0.44768,-0.57686 -0.99487,-0.61806 -0.54717,-0.0412 -1.29939,-0.41085 -1.67158,-0.82146 -0.53868,-0.59429 -0.51709,-0.65352 0.10587,-0.29038 0.5127,0.29886 0.65066,0.23807 0.40005,-0.17629 -0.21039,-0.34787 -0.72524,-0.49809 -1.14412,-0.33385 -0.41888,0.16425 -0.95106,-0.0146 -1.18263,-0.39752 -0.28699,-0.47451 -0.18882,-0.5495 0.30832,-0.23554 0.48625,0.30709 0.59498,0.23843 0.32619,-0.206 -0.22175,-0.36665 -0.61736,-0.53138 -0.87911,-0.36607 -0.45909,0.28994 -4.46183,-1.8314 -4.46183,-2.36464 0,-0.14413 0.28948,-0.0792 0.64329,0.14421 0.40176,0.25373 0.4919,0.15597 0.24009,-0.26038 -0.22175,-0.36665 -0.62727,-0.52511 -0.90116,-0.35214 -0.27388,0.17296 -1.46419,-0.3088 -2.64513,-1.07059 -2.01659,-1.30084 -2.90741,-1.42253 -14.647095,-2.0008 -20.330087,-1.00142 -48.09637,0.47251 -68.195875,3.62008 -5.196816,0.81383 -9.514625,1.54698 -9.595111,1.62923 -0.352833,0.36055 11.838222,9.48304 12.672881,9.48304 0.510842,0 6.165113,-0.74797 12.565031,-1.66215 z m 2.848786,0.74878 c -0.185158,-0.1892 -0.665735,-0.20943 -1.067958,-0.045 -0.444489,0.18176 -0.312461,0.31669 0.33664,0.344 0.587371,0.0247 0.916467,-0.10984 0.731318,-0.29904 z m 3.63337,-0.60247 c -0.383067,-0.15795 -1.009918,-0.15795 -1.392985,0 -0.383068,0.15795 -0.06969,0.28719 0.696492,0.28719 0.766145,0 1.07957,-0.12924 0.696493,-0.28719 z m 3.910974,-0.56576 c -0.377246,-0.15596 -1.129452,-0.16546 -1.671584,-0.0211 -0.542132,0.14437 -0.233483,0.27197 0.685885,0.28358 0.919368,0.0116 1.362935,-0.10652 0.985699,-0.26248 z"
       id="path4844"
       inkscape:connector-curvature="0" />
  </g>
</svg>
