<?xml version="1.0" encoding="utf-8"?>
<!-- Generator: Adobe Illustrator 17.0.0, SVG Export Plug-In . SVG Version: 6.00 Build 0)  -->
<!DOCTYPE svg PUBLIC "-//W3C//DTD SVG 1.1//EN" "http://www.w3.org/Graphics/SVG/1.1/DTD/svg11.dtd">
<svg version="1.1" id="Layer_1" xmlns="http://www.w3.org/2000/svg" xmlns:xlink="http://www.w3.org/1999/xlink" x="0px" y="0px"
	 width="1139.485px" height="871.997px" viewBox="0 0 1139.485 871.997" enable-background="new 0 0 1139.485 871.997"
	 xml:space="preserve">
<g>
	<path d="M648.687,631.269c0.572-1.579,1.141-3.161,1.695-4.753c22.076-63.526,28.426-135.215,18.39-207.379l0.005-0.016
		l-0.128-0.903c0-0.003-0.001-0.006-0.001-0.009c-0.082-0.582-0.173-1.167-0.258-1.75c-0.04-0.277-0.082-0.554-0.122-0.831
		c-0.279-1.908-0.57-3.818-0.873-5.733c-0.092-0.581-0.184-1.162-0.278-1.744c-0.274-1.69-0.557-3.378-0.848-5.066
		c-0.105-0.612-0.207-1.224-0.315-1.837c-0.391-2.217-0.792-4.43-1.211-6.633c-0.004-0.02-0.007-0.041-0.011-0.061
		c-0.008-0.042-0.017-0.084-0.025-0.126c-0.459-2.413-0.94-4.83-1.437-7.248c-0.223-1.086-0.46-2.167-0.69-3.25
		c-0.284-1.334-0.564-2.668-0.858-4.001c-0.307-1.392-0.627-2.778-0.946-4.166c-0.228-0.99-0.452-1.981-0.686-2.968
		c-0.381-1.614-0.773-3.224-1.169-4.832c-0.108-0.437-0.209-0.878-0.318-1.314l-0.217-0.869l-0.008-0.011
		c-0.488-1.946-0.99-3.885-1.5-5.822c-0.083-0.312-0.165-0.625-0.248-0.937c-13.362-50.28-34.229-97.355-61.688-139.29
		c-0.013-0.019-0.025-0.038-0.038-0.057c-1.265-1.931-2.541-3.852-3.833-5.761c-0.168-0.248-0.339-0.494-0.507-0.741
		c-1.154-1.697-2.315-3.39-3.491-5.069c-0.369-0.528-0.746-1.05-1.117-1.576c-0.996-1.409-1.991-2.818-3.003-4.214
		c-0.737-1.019-1.488-2.026-2.233-3.038c-0.672-0.911-1.336-1.828-2.015-2.733c-2.98-3.98-6.023-7.901-9.126-11.764
		c-0.059-0.073-0.119-0.146-0.178-0.219c-1.479-1.838-2.971-3.663-4.477-5.474c-0.334-0.402-0.675-0.799-1.011-1.199
		c-1.218-1.453-2.44-2.902-3.676-4.337c-0.119-0.139-0.236-0.281-0.355-0.419c-0.484-0.561-0.976-1.109-1.462-1.666
		c-0.93-1.066-1.859-2.133-2.799-3.189c-0.768-0.864-1.544-1.717-2.318-2.572c-0.606-0.67-1.204-1.347-1.814-2.013
		c-0.195-0.213-0.394-0.42-0.59-0.633c-0.82-0.891-1.646-1.771-2.471-2.652c-0.786-0.839-1.571-1.68-2.361-2.51
		c-0.793-0.833-1.591-1.656-2.389-2.481c-0.868-0.897-1.737-1.793-2.61-2.679c-0.687-0.696-1.377-1.386-2.068-2.076
		c-1.034-1.034-2.07-2.063-3.111-3.083c-0.517-0.506-1.036-1.008-1.555-1.51c-1.27-1.23-2.545-2.45-3.826-3.659
		c-0.288-0.271-0.576-0.541-0.865-0.811c-1.572-1.474-3.152-2.931-4.74-4.372c0,0,0,0,0,0
		c-37.048-33.616-78.274-58.102-121.512-72.133c-0.12-0.039-0.239-0.079-0.359-0.118c-1.799-0.581-3.601-1.142-5.406-1.687
		c-0.295-0.089-0.59-0.183-0.886-0.271c-1.645-0.491-3.293-0.961-4.943-1.421c-0.384-0.107-0.767-0.224-1.152-0.329l0.462-0.195
		l-12.882-2.92l-1.335-0.302l-0.03,0.013c-19.06-4.218-38.362-6.372-57.397-6.372c-12.645,0-25.376,0.948-37.842,2.816
		c-8.919,1.337-17.706,3.136-26.344,5.392c-25.917,6.769-50.507,17.651-73.377,32.496c-29.429,19.103-55.378,44.332-77.126,74.985
		c-22.641,31.912-40.305,69.492-51.918,110.155c-3.252,11.386-6.029,23.013-8.309,34.825C33.631,368.694,33.879,427.77,45.28,487.73
		c37.189,195.588,185.625,343.079,345.272,343.079c0.004,0,0.008,0,0.012,0c12.636,0,25.365-0.947,37.83-2.815
		c42.596-6.384,81.827-23.156,116.632-49.846l0.019,0l1.132-0.878l9.977-7.734l-0.457,0.004c0.589-0.5,1.167-1.013,1.752-1.518
		c0.626-0.541,1.255-1.079,1.877-1.626c0.932-0.819,1.853-1.65,2.774-2.482c0.455-0.411,0.912-0.82,1.365-1.235
		c1.047-0.958,2.085-1.928,3.118-2.903c0.296-0.28,0.593-0.558,0.888-0.839c1.165-1.108,2.319-2.227,3.466-3.356
		c0.13-0.128,0.261-0.257,0.391-0.385C605.208,721.736,631.35,679.286,648.687,631.269z M555.392,758.529
		c-1.202,1.074-2.416,2.132-3.635,3.184c-0.352,0.303-0.703,0.608-1.057,0.909c-0.987,0.843-1.984,1.673-2.983,2.501
		c-0.541,0.448-1.08,0.897-1.624,1.341c-0.857,0.699-1.723,1.387-2.588,2.075c-0.473,0.376-0.945,0.753-1.421,1.125
		c-0.311,0.001-0.622,0.005-0.932,0.005c-150.59-0.014-290.732-136.946-325.983-318.518c-0.512-2.639-1-5.276-1.463-7.91
		c-0.117-0.666-0.219-1.331-0.333-1.998c-0.336-1.965-0.672-3.93-0.981-5.893c-0.159-1.007-0.296-2.013-0.448-3.019
		c-0.244-1.62-0.495-3.242-0.72-4.86c-0.15-1.078-0.279-2.154-0.421-3.231c-0.203-1.544-0.415-3.088-0.602-4.63
		c-0.135-1.115-0.248-2.228-0.375-3.342c-0.17-1.501-0.349-3.003-0.503-4.501c-0.116-1.125-0.21-2.246-0.317-3.37
		c-0.141-1.484-0.291-2.969-0.417-4.45c-0.099-1.17-0.177-2.335-0.267-3.503c-0.11-1.43-0.229-2.861-0.325-4.289
		c-0.081-1.208-0.14-2.412-0.21-3.619c-0.081-1.384-0.172-2.769-0.239-4.15c-0.059-1.208-0.096-2.41-0.145-3.616
		c-0.056-1.375-0.121-2.753-0.164-4.125c-0.037-1.211-0.054-2.417-0.081-3.625c-0.031-1.361-0.071-2.724-0.089-4.083
		c-0.016-1.233-0.011-2.461-0.016-3.692c-0.006-1.327-0.021-2.656-0.015-3.98c0.006-1.247,0.034-2.489,0.051-3.734
		c0.018-1.302,0.026-2.607,0.056-3.905c0.028-1.236,0.078-2.467,0.117-3.7c0.041-1.302,0.073-2.606,0.127-3.904
		c0.051-1.239,0.123-2.471,0.185-3.707c0.064-1.284,0.119-2.57,0.195-3.85c0.074-1.241,0.168-2.476,0.252-3.713
		c0.087-1.27,0.164-2.543,0.262-3.809c0.095-1.221,0.21-2.436,0.315-3.654c0.11-1.274,0.211-2.551,0.333-3.821
		c0.118-1.227,0.256-2.447,0.384-3.67c0.131-1.251,0.254-2.505,0.396-3.752c0.141-1.232,0.302-2.456,0.454-3.683
		c0.152-1.232,0.296-2.467,0.459-3.695c0.162-1.22,0.345-2.432,0.518-3.648c0.175-1.226,0.341-2.456,0.526-3.678
		c0.185-1.217,0.389-2.427,0.585-3.639c0.195-1.21,0.382-2.424,0.588-3.63c0.207-1.214,0.434-2.419,0.653-3.628
		c0.216-1.196,0.423-2.396,0.65-3.587c0.23-1.209,0.479-2.408,0.72-3.612c0.236-1.181,0.464-2.366,0.711-3.542
		c0.253-1.205,0.524-2.401,0.788-3.601c0.256-1.165,0.504-2.334,0.77-3.494c0.276-1.204,0.571-2.399,0.859-3.598
		c0.274-1.144,0.54-2.291,0.824-3.43c0.3-1.202,0.618-2.395,0.93-3.592c0.292-1.125,0.577-2.255,0.879-3.375
		c0.32-1.187,0.659-2.365,0.99-3.546c0.314-1.118,0.619-2.241,0.943-3.354c0.342-1.176,0.702-2.342,1.054-3.512
		c0.333-1.105,0.658-2.215,1.001-3.315c0.363-1.166,0.745-2.322,1.119-3.481c0.352-1.092,0.697-2.189,1.059-3.276
		c0.385-1.156,0.788-2.301,1.184-3.45c0.371-1.077,0.734-2.158,1.114-3.229c0.407-1.147,0.832-2.282,1.25-3.421
		c0.389-1.062,0.771-2.128,1.17-3.184c0.429-1.136,0.875-2.259,1.314-3.388c0.407-1.045,0.807-2.096,1.223-3.135
		c0.45-1.124,0.918-2.237,1.379-3.354c0.425-1.031,0.844-2.066,1.278-3.09c0.472-1.112,0.96-2.212,1.442-3.316
		c0.443-1.014,0.879-2.034,1.331-3.041c0.493-1.099,1.002-2.186,1.505-3.277c0.461-0.999,0.915-2.004,1.385-2.997
		c0.513-1.084,1.042-2.155,1.565-3.231c0.479-0.985,0.952-1.975,1.439-2.953c0.531-1.065,1.079-2.118,1.62-3.175
		c0.499-0.975,0.992-1.955,1.5-2.922c0.551-1.05,1.119-2.087,1.68-3.128c0.516-0.957,1.026-1.92,1.551-2.87
		c0.572-1.036,1.16-2.058,1.742-3.085c0.534-0.942,1.062-1.889,1.604-2.823c0.588-1.013,1.192-2.013,1.79-3.017
		c0.555-0.932,1.104-1.869,1.667-2.793c0.607-0.995,1.228-1.976,1.845-2.962c0.573-0.916,1.14-1.837,1.721-2.745
		c0.627-0.98,1.269-1.945,1.906-2.915c0.589-0.898,1.172-1.801,1.77-2.69c0.647-0.963,1.309-1.912,1.965-2.866
		c0.605-0.879,1.205-1.764,1.819-2.635c0.665-0.944,1.345-1.874,2.02-2.808c0.623-0.863,1.242-1.732,1.873-2.587
		c0.681-0.922,1.377-1.829,2.067-2.741c0.643-0.85,1.282-1.705,1.933-2.546c0.696-0.899,1.407-1.783,2.112-2.672
		c0.663-0.836,1.321-1.677,1.993-2.503c0.712-0.877,1.438-1.738,2.159-2.604c0.683-0.82,1.361-1.646,2.052-2.458
		c0.728-0.855,1.47-1.695,2.207-2.54c0.701-0.803,1.397-1.611,2.105-2.405c0.745-0.834,1.504-1.654,2.258-2.478
		c0.718-0.784,1.432-1.574,2.158-2.349c0.762-0.813,1.536-1.61,2.307-2.412c0.736-0.766,1.467-1.537,2.21-2.294
		c0.777-0.791,1.568-1.566,2.354-2.346c0.754-0.748,1.503-1.501,2.264-2.238c0.793-0.768,1.598-1.519,2.399-2.276
		c0.772-0.729,1.54-1.464,2.32-2.183c0.807-0.744,1.627-1.472,2.443-2.206c0.79-0.71,1.576-1.426,2.374-2.125
		c0.821-0.72,1.654-1.423,2.483-2.132c0.81-0.692,1.615-1.389,2.433-2.07c0.833-0.694,1.678-1.372,2.519-2.055
		c0.83-0.674,1.656-1.353,2.494-2.016c0.847-0.67,1.706-1.323,2.561-1.982c0.847-0.652,1.69-1.31,2.544-1.951
		c0.864-0.648,1.739-1.279,2.61-1.915c0.863-0.63,1.722-1.265,2.593-1.884c0.874-0.621,1.759-1.225,2.641-1.834
		c0.884-0.611,1.765-1.227,2.657-1.826c0.886-0.595,1.782-1.173,2.675-1.756c0.903-0.59,1.803-1.184,2.714-1.762
		c0.899-0.57,1.809-1.123,2.715-1.681c0.921-0.567,1.838-1.139,2.766-1.693c0.911-0.544,1.833-1.071,2.751-1.604
		c0.939-0.544,1.875-1.093,2.822-1.625c0.923-0.518,1.856-1.019,2.787-1.526c0.957-0.521,1.911-1.047,2.876-1.555
		c0.935-0.492,1.879-0.967,2.821-1.447c0.975-0.497,1.948-0.999,2.931-1.483c0.947-0.466,1.903-0.915,2.857-1.369
		c0.992-0.472,1.982-0.949,2.982-1.408c0.958-0.44,1.926-0.862,2.891-1.289c0.798-0.354,1.596-0.708,2.399-1.053
		c0.766,0.178,1.531,0.363,2.297,0.548c0.974,0.235,1.949,0.468,2.921,0.713c1.469,0.372,2.935,0.758,4.4,1.155
		c0.356,0.096,0.713,0.19,1.07,0.287c116.85,32.218,218.297,144.14,258.126,284.784c-3.73-2.573-7.7-4.482-11.782-5.684
		l-7.965-0.931l-6.884-0.212c-0.001,0-0.001,0-0.002,0l-0.775,0.112l-0.052,0.029c-9.033,1.54-17.149,6.811-22.898,14.91
		c-7.963,11.215-10.858,26.596-7.944,42.199c4.776,25.58,24.127,44.871,45.011,44.872c0,0,0.001,0,0.002,0
		c1.701,0,3.415-0.13,5.094-0.387c3.67-0.561,7.186-1.726,10.472-3.452l0.05-0.007l0.686-0.381c0.005-0.003,0.01-0.006,0.015-0.009
		l12.953-7.214c12.92,128.002-26.964,248.626-106.795,320.186C555.585,758.356,555.488,758.443,555.392,758.529z M650.56,369.579
		c0.051,0.208,0.104,0.416,0.155,0.624c0.212,0.862,0.419,1.727,0.627,2.592c0.174,0.724,0.351,1.445,0.522,2.171
		c0.217,0.92,0.428,1.843,0.64,2.766c0.172,0.748,0.341,1.496,0.51,2.245c0.145,0.643,0.293,1.285,0.436,1.929
		c0.274,1.243,0.538,2.491,0.803,3.738c0.107,0.505,0.216,1.01,0.322,1.515c0.127,0.605,0.26,1.21,0.384,1.815
		c0.489,2.382,0.966,4.77,1.421,7.167c0.407,2.141,0.795,4.281,1.172,6.42c0.064,0.36,0.124,0.721,0.186,1.082
		c0.059,0.339,0.116,0.679,0.175,1.019c0.262,1.523,0.519,3.046,0.765,4.568c0.034,0.206,0.066,0.412,0.099,0.618
		c0.077,0.476,0.152,0.952,0.228,1.429c0.277,1.756,0.546,3.512,0.804,5.267c0.054,0.364,0.108,0.728,0.161,1.092
		c0.041,0.285,0.077,0.57,0.118,0.855c-2.69,8.466-7.623,15.149-14.004,18.975c-0.236,0.027-0.471,0.056-0.707,0.076
		c-0.169,0.014-0.338,0.032-0.507,0.043c-0.55,0.036-1.101,0.059-1.65,0.059c-13.696-0.001-26.666-10.765-33.213-26.399
		c-0.034-0.082-0.065-0.167-0.099-0.249c-0.215-0.521-0.427-1.044-0.627-1.576c-1.163-3.077-2.08-6.326-2.71-9.704
		c-0.109-0.586-0.209-1.172-0.299-1.757c-0.029-0.186-0.05-0.371-0.077-0.557c-0.057-0.399-0.116-0.797-0.165-1.195
		c-0.027-0.221-0.046-0.441-0.071-0.661c-0.04-0.361-0.082-0.722-0.114-1.081c-0.022-0.243-0.036-0.485-0.055-0.727
		c-0.026-0.336-0.054-0.672-0.074-1.006c-0.014-0.247-0.021-0.493-0.033-0.74c-0.015-0.329-0.032-0.659-0.041-0.986
		c-0.007-0.245-0.006-0.489-0.009-0.734c-0.004-0.325-0.011-0.651-0.009-0.975c0.001-0.25,0.009-0.498,0.014-0.747
		c0.006-0.316,0.01-0.633,0.022-0.948c0.009-0.249,0.025-0.495,0.038-0.742c0.016-0.313,0.03-0.626,0.052-0.937
		c0.017-0.246,0.041-0.489,0.061-0.734c0.026-0.309,0.05-0.618,0.081-0.925c0.025-0.245,0.056-0.487,0.084-0.73
		c0.036-0.304,0.07-0.608,0.11-0.91c0.033-0.24,0.071-0.478,0.107-0.717c0.045-0.301,0.089-0.602,0.14-0.901
		c0.04-0.237,0.086-0.471,0.129-0.706c0.055-0.296,0.108-0.592,0.168-0.886c0.048-0.234,0.1-0.465,0.151-0.697
		c0.064-0.291,0.127-0.583,0.196-0.871c0.055-0.229,0.115-0.455,0.173-0.682c0.073-0.287,0.146-0.574,0.225-0.857
		c0.062-0.224,0.129-0.445,0.194-0.668c0.083-0.281,0.165-0.563,0.252-0.841c0.069-0.22,0.143-0.438,0.215-0.656
		c0.091-0.275,0.182-0.549,0.279-0.82c0.077-0.216,0.157-0.429,0.237-0.643c0.1-0.268,0.2-0.536,0.305-0.8
		c0.084-0.211,0.171-0.419,0.258-0.627c0.109-0.262,0.218-0.523,0.331-0.781c0.091-0.206,0.185-0.409,0.279-0.612
		c0.117-0.254,0.234-0.507,0.356-0.756c0.098-0.202,0.199-0.4,0.301-0.599c0.125-0.246,0.25-0.491,0.38-0.733
		c0.105-0.196,0.213-0.388,0.321-0.581c0.133-0.238,0.267-0.475,0.404-0.708c0.112-0.19,0.227-0.378,0.342-0.566
		c0.14-0.229,0.282-0.456,0.426-0.68c0.12-0.185,0.242-0.368,0.365-0.551c0.147-0.219,0.295-0.436,0.447-0.65
		c0.127-0.18,0.257-0.357,0.387-0.534c0.155-0.21,0.311-0.418,0.47-0.624c0.134-0.173,0.269-0.343,0.406-0.512
		c0.162-0.2,0.325-0.399,0.491-0.595c0.141-0.166,0.284-0.33,0.427-0.492c0.168-0.19,0.339-0.379,0.511-0.565
		c0.148-0.16,0.299-0.317,0.45-0.473c0.174-0.179,0.349-0.356,0.527-0.53c0.156-0.153,0.314-0.304,0.474-0.453
		c0.18-0.169,0.362-0.335,0.546-0.498c0.163-0.145,0.328-0.288,0.494-0.429c0.186-0.158,0.373-0.312,0.563-0.465
		c0.172-0.138,0.345-0.274,0.519-0.408c0.19-0.145,0.382-0.288,0.575-0.428c0.18-0.13,0.361-0.259,0.543-0.385
		c0.195-0.134,0.393-0.265,0.592-0.394c0.187-0.121,0.375-0.241,0.565-0.358c0.092-0.056,0.186-0.11,0.279-0.165
		C632.048,354.585,642.643,359.761,650.56,369.579z M662.162,435.167l-1.305,0.189c0.395-0.516,0.78-1.045,1.155-1.584
		C662.063,434.237,662.112,434.702,662.162,435.167z"/>
	<path d="M401.863,359.121c-3.961-21.211-17.772-38.151-34.254-43.67l-6.116-2.136l-6.599,0.24c0,0,0,0-0.001,0l-1.058,0.039
		l-0.059,0.034c-0.938,0.065-1.877,0.155-2.805,0.297c-9.399,1.435-17.858,6.847-23.817,15.24
		c-8.089,11.394-11.03,27.021-8.07,42.876c4.854,25.99,24.508,45.588,45.718,45.588c1.729,0,3.469-0.132,5.172-0.392
		c3.822-0.583,7.478-1.811,10.891-3.641l0.056-0.002l0.917-0.53c0.004-0.002,0.007-0.004,0.011-0.007l6.027-4.56l3.873-3.806
		C401.146,393.557,405.145,376.694,401.863,359.121z M378.507,405.14c-0.098,0-0.196,0.003-0.294,0.002
		c-0.288-0.004-0.576-0.016-0.864-0.03c-0.241-0.011-0.481-0.023-0.721-0.04c-0.316-0.023-0.631-0.055-0.946-0.089
		c-0.209-0.023-0.419-0.046-0.628-0.073c-0.342-0.045-0.683-0.099-1.023-0.157c-0.179-0.031-0.359-0.061-0.537-0.095
		c-0.366-0.07-0.731-0.148-1.095-0.232c-0.151-0.035-0.301-0.07-0.451-0.107c-0.387-0.096-0.773-0.201-1.158-0.314
		c-0.125-0.037-0.25-0.073-0.375-0.111c-0.406-0.125-0.81-0.258-1.212-0.4c-0.101-0.036-0.202-0.072-0.303-0.109
		c-0.421-0.154-0.84-0.317-1.257-0.49c-0.08-0.033-0.161-0.067-0.241-0.101c-0.433-0.184-0.864-0.377-1.291-0.581
		c-0.063-0.03-0.125-0.06-0.188-0.091c-0.442-0.214-0.881-0.438-1.316-0.673c-0.047-0.026-0.095-0.052-0.142-0.077
		c-0.448-0.244-0.892-0.499-1.333-0.765c-0.034-0.021-0.068-0.042-0.103-0.062c-0.451-0.274-0.898-0.559-1.34-0.855
		c-0.024-0.016-0.048-0.033-0.073-0.049c-0.45-0.303-0.895-0.616-1.336-0.941c-0.018-0.013-0.035-0.027-0.053-0.04
		c-0.446-0.33-0.887-0.67-1.323-1.022c-0.013-0.01-0.025-0.02-0.037-0.03c-0.439-0.355-0.873-0.721-1.302-1.098
		c-0.011-0.01-0.022-0.02-0.034-0.03c-0.429-0.378-0.852-0.767-1.27-1.166c-0.011-0.01-0.022-0.021-0.033-0.032
		c-0.416-0.399-0.827-0.808-1.232-1.227c-0.014-0.014-0.027-0.029-0.041-0.044c-0.401-0.416-0.795-0.842-1.184-1.278
		c-0.018-0.021-0.036-0.042-0.055-0.063c-0.383-0.431-0.759-0.871-1.13-1.32c-0.024-0.03-0.048-0.06-0.073-0.09
		c-0.362-0.442-0.719-0.892-1.069-1.352c-0.032-0.042-0.063-0.085-0.094-0.127c-0.341-0.45-0.676-0.907-1.004-1.373
		c-0.039-0.056-0.078-0.114-0.117-0.17c-0.318-0.455-0.631-0.917-0.937-1.387c-0.047-0.072-0.092-0.146-0.138-0.218
		c-0.295-0.458-0.585-0.92-0.867-1.391c-0.056-0.093-0.109-0.189-0.164-0.282c-0.269-0.455-0.535-0.914-0.793-1.381
		c-0.064-0.115-0.124-0.233-0.187-0.349c-0.244-0.45-0.486-0.903-0.719-1.364c-0.072-0.143-0.14-0.289-0.211-0.432
		c-0.218-0.44-0.435-0.882-0.642-1.332c-0.079-0.17-0.153-0.345-0.23-0.517c-0.193-0.429-0.386-0.859-0.569-1.296
		c-0.085-0.201-0.163-0.407-0.245-0.61c-0.168-0.414-0.337-0.827-0.496-1.247c-0.092-0.243-0.177-0.491-0.266-0.736
		c-0.141-0.387-0.284-0.774-0.417-1.166c-0.097-0.287-0.185-0.578-0.278-0.868c-0.116-0.359-0.235-0.717-0.344-1.08
		c-0.099-0.329-0.187-0.664-0.281-0.996c-0.093-0.331-0.19-0.659-0.278-0.993c-0.105-0.4-0.198-0.806-0.295-1.211
		c-0.065-0.272-0.136-0.541-0.198-0.815c-0.153-0.682-0.294-1.37-0.424-2.063c-0.11-0.588-0.21-1.175-0.3-1.762
		c-0.03-0.193-0.053-0.386-0.081-0.579c-0.057-0.393-0.114-0.786-0.163-1.178c-0.029-0.233-0.05-0.466-0.075-0.699
		c-0.039-0.35-0.079-0.701-0.111-1.05c-0.023-0.249-0.038-0.497-0.057-0.746c-0.026-0.333-0.054-0.666-0.074-0.997
		c-0.015-0.254-0.023-0.506-0.035-0.76c-0.015-0.324-0.032-0.648-0.041-0.971c-0.007-0.259-0.008-0.516-0.011-0.774
		c-0.004-0.315-0.011-0.631-0.01-0.945c0.001-0.259,0.008-0.516,0.013-0.774c0.005-0.311,0.009-0.623,0.02-0.933
		c0.009-0.257,0.024-0.512,0.037-0.767c0.015-0.308,0.029-0.616,0.049-0.922c0.017-0.257,0.04-0.512,0.061-0.767
		c0.025-0.302,0.048-0.604,0.078-0.904c0.025-0.255,0.056-0.507,0.085-0.76c0.034-0.298,0.067-0.597,0.106-0.893
		c0.033-0.251,0.071-0.501,0.108-0.751c0.043-0.293,0.086-0.587,0.134-0.878c0.041-0.25,0.087-0.498,0.132-0.747
		c0.052-0.288,0.104-0.575,0.16-0.86c0.049-0.246,0.102-0.489,0.155-0.733c0.061-0.284,0.122-0.569,0.189-0.851
		c0.056-0.241,0.117-0.479,0.177-0.718c0.07-0.28,0.14-0.559,0.215-0.836c0.064-0.237,0.131-0.471,0.199-0.706
		c0.079-0.275,0.159-0.55,0.242-0.822c0.071-0.231,0.145-0.459,0.22-0.688c0.088-0.27,0.177-0.539,0.269-0.806
		c0.078-0.226,0.16-0.451,0.242-0.675c0.096-0.264,0.194-0.526,0.294-0.787c0.086-0.222,0.174-0.442,0.263-0.661
		c0.104-0.257,0.21-0.513,0.319-0.766c0.093-0.216,0.188-0.43,0.284-0.643c0.113-0.251,0.228-0.501,0.346-0.749
		c0.099-0.21,0.201-0.417,0.304-0.624c0.121-0.245,0.245-0.488,0.371-0.728c0.106-0.204,0.215-0.406,0.324-0.607
		c0.129-0.237,0.26-0.471,0.394-0.703c0.114-0.198,0.229-0.395,0.346-0.59c0.137-0.229,0.277-0.456,0.418-0.681
		c0.12-0.191,0.241-0.381,0.364-0.569c0.145-0.222,0.293-0.441,0.443-0.658c0.126-0.184,0.253-0.366,0.383-0.547
		c0.153-0.214,0.309-0.424,0.466-0.633c0.133-0.177,0.267-0.353,0.403-0.527c0.16-0.204,0.323-0.405,0.487-0.604
		c0.14-0.17,0.281-0.34,0.424-0.507c0.167-0.195,0.337-0.385,0.508-0.575c0.147-0.163,0.294-0.326,0.443-0.485
		c0.174-0.185,0.351-0.366,0.529-0.545c0.154-0.156,0.307-0.311,0.464-0.463c0.181-0.175,0.365-0.345,0.549-0.515
		c0.16-0.147,0.32-0.295,0.483-0.439c0.187-0.165,0.379-0.325,0.57-0.484c0.166-0.139,0.332-0.278,0.501-0.413
		c0.194-0.155,0.393-0.304,0.591-0.453c0.172-0.13,0.344-0.261,0.519-0.387c0.2-0.143,0.404-0.281,0.607-0.418
		c0.18-0.122,0.358-0.245,0.541-0.362c0.051-0.033,0.104-0.063,0.156-0.096c17.134,0.085,33.122,16.669,37.226,38.645
		C396.971,379.252,390.82,397.328,378.507,405.14z"/>
	<path d="M1054.266,509.11V408.166l34.727-10.663l0.143-2.984c0.61-12.739,0.586-25.728-0.07-38.664l0.514-0.14v-0.063
		c39.168-11.906,50.314-37.899,47.521-58.64c-3.243-24.073-23.346-42.226-46.762-42.226c-3.836,0-7.732,0.49-11.581,1.457
		l-24.49,6.149v-49.885l1.37-0.298l-2.112-4.768c-0.051-0.115-0.105-0.228-0.156-0.344l-1.252-2.825l-0.03,0.007
		c-36.244-80.033-95.439-144.534-167.021-181.843l-0.43-0.224l-0.469-0.122c-9.936-2.573-24.456-4.903-43.159-6.925
		c-23.992-2.595-44.285-3.804-63.862-3.804c-38.383,0-69.995,4.627-117.846,11.632l-3.249,0.475
		c-6.042-1.75-12.303-3.43-18.638-4.991c-17.059-4.203-35.632-7.809-55.204-10.717c-26.086-3.877-53.124-5.761-82.656-5.761
		c-59.267,0-128.834,7.587-218.923,23.877c-2.215,0.28-4.453,0.588-6.657,0.918c-40.698,6.1-78.894,20.559-113.525,42.975
		c-33.429,21.638-62.75,50.147-87.146,84.736C8.013,247.066-15.167,372.978,9.704,499.956
		c20.214,103.203,70.691,197.811,142.133,266.395c71.03,68.188,157.39,105.742,243.173,105.743c0.003,0,0.003,0,0.005,0
		c14.536,0,29.173-1.089,43.502-3.236l0.452-0.093c3.893-1.025,7.765-2.067,11.627-3.117l-13.026,5.814l74.784-24.094
		c128.955-41.545,229.909-97.068,300.06-165.027c2.154-2.087,4.318-4.231,6.455-6.381c61.742-14.747,112.758-35.422,151.635-61.469
		c38.878-26.046,66.713-58.18,82.773-95.522 M1045.762,264.527v41.859l-26.846-4.609l-89.342,20.129
		c-0.047-0.232-0.099-0.463-0.147-0.694c-0.141-0.687-0.289-1.373-0.435-2.06c-0.227-1.071-0.456-2.142-0.693-3.211
		c-0.161-0.728-0.327-1.455-0.493-2.182c-0.235-1.029-0.473-2.056-0.717-3.082c-0.176-0.742-0.355-1.483-0.536-2.223
		c-0.249-1.018-0.503-2.035-0.761-3.051c-0.186-0.733-0.373-1.467-0.564-2.199c-0.27-1.034-0.547-2.067-0.826-3.099
		c-0.191-0.705-0.379-1.411-0.574-2.115c-0.307-1.107-0.623-2.211-0.941-3.315c-0.178-0.62-0.352-1.242-0.534-1.862
		c-0.425-1.449-0.863-2.895-1.307-4.339c-0.083-0.269-0.161-0.54-0.245-0.809c-0.53-1.709-1.074-3.413-1.63-5.113
		c-0.173-0.53-0.354-1.058-0.53-1.587c-0.39-1.176-0.782-2.352-1.185-3.523c-0.224-0.651-0.454-1.299-0.681-1.948
		c-0.367-1.048-0.735-2.095-1.112-3.139c-0.249-0.69-0.503-1.378-0.756-2.066c-0.37-1.006-0.743-2.01-1.122-3.012
		c-0.264-0.697-0.53-1.394-0.798-2.09c-0.383-0.994-0.771-1.987-1.163-2.977c-0.273-0.69-0.547-1.38-0.824-2.068
		c-0.405-1.006-0.817-2.009-1.232-3.011c-0.274-0.663-0.547-1.326-0.825-1.987c-0.445-1.058-0.9-2.113-1.355-3.168
		c-0.258-0.597-0.513-1.196-0.774-1.791c-0.543-1.236-1.096-2.468-1.653-3.698c-0.185-0.408-0.364-0.819-0.551-1.226
		c-0.024-0.052-0.046-0.104-0.07-0.155l88.54-19.276l52.681-11.469V264.527z M777.144,19.865c19.265,0,39.267,1.193,62.948,3.754
		c17.998,1.945,31.946,4.16,41.474,6.583c69.22,36.21,126.586,98.537,162.038,175.922l-57.52,12.523l-85.273,18.565
		c-0.283-0.581-0.581-1.159-0.868-1.74c-0.443-0.896-0.889-1.792-1.341-2.687c-0.566-1.122-1.142-2.242-1.721-3.361
		c-0.465-0.897-0.93-1.794-1.404-2.69c-0.589-1.114-1.188-2.224-1.789-3.335c-0.484-0.894-0.967-1.788-1.459-2.679
		c-0.614-1.112-1.241-2.22-1.867-3.329c-0.498-0.881-0.993-1.763-1.5-2.641c-0.647-1.122-1.307-2.24-1.967-3.357
		c-0.505-0.857-1.006-1.715-1.519-2.569c-0.695-1.157-1.405-2.308-2.114-3.459c-0.495-0.805-0.983-1.613-1.485-2.415
		c-0.795-1.271-1.607-2.533-2.417-3.796c-0.432-0.674-0.856-1.352-1.293-2.023c-1.255-1.93-2.528-3.852-3.82-5.762
		c-1.698-2.511-3.399-4.986-5.103-7.435c-0.139-0.2-0.279-0.403-0.418-0.603c-1.627-2.334-3.258-4.635-4.892-6.913
		c-0.212-0.295-0.423-0.593-0.635-0.887c-1.593-2.214-3.19-4.399-4.79-6.56c-0.248-0.335-0.496-0.67-0.744-1.004
		c-1.585-2.132-3.174-4.239-4.767-6.321c-0.254-0.332-0.509-0.664-0.763-0.995c-1.601-2.083-3.206-4.143-4.816-6.176
		c-0.233-0.294-0.467-0.586-0.7-0.879c-1.643-2.065-3.289-4.109-4.941-6.122c-0.176-0.215-0.353-0.426-0.529-0.641
		c-1.716-2.084-3.436-4.146-5.163-6.175c-0.072-0.084-0.143-0.166-0.215-0.25c-1.766-2.073-3.539-4.117-5.318-6.133
		c-0.062-0.07-0.123-0.142-0.185-0.212c-1.746-1.976-3.5-3.921-5.259-5.843c-0.175-0.191-0.35-0.385-0.525-0.576
		c-1.698-1.849-3.404-3.67-5.116-5.47c-0.231-0.243-0.462-0.488-0.694-0.73c-1.684-1.762-3.375-3.499-5.073-5.215
		c-0.255-0.258-0.51-0.515-0.765-0.772c-1.695-1.703-3.397-3.384-5.106-5.041c-0.248-0.241-0.497-0.48-0.746-0.72
		c-1.73-1.669-3.468-3.317-5.214-4.939c-0.212-0.197-0.426-0.392-0.638-0.589c-1.794-1.66-3.596-3.299-5.407-4.91
		c-0.131-0.116-0.263-0.231-0.394-0.347c-3.799-3.369-7.637-6.633-11.518-9.795c-0.123-0.101-0.246-0.203-0.369-0.303
		c-1.861-1.512-3.733-2.997-5.615-4.462c-0.215-0.167-0.429-0.336-0.644-0.503c-1.833-1.421-3.677-2.818-5.53-4.195
		c-0.26-0.193-0.52-0.387-0.78-0.579c-1.835-1.356-3.681-2.691-5.537-4.005c-0.273-0.194-0.547-0.387-0.821-0.579
		c-1.863-1.311-3.736-2.603-5.62-3.873c-0.255-0.172-0.512-0.343-0.768-0.514c-1.921-1.287-3.852-2.556-5.797-3.801
		c-0.192-0.123-0.386-0.244-0.579-0.367c-2.019-1.287-4.048-2.555-6.093-3.797c-0.071-0.043-0.143-0.086-0.215-0.129
		c-2.102-1.275-4.217-2.527-6.347-3.755c-0.055-0.031-0.109-0.064-0.163-0.095c-2.081-1.199-4.179-2.373-6.288-3.529
		c-0.195-0.107-0.389-0.216-0.585-0.322c-2.032-1.108-4.08-2.194-6.139-3.263c-0.27-0.14-0.54-0.282-0.811-0.421
		c-2.024-1.044-4.062-2.067-6.112-3.074c-0.303-0.149-0.606-0.298-0.91-0.446c-2.044-0.996-4.102-1.974-6.173-2.933
		c-0.304-0.141-0.609-0.281-0.914-0.421c-2.094-0.963-4.201-1.909-6.323-2.836c-0.265-0.116-0.532-0.229-0.797-0.345
		c-2.18-0.946-4.374-1.875-6.585-2.784c-0.17-0.07-0.341-0.138-0.51-0.207c-4.642-1.898-9.352-3.716-14.136-5.455
		c-0.159-0.058-0.316-0.117-0.474-0.174c-2.292-0.83-4.604-1.639-6.93-2.433c-0.173-0.059-0.343-0.122-0.517-0.181
		C714.551,23.558,743.273,19.865,777.144,19.865z M437.028,860.482c-13.841,2.063-27.977,3.108-42.016,3.108
		c-0.001,0-0.002,0-0.002,0c-174.116-0.002-336.174-157.034-376.96-365.269c-24.427-124.712-1.756-248.242,62.2-338.916
		C128.557,90.918,197.803,46.808,275.231,35.203c2.187-0.327,4.41-0.634,6.607-0.911c11.757-1.481,23.749-2.232,35.643-2.232
		c35.551,0,71.344,6.592,106.382,19.592c2.289,0.849,4.569,1.731,6.844,2.631c0.83,0.329,1.656,0.671,2.484,1.006
		c1.415,0.573,2.829,1.152,4.24,1.745c1.052,0.443,2.101,0.894,3.149,1.348c1.133,0.49,2.264,0.987,3.394,1.49
		c1.219,0.543,2.437,1.089,3.651,1.647c0.839,0.385,1.676,0.781,2.513,1.173c115.776,54.324,207.503,174.796,240.552,317.172
		c0.374,1.62,0.746,3.24,1.105,4.866c0.263,1.187,0.526,2.374,0.781,3.563c0.643,3.004,1.271,6.012,1.863,9.034
		c0.466,2.381,0.91,4.761,1.342,7.141c0.173,0.957,0.339,1.913,0.506,2.869c0.238,1.352,0.471,2.703,0.698,4.054
		c0.217,1.296,0.43,2.592,0.636,3.887c0.135,0.842,0.265,1.684,0.395,2.526c17.202,111.447-3.422,221.13-56.484,304.561
		c-0.172,0.27-0.343,0.541-0.516,0.811c-0.916,1.432-1.84,2.856-2.775,4.272c-0.234,0.354-0.473,0.704-0.708,1.057
		c-1.461,2.195-2.948,4.368-4.454,6.523c-0.664,0.949-1.329,1.898-2.002,2.839c-0.651,0.911-1.305,1.82-1.964,2.725
		c-1.195,1.638-2.399,3.267-3.621,4.879c-0.409,0.541-0.824,1.076-1.237,1.614c-1.181,1.54-2.374,3.07-3.579,4.586
		c-0.44,0.555-0.882,1.108-1.326,1.659c-1.509,1.874-3.029,3.737-4.574,5.574c-1.869,2.221-3.759,4.41-5.671,6.565
		c-0.192,0.217-0.391,0.424-0.584,0.641c-1.723,1.931-3.457,3.845-5.214,5.723c-0.425,0.454-0.861,0.889-1.288,1.34
		c-1.536,1.622-3.075,3.241-4.636,4.822c-0.618,0.626-1.252,1.227-1.874,1.847c-1.386,1.38-2.769,2.765-4.175,4.112
		c-0.813,0.779-1.643,1.528-2.462,2.297c-1.234,1.157-2.461,2.327-3.711,3.46c-0.973,0.882-1.964,1.732-2.946,2.599
		c-1.116,0.986-2.222,1.987-3.349,2.953c-1.075,0.921-2.169,1.809-3.254,2.713c-1.055,0.879-2.1,1.775-3.165,2.637
		c-1.151,0.932-2.322,1.829-3.484,2.742c-1.018,0.8-2.026,1.617-3.053,2.401c-1.24,0.947-2.5,1.858-3.752,2.784
		c-0.969,0.716-1.927,1.45-2.904,2.153c-1.3,0.936-2.62,1.835-3.934,2.747c-0.948,0.659-1.886,1.336-2.841,1.982
		c-1.314,0.889-2.647,1.742-3.974,2.608c-0.974,0.636-1.938,1.291-2.919,1.914c-1.328,0.844-2.676,1.652-4.017,2.474
		c-0.997,0.611-1.984,1.24-2.988,1.838c-1.332,0.793-2.683,1.551-4.028,2.321c-1.032,0.592-2.055,1.202-3.094,1.781
		c-1.326,0.738-2.671,1.44-4.008,2.157c-1.076,0.576-2.142,1.17-3.225,1.732c-1.309,0.679-2.636,1.323-3.955,1.982
		c-1.13,0.564-2.252,1.146-3.39,1.695c-1.274,0.615-2.566,1.194-3.85,1.79c-1.176,0.546-2.344,1.107-3.528,1.637
		C486.394,846.791,462.011,853.9,437.028,860.482z M556.709,822.823c0.4-0.27,0.797-0.545,1.196-0.816
		c1.867-1.272,3.723-2.564,5.565-3.881c0.298-0.213,0.599-0.422,0.896-0.636c2.022-1.457,4.025-2.946,6.015-4.457
		c0.44-0.334,0.879-0.672,1.318-1.009c2-1.536,3.989-3.091,5.956-4.682c0.022-0.018,0.044-0.035,0.066-0.053
		c1.986-1.608,3.95-3.253,5.903-4.916c0.427-0.364,0.855-0.728,1.281-1.095c1.917-1.651,3.82-3.323,5.704-5.028
		c0.241-0.218,0.479-0.442,0.719-0.661c1.724-1.57,3.433-3.166,5.13-4.781c0.368-0.351,0.738-0.698,1.105-1.051
		c1.829-1.759,3.642-3.544,5.438-5.355c0.355-0.358,0.707-0.722,1.062-1.082c1.64-1.67,3.267-3.359,4.879-5.073
		c0.248-0.264,0.5-0.524,0.747-0.789c1.761-1.885,3.502-3.801,5.229-5.738c0.389-0.436,0.776-0.875,1.163-1.314
		c1.75-1.983,3.488-3.984,5.202-6.022c1.554-1.847,3.084-3.722,4.603-5.609c0.49-0.608,0.977-1.217,1.463-1.829
		c1.112-1.402,2.215-2.814,3.308-4.237c1.037-1.348,2.061-2.709,3.08-4.074c0.527-0.707,1.055-1.413,1.578-2.126
		c22.197-30.206,40.004-64.565,53.03-102.459c2.885-8.393,5.498-16.906,7.869-25.514c0.131-0.474,0.263-0.947,0.392-1.422
		c0.419-1.543,0.83-3.089,1.233-4.638c0.144-0.553,0.285-1.107,0.427-1.661c15.72-61.422,18.51-127.722,8.118-194.543
		c-0.105-0.677-0.21-1.353-0.317-2.03c-0.231-1.445-0.465-2.891-0.708-4.337c-0.215-1.282-0.438-2.564-0.662-3.845
		c-0.183-1.04-0.361-2.08-0.55-3.12c-0.438-2.416-0.889-4.832-1.362-7.245c-0.616-3.144-1.269-6.277-1.94-9.404
		c-0.221-1.031-0.449-2.06-0.676-3.089c-0.47-2.127-0.953-4.25-1.448-6.369c-0.273-1.171-0.542-2.344-0.822-3.512
		c-0.653-2.709-1.323-5.413-2.017-8.108c-0.462-1.799-0.947-3.59-1.427-5.382c-0.279-1.04-0.558-2.08-0.843-3.118
		c-0.568-2.068-1.147-4.132-1.739-6.19c-0.086-0.3-0.176-0.598-0.263-0.898c-7.123-24.598-15.979-48.496-26.518-71.566
		c-0.019-0.041-0.037-0.081-0.056-0.122c-2.871-6.281-5.867-12.501-8.987-18.656c-0.493-0.973-0.984-1.947-1.483-2.917
		c-0.787-1.528-1.58-3.052-2.382-4.572c-0.792-1.503-1.597-2.998-2.403-4.492c-0.617-1.141-1.224-2.286-1.849-3.422
		c-1.394-2.534-2.813-5.051-4.248-7.557c-0.209-0.364-0.407-0.734-0.617-1.097c-0.386-0.671-0.787-1.327-1.176-1.995
		c-0.958-1.645-1.924-3.285-2.899-4.918c-0.639-1.069-1.277-2.139-1.922-3.202c-1.042-1.714-2.098-3.418-3.159-5.118
		c-1.19-1.908-2.394-3.802-3.606-5.688c-0.752-1.168-1.5-2.339-2.261-3.501c-1.038-1.586-2.089-3.16-3.143-4.73
		c-0.461-0.686-0.923-1.371-1.388-2.054c-14.735-21.719-30.962-41.887-48.579-60.374c-0.984-1.035-1.971-2.065-2.962-3.088
		c-0.824-0.849-1.649-1.697-2.479-2.539c-27.53-27.968-57.816-51.42-89.965-69.689c-0.504-0.287-1.01-0.567-1.514-0.851
		c-1.729-0.972-3.462-1.929-5.201-2.871c-0.675-0.366-1.35-0.731-2.027-1.092c-1.675-0.894-3.355-1.771-5.039-2.636
		c-0.623-0.32-1.245-0.647-1.869-0.964c-2.248-1.139-4.502-2.257-6.765-3.346c-0.38-0.183-0.763-0.357-1.144-0.538
		c-1.889-0.901-3.783-1.786-5.683-2.651c-0.797-0.363-1.597-0.716-2.396-1.073c-1.523-0.68-3.048-1.351-4.577-2.009
		c-0.845-0.363-1.69-0.724-2.536-1.08c-1.584-0.667-3.172-1.318-4.763-1.96c-0.739-0.298-1.477-0.602-2.217-0.895
		c-2.318-0.917-4.641-1.815-6.972-2.68c-2.05-0.761-4.104-1.494-6.16-2.212c-0.63-0.22-1.26-0.432-1.89-0.648
		c-1.46-0.5-2.921-0.991-4.384-1.47c-0.694-0.227-1.389-0.453-2.084-0.676c-1.516-0.485-3.033-0.957-4.551-1.419
		c-0.566-0.172-1.132-0.35-1.698-0.519c-2.068-0.617-4.138-1.216-6.209-1.79c-0.313-0.087-0.626-0.167-0.939-0.252
		c-1.762-0.483-3.526-0.951-5.291-1.402c-0.665-0.17-1.329-0.334-1.994-0.499c-1.457-0.363-2.916-0.716-4.375-1.058
		c-0.686-0.161-1.373-0.322-2.06-0.478c-1.617-0.367-3.234-0.72-4.852-1.061c-0.473-0.1-0.945-0.206-1.418-0.303
		c-2.078-0.428-4.158-0.835-6.239-1.22c-0.488-0.09-0.976-0.172-1.465-0.26c-1.605-0.289-3.21-0.568-4.816-0.831
		c-0.696-0.114-1.391-0.223-2.087-0.332c-1.457-0.229-2.915-0.446-4.373-0.654c-0.673-0.096-1.347-0.194-2.02-0.285
		c-1.779-0.241-3.558-0.466-5.338-0.676c-0.31-0.036-0.62-0.079-0.929-0.114c-2.083-0.239-4.165-0.452-6.248-0.647
		c-0.59-0.055-1.18-0.102-1.769-0.154c-1.003-0.088-2.005-0.183-3.008-0.261c62.216-9.472,113.644-13.955,158.926-13.955
		c29.11,0,55.738,1.854,81.406,5.668c19.31,2.87,37.619,6.423,54.419,10.563c6.532,1.609,12.989,3.344,19.19,5.155
		c59.601,17.404,107.864,45.288,151.419,88.773c3.039,3.034,6.054,6.144,9.05,9.331c3.993,4.25,7.95,8.638,11.876,13.168
		c13.739,15.856,27.093,33.454,40.291,52.971c10.426,15.417,19.643,31.49,27.396,47.775c3.174,6.666,6.131,13.429,8.869,20.277
		c8.214,20.545,14.449,41.854,18.598,63.599c2.138,11.197,3.764,22.733,4.833,34.289c1.014,10.953,1.545,22.133,1.598,33.481
		c0.001,0.175,0.004,0.348,0.005,0.523c0.003,0.975-0.004,1.953-0.008,2.93c-0.003,0.677,0,1.353-0.006,2.031
		c-0.005,0.57-0.018,1.142-0.026,1.713c-0.014,1.088-0.026,2.176-0.049,3.267c-0.006,0.266-0.015,0.534-0.022,0.8
		c-0.032,1.397-0.067,2.796-0.114,4.197c-0.002,0.054-0.005,0.108-0.006,0.161c-0.221,6.616-0.601,13.278-1.141,19.976
		c-0.003,0.031-0.006,0.062-0.008,0.093c-0.134,1.656-0.277,3.313-0.43,4.973c-0.017,0.18-0.036,0.361-0.053,0.541
		c-0.14,1.493-0.285,2.986-0.44,4.482c-0.33,2.53-0.685,5.052-1.06,7.566c-0.017,0.112-0.03,0.224-0.047,0.336
		c-3.555,23.714-9.1,46.712-16.577,68.798c-0.012,0.035-0.023,0.071-0.035,0.107c-0.735,2.171-1.497,4.329-2.27,6.481
		c-0.102,0.285-0.198,0.574-0.301,0.859c-0.681,1.884-1.389,3.755-2.099,5.625c-0.208,0.547-0.404,1.1-0.614,1.646
		c-0.571,1.484-1.168,2.954-1.757,4.429c-0.369,0.922-0.724,1.852-1.099,2.771c-0.433,1.059-0.888,2.106-1.33,3.16
		c-0.555,1.322-1.099,2.65-1.668,3.964c-0.251,0.579-0.516,1.15-0.769,1.727c-1.815,4.134-3.689,8.237-5.649,12.293
		c-18.796,38.9-44.784,75.276-77.242,108.116l-0.087,0.088c-2.341,2.367-4.729,4.731-7.1,7.027
		c-60.628,58.733-144.774,108.115-250.558,147.115C556.197,823.175,556.452,822.996,556.709,822.823z M829.919,664.451
		c0.349-0.377,0.688-0.76,1.036-1.138c0.761-0.827,1.514-1.659,2.267-2.49c1.106-1.221,2.206-2.446,3.296-3.675
		c0.75-0.847,1.496-1.695,2.239-2.546c1.082-1.241,2.154-2.487,3.22-3.737c0.715-0.839,1.432-1.678,2.139-2.52
		c1.099-1.309,2.183-2.625,3.264-3.944c0.646-0.788,1.297-1.573,1.936-2.364c1.221-1.512,2.423-3.034,3.62-4.558
		c0.474-0.604,0.959-1.204,1.429-1.81c1.653-2.128,3.283-4.266,4.888-6.417c0.332-0.444,0.652-0.894,0.982-1.339
		c1.27-1.715,2.53-3.435,3.769-5.164c0.555-0.775,1.097-1.556,1.647-2.334c0.996-1.411,1.989-2.823,2.965-4.243
		c0.598-0.87,1.186-1.744,1.776-2.617c0.91-1.346,1.814-2.695,2.706-4.05c0.596-0.904,1.185-1.811,1.773-2.719
		c0.87-1.344,1.729-2.692,2.581-4.043c0.572-0.908,1.143-1.816,1.707-2.727c0.864-1.395,1.713-2.796,2.557-4.199
		c0.521-0.865,1.045-1.729,1.559-2.597c0.917-1.55,1.814-3.107,2.707-4.666c0.416-0.725,0.84-1.447,1.251-2.175
		c2.592-4.591,5.083-9.221,7.471-13.889c0.355-0.694,0.696-1.392,1.047-2.087c0.662-1.313,1.332-2.623,1.977-3.942l11.66-3.096
		c2.14-0.554,4.254-1.104,6.351-1.65c0.689-0.18,1.366-0.357,2.05-0.536c1.392-0.364,2.781-0.727,4.154-1.088
		c0.819-0.215,1.629-0.429,2.441-0.643c1.228-0.324,2.45-0.646,3.662-0.967c0.848-0.224,1.691-0.448,2.531-0.671
		c1.175-0.312,2.341-0.623,3.5-0.932c0.812-0.217,1.623-0.433,2.428-0.649c1.195-0.32,2.378-0.638,3.557-0.956
		c0.76-0.205,1.524-0.41,2.277-0.613c1.383-0.374,2.748-0.744,4.108-1.114c0.502-0.136,1.013-0.275,1.513-0.411
		c1.828-0.498,3.634-0.993,5.421-1.484c0.63-0.173,1.245-0.344,1.87-0.516c1.181-0.326,2.36-0.651,3.522-0.974
		c0.729-0.202,1.447-0.403,2.168-0.604c1.034-0.288,2.064-0.576,3.083-0.861c0.756-0.212,1.505-0.423,2.253-0.633
		c0.978-0.275,1.948-0.549,2.912-0.822c0.734-0.208,1.467-0.416,2.193-0.622c0.97-0.276,1.928-0.55,2.883-0.823
		c0.692-0.198,1.386-0.397,2.07-0.593c1.024-0.295,2.032-0.586,3.039-0.878c0.591-0.171,1.19-0.344,1.775-0.514
		c1.542-0.449,3.065-0.894,4.565-1.335c0.413-0.121,0.812-0.241,1.222-0.362c1.112-0.328,2.221-0.656,3.31-0.981
		c0.602-0.179,1.19-0.356,1.785-0.534c0.881-0.264,1.759-0.527,2.625-0.788c0.627-0.189,1.245-0.377,1.863-0.564
		c0.82-0.249,1.634-0.497,2.44-0.743c0.614-0.188,1.225-0.375,1.831-0.562c0.794-0.244,1.578-0.487,2.358-0.729
		c0.585-0.182,1.172-0.364,1.749-0.544c0.823-0.257,1.632-0.512,2.438-0.766c0.503-0.159,1.013-0.318,1.509-0.476
		c1.02-0.323,2.02-0.644,3.013-0.963c0.322-0.104,0.65-0.208,0.97-0.311c1.173-0.378,2.326-0.753,3.46-1.125
		c0.444-0.145,0.873-0.289,1.311-0.433c0.757-0.25,1.511-0.499,2.25-0.745c0.482-0.161,0.953-0.32,1.427-0.479
		c0.676-0.227,1.347-0.454,2.007-0.679c0.479-0.163,0.953-0.325,1.424-0.487c0.643-0.221,1.277-0.44,1.905-0.658
		c0.45-0.156,0.9-0.313,1.342-0.468c0.646-0.227,1.28-0.451,1.91-0.675c0.401-0.143,0.808-0.286,1.203-0.428
		c0.718-0.257,1.418-0.512,2.114-0.765c0.282-0.103,0.573-0.207,0.851-0.309c0.953-0.35,1.885-0.696,2.795-1.038
		c0.269-0.101,0.525-0.2,0.79-0.301c0.646-0.245,1.287-0.489,1.91-0.73c0.334-0.129,0.657-0.257,0.985-0.385
		c0.365-0.143,0.74-0.287,1.097-0.428C1009.61,589.132,938.494,636.311,829.919,664.451z M1045.762,513.07
		c-0.308,0.137-0.627,0.276-0.944,0.414c-0.349,0.152-0.69,0.304-1.051,0.458c-0.391,0.167-0.801,0.338-1.205,0.508
		c-0.374,0.157-0.74,0.313-1.125,0.472c-0.402,0.166-0.824,0.335-1.238,0.503c-0.413,0.168-0.817,0.334-1.243,0.504
		c-0.413,0.165-0.847,0.333-1.271,0.5c-0.448,0.176-0.886,0.351-1.348,0.529c-0.427,0.165-0.878,0.335-1.316,0.502
		c-1.104,0.421-2.24,0.848-3.415,1.281c-0.297,0.11-0.583,0.218-0.885,0.328c-0.611,0.224-1.247,0.452-1.876,0.678
		c-0.396,0.143-0.78,0.283-1.183,0.427c-0.627,0.224-1.278,0.452-1.922,0.679c-0.425,0.15-0.841,0.298-1.273,0.449
		c-0.649,0.226-1.32,0.457-1.986,0.686c-0.456,0.157-0.903,0.313-1.367,0.471c-0.662,0.226-1.345,0.456-2.023,0.685
		c-0.492,0.166-0.977,0.331-1.477,0.498c-0.684,0.229-1.386,0.461-2.086,0.692c-0.516,0.171-1.026,0.341-1.551,0.513
		c-0.716,0.235-1.449,0.473-2.181,0.711c-0.532,0.173-1.06,0.345-1.601,0.52c-0.739,0.238-1.495,0.48-2.25,0.721
		c-0.561,0.179-1.12,0.358-1.69,0.539c-0.77,0.244-1.555,0.491-2.341,0.738c-0.568,0.178-1.134,0.356-1.71,0.536
		c-0.813,0.254-1.639,0.51-2.469,0.766c-0.579,0.179-1.157,0.358-1.745,0.538c-0.841,0.258-1.694,0.519-2.552,0.781
		c-0.601,0.183-1.203,0.367-1.813,0.551c-0.872,0.264-1.754,0.53-2.643,0.797c-0.613,0.184-1.228,0.369-1.849,0.554
		c-0.901,0.269-1.811,0.54-2.729,0.812c-0.641,0.19-1.286,0.381-1.935,0.572c-0.93,0.274-1.867,0.55-2.814,0.827
		c-0.647,0.189-1.299,0.38-1.954,0.571c-0.966,0.281-1.939,0.564-2.922,0.848c-0.667,0.193-1.34,0.387-2.016,0.582
		c-0.994,0.286-1.994,0.573-3.005,0.863c-0.685,0.196-1.378,0.393-2.071,0.591c-1.025,0.292-2.054,0.584-3.096,0.879
		c-0.698,0.198-1.405,0.396-2.111,0.595c-1.059,0.298-2.121,0.597-3.198,0.898c-0.707,0.198-1.423,0.397-2.137,0.596
		c-1.104,0.308-2.21,0.616-3.332,0.927c-0.707,0.196-1.425,0.394-2.139,0.591c-1.139,0.314-2.279,0.629-3.435,0.946
		c-0.754,0.207-1.52,0.416-2.281,0.624c-1.134,0.31-2.266,0.62-3.417,0.932c-0.809,0.22-1.631,0.442-2.448,0.663
		c-1.136,0.308-2.27,0.615-3.422,0.926c-0.827,0.223-1.669,0.448-2.504,0.672c-1.17,0.314-2.336,0.628-3.522,0.944
		c-0.846,0.226-1.707,0.455-2.561,0.682c-1.192,0.317-2.379,0.634-3.587,0.954c-0.916,0.243-1.849,0.488-2.774,0.732
		c-1.168,0.308-2.328,0.615-3.511,0.926c-1.063,0.279-2.148,0.563-3.223,0.844c-1.068,0.28-2.126,0.557-3.205,0.839
		c-2.163,0.564-4.348,1.132-6.558,1.704l-4.763,1.264c0.627-1.382,1.232-2.775,1.843-4.165c0.312-0.709,0.633-1.413,0.94-2.124
		c0.994-2.299,1.967-4.609,2.917-6.931c0.194-0.475,0.378-0.955,0.57-1.43c0.751-1.857,1.495-3.718,2.218-5.59
		c0.343-0.888,0.672-1.783,1.008-2.673c0.556-1.471,1.112-2.943,1.651-4.422c0.363-0.997,0.713-1.999,1.068-2.999
		c0.492-1.386,0.982-2.773,1.459-4.166c0.359-1.048,0.708-2.101,1.058-3.153c0.453-1.359,0.901-2.721,1.339-4.087
		c0.344-1.074,0.682-2.15,1.018-3.228c0.423-1.36,0.84-2.723,1.249-4.089c0.325-1.084,0.646-2.169,0.962-3.256
		c0.401-1.381,0.792-2.767,1.179-4.155c0.3-1.076,0.6-2.152,0.891-3.231c0.385-1.426,0.756-2.857,1.125-4.29
		c0.271-1.05,0.545-2.098,0.808-3.151c0.379-1.521,0.742-3.049,1.104-4.578c0.23-0.969,0.467-1.936,0.69-2.908
		c0.419-1.825,0.816-3.658,1.211-5.493c0.147-0.683,0.304-1.362,0.447-2.046c0.525-2.505,1.028-5.019,1.508-7.541
		c0.144-0.755,0.273-1.515,0.413-2.272c0.33-1.788,0.659-3.578,0.966-5.374c0.173-1.008,0.331-2.022,0.496-3.033
		c0.254-1.553,0.508-3.107,0.746-4.666c0.167-1.099,0.323-2.203,0.482-3.305c0.146-1.013,0.304-2.021,0.443-3.037l67.239-20.647
		l44.246-13.586V513.07z M1080.771,391.131l-26.506,8.139v0l-118.995,36.54c0.024-0.263,0.039-0.524,0.062-0.787
		c0.239-2.724,0.459-5.445,0.646-8.158c0.004-0.055,0.009-0.111,0.012-0.166c0.188-2.737,0.343-5.467,0.479-8.191
		c0.021-0.418,0.044-0.836,0.064-1.254c0.122-2.602,0.218-5.197,0.292-7.786c0.014-0.492,0.027-0.985,0.04-1.477
		c0.065-2.589,0.11-5.172,0.127-7.746c0.003-0.405,0.002-0.809,0.003-1.214c0.01-2.693,0.002-5.38-0.041-8.055
		c-0.001-0.046-0.002-0.092-0.003-0.139c-0.043-2.655-0.118-5.299-0.213-7.935c-0.014-0.381-0.025-0.763-0.039-1.144
		c-0.099-2.54-0.225-5.069-0.372-7.589c-0.028-0.473-0.056-0.945-0.085-1.417c-0.156-2.51-0.333-5.011-0.537-7.5
		c-0.012-0.15-0.02-0.302-0.032-0.452l5.922-1.697l139.477-39.971v26.076l-0.895,0.241l0.206,3.456
		C1081.145,365.672,1081.273,378.516,1080.771,391.131z"/>
	<path d="M616.172,730.582c62.591-88.676,84.942-209.863,61.324-332.489c-19.015-98.721-66.483-189.208-133.662-254.791
		C477.113,78.166,396.019,42.293,315.488,42.293c-13.639,0-27.371,1.039-40.813,3.087c-37.727,5.75-73.175,19.296-105.36,40.26
		c-31.084,20.247-58.437,46.936-81.298,79.325C25.427,253.64,3.076,374.828,26.694,497.454
		c39.068,202.839,194.697,355.8,362.007,355.8c13.639,0,27.371-1.039,40.813-3.088c37.727-5.75,73.175-19.295,105.36-40.26
		C565.958,789.659,593.311,762.971,616.172,730.582z M428.873,845.963c-13.231,2.017-26.747,3.039-40.172,3.039
		c-165.308,0-319.143-151.479-357.832-352.353C7.468,375.154,29.564,255.153,91.492,167.417
		C137.964,101.576,201.53,60.83,275.316,49.584c13.231-2.017,26.747-3.039,40.172-3.039c165.308,0,319.143,151.479,357.832,352.352
		c23.401,121.497,1.305,241.498-60.622,329.233C566.225,793.971,502.66,834.717,428.873,845.963z"/>
</g>
</svg>
