<?xml version="1.0" encoding="UTF-8" standalone="no"?>
<!-- Created with Inkscape (http://www.inkscape.org/) -->

<svg
   xmlns:dc="http://purl.org/dc/elements/1.1/"
   xmlns:cc="http://creativecommons.org/ns#"
   xmlns:rdf="http://www.w3.org/1999/02/22-rdf-syntax-ns#"
   xmlns:svg="http://www.w3.org/2000/svg"
   xmlns="http://www.w3.org/2000/svg"
   xmlns:sodipodi="http://sodipodi.sourceforge.net/DTD/sodipodi-0.dtd"
   xmlns:inkscape="http://www.inkscape.org/namespaces/inkscape"
   width="500"
   height="500"
   viewBox="0 0 132.29166 132.29167"
   version="1.1"
   id="svg8"
   inkscape:version="0.92.4 5da689c313, 2019-01-14"
   sodipodi:docname="icon.svg">
  <defs
     id="defs2" />
  <sodipodi:namedview
     id="base"
     pagecolor="#ffffff"
     bordercolor="#666666"
     borderopacity="1.0"
     inkscape:pageopacity="0.0"
     inkscape:pageshadow="2"
     inkscape:zoom="0.42657054"
     inkscape:cx="603.40158"
     inkscape:cy="369.71489"
     inkscape:document-units="mm"
     inkscape:current-layer="layer1"
     showgrid="false"
     units="px"
     inkscape:window-width="1920"
     inkscape:window-height="1003"
     inkscape:window-x="0"
     inkscape:window-y="0"
     inkscape:window-maximized="1" />
  <metadata
     id="metadata5">
    <rdf:RDF>
      <cc:Work
         rdf:about="">
        <dc:format>image/svg+xml</dc:format>
        <dc:type
           rdf:resource="http://purl.org/dc/dcmitype/StillImage" />
        <dc:title></dc:title>
      </cc:Work>
    </rdf:RDF>
  </metadata>
  <g
     inkscape:label="Layer 1"
     inkscape:groupmode="layer"
     id="layer1"
     transform="translate(0,-164.70832)">
    <path
       style="fill:#000000;stroke:#000000;stroke-width:0.5745911"
       d="m 19.222018,296.13677 c -1.977547,-0.76456 -5.231568,-1.97011 -7.231159,-2.67897 -5.3630927,-1.90126 -8.453434,-3.45636 -8.8748224,-4.46595 -0.2054451,-0.49222 -0.3735427,-11.78332 -0.3735427,-25.09134 0,-21.1406 0.1135225,-24.19639 0.8988891,-24.19639 1.3064317,0 1.3064317,-7.45151 0,-7.91243 -0.7807437,-0.27544 -0.8988891,-3.6051 -0.8988891,-25.33481 0,-20.00987 0.1578498,-25.13814 0.7885434,-25.61938 0.4336971,-0.33091 2.3060563,-0.76564 4.1608008,-0.96605 2.0920601,-0.22606 3.4980889,-0.66585 3.7037159,-1.1585 0.256502,-0.61454 1.043417,-0.71813 3.4797,-0.45806 3.52463,0.37624 11.62061,-0.53961 24.122176,-2.72881 5.099383,-0.89297 10.934613,-1.52143 14.879083,-1.60249 4.580653,-0.0941 6.632507,-0.34611 6.975682,-0.85661 0.567146,-0.84368 10.411043,-2.47892 19.747163,-3.28034 6.611499,-0.56755 13.584573,-1.91878 16.104455,-3.12071 1.456072,-0.69451 3.717277,-0.46453 3.717277,0.37809 0,0.75141 2.26502,0.57528 2.54535,-0.19793 0.16699,-0.46056 1.60526,-0.67745 4.39455,-0.66273 4.08379,0.0215 4.28189,0.0926 13.13515,4.71199 l 8.98882,4.69009 v 52.97562 c 0,47.51269 -0.0975,53.06525 -0.94537,53.84462 -0.62485,0.57438 -4.18028,1.31966 -10.48696,2.19827 -26.859727,3.74192 -25.355445,3.44495 -28.002525,5.52809 -4.517833,3.55532 -7.177517,4.39266 -13.89885,4.37576 -4.748305,-0.0119 -6.552528,-0.25028 -8.689531,-1.14786 l -2.696974,-1.13277 -8.988504,1.23189 c -4.943674,0.67754 -13.456647,1.87586 -18.91772,2.66293 -12.167056,1.75358 -13.137019,1.75439 -17.636508,0.0147 z m 21.872812,-1.34272 c 5.767823,-0.85094 12.844013,-1.84317 15.724844,-2.20496 l 5.237876,-0.65781 -2.068889,-2.22216 c -1.13789,-1.2222 -2.439608,-3.24229 -2.89273,-4.4891 l -0.82383,-2.26694 -8.337702,0.27547 c -4.585742,0.15151 -11.873855,0.24998 -16.19582,0.2188 l -7.858106,-0.0566 -0.378063,4.4642 c -0.207927,2.45532 -0.379669,5.54222 -0.38165,6.8598 l -0.0034,2.3956 3.745345,-0.38454 c 2.059939,-0.21151 8.464478,-1.08077 14.232312,-1.9317 z m -22.172446,0.0499 c -1.153569,-0.55416 -2.771556,-1.16591 -3.595534,-1.35943 -0.823966,-0.19353 -0.149811,0.25019 1.498145,0.98605 3.486452,1.5568 5.193446,1.86069 2.097389,0.37338 z m 4.127712,-23.32294 c 0.04315,-8.76435 -0.14701,-13.63582 -0.532178,-13.63582 -0.389723,0 -0.565359,6.59781 -0.502323,18.86977 0.0665,12.94888 0.233501,17.22748 0.532178,13.63582 0.239388,-2.87868 0.465431,-11.37007 0.502323,-18.86977 z m -2.329945,21.34901 c 0,-1.26209 -0.282634,-1.9283 -0.818068,-1.9283 -1.367213,0 -3.947739,-2.1813 -3.591162,-3.03559 0.2863,-0.68594 0.601841,-0.68698 2.369752,-0.008 3.029299,1.16368 2.751505,-0.38609 -0.396725,-2.21325 -1.339919,-0.77765 -2.317454,-1.71048 -2.1723,-2.07294 0.277122,-0.69203 0.355928,-0.69443 2.971729,-0.0909 l 1.636774,0.37766 v -46.27926 -46.27927 l -7.529916,-3.42101 c -4.1414551,-1.88157 -7.6278842,-3.33094 -7.7476351,-3.22084 -0.1197509,0.11013 -0.034728,23.70179 0.1890373,52.42601 l 0.4067683,52.22585 7.1910555,2.67838 c 3.955083,1.47311 7.258475,2.69889 7.340879,2.72395 0.08244,0.0251 0.149811,-0.82215 0.149811,-1.88271 z m 55.730726,0.86073 c -5.977503,-0.64316 -10.177758,-3.55277 -12.768805,-8.84525 -1.748008,-3.5705 -1.691497,-10.24541 0.121106,-14.3053 2.701461,-6.05074 7.782546,-10.70397 13.368243,-12.24256 2.383666,-0.6566 3.061135,-1.55433 1.172937,-1.55433 -2.204694,0 -8.475785,3.40212 -10.858585,5.89088 -8.171484,8.53485 -8.667726,20.74174 -1.125103,27.67624 2.790639,2.56566 6.256777,3.82418 10.389841,3.77245 l 2.996278,-0.0375 z M 12.330584,292.3657 c -0.823978,-0.40463 -2.1723,-0.88835 -2.9962784,-1.07496 -0.8356375,-0.18924 -0.4381264,0.13946 0.8988774,0.7433 2.670001,1.20586 4.451155,1.48752 2.097401,0.33166 z m 53.487147,-1.5617 c -4.022126,-3.77751 -5.256743,-6.8873 -5.194812,-13.08486 0.05875,-5.8828 0.84363,-8.34156 4.104301,-12.85792 2.580184,-3.57381 6.102993,-6.23919 10.337657,-7.82153 2.834671,-1.05922 3.099018,-1.288 2.242919,-1.94121 -0.818933,-0.62486 -1.452804,-0.58411 -4.05978,0.26095 -11.009627,3.56882 -18.019616,15.71651 -15.133354,26.22476 1.155448,4.20673 3.300831,7.25593 6.862387,9.75342 3.516034,2.46555 3.825141,2.26936 0.840682,-0.53361 z m 19.256192,0.66724 c 4.214408,-1.94542 8.999014,-7.02319 10.520375,-11.165 3.18059,-8.65891 0.270211,-17.59539 -6.747532,-20.71874 -2.939289,-1.30816 -8.545516,-1.55073 -11.857027,-0.51302 -10.562835,3.31002 -16.897621,16.33761 -12.507042,25.72095 1.499238,3.20409 5.638621,6.94446 8.614449,7.78406 3.17386,0.89547 8.754797,0.37905 11.976777,-1.10825 z m -64.054139,-1.63138 c -0.203703,-0.30302 -0.961195,-0.54715 -1.683322,-0.54251 -1.067419,0.007 -1.144858,0.10828 -0.414078,0.54251 1.1806,0.70145 2.568935,0.70145 2.0974,0 z M 4.5402607,264.49652 c 0,-15.42638 -0.2090432,-23.69051 -0.5992556,-23.69051 -0.3776532,0 -0.5987774,3.71806 -0.5979576,10.05469 0.00114,11.50599 0.6887643,37.32633 0.9935444,37.32633 0.1120423,0 0.2036688,-10.66073 0.2036688,-23.69051 z m 98.8771093,21.46335 c 4.11988,-0.61878 11.12893,-1.61723 15.57568,-2.21879 4.44676,-0.60156 8.40536,-1.39683 8.7969,-1.76728 0.41017,-0.38807 0.89078,-3.41 1.13394,-7.12983 l 0.42205,-6.45628 -1.85856,0.49005 c -1.02219,0.26952 -2.07949,0.61559 -2.34953,0.76903 -0.8604,0.48889 -15.22087,4.31384 -20.99058,5.59091 -3.05924,0.67713 -5.624557,1.32652 -5.700709,1.44308 -0.07618,0.11657 -0.630363,1.57553 -1.231589,3.24213 -0.601214,1.66661 -1.747609,3.9599 -2.547539,5.09622 l -1.45441,2.06604 1.356828,-1.1e-4 c 0.746254,-6e-5 4.727628,-0.50638 8.847519,-1.12517 z m -82.097963,-0.52755 c 0,-0.30302 -0.555248,-0.55094 -1.233878,-0.55094 -0.67863,0 -1.067214,0.24792 -0.863511,0.55094 0.203691,0.30302 0.758938,0.55094 1.233877,0.55094 0.474927,0 0.863512,-0.24792 0.863512,-0.55094 z m 29.026737,-3.7772 5.356158,-0.35486 -0.148866,-3.30566 c -0.41229,-9.15467 5.595524,-19.01106 14.052999,-23.05531 3.488923,-1.66835 3.350145,-1.6935 -3.642514,-0.66027 -6.641502,0.98135 -22.984286,2.3509 -34.007736,2.8499 l -8.239756,0.37298 v 12.31238 12.31238 l 10.636779,-0.0584 c 5.850226,-0.0321 13.047054,-0.21804 15.992936,-0.41322 z m 59.063766,-9.00069 c 3.4607,-0.88327 9.32591,-2.49664 13.0338,-3.58527 l 6.74163,-1.97933 V 255.0498 c 0,-13.85102 0.66492,-12.75445 -6.60386,-10.89075 -6.84937,1.75615 -20.88485,4.63458 -30.549968,6.26527 -11.640309,1.96392 -11.660964,1.97084 -8.263884,2.76386 1.543747,0.36037 3.915298,1.32963 5.2701,2.15391 4.697431,2.85798 8.903481,10.06705 9.445668,16.18959 l 0.305873,3.45404 2.164241,-0.36267 c 1.19032,-0.19948 4.99571,-1.08536 8.4564,-1.96862 z M 94.534018,262.43049 c -1.61949,-2.08888 -2.98808,-3.14056 -5.868102,-4.50931 -2.89174,-1.37432 -8.619505,-2.18143 -8.619505,-1.21459 0,0.34523 0.66089,0.62768 1.468643,0.62768 4.321827,0 7.785643,1.25667 10.790905,3.91493 1.661801,1.46993 3.107238,2.67796 3.212073,2.68449 0.104869,0.007 -0.33796,-0.66991 -0.984014,-1.5032 z m -55.83621,-7.01374 c 11.339878,-0.69124 39.849957,-3.67818 42.041034,-4.40456 0.443136,-0.14691 5.428575,-1.01212 11.078753,-1.92267 8.093145,-1.30425 30.266935,-5.89846 36.319045,-7.52498 0.98344,-0.26431 1.0487,-2.30345 1.0487,-32.76759 0,-28.63532 -0.10852,-32.52405 -0.91585,-32.80886 -1.10796,-0.3909 -1.79062,-0.30184 -44.927179,5.86014 -22.883892,3.26893 -34.811788,4.96176 -44.944137,6.37857 -5.603026,0.78347 -11.131154,1.60106 -12.284723,1.81686 l -2.0974,0.39237 -0.154525,32.89818 c -0.145985,31.07915 -0.09633,32.89734 0.898889,32.88303 0.579375,-0.008 6.851194,-0.36855 13.937393,-0.80049 z m 31.396455,-5.65815 c -0.997176,-0.91677 -1.184984,-10.6266 -0.237042,-12.25505 0.575139,-0.98803 3.126357,-1.65356 9.290312,-2.42355 3.774403,-0.47148 4.165777,0.0369 4.404915,5.72259 0.343881,8.17616 0.08528,8.47129 -8.132269,9.28075 -3.532783,0.348 -4.669568,0.27869 -5.325916,-0.32474 z m 10.06731,-1.30557 c 2.054246,-0.4736 2.242008,-0.69067 2.624239,-3.03403 0.394653,-2.4196 0.0312,-8.30981 -0.545535,-8.84001 -0.152202,-0.13994 -2.393493,0.0134 -4.980645,0.34087 -3.12556,0.39554 -4.955243,0.90543 -5.452977,1.51961 -0.775768,0.95727 -1.061191,8.69087 -0.380898,10.32075 0.298711,0.71567 0.948795,0.81802 3.445711,0.5425 1.692659,-0.18679 4.073205,-0.56916 5.290105,-0.84969 z m -6.856785,-1.3526 c -0.247187,-0.22973 -0.449433,-1.83358 -0.449433,-3.56408 0,-3.84356 0.684893,-4.47939 4.935886,-4.5823 l 3.154059,-0.0763 0.175932,3.356 c 0.119307,2.27553 -0.07845,3.5501 -0.614229,3.95891 -0.996744,0.76052 -6.60067,1.4669 -7.202215,0.90782 z m 6.027103,-1.25879 c 0.528739,-0.3083 0.723652,-1.42553 0.599255,-3.43496 l -0.184357,-2.97802 -2.397022,0.19119 c -1.318365,0.10515 -2.599268,0.30573 -2.846467,0.44572 -0.247188,0.13998 -0.449434,1.60347 -0.449434,3.25219 v 2.99767 l 2.2472,-0.008 c 1.235962,-0.005 2.599838,-0.21405 3.030825,-0.46535 z m -9.034038,-4.62243 c -0.126162,-1.28782 -0.229391,-0.23414 -0.229391,2.34151 0,2.57565 0.103275,3.62933 0.229391,2.34151 0.126161,-1.28784 0.126161,-3.39519 0,-4.68302 z M 37.499297,217.70357 c 0,-18.90086 0.07458,-20.3684 1.0487,-20.63819 0.576779,-0.15974 5.632996,-0.91029 11.236034,-1.66787 5.603027,-0.75759 16.25479,-2.26443 23.67058,-3.34852 7.415778,-1.08409 16.314716,-2.34094 19.775412,-2.79297 3.460707,-0.45204 9.612127,-1.33656 13.669847,-1.96559 4.05771,-0.62903 7.46038,-1.05562 7.56146,-0.94797 0.10111,0.1077 0.32805,9.32396 0.50436,20.48067 0.23809,15.06683 0.14281,20.33074 -0.37041,20.46305 -0.38003,0.098 -6.35391,0.97279 -13.27531,1.94406 -6.921393,0.97125 -16.629325,2.34862 -21.573181,3.0608 -25.956949,3.7392 -40.557418,5.76025 -41.613212,5.76025 -0.434756,0 -0.63428,-6.4008 -0.63428,-20.34772 z m 20.075046,17.01404 c 6.26222,-0.88775 16.913983,-2.39329 23.670579,-3.34564 6.756608,-0.95235 16.86903,-2.40045 22.472068,-3.21801 l 10.18733,-1.48645 0.15734,-19.96624 c 0.1485,-18.84491 0.098,-19.95083 -0.89888,-19.69184 -1.07611,0.27957 -7.06553,1.15571 -28.92158,4.2307 -37.591393,5.28885 -45.616823,6.47626 -45.970736,6.80163 -0.150073,0.13797 -0.07709,9.02735 0.162154,19.75417 l 0.43503,19.5033 3.660425,-0.48376 c 2.013232,-0.26607 8.78406,-1.21011 15.04627,-2.09786 z m 27.565735,20.71817 c -2.858366,-1.12367 -7.05303,-1.57923 -6.750208,-0.73311 0.213108,0.59545 2.109709,0.92762 7.948719,1.39216 0.329592,0.0262 -0.209737,-0.27036 -1.198511,-0.65905 z M 22.734897,223.86453 c -0.210888,-17.19628 -0.480814,-31.36926 -0.599836,-31.49553 -0.119022,-0.12625 -0.216399,13.94343 -0.216399,31.26597 0,20.6499 0.206561,31.49553 0.599836,31.49553 0.397728,0 0.470635,-10.53448 0.216399,-31.26597 z M 4.2003535,207.33627 C 3.9702568,194.38224 3.6829434,183.68019 3.5618831,183.55394 c -0.1210718,-0.12626 -0.2201336,10.47249 -0.2201336,23.55277 0,16.4616 0.1965409,23.78233 0.6384818,23.78233 0.4483629,0 0.5139144,-7.01295 0.2201222,-23.55277 z M 23.3531,190.34876 c 0.223948,-0.53657 0.09007,-0.78844 -0.347878,-0.65425 -0.895792,0.27453 -1.389017,1.5267 -0.601351,1.5267 0.321792,0 0.748942,-0.3926 0.949229,-0.87245 z m -2.191691,-1.17022 c 0.142603,-0.39377 -2.744605,-2.04127 -7.07405,-4.03659 -6.501574,-2.99637 -7.4149238,-3.27937 -8.2136922,-2.54501 -0.7987684,0.73438 -0.1065768,1.19616 6.2248162,4.15276 7.066659,3.29995 8.598758,3.71055 9.062926,2.42884 z m 5.356886,-1.22908 c 1.63099,-0.28438 7.533013,-1.14842 13.11559,-1.92011 5.582577,-0.77168 21.476065,-3.02268 35.318859,-5.0022 13.842795,-1.97953 29.753016,-4.22788 35.356056,-4.99635 15.13755,-2.07613 14.51684,-1.58169 6.95831,-5.5428 l -6.44689,-3.37854 -7.14715,1.01461 c -3.930929,0.55804 -16.855078,2.40067 -28.720326,4.09475 -11.865247,1.69409 -26.02266,3.69536 -31.460891,4.44729 -5.438243,0.75193 -12.988859,1.83766 -16.779146,2.41272 -3.790287,0.57506 -9.385833,1.34624 -12.434545,1.71374 -3.048713,0.3675 -5.5293458,0.8189 -5.5125053,1.00313 0.034615,0.37954 13.0923043,6.47844 14.1199053,6.59506 0.367007,0.0417 2.001732,-0.15693 3.632733,-0.4413 z m 7.535279,0.15216 c -0.411983,-0.15283 -1.08615,-0.15283 -1.498133,0 -0.411984,0.15284 -0.07492,0.27789 0.749066,0.27789 0.823978,0 1.161062,-0.12505 0.749067,-0.27789 z m 3.283421,-0.51892 c -0.199126,-0.18307 -0.715978,-0.20265 -1.148571,-0.0435 -0.478047,0.17589 -0.336047,0.30643 0.362054,0.33287 0.631707,0.024 0.985642,-0.10631 0.786517,-0.28937 z m 19.775424,-2.75472 c -0.199126,-0.18306 -0.71599,-0.20264 -1.148571,-0.0435 -0.478047,0.17589 -0.336047,0.30643 0.362054,0.33287 0.631707,0.0239 0.985642,-0.10631 0.786517,-0.28937 z m 3.595533,-0.55093 c -0.199137,-0.18308 -0.715989,-0.20265 -1.14857,-0.0436 -0.478047,0.17587 -0.336059,0.30643 0.362042,0.33286 0.631719,0.024 0.985654,-0.10631 0.786528,-0.28936 z M 4.7757773,182.08561 c 0.5625345,-1.34776 0.4405746,-1.52584 -0.5351387,-0.78136 -0.996186,0.76011 -1.1926586,1.65283 -0.363739,1.65283 0.2943274,0 0.6988184,-0.39216 0.8988777,-0.87147 z m 72.1120647,-0.0123 c -0.199137,-0.18307 -0.715989,-0.20264 -1.14857,-0.0435 -0.478047,0.17587 -0.336059,0.30643 0.362043,0.33286 0.631718,0.024 0.985653,-0.10631 0.786527,-0.28936 z m 3.30838,-0.58296 c -0.411983,-0.15283 -1.08615,-0.15283 -1.498133,0 -0.411983,0.15284 -0.07492,0.27789 0.749066,0.27789 0.823978,0 1.161062,-0.12505 0.749067,-0.27789 z m 3.283421,-0.51892 c -0.199126,-0.18307 -0.715989,-0.20264 -1.148571,-0.0435 -0.478047,0.17587 -0.336047,0.30642 0.362054,0.33286 0.631707,0.024 0.985642,-0.10631 0.786517,-0.28936 z m -68.302604,-1.1488 c -0.576779,-0.13858 -1.52061,-0.13858 -2.097389,0 -0.576778,0.13857 -0.104869,0.25196 1.048701,0.25196 1.153557,0 1.625479,-0.11337 1.048688,-0.25196 z m 85.081751,-1.05496 c -0.19913,-0.18308 -0.715991,-0.20265 -1.148572,-0.0435 -0.478047,0.17588 -0.336047,0.30642 0.362054,0.33286 0.631708,0.024 0.985638,-0.10631 0.786518,-0.28936 z m 2.99628,-0.55096 c -0.19914,-0.18306 -0.71599,-0.20264 -1.14857,-0.0435 -0.47805,0.17589 -0.33606,0.30643 0.36205,0.33287 0.63171,0.024 0.98564,-0.10631 0.78652,-0.28937 z m 3.59553,-0.55093 c -0.19914,-0.18308 -0.71599,-0.20265 -1.14857,-0.0435 -0.47805,0.17588 -0.33606,0.30643 0.36204,0.33287 0.63172,0.024 0.98566,-0.10631 0.78653,-0.28937 z m -61.723282,-2.20377 c -0.199126,-0.18308 -0.715989,-0.20265 -1.148571,-0.0436 -0.478047,0.17588 -0.336047,0.30643 0.362043,0.33287 0.631718,0.0239 0.985653,-0.10631 0.786528,-0.28937 z m 77.903172,0 c -0.19914,-0.18308 -0.71599,-0.20265 -1.14858,-0.0436 -0.47804,0.17588 -0.33605,0.30643 0.36205,0.33287 0.63172,0.0239 0.98566,-0.10631 0.78653,-0.28937 z m -74.307639,-0.55094 c -0.199137,-0.18308 -0.715989,-0.20265 -1.148581,-0.0436 -0.478036,0.17588 -0.336048,0.30643 0.362053,0.33286 0.631719,0.024 0.985654,-0.10631 0.786528,-0.28936 z m 19.775413,-2.75471 c -0.199126,-0.18308 -0.715989,-0.20265 -1.148571,-0.0435 -0.478047,0.17587 -0.336047,0.30641 0.362054,0.33285 0.631707,0.024 0.985643,-0.10631 0.786517,-0.28936 z m 2.996278,-0.55094 c -0.199126,-0.18308 -0.715989,-0.20265 -1.14857,-0.0435 -0.478048,0.17587 -0.336048,0.30641 0.362053,0.33285 0.631707,0.024 0.985643,-0.10631 0.786517,-0.28937 z m 28.164991,-3.8566 c -0.199126,-0.18308 -0.715989,-0.20265 -1.14857,-0.0435 -0.478048,0.17587 -0.336048,0.30643 0.362053,0.33285 0.631707,0.024 0.985643,-0.1063 0.786517,-0.28936 z"
       id="path5276"
       inkscape:connector-curvature="0" />
  </g>
</svg>
