<?xml version="1.0" encoding="UTF-8" standalone="no"?>
<svg
   xmlns:dc="http://purl.org/dc/elements/1.1/"
   xmlns:cc="http://creativecommons.org/ns#"
   xmlns:rdf="http://www.w3.org/1999/02/22-rdf-syntax-ns#"
   xmlns:svg="http://www.w3.org/2000/svg"
   xmlns="http://www.w3.org/2000/svg"
   width="500mm"
   height="500mm"
   viewBox="0 0 500 500"
   version="1.1"
   id="svg8">
  <defs
     id="defs2" />
  <metadata
     id="metadata5">
    <rdf:RDF>
      <cc:Work
         rdf:about="">
        <dc:format>image/svg+xml</dc:format>
        <dc:type
           rdf:resource="http://purl.org/dc/dcmitype/StillImage" />
        <dc:title></dc:title>
      </cc:Work>
    </rdf:RDF>
  </metadata>
  <g
     id="layer1">
    <path
       style="fill:#000000;stroke-width:1.98574"
       d="m 189.67475,471.07451 -23.07574,-22.03607 v -65.39865 c 0,-56.30029 0.41439,-65.55766 2.9786,-66.54163 4.49824,-1.72614 4.49824,-159.11853 0,-160.84467 -2.57085,-0.98653 -2.9786,-10.86911 -2.9786,-72.191593 V 13.013301 l 8.43938,-1.162251 c 4.64166,-0.639238 20.05594,-1.534755 34.25395,-1.9900375 l 25.81458,-0.827787 -28.29675,2.0121985 c -15.56321,1.10671 -28.29674,2.691577 -28.29674,3.521927 0,4.084002 10.61005,7.793176 24.11619,8.43079 l 14.60567,0.689523 -15.73559,0.39456 -15.73561,0.39456 4.66376,4.964341 c 4.73314,5.038201 9.92868,6.596862 9.92868,2.978605 0,-1.092155 2.45735,-1.882079 5.46078,-1.755389 3.00342,0.12669 3.98716,0.621641 2.18609,1.099888 -2.48028,0.658595 -2.93573,2.13692 -1.87747,6.093904 0.76846,2.873402 2.58984,5.621916 4.04753,6.107805 1.5837,0.527905 2.09233,-0.01946 1.26384,-1.359911 -0.96066,-1.554391 1.69874,-2.24335 8.6594,-2.24335 9.33175,0 10.04588,-0.345165 10.04588,-4.855541 0,-4.355902 -0.97059,-4.938277 -9.43225,-5.659578 -8.78933,-0.749232 -8.68782,-0.790486 1.4893,-0.605235 9.25866,0.16853 10.8322,0.730148 10.33469,3.688568 -0.32278,1.919371 0.40177,5.046906 1.61009,6.950078 1.85526,2.922118 2.06658,2.610981 1.35866,-2.000463 -0.46106,-3.003427 -0.0159,-5.460776 0.98928,-5.460776 1.00516,0 1.34861,-0.774943 0.76324,-1.722098 -1.12895,-1.826703 12.62517,-4.235111 24.18621,-4.235111 5.62454,0 6.49522,-0.507084 4.66246,-2.715416 -1.71056,-2.061075 -7.63085,-2.593961 -24.56843,-2.211399 l -22.31481,0.504015 19.85736,-1.516749 c 10.92155,-0.834211 21.13011,-1.626244 22.68567,-1.760072 2.04628,-0.176045 1.56435,-1.588771 -1.74296,-5.109226 -3.26051,-3.470664 -7.20312,-5.0761885 -13.74985,-5.5992835 l -9.17859,-0.733384 9.27362,-0.357925 c 9.0241,-0.348295 9.57153,-0.02398 20.34489,12.0529265 l 11.07123,12.410854 0.01,25.494381 0.008,25.494383 12.94386,14.18224 c 7.11912,7.800244 12.49084,15.362774 11.93716,16.805654 -0.55369,1.44288 -0.12332,2.07748 0.95629,1.41022 1.25455,-0.77536 1.96298,7.98555 1.96298,24.27539 v 25.48859 l 13.90015,13.79365 13.90016,13.79364 v 106.62418 c 0,58.64331 -0.54238,108.03765 -1.20532,109.7652 -0.92518,2.41097 -4.15595,3.14102 -13.90015,3.14102 h -12.69484 v 12.76545 c 0,8.69941 -0.94875,13.71419 -2.97861,15.74405 -2.30129,2.30129 -2.9786,8.15611 -2.9786,25.74736 V 488.721 l -30.28248,1.38535 c -16.65537,0.76193 -33.85681,1.00623 -38.22543,0.54286 -4.54708,-0.48228 -1.07103,-0.98516 8.13048,-1.17627 8.84038,-0.18368 25.59503,-0.91638 37.23256,-1.62844 l 21.15913,-1.29462 v -22.05655 c 0,-26.77788 -0.84628,-27.82103 -20.90315,-25.76613 -7.0699,0.72432 -12.85437,2.08715 -12.85437,3.02847 0,2.38312 -7.43621,2.1522 -8.93788,-0.27755 -1.48533,-2.40331 -21.40868,-0.57979 -29.38491,2.68951 l -5.55814,2.27817 0.5938,23.33616 c 0.57688,22.67143 0.47336,23.33606 -3.63434,23.3324 -2.67041,-0.002 -12.72966,-8.12224 -27.30388,-22.03985 z m 28.55341,-4.77134 c 0,-20.73991 -0.48982,-24.82171 -2.97861,-24.82171 -2.48878,0 -2.9786,4.0818 -2.9786,24.82171 0,20.7399 0.48982,24.8217 2.9786,24.8217 2.48879,0 2.97861,-4.0818 2.97861,-24.8217 z m -9.06096,-33.75752 c -0.79191,-30.03427 -1.06675,-54.60776 -0.61077,-54.60776 0.45601,0 7.93582,7.14865 16.62181,15.88589 10.21274,10.27299 14.58136,15.88589 12.36427,15.88589 -1.88566,0 -3.42846,-1.18461 -3.42846,-2.63247 0,-1.44784 -2.23395,-4.73113 -4.96434,-7.29621 l -4.96434,-4.66376 0.23034,22.68569 c 0.12669,12.47712 0.62525,21.19329 1.10793,19.36927 0.67751,-2.56033 4.32183,-3.63916 15.98541,-4.73211 13.31592,-1.24781 15.42203,-0.98607 17.75658,2.20661 2.15591,2.94841 2.64873,3.05019 2.64873,0.54711 0,-2.30462 3.05869,-3.39495 12.20571,-4.351 18.22372,-1.90476 21.55181,-1.64181 21.55181,1.70285 0,1.65477 1.76511,2.9786 3.97148,2.9786 3.49009,0 3.97147,-1.32383 3.97147,-10.92155 v -10.92155 h -12.90729 c -12.44395,0 -12.90728,0.17812 -12.90728,4.96434 0,4.22549 -0.9143,4.96434 -6.14312,4.96434 -4.47311,0 -6.42544,-1.07964 -7.18167,-3.97147 -0.87633,-3.35103 -2.70859,-3.97148 -11.72852,-3.97148 -7.21064,0 -10.70064,-0.80787 -10.72276,-2.48217 -0.0179,-1.36519 -0.004,-50.83829 0.0322,-109.94022 l 0.0649,-107.45804 -16.91087,-16.50629 -16.91095,-16.50629 v -27.0049 -27.0049 L 194.39932,94.970436 180.49916,81.176789 V 54.191169 27.205547 l -5.95721,-5.707368 -5.9572,-5.707369 0.23034,69.37586 c 0.12669,38.15672 0.63901,67.81209 1.13847,65.90082 0.49947,-1.91127 1.73619,-3.47504 2.74826,-3.47504 1.10181,0 1.84013,35.05691 1.84013,87.37241 0,60.17052 -0.65471,87.37241 -2.10292,87.37241 -1.15661,0 -1.46534,-1.03165 -0.68606,-2.29256 0.87785,-1.42039 0.54472,-1.75352 -0.87568,-0.87567 -1.65406,1.02226 -2.30901,19.21975 -2.35166,65.33969 l -0.0591,63.92281 20.41291,19.28875 c 11.2271,10.60881 20.70873,19.32123 21.07027,19.36093 0.36152,0.0397 0.01,-24.50131 -0.7825,-54.53557 z m 17.93333,-11.12144 c -0.72817,-2.29426 -0.39159,-5.10372 0.74795,-6.24326 1.4387,-1.4387 1.73164,-0.77074 0.95853,2.18563 -0.87932,3.36256 -0.22987,4.25751 3.08971,4.25751 4.6612,0 6.03435,-6.87305 1.7209,-8.61357 -1.3652,-0.55086 -0.47161,-1.07211 1.98573,-1.15833 3.81222,-0.13384 4.46791,0.86319 4.46791,6.7933 0,6.36299 -0.49191,6.95008 -5.82339,6.95008 -4.17243,0 -6.19875,-1.18261 -7.14734,-4.17136 z m -9.7989,-31.41529 -5.03068,-5.0307 v 24.45828 c 0,22.96681 0.27246,24.67923 4.46791,28.08139 l 4.4679,3.6231 0.56278,-23.05069 c 0.54624,-22.37306 0.4149,-23.19859 -4.46791,-28.08138 z m 40.64126,47.61826 c 0,-1.02769 -0.89358,-2.42081 -1.98574,-3.0958 -1.09215,-0.67499 -1.98573,0.16581 -1.98573,1.86854 0,1.70269 0.89358,3.0958 1.98573,3.0958 1.09216,0 1.98574,-0.84084 1.98574,-1.86854 z m 43.14841,0.66882 c -0.65986,-0.65984 -2.37256,-0.73037 -3.806,-0.15667 -1.58409,0.63388 -1.11357,1.10442 1.19972,1.1997 2.09328,0.0862 3.26612,-0.38311 2.60628,-1.04295 z m -49.10562,-2.62828 c 0,-1.66649 -21.634,-0.63931 -23.66337,1.12353 -0.45505,0.3953 4.68305,0.71874 11.41799,0.71874 6.73496,0 12.24538,-0.82903 12.24538,-1.84227 z m 40.07878,-2.55946 c -1.42489,-1.42488 -2.34978,-1.54212 -2.34978,-0.29786 0,1.12858 0.59572,2.64767 1.32383,3.37576 0.72809,0.72811 1.78549,0.86214 2.34978,0.29786 0.56428,-0.56427 -0.0314,-2.08336 -1.32383,-3.37576 z m -4.33552,0.72174 c 0,-0.93183 -4.6913,-1.30779 -10.42512,-0.83548 -15.30516,1.26076 -16.08683,2.19484 -1.98573,2.37296 6.82596,0.0862 12.41085,-0.60563 12.41085,-1.53748 z m -13.90016,-17.31584 c 0,-1.8492 -1.35103,-2.8622 -3.31048,-2.48217 -4.98175,0.96616 -5.6658,5.60637 -0.82646,5.60637 2.43914,0 4.13694,-1.28217 4.13694,-3.1242 z m 40.7076,-6.54709 15.88589,-1.25026 0.59874,-9.2731 c 0.56431,-8.73982 0.33591,-9.22193 -3.97147,-8.38336 l -4.57021,0.88973 4.46791,-1.97777 4.4679,-1.97776 V 306.57878 225.163 l -5.46077,-2.96252 c -3.00343,-1.62937 -4.73185,-2.99828 -3.84093,-3.04201 0.89092,-0.0437 3.34827,0.84551 5.46077,1.97609 3.6423,1.9493 3.84093,1.26765 3.84093,-13.18037 v -15.23596 l -16.38232,1.21869 c -9.01028,0.67028 -28.09694,1.80593 -42.41478,2.52366 l -26.03247,1.30497 -1.27141,17.91185 c -1.6509,23.25802 -1.62491,167.15424 0.0334,184.71427 l 1.27655,13.51798 26.01321,-1.34615 c 14.30727,-0.74041 33.16186,-1.90879 41.8991,-2.59643 z m -59.57209,-13.99216 c -3.27647,-0.74274 6.55293,-1.04056 21.8431,-0.66181 20.74894,0.51397 26.91888,0.13563 24.32527,-1.49188 -2.3551,-1.47778 -3.47504,-4.70856 -3.47504,-10.02479 0,-7.82783 0.0159,-7.84428 7.94295,-7.84428 h 7.94294 v 7.94295 c 0,6.85466 -0.61216,7.97007 -4.4679,8.14088 -4.24914,0.18825 -4.22484,0.2672 0.49643,1.61256 4.51374,1.28622 4.24338,1.53664 -2.9786,2.75882 -9.86735,1.66985 -43.60181,1.3873 -51.62915,-0.43245 z m 56.59349,-11.08694 c 0,-3.97148 -0.99287,-4.96434 -4.96434,-4.96434 -3.97148,0 -4.96435,0.99286 -4.96435,4.96434 0,3.97147 0.99287,4.96434 4.96435,4.96434 3.97147,0 4.96434,-0.99287 4.96434,-4.96434 z m -64.90851,-75.45799 c -0.16898,-48.05483 0.13781,-86.27237 0.68176,-84.92789 0.73205,1.80932 2.99263,1.42234 8.69993,-1.4893 4.24102,-2.1636 8.41671,-3.89346 9.27933,-3.84409 0.86262,0.0495 -2.4527,2.19166 -7.3674,4.76068 l -8.93581,4.67097 -1.02528,84.10101 -1.02528,84.10103 z m 19.23657,76.45086 v -7.94295 h 7.94294 7.94295 v 7.94295 7.94294 h -7.94295 -7.94294 z m 13.54183,0.49643 c 0.51678,-3.63882 -0.31228,-4.46791 -4.46791,-4.46791 -4.15561,0 -5.10245,0.94684 -5.10245,5.10245 0,4.15563 0.82908,4.9847 4.46791,4.46791 2.87129,-0.40779 4.69466,-2.23115 5.10245,-5.10245 z m 37.71499,6.09004 c 1.43345,-0.57362 3.14614,-0.50309 3.806,0.15667 0.65984,0.65984 -0.51299,1.12917 -2.60628,1.04295 -2.31328,-0.0953 -2.7838,-0.56582 -1.19972,-1.1997 z m -48.2758,-43.98208 c -0.5474,-0.54741 -0.99529,-19.96277 -0.99529,-43.14523 0,-34.51431 0.50915,-42.3453 2.81052,-43.22842 2.33155,-0.89471 29.717,-1.94159 38.39352,-1.46771 1.9045,0.10405 2.48217,10.0628 2.48217,42.79107 0,42.63635 -0.002,42.65593 -4.46791,43.5842 -6.87422,1.42885 -37.10085,2.58825 -38.22301,1.46609 z m 36.23727,-3.57072 c 4.44809,-1.19203 4.46791,-1.37683 4.46791,-41.67334 v -40.476 H 295.9201 c -7.50856,0 -16.44438,0.55849 -19.85736,1.24108 l -6.20543,1.24109 v 40.45938 40.45938 l 15.38946,-0.0272 c 8.4642,-0.0159 17.40001,-0.56593 19.85736,-1.22448 z m -23.3324,-115.90686 v -7.94295 h 7.94295 7.94294 v 7.94295 7.94294 h -7.94294 -7.94295 z m 13.54183,0.49643 c 0.51679,-3.63882 -0.31228,-4.46791 -4.46791,-4.46791 -4.15561,0 -5.10245,0.94684 -5.10245,5.10245 0,4.15563 0.82909,4.9847 4.46791,4.46791 2.8713,-0.40779 4.69466,-2.23115 5.10245,-5.10245 z m -19.99547,-13.72597 c 1.36519,-0.55086 3.59914,-0.55086 4.96434,0 1.36519,0.55087 0.24821,1.00159 -2.48217,1.00159 -2.73039,0 -3.84737,-0.45072 -2.48217,-1.00159 z m 19.36093,-0.67062 -11.91442,-1.31809 10.92155,-0.13582 c 6.00685,-0.0747 13.1555,0.57955 15.88589,1.45397 6.02461,1.92942 2.54709,1.92942 -14.89302,0 z m -29.78605,-22.00511 c -8.00161,-0.99404 -2.1324,-1.30212 17.87163,-0.93811 19.3624,0.35233 25.96404,0.0215 18.86449,-0.94526 -9.16044,-1.24745 -7.80761,-1.4426 8.3896,-1.21025 l 19.31115,0.27702 -12.13797,-12.24364 c -6.67589,-6.734 -13.13196,-11.92392 -14.34681,-11.53316 -1.21485,0.39077 -17.84651,1.70278 -36.95922,2.91559 -47.28216,3.00033 -45.35869,2.17584 -32.7954,14.05768 13.6662,12.92494 16.44689,12.56535 3.92757,-0.5079 l -9.85404,-10.29003 10.13121,8.24314 c 5.57218,4.53373 11.26648,9.61103 12.65401,11.2829 1.82787,2.20246 5.8744,2.94781 14.69048,2.70595 l 12.16772,-0.33382 z m -28.79318,-25.62415 c 2.11362,-0.0183 2.9786,-2.18864 2.9786,-7.47363 v -7.44781 l 9.43225,-0.60523 9.43225,-0.60524 v 8.29996 c 0,8.23691 0.0471,8.29054 6.20543,7.05888 3.41298,-0.68259 7.4341,-1.24108 8.93581,-1.24108 1.86163,0 2.73039,-2.5273 2.73039,-7.94295 v -7.94294 h 8.93581 8.93582 v 8.08105 c 0,7.24454 0.4625,8.01537 4.46791,7.44651 4.32543,-0.61431 4.47986,-1.39442 4.84299,-24.46338 0.2063,-13.10586 -0.15112,-22.48847 -0.79418,-20.85023 -1.96308,5.00072 -4.97163,5.8952 -19.93471,5.9268 -11.48665,0.0243 -14.39659,-0.57165 -14.39659,-2.9482 0,-4.36368 -3.33659,-3.63508 -4.54684,0.99287 -0.93063,3.5588 -2.70856,3.97147 -17.11035,3.97147 -16.70801,0 -17.39313,-0.39841 -16.22004,-9.43225 0.17729,-1.36519 -0.61041,-2.48217 -1.75044,-2.48217 -1.14003,0 -2.07279,-1.34037 -2.07279,-2.9786 0,-2.3438 2.43342,-2.90232 11.41798,-2.62068 10.84341,0.33991 10.95813,0.39475 2.27961,1.08967 -8.48599,0.6795 -9.07196,1.07924 -8.20789,5.59928 1.00806,5.27333 4.56485,5.95181 18.83557,3.593 6.16311,-1.0187 7.44651,-2.04165 7.44651,-5.93535 0,-3.48669 -1.15659,-4.76416 -4.46791,-4.93487 -3.6775,-0.1896 -3.81585,-0.39819 -0.78194,-1.1791 2.02728,-0.5218 4.66334,0.0286 5.85792,1.22322 2.71983,2.71983 6.00902,2.86044 4.35627,0.18622 -0.75962,-1.2291 3.16803,-2.06115 10.30792,-2.18367 14.27431,-0.24494 22.54302,-2.25857 18.79261,-4.57643 -1.44716,-0.8944 -18.86298,-1.17101 -38.70182,-0.61468 l -36.07065,1.0115 37.35673,-2.27913 37.35671,-2.279134 -6.57779,-6.19404 -6.57782,-6.194044 -37.72899,2.83166 c -20.75095,1.557411 -39.7613,2.789174 -42.24522,2.737244 -4.17379,-0.0872 -4.00335,0.3559 2.24788,5.84456 8.39923,7.374614 11.5687,7.767044 5.09665,0.63106 l -4.81404,-5.30791 7.53811,5.61346 c 5.24699,3.907314 6.90673,6.244834 5.46078,7.690784 -1.23243,1.23242 -2.07734,12.55365 -2.07734,27.83484 0,21.18099 0.58391,26.40271 3.28637,29.3889 1.8075,1.99727 4.04145,3.63139 4.96435,3.63139 0.92287,0 1.67796,-11.33557 1.67796,-25.19015 0,-23.17657 -0.35266,-25.59722 -4.41191,-30.28249 l -4.41189,-5.09232 5.60526,5.20997 5.60528,5.20997 -0.27934,26.31759 -0.27931,26.3176 4.54672,-1.21797 c 2.50072,-0.66988 5.88712,-1.22958 7.52535,-1.24378 z m 13.90015,-26.96776 c 0,-6.49472 0.43621,-7.02987 5.2605,-6.45364 11.01222,1.31534 10.52534,13.53562 -0.53929,13.53562 -4.08859,0 -4.72121,-0.94895 -4.72121,-7.08198 z m 9.55505,-1.38021 c 0.4589,-2.38288 -0.61045,-3.45223 -3.45224,-3.45223 -2.84177,0 -4.11707,1.27529 -4.11707,4.11707 0,5.08874 6.57245,4.51146 7.56931,-0.66484 z m 26.5487,0.15876 c 0.56213,-5.85742 1.29429,-6.5896 6.58959,-6.5896 5.2953,0 5.95721,0.66192 5.95721,5.95721 0,5.2953 -0.73218,6.02748 -6.58959,6.5896 -6.37032,0.61134 -6.56856,0.41311 -5.95721,-5.95721 z m 10.21179,-0.43825 c 1.339,-3.4894 -0.26132,-5.15848 -4.94603,-5.15848 -2.31668,0 -3.64051,1.44418 -3.64051,3.97148 0,4.62571 6.90091,5.57969 8.58654,1.187 z m -42.81734,23.26321 c -1.89855,-0.49701 -5.47287,-0.51505 -7.94295,-0.0401 -2.47008,0.47497 -0.91673,0.88162 3.45189,0.90366 4.36862,0.022 6.3896,-0.36657 4.49106,-0.86359 z m 35.7201,-1.9902 c -1.91127,-0.49946 -5.03881,-0.49946 -6.95008,0 -1.91127,0.49947 -0.3475,0.90813 3.47504,0.90813 3.82255,0 5.38631,-0.40866 3.47504,-0.90813 z m -34.75039,-37.67529 c -1.36519,-0.55086 -3.59915,-0.55086 -4.96434,0 -1.36519,0.55087 -0.24822,1.00158 2.48217,1.00158 2.73039,0 3.84737,-0.45071 2.48217,-1.00158 z m 20.80887,0.1154 c -0.65986,-0.65985 -2.37256,-0.73039 -3.806,-0.15678 -1.58408,0.6339 -1.11356,1.10443 1.19972,1.19972 2.09329,0.0862 3.26612,-0.38311 2.60628,-1.04295 z m -14.03298,-7.23966 c -0.55086,-1.36519 -1.00159,-0.24822 -1.00159,2.48217 0,2.73039 0.45073,3.84736 1.00159,2.48217 0.55086,-1.36519 0.55086,-3.59915 0,-4.96434 z m 26.4852,4.46791 -4.96434,-1.58986 5.46077,-0.19794 c 4.52008,-0.16384 5.46078,-1.09588 5.46078,-5.4105 0,-4.779 -0.51613,-5.10933 -6.20543,-3.97147 -3.41298,0.6826 -9.64889,1.24108 -13.85758,1.24108 -7.39812,0 -7.57864,0.16137 -5.4375,4.86066 2.1385,4.69346 6.37014,6.03737 20.53617,6.52202 3.01419,0.10312 2.77489,-0.24735 -0.99287,-1.45399 z m 10.1296,-7.3717 c -1.90748,-3.27767 -2.07051,-3.23265 -2.12627,0.5871 -0.0671,4.59669 2.45282,8.18081 3.51382,4.99778 0.3731,-1.11926 -0.25131,-3.63246 -1.38755,-5.58488 z m -29.98697,4.51028 c 0,-0.48162 -0.89358,-1.42793 -1.98573,-2.10292 -1.09216,-0.67499 -1.98574,-0.28094 -1.98574,0.87567 0,1.15661 0.89358,2.10293 1.98574,2.10293 1.09215,0 1.98573,-0.39405 1.98573,-0.87568 z M 196.38506,63.30938 c 0,-23.445431 -0.25103,-24.996315 -4.90159,-30.282483 l -4.90159,-5.571508 -0.0627,26.651085 c -0.052,22.072786 0.5018,27.274911 3.22362,30.282482 1.8075,1.99727 4.04145,3.631398 4.96434,3.631398 0.92288,0 1.67797,-11.119938 1.67797,-24.710974 z m 16.24781,16.994431 -0.73587,-7.71654 8.62635,-0.910015 c 10.95696,-1.155874 11.60497,-0.735722 11.60497,7.524476 0,6.742878 0.11416,6.832885 8.66587,6.832885 h 8.66589 l -0.22651,-7.374221 c -0.21827,-7.106766 0.0616,-7.423098 7.71645,-8.721933 10.0127,-1.698897 10.92155,-1.093285 10.92155,7.277532 0,5.509061 0.76946,6.832886 3.97148,6.832886 3.71604,0 3.97147,-1.323825 3.97147,-20.583601 V 42.881679 l -8.43938,1.632623 c -14.18781,2.744673 -25.31814,2.228989 -25.31814,-1.173021 0,-1.638232 -0.89358,-2.978604 -1.98574,-2.978604 -1.09215,0 -1.98574,1.215904 -1.98574,2.702009 0,1.776734 -3.56997,3.130814 -10.42511,3.954213 -17.22929,2.069479 -23.33241,1.62693 -23.33241,-1.691881 0,-1.638233 -1.34037,-2.978605 -2.9786,-2.978605 -2.47498,0 -2.97861,3.861154 -2.97861,22.835971 v 22.83597 h 7.499 7.49897 z m 11.5525,-19.090901 c 0,-5.92843 0.67138,-6.950078 4.56719,-6.950078 4.42808,0 9.33296,3.264956 9.33296,6.212518 0,2.863067 -6.32,7.687638 -10.07052,7.687638 -3.05289,0 -3.82963,-1.409628 -3.82963,-6.950078 z m 9.55505,-1.512106 c 0.4589,-2.382884 -0.61046,-3.452235 -3.45225,-3.452235 -2.84177,0 -4.11706,1.27529 -4.11706,4.117075 0,5.088734 6.57245,4.511453 7.56931,-0.66484 z m 26.18821,-0.341734 c 0,-6.56133 0.44254,-7.081974 6.01952,-7.081974 10.84967,0 10.16377,12.23096 -0.75903,13.535618 -4.82429,0.576229 -5.26049,0.04108 -5.26049,-6.453644 z m 9.55504,-1.644003 c 0.45891,-2.382884 -0.61045,-3.452235 -3.45224,-3.452235 -2.84177,0 -4.11707,1.27529 -4.11707,4.117076 0,5.088734 6.57245,4.511452 7.56931,-0.664841 z m -43.31256,26.333814 c -2.49204,-1.61048 -2.3569,-1.92989 0.82739,-1.955329 2.09329,-0.01668 3.353,-0.483404 2.79933,-1.037065 -0.55366,-0.553663 -4.05352,-0.384022 -7.77747,0.376982 -6.51637,1.331647 -6.58427,1.436657 -1.80646,2.794456 7.26735,2.065309 9.33397,2.003195 5.95721,-0.179034 z m 36.73612,-1.985737 c -0.67499,-1.092155 -0.13205,-1.985736 1.20663,-1.985736 1.33865,0 1.9436,-0.490281 1.34439,-1.08951 -0.59924,-0.59923 -3.61974,-0.454466 -6.71223,0.321701 -5.03275,1.263137 -5.21359,1.571164 -1.72362,2.935677 5.53076,2.162416 7.30001,2.107659 5.88483,-0.182132 z m -35.28819,-7.156926 c -0.65986,-0.659842 -2.37255,-0.73039 -3.806,-0.156774 -1.58408,0.633899 -1.11356,1.104433 1.19973,1.199717 2.09328,0.08622 3.26612,-0.383105 2.60627,-1.042949 z m 1.07202,-31.874586 c -1.3444,-0.543939 -4.02514,-0.57705 -5.95721,-0.07357 -1.93206,0.503472 -0.83208,0.948513 2.44439,0.98898 3.27646,0.04047 4.85723,-0.371462 3.51282,-0.915401 z m 20.31602,-2.668955 c -0.75639,-1.223873 2.62703,-1.985737 8.81861,-1.985737 9.39178,0 10.04588,-0.323234 10.04588,-4.964341 0,-4.441217 -0.81083,-4.964342 -7.69473,-4.964342 -13.09815,0 -19.96382,2.03035 -18.62893,5.509041 0.77925,2.030672 0.38982,2.594579 -1.13919,1.649595 -1.27776,-0.789696 -2.3232,-0.701386 -2.3232,0.196244 0,0.897629 2.01056,2.627811 4.46791,3.844849 5.89162,2.917907 7.95665,3.146592 6.45365,0.714691 z m 15.42724,0.683218 c -1.3444,-0.543939 -4.02514,-0.577049 -5.95721,-0.07357 -1.93206,0.503472 -0.83208,0.948513 2.44439,0.988981 3.27646,0.04047 4.85723,-0.371462 3.51282,-0.915401 z m 11.3498,-7.444628 c -0.0167,-1.195921 -0.98783,-0.834033 -2.158,0.8042 -1.70907,2.392685 -1.93482,2.099185 -1.14766,-1.492043 0.53897,-2.458856 0.27272,-4.033561 -0.59165,-3.499344 -0.86439,0.534216 -1.96639,3.661182 -2.44893,6.948811 -0.83339,5.678293 -0.69574,5.813204 2.74967,2.695147 1.99483,-1.805301 3.61329,-4.260847 3.59657,-5.456771 z M 204.328,38.37694 c 0,-1.092155 -1.8399,-1.985737 -4.08866,-1.985737 -2.24877,0 -3.5364,0.893582 -2.86141,1.985737 0.67498,1.092155 2.51488,1.985737 4.08867,1.985737 1.57377,0 2.8614,-0.893582 2.8614,-1.985737 z M 180.49916,19.512443 c -2.56506,-2.730388 -5.55733,-4.964342 -6.64949,-4.964342 -1.09215,0 0.11296,2.233954 2.67802,4.964342 2.56507,2.730387 5.55734,4.964341 6.64949,4.964341 1.09216,0 -0.11295,-2.233954 -2.67802,-4.964341 z"
       id="path74" />
  </g>
</svg>
