<?xml version="1.0" encoding="UTF-8" standalone="no"?>
<svg
   xmlns:dc="http://purl.org/dc/elements/1.1/"
   xmlns:cc="http://creativecommons.org/ns#"
   xmlns:rdf="http://www.w3.org/1999/02/22-rdf-syntax-ns#"
   xmlns:svg="http://www.w3.org/2000/svg"
   xmlns="http://www.w3.org/2000/svg"
   id="svg8"
   version="1.1"
   viewBox="0 0 500 500"
   height="500mm"
   width="500mm">
  <defs
     id="defs2" />
  <metadata
     id="metadata5">
    <rdf:RDF>
      <cc:Work
         rdf:about="">
        <dc:format>image/svg+xml</dc:format>
        <dc:type
           rdf:resource="http://purl.org/dc/dcmitype/StillImage" />
        <dc:title></dc:title>
      </cc:Work>
    </rdf:RDF>
  </metadata>
  <g
     transform="translate(0,203)"
     id="layer1">
    <path
       id="path309"
       d="m 237.46446,276.8612 c -53.11782,-17.72389 -60.13977,-21.61297 -67.87538,-37.59261 -4.17746,-8.62948 -4.19306,-9.40771 -4.10592,-204.825843 0.0707,-158.658707 0.59763,-197.593027 2.75581,-203.640637 7.13688,-19.99883 23.17465,-30.51702 45.98121,-30.15628 11.82935,0.18711 21.1823,2.65455 61.52879,16.23215 35.08959,11.80853 48.95212,17.38459 52.81017,21.24238 l 5.23124,5.23087 0.59239,202.726216 c 0.43346,148.336234 -0.0221,204.864884 -1.6979,210.697574 -2.84995,9.91915 -14.38481,25.35722 -23.84399,31.91245 -4.98823,3.45684 -9.52793,4.86448 -15.01435,4.65555 -4.32533,-0.16481 -29.68827,-7.58155 -56.36207,-16.48182 z m 76.40636,-0.90558 c 0.96758,-3.23764 0.71738,-4.30254 -0.79173,-3.36985 -1.21348,0.74997 -2.20633,2.53489 -2.20633,3.96648 0,1.4316 -1.9361,5.18997 -4.30246,8.35194 l -4.30247,5.74906 5.09419,-4.98209 c 2.80181,-2.74015 5.73078,-7.11214 6.5088,-9.71554 z m -9.78365,7.22449 3.79633,-4.48388 -4.98209,3.96443 c -2.74015,2.18044 -5.35575,4.19819 -5.81245,4.48388 -0.45668,0.28569 0.0769,0.51945 1.18578,0.51945 1.10885,0 3.72445,-2.01774 5.81243,-4.48388 z m -1.99284,-3.69428 c 3.57397,-3.94691 3.83514,-8.8204 4.45887,-83.20094 0.36441,-43.45464 0.0337,-128.522131 -0.73515,-189.0388861 l -1.39772,-110.0304239 -63.82135,-20.99859 c -35.10175,-11.54922 -64.58874,-20.99858 -65.52665,-20.99858 -0.93791,0 -1.6856,84.072797 -1.66153,186.828444 0.0419,179.045306 0.20103,187.174806 3.81868,195.142646 2.07621,4.57283 6.23072,9.95348 9.23224,11.95702 8.51926,5.6867 94.51109,34.1981 103.67559,34.37462 5.89999,0.1136 9.21237,-1.00425 11.95702,-4.03531 z M 264.04109,79.383728 244.11273,73.030723 243.52721,58.784312 c -0.4501,-10.951475 0.0396,-14.246412 2.11721,-14.246412 5.29967,0 38.03793,11.981214 41.63618,15.237589 2.58911,2.343098 3.66379,6.127276 3.66379,12.900868 0,13.739813 -2.71801,14.417457 -26.9033,6.707371 z m 18.54833,-7.270925 -0.6128,-8.29616 -13.28365,-4.469674 c -24.24581,-8.158195 -21.91883,-8.300902 -21.21584,1.301183 l 0.62127,8.485619 15.94269,5.481437 c 8.76849,3.014784 16.66683,5.551685 17.55191,5.637576 0.88506,0.08589 1.33345,-3.577102 0.99642,-8.139981 z m -71.3585,-9.779707 c -9.31651,-3.200337 -18.50846,-7.716065 -20.42657,-10.03493 -7.33095,-8.862683 -2.3924,-27.51432 6.53496,-24.680885 1.99315,0.632586 11.09062,3.656098 20.21658,6.718889 l 16.59265,5.568723 0.58552,14.273515 c 0.69566,16.958782 1.4075,16.711809 -23.50314,8.154688 z m 17.55191,-8.155824 -0.6128,-8.29616 -13.28365,-4.469674 c -24.24581,-8.158195 -21.91883,-8.300902 -21.21582,1.301183 l 0.62126,8.485619 15.94268,5.481437 c 8.76848,3.014783 16.66683,5.551685 17.55191,5.637576 0.88506,0.08589 1.33345,-3.577102 0.99642,-8.139981 z m 33.26543,-22.180553 -17.93553,-6.390768 -0.60587,-11.733884 c -0.93527,-18.1134145 -1.43882,-17.8915695 22.45218,-9.8913461 23.5681,7.8920921 25.51833,9.8098391 24.59356,24.1841121 -0.5406,8.402975 -1.13217,9.441801 -5.58672,9.810397 -2.74015,0.226745 -13.05308,-2.463585 -22.91762,-5.978511 z m 20.92478,-7.209127 V 16.994284 L 265.03751,10.979026 247.10198,4.9637475 v 8.4214495 8.42145 l 15.44449,5.208518 c 20.56741,6.936188 20.42657,6.951553 20.42657,-2.227573 z M 212.01707,15.414343 C 190.20653,7.9548361 187.31689,5.2013534 187.31689,-8.1220315 c 0,-12.1034975 3.7809,-12.8205205 26.60719,-5.0458725 l 20.22446,6.8884645 0.58552,14.4480671 c 0.32202,7.9464364 -0.12635,14.3772624 -0.99642,14.2907334 -0.87007,-0.08649 -10.64432,-3.256775 -21.72057,-7.045018 z M 229.16645,8.0811819 V -0.47582045 L 212.60687,-5.8686795 c -9.10776,-2.966069 -17.17873,-5.3928515 -17.93551,-5.3928515 -0.75678,0 -1.37596,3.5123745 -1.37596,7.8052775 v 7.8052706 l 17.43731,5.9872589 c 9.59053,3.292984 17.66152,6.058045 17.93553,6.144574 0.27402,0.08649 0.49821,-3.693325 0.49821,-8.3996681 z m 33.87823,-22.1513979 -18.93195,-6.481363 -0.58552,-14.286926 c -0.45022,-10.985587 0.039,-14.286924 2.11721,-14.286924 5.29967,0 38.03793,11.981213 41.63618,15.237584 6.68447,6.049364 4.14058,27.0053575 -3.2115,26.4554875 -1.15086,-0.08607 -10.61185,-3.0731105 -21.02442,-6.6378585 z m 19.54474,-7.480311 -0.6128,-8.296161 -13.28365,-4.469668 c -24.24581,-8.1582 -21.91883,-8.300915 -21.21584,1.301189 l 0.62127,8.48561 15.94269,5.481426 c 8.76849,3.014785 16.66683,5.551702 17.55191,5.637595 0.88506,0.08589 1.33345,-3.577104 0.99642,-8.139991 z m -71.3585,-9.779709 c -18.69803,-6.423008 -23.91403,-10.969008 -23.91403,-20.842233 0,-14.961744 2.50914,-15.574793 28.89612,-7.060073 l 17.93553,5.787549 0.58552,14.116802 c 0.69598,16.780094 1.38249,16.546478 -23.50314,7.997955 z m 17.93553,-7.652959 v -7.793296 l -18.045,-6.051984 -18.045,-6.051982 0.60768,8.364978 0.60769,8.364978 14.94626,5.355307 c 19.76474,7.081783 19.92837,7.063817 19.92837,-2.188001 z m 32.88181,-22.683413 -17.93553,-6.390771 -0.60587,-11.733879 c -0.93527,-18.113415 -1.43882,-17.891575 22.45218,-9.891345 23.5681,7.892093 25.51833,9.809844 24.59356,24.184104 -0.5406,8.40298 -1.13217,9.441794 -5.58672,9.810401 -2.74015,0.226745 -13.05308,-2.463585 -22.91762,-5.97851 z m 20.54688,-6.88898 c -0.60941,-7.363211 -0.83837,-7.551913 -15.56479,-12.828445 -19.76799,-7.082946 -19.92837,-7.065242 -19.92837,2.199983 v 7.805276 l 14.44807,4.990832 c 20.47028,7.071105 21.7984,6.934309 21.04509,-2.167646 z m -71.36422,-9.283056 c -20.70653,-7.086325 -23.83096,-10.141429 -23.88465,-23.354736 -0.0498,-12.24694 3.00369,-12.87176 26.25906,-5.37332 l 20.54321,6.623926 0.58552,14.448073 c 0.4398,10.852465 -0.0562,14.409121 -1.99284,14.291567 -1.4181,-0.08607 -11.09773,-3.072053 -21.5103,-6.63551 z m 17.93553,-7.743507 v -8.557002 l -17.14653,-5.584011 c -18.87507,-6.146926 -21.9647,-5.453266 -19.79105,4.443281 1.21405,5.52753 2.83249,6.56941 18.63533,11.996661 9.51821,3.26888 17.53003,6.014218 17.80404,6.100749 0.27402,0.08653 0.49821,-3.693325 0.49821,-8.399678 z m 96.45302,350.979941 3.78611,-6.62993 -6.27716,5.85314 c -3.45243,3.21923 -6.27715,7.14033 -6.27715,8.71358 0,4.01949 4.0167,0.38366 8.7682,-7.93679 z M 314.85843,82.99965 c 0,-101.604784 -0.67258,-183.88403 -1.49463,-182.842774 -1.58817,2.011691 -1.03288,367.578744 0.55834,367.578744 0.51496,0 0.93629,-83.13118 0.93629,-184.73597 z m 13.78375,-25.041548 -0.1661,-195.764762 -5.3142,10.9606 -5.31419,10.9606 -0.47109,191.312331 -0.47109,191.312339 5.95139,-6.50817 5.95139,-6.50815 -0.16601,-195.764788 z m -5.85495,-192.692132 c 2.36845,-4.64253 3.8887,-8.85852 3.37836,-9.36887 -2.17893,-2.17893 -11.48663,21.40503 -12.36376,31.32745 l -0.95824,10.83985 2.81869,-12.17873 c 1.55029,-6.6983 4.75652,-15.97717 7.12495,-20.6197 z m -15.24114,19.05584 c 0.66043,-4.81828 3.48426,-13.9239 6.27521,-20.2347 2.79093,-6.31081 4.83861,-11.57292 4.5504,-11.69358 -0.2882,-0.12064 -28.50472,-9.45382 -62.70337,-20.74037 -55.1061,-18.18661 -62.70043,-20.23227 -66.76002,-17.98286 -2.51937,1.39597 -5.31991,2.32539 -6.22343,2.06538 -0.90352,-0.26002 -1.16667,0.29757 -0.58478,1.23908 0.58189,0.94152 -0.66338,5.22342 -2.76726,9.51535 -2.10388,4.29193 -4.40381,11.50428 -5.11095,16.02743 l -1.2857,8.22393 29.76407,9.94435 29.76408,9.94436 2.33598,-11.30963 c 3.11863,-15.09896 5.91462,-18.73064 13.0431,-16.94151 4.56668,1.14617 5.32161,2.15689 4.20042,5.62371 -4.14777,12.8253 -6.19711,26.19315 -4.13504,26.97317 15.84246,5.99277 52.76125,18.09334 55.21995,18.09899 2.29206,0.005 3.5617,-2.51056 4.41734,-8.7531 z m -64.42978,-15.89941 c 0,-2.60235 1.34516,-8.54414 2.98925,-13.20399 3.65925,-10.3714 3.6634,-9.96419 -0.10163,-9.96419 -5.54856,0 -11.85993,22.24875 -7.53751,26.57116 2.66721,2.66728 4.64989,1.2163 4.64989,-3.40298 z m 87.01179,-21.67355 c -0.55283,-1.37007 -1.00516,-0.2491 -1.00516,2.49105 0,2.74015 0.45233,3.86112 1.00516,2.49104 0.55284,-1.37007 0.55284,-3.61201 0,-4.98209 z m -7.29832,0.15692 c 0,-6.00304 -9.76885,-10.62768 -52.58692,-24.89497 -35.06097,-11.68257 -48.76284,-15.37132 -57.38445,-15.44875 -10.00149,-0.0898 -15.87359,1.45112 -13.41844,3.52123 1.71016,1.44196 116.5594,38.74904 119.90234,38.94852 1.91811,0.11445 3.48747,-0.84226 3.48747,-2.12603 z m 3.35416,-2.0252 c -0.63615,-1.58976 -1.10838,-1.11754 -1.20399,1.204 -0.0865,2.10078 0.38446,3.2778 1.04668,2.6156 0.6622,-0.6622 0.73298,-2.38102 0.15723,-3.8196 z"
       style="fill:#000000;stroke-width:1.99283671" />
  </g>
</svg>
