<?xml version="1.0" encoding="UTF-8" standalone="no"?>
<svg
   xmlns:dc="http://purl.org/dc/elements/1.1/"
   xmlns:cc="http://creativecommons.org/ns#"
   xmlns:rdf="http://www.w3.org/1999/02/22-rdf-syntax-ns#"
   xmlns:svg="http://www.w3.org/2000/svg"
   xmlns="http://www.w3.org/2000/svg"
   id="svg8"
   version="1.1"
   viewBox="0 0 500 500"
   height="500mm"
   width="500mm">
  <defs
     id="defs2" />
  <metadata
     id="metadata5">
    <rdf:RDF>
      <cc:Work
         rdf:about="">
        <dc:format>image/svg+xml</dc:format>
        <dc:type
           rdf:resource="http://purl.org/dc/dcmitype/StillImage" />
        <dc:title></dc:title>
      </cc:Work>
    </rdf:RDF>
  </metadata>
  <g
     transform="translate(0,203)"
     id="layer1">
    <path
       id="path3778"
       d="m 196.6131,292.80075 c -18.03773,-2.6557 -34.19836,-9.58066 -41.34,-17.71453 l -6.36058,-7.24431 -0.0228,-215.561889 c -0.0126,-118.559021 -0.54695,-218.835351 -1.18749,-222.836271 -0.71963,-4.49496 -0.11529,-8.67253 1.58167,-10.93359 4.64481,-6.18879 32.19164,-16.07058 49.35327,-17.70433 27.52349,-2.62018 95.66096,-1.78166 108.23394,1.33197 16.07698,3.98139 28.2173,11.39831 30.80432,18.8194 1.19684,3.4333 4.95862,7.59861 8.53073,9.44582 l 6.38979,3.30429 V -28.363657 109.5654 l -7.2744,1.36467 -7.27441,1.36471 v 78.64323 78.64325 l -8.0307,7.25524 c -14.78119,13.35393 -39.04179,18.25452 -88.61498,17.90011 -18.28993,-0.13073 -38.44466,-1.0019 -44.78829,-1.93586 z m 91.55234,-4.46278 c 14.62026,-3.52173 21.35283,-7.5598 20.16668,-12.0956 -0.56087,-2.14485 0.002,-4.24056 1.25249,-4.65714 1.24974,-0.41659 0.63424,-1.386 -1.3678,-2.15426 -2.46737,-0.94681 -3.16067,-0.62111 -2.15196,1.01097 0.99947,1.61719 0.33052,1.9636 -2.03729,1.05499 -30.13239,-11.56288 -86.48496,-11.72116 -120.82141,-0.33935 -3.36074,1.11401 -3.55976,0.9484 -1.03921,-0.86474 1.7147,-1.23347 2.06303,-2.25698 0.7741,-2.27447 -1.28893,-0.0166 -3.62714,1.55062 -5.19601,3.48474 -2.36237,2.91236 -2.36784,3.22475 -0.0318,1.81813 2.16108,-1.30129 2.48927,-0.6543 1.40345,2.76679 -3.28139,10.3388 30.45043,17.34483 74.75514,15.52647 13.71745,-0.563 29.14958,-2.03743 34.29363,-3.27653 z m -110.62583,-5.27034 c -11.12111,-6.8964 -8.40452,-13.99646 7.74495,-20.24211 6.46753,-2.50125 6.92904,-2.95416 2.0784,-2.03958 -10.01821,1.88894 -24.88275,10.004 -25.61874,13.98615 -0.48183,2.60697 1.92294,4.84823 8.3136,7.74836 11.02695,5.00411 15.15599,5.30608 7.48179,0.54718 z m 142.32144,-1.88816 c 10.05084,-5.1131 5.70073,-12.52775 -10.75648,-18.33422 -12.92262,-4.55935 -15.35742,-3.78347 -3.93705,1.2546 13.90409,6.13374 15.2116,12.01687 4.25245,19.13371 -5.62144,3.65054 -5.62518,3.66858 -0.47052,2.2667 2.8578,-0.7772 7.76802,-2.72157 10.9116,-4.32079 z m -160.55652,-11.2295 c 0,-3.84095 21.24531,-11.94613 38.45044,-14.66901 20.99353,-3.32243 74.82544,-3.3091 92.13048,0.0228 10.05943,1.93684 13.84087,1.95976 16.08474,0.0975 1.61342,-1.339 2.48679,-3.15737 1.9408,-4.04077 -2.32403,-3.76036 -44.4747,-6.78237 -77.87994,-5.58364 -35.62909,1.27854 -54.30276,4.49919 -68.71354,11.85101 -7.67344,3.91469 -10.55829,9.43413 -6.86258,13.12982 2.11003,2.11009 4.8496,1.65375 4.8496,-0.80774 z m 173.71711,-8.01014 c -5.16636,-5.70879 -20.84944,-10.89349 -23.85624,-7.88668 -3.6694,3.66939 -2.78404,4.81511 5.68089,7.35126 4.38638,1.3142 9.70173,4.29719 11.8119,6.62888 3.41034,3.76841 4.18302,3.89304 6.95424,1.12185 2.7712,-2.77122 2.70555,-3.57292 -0.59079,-7.21531 z m -139.42349,3.96831 c 2.74088,-1.1778 3.09487,-1.82516 1.03921,-1.90049 -1.71468,-0.0628 -4.52052,0.79237 -6.2352,1.90049 -3.79925,2.45526 -0.51771,2.45526 5.19599,0 z m 99.76328,-2.0784 c -2.28624,-0.98244 -6.02735,-1.75874 -8.3136,-1.72513 -3.34164,0.049 -3.13783,0.3874 1.03919,1.72513 7.10642,2.27587 12.57064,2.27587 7.27441,0 z m -87.81246,-1.37649 c -1.4289,-0.57657 -3.7671,-0.57657 -5.19601,0 -1.4289,0.57657 -0.25979,1.04833 2.598,1.04833 2.8578,0 4.0269,-0.47176 2.59801,-1.04833 z m 12.4704,-2.07839 c -1.4289,-0.57657 -3.7671,-0.57657 -5.19599,0 -1.4289,0.57657 -0.25981,1.04832 2.598,1.04832 2.85779,0 4.0269,-0.47175 2.59799,-1.04832 z m 58.19526,0 c -1.42892,-0.57657 -3.76712,-0.57657 -5.19601,0 -1.4289,0.57657 -0.2598,1.04832 2.598,1.04832 2.85781,0 4.02691,-0.47175 2.59801,-1.04832 z m -91.7698,-14.27431 c 30.78182,-6.18971 101.42814,-5.98064 122.10577,0.36135 3.00527,0.92174 3.03351,0.78994 0.22442,-1.04706 -11.09746,-7.25725 -93.15013,-8.23046 -123.02974,-1.45926 -16.10759,3.65025 -27.45298,8.02713 -29.53357,11.3936 -0.7939,1.28455 2.22136,0.42536 6.70056,-1.90933 4.47922,-2.33471 15.06887,-5.6374 23.53256,-7.3393 z m 146.22392,7.44559 c -3.48646,-3.47852 -17.5625,-8.58517 -17.5625,-6.37151 0,1.15846 1.63675,2.13945 3.6372,2.17996 2.00047,0.0405 5.97541,1.41027 8.83321,3.04394 6.1131,3.49456 7.83285,3.88214 5.09209,1.14761 z M 188.40216,237.59109 c 19.08211,-4.01021 84.84964,-5.41504 100.62084,-2.14931 l 8.13198,1.6839 -1.37314,-57.83323 C 295.0266,147.48416 294.4069,85.259458 294.40468,41.015312 l -0.004,-80.443887 -7.794,-1.600952 c -4.28671,-0.880525 -23.69378,-1.572305 -43.12684,-1.537288 -39.8389,0.07179 -69.22653,4.281738 -83.02686,11.894096 l -8.4228,4.646082 -0.53425,138.396617 -0.53424,138.39664 9.88705,-4.73141 c 5.43787,-2.60226 17.83693,-6.40211 27.55346,-8.44412 z m 147.56651,-65.13005 c 0,-76.349644 -0.0278,-76.845863 -4.54871,-81.057681 -2.50179,-2.330782 -5.30763,-4.237778 -6.2352,-4.237778 -0.92757,0 -1.6865,34.958949 -1.6865,77.686569 v 77.68657 l 4.6764,3.26208 c 2.57202,1.79415 5.37787,3.31115 6.23521,3.37111 0.85733,0.0602 1.5588,-34.45994 1.5588,-76.71087 z m -14.54881,-8.17222 c 0,-82.662991 0.14435,-81.280043 -8.48361,-81.280043 -1.12539,0 -1.9084,32.342093 -1.9084,78.826883 0,84.13056 -0.50243,79.52504 8.8332,80.96896 0.85735,0.13261 1.55881,-35.19952 1.55881,-78.5158 z m -12.47041,-63.61363 c 0,-136.828119 -0.0415,-138.21372 -4.1568,-138.21372 -2.28625,0 -4.85827,0.23382 -5.7156,0.5196 -1.6183,0.539429 -0.74719,271.5965 0.88166,274.34905 0.50735,0.85734 2.73782,1.55879 4.95661,1.55879 3.95281,0 4.03413,-2.78643 4.03413,-138.21372 z m 37.54786,7.20129 c 3.91127,-2.09323 4.02017,-5.80779 4.02017,-137.121156 V -164.21429 l -6.2352,-3.22436 -6.23521,-3.22435 V -36.600616 97.461755 l 5.26088,3.447075 c 6.15091,4.03023 5.42163,6.37643 -0.92605,2.97924 -3.73415,-1.99843 -4.33483,-1.73378 -4.33483,1.91002 0,4.70167 2.43126,5.29965 8.45024,2.07839 z M 335.96867,-45.951379 V -179.06834 l -5.71561,-5.29735 -5.7156,-5.29736 -0.53494,134.756608 -0.53492,134.75661 4.69172,3.611493 c 2.58047,1.986308 5.39321,3.632277 6.25055,3.657697 0.85733,0.02535 1.5588,-59.856416 1.5588,-133.070737 z m -14.54881,-9.18044 c 0,-131.856641 -0.066,-134.019121 -4.15681,-136.208441 -4.13695,-2.21404 -4.1568,-1.58061 -4.1568,132.598186 0,74.152556 0.62353,135.446372 1.38561,136.208439 0.76207,0.762088 2.63262,1.385609 4.15681,1.385609 2.28067,0 2.77119,-23.716229 2.77119,-133.983793 z M 157.58897,-59.01368 c -0.99929,-34.292244 0.65461,-36.721659 28.16219,-41.36733 18.53673,-3.13062 19.27661,-2.16514 19.28499,25.166135 l 0.007,22.088331 44.67886,0.03821 44.67886,0.03821 v -71.946826 -71.94683 l -21.79003,-1.33323 c -38.45001,-2.35259 -91.46687,3.757 -112.20463,12.93028 l -9.41506,4.16474 v 71.7565 c 0,67.459216 0.21782,71.677065 3.63721,70.430104 3.16516,-1.154256 3.09773,-0.702976 -0.5196,3.477247 l -4.15681,4.803642 4.15681,-2.544347 c 3.82773,-2.342918 4.10326,-4.381833 3.48044,-25.754836 z m 9.46627,22.29785 c -0.69063,-0.690634 -2.48325,-0.764474 -3.9836,-0.164091 -1.65802,0.663481 -1.16552,1.155973 1.25569,1.255703 2.19099,0.09025 3.41854,-0.400983 2.72791,-1.091618 z m 27.7135,-10.015751 8.18222,-5.414741 v -21.539241 c 0,-26.541377 -0.6646,-27.398077 -18.71537,-24.124853 -23.64437,4.287542 -22.85267,3.201971 -22.85267,31.334674 v 24.434007 l 5.71562,1.910512 c 7.48834,2.503074 17.53553,0.106456 27.6702,-6.600358 z m -23.97962,-7.330951 c -8.07684,-15.618876 -0.5578,-29.719374 16.02872,-30.05877 l 8.85871,-0.18127 0.6424,11.320127 c 0.95819,16.885406 -0.48727,20.36798 -9.4918,22.868692 -11.28701,3.134598 -12.53383,2.827616 -16.03803,-3.948779 z m 16.91309,-1.093927 c 8.33579,-5.838614 8.54947,-19.749167 0.37062,-24.126359 -5.86712,-3.139989 -15.97761,1.294059 -17.58884,7.713759 -1.86704,7.438867 0.85607,15.279838 6.02953,17.361548 6.2709,2.5233 6.22591,2.527117 11.18869,-0.948948 z m 118.7804,11.902323 c -0.87467,-4.589137 -10.00358,-6.282634 -10.00358,-1.855753 0,2.709009 2.87846,4.391402 8.9856,5.25186 0.94117,0.132602 1.39927,-1.395645 1.01798,-3.396107 z m -105.67023,-0.438417 c 1.68156,-1.063463 2.36076,-2.63021 1.50931,-3.481662 -0.85146,-0.851453 -3.12917,0.03299 -5.0616,1.965392 -3.75645,3.756469 -1.50774,4.716324 3.55229,1.51627 z m 89.43146,-0.375504 c -7.09557,-2.880334 -65.5705,-4.686843 -75.86167,-2.343649 -5.94533,1.353692 -0.61671,1.659443 18.70563,1.073313 14.86056,-0.450784 33.56617,0.06618 41.56802,1.148812 19.29889,2.611099 21.7684,2.63035 15.58802,0.121524 z m 4.1568,-3.561935 c 0,-3.8727 -78.79821,-6.490618 -84.58775,-2.810266 -1.36997,0.870888 9.85339,1.262514 24.94082,0.87028 22.2373,-0.578115 40.67989,0.518804 58.08812,3.454929 0.85735,0.144594 1.55881,-0.537124 1.55881,-1.514943 z m 14.54881,-72.822238 c 0,-64.21301 -0.37665,-72.66625 -3.2876,-73.78328 -9.42318,-3.61601 -9.18282,-5.46165 -9.18282,70.51027 v 71.771845 l 4.67642,1.879686 c 2.57201,1.033827 5.37786,1.938968 6.23519,2.011427 0.85735,0.07246 1.55881,-32.503022 1.55881,-72.389948 z"
       style="fill:#000000;stroke-width:2.0784018" />
  </g>
</svg>
