<?xml version="1.0" encoding="UTF-8" standalone="no"?>
<svg
   xmlns:dc="http://purl.org/dc/elements/1.1/"
   xmlns:cc="http://creativecommons.org/ns#"
   xmlns:rdf="http://www.w3.org/1999/02/22-rdf-syntax-ns#"
   xmlns:svg="http://www.w3.org/2000/svg"
   xmlns="http://www.w3.org/2000/svg"
   id="svg8"
   version="1.1"
   viewBox="0 0 500 500"
   height="500mm"
   width="500mm">
  <defs
     id="defs2" />
  <metadata
     id="metadata5">
    <rdf:RDF>
      <cc:Work
         rdf:about="">
        <dc:format>image/svg+xml</dc:format>
        <dc:type
           rdf:resource="http://purl.org/dc/dcmitype/StillImage" />
        <dc:title></dc:title>
      </cc:Work>
    </rdf:RDF>
  </metadata>
  <g
     transform="translate(0,203)"
     id="layer1">
    <path
       id="path532"
       d="m 87.991733,281.43288 -5.57017,-4.7909 -0.52627,-188.179295 -0.52627,-188.179325 11.09543,-16.50348 c 8.945357,-13.30544 17.660887,-22.26845 44.976507,-46.25357 l 33.88108,-29.75008 h 117.73402 117.73401 l 5.57018,4.79081 5.57016,4.79081 0.56802,182.3199014 c 0.31243,100.2759496 0.0534,185.1981886 -0.57578,188.7161086 -1.79392,10.03161 -48.54299,63.57581 -71.98138,82.44415 l -19.11231,15.38576 H 210.19542 93.561903 Z m 243.579887,-3.15015 c 3.91444,-3.91443 3.97052,-6.61752 3.97052,-191.357608 0,-181.527902 -0.11872,-187.533632 -3.7943,-192.073852 l -3.79431,-4.68677 -115.9876,-0.54239 c -115.155907,-0.5385 -116.025497,-0.51256 -121.277027,3.61829 l -5.28945,4.16069 V 85.856655 c 0,185.808555 0.0558,188.511325 3.97052,192.426075 3.88079,3.88079 6.61753,3.97052 121.100817,3.97052 114.48331,0 117.22005,-0.0897 121.10083,-3.97052 z m -214.1766,-28.50741 c -1.6322,-1.96668 -2.10218,-46.81228 -1.73203,-165.27285 l 0.50798,-162.573816 93.17775,-0.516183 c 73.22571,-0.405652 93.5178,0.01946 94.76575,1.98526 0.87338,1.375794 1.60167,74.908821 1.61839,163.406727 0.0232,122.535812 -0.53769,161.473362 -2.35192,163.287592 -3.7067,3.7067 -182.90004,3.40154 -185.98592,-0.31673 z M 301.30803,86.20888 300.8001,-76.086086 l -90.82562,-0.516342 -90.82562,-0.51634 V 85.692534 248.50384 h 91.33355 91.33353 z m -104.73405,54.97378 c 0,-1.15634 -0.89337,-1.55029 -1.98526,-0.87546 -1.0919,0.67483 -1.98526,-0.61249 -1.98526,-2.86072 0,-4.48842 3.04936,-5.54245 4.64657,-1.60612 0.77421,1.90806 1.39733,1.93349 2.69617,0.10999 1.72858,-2.42676 5.9173,-2.50735 9.62676,-0.18523 1.14403,0.71616 3.21185,0.60263 4.59516,-0.2523 2.92308,-1.80657 12.18475,-0.42598 12.18475,1.81631 0,4.03982 -21.85483,7.11914 -24.21083,3.41125 -1.196,-1.88226 -1.54349,-1.86829 -1.56714,0.0631 -0.0167,1.36487 -0.92377,2.48158 -2.01566,2.48158 -1.0919,0 -1.98526,-0.9461 -1.98526,-2.10243 z m 49.63148,-2.4353 c 0,-5.48267 2.64455,-7.1549 5.0809,-3.21281 0.73959,1.19668 -0.10105,3.62153 -1.86811,5.38857 -2.9602,2.96022 -3.21279,2.78917 -3.21279,-2.17576 z m -77.07437,-0.53028 c 0.89788,-4.31221 4.42121,-4.57607 5.2271,-0.39146 0.41849,2.17307 -0.55522,3.47421 -2.59996,3.47421 -1.90729,0 -3.00164,-1.28415 -2.62714,-3.08275 z m -1.20157,-11.94851 c -3.74427,-3.74426 -3.87699,-5.2552 -0.73738,-8.3948 3.57497,-3.57498 9.12799,-2.87103 11.44072,1.45033 1.5483,2.89306 1.28731,4.59651 -1.06459,6.9484 -3.91406,3.91406 -5.72149,3.91333 -9.63875,-0.004 z m 8.41393,-4.32502 c -0.36799,-1.91082 -1.98466,-3.47421 -3.59259,-3.47421 -1.60793,0 -3.22459,1.56339 -3.59258,3.47421 -0.46944,2.4376 0.60249,3.4742 3.59258,3.4742 2.9901,0 4.06202,-1.0366 3.59259,-3.4742 z m 28.03345,4.30043 c -3.53302,-4.25705 0.0248,-9.7599 6.31027,-9.7599 3.4926,0 4.9238,1.25201 5.41678,4.73864 1.06042,7.49983 -6.85663,10.88974 -11.72705,5.02126 z m 9.07178,-4.82395 c 0,-4.2554 -5.76851,-3.64076 -6.60519,0.7038 -0.51093,2.6531 0.29761,3.46164 2.95071,2.95071 2.00995,-0.38709 3.65448,-2.03162 3.65448,-3.65451 z m 28.86534,5.08562 c -1.32848,-1.60071 -1.80222,-4.74201 -1.06531,-7.06383 1.94083,-6.11503 11.65323,-4.73955 12.57517,1.7809 1.03279,7.30436 -6.83511,10.91565 -11.50986,5.28293 z m 8.85459,-5.08562 c 0,-4.2554 -5.76851,-3.64076 -6.60519,0.7038 -0.51093,2.6531 0.29761,3.46164 2.95071,2.95071 2.00995,-0.38709 3.65448,-2.03162 3.65448,-3.65451 z M 163.88196,89.787891 c -0.71045,-1.14955 -3.9191,-2.090067 -7.13034,-2.090067 -3.33117,0 -5.85167,-1.065727 -5.86901,-2.481574 -0.0203,-1.654376 -0.67189,-1.488945 -1.95486,0.496315 -1.49964,2.32051 -1.93117,1.772718 -1.95486,-2.481575 -0.0298,-5.346621 2.5783,-7.283778 4.85243,-3.604159 0.63065,1.020404 5.20883,1.474492 10.17373,1.009088 8.7865,-0.823645 9.0104,-0.705204 8.40051,4.443705 -0.66103,5.580647 -4.33717,8.236247 -6.5176,4.708267 z m 13.26629,-24.424236 0.56576,-20.34891 h 32.75678 32.75679 l 0.56575,20.34891 0.56578,20.34891 h -33.88832 -33.88831 z m 63.10144,0.496315 V 47.992634 h -30.77153 -30.77152 v 16.543823 c 0,9.099119 0.59558,17.13942 1.32351,17.867335 0.72793,0.727936 14.57511,1.323513 30.77153,1.323513 h 29.44801 z m -86.95437,5.558726 c -4.57216,-4.572152 -1.38373,-13.499764 4.82134,-13.499764 2.78646,0 8.67842,5.391349 8.67842,7.941038 0,2.549688 -5.89196,7.941038 -8.67842,7.941038 -1.34146,0 -3.51107,-1.07204 -4.82134,-2.382312 z m 8.53661,-5.558726 c 0,-1.607941 -1.56339,-3.224598 -3.4742,-3.592586 -2.4376,-0.469434 -3.4742,0.602487 -3.4742,3.592586 0,2.990098 1.0366,4.062019 3.4742,3.592585 1.91081,-0.367988 3.4742,-1.984644 3.4742,-3.592585 z m 189.59205,197.037 c 6.34209,-5.18649 12.51009,-11.48208 13.70669,-13.99022 2.32321,-4.86958 3.28165,-370.42471 0.98689,-376.40475 -0.94226,-2.45549 -4.22288,-0.76223 -15.82252,8.16663 -13.17696,10.14302 -14.4915,11.7693 -13.2044,16.33592 0.78617,2.78933 1.42939,88.377963 1.42939,190.19696 0,101.81899 0.30891,185.12545 0.68644,185.12545 0.37754,0 5.87542,-4.2435 12.21751,-9.42999 z m 42.44967,-46.00269 21.07887,-24.66117 v -42.69868 -42.69871 l -7.4229,8.7947 c -4.08259,4.83709 -11.20882,12.81485 -15.83606,17.72837 l -8.41315,8.93367 -0.0461,-102.855361 -0.046,-102.855357 15.84452,-18.24547 15.84449,-18.245472 0.008,-39.70519 c 0.004,-21.83786 -0.71902,-40.8496 -1.60657,-42.24833 -1.12663,-1.77547 -8.32884,5.26758 -23.8596,23.33233 -19.04501,22.15236 -21.95058,26.42718 -20.1937,29.70994 1.37036,2.56056 2.05214,64.996431 2.05214,187.932384 0,101.253826 0.34154,183.725636 0.75898,183.270696 0.41744,-0.45496 10.24448,-11.92472 21.83786,-25.48835 z m 6.98689,-98.32887 14.12917,-16.77864 -0.51492,-98.1822156 -0.5149,-98.1822044 -14.39313,16.867256 -14.39313,16.867258 0.0631,35.061605 c 0.0532,29.5824474 0.47527,34.5186764 2.70045,31.5874014 1.45051,-1.910813 3.20884,-3.474205 3.90737,-3.474205 0.69855,0 1.27009,12.3866496 1.27009,27.5259006 0,24.519841 -0.43362,28.077168 -3.97052,32.573602 -3.61877,4.600522 -3.97052,8.053762 -3.97052,38.980292 0,18.66293 0.3505,33.93259 0.77886,33.93259 0.42838,0 7.13699,-7.55038 14.90805,-16.77864 z M 389.14415,33.861497 c 0,-15.376549 -0.70387,-23.388104 -1.98526,-22.596164 -1.14506,0.707685 -1.98526,11.309467 -1.98526,25.050064 0,15.37655 0.70387,23.388104 1.98526,22.596164 1.14506,-0.707685 1.98526,-11.309467 1.98526,-25.050064 z m -29.0449,-166.945957 c -1.11467,-1.80358 -244.99816,-2.17435 -249.67526,-0.37957 -1.7016,0.65296 -6.24002,5.56648 -10.08536,10.91892 l -6.991537,9.73172 116.630677,0.0304 c 65.11022,0.0169 117.86996,0.81486 119.43609,1.80624 2.00454,1.26889 6.92302,-1.40952 17.22956,-9.38254 7.93329,-6.13711 13.98841,-11.86343 13.45583,-12.72517 z m 27.08874,-27.58434 c 17.15594,-19.96334 21.71733,-26.42377 19.6022,-27.76324 -1.51612,-0.96012 -54.2683,-1.75935 -117.22705,-1.77607 l -114.47048,-0.0304 -9.67166,7.64501 c -5.31942,4.20476 -15.00333,12.48252 -21.51981,18.39502 -6.51648,5.9125 -15.64753,14.08601 -20.29122,18.16336 l -8.44307,7.41336 121.60286,0.0304 c 75.08131,0.0188 122.74211,0.76664 124.58076,1.95485 1.63784,1.05846 3.09057,1.93814 3.22829,1.95486 0.13777,0.0167 10.31185,-11.6775 22.60918,-25.98715 z"
       style="fill:#000000;stroke-width:1.98525953" />
  </g>
</svg>
