<?xml version="1.0" encoding="UTF-8" standalone="no"?>
<!-- Created with Inkscape (http://www.inkscape.org/) -->

<svg
   xmlns:dc="http://purl.org/dc/elements/1.1/"
   xmlns:cc="http://creativecommons.org/ns#"
   xmlns:rdf="http://www.w3.org/1999/02/22-rdf-syntax-ns#"
   xmlns:svg="http://www.w3.org/2000/svg"
   xmlns="http://www.w3.org/2000/svg"
   xmlns:sodipodi="http://sodipodi.sourceforge.net/DTD/sodipodi-0.dtd"
   xmlns:inkscape="http://www.inkscape.org/namespaces/inkscape"
   width="500"
   height="500"
   viewBox="0 0 132.29166 132.29167"
   version="1.1"
   id="svg8"
   inkscape:version="0.92.4 (5da689c313, 2019-01-14)"
   sodipodi:docname="icon.svg">
  <defs
     id="defs2" />
  <sodipodi:namedview
     id="base"
     pagecolor="#ffffff"
     bordercolor="#666666"
     borderopacity="1.0"
     inkscape:pageopacity="0.0"
     inkscape:pageshadow="2"
     inkscape:zoom="0.98994949"
     inkscape:cx="216.34753"
     inkscape:cy="286.87536"
     inkscape:document-units="mm"
     inkscape:current-layer="layer1"
     showgrid="false"
     units="px"
     inkscape:window-width="1920"
     inkscape:window-height="1017"
     inkscape:window-x="-8"
     inkscape:window-y="-8"
     inkscape:window-maximized="1" />
  <metadata
     id="metadata5">
    <rdf:RDF>
      <cc:Work
         rdf:about="">
        <dc:format>image/svg+xml</dc:format>
        <dc:type
           rdf:resource="http://purl.org/dc/dcmitype/StillImage" />
        <dc:title></dc:title>
      </cc:Work>
    </rdf:RDF>
  </metadata>
  <g
     inkscape:label="Ebene 1"
     inkscape:groupmode="layer"
     id="layer1"
     transform="translate(0,-164.70832)">
    <path
       style="fill:#000000;stroke-width:0.52831239"
       d="m 58.153487,290.48973 v -4.49066 h -2.620995 -2.620989 l -0.152649,-4.62273 -0.152647,-4.62273 -2.773641,-0.15969 -2.77364,-0.15969 V 245.2071 213.97997 l 2.905719,-3.04635 2.905718,-3.04634 v -7.52287 -7.52288 l 2.641562,-2.467 2.641562,-2.467 v -7.63227 -7.63227 l 3.053118,-3.02126 3.053112,-3.02126 h 11.211324 11.211318 v 61.43437 61.43436 l -2.790256,2.75559 -2.79025,2.7556 H 69.627668 58.153487 Z m 22.189123,-2.72345 c 0,-6.59922 -0.01337,-6.67369 -1.032037,-5.7518 -0.742654,0.6721 -1.075972,1.76906 -1.188703,3.91215 l -0.156666,2.97816 -8.056765,0.14584 -8.056765,0.14584 v -1.5987 c 0,-1.42412 -0.173075,-1.5987 -1.584937,-1.5987 H 58.6818 v 4.2265 4.2265 H 69.512205 80.34261 Z m 5.681583,-59.44585 -0.134303,-60.92749 -10.575721,-0.14262 -10.575716,-0.14263 -2.61223,2.65211 -2.612236,2.65211 h 10.528242 10.528242 l 2.639137,-2.50948 2.639138,-2.50949 -2.488912,2.75101 -2.488912,2.75101 v 7.56913 7.56913 l -2.905718,2.86962 -2.905719,2.86963 v 7.43428 7.43428 l -2.653591,2.61369 -2.653592,2.61369 0.144107,31.31066 c 0.09447,20.52529 -0.03788,31.37669 -0.384204,31.50235 -0.290572,0.10543 -0.337079,0.39566 -0.103354,0.64495 0.511935,0.54603 1.502616,-0.85531 1.197135,-1.69338 -0.223117,-0.61211 4.250828,-5.33375 4.663203,-4.92137 0.512827,0.51282 0.564739,14.76733 0.05445,14.9518 -0.290572,0.10505 -0.350007,0.38204 -0.132078,0.61553 0.536754,0.5751 1.084187,-0.0499 1.179742,-1.34694 0.07681,-1.04256 3.772748,-5.27268 4.606837,-5.27268 0.231602,0 0.421092,3.22826 0.421092,7.17392 v 7.17393 l 2.37963,-2.37963 2.37963,-2.37963 z m -8.418479,58.86735 c 0.09285,-0.65379 -0.08546,-1.18871 -0.396235,-1.18871 -0.310779,0 -0.565056,0.24363 -0.565056,0.54139 0,1.031 -2.728327,1.66411 -4.323641,1.00332 -0.818287,-0.33895 -1.487796,-0.82517 -1.487796,-1.08049 0,-0.72858 -1.390207,-0.54296 -2.070229,0.27642 -1.145794,1.38059 -3.274771,1.52558 -4.887995,0.33287 l -1.494775,-1.10514 v 1.35111 1.3511 l 7.528452,-0.14658 c 7.354199,-0.1432 7.532362,-0.1741 7.697275,-1.33529 z m -10.354211,-0.32796 c 0.79184,-0.60147 0.587299,-0.70013 -1.584937,-0.76446 -2.304821,-0.0683 -2.416279,-0.0146 -1.468587,0.70739 1.244424,0.94802 1.865291,0.95963 3.053524,0.0571 z m 7.27967,-0.0683 c 0,-0.5453 -0.535519,-0.78722 -1.717015,-0.77567 -1.624139,0.0159 -1.661543,0.0588 -0.691493,0.79247 1.320707,0.99894 2.408508,0.99135 2.408508,-0.0168 z m 0.41202,-8.32092 c 0.08132,-3.70479 -0.01881,-6.73598 -0.222557,-6.73598 -0.203733,0 -0.805185,0.39346 -1.336567,0.87435 -0.726065,0.65708 -0.966146,1.6417 -0.966146,3.96234 v 3.088 H 64.22908 56.040238 v -1.58494 c 0,-1.33839 -0.205456,-1.58494 -1.320781,-1.58494 -1.305492,0 -1.320782,0.0521 -1.320782,4.5016 v 4.50159 l 10.698327,-0.14301 10.698327,-0.14302 z m -3.053582,-0.99579 v -1.65619 l -1.09497,1.39203 c -1.386234,1.76231 -3.876757,1.86876 -5.610705,0.2398 l -1.226493,-1.15223 -1.073462,1.15223 c -1.469395,1.57721 -4.381062,1.56558 -5.493007,-0.022 l -0.822424,-1.17418 v 1.43833 1.43834 h 7.66053 7.660531 v -1.65619 z m -10.053236,0.0919 c 0.427441,-0.27032 0.592819,-0.67584 0.36751,-0.90116 -0.225315,-0.22531 -0.60476,-0.094 -0.843208,0.29184 -0.303479,0.49104 -0.541964,0.52607 -0.794926,0.11678 -0.198756,-0.3216 -0.970805,-0.58472 -1.715663,-0.58472 -1.143912,0 -1.252126,0.1231 -0.696601,0.79247 0.738428,0.88975 2.509727,1.02672 3.682888,0.28479 z m 6.883361,-0.28479 c -0.712957,-0.85906 -3.169874,-1.09793 -3.169874,-0.30818 0,0.61034 0.959922,1.00523 2.57417,1.05894 1.055769,0.0351 1.149693,-0.0832 0.595704,-0.75076 z m 0.264156,-1.84909 c -0.200013,-0.32363 -4.408091,-0.52832 -10.861586,-0.52832 -6.671169,0 -10.535067,0.19377 -10.535067,0.52832 0,0.33507 3.972736,0.52831 10.861586,0.52831 7.10652,0 10.748701,-0.18265 10.535067,-0.52831 z m -10.830405,-5.01897 v -3.96234 h -5.283124 -5.283124 v 3.96234 3.96234 h 5.283124 5.283124 z m -7.581608,2.25444 c -0.169659,-0.64878 -0.07852,-1.40955 0.202538,-1.6906 0.329137,-0.32914 0.511009,0.0907 0.511009,1.17959 0,1.97563 -0.278401,2.17501 -0.713547,0.51101 z m 3.389079,0.68345 c -0.628607,-0.39776 -0.640145,-0.62256 -0.06739,-1.31269 1.002901,-1.20843 1.618353,-1.02282 1.618353,0.48805 0,1.40984 -0.340254,1.59075 -1.550967,0.82464 z m -2.088709,-4.78698 c -0.0234,-1.73764 0.02185,-1.78729 0.75076,-0.82357 0.700318,0.9259 0.775666,0.9357 0.775666,0.10089 0,-0.50854 0.205857,-0.7974 0.457461,-0.64189 0.251603,0.1555 0.341749,0.88802 0.200325,1.62783 -0.195486,1.02263 -0.419496,1.21035 -0.934394,0.78303 -0.488183,-0.40516 -0.753711,-0.37155 -0.951088,0.12036 -0.150603,0.37534 -0.285031,-0.14965 -0.29873,-1.16665 z m 17.266867,1.98117 -0.155224,-3.83027 -5.151046,-0.15121 -5.151046,-0.1512 v 3.98147 3.98147 h 5.30627 5.306269 z m -7.419155,1.96856 c -0.140193,-0.73336 -0.04903,-1.46062 0.202565,-1.61611 0.251604,-0.15551 0.457461,0.44452 0.457461,1.33338 0,1.96132 -0.313474,2.09561 -0.660026,0.28273 z m 2.555056,0.57266 c 0.451623,-0.33023 0.74491,-0.94795 0.651753,-1.37271 -0.09316,-0.42475 0.187234,-0.77228 0.623092,-0.77228 0.466954,0 0.85977,0.58264 0.956314,1.41843 0.14696,1.27222 -0.0021,1.41371 -1.444216,1.3727 -1.334908,-0.0379 -1.468587,-0.14771 -0.786943,-0.64614 z m -1.333228,-4.49598 c -0.02298,-1.25106 0.137245,-1.65194 0.510926,-1.27826 0.360499,0.3605 0.37181,0.97625 0.0335,1.82268 -0.480083,1.20109 -0.512949,1.16822 -0.544416,-0.54442 z m 1.317448,1.079 c -0.163001,-0.26373 -0.07323,-1.03639 0.199485,-1.71702 0.463795,-1.15749 0.498019,-1.12648 0.529337,0.47953 0.03386,1.73612 -0.18792,2.11269 -0.728822,1.23749 z m -6.10575,-7.70932 v -3.96234 h -5.283124 -5.283124 v 3.96234 3.96234 h 5.283124 5.283124 z m -7.396374,2.94893 c 0,-0.26681 -0.144306,-0.86116 -0.32068,-1.32078 -0.210432,-0.54838 -0.0288,-0.83568 0.528313,-0.83568 0.553383,0 0.848992,0.45988 0.848992,1.32078 0,0.72643 -0.237741,1.32078 -0.528312,1.32078 -0.290572,0 -0.528313,-0.2183 -0.528313,-0.4851 z m 3.561888,0.13662 c 0.468587,-0.18929 0.505938,-0.54578 0.130652,-1.24701 -0.28904,-0.54007 -0.3203,-1.10878 -0.06947,-1.2638 0.676937,-0.41837 1.13174,0.23527 1.13174,1.62656 0,0.83771 -0.296267,1.21937 -0.924547,1.19102 -0.545266,-0.0246 -0.655361,-0.15045 -0.268377,-0.30677 z m -3.651196,-3.72147 c -0.611957,-0.73736 -0.537763,-0.79014 0.621764,-0.44227 1.273686,0.38212 1.282169,0.36853 0.260013,-0.41654 -1.272632,-0.97745 -0.508987,-2.26074 0.796885,-1.33915 0.633854,0.44732 0.581302,0.49446 -0.268573,0.24086 -0.983124,-0.29336 -0.992312,-0.26521 -0.132078,0.40464 0.508501,0.39596 0.924547,0.96546 0.924547,1.26555 0,0.9601 -1.483482,1.15334 -2.202558,0.28691 z m 3.859441,-0.28863 c -0.03957,-0.5085 -0.357234,-0.92454 -0.705921,-0.92454 -0.488129,0 -0.490157,-0.14382 -0.0088,-0.62517 0.83999,-0.83999 1.309121,-0.27046 1.021571,1.2402 -0.146528,0.76981 -0.261964,0.88625 -0.306844,0.30951 z m 14.61187,1.05663 -0.155224,-3.83027 h -5.018968 -5.018968 l -0.155223,3.83027 -0.155224,3.83026 h 5.329415 5.329415 z m -7.416746,1.98117 c -0.138867,-0.72643 -0.04771,-1.32078 0.202566,-1.32078 0.250277,0 0.455051,0.59435 0.455051,1.32078 0,0.72643 -0.09116,1.32078 -0.202566,1.32078 -0.111415,0 -0.316184,-0.59435 -0.455051,-1.32078 z m 3.487364,-0.003 c 0.04179,-0.7243 0.350889,-1.31708 0.686901,-1.31728 0.352453,-2.2e-4 0.493111,0.45016 0.332462,1.06448 -0.415745,1.58981 -1.106376,1.76109 -1.019363,0.2528 z m -3.167159,-2.29108 c -0.792865,-0.54456 -0.727634,-2.60848 0.09239,-2.92316 0.406726,-0.15607 0.902717,-0.0197 1.102202,0.3031 0.219636,0.35537 0.122109,0.43817 -0.247234,0.2099 -0.335468,-0.20733 -0.609942,-0.15063 -0.609942,0.126 0,0.27664 0.356611,0.63982 0.792469,0.80707 0.435857,0.16726 0.792468,0.52387 0.792468,0.79247 0,0.6571 -1.292305,1.11734 -1.922349,0.68462 z m 1.250954,-0.93071 c -0.175558,-0.17555 -0.631228,-0.19431 -1.012601,-0.0417 -0.42145,0.16865 -0.296267,0.29384 0.319191,0.31919 0.556926,0.0229 0.868963,-0.10193 0.69341,-0.27748 z m 1.831015,-0.47323 c 0.01078,-0.87171 0.129172,-1.16437 0.26312,-0.65033 0.133949,0.51403 0.125142,1.22725 -0.01955,1.58493 -0.144721,0.35769 -0.254314,-0.0629 -0.243547,-0.9346 z m 4.123505,-15.0569 v -12.15118 l -10.698327,-0.11057 c -5.88408,-0.0608 -8.380356,-0.1883 -5.547281,-0.28329 l 5.151046,-0.17272 v -3.94321 -3.94321 h -5.283124 -5.283124 v 16.37768 16.37769 h 10.830405 10.830405 z m -12.415343,10.98725 c -1.388426,-0.78165 -1.831173,-1.48642 -1.841005,-2.93049 -0.01,-1.47018 1.744002,-3.30195 3.161786,-3.30195 1.426444,0 3.169875,1.83318 3.169875,3.33306 0,2.4323 -2.478197,4.03235 -4.490656,2.89938 z m 2.788164,-0.71511 c 1.390397,-0.97387 1.517366,-2.67751 0.299828,-4.02287 -1.084932,-1.19884 -2.186891,-1.22822 -3.442627,-0.0918 -1.313575,1.18877 -1.21608,3.11717 0.208034,4.11466 0.645793,0.45233 1.30612,0.82242 1.467382,0.82242 0.161262,0 0.82159,-0.37009 1.467383,-0.82242 z m -2.904435,-10.81599 c -2.305862,-0.91816 -2.203845,-4.64266 0.156618,-5.71815 2.106615,-0.95984 4.424913,0.53225 4.442221,2.85907 0.01696,2.27767 -2.355244,3.75244 -4.598839,2.85908 z m 2.904435,-0.80689 c 1.589269,-1.11317 1.518792,-3.15391 -0.146602,-4.24512 -1.223502,-0.80167 -1.418059,-0.80167 -2.641562,0 -1.665394,1.09121 -1.735871,3.13195 -0.146601,4.24512 0.645793,0.45233 1.30612,0.82243 1.467382,0.82243 0.161262,0 0.82159,-0.3701 1.467383,-0.82243 z m -5.693882,-12.61836 c 0,-0.41871 0.263121,-0.9239 0.584715,-1.12266 0.407609,-0.25192 0.367605,-0.49894 -0.132078,-0.81556 -0.562061,-0.35614 -0.521804,-0.45593 0.186484,-0.46227 0.677412,-0.006 0.875572,0.38796 0.792468,1.57579 -0.108769,1.55471 -1.431589,2.31675 -1.431589,0.8247 z m -3.322815,-0.82312 c -0.151897,-0.58086 -0.06076,-1.18923 0.202538,-1.35196 0.263293,-0.16273 0.478715,0.31252 0.478715,1.0561 0,1.61877 -0.301108,1.74954 -0.681253,0.29586 z m -0.02316,-2.46599 c -0.553069,-0.55306 -0.411532,-2.81766 0.176102,-2.81766 0.290572,0 0.528313,0.57454 0.528313,1.27676 0,0.70221 0.297175,1.39666 0.66039,1.54322 0.430756,0.17382 0.36952,0.28098 -0.176104,0.30818 -0.460072,0.0229 -0.994989,-0.11678 -1.188703,-0.3105 z m 3.345977,-1.52806 c 0,-0.45301 0.23774,-0.67672 0.528312,-0.49713 0.290572,0.17958 0.528313,0.55023 0.528313,0.82365 0,0.27342 -0.237741,0.49713 -0.528313,0.49713 -0.290572,0 -0.528312,-0.37064 -0.528312,-0.82365 z m 11.072467,5.00887 c -0.738591,-1.38007 -0.299896,-2.60277 0.930062,-2.59219 0.800864,0.007 0.823021,0.0844 0.148657,0.52022 -0.612499,0.39583 -0.62949,0.51397 -0.0748,0.52022 0.506081,0.006 0.617196,0.40838 0.376893,1.36583 -0.310917,1.23878 -0.211785,1.34293 1.131429,1.18871 1.443117,-0.1657 1.475265,-0.24471 1.627424,-3.99931 l 0.155223,-3.83026 H 63.98807 58.6818 v 3.61013 c 0,1.98558 0.158494,3.76863 0.35221,3.96234 0.193711,0.19372 1.747393,0.35221 3.452617,0.35221 2.975556,0 3.076749,-0.0442 2.512828,-1.0979 z m -3.279494,-0.7638 c -0.140193,-0.73336 -0.04903,-1.46062 0.202565,-1.61611 0.251604,-0.15551 0.457461,0.44452 0.457461,1.33338 0,1.96133 -0.313474,2.09561 -0.660026,0.28273 z m -0.396599,-3.94973 c 0,-0.87172 0.237741,-1.58494 0.528312,-1.58494 0.290572,0 0.528313,0.57454 0.528313,1.27676 0,0.70221 0.297176,1.39666 0.66039,1.54322 0.363215,0.14656 0.125475,0.28524 -0.528312,0.30818 -0.977843,0.0343 -1.188703,-0.23943 -1.188703,-1.54322 z m 3.714253,-0.29057 c 0.01411,-1.36628 0.086,-1.4382 0.583056,-0.58306 0.406357,0.69909 0.401803,1.14065 -0.01606,1.55852 -0.425202,0.4252 -0.578709,0.16111 -0.566991,-0.97546 z m -6.884128,-6.31334 v -3.96234 h -5.283124 -5.283124 v 3.96234 3.96235 h 5.283124 5.283124 z m -3.8299,2.10064 c -0.140193,-0.73336 -0.04903,-1.46061 0.202565,-1.61611 0.251604,-0.15551 0.457461,0.44452 0.457461,1.33338 0,1.96133 -0.313474,2.09561 -0.660026,0.28273 z m -3.566474,0.0126 c 0,-0.43586 -0.01783,-0.96483 -0.03962,-1.17549 -0.02179,-0.21067 0.215947,-0.46822 0.528312,-0.57234 0.312365,-0.10413 0.567936,0.42485 0.567936,1.1755 0,0.75064 -0.237741,1.3648 -0.528312,1.3648 -0.290572,0 -0.528313,-0.35661 -0.528313,-0.79247 z m 0.607471,-3.30195 c -0.04354,-0.65379 -0.364447,-1.1887 -0.713133,-1.1887 -0.488131,0 -0.490157,-0.14382 -0.0088,-0.62517 0.874777,-0.87478 1.290509,-0.26632 1.025847,1.50141 -0.173263,1.15727 -0.242885,1.22885 -0.303909,0.31246 z m 2.562404,-0.39623 c 0,-0.43586 0.23774,-0.79247 0.528312,-0.79247 0.290572,0 0.528313,0.35661 0.528313,0.79247 0,0.43585 -0.237741,0.79246 -0.528313,0.79246 -0.290572,0 -0.528312,-0.35661 -0.528312,-0.79246 z m 15.212128,1.45285 0.155223,-3.83026 H 63.98807 58.6818 v 3.98147 3.98148 l 5.151046,-0.15121 5.151046,-0.15121 z m -7.419155,2.23272 c -0.140193,-0.73336 -0.04903,-1.46061 0.202565,-1.61611 0.251604,-0.15551 0.457461,0.44452 0.457461,1.33338 0,1.96133 -0.313474,2.09561 -0.660026,0.28273 z m 3.301588,0.7739 c 0,-0.30772 0.237741,-0.41256 0.528313,-0.23298 0.290571,0.17959 0.528312,0.0748 0.528312,-0.23297 0,-0.30772 -0.237741,-0.55949 -0.528312,-0.55949 -0.290572,0 -0.528313,-0.35662 -0.528313,-0.79247 0,-0.43586 0.416046,-0.78883 0.924547,-0.78438 0.790118,0.007 0.809322,0.0825 0.132078,0.52022 -0.528312,0.34142 -0.572337,0.51483 -0.132078,0.52022 0.363215,0.004 0.66039,0.48357 0.66039,1.06472 0,0.58701 -0.35221,1.05662 -0.792468,1.05662 -0.435858,0 -0.792469,-0.25177 -0.792469,-0.55949 z m -3.169875,-4.16414 c 0,-0.59829 -0.0178,-1.26017 -0.03962,-1.47083 -0.02177,-0.21066 0.215948,-0.46822 0.528312,-0.57234 0.716714,-0.2389 0.75348,2.36327 0.03962,2.80446 -0.290572,0.17958 -0.528313,-0.163 -0.528312,-0.76129 z m 3.177964,-0.42741 c 0.0059,-1.05736 0.136399,-1.25018 0.479433,-0.7083 0.259237,0.4095 0.349034,1.06329 0.199543,1.45286 -0.428704,1.11718 -0.687762,0.8331 -0.678976,-0.74456 z m 4.086718,-3.43403 c -0.163967,-0.49276 -2.924304,-0.6967 -10.874429,-0.80341 -9.2458,-0.12411 -10.654688,-0.0368 -10.654688,0.66039 0,0.69298 1.494672,0.80341 10.874429,0.80341 8.464537,0 10.825735,-0.14635 10.654688,-0.66039 z m 2.550809,-3.78856 c 1.284634,-1.28463 2.335696,-2.47334 2.335696,-2.64156 0,-0.16823 -4.704316,-0.30587 -10.45403,-0.30587 h -10.45403 l -2.601844,2.64157 -2.601842,2.64156 h 10.720176 10.720173 z m -16.15524,-7.96639 v -4.49066 h 8.188843 8.188843 v 4.49066 c 0,4.43782 0.01553,4.49065 1.320781,4.49065 h 1.320781 v -7.13222 -7.13221 H 63.964924 53.398675 v 7.13221 c 0,6.78001 0.0522,7.13222 1.056625,7.13222 0.973754,0 1.056625,-0.35221 1.056625,-4.49065 z M 71.22227,203.5825 V 199.356 H 63.631255 56.04024 v 4.2265 4.2265 h 7.591015 7.591015 z m -12.012156,3.32627 c -2.326085,-0.81582 -2.930438,-4.80722 -0.93907,-6.20203 0.645793,-0.45233 1.564698,-0.82242 2.042002,-0.82242 1.419697,0 3.65188,2.08668 3.65188,3.41384 0,2.25517 -2.723276,4.32311 -4.754812,3.61061 z m 1.797356,-0.60099 c 0.151129,-0.24453 -0.548061,-1.24213 -1.553756,-2.21689 l -1.828537,-1.77229 v 1.39446 c 0,1.81759 2.620261,3.82772 3.382293,2.59472 z m -0.634551,-3.39603 c -1.220687,-1.22068 -2.21943,-1.91363 -2.21943,-1.53987 0,0.77279 3.787213,4.41095 4.181366,4.0168 0.14162,-0.14162 -0.741249,-1.25624 -1.961936,-2.47693 z m 2.55354,-0.88026 c -0.563593,-1.05308 -2.948073,-2.03493 -3.529623,-1.45338 -0.160813,0.16082 0.618067,1.19977 1.730841,2.30878 1.607697,1.60227 2.059425,1.8322 2.199486,1.11953 0.09695,-0.49327 -0.08337,-1.38199 -0.400704,-1.97493 z m 2.623405,4.19257 c -1.320074,-1.32007 -1.365218,-3.78346 -0.09048,-4.93708 1.674549,-1.51545 5.373603,-0.88405 5.373603,0.91722 0,0.288 -0.310495,0.099 -0.689992,-0.41999 -0.431563,-0.5902 -1.173588,-0.86891 -1.981172,-0.74415 -1.266988,0.19572 -1.252348,0.23605 0.781554,2.15272 2.028546,1.91162 2.05214,1.97602 1.10682,3.02059 -1.231047,1.36029 -3.146185,1.36484 -4.500334,0.0107 z m 3.698187,0.15436 c 0,-0.20568 -0.891528,-1.33495 -1.981172,-2.50949 l -1.981172,-2.13552 2.235628,2.07892 c 1.2296,1.14341 2.354504,1.96005 2.49979,1.81477 0.473003,-0.47301 -3.830514,-4.2897 -4.423571,-3.92316 -0.869808,0.53756 -0.69061,2.98951 0.298349,4.08229 0.837565,0.9255 3.352148,1.36972 3.352148,0.59219 z m 8.188842,-16.00373 2.601844,-2.64156 H 69.472486 58.906238 l -2.601844,2.64156 -2.601844,2.64156 H 64.268799 74.835048 Z M 61.851674,182.714 v -4.49065 h 8.188843 8.188843 v 4.49065 c 0,4.13845 0.08287,4.49066 1.056625,4.49066 1.004443,0 1.056625,-0.35221 1.056625,-7.13222 v -7.13222 H 69.512205 58.6818 v 7.13222 7.13222 h 1.584937 1.584937 z m 15.849374,0.26416 v -4.2265 h -7.660531 -7.66053 l 0.02113,1.98117 0.02113,1.98117 0.784671,-1.44614 c 1.012273,-1.86562 2.993539,-2.37542 4.752545,-1.22288 1.703977,1.11649 2.104744,2.16624 1.492087,3.90832 -0.997713,2.83698 -5.14589,3.12677 -6.439247,0.44984 -0.504971,-1.04517 -0.564412,-0.96343 -0.596607,0.82035 l -0.03571,1.98117 h 7.66053 7.660531 z m -6.522023,2.20373 c -1.317912,-1.45628 -1.093554,-3.53955 0.517678,-4.80695 1.750394,-1.37686 3.069448,-1.3883 4.419407,-0.0383 1.929059,1.92906 0.928277,5.82541 -1.490596,5.80334 -0.639079,-0.006 -0.702814,-0.12493 -0.228147,-0.42634 0.474573,-0.30136 0.144552,-0.91656 -1.180789,-2.20113 -1.011697,-0.98058 -1.990433,-1.63189 -2.174972,-1.44735 -0.663914,0.66392 0.376047,3.08199 1.524202,3.54398 0.773841,0.31138 0.886197,0.48335 0.330233,0.50545 -0.463468,0.0184 -1.236125,-0.40128 -1.717016,-0.93266 z m 5.144717,-0.92616 c 0.797752,-2.0789 -0.481873,-4.44745 -2.402765,-4.44745 -1.361767,0 -1.228865,0.46644 0.742274,2.60515 1.165653,1.26475 1.294551,1.5273 0.401407,0.81762 -0.723582,-0.57495 -1.631376,-1.46538 -2.017319,-1.97875 -0.385943,-0.51336 -0.944734,-0.78319 -1.241756,-0.59962 -0.513039,0.31708 3.04607,4.43873 3.832912,4.43873 0.20051,0 0.508876,-0.37606 0.685247,-0.83568 z M 66.579078,182.714 c -1.757284,-1.75584 -2.202678,-1.97922 -2.633506,-1.32078 -1.542567,2.35754 0.92553,5.21846 3.475224,4.02835 l 1.273264,-0.59432 z m -1.326609,0.7024 -1.551701,-1.67502 1.717015,1.18268 c 0.944359,0.65047 1.717016,1.40423 1.717016,1.67501 0,0.75489 -0.209133,0.62349 -1.88233,-1.18267 z m 3.99558,-0.43824 c 0,-1.3607 -1.809175,-3.16988 -3.169875,-3.16988 -1.449436,0 -1.333244,0.45677 0.631951,2.48434 1.946584,2.00836 2.537924,2.1681 2.537924,0.68554 z"
       id="path21"
       inkscape:connector-curvature="0" />
  </g>
</svg>
