<?xml version="1.0" standalone="no"?>
<!DOCTYPE svg PUBLIC "-//W3C//DTD SVG 20010904//EN"
 "http://www.w3.org/TR/2001/REC-SVG-20010904/DTD/svg10.dtd">
<svg version="1.0" xmlns="http://www.w3.org/2000/svg"
 width="500.000000pt" height="500.000000pt" viewBox="0 0 500.000000 500.000000"
 preserveAspectRatio="xMidYMid meet">

<g transform="translate(0.000000,500.000000) scale(0.100000,-0.100000)"
fill="#000000" stroke="none">
<path d="M2186 4984 c-33 -33 -14 -285 25 -345 12 -17 13 -36 5 -94 l-9 -73
-64 -25 -64 -26 -22 26 c-70 81 -198 83 -278 4 -21 -20 -43 -49 -48 -65 -15
-39 -14 -108 4 -149 19 -46 89 -105 134 -113 20 -3 39 -6 43 -7 5 -1 -6 -18
-22 -37 -41 -48 -41 -102 0 -151 l29 -36 -29 -39 c-41 -54 -41 -108 0 -159
l30 -38 -22 -26 c-13 -14 -26 -27 -30 -29 -5 -2 -8 -26 -8 -53 0 -45 4 -53 45
-94 24 -25 51 -45 60 -45 8 0 15 -4 15 -10 0 -5 9 -10 19 -10 11 0 23 -4 26
-10 3 -5 16 -10 29 -10 12 0 32 -9 44 -20 l22 -21 0 -514 0 -514 50 -48 c34
-33 50 -56 50 -73 0 -28 25 -70 42 -70 37 0 37 -3 38 -1048 l0 -1013 30 -17
c16 -9 30 -20 30 -24 0 -5 27 -8 60 -8 33 0 60 4 60 10 0 6 6 10 13 10 39 1
38 -21 37 1028 0 920 1 1014 16 1037 9 14 21 25 26 25 5 0 17 7 25 16 15 15
19 28 22 74 1 8 22 30 46 49 l45 33 -2 192 -3 191 -2 -180 c-3 -167 -5 -181
-25 -202 -12 -13 -25 -23 -30 -23 -5 0 -28 -9 -50 -20 -24 -11 -62 -20 -90
-20 -26 0 -48 -4 -48 -9 0 -5 -18 -8 -40 -7 -22 0 -40 4 -40 8 0 5 -23 8 -50
8 -28 0 -58 4 -68 9 -9 5 -34 17 -54 25 -57 25 -68 48 -68 143 0 76 2 83 20
83 27 0 83 89 68 107 -17 21 -27 15 -57 -33 -33 -51 -38 -45 -40 40 -2 64 5
83 32 90 30 8 80 86 65 103 -19 23 -37 14 -58 -27 -12 -23 -25 -38 -30 -35 -6
4 -10 40 -10 81 0 73 0 75 28 80 18 4 36 20 54 50 24 39 25 45 12 59 -9 8 -17
15 -20 15 -2 0 -17 -21 -33 -47 -21 -34 -32 -43 -36 -33 -3 9 -4 103 -3 210 3
194 3 195 26 198 33 5 27 19 -10 25 -101 16 -118 20 -118 28 0 5 -9 9 -20 9
-11 0 -20 5 -20 10 0 6 -5 10 -12 10 -19 0 -77 50 -93 80 -22 43 -18 74 14
109 33 35 44 37 85 16 15 -8 38 -15 50 -14 13 0 16 2 6 6 -82 27 -170 106
-170 153 0 29 51 100 72 100 5 0 28 -9 50 -20 23 -11 51 -20 62 -19 14 0 16 2
6 6 -83 27 -174 99 -186 146 -11 45 11 73 143 182 l122 102 58 -29 c32 -15 85
-33 118 -39 110 -21 297 5 346 47 8 8 21 14 28 14 13 0 72 -42 107 -76 12 -11
44 -38 70 -60 77 -61 94 -84 94 -126 0 -31 -7 -45 -38 -75 -20 -21 -60 -49
-87 -62 -28 -13 -58 -27 -67 -32 -10 -5 -31 -9 -47 -9 -17 0 -33 -4 -36 -10
-3 -5 -35 -10 -71 -10 -36 0 -63 -4 -60 -9 7 -11 127 -2 140 10 6 5 25 9 43 9
18 0 33 5 33 10 0 6 14 10 30 10 17 0 30 5 30 10 0 6 9 10 20 10 11 0 20 5 20
10 0 19 27 10 58 -21 45 -44 45 -96 -1 -142 -40 -39 -148 -97 -183 -97 -13 0
-24 -4 -24 -10 0 -5 -25 -10 -56 -10 -33 0 -53 -4 -49 -10 7 -11 95 -2 109 11
6 5 23 9 38 9 15 0 28 5 28 10 0 6 10 10 23 10 13 0 27 4 33 9 26 25 53 22 83
-10 47 -49 43 -93 -11 -145 -60 -56 -120 -83 -225 -101 -34 -5 -36 -23 -2 -23
16 0 19 -7 20 -47 3 -260 11 -518 14 -522 3 -2 5 121 5 275 0 153 3 289 6 302
5 17 14 22 40 22 19 0 34 5 34 10 0 6 9 10 21 10 26 0 101 51 122 84 26 40 22
111 -8 144 -14 15 -25 31 -25 37 0 6 11 22 25 37 20 21 25 38 25 77 0 38 -6
56 -25 79 -14 17 -25 32 -25 34 0 3 11 18 25 34 20 23 25 40 25 83 0 59 -11
74 -125 166 -28 22 -63 52 -80 67 -16 16 -36 28 -42 28 -9 0 -13 17 -13 50 0
45 -4 54 -40 89 -42 40 -50 61 -25 61 8 0 15 9 15 20 0 11 7 20 15 20 18 0 20
-21 3 -38 -9 -9 8 -12 78 -10 75 2 79 2 27 5 -43 3 -63 8 -63 17 0 9 19 13 65
14 63 0 65 0 65 -25 0 -16 7 -27 19 -30 11 -3 28 -25 40 -53 21 -49 60 -96 99
-117 12 -7 51 -13 87 -13 36 0 75 6 87 13 89 50 129 149 97 234 -26 70 -119
132 -197 133 -64 0 -110 -26 -145 -82 -17 -26 -35 -48 -41 -49 -63 -6 -237 21
-258 39 -10 8 -18 25 -18 38 0 21 -17 39 -90 94 -82 62 -83 64 -84 132 -1 78
-29 128 -95 169 -53 34 -138 41 -165 13z m201 -71 c37 -41 53 -109 34 -151
-10 -21 -14 -23 -21 -11 -6 8 -25 14 -47 14 -46 0 -63 27 -63 103 0 28 -4 52
-10 52 -11 0 -14 53 -4 63 10 10 77 -32 111 -70z m-136 -87 c6 -35 6 -67 1
-88 l-10 -33 -7 43 c-8 47 -25 57 -25 15 0 -14 -3 -24 -6 -20 -4 3 -1 43 7 87
14 89 23 88 40 -4z m247 -148 c53 -41 102 -93 102 -108 0 -43 -69 -70 -179
-70 -97 0 -150 16 -175 51 -14 21 -12 24 36 68 28 25 61 53 73 61 28 18 119
17 143 -2z m684 -114 c51 -36 80 -89 80 -148 0 -63 -16 -90 -79 -134 -67 -47
-182 -20 -231 54 -31 48 -33 160 -3 202 49 69 155 81 233 26z m-644 -86 c-3
-7 -15 -15 -29 -18 l-24 -6 23 -8 c13 -4 39 -5 59 -1 34 6 34 6 31 -26 -5 -52
-59 -74 -178 -74 -105 0 -170 21 -170 55 0 21 45 35 88 26 15 -3 54 -1 87 3
53 7 55 9 19 10 -23 0 -47 8 -54 16 -7 8 -29 15 -49 16 -76 2 12 17 107 18 70
1 93 -2 90 -11z m-668 -2 c0 -2 -13 -19 -30 -37 -36 -41 -70 -126 -70 -176 0
-35 -1 -36 -15 -17 -16 22 -20 100 -5 138 10 29 57 80 80 89 18 6 40 8 40 3z
m145 -46 c33 -65 9 -165 -55 -227 -77 -75 -140 -47 -140 61 0 128 149 255 195
166z m215 12 c0 -9 -116 -62 -133 -62 -37 0 81 65 126 69 4 1 7 -3 7 -7z m-3
-61 c42 -44 83 -56 193 -56 111 0 147 11 189 56 23 25 43 20 67 -15 15 -24 15
-28 -1 -52 -9 -14 -41 -37 -71 -50 -48 -21 -69 -24 -184 -24 -115 0 -136 3
-183 24 -47 20 -87 56 -87 77 0 11 41 59 50 59 5 0 17 -8 27 -19z m-93 -29
c-1 -7 -2 -25 -2 -40 -2 -30 -31 -72 -51 -72 -6 0 -11 -5 -11 -12 0 -8 -3 -9
-10 -2 -12 12 14 100 37 126 17 20 39 19 37 0z m249 -2157 c35 -5 76 -2 107 5
35 8 55 9 62 2 16 -16 -58 -36 -132 -36 -74 0 -151 21 -129 35 8 5 19 7 25 5
6 -2 36 -7 67 -11z m214 -39 c-9 -24 -52 -47 -99 -54 -41 -6 -41 -6 -13 -12
l30 -5 0 -1020 0 -1019 -45 -13 c-53 -16 -98 -10 -134 18 l-26 21 2 1001 3
1002 35 12 c34 11 34 12 7 12 -40 1 -92 25 -111 52 -21 31 -8 35 54 14 63 -21
210 -18 255 6 32 17 51 10 42 -15z"/>
<path d="M2395 2080 c-16 -7 -12 -9 18 -9 23 -1 36 3 32 9 -7 12 -23 12 -50 0z"/>
<path d="M2074 3819 c-7 -13 196 -39 216 -28 9 5 -11 9 -52 9 -37 0 -69 4 -72
9 -7 11 -86 19 -92 10z"/>
<path d="M2363 3773 c31 -2 83 -2 115 0 31 2 5 3 -58 3 -63 0 -89 -1 -57 -3z"/>
<path d="M2080 3593 c19 -3 37 -8 40 -12 7 -12 99 -20 106 -10 3 5 -18 9 -45
9 -28 0 -51 5 -51 10 0 6 -19 9 -42 8 -41 -1 -41 -1 -8 -5z"/>
<path d="M2243 3554 c8 -8 346 -8 354 0 4 3 -76 6 -177 6 -101 0 -181 -3 -177
-6z"/>
<path d="M2238 3329 c32 -5 67 -5 85 0 25 7 14 9 -53 9 -83 0 -84 -1 -32 -9z"/>
<path d="M2514 3330 c16 -5 54 -5 85 -1 55 8 55 9 -29 9 -63 0 -77 -2 -56 -8z"/>
<path d="M2398 3313 c12 -2 32 -2 45 0 12 2 2 4 -23 4 -25 0 -35 -2 -22 -4z"/>
</g>
</svg>
