<?xml version="1.0" encoding="UTF-8" standalone="no"?>
<!-- Created with Inkscape (http://www.inkscape.org/) -->

<svg
   xmlns:dc="http://purl.org/dc/elements/1.1/"
   xmlns:cc="http://creativecommons.org/ns#"
   xmlns:rdf="http://www.w3.org/1999/02/22-rdf-syntax-ns#"
   xmlns:svg="http://www.w3.org/2000/svg"
   xmlns="http://www.w3.org/2000/svg"
   xmlns:sodipodi="http://sodipodi.sourceforge.net/DTD/sodipodi-0.dtd"
   xmlns:inkscape="http://www.inkscape.org/namespaces/inkscape"
   width="500"
   height="500"
   viewBox="0 0 132.29166 132.29167"
   version="1.1"
   id="svg8"
   inkscape:version="0.92.4 (5da689c313, 2019-01-14)"
   sodipodi:docname="icon.svg">
  <defs
     id="defs2" />
  <sodipodi:namedview
     id="base"
     pagecolor="#ffffff"
     bordercolor="#666666"
     borderopacity="1.0"
     inkscape:pageopacity="0.0"
     inkscape:pageshadow="2"
     inkscape:zoom="1.3898629"
     inkscape:cx="74.932264"
     inkscape:cy="230.52559"
     inkscape:document-units="mm"
     inkscape:current-layer="layer1"
     showgrid="false"
     units="px"
     inkscape:window-width="1920"
     inkscape:window-height="1017"
     inkscape:window-x="-8"
     inkscape:window-y="-8"
     inkscape:window-maximized="1" />
  <metadata
     id="metadata5">
    <rdf:RDF>
      <cc:Work
         rdf:about="">
        <dc:format>image/svg+xml</dc:format>
        <dc:type
           rdf:resource="http://purl.org/dc/dcmitype/StillImage" />
        <dc:title></dc:title>
      </cc:Work>
    </rdf:RDF>
  </metadata>
  <g
     inkscape:label="Ebene 1"
     inkscape:groupmode="layer"
     id="layer1"
     transform="translate(0,-164.70832)">
    <path
       style="fill:#000000;stroke-width:0.54600179"
       d="m 44.305765,292.07736 c -5.712551,-2.65311 -6.295126,-3.05897 -6.457534,-4.49868 -0.09818,-0.87036 -0.405309,-1.81589 -0.682503,-2.10118 -0.284524,-0.29283 -0.503988,-7.42869 -0.503988,-16.38713 v -15.86843 l -2.866509,-0.84231 c -1.57658,-0.46328 -2.808032,-1.12693 -2.736559,-1.47479 0.07301,-0.35534 -0.226023,-0.49585 -0.682502,-0.32068 -0.697003,0.26746 -0.812453,-0.85131 -0.812453,-7.87307 v -8.18484 l 3.549011,-0.38007 3.549012,-0.38006 v -22.98213 c 0,-20.99108 -0.08156,-23.07225 -0.941477,-24.02244 -0.891301,-0.98488 -0.891301,-1.12775 0,-2.68075 0.517812,-0.90224 0.941477,-2.45313 0.941477,-3.44642 0,-1.65035 0.174135,-1.83866 2.020497,-2.18504 1.317911,-0.24724 3.023429,-1.29567 4.904723,-3.01507 1.586324,-1.44981 4.055486,-3.06178 5.487027,-3.58215 1.431541,-0.52037 3.831305,-1.51801 5.33281,-2.21696 3.532358,-1.64433 11.803947,-3.07661 15.015049,-2.59995 3.658959,0.54313 7.579924,2.01836 10.934122,4.11387 2.944292,1.83941 3.046575,1.86026 6.849646,1.3959 l 3.86073,-0.47139 5.830801,3.86368 5.830805,3.86367 v 54.31574 54.31573 l -1.2285,0.25792 c -0.67568,0.14186 -4.299765,0.63009 -8.053527,1.08494 -3.753762,0.45486 -10.879085,1.32015 -15.834051,1.92288 -4.954966,0.60274 -12.32599,1.47556 -16.380053,1.93962 -4.054063,0.46405 -8.108126,0.95894 -9.009029,1.09975 -1.196204,0.18698 -3.331579,-0.53052 -7.917025,-2.66016 z m 6.006019,-51.87369 v -53.70956 l -5.784504,-3.34763 c -3.181477,-1.84119 -5.884185,-3.34762 -6.006019,-3.34762 -0.121834,0 -0.221516,12.15485 -0.221516,27.01078 v 27.01079 l 2.179802,1.2448 2.179802,1.24481 0.0042,8.05353 0.0042,8.05352 h -2.191367 -2.191368 l 0.143861,18.11566 0.143861,18.11564 5.733019,2.62314 c 3.15316,1.44272 5.794443,2.62731 5.869518,2.63242 0.07508,0.005 0.136501,-24.16002 0.136501,-53.70028 z m 18.282661,51.80077 c 20.724163,-2.49697 29.034235,-3.5223 31.539995,-3.89152 l 2.04751,-0.3017 v -53.75198 -53.75199 l -2.86651,0.35963 c -1.57658,0.1978 -3.057832,0.53272 -3.291668,0.74427 -0.233836,0.21155 0.08098,1.02808 0.699587,1.81452 0.618611,0.78644 1.767651,2.83415 2.553401,4.55048 1.69956,3.71233 2.32093,11.24719 1.3233,16.04679 -2.92091,14.05259 -16.4635,24.07448 -29.600215,21.905 -7.588108,-1.25315 -13.170179,-5.48959 -16.50322,-12.52491 -1.658409,-3.50054 -1.726992,-3.9213 -1.706899,-10.4721 0.02255,-7.3602 0.856425,-10.62391 3.836131,-15.01475 l 1.352256,-1.99267 -3.15066,0.38187 c -1.732867,0.21002 -3.33494,0.48853 -3.560166,0.6189 -0.225226,0.13038 -0.409501,24.30123 -0.409501,53.713 0,50.38487 0.05475,53.47595 0.947106,53.47595 0.520907,0 8.076206,-0.85895 16.789553,-1.90879 z m 5.951103,-10.89036 c -0.819167,-2.13471 1.179151,-4.34908 2.929823,-3.24659 2.061894,1.29849 1.1719,4.0337 -1.312495,4.0337 -0.723409,0 -1.451202,-0.3542 -1.617328,-0.78711 z m 3.00889,-0.50869 c 0.732762,-0.88293 0.242856,-2.52621 -0.753128,-2.52621 -1.029486,0 -2.087878,1.50354 -1.724666,2.45006 0.39519,1.02984 1.654189,1.06854 2.477794,0.0761 z M 67.471325,264.25004 c -0.173208,-0.45136 -0.235174,-1.51261 -0.137701,-2.35832 l 0.177215,-1.53766 8.945977,-1.01536 c 7.433716,-0.84372 9.024443,-0.89155 9.410166,-0.28297 0.592543,0.93489 0.616081,3.04141 0.038,3.3987 -0.24362,0.15057 -3.499156,0.659 -7.234523,1.12985 -3.735373,0.47086 -7.712422,0.99792 -8.83789,1.17127 -1.52785,0.23531 -2.126093,0.10723 -2.361223,-0.50551 z m 9.867546,-1.46781 c 7.220387,-0.79246 7.917026,-0.96075 7.917026,-1.91251 0,-1.03035 -1.681828,-0.99813 -9.82284,0.18818 -5.254983,0.76576 -6.305048,1.07824 -6.466047,1.92421 -0.160558,0.84362 0.06342,0.95969 1.359812,0.70468 0.853619,-0.16792 4.009039,-0.57497 7.012049,-0.90456 z m -5.33489,-1.95899 c -0.181437,-0.18143 -0.652363,-0.20082 -1.046506,-0.0431 -0.435562,0.17429 -0.306186,0.30367 0.329878,0.32987 0.575574,0.0237 0.898059,-0.10534 0.716628,-0.28677 z m -34.387716,-0.0462 c -0.09188,-4.44779 -0.167266,-0.96158 -0.167526,7.74715 -2.59e-4,8.70873 0.07491,12.34784 0.167054,8.08692 0.09214,-4.26091 0.09235,-11.38624 4.72e-4,-15.83405 z m -2.285277,-22.93658 c -0.15014,-0.39125 -0.772094,-0.71138 -1.382121,-0.71138 -1.059796,0 -1.109139,0.32624 -1.109139,7.33305 0,7.18895 0.02414,7.33648 1.228504,7.50753 1.210694,0.17195 1.230731,0.076 1.382121,-6.62167 0.08449,-3.73789 0.03077,-7.11627 -0.119365,-7.50753 z m 5.494015,14.03067 h 1.296754 v -7.37102 -7.37103 l -1.774505,0.007 c -4.338461,0.0182 -4.231514,-0.18504 -4.231514,8.04148 v 7.37559 l 1.706256,-0.34125 c 0.93844,-0.18768 2.289795,-0.34125 3.003009,-0.34125 z m -2.330477,-1.37195 c -0.174322,-0.45428 -0.01368,-1.19138 0.356992,-1.63801 0.534849,-0.64445 0.533658,-0.98108 -0.0058,-1.63105 -0.542281,-0.65341 -0.542281,-0.9846 0,-1.63801 1.428684,-1.72146 3.099093,-0.45617 2.059645,1.56013 -0.342898,0.66514 -0.326302,1.21062 0.04822,1.58515 0.382617,0.38261 0.392968,0.90373 0.03137,1.57938 -0.652253,1.21875 -2.0534,1.32137 -2.490462,0.18241 z m 1.170224,-0.81205 c 0.185596,-0.30031 0.07725,-0.54601 -0.240778,-0.54601 -0.318024,0 -0.578225,0.2457 -0.578225,0.54601 0,0.3003 0.10835,0.546 0.240777,0.546 0.132428,0 0.392629,-0.2457 0.578226,-0.546 z m 0.436732,-3.63688 c -0.152986,-0.39868 -0.498112,-0.58893 -0.766946,-0.42278 -0.747716,0.46212 -0.581562,1.14765 0.278157,1.14765 0.421821,0 0.641776,-0.32619 0.488789,-0.72487 z m -1.618371,-2.67885 c -0.180601,-0.47063 -0.05589,-1.12818 0.277145,-1.46121 0.437001,-0.437 0.440178,-0.80472 0.01142,-1.32135 -0.818625,-0.98638 -0.182401,-2.36775 1.090525,-2.36775 1.220189,0 1.815417,1.13574 1.155137,2.2041 -0.251563,0.40704 -0.262032,1.12186 -0.02327,1.58849 0.238768,0.46663 0.324,1.15555 0.189403,1.53093 -0.34846,0.97181 -2.309239,0.84605 -2.700364,-0.17321 z m 1.454639,-0.84674 c 0,-0.3003 -0.2457,-0.39416 -0.546001,-0.20856 -0.300301,0.1856 -0.546002,0.58315 -0.546002,0.88345 0,0.3003 0.245701,0.39415 0.546002,0.20855 0.300301,-0.18559 0.546001,-0.58314 0.546001,-0.88344 z m 0.198652,-2.93543 c -0.172192,-0.44873 -0.559264,-0.66372 -0.860159,-0.47775 -0.336394,0.2079 -0.261792,0.51888 0.193713,0.8075 0.994166,0.62994 1.028243,0.61308 0.666446,-0.32975 z m -8.93468,8.73289 c 0,-0.45045 -0.2457,-0.819 -0.546001,-0.819 -0.300301,0 -0.546002,0.36855 -0.546002,0.819 0,0.45045 0.245701,0.819 0.546002,0.819 0.300301,0 0.546001,-0.36855 0.546001,-0.819 z m 0,-3.24378 c 0,-0.43273 -0.2457,-0.93864 -0.546001,-1.12423 -0.300301,-0.1856 -0.546002,0.16845 -0.546002,0.78677 0,0.61833 0.245701,1.12423 0.546002,1.12423 0.300301,0 0.546001,-0.35405 0.546001,-0.78677 z m 0,-3.85424 c 0,-0.45045 -0.2457,-0.819 -0.546001,-0.819 -0.300301,0 -0.546002,0.36855 -0.546002,0.819 0,0.45045 0.245701,0.819 0.546002,0.819 0.300301,0 0.546001,-0.36855 0.546001,-0.819 z m 0,-3.82201 c 0,-0.45046 -0.2457,-0.81901 -0.546001,-0.81901 -0.300301,0 -0.546002,0.36855 -0.546002,0.81901 0,0.45045 0.245701,0.819 0.546002,0.819 0.300301,0 0.546001,-0.36855 0.546001,-0.819 z m 8.667778,-0.83115 1.433255,-0.0121 -1.365005,-1.06772 c -1.436117,-1.12335 -3.66113,-1.31182 -7.371023,-0.62438 l -2.184007,0.40471 2.457008,0.90599 c 1.351354,0.4983 3.163397,0.79343 4.026763,0.65584 0.863365,-0.13759 2.214719,-0.25562 3.003009,-0.2623 z m -2.252621,-42.94761 c -0.08586,-7.45329 -0.156191,-1.51209 -0.156293,13.20266 -1.02e-4,14.71474 0.07015,20.81289 0.156107,13.55143 0.08596,-7.26146 0.08604,-19.3008 1.86e-4,-26.75409 z m 46.024135,29.96325 c 6.242493,-2.46133 12.461999,-9.07981 15.319126,-16.30186 1.05234,-2.66004 1.26559,-4.22983 1.28615,-9.46776 0.0233,-5.93701 -0.0683,-6.47233 -1.682,-9.82804 -2.391793,-4.97374 -5.068348,-7.82818 -9.288423,-9.90571 -8.905392,-4.38411 -20.301546,-1.67662 -27.556343,6.54682 -6.25469,7.08981 -8.660494,17.74721 -5.954766,26.37882 1.245605,3.97363 1.299315,4.31398 0.503119,3.18816 -0.514853,-0.728 -0.554372,-0.728 -0.355644,0 0.122965,0.45045 0.551173,0.819 0.951572,0.819 0.400399,0 0.841776,0.34133 0.980838,0.75851 0.172929,0.51879 0.01474,0.62054 -0.500504,0.32196 -0.414333,-0.2401 -0.589534,-0.25382 -0.389332,-0.0305 0.200197,0.22332 0.479919,0.41436 0.621596,0.42454 0.141682,0.0102 1.730547,1.42011 3.530813,3.13319 4.614272,4.39079 7.651123,5.51774 14.320649,5.31426 3.753423,-0.1145 6.023382,-0.48801 8.213149,-1.35139 z m -12.308162,-1.38453 c -5.383114,-1.78322 -8.85112,-4.79489 -11.10418,-9.64305 -1.969379,-4.23771 -2.261987,-10.98888 -0.672543,-15.51697 4.136853,-11.78527 15.309228,-18.45559 25.80258,-15.40509 6.132074,1.78264 11.367178,8.4704 12.157391,15.53087 0.883,7.88952 -3.550689,17.33016 -10.26158,21.84995 -4.841862,3.261 -11.606174,4.61384 -15.921668,3.18429 z m 9.634015,-0.89338 c 9.555069,-2.96938 15.898714,-11.56281 15.930814,-21.58071 0.07272,-22.69812 -29.59744,-24.72596 -36.740486,-2.51106 -3.079871,9.57842 0.786122,20.04307 8.642449,23.39378 4.699857,2.00448 7.454611,2.16251 12.167223,0.69799 z m -11.272021,-1.86965 c -3.417709,-1.62666 -6.178583,-4.3413 -7.906307,-7.77389 -1.132375,-2.24977 -1.338988,-3.44706 -1.353315,-7.84215 -0.0148,-4.54651 0.169993,-5.58684 1.496668,-8.42488 2.970129,-6.35375 7.405351,-10.25488 13.723661,-12.07105 7.390964,-2.1245 14.959362,1.31354 18.437835,8.37562 1.081985,2.19667 1.261275,3.38905 1.247789,8.29829 -0.01474,5.35604 -0.129561,5.95274 -1.746436,9.07436 -5.012558,9.67747 -15.650065,14.2902 -23.899895,10.3637 z m 2.038105,-1.15325 c -3.349137,-1.86424 -6.036301,-2.52727 -5.279433,-1.30263 0.570337,0.92282 5.79885,3.20934 7.336342,3.20831 1.063666,-5.5e-4 0.609578,-0.42142 -2.056909,-1.90568 z m 12.22594,-0.0441 c 3.531332,-1.67598 7.503342,-5.89075 9.359579,-9.93162 1.115225,-2.42774 1.483901,-4.21491 1.65777,-8.03609 0.18349,-4.03262 0.09568,-4.7916 -0.489561,-4.23151 -0.943038,0.90251 -2.385225,0.86234 -4.283515,-0.11931 -1.491191,-0.77112 -1.560517,-0.74954 -1.811607,0.56394 -0.226203,1.1833 0.148671,1.60711 2.806144,3.17244 2.736473,1.61187 3.048327,1.97792 2.891996,3.39458 -0.09637,0.87333 -0.644637,2.65303 -1.21837,3.95488 l -1.043142,2.36701 -3.12379,-1.69192 c -2.84533,-1.54109 -3.170305,-1.6088 -3.645578,-0.75953 -0.970027,1.73334 -4.923374,5.71317 -6.469214,6.51256 -1.628707,0.84224 -1.678573,1.67692 -0.315333,5.27836 0.654334,1.72863 1.127084,1.68923 5.684621,-0.47379 z m -7.612045,0.22098 c -0.174295,-0.43556 -0.303675,-0.30619 -0.329873,0.32988 -0.0237,0.57557 0.105335,0.89805 0.286772,0.71662 0.18143,-0.18143 0.200824,-0.65236 0.04308,-1.0465 z m -2.152295,-1.65263 c 0.04039,-0.53625 -0.171489,-0.975 -0.47085,-0.975 -0.299357,0 -0.366635,0.28745 -0.149496,0.63878 0.256637,0.41526 0.108693,0.52901 -0.42278,0.32506 -0.449665,-0.17255 -0.817572,-0.0212 -0.817572,0.33622 0,1.05329 1.780299,0.74228 1.860698,-0.32506 z m 2.871319,-0.32465 c 0,-1.35713 -1.343181,-3.08102 -2.056903,-2.63992 -0.400432,0.24749 -0.32794,0.87569 0.230161,1.99443 0.910781,1.8257 1.826742,2.14937 1.826742,0.64549 z m -6.006019,-0.10435 c -1.069274,-0.69102 -1.792076,-0.69102 -1.365005,0 0.185597,0.3003 0.752926,0.54224 1.260729,0.53764 0.795672,-0.007 0.810087,-0.0815 0.104276,-0.53764 z m -2.184007,-3.27601 c 0,-2.66935 0.03642,-2.73001 1.638005,-2.73001 1.359233,0 1.638005,0.22022 1.638005,1.29399 0,1.13672 0.315223,1.33123 2.593509,1.60034 3.211342,0.37931 5.750474,-1.08444 8.586604,-4.94999 1.723214,-2.34869 1.898098,-2.92742 1.910394,-6.32199 0.01163,-3.21066 0.160142,-3.77496 1.055061,-4.00899 1.717421,-0.44912 1.890247,-2.46041 0.321448,-3.74093 -1.194925,-0.97534 -1.36447,-1.54756 -1.375117,-4.64101 -0.01649,-4.79393 -1.055983,-6.16809 -4.70547,-6.22045 -2.428305,-0.0348 -2.66943,0.0777 -2.842229,1.32694 -0.411461,2.97457 -2.36291,3.5869 -4.177721,1.31091 l -1.131551,-1.4191 -2.710969,2.16505 c -3.186914,2.54514 -4.55977,4.04602 -6.178474,6.75464 -1.022509,1.711 -1.070797,2.03112 -0.348207,2.30841 2.408015,0.92404 1.718933,5.1062 -0.92858,5.6357 -1.246304,0.24926 -1.534735,0.59591 -1.534735,1.84448 0,0.84564 0.245701,1.68938 0.546002,1.87498 0.300301,0.1856 0.546002,1.50335 0.546002,2.92834 0,1.93653 0.410659,3.23842 1.625982,5.15479 1.434172,2.26146 1.852824,2.56391 3.549012,2.56391 h 1.923029 z m 8.21743,-14.43603 c -1.054073,-1.27008 -0.472008,-3.74461 1.059495,-4.50424 2.686044,-1.33228 5.00813,1.98823 2.967366,4.24324 -1.120215,1.23783 -3.109179,1.36674 -4.026861,0.261 z m 3.139406,-0.41522 c 0.360362,-0.36036 0.655202,-1.34317 0.655202,-2.18401 0,-1.23127 -0.244401,-1.5288 -1.255804,-1.5288 -0.690692,0 -1.550645,0.29484 -1.911006,0.6552 -0.706258,0.70626 -0.884457,2.75555 -0.291199,3.34881 0.579488,0.57949 2.088948,0.42266 2.802807,-0.2912 z m -7.183319,15.50967 c -0.557424,-0.11816 -1.251731,0.0234 -1.542903,0.31457 -0.341873,0.34188 0.01714,0.41798 1.0135,0.21483 1.14276,-0.23299 1.280057,-0.37029 0.529403,-0.5294 z m -2.22351,-0.34642 c 0.960712,-0.96072 1.031889,-2.67509 0.0975,-2.34837 -0.375376,0.13126 -0.610304,0.64314 -0.522065,1.13751 0.08824,0.49437 -0.09604,0.89886 -0.409501,0.89886 -0.313465,0 -0.569938,0.2457 -0.569938,0.546 0,0.76228 0.489272,0.68073 1.404004,-0.234 z m 20.436065,-8.14225 v -2.91624 l -2.730009,-1.48586 -2.730009,-1.48585 v 3.00614 c 0,2.95447 0.03986,3.03004 2.320508,4.39692 1.276279,0.76494 2.504783,1.39311 2.730009,1.39596 0.225225,0.003 0.409501,-1.30715 0.409501,-2.91107 z m 2.175648,-1.58828 c 0.0046,-0.52553 -0.237342,-0.95551 -0.537643,-0.95551 -0.300301,0 -0.54224,0.79853 -0.537642,1.77451 0.0063,1.34656 0.136003,1.57699 0.537642,0.9555 0.291106,-0.45045 0.533045,-1.24898 0.537643,-1.7745 z m -0.537643,-2.27383 c 0,-0.36581 -4.993819,-3.05011 -5.665287,-3.04524 -0.337554,0.002 0.614771,0.72718 2.116276,1.6105 2.62623,1.54499 3.549011,1.91804 3.549011,1.43474 z m -29.202964,-2.52931 c 0.197866,-0.62342 0.04565,-1.49165 -0.343795,-1.96089 -0.625336,-0.75348 -0.773734,-0.73974 -1.410116,0.13056 -0.391172,0.53496 -0.711227,1.67145 -0.711227,2.52552 0,1.36552 0.127279,1.48474 1.055028,0.98823 0.580264,-0.31055 1.214816,-1.06809 1.41011,-1.68342 z m 27.564959,-6.23038 c 0,-2.93803 -0.03336,-2.99955 -2.368479,-4.36802 -1.302662,-0.76341 -2.531166,-1.38802 -2.730009,-1.38802 -0.198843,0 -0.36153,1.31004 -0.36153,2.9112 0,2.9064 0.0044,2.91357 2.593509,4.35473 1.426429,0.79394 2.654933,1.44951 2.730008,1.45682 0.07508,0.007 0.136501,-1.32772 0.136501,-2.96671 z m 2.88824,1.09662 c -0.06312,-0.86217 -0.385707,-1.83534 -0.716851,-2.16261 -0.43868,-0.43355 -0.444577,-0.17789 -0.02173,0.94201 0.836229,2.21474 0.668191,3.13037 -0.218936,1.19296 l -0.750026,-1.638 -0.04434,1.81454 c -0.03549,1.45153 0.146809,1.77494 0.911156,1.61661 0.677862,-0.14042 0.922154,-0.65343 0.840734,-1.76551 z M 90.937039,187.93 c -1.401613,-1.55093 -3.493226,-2.98776 -5.056669,-3.47367 -2.191793,-0.68119 -0.615279,1.25401 2.433087,2.98666 3.275694,1.86186 3.985076,1.99354 2.623582,0.48701 z m -14.417171,-1.26142 c 0,-0.12559 0.149135,-0.61699 0.331418,-1.09201 0.481726,-1.25536 -0.733712,-1.06038 -1.423421,0.22835 -0.466455,0.87158 -0.415229,1.092 0.253792,1.092 0.461017,0 0.838211,-0.10275 0.838211,-0.22834 z m -21.585322,23.65509 c -1.110786,-3.14779 -1.100772,-9.81222 0.02135,-14.21021 2.304143,-9.03072 10.523048,-17.65777 18.962821,-19.9045 3.31363,-0.88211 8.629105,-1.00874 11.214816,-0.26717 0.979789,0.281 1.657585,0.31052 1.506211,0.0656 -0.517172,-0.83681 -10.387716,-6.54727 -12.849883,-7.43412 -3.637819,-1.31031 -9.91026,-1.18137 -13.923045,0.28621 -1.801806,0.65897 -3.687947,1.23126 -4.191426,1.27176 -0.50348,0.0405 -0.7703,0.30844 -0.592937,0.59542 0.181147,0.2931 -0.06146,0.37446 -0.553547,0.18563 -1.350372,-0.51819 -8.585135,4.82704 -8.585135,6.34292 0,0.28495 1.29642,-0.70801 2.880933,-2.20657 1.584513,-1.49857 3.488696,-3.02835 4.231515,-3.39952 0.907182,-0.45329 0.72319,-0.17171 -0.560427,0.8577 -2.688743,2.15625 -4.91657,4.39767 -4.899675,4.92958 0.0079,0.24833 2.583338,1.92571 5.723226,3.72751 3.139887,1.80181 5.713291,3.49181 5.718675,3.75555 0.0055,0.26375 -0.733302,1.77834 -1.641533,3.36576 -3.522754,6.15713 -4.88778,12.86296 -3.818583,18.75922 0.596709,3.29065 1.619201,6.27127 2.015423,5.87505 0.104576,-0.10457 -0.191875,-1.27269 -0.658778,-2.59581 z m -18.440434,-25.4639 c -0.138435,-0.53125 -0.260804,-0.2288 -0.271931,0.67211 -0.01113,0.9009 0.102137,1.33555 0.2517,0.96589 0.149562,-0.36966 0.158666,-1.10676 0.02023,-1.638 z m 19.954901,-0.10168 c 0.699161,-0.249 -0.454885,-1.16521 -4.367992,-3.46782 -5.380536,-3.1661 -6.091716,-3.34709 -10.505265,-2.67348 l -2.457008,0.375 5.733018,3.34088 c 5.265268,3.0683 5.933483,3.31734 8.190027,3.05235 1.351354,-0.15868 2.884603,-0.4408 3.40722,-0.62693 z m 42.866427,-4.95322 c 0.67568,-0.003 1.22733,-0.19029 1.2259,-0.41551 -0.002,-0.22523 -2.20132,-1.82577 -4.888642,-3.55677 -4.825263,-3.10811 -4.923702,-3.14283 -7.914421,-2.79133 -1.665611,0.19576 -3.018549,0.50637 -3.006531,0.69025 0.01201,0.18388 2.161899,1.74094 4.777515,3.46012 4.040348,2.65563 5.043107,3.0877 6.666671,2.87252 1.051053,-0.1393 2.463828,-0.25598 3.139508,-0.25928 z M 47.183211,174.7894 c 1.449014,-1.44901 2.434206,-2.63457 2.189316,-2.63457 -1.096136,0 -7.25077,4.672 -7.25077,5.50408 0,1.02956 2.684073,-0.49212 5.061454,-2.86951 z"
       id="path3908"
       inkscape:connector-curvature="0" />
  </g>
</svg>
