<?xml version="1.0" encoding="UTF-8" standalone="no"?>
<svg
   xmlns:dc="http://purl.org/dc/elements/1.1/"
   xmlns:cc="http://creativecommons.org/ns#"
   xmlns:rdf="http://www.w3.org/1999/02/22-rdf-syntax-ns#"
   xmlns:svg="http://www.w3.org/2000/svg"
   xmlns="http://www.w3.org/2000/svg"
   id="svg8"
   version="1.1"
   viewBox="0 0 500 500"
   height="500mm"
   width="500mm">
  <defs
     id="defs2" />
  <metadata
     id="metadata5">
    <rdf:RDF>
      <cc:Work
         rdf:about="">
        <dc:format>image/svg+xml</dc:format>
        <dc:type
           rdf:resource="http://purl.org/dc/dcmitype/StillImage" />
        <dc:title></dc:title>
      </cc:Work>
    </rdf:RDF>
  </metadata>
  <g
     transform="translate(0,203)"
     id="layer1">
    <path
       id="path387"
       d="m 218.36593,269.2979 c -2.73579,-2.19668 -5.76271,-4.64291 -6.7265,-5.43609 -0.96378,-0.79317 -1.94131,-1.44213 -2.17228,-1.44213 -0.82438,0 -11.0042,-6.48064 -11.3295,-7.21254 -0.18239,-0.41037 -0.7622,-0.74613 -1.28846,-0.74613 -0.52628,0 -4.274,-2.23837 -8.32826,-4.97417 -4.05427,-2.73579 -7.72737,-4.97471 -8.16245,-4.97538 -0.73702,-9.9e-4 -3.13399,-1.89775 -9.26321,-7.32957 -1.37674,-1.22009 -5.62913,-4.65846 -9.44974,-7.64082 -12.6205,-9.85151 -16.86971,-13.87693 -33.13959,-31.39425 -6.66074,-7.17142 -12.11043,-13.51348 -12.11043,-14.09347 0,-0.57999 -0.3765,-1.20375 -0.83666,-1.38615 -0.46017,-0.18238 -5.00809,-6.37522 -10.1065,-13.76185 -5.09841,-7.38664 -9.646337,-13.57948 -10.106503,-13.76186 -0.460167,-0.1824 -0.836667,-1.15236 -0.836667,-2.15548 0,-1.00312 -0.335756,-1.97308 -0.746125,-2.15547 -1.201847,-0.53416 -17.212615,-32.9957 -17.185532,-34.84335 0.01356,-0.92524 -0.423017,-1.95893 -0.970176,-2.29709 -0.547158,-0.33817 -0.994833,-1.48985 -0.994833,-2.5593 0,-1.06945 -0.419861,-2.72181 -0.933024,-3.67191 -0.513163,-0.95011 -2.10784,-5.08502 -3.543726,-9.188711 -1.435886,-4.103687 -3.030563,-8.238602 -3.543726,-9.188708 -0.513164,-0.950106 -0.933024,-3.273977 -0.933024,-5.16416 0,-1.890193 -0.447675,-3.713384 -0.994833,-4.051548 -0.547159,-0.338164 -0.994834,-2.513427 -0.994834,-4.833915 0,-2.320489 -0.401821,-4.64436 -0.892936,-5.16416 -0.491116,-0.5198 -1.133238,-2.735792 -1.426937,-4.924425 -0.2937,-2.188633 -0.989999,-6.217708 -1.547332,-8.9535 -4.173941,-20.488711 -4.141027,-61.7536414 0.06269,-78.591832 0.546399,-2.188633 1.402106,-6.10579 1.901568,-8.704792 0.499463,-2.599002 1.335236,-6.851914 1.857273,-9.450916 0.522035,-2.599002 1.353225,-6.739996 1.847086,-9.202208 1.082648,-5.397697 5.06557,-17.038829 6.279907,-18.354675 0.479696,-0.519801 0.872177,-1.948321 0.872177,-3.174493 0,-1.226172 0.447675,-2.506085 0.994834,-2.844249 0.547158,-0.338163 0.994833,-1.681188 0.994833,-2.9845 0,-1.303311 0.447675,-2.646336 0.994833,-2.9845 0.547159,-0.338163 0.994834,-1.374461 0.994834,-2.30288 0,-1.552825 10.706791,-23.510078 15.749066,-32.297838 1.186863,-2.06848 2.157933,-4.41878 2.157933,-5.22287 0,-0.8041 0.391716,-1.46199 0.870479,-1.46199 0.478764,0 1.135702,-1.32612 1.459864,-2.94693 0.494097,-2.47048 2.966976,-4.53048 15.295571,-12.74172 8.08839,-5.38714 18.51141,-11.62945 23.16226,-13.8718 4.65084,-2.24234 11.33339,-5.46207 14.85008,-7.15494 3.51671,-1.69287 7.1836,-3.07795 8.14867,-3.07795 0.96506,0 2.03133,-0.44767 2.3695,-0.99483 0.33816,-0.54716 1.68118,-0.99483 2.9845,-0.99483 1.30331,0 2.64633,-0.44768 2.9845,-0.99484 0.33816,-0.54716 1.68118,-0.99483 2.9845,-0.99483 1.30331,0 2.64633,-0.44768 2.9845,-0.99483 0.33816,-0.54716 1.68118,-0.99484 2.9845,-0.99484 1.30331,0 2.61444,-0.39606 2.9136,-0.88013 0.29918,-0.48407 2.00438,-1.17253 3.78934,-1.52991 1.78496,-0.35738 5.48376,-1.09487 8.21956,-1.63886 2.73579,-0.54399 7.10062,-1.42239 9.69962,-1.952 2.599,-0.52961 7.07575,-1.43365 9.94833,-2.00898 14.10127,-2.82423 62.36081,-2.81335 76.35346,0.0172 3.00937,0.60877 7.70996,1.51942 10.44575,2.02367 2.73579,0.50426 7.21254,1.36511 9.94833,1.913 2.7358,0.5479 6.4346,1.28857 8.21956,1.64595 1.78496,0.35738 3.49016,1.04584 3.78934,1.52992 0.29916,0.48407 1.61029,0.88013 2.9136,0.88013 1.30332,0 2.64634,0.44768 2.9845,0.99484 0.33817,0.54715 1.68119,0.99483 2.9845,0.99483 1.30332,0 2.64634,0.44767 2.9845,0.99483 0.33817,0.54716 1.68119,0.99484 2.9845,0.99484 1.30331,0 2.64634,0.44767 2.9845,0.99483 0.33817,0.54716 1.32232,0.99483 2.18701,0.99483 0.86469,0 7.21764,2.73104 14.11767,6.06898 6.90002,3.33794 13.66468,6.57768 15.03257,7.19942 5.72355,2.60151 30.65603,19.87059 31.57203,21.86786 0.54737,1.19349 5.53098,11.35187 11.07468,22.57416 5.54371,11.22229 10.07946,21.156636 10.07946,22.076329 0,0.919694 0.44767,1.948839 0.99483,2.287003 0.54716,0.338163 0.99484,1.681188 0.99484,2.9845 0,1.303311 0.44767,2.646336 0.99483,2.9845 0.54716,0.338163 0.99483,1.632999 0.99483,2.877406 0,1.244407 0.30681,2.569376 0.6818,2.944358 0.63205,0.632058 1.83943,3.635947 4.45764,11.090402 1.09525,3.118355 2.53449,10.134765 3.4691,16.912166 0.30182,2.188634 0.95058,4.404625 1.4417,4.924425 0.49111,0.519801 0.89293,2.451847 0.89293,4.293442 0,1.841596 0.5122,4.3054 1.13821,5.475125 1.3517,2.525663 2.70413,16.6236451 3.5054,36.540924 0.73221,18.200207 -0.59234,32.786842 -4.78783,52.726166 -2.00616,9.534393 -2.96215,14.575562 -3.49016,18.404417 -0.30181,2.188633 -0.95057,4.404624 -1.44169,4.924425 -0.49111,0.5198 -0.89293,1.682124 -0.89293,2.582945 0,1.502915 -1.73612,5.855728 -4.04332,10.137417 -0.51196,0.95011 -0.93085,2.60247 -0.93085,3.67191 0,1.06946 -0.44767,2.22114 -0.99483,2.5593 -0.54716,0.33817 -0.99483,1.68119 -0.99483,2.9845 0,1.30331 -0.44768,2.64634 -0.99484,2.9845 -0.54716,0.33817 -0.99483,1.48984 -0.99483,2.5593 0,1.06945 -0.44768,2.83372 -0.99483,3.92062 -0.54716,1.08689 -1.37087,2.7596 -1.83047,3.71712 -0.4596,0.95753 -2.02646,3.88331 -3.48191,6.50172 -1.45547,2.61842 -2.64629,5.37908 -2.64629,6.13481 0,0.75572 -0.33576,1.52326 -0.74613,1.70566 -0.41036,0.18238 -2.51302,3.91301 -4.67257,8.29027 -3.74994,7.60092 -10.89949,18.7072 -14.69016,22.82005 -0.97761,1.0607 -1.77747,2.47833 -1.77747,3.1503 0,0.67197 -0.36915,1.37098 -0.82032,1.55338 -0.45118,0.18238 -3.1039,3.6 -5.89494,7.59469 -5.64564,8.0804 -30.45154,35.09966 -36.71546,39.9915 -4.97296,3.88366 -18.01852,14.64323 -20.23862,16.69219 -2.59836,2.39806 -21.48546,15.14247 -22.441,15.14247 -0.30213,0 -3.18626,1.7907 -6.40916,3.97934 -3.2229,2.18863 -6.22015,3.98399 -6.66054,3.98968 -0.44039,0.006 -4.58726,2.91557 -9.21525,6.46641 l -8.41454,6.45607 -24.91238,-0.0355 -24.91237,-0.0355 -4.97417,-3.99394 z m 82.10564,-26.52618 c 15.63259,-15.7308 29.37099,-29.94448 30.52978,-31.58596 4.77853,-6.76907 15.50261,-21.22098 19.19368,-25.86567 2.1741,-2.73579 3.95577,-5.53376 3.95928,-6.2177 0.004,-0.68395 0.34476,-1.24355 0.75835,-1.24355 0.41359,0 1.38585,-1.45494 2.16058,-3.2332 0.77473,-1.77827 2.47492,-4.94119 3.7782,-7.02871 1.30328,-2.08753 3.30563,-5.44509 4.44967,-7.46125 1.14404,-2.01617 3.38298,-5.90413 4.97544,-8.63992 1.59245,-2.73579 3.14681,-5.7576 3.45411,-6.71512 0.3073,-0.95753 0.9542,-1.74096 1.43754,-1.74096 0.48334,0 0.87881,-0.67759 0.87881,-1.50575 0,-0.82816 0.43024,-2.2831 0.95608,-3.23321 1.3236,-2.39148 5.87572,-12.82638 8.89082,-20.38058 1.64755,-4.12786 4.2616,-10.1628 6.16885,-14.24176 1.04019,-2.22459 1.89125,-4.99615 1.89125,-6.159001 0,-1.162851 0.44767,-2.390953 0.99483,-2.729116 0.54716,-0.338164 0.99484,-1.905027 0.99484,-3.481917 0,-1.57689 0.39821,-3.113182 0.88491,-3.413979 0.4867,-0.300808 1.1036,-2.006002 1.37087,-3.78934 0.26727,-1.783339 1.23043,-5.704643 2.14034,-8.714014 5.06568,-16.753759 5.15033,-17.159999 8.39504,-40.29075 4.77183,-34.0173101 6.22474,-58.797544 4.11616,-70.203895 -0.54982,-2.974253 -1.4447,-11.226544 -1.98862,-18.338419 -0.54392,-7.111874 -1.45465,-15.392897 -2.02383,-18.402267 -2.72414,-14.402968 -4.93711,-26.821115 -5.58444,-31.337252 -0.31372,-2.18863 -0.94428,-4.44463 -1.40124,-5.01333 -0.76572,-0.95294 -2.07139,-5.44725 -3.74583,-12.89367 -0.97594,-4.34011 -2.09352,-5.72388 -7.63495,-9.4536 -2.73579,-1.84136 -5.198,-3.63469 -5.47158,-3.98518 -0.27358,-0.3505 -2.40004,-1.69359 -4.72546,-2.98464 -2.32542,-1.29106 -4.22804,-2.62925 -4.22804,-2.97377 0,-0.34452 -7.49856,-4.33967 -16.66346,-8.87811 -9.1649,-4.53844 -17.44081,-8.65088 -18.39091,-9.13875 -0.95011,-0.48786 -2.60247,-0.88703 -3.67191,-0.88703 -1.06946,0 -2.22114,-0.44768 -2.5593,-0.99483 -0.33817,-0.54716 -1.68119,-0.99484 -2.9845,-0.99484 -1.30331,0 -2.64634,-0.44767 -2.9845,-0.99483 -0.33817,-0.54716 -1.68119,-0.99483 -2.9845,-0.99483 -1.30331,0 -2.6133,-0.39423 -2.91109,-0.87605 -0.29779,-0.48183 -1.55531,-1.12219 -2.7945,-1.42304 -1.23919,-0.30084 -4.04378,-1.06313 -6.23241,-1.69398 -2.18864,-0.63085 -6.10579,-1.55734 -8.70479,-2.05888 -2.59901,-0.50154 -7.07576,-1.37711 -9.94834,-1.94572 -9.26937,-1.83482 -16.00759,-2.85808 -23.37858,-3.55024 l -7.21254,-0.67728 v 14.97402 14.97402 l 5.22287,0.54832 c 15.92325,1.67169 29.62828,4.17049 36.06271,6.5752 2.00904,0.75083 5.25053,1.71209 13.43025,3.98271 5.87354,1.63044 6.79803,2.00621 17.907,7.27844 5.198,2.46694 11.24162,5.28561 13.43025,6.26371 3.87551,1.73198 18.40473,10.99983 19.39925,12.37434 0.27358,0.37811 1.84044,1.37873 3.48192,2.2236 7.43884,3.8288 7.47501,3.91452 11.30114,26.789355 0.52108,3.115261 1.22196,6.108336 1.55751,6.651297 1.46677,2.373254 4.7165,36.966424 4.77755,50.856506 0.0532,12.1068326 -1.47704,41.625676 -2.28976,44.169823 -0.50674,1.586341 -0.92136,4.499183 -0.92136,6.472992 0,1.9738 -0.46398,5.15264 -1.03108,7.064083 -0.94795,3.195186 -2.21203,10.359428 -3.59721,20.387517 -0.30232,2.188634 -0.95149,4.404625 -1.44261,4.924425 -0.49111,0.519801 -0.89293,2.395997 -0.89293,4.169327 0,1.77333 -0.39822,3.470346 -0.88492,3.771144 -0.4867,0.300808 -1.11656,2.006002 -1.39969,3.78934 -0.52866,3.329996 -1.75547,7.936213 -3.51318,13.190764 -0.5491,1.641475 -1.51335,4.7752 -2.14279,6.963833 -1.15515,4.01659 -2.50098,7.511114 -4.11349,10.680954 -0.48332,0.95011 -0.87877,2.16898 -0.87877,2.70861 0,0.53961 -1.16551,3.5675 -2.59003,6.72861 -1.42452,3.16112 -2.99138,6.75476 -3.48191,7.98587 -0.49054,1.2311 -1.29392,3.24564 -1.78529,4.47675 -2.54649,6.38012 -4.25164,9.57294 -9.1561,17.14446 -1.42353,2.19766 -2.76656,4.52964 -2.9845,5.18217 -1.01343,3.03438 -17.18912,19.06031 -24.76713,24.53786 -8.67857,6.27304 -27.93042,16.55613 -30.99614,16.55613 -0.94516,0 -1.96458,0.39821 -2.26538,0.88492 -0.3008,0.4867 -2.006,1.12628 -3.78934,1.42127 -5.38748,0.89119 -9.10433,1.77739 -11.20109,2.67066 -5.56275,2.36986 -31.63799,3.06617 -44.7675,1.19547 -12.8103,-1.82522 -15.40617,-2.36074 -15.98527,-3.29774 -0.3008,-0.4867 -1.83709,-0.88491 -3.41398,-0.88491 -1.57689,0 -3.14375,-0.44768 -3.48192,-0.99484 -0.33816,-0.54715 -1.42089,-0.99483 -2.40605,-0.99483 -0.98518,0 -4.42823,-1.2875 -7.65126,-2.86112 -3.22301,-1.57362 -7.87456,-3.82926 -10.33677,-5.01254 -4.52189,-2.1731 -17.30084,-11.11907 -21.88633,-15.32164 -5.57014,-5.10498 -15.9537,-17.05694 -17.13273,-19.72057 -0.69299,-1.56555 -1.59836,-2.84646 -2.01196,-2.84646 -0.41359,0 -0.75198,-0.43898 -0.75198,-0.97551 0,-0.53654 -1.56686,-3.42493 -3.48192,-6.41864 -1.91505,-2.99371 -3.48191,-5.91836 -3.48191,-6.49923 0,-0.58087 -0.39545,-1.83347 -0.87877,-2.78358 -0.83856,-1.64844 -2.44416,-5.38578 -4.16123,-9.68612 -0.43694,-1.09432 -1.54187,-3.78037 -2.45541,-5.969 -0.91352,-2.18864 -2.06299,-4.98661 -2.55436,-6.21771 -0.49137,-1.23111 -1.40097,-3.46948 -2.02134,-4.974169 -2.27835,-5.52609 -2.71204,-6.765583 -3.21978,-9.202208 -0.28505,-1.367896 -1.26874,-4.949296 -2.18599,-7.958667 -0.91724,-3.009371 -1.8864,-6.930675 -2.15367,-8.714013 -0.26727,-1.783339 -0.88417,-3.488533 -1.37087,-3.78934 -0.4867,-0.300798 -0.88492,-2.060927 -0.88492,-3.911397 0,-1.850469 -0.40039,-3.611941 -0.88975,-3.91439 -0.48935,-0.302439 -1.13852,-2.231471 -1.44259,-4.286747 -2.14978,-14.530675 -2.64121,-17.356111 -3.16661,-18.206236 -1.77261,-2.868144 -4.79439,-40.20255703 -4.74708,-58.650875 0.0341,-13.315516 1.81371,-40.058984 3.14443,-47.254583 1.91544,-10.357439 3.31507,-17.014207 4.19824,-19.9673 0.50253,-1.680323 0.9137,-4.334588 0.9137,-5.898366 0,-7.127404 1.83938,-9.314509 15.41991,-18.334899 12.08023,-8.02388 16.83787,-10.62555 33.32692,-18.22455 7.98933,-3.68189 9.321,-4.19242 14.9225,-5.72097 2.46221,-0.67189 5.3721,-1.56724 6.46642,-1.98966 1.09431,-0.42243 4.0042,-1.31778 6.46641,-1.98967 2.46221,-0.67189 5.3721,-1.59286 6.46642,-2.0466 1.09432,-0.45373 4.0042,-1.08197 6.46642,-1.39608 2.46221,-0.31411 7.38663,-1.01743 10.94316,-1.56293 3.55653,-0.54551 8.92863,-1.32119 11.938,-1.72374 l 5.47159,-0.7319 v -14.42508 -14.42509 l -5.47159,0.0602 c -5.29726,0.0583 -13.53512,1.20052 -24.87083,3.44841 -3.00937,0.59676 -7.48612,1.32596 -9.94833,1.62043 -2.46222,0.29448 -4.90205,0.93968 -5.42185,1.43379 -0.5198,0.49411 -2.17215,0.89838 -3.67191,0.89838 -1.49975,0 -3.0035,0.44768 -3.34166,0.99484 -0.33816,0.54715 -1.48984,0.99483 -2.5593,0.99483 -1.06944,0 -2.7218,0.43746 -3.67191,0.97213 -0.9501,0.53468 -5.30886,2.12673 -9.68612,3.5379 -11.33802,3.65523 -36.98676,16.48289 -49.24425,24.62845 -12.64461,8.40282 -14.915231,10.38779 -14.946964,13.06664 -0.01345,1.13573 -0.96127,4.75101 -2.106257,8.03396 -2.06214,5.91265 -3.063113,10.03984 -4.885882,20.145377 -1.75427,9.725779 -2.850196,15.65034 -3.910515,21.140208 -0.581233,3.009371 -1.487834,10.843683 -2.014668,17.409583 -0.526834,6.5659 -1.435337,14.176375 -2.018897,16.912166 -1.178105,5.523096 -1.096583,39.38263626 0.117365,48.7468332 0.425593,3.2829498 1.27161,9.3265628 1.880039,13.4302498 0.608429,4.103687 1.571674,10.594975 2.140546,14.425083 0.56887,3.830108 1.420373,9.649883 1.892227,12.932833 1.298369,9.033495 2.020708,12.732902 2.913733,14.9225 0.446316,1.094317 1.592945,4.675717 2.548063,7.958667 0.955118,3.28295 2.126308,6.997329 2.602643,8.254181 0.476335,1.256853 0.866064,3.356886 0.866064,4.666754 0,1.309857 0.447675,2.658234 0.994833,2.996398 0.54716,0.338164 0.99483,1.905026 0.99483,3.481916 0,1.576891 0.44768,3.143753 0.99484,3.481917 0.54716,0.338164 0.99483,1.51149 0.99483,2.607398 0,1.095909 1.1553,4.538966 2.56734,7.651256 1.41203,3.11227 2.91901,6.55403 3.34881,7.64835 6.14566,15.64713 13.14065,30.73217 17.52971,37.80366 1.69803,2.73579 3.71792,6.42911 4.48866,8.20738 0.77074,1.77826 1.73974,3.23321 2.15333,3.23321 0.41359,0 0.75198,0.46918 0.75198,1.04262 0,0.57344 1.56687,3.49201 3.48192,6.48573 1.91505,2.99371 3.48192,5.71332 3.48192,6.04359 0,0.5463 7.7345,11.69728 10.59723,15.27822 2.50994,3.13966 11.16656,14.88275 14.03241,19.03562 2.69111,3.89963 26.79537,28.53113 50.73647,51.84626 l 8.93851,8.70479 h 23.23885 23.23885 z m -67.38361,12.28205 c -1.75174,-0.63773 -3.50514,-1.47966 -3.89643,-1.87097 -0.3913,-0.3913 -1.53828,-0.71146 -2.54883,-0.71146 -2.06368,0 -5.21136,-1.62994 -8.16499,-4.22804 -1.08857,-0.95752 -2.53675,-1.74096 -3.21819,-1.74096 -1.76203,0 -13.30333,-12.1236 -13.30606,-13.9774 -0.001,-0.8481 -0.47138,-2.0111 -1.04474,-2.58445 -1.37272,-1.37272 0.69594,-6.04038 4.02696,-9.08632 2.43019,-2.22221 2.82843,-2.25997 17.40958,-1.65065 19.73065,0.82452 33.53158,0.81245 52.22875,-0.0457 l 15.41992,-0.70771 2.87144,3.03026 c 4.47619,4.72373 4.03215,9.52438 -1.49225,16.13337 -4.26051,5.09696 -17.67675,14.85756 -20.42216,14.85756 -0.75797,0 -2.15547,0.39272 -3.10557,0.87271 -6.34908,3.20756 -27.75138,4.26034 -34.75743,1.70972 z m 27.75889,-1.9149 c 2.57249,-0.6789 4.9974,-1.55449 5.38869,-1.94577 0.39128,-0.39129 1.50816,-0.71142 2.48198,-0.71142 3.06773,0 13.10397,-6.60044 18.67627,-12.28265 4.77308,-4.86722 5.35854,-5.92328 5.35854,-9.66572 0,-3.23567 -0.54574,-4.63709 -2.37404,-6.09636 -2.15841,-1.72276 -3.45832,-1.83212 -14.31203,-1.20399 -11.13941,0.64466 -30.0749,0.68924 -57.16048,0.13455 l -11.39813,-0.23342 -2.18984,3.24532 c -1.90426,2.8221 -2.03952,3.65462 -1.03727,6.38402 2.4784,6.74933 13.91711,16.02848 25.02856,20.3033 8.85747,3.40767 22.96475,4.33457 31.53775,2.07214 z m 40.29403,-1.81611 c 3.94218,-2.65123 7.6355,-4.82042 8.20737,-4.82042 0.57187,0 1.03976,-0.44767 1.03976,-0.99483 0,-0.54716 0.55959,-0.99657 1.24354,-0.9987 1.06811,-0.003 14.89382,-10.52664 22.64229,-17.23398 1.3733,-1.18876 4.9547,-4.15014 7.95867,-6.58083 5.86586,-4.74642 9.17301,-8.06484 23.86617,-23.94753 5.198,-5.61883 9.92714,-10.7122 10.5092,-11.31862 0.58205,-0.60643 5.25604,-7.1462 10.38661,-14.53284 5.13059,-7.38664 9.57879,-13.65409 9.88489,-13.92766 0.95202,-0.85088 4.12248,-6.33377 5.32112,-9.20221 0.62878,-1.50469 1.49275,-2.73579 1.91995,-2.73579 0.4272,0 0.77673,-0.63434 0.77673,-1.40963 0,-0.7753 1.51687,-4.24478 3.37083,-7.70996 1.85395,-3.46519 4.37221,-8.31487 5.59614,-10.77708 1.22391,-2.46221 2.61693,-5.2541 3.09558,-6.20421 0.47865,-0.95011 0.87028,-2.53935 0.87028,-3.53166 0,-0.9923 0.35735,-2.22949 0.79412,-2.74929 0.43677,-0.5198 1.61849,-3.4073 2.62605,-6.41667 1.00756,-3.00937 2.21706,-5.89688 2.6878,-6.416679 0.47072,-0.5198 0.85586,-1.948321 0.85586,-3.174493 0,-1.226172 0.44768,-2.506085 0.99484,-2.844249 0.54715,-0.338163 0.99483,-1.681188 0.99483,-2.9845 0,-1.303311 0.44767,-2.646336 0.99483,-2.9845 0.54716,-0.338163 0.99484,-2.011582 0.99484,-3.718706 0,-1.707124 0.40869,-4.47867 0.90822,-6.158994 5.38242,-18.105767 7.34794,-34.147514 7.38314,-60.258049 0.0355,-26.3380924 -1.98364,-43.089643 -7.38314,-61.252882 -0.49953,-1.680323 -0.90822,-4.451869 -0.90822,-6.158993 0,-1.707124 -0.44768,-3.380543 -0.99484,-3.718707 -0.54716,-0.338164 -0.99483,-1.681189 -0.99483,-2.9845 0,-1.303311 -0.44768,-2.646336 -0.99483,-2.9845 -0.54716,-0.338164 -0.99484,-1.618076 -0.99484,-2.844248 0,-1.226172 -0.38649,-2.654693 -0.85888,-3.174493 -0.47237,-0.519801 -2.06022,-4.526492 -3.52853,-8.903759 -1.46831,-4.377266 -3.09635,-8.736019 -3.61787,-9.686125 -0.52152,-0.950105 -0.94822,-2.628887 -0.94822,-3.730625 0,-1.101738 -0.44767,-2.003166 -0.99483,-2.003166 -0.54716,0 -0.99483,-0.680406 -0.99483,-1.512017 0,-0.831611 -1.01743,-3.181905 -2.26095,-5.222875 -2.40159,-3.9417 -4.26584,-7.7274 -5.01173,-10.17727 -0.36454,-1.1973 -0.6061,-1.12337 -1.22212,0.37403 -0.42681,1.03751 -0.23226,3.3472 0.4381,5.20105 1.14188,3.157821 1.97147,6.978568 4.13562,19.04704 0.51511,2.872581 1.41034,7.797006 1.98938,10.943167 2.06,11.19279 3.28295,31.925663 3.27147,55.461957 -0.0106,21.8879051 -0.62597,31.225739 -3.2448,49.24425 -0.51692,3.556529 -1.38093,9.823979 -1.92005,13.927666 -0.53911,4.103687 -1.72472,9.923462 -2.63469,12.932833 -0.90996,3.009371 -1.89277,6.930676 -2.18402,8.714014 -0.29125,1.783338 -0.92776,3.488532 -1.41447,3.78934 -0.4867,0.300798 -0.88491,1.837089 -0.88491,3.413979 0,1.576891 -0.44768,3.143753 -0.99483,3.481917 -0.54716,0.338164 -0.99484,1.686541 -0.99484,2.996398 0,1.309867 -0.40105,3.409901 -0.89123,4.666753 -0.49017,1.256853 -1.42472,4.29972 -2.07677,6.761932 -0.65205,2.462213 -1.75509,5.819774 -2.45121,7.461254 -2.59426,6.11735 -5.59978,13.42616 -6.5455,15.91733 -0.41543,1.09432 -1.9803,4.67572 -3.4775,7.95867 -1.49719,3.28295 -3.16416,7.08818 -3.70438,8.45608 -0.54021,1.36789 -1.37765,3.26443 -1.86097,4.21454 -0.48332,0.95011 -0.87877,2.17252 -0.87877,2.71647 0,0.54397 -1.4684,3.348 -3.26311,6.23121 -1.79472,2.88321 -3.92046,6.58522 -4.72388,8.2267 -0.80342,1.64147 -1.68531,3.20833 -1.95976,3.48191 -0.27445,0.27358 -0.97964,1.39277 -1.56709,2.48709 -2.99992,5.58831 -4.95147,9.00389 -5.39991,9.45091 -0.27445,0.27358 -1.14973,1.84044 -1.94505,3.48192 -1.39528,2.87972 -9.75344,15.39887 -10.95898,16.41475 -0.32466,0.27358 -2.35145,2.95963 -4.50397,5.969 -2.15252,3.00937 -4.1793,5.69542 -4.50397,5.969 -0.32465,0.27358 -2.76287,3.63114 -5.41826,7.46125 -2.65539,3.83011 -13.93216,16.00892 -25.0595,27.06403 -11.12733,11.05511 -20.23152,20.36011 -20.23152,20.67779 0,0.84756 3.56248,-1.1747 11.64437,-6.60999 z M 185.20466,235.14038 c -12.12859,-12.26782 -22.05198,-22.75621 -22.05198,-23.30753 0,-0.55131 -0.57433,-1.59396 -1.27628,-2.31699 -0.70196,-0.72303 -2.366,-2.88146 -3.69789,-4.79652 -1.33188,-1.91505 -2.88401,-3.99797 -3.44917,-4.62873 -0.56517,-0.63074 -2.81828,-3.72328 -5.00691,-6.87229 -2.18863,-3.14903 -5.13756,-7.10971 -6.55316,-8.80153 -1.4156,-1.69182 -3.20367,-4.53097 -3.97347,-6.30924 -0.76981,-1.77826 -1.73804,-3.23321 -2.15164,-3.23321 -0.41359,0 -0.75198,-0.46918 -0.75198,-1.04262 0,-0.57344 -1.45918,-3.37141 -3.24263,-6.21771 -1.78345,-2.8463 -3.90919,-6.51811 -4.72388,-8.15958 -0.81468,-1.64148 -1.7092,-3.20834 -1.98782,-3.48192 -1.08993,-1.07018 -9.61188,-17.71673 -10.94974,-21.38891 -0.39868,-1.09432 -1.94986,-4.67572 -3.44705,-7.95867 -1.4972,-3.28295 -3.12197,-6.97627 -3.61061,-8.20738 -0.48864,-1.2311 -1.39601,-3.46948 -2.01638,-4.97416 -0.62036,-1.50469 -1.45582,-3.63114 -1.85656,-4.72546 -0.40074,-1.09432 -1.21613,-3.10885 -1.81197,-4.47675 -2.954044,-6.78174 -4.157026,-10.398536 -4.157026,-12.498201 0,-1.268781 -0.447675,-2.583552 -0.994834,-2.921716 -0.547158,-0.338164 -0.994833,-2.128864 -0.994833,-3.979334 0,-1.850469 -0.447675,-3.641169 -0.994833,-3.979333 -0.547159,-0.338164 -0.994834,-1.905026 -0.994834,-3.481916 0,-1.576891 -0.447675,-3.143753 -0.994833,-3.481917 -0.547158,-0.338164 -0.994833,-1.497891 -0.994833,-2.577175 0,-1.079285 -0.952477,-4.746191 -2.116614,-8.14867 -1.164137,-3.402479 -2.53858,-9.543884 -3.054317,-13.647571 -1.009075,-8.029141 -2.19707,-16.294485 -3.932208,-27.357917 -2.434228,-15.5209017 -1.088293,-78.053756 2.044887,-95.006582 0.556184,-3.009371 1.431545,-7.709958 1.945245,-10.44575 0.5137,-2.735791 1.40764,-7.575994 1.986532,-10.756008 0.578893,-3.180005 1.605032,-7.30975 2.280312,-9.1772 0.675279,-1.86745 0.918079,-3.70507 0.539555,-4.08359 -0.872918,-0.87292 -0.465014,-1.55118 -6.067636,10.089132 -5.609466,11.654532 -5.981424,12.51363 -7.968394,18.404416 -2.827093,8.381511 -4.189477,11.899888 -4.872232,12.582652 -0.374988,0.374983 -0.681797,1.699951 -0.681797,2.944359 0,1.244407 -0.447675,2.539242 -0.994833,2.877406 -0.547158,0.338164 -0.994833,1.681189 -0.994833,2.9845 0,1.303311 -0.447675,2.646336 -0.994834,2.9845 -0.547158,0.338163 -0.994833,1.787745 -0.994833,3.22129 0,1.433545 -0.408698,3.981253 -0.908218,5.661576 -4.424899,14.884796 -6.558706,28.700603 -7.846995,50.8071329 -0.891306,15.2944481 0.631951,44.7762641 2.749939,53.2235831 4.941921,19.710204 6.005274,24.546606 6.005274,27.313477 0,1.327754 0.447675,2.690775 0.994833,3.028939 0.547159,0.338164 0.994834,1.489842 0.994834,2.559298 0,1.069446 0.41986,2.721804 0.933024,3.67191 0.513163,0.950106 2.10784,5.085019 3.543726,9.188709 1.435885,4.10369 3.030562,8.2386 3.543725,9.18871 0.513164,0.9501 0.933024,2.34017 0.933024,3.08904 0,3.27016 21.51158,43.5198 24.80797,46.41742 0.31123,0.27357 1.90764,2.50308 3.54758,4.95444 1.63994,2.45136 3.51046,5.13741 4.15674,5.969 0.64627,0.83159 3.55616,4.70054 6.46641,8.59768 6.79249,9.09585 29.46426,32.94117 36.85377,38.76141 3.1332,2.46783 6.26693,5.03519 6.96384,5.70526 3.86933,3.72033 17.12876,13.89802 23.15344,17.77215 16.81159,10.81059 19.94935,12.73172 20.80844,12.74021 0.50149,0.005 -9.01161,-10.0283 -21.14021,-22.29612 z m 79.91843,-42.339 c 11.15998,-1.27339 15.35223,-2.09017 15.98527,-3.11445 0.3008,-0.48671 1.61861,-0.88492 2.92847,-0.88492 2.29191,0 3.83674,-0.50838 11.42868,-3.76107 6.15898,-2.63874 18.38874,-8.53803 18.90183,-9.11772 0.27358,-0.30909 4.03592,-3.19634 8.36077,-6.41613 4.32484,-3.21978 9.69694,-7.87065 11.938,-10.33527 2.24105,-2.46462 5.52959,-5.9685 7.30786,-7.7864 1.77826,-1.81788 3.23321,-3.53943 3.23321,-3.82566 0,-0.28622 1.90802,-3.54679 4.24005,-7.2457 3.96946,-6.2961 5.87203,-9.90055 7.75079,-14.68396 0.42981,-1.09432 1.93678,-4.53608 3.34882,-7.64835 1.41204,-3.11229 2.56734,-6.14016 2.56734,-6.72863 0,-0.58847 0.39544,-1.84729 0.87876,-2.7974 1.00655,-1.97864 3.02801,-6.76523 4.09062,-9.686124 0.3981,-1.094317 1.4574,-3.683639 2.35397,-5.754046 0.89659,-2.070408 1.63015,-4.841954 1.63015,-6.158993 0,-1.31704 0.44767,-2.671297 0.99483,-3.009461 0.54716,-0.338164 0.99483,-2.128864 0.99483,-3.979333 0,-1.85047 0.39822,-3.610598 0.88492,-3.911396 0.4867,-0.300808 1.11656,-2.006002 1.39969,-3.78934 0.28312,-1.783338 1.03274,-5.033131 1.66583,-7.221764 2.39132,-8.267035 4.1422,-16.147249 5.0839,-22.881166 0.53563,-3.830109 1.42829,-9.873721 1.98368,-13.43025 1.03069,-6.600073 3.13139,-38.858916 3.17439,-48.746833 0.021,-4.824106 -1.28298,-24.660644 -2.87741,-43.772666 -0.29671,-3.556529 -0.94942,-6.891708 -1.45048,-7.411508 -0.50106,-0.5198 -0.90726,-2.3105 -0.90266,-3.979333 0.007,-2.705708 -0.85957,-7.055637 -4.20665,-21.105419 -0.92747,-3.893098 -1.74727,-4.647778 -13.56562,-12.487958 -6.91818,-4.58945 -16.38374,-10.18363 -21.03459,-12.43151 -15.31716,-7.40322 -21.91026,-10.23294 -23.8422,-10.23294 -1.04832,0 -2.18272,-0.44767 -2.52088,-0.99483 -0.33816,-0.54716 -1.90503,-0.99483 -3.48192,-0.99483 -1.57689,0 -3.14375,-0.44768 -3.48191,-0.99484 -0.33817,-0.54716 -1.68119,-0.99483 -2.9845,-0.99483 -1.30331,0 -2.64634,-0.44768 -2.9845,-0.99483 -0.33817,-0.54716 -1.90503,-0.99484 -3.48192,-0.99484 -1.57689,0 -3.10907,-0.39155 -3.40484,-0.87012 -0.29577,-0.47856 -2.89632,-1.15406 -5.779,-1.50111 -2.88268,-0.34705 -8.37497,-1.1325 -12.20508,-1.74545 -8.75392,-1.40093 -53.52798,-1.462 -62.17708,-0.0848 -3.55653,0.56631 -8.48095,1.31758 -10.94316,1.6695 -4.69505,0.67105 -11.05567,2.22617 -14.42509,3.52683 -1.09431,0.42242 -4.0042,1.31038 -6.46641,1.97323 -2.46222,0.66285 -5.25411,1.60923 -6.20421,2.10306 -0.95011,0.49383 -2.63496,0.89787 -3.74413,0.89787 -1.10917,0 -2.79402,0.40787 -3.74412,0.90638 -2.07898,1.09081 -19.0299,9.11496 -24.60863,11.64911 -4.18192,1.89965 -12.01423,6.87266 -14.24743,9.0462 -0.72303,0.70371 -1.6673,1.27948 -2.09837,1.27948 -0.43108,0 -2.7494,1.56252 -5.15182,3.47226 -2.40242,1.90974 -4.87543,3.47661 -5.49556,3.48192 -1.30393,0.0112 -1.94235,1.858231 -3.95767,11.450235 -1.40335,6.679251 -2.14095,10.558594 -4.39784,23.129875 -1.56395,8.711467 -3.3353,35.063308 -3.29344,48.995541 0.0412,13.6998495 1.71322,38.661093 3.26537,48.746833 0.54733,3.556529 1.43342,9.600141 1.96908,13.430249 0.53565,3.830109 1.71376,9.649884 2.618,12.932834 0.90424,3.282949 1.87193,7.428092 2.15042,9.21143 0.27849,1.783338 0.90456,3.488532 1.39127,3.78934 0.4867,0.300798 0.88491,2.060926 0.88491,3.911396 0,1.85047 0.44767,3.64117 0.99483,3.979333 0.54716,0.338164 0.99484,1.905026 0.99484,3.481917 0,1.57689 0.44767,3.143753 0.99483,3.481916 0.54716,0.338164 0.99483,1.692421 0.99483,3.009461 0,1.31704 0.73356,4.088586 1.63015,6.158993 0.89657,2.070407 1.95587,4.65973 2.35397,5.754046 0.39811,1.094321 1.23142,3.220771 1.85177,4.725461 0.62037,1.50468 1.62785,3.9669 2.23885,5.47158 0.61099,1.50469 1.50634,3.51315 1.98966,4.46325 0.48332,0.95011 0.87877,2.1834 0.87877,2.74067 0,0.55726 1.11919,3.33318 2.48708,6.16869 1.3679,2.8355 2.48709,5.51478 2.48709,5.95394 0,0.43916 2.01453,3.94136 4.47675,7.78266 2.46221,3.8413 4.47675,7.34958 4.47675,7.79617 0,1.6962 16.40485,19.11125 21.39089,22.70814 1.64038,1.18336 5.02102,3.68739 7.5125,5.5645 5.12804,3.86354 24.5206,13.67285 27.03058,13.67285 0.90691,0 1.89504,0.39822 2.19584,0.88492 0.30081,0.4867 2.11792,1.15821 4.03805,1.49225 1.92012,0.33403 5.06215,0.88064 6.98227,1.21467 1.92013,0.33404 3.73724,1.00555 4.03805,1.49225 0.3008,0.4867 3.5423,0.92954 7.20332,0.98408 3.66103,0.0545 7.7756,0.48369 9.1435,0.95366 2.59213,0.89057 11.79575,0.51588 25.36824,-1.03279 z m -78.59183,-75.27362 c -5.20788,-0.36484 -11.21009,-1.79878 -15.41991,-3.68387 -3.63164,-1.62619 -12.93284,-7.78329 -12.93284,-8.56114 0,-0.36652 -0.89825,-1.63056 -1.99612,-2.80898 -3.73585,-4.009966 -6.95738,-9.447397 -6.95738,-11.742955 0,-1.25925 -0.44767,-2.566222 -0.99483,-2.904386 -1.26041,-0.778984 -1.31129,-17.846573 -0.0601,-20.158874 0.51411,-0.950106 1.18262,-2.912613 1.48558,-4.361131 0.30295,-1.448527 2.12511,-4.517975 4.04924,-6.821005 1.92412,-2.303029 3.82975,-4.734242 4.23471,-5.402701 1.50968,-2.491928 12.89794,-9.165528 19.27132,-11.293119 7.02271,-2.344364 22.06257,-3.125477 23.24799,-1.207419 0.33816,0.547158 1.71249,0.994833 3.05406,0.994833 2.59006,0 11.64144,3.840137 12.20005,5.175989 0.18239,0.436155 0.95463,0.793011 1.71609,0.793011 0.76147,0 3.9419,2.68605 7.06764,5.969 l 5.68314,5.969 h 18.37477 18.37477 l 5.56324,-5.765238 c 5.44756,-5.645371 14.70186,-11.117073 21.48057,-12.700609 5.48351,-1.280977 20.58723,-1.635606 21.71302,-0.509812 0.58777,0.587767 2.07189,1.068659 3.29807,1.068659 1.22617,0 2.50608,0.447675 2.84424,0.994834 0.33817,0.547158 1.50834,0.994833 2.60039,0.994833 2.92791,0 12.88645,7.112541 16.92319,12.086797 4.00348,4.933279 6.83951,10.273276 6.83951,12.878167 0,0.977961 0.44767,2.054789 0.99483,2.392952 0.54716,0.338164 0.99483,4.064223 0.99483,8.280127 0,13.298723 -4.86484,22.672302 -16.72394,32.223657 -3.14719,2.53476 -9.79985,5.75597 -11.88762,5.75597 -1.00668,0 -2.2766,0.44626 -2.82203,0.99169 -0.54543,0.54543 -5.89515,1.08847 -11.88825,1.20677 -10.83389,0.21384 -15.80437,-0.68856 -21.34232,-3.87472 -1.3679,-0.787 -3.27052,-1.67936 -4.22804,-1.98302 -0.95753,-0.30366 -1.74096,-0.94758 -1.74096,-1.43092 0,-0.48334 -0.56578,-0.8788 -1.25729,-0.8788 -0.6915,0 -3.39576,-2.23838 -6.00943,-4.97417 l -4.75216,-4.974167 h -19.08833 -19.08833 l -3.50369,3.797177 c -4.67291,5.06435 -15.2522,12.12016 -18.17263,12.12016 -1.28849,0 -2.768,0.40235 -3.2878,0.89411 -1.16826,1.10525 -11.17515,1.91741 -17.85726,1.4493 z m 17.33895,-3.46037 c 1.9539,-0.61432 4.4479,-1.58785 5.54222,-2.16339 1.09432,-0.57553 3.73241,-1.97552 5.86244,-3.11108 2.13004,-1.13556 5.6696,-4.19111 7.86569,-6.79012 l 3.9929,-4.725454 21.48191,0.04606 21.48189,0.04606 2.9845,3.797864 c 4.0553,5.16049 14.54681,12.02734 18.37597,12.02734 1.04538,0 2.17737,0.44767 2.51553,0.99483 0.35162,0.56894 5.46234,0.99484 11.938,0.99484 6.47566,0 11.58638,-0.4259 11.938,-0.99484 0.33816,-0.54716 1.47016,-0.99483 2.51554,-0.99483 1.92158,0 6.01088,-2.04362 12.07461,-6.03425 5.20082,-3.42274 12.76777,-14.029432 12.76777,-17.896747 0,-0.999479 0.44767,-2.093915 0.99483,-2.432079 0.54716,-0.338164 0.99483,-4.367239 0.99483,-8.9535 0,-4.586261 -0.44767,-8.615336 -0.99483,-8.9535 -0.54716,-0.338163 -0.99483,-1.414991 -0.99483,-2.392952 0,-3.328792 -3.33032,-8.539291 -8.96211,-14.021797 -6.27622,-6.109869 -11.27221,-8.887672 -21.44274,-11.922361 -6.43084,-1.918835 -20.37045,-0.222853 -27.10334,3.297564 -1.74716,0.913525 -4.40775,2.312311 -5.91244,3.108416 -1.50468,0.796095 -5.18271,3.92982 -8.17339,6.963833 l -5.4376,5.516381 H 248.18563 228.1957 l -3.42264,-4.031095 c -3.79931,-4.47474 -13.92689,-11.886238 -16.24216,-11.886238 -0.81847,0 -1.76481,-0.447675 -2.10297,-0.994834 -0.33816,-0.547158 -2.12886,-0.994833 -3.97933,-0.994833 -1.85047,0 -3.64117,-0.447675 -3.97934,-0.994833 -1.37168,-2.219434 -13.72855,-1.074938 -21.88633,2.027112 -1.09432,0.416129 -3.3472,1.263408 -5.00641,1.882851 -1.6592,0.619443 -4.21208,2.119562 -5.67306,3.333607 -1.46098,1.214045 -3.50559,2.878859 -4.54357,3.699596 -3.11046,2.459457 -9.15038,11.528238 -9.15038,13.739056 0,1.133474 -0.44767,2.33753 -0.99483,2.675694 -0.54884,0.339198 -0.99483,4.799126 -0.99483,9.948333 0,5.149208 0.44599,9.609135 0.99483,9.948333 0.54716,0.338164 0.99483,1.489843 0.99483,2.559299 0,2.29135 1.62241,5.320239 4.72546,8.822032 1.23111,1.389302 2.23838,2.875382 2.23838,3.302382 0,1.42636 15.14517,10.68454 17.47851,10.68454 1.2654,0 2.57741,0.44767 2.91557,0.99483 0.84136,1.36136 19.88892,1.26564 24.30278,-0.12212 z M 241.4485,88.614427 c -0.86847,-1.47107 1.08432,-4.755045 5.17328,-8.699857 4.50058,-4.34191 5.52166,-8.50289 2.08656,-8.50289 -1.09431,0 -1.98966,0.447675 -1.98966,0.994833 0,0.547158 -1.11919,0.994833 -2.48709,0.994833 -1.64173,0 -2.48708,-0.55447 -2.48708,-1.631288 0,-2.54355 3.08456,-4.271446 7.68703,-4.306076 3.40371,-0.02557 4.51476,0.44096 5.82995,2.448195 2.19463,3.349435 1.13922,7.030259 -3.13957,10.949484 -3.86394,3.539229 -3.59107,4.477685 1.30192,4.477685 2.69101,0 3.32064,0.358588 3.05686,1.740958 -0.27303,1.430859 -1.59996,1.79272 -7.4496,2.03154 -3.91457,0.15982 -7.32674,-0.06397 -7.5826,-0.497417 z M 182.05451,-3.8630898 c -1.91505,-0.2609348 -3.90721,-0.8901769 -4.42701,-1.3983278 -0.5198,-0.5081409 -1.89552,-0.9239017 -3.05716,-0.9239017 -2.15809,0 -16.39183,-8.5549397 -16.39183,-9.8520337 0,-0.393775 -0.89825,-1.680124 -1.99612,-2.858544 -3.73585,-4.009964 -6.95738,-9.447395 -6.95738,-11.742953 0,-1.25925 -0.44767,-2.566222 -0.99483,-2.904386 -0.54884,-0.339198 -0.99483,-4.799125 -0.99483,-9.948333 0,-5.149207 0.44599,-9.609135 0.99483,-9.948333 0.54716,-0.338164 1.00971,-1.595693 1.02788,-2.794507 0.0182,-1.198814 1.33908,-3.97036 2.93533,-6.158993 1.59625,-2.188633 3.62906,-5.098521 4.51735,-6.466416 1.84468,-2.840657 13.61488,-10.943167 15.89671,-10.943167 0.83347,0 2.29275,-0.39272 3.24285,-0.872708 5.90829,-2.984868 22.17513,-4.439612 23.6138,-2.111792 0.33816,0.547158 1.88004,0.994833 3.42641,0.994833 4.97521,0 16.73394,6.381379 20.947,11.367792 5.79158,6.85469 4.58551,6.539208 24.99921,6.539208 h 18.65502 l 4.06403,-4.819689 c 2.23521,-2.650833 5.28367,-5.448095 6.77434,-6.216126 1.49067,-0.768031 2.93416,-1.64431 3.20773,-1.947267 0.27358,-0.302957 2.28812,-1.388559 4.47675,-2.412451 10.9253,-5.111066 27.19943,-5.76093 35.5518,-1.419677 0.9501,0.493835 2.41011,0.897877 3.24446,0.897877 1.76132,0 12.22551,6.982476 14.4415,9.636433 5.24131,6.277199 8.93933,12.602111 8.93933,15.289404 0,0.99948 0.44767,2.093916 0.99483,2.432079 0.54716,0.338164 0.99483,4.064223 0.99483,8.280127 0,9.041832 -2.1754,15.85636 -7.28301,22.814314 -5.21816,7.108562 -16.05783,15.1653087 -20.40362,15.1653087 -0.96824,0 -2.32003,0.5595938 -3.00397,1.2435417 -0.86112,0.8611177 -5.03717,1.2435416 -13.57948,1.2435416 -8.5423,0 -12.71836,-0.3824239 -13.57947,-1.2435416 -0.68395,-0.6839479 -2.02538,-1.2435417 -2.98094,-1.2435417 -2.88959,0 -13.01106,-6.5638207 -17.55678,-11.3856487 l -4.27219,-4.531684 h -19.17242 -19.17242 l -4.34469,4.974166 c -2.38959,2.735792 -4.93401,4.974167 -5.65427,4.974167 -0.72026,0 -1.30957,0.395466 -1.30957,0.878806 0,0.483339 -0.78343,1.127255 -1.74096,1.4309182 -0.95752,0.3036629 -2.86014,1.1910045 -4.22804,1.9718691 -1.36789,0.7808546 -4.05394,1.9485402 -5.969,2.5948536 -3.84049,1.2961285 -18.41041,2.1594747 -23.876,1.4147823 z m 21.33918,-3.4189636 c 0.5198,-0.4911094 1.70859,-0.8929325 2.64178,-0.8929325 3.23171,0 10.36708,-4.5025861 16.1595,-10.1970411 l 5.81871,-5.720292 h 21.2905 c 11.70978,0 21.30247,0.335756 21.31709,0.746125 0.035,0.981075 7.58185,9.202208 8.4475,9.202208 0.36832,0 1.99331,0.942505 3.61107,2.094453 6.07118,4.3230677 12.62402,5.957151 23.68253,5.9057182 5.71968,-0.026562 10.84556,-0.4944919 11.39084,-1.03977 0.54527,-0.5452681 1.95164,-0.9914011 3.12528,-0.9914011 2.73451,0 14.01004,-7.2680131 17.5566,-11.3166871 2.56445,-2.927506 5.07596,-7.479614 7.64119,-13.849661 1.38716,-3.44463 1.48469,-18.263847 0.12573,-19.103735 -0.54716,-0.338163 -0.99483,-1.432599 -0.99483,-2.432079 0,-7.177205 -14.1197,-20.719055 -24.87084,-23.852989 -2.46221,-0.717732 -5.77466,-1.700419 -7.36099,-2.183739 -3.9109,-1.191571 -13.2676,-1.114163 -14.02792,0.116058 -0.33817,0.547158 -1.93752,0.994833 -3.55413,0.994833 -1.61661,0 -3.82856,0.447675 -4.91546,0.994833 -1.08689,0.547159 -2.87151,1.442509 -3.96583,1.989667 -5.09042,2.545211 -6.85715,3.862072 -12.34588,9.202208 l -5.87947,5.720292 -19.9862,-0.005 -19.9862,-0.005 -5.52038,-5.715526 c -3.03621,-3.143544 -6.84145,-6.386322 -8.45608,-7.206194 -1.61464,-0.819862 -3.15954,-1.733985 -3.43312,-2.03138 -0.27358,-0.297396 -2.51196,-1.111876 -4.97417,-1.80996 -2.46221,-0.698075 -5.85156,-1.686571 -7.53188,-2.196652 -5.72497,-1.737884 -10.78848,-1.11866 -24.17613,2.956525 -1.84541,0.561743 -4.52458,1.787507 -5.95374,2.723923 -7.25788,4.75596 -16.05925,15.240071 -16.05925,19.130038 0,1.100226 -0.44767,2.277094 -0.99483,2.615258 -1.36033,0.840724 -1.26164,17.647169 0.12387,21.093401 2.07997,5.173631 3.35247,7.721518 4.8503,9.711653 2.66763,3.544441 10.12719,10.479952 11.29623,10.502654 0.62655,0.01214 2.25837,0.897558 3.62627,1.967541 1.36789,1.0699835 3.40481,1.9553752 4.52649,1.967542 1.12167,0.012137 2.46522,0.4479436 2.98566,0.9683807 1.85303,1.8530263 22.80022,1.8079305 24.77019,-0.053323 z m 45.31465,-32.1361206 v -7.50557 l -2.9845,0.5969 c -3.55654,0.711306 -3.96425,-0.853507 -0.88381,-3.392172 1.15537,-0.952165 2.69025,-2.290813 3.41085,-2.974761 0.7206,-0.683948 2.25265,-1.243542 3.40456,-1.243542 2.01691,0 2.08394,0.395566 1.81202,10.694459 -0.27022,10.234377 -0.37867,10.708137 -2.52074,11.012357 -2.15158,0.305573 -2.23838,0.02686 -2.23838,-7.187671 z m 12.93284,-116.986976 v -8.9535 h -12.93284 -12.93283 v 8.9535 8.9535 h 12.93283 12.93284 z m 0,-14.80661 v -3.86344 l -6.46642,-0.41175 c -3.55653,-0.22646 -9.3763,-0.22646 -12.93283,0 l -6.46642,0.41175 v 3.86344 3.86344 h 12.93283 12.93284 z"
       style="fill:#000000;stroke-width:0.99483329" />
  </g>
</svg>
