<?xml version="1.0" encoding="UTF-8" standalone="no"?>
<svg
   xmlns:dc="http://purl.org/dc/elements/1.1/"
   xmlns:cc="http://creativecommons.org/ns#"
   xmlns:rdf="http://www.w3.org/1999/02/22-rdf-syntax-ns#"
   xmlns:svg="http://www.w3.org/2000/svg"
   xmlns="http://www.w3.org/2000/svg"
   id="svg8"
   version="1.1"
   viewBox="0 0 500 500"
   height="500mm"
   width="500mm">
  <defs
     id="defs2" />
  <metadata
     id="metadata5">
    <rdf:RDF>
      <cc:Work
         rdf:about="">
        <dc:format>image/svg+xml</dc:format>
        <dc:type
           rdf:resource="http://purl.org/dc/dcmitype/StillImage" />
        <dc:title></dc:title>
      </cc:Work>
    </rdf:RDF>
  </metadata>
  <g
     transform="translate(0,203)"
     id="layer1">
    <path
       id="path75"
       d="M 227.58677,278.89776 V 260.76533 H 130.12493 32.663097 V 207.50129 154.23726 H 16.797217 0.93133541 L 1.0758101,58.475342 1.2202864,-37.286583 14.108498,-64.952312 c 10.628356,-22.814734 15.796511,-30.862586 29.474554,-45.897728 l 16.586338,-18.232 h 83.65255 83.65254 l 0.62279,-36.83151 0.62278,-36.83151 h 10.19949 10.1995 l 1.13327,24.55584 c 0.96487,20.90665 1.78711,25.03278 5.53295,27.76529 5.58019,4.07062 10.55256,4.07062 16.13275,0 3.74584,-2.73251 4.56808,-6.85864 5.53296,-27.76529 l 1.13327,-24.55584 h 10.1995 10.19949 l 0.62278,36.83151 0.62279,36.83151 h 83.92068 83.9207 l 13.48501,28.57417 13.485,28.574178 -0.031,94.386412 -0.0311,94.3864 -16.86323,18.13243 -16.86322,18.13244 -0.10494,35.35338 -0.10483,35.35337 -16.3878,18.4773 -16.38777,18.47729 h -64.07489 -64.07487 v 18.13243 18.13244 H 288.78377 277.451 v -18.13244 -18.13243 h -13.59933 -13.59933 v 18.13243 18.13244 H 238.91957 227.5868 Z m 20.39899,-1.13327 v -16.99916 h -9.22243 -9.2224 l 0.47817,15.29924 c 0.26298,8.41458 0.90344,16.06421 1.42323,16.99916 0.5198,0.93495 4.45472,1.69991 8.74426,1.69991 h 7.79917 z m 49.86419,0 v -16.99916 h -9.06621 -9.06622 v 13.41395 c 0,18.17626 1.22158,20.58436 10.442,20.58436 h 7.69043 z m 127.31551,-28.33193 -0.8646,-9.06622 H 230.74852 37.196205 v 9.06622 9.06621 H 231.61315 426.03006 Z m 33.5206,-60.63034 0.0893,-34.56496 h -14.7326 -14.73262 l 0.061,50.43084 0.061,50.43084 14.58247,-15.86588 14.58247,-15.86589 0.0893,-34.56495 z m -33.43721,6.23554 -0.66141,-43.06705 h 17.09393 17.09394 V 136.10483 120.23895 H 230.9866 3.1978899 v 15.86588 15.86588 H 20.197048 37.196205 v 43.06453 43.06455 l 194.357035,0.002 194.35703,0.002 -0.66142,-43.06705 z M 80.260739,181.43592 V 138.37138 H 230.9866 381.71246 v 43.06454 43.06453 H 230.9866 80.260739 Z m 7.413516,-0.0562 0.728087,-37.34194 -0.104327,39.10088 -0.104326,39.10084 17.565801,-0.002 17.56578,-0.003 0.51089,-40.23134 0.51089,-40.23134 0.67469,40.23134 c 0.64291,38.33625 0.88575,40.23134 5.1555,40.23134 4.29742,0 4.4808,-1.66977 4.4808,-40.79798 V 140.63794 H 108.59267 82.527293 v 41.25129 c 0,52.41267 4.123052,52.00451 5.146962,-0.50952 z m 83.248645,0.0562 v -40.79798 h -16.99915 -16.99916 v 40.79798 40.79799 h 16.99916 16.99915 z m 13.73344,0 1.26739,-39.6647 -0.13412,40.23415 -0.13411,40.23412 17.56579,-0.002 17.56581,-0.002 V 181.43697 140.639 h -23.79883 -23.79882 v 40.95562 40.95562 l 5.09974,-0.72428 c 5.01038,-0.71266 5.12198,-1.42059 6.36715,-40.39005 z m 47.46354,0 c 0,-39.28694 -0.16795,-40.79798 -4.53311,-40.79798 -4.36523,0 -4.53311,1.51104 -4.53311,40.79798 0,39.28693 0.16795,40.79799 4.53311,40.79799 4.36523,0 4.53311,-1.51106 4.53311,-40.79799 z m 36.26487,0 v -40.79798 h -16.99916 -16.99916 v 40.79798 40.79799 h 16.99916 16.99916 z m 13.08498,-0.56664 0.61895,-40.23134 h -5.7187 -5.71868 v 40.95562 40.95562 l 5.09975,-0.72428 c 5.04278,-0.71619 5.10665,-1.17353 5.71868,-40.95562 z m 36.77921,0.56664 v -40.79798 h -16.99915 -16.99916 v 40.79798 40.79799 h 16.99916 16.99915 z m 11.33277,0 c 0,-39.28694 -0.16795,-40.79798 -4.5331,-40.79798 -4.36523,0 -4.53311,1.51104 -4.53311,40.79798 0,39.28693 0.16795,40.79799 4.53311,40.79799 4.36522,0 4.5331,-1.51106 4.5331,-40.79799 z m 36.26487,0 v -40.79798 h -16.99915 -16.99916 v 40.79798 40.79799 h 16.99916 16.99915 z m 13.59933,0 v -40.79798 h -5.66639 -5.66638 v 40.79798 40.79799 h 5.66638 5.66639 z m 99.42703,-50.65938 13.90068,-15.5278 -0.002,-15.07068 -0.002,-15.070704 -15.7543,16.999154 -15.75429,16.99916 -0.10858,15.75256 c -0.0621,9.02895 0.73027,14.83351 1.85665,13.59932 1.08088,-1.18427 8.22053,-9.14071 15.86588,-17.68101 z M 86.022571,94.740212 c -0.224638,-12.7777 0.03594,-25.017094 0.579057,-27.198653 0.92778,-3.726691 9.87763,-3.96647 148.049142,-3.96647 h 147.06169 v 27.198653 27.198648 h 38.53143 38.53142 V 42.042821 -33.886752 H 230.9866 3.1978899 v 75.929573 75.929569 h 41.6165491 41.61655 z m -62.266387,7.932938 c 0.151677,-3.776779 3.880518,-14.29171 4.214499,-11.884448 0.08762,0.63153 1.108055,4.456341 2.267641,8.499579 1.858404,6.479879 1.589716,7.351339 -2.266555,7.351339 -2.716214,0 -4.314491,-1.50383 -4.215585,-3.96647 z m 26.240541,-3.250032 c -2.123645,-7.929835 -1.855933,-8.649376 3.218099,-8.649376 3.804883,0 4.396175,0.958775 3.145083,5.099748 -2.398672,7.93933 -4.825109,9.29287 -6.363182,3.549628 z M 25.523451,81.707525 c -0.186992,-2.49321 -0.441979,-5.72305 -0.566639,-7.17743 -0.12466,-1.454358 1.048281,-3.069278 2.606537,-3.588703 1.91515,-0.638376 2.833193,1.687313 2.833193,7.177429 0,8.42841 -4.274048,11.57595 -4.873091,3.588704 z m 23.896307,1.133277 c 0.756676,-1.869907 2.059076,-5.097073 2.894227,-7.171469 1.027144,-2.551302 0.66046,-3.241399 -1.133277,-2.132805 -1.458454,0.901386 -2.65173,0.558728 -2.65173,-0.76145 0,-3.097133 6.085255,-3.123379 7.994302,-0.03445 0.804194,1.301229 0.229525,3.851103 -1.277041,5.666385 -1.929164,2.324465 -1.986868,3.300512 -0.195127,3.300512 1.399247,0 2.544083,1.019949 2.544083,2.266554 0,1.246606 -2.149023,2.266554 -4.775605,2.266554 -3.345401,0 -4.363586,-1.01818 -3.399832,-3.399831 z M 26.203036,59.608619 c -0.237866,-5.15954 0.669796,-7.366302 3.029812,-7.366302 3.793679,0 10.069553,-13.325051 10.538576,-22.375698 0.297548,-5.741771 0.345416,-5.762057 1.329313,-0.563487 1.319758,6.973122 -5.63008,25.205739 -9.607829,25.205739 -1.684002,0 -3.486722,2.804861 -4.006046,6.233025 -0.878833,5.801383 -0.967741,5.722891 -1.283826,-1.133277 z M 51.321379,59.04198 c 0,-4.363117 0.466446,-6.148029 1.036548,-3.96647 0.570099,2.181558 0.570099,5.751382 0,7.93294 -0.570102,2.181559 -1.036548,0.396647 -1.036548,-3.96647 z M 305.10293,31.390016 c -3.85093,-3.850922 -3.37316,-14.435481 0.84187,-18.650501 5.92853,-5.9285371 13.79485,-3.6308623 17.07109,4.986261 4.22848,11.121732 -9.77413,21.803074 -17.91296,13.66424 z M 320.1433,24.02215 c 0.49917,-4.386304 -0.58361,-7.671153 -3.14629,-9.545027 -5.27373,-3.856247 -12.34739,0.03558 -12.34739,6.793136 0,11.986242 14.15667,14.500645 15.49368,2.751891 z M 42.995368,23.878678 C 41.052433,19.228592 39.582724,11.723712 39.729349,7.2011888 c 0.255588,-7.88348454 0.339737,-7.78989856 2.039213,2.2675512 0.974942,5.769696 2.977512,12.741708 4.450155,15.493373 1.472644,2.751665 2.144673,5.535878 1.493396,6.187149 -0.651273,0.651273 -2.773809,-2.620476 -4.716745,-7.270584 z M 331.84827,21.643832 c 0,-8.966194 3.6467,-10.501604 6.72903,-2.833193 l 2.04986,5.099748 0.1437,-5.288621 c 0.21782,-8.020949 5.34972,-4.621934 5.59585,3.706338 0.21645,7.323804 -1.84704,9.62982 -3.95108,4.415476 -0.91458,-2.266555 -1.17899,-2.266555 -1.32215,0 -0.0985,1.558255 -2.2189,2.833192 -4.7121,2.833192 -3.66966,0 -4.53311,-1.511043 -4.53311,-7.93294 z m 16.48809,4.018601 c -2.05531,-5.356072 3.2841,-8.900283 8.50058,-5.642564 2.46209,1.537608 4.47653,2.012405 4.47653,1.055103 0,-0.957302 2.03991,-3.014494 4.53311,-4.571527 4.20113,-2.623649 4.53311,-2.263585 4.53311,4.916384 0,7.717028 -0.0408,7.746742 -10.40961,7.589987 -6.74186,-0.101998 -10.8409,-1.281351 -11.63372,-3.347383 z m 5.4592,-3.310303 c -0.72352,-1.808098 -1.26061,-1.271038 -1.36936,1.369385 -0.0983,2.38931 0.43726,3.728006 1.19044,2.974852 0.75315,-0.753176 0.83366,-2.708079 0.17883,-4.344237 z m 11.33277,0 c -0.72352,-1.808098 -1.26061,-1.271038 -1.36936,1.369385 -0.0983,2.38931 0.43726,3.728006 1.19044,2.974852 0.75315,-0.753176 0.83366,-2.708079 0.17883,-4.344237 z m 7.51792,1.392073 c 0,-4.226422 1.04055,-5.630778 3.77864,-5.099748 5.30546,1.028925 6.56405,6.391706 1.50998,6.433909 -3.51218,0.02946 -3.62912,0.374797 -0.75552,2.231854 2.9055,1.877682 2.82312,2.202184 -0.56663,2.231853 -2.75899,0.02403 -3.96647,-1.740849 -3.96647,-5.797868 z M 34.929651,-10.08793 c 0,-4.363118 1.019949,-7.932941 2.266554,-7.932941 1.246605,0 2.266555,2.985062 2.266555,6.63347 0,4.4116772 1.328516,6.9806574 3.96647,7.6700078 2.440313,0.6377402 1.568222,1.1377187 -2.266555,1.2994837 -5.662501,0.2388491 -6.233024,-0.463194 -6.233024,-7.6700205 z M 134.65803,91.907019 V 65.841643 H 111.9925 89.326956 v 26.065376 26.065371 h 22.665544 22.66553 z m -25.81586,16.053061 c -0.75635,-3.01357 -0.46198,-7.85833 0.65416,-10.766141 l 2.02933,-5.28692 2.35139,5.989779 c 2.40515,6.126702 1.25217,15.542492 -1.90319,15.542492 -0.96607,0 -2.37533,-2.46565 -3.13169,-5.47921 z m -1.02005,-30.219025 c 0.34849,-8.165875 0.39822,-8.215898 1.2664,-1.273827 0.54352,4.345914 2.43145,7.628633 4.73701,8.236659 2.72379,0.718294 2.35722,1.086994 -1.26639,1.273827 -4.48815,0.231392 -5.05624,-0.756418 -4.73702,-8.236659 z m 76.70012,14.165964 V 65.841643 h -23.79883 -23.79882 v 26.065376 26.065371 h 23.79882 23.79883 z m -26.86101,14.726911 c -1.46217,-4.19439 -1.77926,-8.20388 -0.70465,-8.909979 1.07461,-0.7061 2.46372,-2.813747 3.0869,-4.683654 0.70035,-2.101504 1.72845,-0.750751 2.69219,3.537117 0.85754,3.815336 0.66475,9.354746 -0.42839,12.309816 -1.94628,5.26126 -2.04277,5.21448 -4.64605,-2.2533 z m 1.31002,-26.538651 c 2.21029,-3.379954 2.81426,-5.403216 1.34214,-4.496141 -1.47212,0.907074 -3.25117,0.719517 -3.95346,-0.416797 -0.70227,-1.136315 0.28581,-2.665695 2.19574,-3.398607 4.45047,-1.707804 6.92008,4.429821 3.45999,8.598967 -1.99588,2.404883 -1.92178,3.428594 0.31307,4.325311 1.61028,0.646104 0.60939,1.255263 -2.22421,1.353677 -5.08307,0.176565 -5.09823,0.09678 -1.13327,-5.96641 z m 73.14863,11.81174 V 65.841643 h -22.66554 -22.66556 v 26.065376 26.065371 h 22.66556 22.66554 z m -25.72701,14.724541 c -0.74076,-3.70378 -0.50708,-9.004165 0.51926,-11.778655 1.8211,-4.92291 1.92379,-4.936668 4.26009,-0.571239 2.45656,4.590112 1.3607,16.121684 -1.71256,18.021054 -0.94598,0.58464 -2.32604,-1.96737 -3.06679,-5.67116 z m 2.32959,-24.019499 c 0.76583,-1.995724 0.17557,-4.380661 -1.31169,-5.299839 -2.00319,-1.238038 -1.79505,-2.425689 0.803,-4.581885 3.05534,-2.535707 3.50712,-1.852998 3.50712,5.299839 0,4.515748 -0.98795,8.210457 -2.19542,8.210457 -1.20748,0 -1.56883,-1.632871 -0.80301,-3.628572 z m 73.26161,9.294958 V 65.841643 h -23.79882 -23.79882 v 26.065376 26.065371 h 23.79882 23.79882 z m -29.2555,-13.599326 -0.10881,-9.066218 4.26597,5.550701 4.26597,5.550701 1.04136,-5.550701 c 0.74816,-3.987934 1.12826,-3.157673 1.35002,2.948879 0.31562,8.691375 -3.20375,11.530234 -5.8252,4.698816 -1.30503,-3.400829 -1.63851,-3.341195 -3.16939,0.566639 -1.2271,3.132378 -1.74172,1.803633 -1.81982,-4.698817 z m 76.85314,13.599326 V 65.841643 h -22.66554 -22.66554 v 26.065376 26.065371 h 22.66554 22.66554 z m -27.19865,19.719021 c 0,-0.99728 1.26642,-3.07965 2.81424,-4.62749 2.24131,-2.2413 2.19204,-3.19881 -0.24197,-4.7031 -2.30797,-1.42638 -2.39371,-2.298328 -0.35021,-3.561274 4.42394,-2.734122 7.61435,2.231244 4.80568,7.479264 -1.84003,3.43812 -1.7503,4.87964 0.35667,5.73078 1.54831,0.62546 0.5202,1.21771 -2.28466,1.31612 -2.80487,0.0985 -5.09975,-0.63701 -5.09975,-1.6343 z m -0.38313,-26.980358 c -2.62254,-3.159963 -2.30169,-3.39931 2.66745,-1.989741 l 5.64862,1.602296 -5.66638,-4.552828 c -4.3645,-3.506768 -5.05045,-5.170804 -2.98556,-7.242684 4.25424,-4.268579 9.06611,-0.85057 9.27767,6.590166 0.22371,7.870678 -4.56536,10.866111 -8.9418,5.592791 z m 75.60884,7.256895 0.70386,-26.069841 -23.23218,0.0045 -23.23218,0.0044 v 26.065376 26.065378 h 22.52832 22.52833 z m -23.09496,17.192473 c 0,-2.38931 -1.13178,-4.72148 -2.51508,-5.18259 -1.57342,-0.52446 -1.14912,-1.97202 1.13327,-3.86624 3.23925,-2.688341 3.64837,-2.107196 3.64837,5.18261 0,4.51574 -0.50998,8.21046 -1.13328,8.21046 -0.6233,0 -1.13328,-1.95491 -1.13328,-4.34424 z M 352.8139,86.851152 c -4.41829,-1.541189 -3.32689,-5.156592 1.13327,-3.754184 3.51369,1.10481 3.48123,0.850366 -0.28429,-2.228794 -4.74215,-3.877803 -3.53605,-10.493422 1.91308,-10.493422 4.84815,0 4.37133,4.500493 -0.49551,4.676786 -3.03901,0.110153 -2.77404,0.622963 1.13328,2.193503 8.35331,3.357629 5.09331,12.568679 -3.39983,9.606111 z m 126.05904,9.927079 13.90068,-15.527802 -0.002,-75.1343767 -0.002,-75.1343973 -15.7543,16.999158 -15.75429,16.999158 -0.10858,75.816246 c -0.0614,42.930331 0.74389,74.882263 1.85665,73.663023 1.08088,-1.18427 8.22053,-9.14072 15.86588,-17.681009 z m -5.27516,-148.23078 c 8.00223,-8.414583 15.12064,-16.994151 15.81867,-19.065709 0.69803,-2.071556 -4.08814,-15.585892 -10.6359,-30.031862 l -11.90503,-26.26538 -13.68296,15.06794 c -7.52564,8.28736 -14.45966,16.377395 -15.40896,17.977828 -1.01854,1.717149 3.02227,13.255105 9.85831,28.148906 6.37137,13.881462 11.15244,25.670887 10.62461,26.198718 -0.52781,0.527831 -6.37913,-10.760153 -13.00288,-25.084407 L 433.22043,-90.550617 H 231.07341 28.926398 L 16.218199,-63.351959 3.5100025,-36.153306 H 231.27914 459.04827 Z m -25.24453,-58.363781 15.27455,-16.99916 -201.3164,0.022 -201.316374,0.022 -14.165965,15.67769 c -7.79128,8.62274 -14.165964,16.262472 -14.165964,16.977174 0,0.714715 90.093503,1.299481 200.207803,1.299481 h 200.20779 z m -150.5033,-54.3973 v -35.1316 h -9.06621 -9.06622 v 22.23816 c 0,19.24685 -0.62166,22.90541 -4.62141,27.19866 -6.47977,6.95521 -16.50188,6.50288 -22.41273,-1.01156 -3.99293,-5.07618 -4.69762,-9.15628 -4.69762,-27.19865 v -21.22661 h -9.06622 -9.06621 v 33.62056 c 0,18.4913 0.67996,34.30052 1.51104,35.13159 0.83105,0.83107 16.13029,1.51104 33.99831,1.51104 h 32.48727 z"
       style="fill:#000000;stroke-width:2.26655436" />
  </g>
</svg>
