<?xml version="1.0" encoding="UTF-8" standalone="no"?>
<!-- Created with Inkscape (http://www.inkscape.org/) -->

<svg
   xmlns:dc="http://purl.org/dc/elements/1.1/"
   xmlns:cc="http://creativecommons.org/ns#"
   xmlns:rdf="http://www.w3.org/1999/02/22-rdf-syntax-ns#"
   xmlns:svg="http://www.w3.org/2000/svg"
   xmlns="http://www.w3.org/2000/svg"
   xmlns:sodipodi="http://sodipodi.sourceforge.net/DTD/sodipodi-0.dtd"
   xmlns:inkscape="http://www.inkscape.org/namespaces/inkscape"
   width="500"
   height="500"
   viewBox="0 0 132.29166 132.29167"
   version="1.1"
   id="svg8"
   inkscape:version="0.92.4 (5da689c313, 2019-01-14)"
   sodipodi:docname="icon.svg">
  <defs
     id="defs2" />
  <sodipodi:namedview
     id="base"
     pagecolor="#ffffff"
     bordercolor="#666666"
     borderopacity="1.0"
     inkscape:pageopacity="0.0"
     inkscape:pageshadow="2"
     inkscape:zoom="1.3898629"
     inkscape:cx="166.25374"
     inkscape:cy="269.38455"
     inkscape:document-units="mm"
     inkscape:current-layer="layer1"
     showgrid="false"
     units="px"
     inkscape:window-width="1920"
     inkscape:window-height="1017"
     inkscape:window-x="-8"
     inkscape:window-y="-8"
     inkscape:window-maximized="1" />
  <metadata
     id="metadata5">
    <rdf:RDF>
      <cc:Work
         rdf:about="">
        <dc:format>image/svg+xml</dc:format>
        <dc:type
           rdf:resource="http://purl.org/dc/dcmitype/StillImage" />
        <dc:title></dc:title>
      </cc:Work>
    </rdf:RDF>
  </metadata>
  <g
     inkscape:label="Ebene 1"
     inkscape:groupmode="layer"
     id="layer1"
     transform="translate(0,-164.70832)">
    <path
       style="fill:#000000;stroke-width:0.57210732"
       d="m 4.9303538,233.55016 v -58.23343 l 2.73716,-2.69601 2.7371612,-2.696 h 58.478318 58.478317 v 58.47632 58.47632 l -2.40755,2.45312 -2.40755,2.45311 H 63.738283 4.9303538 Z M 121.35418,233.42864 v -57.49679 l -57.470937,-0.1458 c -38.862601,-0.0986 -57.2830122,0.0421 -56.8905252,0.43463 0.386682,0.38668 19.4742732,0.53083 57.1848852,0.43185 l 56.604477,-0.14858 v 56.92469 56.92468 H 63.857403 6.9327288 l 0.148599,-56.3184 c 0.09853,-37.34262 -0.04604,-56.51304 -0.429081,-56.89608 -0.388834,-0.38883 -0.577679,18.03743 -0.577679,56.36607 0,31.31907 0.172863,57.11662 0.38414,57.3279 0.211278,0.21128 26.1491912,0.31855 57.6398152,0.23838 l 57.255657,-0.14577 z m 5.43502,-4.40692 c 0,-31.55937 -0.18083,-57.38068 -0.40184,-57.38068 -0.22102,0 -1.25081,0.82285 -2.28843,1.82855 l -1.88659,1.82855 v 57.78672 57.78673 l 2.28843,-2.23459 2.28843,-2.2346 z m -7.43739,4.69297 V 177.93422 H 63.571353 7.7908898 v 55.78047 55.78047 H 63.571353 119.35181 Z m -63.665527,48.312 c -1.1902,-0.29199 -2.9065,-0.91485 -3.814,-1.38413 -1.35076,-0.69851 -4.58066,-0.8501 -17.80908,-0.83587 -12.636658,0.0136 -16.261742,-0.14446 -16.630073,-0.72512 -0.259052,-0.40838 -0.474945,-18.96801 -0.479763,-41.24361 l -0.0088,-40.50111 2.652771,-2.83602 2.652771,-2.83603 h 41.685544 41.685537 v 41.64472 41.64472 l -2.48041,2.43435 -2.48043,2.43434 -16.349147,-0.0168 c -14.83156,-0.0152 -16.57949,0.0842 -18.83058,1.07014 -3.14492,1.37747 -7.01551,1.83208 -9.79438,1.15035 z m 9.31534,-1.73154 c 5.43376,-2.45967 8.56623,-7.36472 8.57601,-13.42893 0.0227,-14.08626 -18.69915,-19.83019 -26.5801,-8.15486 -2.808005,4.15996 -3.351102,10.53058 -1.24495,14.60344 3.67403,7.10479 12.16885,10.18529 19.24904,6.98035 z M 43.261541,266.89692 v -12.30031 h -12.58636 -12.58636 v 12.30031 12.3003 h 12.58636 12.58636 z m 5.629742,11.58517 c -1.38109,-1.11963 -3.707207,-4.54765 -4.367358,-6.43621 -0.518859,-1.48435 -0.606048,-1.11707 -0.645111,2.71751 l -0.04517,4.43383 h 2.969879 c 2.46498,0 2.81992,-0.12157 2.08775,-0.71513 z m 25.25149,-3.43264 -0.0126,-4.14778 -1.04319,2.28843 c -0.57376,1.25863 -1.74951,3.12513 -2.61278,4.14778 l -1.56958,1.85934 h 2.62534 2.62534 l -0.0126,-4.14777 z m 26.329497,-8.15253 V 254.59661 H 87.599853 74.727443 v 12.30031 12.3003 h 12.87241 12.872417 z m 3.0434,8.97537 1.54114,-1.60861 -0.14687,-40.87036 -0.14687,-40.87036 -40.932827,-0.14678 -40.93283,-0.14678 -1.944417,2.00613 -1.944418,2.00613 h 40.847635 40.847637 l 2.02961,-1.85935 2.02961,-1.85935 -1.86079,2.03111 -1.8608,2.0311 0.0147,40.44787 c 0.008,22.24632 0.218,40.44786 0.4665,40.44786 0.24851,0 1.14535,-0.72387 1.99299,-1.60861 z m -55.243807,-19.70239 2.08718,-2.1454 h -3.2627 -3.262695 l 0.01256,4.71989 0.01256,4.71988 1.162952,-2.57448 c 0.639623,-1.41597 2.102183,-3.53992 3.250133,-4.71989 z m 25.88347,2.14541 v -4.29081 h -3.19961 -3.1996 l 2.63392,2.92956 c 1.44866,1.61125 2.78767,3.54211 2.97557,4.2908 0.58012,2.3114 0.78972,1.53388 0.78972,-2.92955 z m -20.30981,-5.70458 c 2.92574,-1.05403 7.3722,-1.05403 10.29793,0 1.79663,0.64726 5.94619,0.82628 19.30862,0.83305 l 17.020197,0.009 v -28.3197 -28.31931 H 59.280543 18.088821 v 28.31931 28.31931 l 16.734138,-0.009 c 13.113324,-0.007 17.229294,-0.18699 19.022564,-0.83304 z m -25.81279,-4.04468 c -1.174704,-1.79283 -0.409968,-3.94381 1.752425,-4.92906 1.99685,-0.90983 4.322666,0.63687 4.322666,2.87464 0,3.3627 -4.271419,4.80716 -6.075091,2.05442 z m 4.646926,-0.26495 c 2.106828,-2.32802 -1.384315,-5.53796 -3.606379,-3.3159 -1.011687,1.01169 -0.834618,3.17511 0.314659,3.84451 1.470309,0.85637 2.134915,0.74965 3.29172,-0.52861 z m -1.959312,-2.42913 c 0.03018,-0.86013 0.153558,-1.0025 0.371838,-0.42908 0.179669,0.47199 0.609879,1.04731 0.956021,1.27848 0.388194,0.25926 0.245712,0.42368 -0.371837,0.42908 -0.67264,0.006 -0.986367,-0.41366 -0.956022,-1.27848 z m 26.271766,1.77052 c 0,-1.17264 0.26165,-2.29378 0.58144,-2.49142 0.31979,-0.19764 0.46515,-0.54752 0.32301,-0.77751 -0.14214,-0.22998 0.35193,-0.41815 1.09793,-0.41815 0.746,0 1.24007,0.18817 1.09793,0.41815 -0.14214,0.22999 0.003,0.57987 0.32301,0.77751 0.31979,0.19764 0.58143,1.31878 0.58143,2.49142 0,2.05525 -0.0721,2.13207 -2.00237,2.13207 -1.93023,0 -2.00238,-0.0768 -2.00238,-2.13207 z m 2.59599,-2.31645 c 0.18737,-0.18738 0.0953,-0.49235 -0.20467,-0.67772 -0.29994,-0.18538 -0.84634,0.0256 -1.21421,0.46888 -0.52771,0.63585 -0.48452,0.77887 0.20468,0.67772 0.48043,-0.0705 1.02683,-0.28151 1.2142,-0.46888 z m 25.19208,3.79468 c -1.33442,-1.33442 -1.13748,-4.01803 0.37249,-5.07566 1.74443,-1.22184 2.55315,-1.12269 4.18951,0.51367 1.70349,1.70349 1.76996,2.80689 0.26005,4.3168 -1.37127,1.37127 -3.58348,1.48376 -4.82205,0.24519 z m 3.92302,-0.57211 c 1.07071,-1.07071 1.1627,-2.61321 0.2125,-3.56341 -0.83275,-0.83275 -3.11553,-0.90522 -3.60428,-0.11442 -0.19447,0.31466 -0.089,0.57211 0.23434,0.57211 0.32335,0 0.44972,0.36013 0.28081,0.80029 -0.1689,0.44016 0.008,0.99484 0.3924,1.23261 0.44732,0.27646 0.55234,0.19419 0.2913,-0.22818 -0.25064,-0.40555 -0.009,-0.66389 0.62674,-0.66926 0.86872,-0.007 0.89827,-0.0952 0.184,-0.54679 -0.68502,-0.43311 -0.62342,-0.52088 0.31586,-0.45013 0.682,0.0514 1.19947,0.52142 1.24541,1.13126 0.0433,0.57384 -0.17455,0.88691 -0.48395,0.69569 -0.3094,-0.19122 -0.93744,-0.0366 -1.39564,0.34374 -0.65532,0.54386 -1.04676,0.52596 -1.83429,-0.0839 -0.81505,-0.63118 -0.79857,-0.53783 0.0887,0.50206 1.28562,1.50684 2.21555,1.60894 3.44613,0.37835 z M 29.663697,238.5776 c 0,-1.1013 0.117737,-1.55184 0.261638,-1.00119 0.1439,0.55066 0.1439,1.45173 0,2.00238 -0.143901,0.55065 -0.261638,0.10012 -0.261638,-1.00119 z m 1.716322,0 c 0,-1.1013 0.117736,-1.55184 0.261637,-1.00119 0.143901,0.55066 0.143901,1.45173 0,2.00238 -0.143901,0.55065 -0.261637,0.10012 -0.261637,-1.00119 z m 1.353144,1.29517 c -0.187913,-0.18791 -0.34166,-0.68492 -0.34166,-1.10447 0,-0.53992 0.877618,-0.76025 3.003563,-0.75405 1.65196,0.005 2.720356,0.19791 2.374213,0.42908 -0.346143,0.23118 -0.776352,0.8065 -0.956022,1.27849 -0.260204,0.68355 -0.33586,0.65445 -0.371837,-0.14303 -0.05143,-1.13995 -1.189381,-1.39327 -1.189381,-0.26477 0,0.75315 -1.902462,1.17517 -2.518876,0.55875 z m 1.374661,-0.72306 c 0,-0.31466 -0.257448,-0.57211 -0.572107,-0.57211 -0.314659,0 -0.572107,0.25745 -0.572107,0.57211 0,0.31466 0.257448,0.57211 0.572107,0.57211 0.314659,0 0.572107,-0.25745 0.572107,-0.57211 z m 4.970182,0.77473 c -0.809826,-0.80983 -0.351578,-1.91895 0.79284,-1.91895 0.799785,0 1.12591,0.31069 1.001188,0.95378 -0.204209,1.05295 -1.18083,1.57837 -1.794028,0.96517 z m 2.494169,-1.34684 c 0.0086,-1.82456 0.07952,-1.90992 0.798633,-0.96127 0.763144,1.00674 0.809186,1.00674 1.394676,0 0.521179,-0.89615 0.607899,-0.79551 0.622874,0.72289 0.01178,1.19433 -0.25974,1.764 -0.840763,1.764 -0.471989,0 -0.862104,-0.2789 -0.866922,-0.61978 -0.0048,-0.34088 -0.258324,-0.23361 -0.563347,0.23838 -0.4153,0.64263 -0.552216,0.35526 -0.545151,-1.14422 z m 3.787093,1.33492 c -0.868501,-0.8685 -0.297314,-1.90703 1.048865,-1.90703 0.78665,0 1.43421,-0.32181 1.43903,-0.71513 0.006,-0.52368 0.14103,-0.50635 0.50285,0.0647 0.41715,0.65843 0.54239,0.65843 0.80423,0 0.20535,-0.51636 0.32541,-0.41791 0.35531,0.29137 0.0361,0.856 0.20737,0.93663 0.85239,0.40131 0.55184,-0.45798 0.92454,-0.48014 1.17799,-0.0701 0.20391,0.32994 0.0981,0.59989 -0.23512,0.59989 -0.33323,0 -0.60588,0.27265 -0.60588,0.60588 0,0.33322 0.25745,0.44675 0.57211,0.25228 0.31466,-0.19447 0.57211,-0.0648 0.57211,0.28825 0,0.92761 -2.50255,0.44261 -2.96336,-0.5743 -0.30051,-0.66319 -0.40714,-0.5982 -0.46929,0.28605 l -0.0804,1.14422 -0.49168,-1.14422 c -0.42045,-0.97843 -0.49751,-0.99915 -0.5319,-0.14302 -0.0397,0.98864 -1.20688,1.36014 -1.947234,0.61978 z m 1.334915,-0.76281 c 0,-0.31466 -0.25745,-0.57211 -0.57211,-0.57211 -0.31465,0 -0.5721,0.25745 -0.5721,0.57211 0,0.31466 0.25745,0.57211 0.5721,0.57211 0.31466,0 0.57211,-0.25745 0.57211,-0.57211 z m -16.903207,-4.15237 c -0.15412,-0.40163 -0.211309,-7.29074 -0.127086,-15.30913 l 0.15313,-14.57889 h 29.177473 29.17747 v 15.16085 15.16084 l -29.05038,0.14828 c -23.140918,0.11812 -29.107392,-2.7e-4 -29.330607,-0.58195 z m 57.961727,-14.8702 -0.15285,-14.44571 H 58.994493 30.389127 l -0.15285,14.44571 -0.152851,14.44571 h 28.911067 28.91106 z m -55.075147,12.72939 c -0.19447,-0.31466 -0.08094,-0.57211 0.25229,-0.57211 0.333229,0 0.605871,0.25745 0.605871,0.57211 0,0.31466 -0.11353,0.57211 -0.252289,0.57211 -0.13876,0 -0.411402,-0.25745 -0.605872,-0.57211 z m 40.047507,0 c -0.19447,-0.31466 -0.0809,-0.57211 0.25229,-0.57211 0.33323,0 0.60587,0.25745 0.60587,0.57211 0,0.31466 -0.11352,0.57211 -0.25228,0.57211 -0.13876,0 -0.41141,-0.25745 -0.60588,-0.57211 z m 12.87242,-0.0338 c 0,-0.33323 0.25745,-0.44675 0.5721,-0.25228 0.31466,0.19447 0.57211,0.46711 0.57211,0.60587 0,0.13876 -0.25745,0.25229 -0.57211,0.25229 -0.31465,0 -0.5721,-0.27265 -0.5721,-0.60588 z m -39.47541,-1.96858 c 0,-0.47199 0.38618,-0.85816 0.85817,-0.85816 0.47198,0 0.85816,0.38617 0.85816,0.85816 0,0.47199 -0.38618,0.85816 -0.85816,0.85816 -0.47199,0 -0.85817,-0.38617 -0.85817,-0.85816 z m 2.28843,0 c 0,-0.47199 0.38618,-0.85816 0.85816,-0.85816 0.47199,0 0.85817,0.38617 0.85817,0.85816 0,0.47199 -0.38618,0.85816 -0.85817,0.85816 -0.47198,0 -0.85816,-0.38617 -0.85816,-0.85816 z m 2.28843,0.12628 c 0,-0.48848 0.95129,-0.75272 2.86054,-0.79457 2.08966,-0.0458 2.86054,0.15143 2.86054,0.73188 0,0.57209 -0.80098,0.79457 -2.86054,0.79457 -1.94193,0 -2.86054,-0.23502 -2.86054,-0.73188 z m 6.29318,-0.12628 c 0,-0.47199 0.38618,-0.85816 0.85816,-0.85816 0.47199,0 0.85817,0.38617 0.85817,0.85816 0,0.47199 -0.38618,0.85816 -0.85817,0.85816 -0.47198,0 -0.85816,-0.38617 -0.85816,-0.85816 z m 2.28843,0 c 0,-0.47199 0.38617,-0.85816 0.85816,-0.85816 0.47199,0 0.85816,0.38617 0.85816,0.85816 0,0.47199 -0.38617,0.85816 -0.85816,0.85816 -0.47199,0 -0.85816,-0.38617 -0.85816,-0.85816 z m 2.28843,0 c 0,-0.47199 0.38617,-0.85816 0.85816,-0.85816 0.47199,0 0.85816,0.38617 0.85816,0.85816 0,0.47199 -0.38617,0.85816 -0.85816,0.85816 -0.47199,0 -0.85816,-0.38617 -0.85816,-0.85816 z m 2.28843,0 c 0,-0.47199 0.38617,-0.85816 0.85816,-0.85816 0.47199,0 0.85816,0.38617 0.85816,0.85816 0,0.47199 -0.38617,0.85816 -0.85816,0.85816 -0.47199,0 -0.85816,-0.38617 -0.85816,-0.85816 z m 2.28843,0.0636 c 0,-0.58045 0.77088,-0.77769 2.86054,-0.73188 1.90924,0.0418 2.86053,0.30609 2.86053,0.79457 0,0.49686 -0.91861,0.73188 -2.86053,0.73188 -2.05956,0 -2.86054,-0.22248 -2.86054,-0.79457 z m -25.149215,-2.38034 c 0.880696,-1.06118 5.196195,-0.92812 5.557755,0.17135 0.16969,0.51603 -0.67368,0.71513 -3.029154,0.71513 -2.883102,0 -3.178399,-0.10352 -2.528601,-0.88648 z m 9.105515,0.0581 c 0.45104,-0.54347 1.66505,-0.88792 3.12949,-0.88792 h 2.39257 l 0.1426,-2.41669 c 0.0784,-1.32918 0.45057,-2.60968 0.82699,-2.84554 0.90661,-0.5681 1.15402,1.44827 0.54038,4.40407 l -0.47509,2.28843 -3.64692,0.17279 c -3.24166,0.15358 -3.56504,0.0741 -2.91002,-0.71514 z m 9.77403,-0.0581 c 0.88069,-1.06118 5.19619,-0.92812 5.55775,0.17135 0.16969,0.51603 -0.67368,0.71513 -3.02915,0.71513 -2.8831,0 -3.1784,-0.10352 -2.5286,-0.88648 z M 40.19662,225.6083 c 0.502676,-3.8753 1.554115,-4.9048 4.76888,-4.66939 l 2.586843,0.18943 0.004,-2.71751 0.004,-2.71751 h -2.0796 c -1.999363,0 -3.759373,-1.13017 -2.977549,-1.91199 0.678975,-0.67897 5.399199,-0.39368 6.165529,0.37265 1.04267,1.04267 0.12865,6.70178 -1.24786,7.72604 -0.57183,0.42549 -2.032945,0.67522 -3.353987,0.57324 -1.903958,-0.14699 -2.29657,-0.0119 -2.103976,0.72374 0.343298,1.31132 -0.639795,4.6998 -1.441032,4.96687 -0.499576,0.16653 -0.587486,-0.51775 -0.325749,-2.53557 z m 9.094073,1.67019 c 0.11053,-0.55065 0.35554,-1.96662 0.54447,-3.14659 0.18893,-1.17997 0.5893,-2.1454 0.8897,-2.1454 0.79172,0 0.67169,4.79461 -0.14035,5.60665 -0.98079,0.98079 -1.52717,0.84791 -1.29382,-0.31466 z m 9.67496,-1.64334 c 0.44316,-3.02338 1.22048,-4.36409 1.74211,-3.00475 0.48776,1.2711 -0.50045,5.24501 -1.37696,5.53718 -0.61584,0.20527 -0.69052,-0.31265 -0.36515,-2.53243 z m 6.30904,2.05143 c -0.49073,-0.79403 0.25242,-5.03164 0.95898,-5.46832 0.925,-0.57168 1.04536,-0.0218 0.67663,3.09153 -0.33902,2.86246 -0.86398,3.62531 -1.63561,2.37679 z m -30.698092,-6.95075 c 0.415156,-0.53053 0.972286,-1.68905 1.238067,-2.57448 0.419573,-1.39778 0.489715,-1.44028 0.532411,-0.32263 0.03532,0.9245 0.411918,1.29997 1.336416,1.33241 1.097092,0.0385 1.033709,0.13435 -0.429081,0.64892 -0.943977,0.33207 -2.102494,0.89101 -2.574482,1.24208 -0.737766,0.54876 -0.752264,0.50299 -0.103331,-0.3263 z m 2.39176,0.0727 c 0,-0.33323 0.257448,-0.44676 0.572107,-0.25229 0.314659,0.19447 0.572107,0.46711 0.572107,0.60587 0,0.13876 -0.257448,0.25229 -0.572107,0.25229 -0.314659,0 -0.572107,-0.27264 -0.572107,-0.60587 z m 19.813202,-0.26183 c -0.41132,-1.0719 0.16698,-4.27811 0.9786,-5.42548 0.50145,-0.7089 0.46755,-0.73377 -0.19493,-0.14303 -0.44107,0.39333 -1.75881,0.71514 -2.92829,0.71514 -1.16948,0 -2.2663,-0.32181 -2.43736,-0.71514 -0.17106,-0.39332 -0.18913,-0.0715 -0.0402,0.71514 0.32914,1.73791 -0.43373,4.71136 -1.28122,4.99386 -0.92962,0.30987 -0.2086,-5.07971 0.84029,-6.2811 0.60211,-0.68965 1.71758,-1.00119 3.58476,-1.00119 3.20931,0 3.5943,0.58782 3.05375,4.66263 -0.39002,2.94016 -1.01882,3.92967 -1.57544,2.47917 z m 3.30422,-2.24121 c 0.20556,-1.86723 0.65489,-3.73373 0.99851,-4.14778 0.92512,-1.11469 5.99046,-0.99485 6.4306,0.15214 0.48121,1.25403 0.36341,4.86731 -0.20365,6.24639 -0.43275,1.05243 -0.50336,1.06368 -0.88022,0.14026 -0.22535,-0.55217 -0.30468,-1.90377 -0.17628,-3.00356 0.22854,-1.9576 0.19018,-1.99961 -1.82569,-1.99961 -1.13252,0 -2.40584,-0.32181 -2.82959,-0.71514 -0.62636,-0.58138 -0.67937,-0.55617 -0.28341,0.13479 0.72672,1.26814 0.28931,4.75007 -0.71973,5.72931 -0.79573,0.77224 -0.84685,0.51822 -0.51054,-2.5368 z m -26.153125,1.02441 c 0.375648,-0.15282 0.530843,-0.71175 0.344879,-1.24208 -0.263834,-0.75239 -0.179742,-0.81806 0.382765,-0.29894 0.800205,0.73849 0.332326,1.9344 -0.729268,1.86403 -0.525298,-0.0348 -0.524926,-0.10881 0.0016,-0.32301 z m 49.029125,-0.53677 c 0.191,-0.49773 0.35121,-1.07699 0.35603,-1.28724 0.0117,-0.51187 1.11551,1.21539 1.12669,1.76311 0.005,0.23599 -0.40495,0.42908 -0.91061,0.42908 -0.6033,0 -0.79998,-0.31112 -0.57211,-0.90495 z m -1.58735,-1.69925 c -0.2226,-0.58009 -0.11095,-0.74588 0.32207,-0.47825 0.44002,0.27194 0.54236,0.0958 0.30449,-0.52408 -0.40998,-1.06838 0.46392,-1.87333 1.03341,-0.95188 0.2622,0.42426 0.61954,0.40753 1.17697,-0.0551 0.62431,-0.51813 0.87837,-0.46129 1.1545,0.25827 0.19471,0.50743 0.19471,1.33776 0,1.84519 -0.3024,0.78802 -0.4918,0.80888 -1.29847,0.14303 -0.7377,-0.60893 -0.99711,-0.62303 -1.18512,-0.0644 -0.33137,0.98455 -1.09743,0.89679 -1.50785,-0.17274 z m 3.29713,-1.14421 c 0.19536,-0.50914 0.0995,-0.73878 -0.22485,-0.53835 -0.31105,0.19225 -0.56555,0.59179 -0.56555,0.88788 0,0.82294 0.41006,0.6416 0.7904,-0.34953 z m -14.89566,0.57714 c -0.43168,-1.12492 0.0791,-1.64142 1.19852,-1.21187 0.50282,0.19295 0.72999,0.70826 0.53557,1.21489 -0.4337,1.13021 -1.29981,1.12871 -1.73409,-0.003 z m -37.633672,-4.67053 c -0.310474,-0.81537 -0.244759,-0.88108 0.320263,-0.32027 0.390989,0.38808 0.56677,0.84972 0.390626,1.02587 -0.176144,0.17614 -0.496045,-0.14138 -0.710889,-0.7056 z m 1.393486,0.76051 c 0,-0.1188 0.386173,-0.5365 0.858161,-0.92821 0.702838,-0.58331 0.858161,-0.54421 0.858161,0.216 0,0.51052 -0.386172,0.92821 -0.858161,0.92821 -0.471988,0 -0.858161,-0.0972 -0.858161,-0.216 z m 2.574483,-0.35611 c 0.19447,-0.31466 0.467112,-0.5721 0.605871,-0.5721 0.13876,0 0.25229,0.25744 0.25229,0.5721 0,0.31466 -0.272642,0.57211 -0.605871,0.57211 -0.33323,0 -0.44676,-0.25745 -0.25229,-0.57211 z m 40.476593,-0.39436 c 1.36075,-0.35561 1.26723,-1.69104 -0.14429,-2.06016 -0.93209,-0.24375 -1.05371,-0.54925 -0.65286,-1.64002 0.27568,-0.75016 1.06003,-1.42465 1.78108,-1.53162 0.81465,-0.12084 1.14751,0.037 0.90515,0.42909 -0.21082,0.34112 -0.7543,0.62021 -1.20771,0.62021 -0.45342,0 -0.8244,0.38618 -0.8244,0.85817 0,0.47198 0.38617,0.85816 0.85816,0.85816 0.53397,0 0.85816,0.54032 0.85816,1.43027 0,1.1215 -0.27789,1.41594 -1.28724,1.3639 -0.96867,-0.0499 -1.03947,-0.13112 -0.28605,-0.328 z m 4.00475,0 c 0.55065,-0.14391 1.00119,-0.62894 1.00119,-1.07785 0,-0.44892 -0.45054,-0.83253 -1.00119,-0.85248 -0.76709,-0.0278 -0.7002,-0.15725 0.28605,-0.55367 1.45309,-0.58407 1.73463,-1.6985 0.42908,-1.6985 -0.47199,0 -0.85816,-0.25744 -0.85816,-0.5721 0,-0.31466 0.54858,-0.57211 1.21907,-0.57211 1.09035,0 1.18163,0.22655 0.86446,2.1454 -0.19504,1.17997 -0.35745,2.46722 -0.36091,2.86054 -0.003,0.39332 -0.58556,0.68527 -1.29354,0.64877 -0.96867,-0.0499 -1.03947,-0.13112 -0.28605,-0.328 z m 2.78387,-0.89288 c 0.0499,-0.96867 0.13112,-1.03947 0.32801,-0.28605 0.1439,0.55065 0.61005,1.00119 1.0359,1.00119 0.42584,0 0.892,-0.45054 1.03589,-1.00119 0.19689,-0.75342 0.27807,-0.68262 0.32801,0.28605 0.0521,1.00935 -0.2424,1.28724 -1.3639,1.28724 -1.12151,0 -1.41595,-0.27789 -1.36391,-1.28724 z m -9.79219,0.21056 c 0,-0.31466 0.25745,-0.73122 0.57211,-0.92569 0.31466,-0.19447 0.57211,-0.0961 0.57211,0.21852 0,0.31466 -0.25745,0.73122 -0.57211,0.92569 -0.31466,0.19447 -0.57211,0.0961 -0.57211,-0.21852 z m -40.613566,-1.49051 c -0.846007,-1.01938 -0.397042,-2.46764 0.921869,-2.97376 1.118291,-0.42913 2.579873,1.24679 2.123812,2.43527 -0.240843,0.62763 -0.446848,0.64333 -1.012974,0.0772 -0.390856,-0.39085 -0.850774,-1.09222 -1.02204,-1.55859 -0.250336,-0.68169 -0.398766,-0.63542 -0.757009,0.23597 -0.312875,0.76104 -0.129722,1.31491 0.614847,1.85935 0.583254,0.42649 0.785332,0.77543 0.44906,0.77543 -0.336271,0 -0.929176,-0.38289 -1.317565,-0.85087 z m 2.479803,-1.74829 c -0.186327,-0.48555 -0.461475,-0.76013 -0.61144,-0.61017 -0.149965,0.14997 -0.102967,0.54725 0.104441,0.88284 0.564126,0.91277 0.893849,0.73545 0.506999,-0.27267 z m 38.796203,0.31073 c 0,-0.78665 0.12986,-1.10846 0.28857,-0.71513 0.15871,0.39332 0.15871,1.03694 0,1.43027 -0.15871,0.39332 -0.28857,0.0715 -0.28857,-0.71514 z m 9.30273,0.38229 c 0.18302,-0.57639 0.33277,-1.28437 0.33277,-1.57329 0,-0.28893 0.64362,-0.52532 1.43026,-0.52532 1.14422,0 1.43027,0.28605 1.43027,1.43027 0,0.78665 -0.28499,1.43027 -0.63332,1.43027 -0.34832,0 -0.48513,-0.38618 -0.304,-0.85816 0.45268,-1.17969 -0.75466,-1.08179 -1.76382,0.14302 -0.78075,0.94759 -0.80709,0.94509 -0.49216,-0.0468 z M 123.7584,173.24516 c 1.03763,-1.00571 1.88659,-2.0355 1.88659,-2.28843 0,-0.25294 -25.821297,-0.45988 -57.380677,-0.45988 H 10.883642 l -2.2345912,2.28843 -2.234592,2.28843 H 64.143133 121.87182 Z"
       id="path3802"
       inkscape:connector-curvature="0" />
  </g>
</svg>
