<?xml version="1.0" encoding="UTF-8" standalone="no"?>
<!-- Created with Inkscape (http://www.inkscape.org/) -->

<svg
   xmlns:dc="http://purl.org/dc/elements/1.1/"
   xmlns:cc="http://creativecommons.org/ns#"
   xmlns:rdf="http://www.w3.org/1999/02/22-rdf-syntax-ns#"
   xmlns:svg="http://www.w3.org/2000/svg"
   xmlns="http://www.w3.org/2000/svg"
   xmlns:sodipodi="http://sodipodi.sourceforge.net/DTD/sodipodi-0.dtd"
   xmlns:inkscape="http://www.inkscape.org/namespaces/inkscape"
   width="500"
   height="500"
   viewBox="0 0 132.29166 132.29167"
   version="1.1"
   id="svg8"
   inkscape:version="0.92.4 (5da689c313, 2019-01-14)"
   sodipodi:docname="icon.svg">
  <defs
     id="defs2" />
  <sodipodi:namedview
     id="base"
     pagecolor="#ffffff"
     bordercolor="#666666"
     borderopacity="1.0"
     inkscape:pageopacity="0.0"
     inkscape:pageshadow="2"
     inkscape:zoom="1.3898629"
     inkscape:cx="389.6017"
     inkscape:cy="269.38455"
     inkscape:document-units="mm"
     inkscape:current-layer="layer1"
     showgrid="false"
     units="px"
     inkscape:window-width="1920"
     inkscape:window-height="1017"
     inkscape:window-x="-8"
     inkscape:window-y="-8"
     inkscape:window-maximized="1" />
  <metadata
     id="metadata5">
    <rdf:RDF>
      <cc:Work
         rdf:about="">
        <dc:format>image/svg+xml</dc:format>
        <dc:type
           rdf:resource="http://purl.org/dc/dcmitype/StillImage" />
        <dc:title></dc:title>
      </cc:Work>
    </rdf:RDF>
  </metadata>
  <g
     inkscape:label="Ebene 1"
     inkscape:groupmode="layer"
     id="layer1"
     transform="translate(0,-164.70832)">
    <path
       style="fill:#000000;stroke-width:0.51870233"
       d="m 56.241561,293.39943 c -6.93878,-0.89193 -11.73361,-2.48138 -12.635415,-4.18855 -0.262167,-0.4963 -0.875861,-18.99211 -1.363765,-41.10179 -0.630646,-28.57818 -1.057395,-40.30505 -1.476183,-40.5648 -0.405273,-0.25137 -0.711228,-5.42796 -0.980525,-16.58997 l -0.391437,-16.22459 1.885797,-1.67771 c 3.808371,-3.38813 12.301698,-5.00311 26.372988,-5.01471 9.76085,-0.008 14.06152,0.45973 19.06203,2.07336 4.05567,1.30873 4.01741,1.14992 4.04088,16.77729 0.0114,7.56793 0.24509,20.99577 0.51939,29.83964 1.3839,44.62042 1.91669,70.60361 1.46507,71.44955 -1.08459,2.03158 -7.41755,4.03255 -15.99648,5.05427 -4.15658,0.49504 -17.13111,0.60135 -20.50235,0.16801 z m 24.50201,-1.94632 c 4.72937,-0.95243 8.43559,-2.56024 8.43559,-3.65949 0,-0.47674 -0.94218,-1.26025 -2.20448,-1.83323 -2.62129,-1.18985 -4.1917,-1.38333 -2.76593,-0.34077 1.66067,1.2143 0.79783,2.60407 -2.29351,3.69413 -2.40978,0.84973 -4.33521,1.01021 -12.44677,1.03741 -7.58528,0.0254 -9.92205,-0.13233 -11.1521,-0.75287 -3.58256,-1.80738 -0.66386,-4.06204 6.6086,-5.10505 l 3.24675,-0.46565 -2.59351,-0.061 c -1.42644,-0.0335 -4.82487,0.2754 -7.55209,0.68652 -8.34584,1.2581 -12.547015,3.43541 -10.114329,5.24185 0.553779,0.41123 0.745509,0.74768 0.426079,0.74768 -0.706287,0 -2.211001,-1.44244 -2.211001,-2.11949 0,-0.2691 0.758602,-0.9518 1.685783,-1.51711 2.213338,-1.34951 1.435418,-1.32202 -1.241969,0.0439 -2.591012,1.32183 -2.153956,0.35818 0.497526,-1.09698 1.340511,-0.73568 1.524161,-0.95053 0.614767,-0.71919 -1.656637,0.42142 -3.630916,1.66099 -3.630916,2.2797 0,0.2628 0.531761,1.09602 1.181691,1.85161 0.850187,0.98841 1.759648,1.41081 3.241889,1.50572 1.13311,0.0726 3.46069,0.39962 5.17241,0.7268 1.71172,0.32719 3.81246,0.69488 4.66832,0.8171 3.1193,0.44544 18.77323,-0.22575 22.4272,-0.96162 z m -2.39659,-2.07004 c 8.30043,-1.48057 8.29488,-3.3836 -0.0131,-4.50168 l -4.13789,-0.55687 -1.82799,1.82798 c -2.84058,2.84058 -7.43696,3.06542 -10.26915,0.50233 -0.53388,-0.48315 -1.36134,-0.68451 -2.07576,-0.50513 -1.61173,0.40471 -3.34842,1.72738 -2.88134,2.19446 1.69724,1.69725 14.10613,2.30519 21.20527,1.03891 z m 11.51466,0.14455 c 1.14844,-0.60449 1.88864,-1.42761 1.90309,-2.11629 0.008,-0.39329 -3.79058,-2.47585 -4.51004,-2.47244 -0.22533,10e-4 0.34891,0.46447 1.27609,1.02978 1.96099,1.19564 2.06594,1.70034 0.64838,3.1179 -1.17532,1.17532 -0.96758,1.30957 0.68248,0.44105 z m -18.86976,-2.98909 c 2.52424,-1.77059 2.0259,-2.28509 -1.84672,-1.90657 -5.10639,0.49911 -6.50136,0.83667 -6.27866,1.51932 0.29284,0.89762 3.53025,1.83492 5.30522,1.53598 0.85586,-0.14415 2.12493,-0.66107 2.82016,-1.14873 z m 20.95918,-0.61632 c -1.72091,-1.72091 -7.48946,-3.06401 -14.18335,-3.30235 l -5.96508,-0.21238 5.50734,0.43909 c 6.44675,0.51398 11.60161,1.70832 13.4253,3.11051 1.74819,1.34414 2.5712,1.32054 1.21579,-0.0349 z m -45.582438,-0.82198 c 1.763946,-0.84116 2.422128,-1.71938 1.288595,-1.71938 -0.923092,0 -3.605157,1.55346 -3.605157,2.08812 0,0.67738 0.184363,0.64804 2.316562,-0.36874 z m 7.538778,-0.99074 c 2.13965,-0.45464 6.57456,-1.02161 9.85535,-1.25993 l 5.96507,-0.43332 -6.22442,0.18508 c -5.39585,0.16045 -13.44802,1.34644 -14.19186,2.09028 -0.40237,0.40236 0.5014,0.28789 4.59586,-0.58211 z m 38.38398,0.36786 c 0,-0.57648 -2.71558,-1.86658 -5.46402,-2.59579 -3.69447,-0.98022 -14.84515,-1.69872 -20.9898,-1.35248 -9.77505,0.55079 -17.62013,2.00301 -16.55805,3.06509 0.12684,0.12684 1.81398,-0.10129 3.7492,-0.50694 11.63119,-2.4381 32.34412,-1.74809 37.50531,1.24942 1.2041,0.69931 1.75736,0.74361 1.75736,0.1407 z M 48.178194,276.66403 C 48.113944,263.1117 45.721191,175.9496 45.404715,175.63312 c -0.200754,-0.20075 -0.758525,-0.11678 -1.239492,0.1866 -0.981086,0.61886 -0.975909,-1.28781 -0.10262,37.79567 1.249631,55.92637 1.259317,57.63511 0.32875,57.99221 -0.729476,0.27992 -0.857995,1.22417 -0.857995,6.30385 v 5.97462 l 2.334161,-1.13403 2.33416,-1.13402 -0.02349,-4.95399 z m 43.603337,-22.06887 c -0.38092,-15.17312 -0.81534,-24.62176 -1.15061,-25.02574 -1.85281,-2.23249 -15.41016,-3.96851 -26.44555,-3.38634 l -5.74699,0.30317 0.31969,7.05083 c 0.17583,3.87796 0.44903,14.87026 0.60711,24.42735 0.15808,9.55709 0.40112,18.31019 0.54007,19.45134 l 0.25265,2.07481 11.00939,0.007 c 11.3418,0.008 17.48383,0.80104 19.88406,2.56839 0.90989,0.66998 0.99372,0.58436 1.16141,-1.18623 0.0994,-1.04958 -0.0947,-12.87785 -0.43123,-26.28505 z m -37.8188,25.86692 c 4.42078,-0.8088 4.61275,-0.90065 4.60703,-2.20449 -0.04,-9.14347 -2.6271,-104.53538 -2.84083,-104.74911 -0.31131,-0.31131 -7.991223,0.85916 -8.774223,1.33725 -0.507109,0.30963 -0.384443,8.20538 1.059635,68.20601 0.506378,21.03986 1.013998,38.2543 1.128048,38.2543 0.11404,0 2.2832,-0.37979 4.82034,-0.84396 z M 43.862002,244.08915 c -0.843018,-32.36674 -1.009752,-36.48391 -1.459286,-36.03438 -0.279366,0.27937 -0.251192,8.6259 0.06971,20.65063 0.29622,11.09996 0.539403,21.99072 0.540407,24.20169 0.0012,2.66037 0.201658,4.01994 0.592686,4.01994 0.435103,0 0.502715,-3.38421 0.256486,-12.83788 z M 90.465101,209.8548 c -0.23463,-9.04744 -0.55749,-14.13464 -0.89704,-14.13464 -0.3481,0 -0.41889,1.8278 -0.2059,5.3167 0.17851,2.92418 0.3574,10.10173 0.39753,15.95009 0.0401,5.84837 0.21771,10.86682 0.3946,11.1521 0.59426,0.95839 0.67962,-4.0631 0.31081,-18.28425 z m -1.51208,0.53242 c -0.2779,-14.87012 -0.42099,-17.03185 -1.15452,-17.44236 -3.21452,-1.79893 -16.72545,-3.16038 -25.07316,-2.52653 l -4.92767,0.37416 0.13536,7.26183 c 0.0744,3.99401 0.27873,11.70813 0.45395,17.1425 l 0.31861,9.88066 7.65033,-0.21733 c 8.05461,-0.22882 16.86033,0.52302 20.11058,1.71704 1.06403,0.39089 2.13016,0.72716 2.36917,0.74726 0.239,0.0201 0.29181,-7.60165 0.11735,-16.93723 z M 42.85515,192.21892 c -0.310633,-13.73507 -0.724024,-17.22894 -2.040151,-17.2428 -0.376136,-0.004 0.0184,29.71134 0.411443,30.98841 0.109751,0.35661 0.594355,0.64838 1.076896,0.64838 0.810739,0 0.852633,-1.09281 0.551812,-14.39399 z m 47.087071,0.88346 c -0.64564,-1.04467 -4.51877,-2.48704 -7.50619,-2.79534 l -2.85286,-0.2944 3.21143,0.74016 c 3.73282,0.86033 6.90326,2.25563 6.90326,3.0381 0,0.30033 0.14008,0.40597 0.3113,0.23476 0.17121,-0.17121 0.14109,-0.58668 -0.0669,-0.92328 z m -0.20666,-16.2157 c -0.40275,-1.05932 -1.21749,-1.55842 -3.89304,-2.38481 -5.7027,-1.76138 -17.40831,-2.59567 -25.1159,-1.79007 l -3.1883,0.33324 v 7.83632 7.83632 l 10.76307,0.0484 c 11.0143,0.0496 16.98202,0.77879 20.20406,2.46882 l 1.45177,0.76147 0.14385,-6.88501 c 0.0791,-3.78676 -0.0854,-7.48788 -0.36551,-8.22472 z m -29.2147,12.7702 c -0.49925,-0.13047 -1.31621,-0.13047 -1.81546,0 -0.49925,0.13047 -0.0908,0.23721 0.90773,0.23721 0.9985,0 1.40698,-0.10674 0.90773,-0.23721 z m 17.89523,-0.009 c -0.6419,-0.12364 -1.69227,-0.12364 -2.33416,0 -0.6419,0.12363 -0.11671,0.22479 1.16708,0.22479 1.28379,0 1.80897,-0.10116 1.16708,-0.22479 z m -8.29924,-0.52787 c -0.92718,-0.11506 -2.44438,-0.11506 -3.37156,0 -0.92718,0.11507 -0.16858,0.20921 1.68578,0.20921 1.85436,0 2.61296,-0.0941 1.68578,-0.20921 z m -19.06231,-16.5546 c 1.997,-0.41391 8.06582,-0.88898 13.48626,-1.05571 10.7469,-0.33057 17.0653,0.22877 22.22723,1.9677 1.678,0.56528 3.16514,0.91356 3.30474,0.77396 0.13961,-0.1396 -0.32035,-0.828 -1.02212,-1.52976 -0.86231,-0.86232 -2.60367,-1.58714 -5.37171,-2.23592 -5.83911,-1.36859 -25.79968,-1.37149 -32.6244,-0.005 -5.952879,1.19215 -9.07729,2.53227 -9.07729,3.89343 0,1.00733 0.02519,1.00714 2.723188,-0.0198 1.497753,-0.57012 4.357102,-1.37522 6.354102,-1.78913 z"
       id="path3841"
       inkscape:connector-curvature="0" />
  </g>
</svg>
