<?xml version="1.0" encoding="UTF-8" standalone="no"?>
<!-- Created with Inkscape (http://www.inkscape.org/) -->

<svg
   xmlns:dc="http://purl.org/dc/elements/1.1/"
   xmlns:cc="http://creativecommons.org/ns#"
   xmlns:rdf="http://www.w3.org/1999/02/22-rdf-syntax-ns#"
   xmlns:svg="http://www.w3.org/2000/svg"
   xmlns="http://www.w3.org/2000/svg"
   xmlns:sodipodi="http://sodipodi.sourceforge.net/DTD/sodipodi-0.dtd"
   xmlns:inkscape="http://www.inkscape.org/namespaces/inkscape"
   width="500"
   height="500"
   viewBox="0 0 132.29166 132.29167"
   version="1.1"
   id="svg8"
   inkscape:version="0.92.4 5da689c313, 2019-01-14"
   sodipodi:docname="icon.svg">
  <defs
     id="defs2" />
  <sodipodi:namedview
     id="base"
     pagecolor="#ffffff"
     bordercolor="#666666"
     borderopacity="1.0"
     inkscape:pageopacity="0.0"
     inkscape:pageshadow="2"
     inkscape:zoom="0.42657054"
     inkscape:cx="322.0882"
     inkscape:cy="275.94377"
     inkscape:document-units="mm"
     inkscape:current-layer="layer1"
     showgrid="false"
     units="px"
     inkscape:window-width="1920"
     inkscape:window-height="1003"
     inkscape:window-x="0"
     inkscape:window-y="0"
     inkscape:window-maximized="1" />
  <metadata
     id="metadata5">
    <rdf:RDF>
      <cc:Work
         rdf:about="">
        <dc:format>image/svg+xml</dc:format>
        <dc:type
           rdf:resource="http://purl.org/dc/dcmitype/StillImage" />
        <dc:title></dc:title>
      </cc:Work>
    </rdf:RDF>
  </metadata>
  <g
     inkscape:label="Layer 1"
     inkscape:groupmode="layer"
     id="layer1"
     transform="translate(0,-164.70832)">
    <path
       style="fill:#000000;stroke:#000000;stroke-width:0.53649604"
       d="m 52.566317,296.07908 c -3.747703,-0.56215 -9.435955,-2.06704 -12.636561,-3.34311 -4.461061,-1.77863 -12.45531,-6.00941 -12.087135,-6.39685 0.151084,-0.159 -1.224682,-1.78496 -3.057277,-3.61326 -7.863228,-7.84479 -12.212891,-16.44348 -14.279598,-28.22884 -1.1802246,-6.73023 -0.8275806,-17.81046 0.791349,-24.86397 6.781082,-29.5446 31.738392,-54.0147 59.859197,-58.69064 7.778427,-1.29341 17.012745,-0.84987 23.101466,1.10958 3.439504,1.1069 3.400009,0.55998 -0.05342,-0.74043 -10.800502,-4.06692 -23.276304,-4.19925 -35.943669,-0.38127 -17.533445,5.28464 -34.659181,20.02725 -43.849397,37.74755 -5.4136728,10.43848 -7.8516261,19.22214 -8.3608591,30.12312 -0.378383,8.1 0.2907014,14.07064 2.3279767,20.77412 2.8082084,9.24018 9.2399754,18.86145 15.8684374,23.73759 1.690899,1.2439 2.944525,2.38544 2.785828,2.53675 -0.851431,0.81187 -14.024213,-9.96493 -14.024213,-11.47336 0,-0.29532 0.309046,-0.36736 0.686771,-0.1601 0.399009,0.21895 0.494933,0.17703 0.22893,-0.10005 -0.251816,-0.26229 -0.746291,-0.4769 -1.09884,-0.4769 -1.022902,0 -5.6174461,-7.75369 -7.4391377,-12.55419 -2.8468737,-7.50207 -3.6220423,-12.14893 -3.5862102,-21.49804 0.02509,-6.55527 0.2903102,-9.50533 1.216792,-13.53595 1.6673542,-7.25378 4.1309986,-13.8407 7.6192049,-20.37102 15.868533,-29.70768 48.943825,-46.17303 76.52485,-38.09516 8.261205,2.41952 22.221808,10.62463 27.865328,16.37737 16.79882,17.12393 19.62296,44.34076 7.25738,69.94083 -1.18985,2.46328 -2.35053,4.2189 -2.66623,4.03286 -0.34078,-0.20082 -0.41782,0.0215 -0.1973,0.5695 0.26488,0.65819 0.16689,0.78411 -0.36589,0.47015 -0.47943,-0.28254 -0.59633,-0.22619 -0.34266,0.16516 0.47811,0.73766 -0.64119,2.84578 -1.30366,2.45537 -0.26614,-0.15684 -0.6628,-0.01 -0.88145,0.32821 -0.24829,0.38307 -0.1594,0.47302 0.23674,0.23956 0.98226,-0.57885 0.75882,0.0928 -0.72232,2.17118 -0.74615,1.04702 -1.73509,1.95664 -2.19767,2.02137 -0.46256,0.0648 -0.84103,0.0444 -0.84103,-0.0453 0,-0.6349 4.08523,-5.73936 4.50186,-5.62502 0.2885,0.0791 0.37246,-0.0907 0.18656,-0.37753 -0.50543,-0.7798 1.2945,-3.7931 2.01286,-3.36978 0.336,0.19801 0.45859,0.12501 0.27242,-0.16222 -0.18618,-0.28722 0.75064,-2.97579 2.0818,-5.97459 10.30357,-23.21148 7.56966,-47.53689 -7.09817,-63.1572 -12.18895,-12.98047 -30.147876,-17.29889 -49.594205,-11.92548 -17.625029,4.87016 -34.443626,19.00366 -43.805847,36.81223 -5.537187,10.53268 -8.15534,20.93178 -8.130622,32.29423 0.05619,25.83813 15.842031,45.2565 39.804811,48.96441 18.952493,2.93263 41.518901,-6.55067 56.628623,-23.7976 2.33652,-2.66702 4.23874,-4.04061 4.23874,-3.0608 0,0.76576 -6.05799,7.3642 -10.16117,11.06771 -10.412403,9.39812 -22.705783,15.50351 -35.399764,17.58095 -4.717877,0.7721 -12.526183,1.01595 -15.973577,0.49883 z m 14.834211,-0.93714 c 8.909359,-1.29013 18.143621,-4.78251 26.097229,-9.86996 3.700604,-2.36704 11.369083,-8.4204 13.460683,-10.62562 0.75545,-0.79648 -0.9751,0.51057 -3.84565,2.90456 -6.027496,5.02685 -11.302001,8.53309 -16.757431,11.13955 -20.280989,9.68975 -42.573333,7.62621 -56.952393,-5.2719 -10.091426,-9.05206 -14.996849,-19.03611 -16.427689,-33.43538 -1.622393,-16.32694 4.423751,-35.2783 15.935589,-49.94938 3.511255,-4.47486 11.604338,-12.05263 16.341209,-15.30071 12.047297,-8.26086 25.800899,-12.48881 38.294494,-11.77201 7.030304,0.40336 11.413987,1.46198 17.643011,4.26066 16.76831,7.53394 26.06827,22.2456 27.76515,43.92188 l 0.45952,5.87002 -0.24905,-6.81044 c -0.42399,-11.59399 -3.2,-20.52906 -8.96701,-28.8619 -9.13956,-13.20589 -22.724258,-20.12092 -39.52783,-20.12092 -10.040349,0 -18.015804,1.92457 -27.782423,6.7042 -19.849134,9.71386 -35.470163,29.73928 -40.744372,52.23235 -1.194077,5.09244 -1.64463,18.43651 -0.806927,23.8993 4.259225,27.77521 27.972869,45.15346 56.06389,41.0857 z m 42.304982,-23.59846 c 0.70971,-0.72032 1.16676,-1.30969 1.01567,-1.30969 -0.15109,0 -0.85538,0.58937 -1.56508,1.30969 -0.70971,0.72034 -1.16676,1.30971 -1.01566,1.30971 0.15108,0 0.85537,-0.58937 1.56507,-1.30971 z m -97.468768,-0.86676 c 0.260841,-0.40242 0.148518,-0.46132 -0.335644,-0.17599 -0.532778,0.31396 -0.630772,0.18805 -0.365896,-0.47015 0.243813,-0.60583 0.154233,-0.77666 -0.274702,-0.52388 -0.428936,0.25277 -0.518516,0.0819 -0.274713,-0.52388 0.243813,-0.60583 0.154233,-0.77666 -0.274703,-0.52388 -0.410866,0.24212 -0.524582,0.097 -0.3208,-0.40936 0.183578,-0.45616 0.0076,-0.78445 -0.4205015,-0.78445 -0.556484,0 -0.4739158,0.49021 0.3382585,2.00821 1.168844,2.18464 1.341088,2.30997 1.928701,1.40338 z m 100.285938,-2.40749 c 0.68339,-0.8309 0.66396,-0.84943 -0.20744,-0.19779 -0.52882,0.39546 -0.96148,0.80801 -0.96148,0.91679 0,0.43118 0.45117,0.15366 1.16892,-0.719 z M 8.6271589,265.02007 c -0.3434,-0.61184 -0.4708538,-1.63395 -0.2832316,-2.27136 0.2440129,-0.82898 0.1915718,-0.9528 -0.1841878,-0.43491 -0.5683616,0.78336 -1.6354717,-2.18246 -3.2763908,-9.10613 -1.2436469,-5.24743 -1.1978647,-18.43309 0.085478,-24.60337 1.3144715,-6.32015 3.8316636,-13.68084 6.6484573,-19.4412 2.305501,-4.71475 8.42327,-14.12401 8.892397,-13.67668 0.134351,0.1281 -0.839401,1.7341 -2.163908,3.56889 -4.422988,6.12702 -9.536983,16.38758 -10.5403663,21.1479 -0.1821939,0.8644 0.5284083,-0.62993 1.5791193,-3.32073 7.41359,-18.98566 20.738916,-33.7361 38.511804,-42.63054 2.719611,-1.36103 4.753137,-2.48204 4.51896,-2.49114 -0.743878,-0.0289 -8.248756,3.71836 -11.386655,5.68543 -4.120171,2.58286 -4.957702,2.97996 -3.100207,1.46989 6.572176,-5.3429 20.438855,-10.70009 30.602928,-11.82301 3.662587,-0.40464 3.802395,-0.45838 1.341593,-0.51573 -6.359922,-0.14818 -16.395615,2.47521 -24.30389,6.35321 -16.926714,8.30038 -31.514499,24.40628 -38.3090512,42.29575 -5.2387967,13.79332 -6.071205,29.48044 -2.2317091,42.05754 1.4431082,4.7272 3.5207185,9.5185 3.949959,9.10921 0.150321,-0.14334 -0.00763,-0.7612 -0.3510511,-1.37302 z M 20.710974,194.91236 c -0.01469,-0.91132 14.438895,-14.786 15.402898,-14.786 0.423364,0 -0.213714,0.75078 -1.415729,1.6684 -2.844565,2.17155 -9.394637,8.4309 -11.959414,11.4286 -1.109353,1.29661 -2.02184,2.05665 -2.027755,1.689 z M 9.7789835,265.16525 c -0.6476764,-1.06202 -0.8040839,-0.72209 -0.2739012,0.59531 0.1884138,0.46818 0.458318,0.7409 0.5997767,0.60601 0.141449,-0.13488 -0.0048,-0.67548 -0.3258755,-1.20132 z M 115.26975,264.60207 c 0.6834,-0.8309 0.66397,-0.84944 -0.20743,-0.19779 -0.52882,0.39545 -0.96149,0.808 -0.96149,0.91679 0,0.43117 0.45119,0.15366 1.16892,-0.719 z M 7.2002972,257.96002 c -0.2020847,-0.76776 -0.4733914,-1.29488 -0.6028962,-1.1714 -0.1295048,0.12349 -0.070119,0.85269 0.1319662,1.62044 0.2020943,0.76775 0.4733913,1.29488 0.6028962,1.17139 0.1295048,-0.12348 0.070119,-0.85268 -0.1319662,-1.62043 z M 6.2298745,254.3864 c -0.1524198,-0.36016 -0.2771165,-0.0655 -0.2771165,0.65485 0,0.72034 0.1246967,1.01503 0.2771165,0.65486 0.1524102,-0.36017 0.1524102,-0.94954 0,-1.30971 z m -0.7019686,-4.26156 c -0.2012739,-1.63293 -0.4846772,-2.85576 -0.6297893,-2.7174 -0.1451122,0.13837 -0.089962,1.5788 0.122636,3.20098 0.2125501,1.62217 0.4959534,2.845 0.6297798,2.71739 0.1338264,-0.12761 0.078609,-1.56804 -0.1226265,-3.20097 z m 117.8961641,-0.0604 c 0,-0.28813 -0.23966,-0.17026 -0.53258,0.26194 -0.29294,0.43221 -0.53259,1.02157 -0.53259,1.3097 0,0.28813 0.23965,0.17026 0.53259,-0.26194 0.29292,-0.4322 0.53258,-1.02157 0.53258,-1.3097 z M 5.486989,231.46663 c 0.2792534,-2.38977 0.2473805,-2.56853 -0.1868017,-1.04775 -0.2879252,1.00846 -0.6255345,4.89828 -0.7502503,8.64402 l -0.2267646,6.81045 0.4135664,-5.76268 c 0.2274514,-3.16949 0.5650703,-7.05929 0.7502502,-8.64404 z m 121.076301,9.33162 c -0.17538,-0.41791 -0.30557,-0.29377 -0.33193,0.31652 -0.0238,0.55225 0.10599,0.86167 0.28856,0.68759 0.18256,-0.17408 0.20208,-0.62593 0.0433,-1.00411 z m 0.54942,-2.09552 c -0.17539,-0.41791 -0.30558,-0.29377 -0.33194,0.31652 -0.0239,0.55225 0.10599,0.86167 0.28857,0.68759 0.18255,-0.17408 0.20207,-0.62593 0.0433,-1.00411 z m 0.53796,-2.65214 c -0.15241,-0.36017 -0.27711,-0.0655 -0.27711,0.65485 0,0.72034 0.1247,1.01502 0.27711,0.65485 0.15241,-0.36017 0.15241,-0.94953 0,-1.3097 z m 0.56629,-2.87138 c -0.1393,-0.50971 -0.26243,-0.21951 -0.27363,0.64489 -0.0112,0.8644 0.10277,1.28144 0.25328,0.92676 0.15049,-0.35468 0.15965,-1.06192 0.0204,-1.57165 z m 0.55642,-4.46294 c -0.13095,-0.64831 -0.23811,-0.11788 -0.23811,1.17873 0,1.2966 0.10716,1.82702 0.23811,1.17873 0.13096,-0.64831 0.13096,-1.70917 0,-2.35746 z M 7.4333677,222.29873 c -0.068974,-1.05254 -1.4827848,3.70682 -1.4784155,4.97686 0.00286,0.72034 0.3438579,0.013 0.7586263,-1.57163 0.4147589,-1.58475 0.7386688,-3.11709 0.7197892,-3.40523 z M 55.140271,171.16912 c 0.850668,-0.31633 3.771791,-1.12985 6.491392,-1.80782 2.719611,-0.67797 4.41612,-1.24427 3.770017,-1.25844 -1.331453,-0.0292 -10.365566,2.38537 -11.691438,3.12479 -1.196033,0.66702 -0.437597,0.63597 1.430029,-0.0585 z m 14.320562,-3.45314 c -0.528809,-0.13177 -1.394139,-0.13177 -1.922948,0 -0.528819,0.13177 -0.09615,0.23958 0.961474,0.23958 1.057627,0 1.490293,-0.10781 0.961474,-0.23958 z m 5.21945,-0.50971 c -0.377725,-0.14533 -0.995818,-0.14533 -1.373543,0 -0.377715,0.14533 -0.06869,0.26424 0.686771,0.26424 0.75545,0 1.064497,-0.11891 0.686772,-0.26424 z m 3.845907,-0.52388 c -0.377725,-0.14533 -0.995819,-0.14533 -1.373534,0 -0.377725,0.14533 -0.06869,0.26424 0.686762,0.26424 0.75545,0 1.064496,-0.11891 0.686772,-0.26424 z M 53.93985,288.34961 c -11.978924,-2.63704 -21.506128,-9.49691 -27.407551,-19.73424 -4.320376,-7.49466 -6.083359,-14.5496 -6.075813,-24.31366 0.01011,-13.14363 4.068589,-25.46908 12.211594,-37.08646 3.047642,-4.34799 10.719231,-12.19982 14.89377,-15.24368 16.865839,-12.29775 37.071949,-15.22535 52.8036,-7.65055 7.9679,3.83655 14.33792,10.08052 18.435,18.07025 3.52603,6.87611 4.71226,11.68848 5.03626,20.43134 0.42333,11.42361 -1.64904,20.49602 -7.03959,30.81789 -3.81304,7.30122 -7.67774,12.43517 -13.68459,18.17883 -8.046701,7.69415 -16.464934,12.56911 -26.75687,15.49475 -5.979917,1.69989 -17.070567,2.21223 -22.41581,1.03553 z m 22.403313,-1.55834 c 23.225876,-6.59132 41.901247,-27.50818 46.355577,-51.91941 1.16654,-6.39294 0.76475,-17.81435 -0.82047,-23.32377 -2.41241,-8.38426 -6.36984,-14.8648 -12.35635,-20.23431 -4.88216,-4.37895 -8.77889,-6.63739 -15.073755,-8.73635 -4.53119,-1.51087 -5.251847,-1.59884 -13.037543,-1.5915 -7.397687,0.007 -8.747361,0.15458 -13.185966,1.44212 -20.282906,5.88357 -36.931035,21.93925 -43.906598,42.34412 -1.012456,2.96162 -2.172008,7.15286 -2.576798,9.31387 -1.010634,5.39545 -0.883943,16.58983 0.241571,21.34421 4.063551,17.16523 15.60004,28.81617 31.99038,32.30776 5.852988,1.24685 16.180547,0.80977 22.369952,-0.94674 z M 68.711594,276.2921 c -0.188099,-0.46741 -0.232813,-2.28917 -0.09937,-4.04836 0.266136,-3.50827 1.354911,-4.8692 3.579065,-4.4737 0.670754,0.11928 1.105403,0.0408 0.965882,-0.1745 -0.322851,-0.49811 3.40705,-0.93275 4.166038,-0.48547 0.333422,0.19649 0.500542,1.93593 0.404723,4.2125 -0.187193,4.44739 -0.55844,4.7971 -5.792314,5.45633 -2.381944,0.30003 -2.941367,0.21556 -3.224026,-0.4868 z m 6.930163,-0.80602 c 1.272248,-0.32154 1.38563,-0.60995 1.537506,-3.91077 l 0.163973,-3.56362 -2.636337,0.37693 c -4.301659,0.61504 -4.559294,0.88451 -4.559294,4.76868 v 3.41053 l 2.060304,-0.3673 c 1.133175,-0.20202 2.678408,-0.52352 3.433848,-0.71445 z m -6.198735,-3.54247 c -0.12628,-0.79633 -0.232985,-0.26915 -0.237106,1.17152 -0.0038,1.44067 0.0992,2.09221 0.229608,1.44788 0.130411,-0.64435 0.133788,-1.82308 0.0076,-2.6194 z m -7.45839,-10.09162 c -16.010535,-5.49179 -19.313466,-26.92491 -6.497812,-42.1651 10.369458,-12.33121 26.609877,-15.31511 36.624945,-6.7292 5.11472,4.38485 7.704273,10.32062 7.704273,17.65973 0,5.37627 -1.030563,9.30827 -3.929868,14.99398 -4.022749,7.8889 -12.830241,14.97064 -20.793828,16.7195 -3.945924,0.86655 -9.809835,0.65231 -13.10771,-0.47891 z M 77.414041,260.586 c 10.948714,-3.68471 19.707714,-14.42571 21.197006,-25.9935 1.770893,-13.7551 -6.17541,-24.68524 -18.560669,-25.53021 -7.934577,-0.54133 -14.600512,2.13194 -21.249924,8.52197 -6.863879,6.59612 -10.274344,14.16719 -10.265234,22.78835 0.0099,9.34737 5.237834,17.5354 13.017634,20.38824 4.161889,1.52617 11.031826,1.45043 15.861187,-0.17485 z m -13.084556,-1.9479 c -3.442205,-0.7384 -7.926067,-3.5735 -10.245601,-6.47818 -5.71069,-7.15136 -5.610645,-18.65569 0.242334,-27.86421 2.805089,-4.41326 7.837584,-8.8706 12.496399,-11.0682 3.9346,-1.85596 4.315292,-1.93027 9.889484,-1.93027 5.386895,0 6.003653,0.10897 8.711205,1.5392 5.502061,2.90638 9.030469,8.0868 10.132696,14.8768 0.761879,4.69341 -0.442978,10.3996 -3.402729,16.11526 -1.703997,3.29065 -3.094645,5.05263 -6.20216,7.85821 -6.862935,6.19614 -14.178387,8.54806 -21.621628,6.95139 z m 5.131348,-0.81469 c -0.528809,-0.13176 -1.394139,-0.13176 -1.922948,0 -0.528819,0.13177 -0.09615,0.23959 0.961474,0.23959 1.057627,0 1.490293,-0.10782 0.961474,-0.23959 z m -6.18516,-1.10414 c -7.333492,-2.41806 -11.846671,-9.02241 -11.865894,-17.36392 -0.01173,-5.10749 0.794411,-8.25888 3.290472,-12.86269 6.300526,-11.62086 19.948235,-17.19782 29.993917,-12.25662 2.899591,1.42622 4.494938,2.83939 6.408633,5.67682 0.863966,1.28098 1.570838,2.08254 1.570838,1.78122 0,-0.74425 -2.795854,-4.31341 -4.736642,-6.04674 -2.154512,-1.92422 -6.291501,-3.58984 -9.765455,-3.93171 -14.306462,-1.40794 -28.785606,13.82982 -27.625415,29.07277 0.353131,4.63951 2.517898,9.37127 5.653527,12.35755 2.242394,2.13557 6.861228,4.51285 8.728501,4.49249 0.604365,-0.007 -0.139255,-0.42022 -1.652482,-0.91917 z m 15.023494,-1.9761 c 7.182314,-3.38471 12.639041,-9.87163 14.673464,-17.4437 0.839163,-3.12334 0.991048,-14.29871 0.177367,-13.05112 -0.191267,0.29326 -0.640274,-0.31196 -0.997812,-1.34493 -0.849142,-2.45335 -5.094334,-6.92381 -7.846056,-8.26238 -9.121136,-4.43699 -20.897603,-0.12293 -27.994839,10.25534 -3.21835,4.70617 -4.474361,9.24041 -4.187313,15.1163 0.272251,5.57296 1.399272,8.47725 4.600917,11.85638 3.655079,3.8577 7.730622,5.3483 13.685764,5.00545 3.004197,-0.17297 4.711944,-0.63436 7.888508,-2.13134 z m -7.718515,-1.87385 c -2.965971,-0.78841 -6.753713,-4.19033 -7.94592,-7.13655 -1.617632,-3.99755 -1.335288,-9.04999 0.742284,-13.283 2.206238,-4.49519 4.842002,-7.2259 9.028208,-9.35342 5.647059,-2.86997 11.684264,-2.29058 15.676666,1.50448 2.919015,2.77474 3.761583,5.0148 3.764779,10.00909 0.0019,3.73875 -0.233328,4.93346 -1.46962,7.44857 -3.861514,7.85587 -12.717965,12.69239 -19.796397,10.81083 z m 10.047818,-1.77745 c 5.19208,-2.50874 8.44568,-6.35448 10.144974,-11.99131 2.783022,-9.23172 -2.459113,-17.16855 -11.339547,-17.16855 -10.265196,0 -19.195343,11.13798 -17.003148,21.20692 1.799215,8.26399 10.071725,11.87932 18.197721,7.95294 z"
       id="path4930"
       inkscape:connector-curvature="0" />
  </g>
</svg>
