<?xml version="1.0" encoding="UTF-8" standalone="no"?>
<!-- Created with Inkscape (http://www.inkscape.org/) -->

<svg
   xmlns:dc="http://purl.org/dc/elements/1.1/"
   xmlns:cc="http://creativecommons.org/ns#"
   xmlns:rdf="http://www.w3.org/1999/02/22-rdf-syntax-ns#"
   xmlns:svg="http://www.w3.org/2000/svg"
   xmlns="http://www.w3.org/2000/svg"
   xmlns:sodipodi="http://sodipodi.sourceforge.net/DTD/sodipodi-0.dtd"
   xmlns:inkscape="http://www.inkscape.org/namespaces/inkscape"
   width="500"
   height="500"
   viewBox="0 0 132.29166 132.29167"
   version="1.1"
   id="svg8"
   inkscape:version="0.92.4 (5da689c313, 2019-01-14)"
   sodipodi:docname="icon.svg">
  <defs
     id="defs2" />
  <sodipodi:namedview
     id="base"
     pagecolor="#ffffff"
     bordercolor="#666666"
     borderopacity="1.0"
     inkscape:pageopacity="0.0"
     inkscape:pageshadow="2"
     inkscape:zoom="1.3898629"
     inkscape:cx="131.92937"
     inkscape:cy="269.38455"
     inkscape:document-units="mm"
     inkscape:current-layer="layer1"
     showgrid="false"
     units="px"
     inkscape:window-width="1920"
     inkscape:window-height="1017"
     inkscape:window-x="-8"
     inkscape:window-y="-8"
     inkscape:window-maximized="1" />
  <metadata
     id="metadata5">
    <rdf:RDF>
      <cc:Work
         rdf:about="">
        <dc:format>image/svg+xml</dc:format>
        <dc:type
           rdf:resource="http://purl.org/dc/dcmitype/StillImage" />
        <dc:title></dc:title>
      </cc:Work>
    </rdf:RDF>
  </metadata>
  <g
     inkscape:label="Ebene 1"
     inkscape:groupmode="layer"
     id="layer1"
     transform="translate(0,-164.70832)">
    <path
       style="fill:#000000;stroke-width:0.56591314"
       d="m 1.3487795,233.52097 v -61.8473 l 2.707526,-2.66681 2.7075258,-2.66681 H 68.853358 130.94289 v 61.84728 61.84729 l -2.70753,2.66682 -2.70753,2.66681 H 63.438305 1.3487795 Z m 123.2301505,0.18848 c 0.0977,-41.25868 -0.0412,-60.62471 -0.43209,-60.23381 -0.38554,0.38554 -0.52679,20.44545 -0.427,60.64026 0.0942,37.93529 -0.0489,59.86603 -0.38848,59.52642 -0.64258,-0.64269 -119.1458791,-0.75439 -120.1716585,-0.11328 -0.4411221,0.2757 -0.4807843,0.23603 -0.1131826,-0.11319 0.3702806,-0.35176 0.5659131,-21.11376 0.5659131,-60.05898 0,-52.2175 -0.1041649,-59.60782 -0.8488697,-60.22587 -0.7536552,-0.62547 -0.8488697,6.11641 -0.8488697,60.10615 0,33.44585 0.1709102,60.98155 0.3798003,61.19044 0.2088902,0.20889 27.7759331,0.315 61.2600961,0.2358 l 60.880301,-0.14401 z m 5.79804,-4.95382 c 0,-33.39482 -0.18026,-60.71785 -0.40057,-60.71785 -0.22032,0 -1.36629,0.943 -2.54661,2.09555 l -2.14603,2.09555 v 61.1216 61.12161 l 2.54661,-2.49931 2.5466,-2.49931 z m -7.92278,4.64513 V 174.26283 H 63.316266 4.1783451 v 59.13793 59.13793 H 63.316266 122.45419 Z m -100.166625,-0.004 v -41.03241 l 41.170179,0.14518 41.170186,0.14517 0.1452,40.88723 0.1452,40.88723 H 63.602946 l -41.315381,2.7e-4 v -41.03241 z m 0.990168,-20.1858 c -0.08573,-11.3058 -0.155907,-2.2204 -0.15596,20.18976 -5.2e-5,22.41016 0.07009,31.66036 0.155865,20.55599 0.08578,-11.10437 0.08582,-29.43996 9.5e-5,-40.74575 z m 60.028458,60.22845 c -10.793197,-0.086 -28.619463,-0.086 -39.61392,-1e-4 -10.994458,0.0859 -2.16366,0.15628 19.623995,0.15634 21.787655,5e-5 30.783122,-0.0702 19.989925,-0.15624 z m 19.769349,-39.89717 -0.14535,-39.18949 -39.472446,-0.14533 -39.47244,-0.14532 v 39.33481 39.33482 H 63.603099 103.22089 Z M 60.398277,249.5119 c -5.037539,-1.00961 -9.027133,-4.12221 -11.583473,-9.03723 -1.062407,-2.04266 -1.326453,-3.44251 -1.33431,-7.07391 -0.0086,-3.96659 0.197247,-4.90107 1.661884,-7.54516 2.822463,-5.09535 7.295265,-7.98176 13.089304,-8.44685 6.789005,-0.54495 13.407988,3.39519 16.060128,9.56026 1.582378,3.67834 1.456977,10.23589 -0.263314,13.76986 -3.081617,6.33052 -10.757923,10.15034 -17.630219,8.77303 z m 9.879451,-2.01326 c 3.534218,-1.76118 6.525289,-5.09467 7.721562,-8.60554 3.529187,-10.35759 -3.940046,-21.03703 -14.72369,-21.0518 -6.354271,-0.009 -12.923226,4.92913 -14.703293,11.05235 -2.246743,7.72853 1.933921,16.64542 8.97327,19.13899 3.954317,1.40075 9.299486,1.17657 12.732151,-0.534 z m 53.308292,-74.65059 c 0.62547,-0.75366 -6.09545,-0.84887 -59.917507,-0.84887 -33.342096,0 -60.6219941,0.21221 -60.6219941,0.47159 0,0.25938 0.1697739,0.64137 0.3772754,0.84887 0.2075014,0.2075 27.1703747,0.37728 59.9174967,0.37728 52.234259,0 59.626679,-0.10417 60.244729,-0.84887 z m 3.67843,-3.67844 2.2104,-2.26365 H 68.464293 7.4537422 l -2.203612,1.74529 c -1.2119861,0.95991 -2.2036113,1.97856 -2.2036113,2.26365 0,0.31067 24.4427731,0.51836 61.0037651,0.51836 h 61.003766 z"
       id="path3789"
       inkscape:connector-curvature="0" />
  </g>
</svg>
