<?xml version="1.0" encoding="UTF-8" standalone="no"?>
<!-- Created with Inkscape (http://www.inkscape.org/) -->

<svg
   xmlns:dc="http://purl.org/dc/elements/1.1/"
   xmlns:cc="http://creativecommons.org/ns#"
   xmlns:rdf="http://www.w3.org/1999/02/22-rdf-syntax-ns#"
   xmlns:svg="http://www.w3.org/2000/svg"
   xmlns="http://www.w3.org/2000/svg"
   xmlns:sodipodi="http://sodipodi.sourceforge.net/DTD/sodipodi-0.dtd"
   xmlns:inkscape="http://www.inkscape.org/namespaces/inkscape"
   width="500mm"
   height="500mm"
   viewBox="0 0 500 500"
   version="1.1"
   id="svg8"
   inkscape:version="0.92.5 (2060ec1f9f, 2020-04-08)"
   sodipodi:docname="icon.svg">
  <defs
     id="defs2" />
  <sodipodi:namedview
     id="base"
     pagecolor="#ffffff"
     bordercolor="#666666"
     borderopacity="1.0"
     inkscape:pageopacity="0.0"
     inkscape:pageshadow="2"
     inkscape:zoom="0.35"
     inkscape:cx="818.57143"
     inkscape:cy="1005.7143"
     inkscape:document-units="mm"
     inkscape:current-layer="layer1"
     showgrid="false"
     inkscape:window-width="1848"
     inkscape:window-height="1016"
     inkscape:window-x="72"
     inkscape:window-y="27"
     inkscape:window-maximized="1" />
  <metadata
     id="metadata5">
    <rdf:RDF>
      <cc:Work
         rdf:about="">
        <dc:format>image/svg+xml</dc:format>
        <dc:type
           rdf:resource="http://purl.org/dc/dcmitype/StillImage" />
        <dc:title></dc:title>
      </cc:Work>
    </rdf:RDF>
  </metadata>
  <g
     inkscape:label="Layer 1"
     inkscape:groupmode="layer"
     id="layer1"
     transform="translate(0,203)">
    <path
       style="fill:#000000;stroke-width:2.00789142"
       d="m 369.56934,289.82667 c -1.80914,-1.15036 -0.71661,-17.95939 4.53307,-69.74349 3.80418,-37.5253 6.56283,-69.58316 6.13034,-71.23967 -0.4325,-1.65651 -0.89116,-0.24799 -1.01927,3.13005 -0.43215,11.39578 -2.66621,12.42193 -38.95379,17.89219 -18.53565,2.79419 -34.40853,5.08036 -35.27307,5.08036 -0.86456,0 -2.56167,8.45797 -3.77137,18.7955 -3.35966,28.70992 -16.8679,50.38614 -38.17332,61.25535 C 244.05907,264.6813 195.12105,273.23678 158.3702,273.296 114.67918,273.3664 62.796646,261.52153 40.351296,246.35208 -18.694834,206.44641 -12.025758,111.39288 54.179434,49.261467 l 14.772824,-13.863829 6.683418,-67.264365 c 3.733237,-37.572802 7.83463,-69.529173 9.291437,-72.395153 2.423073,-4.76692 10.350849,-9.92839 15.249547,-9.92839 1.16157,0 4.95915,-1.27409 8.43906,-2.83132 6.36702,-2.84918 31.67802,-6.58269 46.35128,-6.83707 10.48844,-0.18183 17.89122,-5.9048 19.36645,-14.97187 0.63896,-3.92719 2.72104,-9.52013 4.62685,-12.42876 3.992,-6.09256 14.63391,-13.10979 19.89817,-13.12077 1.97999,-0.004 8.30485,-3.50987 14.05526,-7.79054 15.43702,-11.49151 16.63917,-11.88318 43.68093,-14.23124 13.68044,-1.18788 35.24675,-4.48631 47.92516,-7.32984 26.22082,-5.88086 31.29231,-5.20924 48.62285,6.43912 l 9.30019,6.25093 16.68804,-6.73215 c 23.44065,-9.45624 26.88365,-9.09101 42.85875,4.54636 7.26654,6.20317 13.21188,12.1892 13.21188,13.30228 0,1.15431 2.45967,1.53184 5.72513,0.87874 6.78603,-1.3572 14.76221,0.36569 13.22296,2.85623 -0.59708,0.96613 0.42357,1.17748 2.26816,0.46964 2.45063,-0.9404 8.19341,3.79709 21.32506,17.59204 9.88421,10.38347 19.32714,20.84895 20.9843,23.25663 2.71868,3.94998 1.81134,16.40451 -9.28893,127.5011113 -6.76608,67.7179237 -13.11738,125.1196987 -14.11404,127.5594887 -1.86145,4.55682 -15.3504,12.6311 -21.10164,12.6311 -1.77419,0 -6.34102,-2.3761 -10.1485,-5.28021 -5.70824,-4.35388 -8.35574,-5.08801 -15.09106,-4.18462 -4.49257,0.6026 -8.68844,1.61574 -9.32414,2.25142 -0.63568,0.6357 -2.59209,15.39438 -4.34755,32.79706 -1.75548,17.40269 -3.44315,29.38238 -3.75042,26.62153 -0.30725,-2.76085 0.73453,-17.21768 2.31508,-32.12627 1.58053,-14.90859 2.73352,-27.22532 2.56217,-27.37051 -0.17128,-0.14517 -3.08398,0.15923 -6.47252,0.67634 l -6.16097,0.94033 -7.41312,74.27565 c -4.07723,40.85159 -6.89865,75.10809 -6.26986,76.1255 0.62882,1.01743 3.22602,1.84986 5.77159,1.84986 5.38717,0 5.04916,1.7059 10.54295,-53.20913 1.98864,-19.87812 3.90254,-34.21109 4.25312,-31.85104 0.7543,5.0779 -7.26973,82.87869 -8.80377,85.36077 -1.47722,2.39021 -12.36224,2.13811 -13.88238,-0.32152 -0.68963,-1.11585 0.24924,-16.81175 2.08636,-34.87981 1.83714,-18.06806 2.90464,-34.54844 2.37225,-36.6231 -0.5324,-2.07465 -1.17763,0.74565 -1.43384,6.26736 -0.2562,5.52169 -0.87592,8.47442 -1.37715,6.56163 -0.82474,-3.14738 6.08794,-80.9047 8.40664,-94.56221 0.92893,-5.47162 0.72836,-5.6266 -5.5427,-4.28322 -3.57858,0.76661 -6.8068,1.66388 -7.17382,1.99391 -0.36703,0.33004 -4.10485,34.78532 -8.3063,76.56729 -7.99221,79.4796 -8.00129,78.88212 1.20134,78.94832 3.87908,0.0279 4.47031,-1.59659 6.38299,-17.53831 l 2.1079,-17.56904 -1.04142,17.04832 c -0.57279,9.37657 -1.46547,17.73442 -1.98373,18.57299 -1.21142,1.96011 -11.02449,1.92369 -14.13233,-0.0525 z m -167.5409,-21.63553 c 28.72134,-4.21757 51.71576,-10.18533 61.76789,-16.03069 11.77946,-6.84976 25.95467,-23.41276 30.50862,-35.64772 2.13811,-5.74437 4.49293,-17.22094 5.23293,-25.5035 0.73999,-8.28255 1.82166,-17.54395 2.40367,-20.58088 0.98875,-5.15914 0.60444,-5.52171 -5.85282,-5.52171 h -6.91103 l -1.35892,17.56906 c -0.74742,9.66298 -2.72751,21.78909 -4.40027,26.94695 -3.40261,10.49183 -15.48707,25.33883 -25.82398,31.72739 -9.29365,5.7438 -44.86493,13.50116 -74.82681,16.31821 C 141.5691,261.34177 91.365538,254.24003 59.796982,240.0729 36.810728,229.75728 19.629729,205.73876 15.777128,178.53447 8.5479249,127.4871 41.070841,68.433281 92.939333,38.426362 108.56526,29.386474 131.7151,23.061856 170.66184,17.192307 c 29.89775,-4.505809 35.64008,-5.914405 35.64008,-8.7425205 0,-9.00890636 -9.12037,-10.5696208 -16.81291,-2.8770869 -4.97301,4.9730054 -5.54698,5.1015504 -8.96545,2.0078916 -5.25764,-4.758101 -11.04979,-4.0794541 -17.13714,2.0078907 -5.11197,5.1119721 -5.46155,5.1788751 -9.2318,1.7668451 C 149.20498,6.8759614 134.37006,8.3696323 113.58058,15.440603 52.676549,36.155398 6.450246,94.819404 2.2391013,156.73977 -0.48347061,196.77232 18.997448,234.45962 50.3483,249.81063 c 37.613599,18.41759 99.96992,25.9739 151.68014,18.38051 z m -16.91561,-13.00921 c 29.54416,-2.80159 58.22066,-9.18647 70.10979,-15.61004 11.32428,-6.1184 22.132,-18.42491 26.04963,-29.66217 1.50657,-4.32139 3.35073,-13.95605 4.09817,-21.41035 1.50815,-15.04098 0.46109,-16.13274 -10.13552,-10.56828 -3.12642,1.64176 -27.36963,6.34695 -53.8738,10.456 -51.57501,7.99588 -93.52512,9.88636 -110.43404,4.97666 -10.37916,-3.01371 -51.992596,-37.55394 -50.362414,-41.80213 0.628369,-1.6375 0.248742,-2.38631 -0.861821,-1.69994 -2.604957,1.60995 -2.622644,1.98612 2.030892,-43.18389 2.208684,-21.438761 3.975774,-40.374126 3.926877,-42.078564 -0.05094,-1.777086 -4.975817,2.160817 -11.54538,9.231685 C 1.9039647,130.02632 5.2377143,213.04785 60.725589,238.45105 c 21.003006,9.6155 61.422391,17.73292 92.367201,18.55013 5.5217,0.14577 19.93071,-0.67284 32.02004,-1.81925 z M 400.68592,141.81589 c -0.0653,-4.41735 -1.75405,6.87703 -3.75293,25.09865 -1.99887,18.22161 -3.58095,36.74441 -3.51571,41.16177 0.0653,4.41737 1.75405,-6.87703 3.75292,-25.09864 1.99888,-18.22162 3.58096,-36.74442 3.51572,-41.16178 z m -219.89656,50.07828 c 1.88416,-0.72302 3.42295,-2.34734 3.41952,-3.60962 -0.009,-3.34309 -65.14543,-3.20139 -68.49676,0.14898 -2.8608,2.86 -0.84644,3.90475 10.27414,5.32867 9.35186,1.19744 50.46672,-0.20403 54.8031,-1.86805 z m -67.06066,-3.6435 c 1.85135,-2.23074 0.66221,-3.17156 -6.215,-4.91718 -10.251237,-2.60205 -11.269725,-1.98762 -5.78947,3.49265 4.8538,4.85379 8.77251,5.31881 12.00447,1.42453 z m 115.21049,-3.45303 c 22.33622,-3.41636 41.45461,-7.01551 42.48532,-7.99809 4.49248,-4.28267 -2.78693,-4.30856 -30.5161,-0.10843 -51.02009,7.72771 -54.68541,8.49935 -54.68541,11.51238 0,3.48323 -4.85591,3.8704 42.71619,-3.40586 z m -4.56625,-7.53812 49.19333,-7.5612 -0.3313,-5.90965 c -0.18232,-3.2503 -0.95823,-8.35779 -1.72444,-11.34997 -1.94201,-7.58375 5.56617,-22.41379 13.98059,-27.61417 8.54671,-5.28216 19.1866,-5.25344 25.9543,0.07 4.38498,3.44921 5.29052,5.78925 5.29052,13.67147 0,5.25336 -1.31949,11.25449 -2.94799,13.40754 -1.62137,2.14366 -2.9767,5.76323 -3.01184,8.04349 l -0.0639,4.14591 31.61201,-4.81976 c 17.38662,-2.65088 32.10147,-5.61172 32.69966,-6.57962 0.59822,-0.96791 3.24553,-23.52143 5.88297,-50.11891 2.63742,-26.597464 5.7677,-49.612162 6.95619,-51.143741 1.34535,-1.733734 14.78829,-4.729569 35.61974,-7.938059 34.91263,-5.377314 45.05057,-6.173382 46.45045,-3.647476 0.45902,0.828256 -1.1961,21.384042 -3.67808,45.679531 -2.48196,24.295495 -4.14447,44.565155 -3.69446,45.043695 3.10314,3.29993 5.68193,-15.96695 16.10701,-120.339626 6.45284,-64.603908 11.9949,-115.654544 12.3157,-113.445864 0.32078,2.20868 -4.38479,53.711093 -10.45683,114.449811 -6.07205,60.738716 -10.93616,113.383309 -10.80915,116.987969 0.22703,6.44266 1.39545,7.46306 2.47744,2.16359 0.30251,-1.48162 1.12046,-4.04917 1.81766,-5.70568 0.6972,-1.65651 6.52736,-55.224311 12.9559,-119.0395641 l 11.68827,-116.0276559 -5.12301,1.05027 c -2.81768,0.57758 -17.32098,2.88039 -32.22957,5.11729 -14.90861,2.2369 -29.72809,4.60915 -32.93218,5.27168 l -5.82564,1.20458 1.21311,-8.85061 c 0.6672,-4.86784 1.55945,-10.16509 1.98275,-11.77167 0.42328,-1.60658 0.36806,-2.17565 -0.12268,-1.26461 -0.49079,0.91105 -8.91384,-6.19299 -18.71785,-15.78674 -13.44181,-13.15352 -18.69652,-17.10237 -21.36733,-16.05735 -8.08187,3.16225 -40.92022,11.20052 -57.75492,14.13744 -9.93906,1.73392 -30.05781,3.7098 -44.70831,4.39084 l -26.63736,1.23824 -22.05406,23.77404 c -21.28464,22.944578 -22.05408,24.089588 -22.05408,32.819059 0,4.974772 -0.82858,9.045039 -1.84127,9.045039 -4.5173,0 -65.03249,9.983491 -65.92496,10.875967 -0.99871,0.99871 -6.39707,48.3847715 -6.48112,56.8903711 -0.0352,3.5618789 1.08329,4.5177555 5.2863,4.5177555 5.21868,0 5.25375,-0.085333 1.66584,-4.0498569 -3.55799,-3.931552 -3.54021,-4.1661941 0.6088,-8.0315682 5.80513,-5.4083025 8.71498,-5.0245955 15.48518,2.0419676 6.72929,7.0238658 12.60211,8.4650897 8.63968,2.1202135 -2.01508,-3.2266606 -1.79001,-4.6192171 1.29813,-8.0315691 4.95192,-5.4718185 6.99781,-5.2282495 15.23667,1.81397 7.56953,6.4700911 14.52982,8.59538424 9.90681,3.0249929 -2.0731,-2.4979299 -2.05543,-4.0163659 0.0934,-8.0315654 3.53938,-6.613411 7.47911,-6.239003 15.42893,1.466274 7.94442,7.7000288 8.06829,8.8479409 1.60151,14.8411556 -6.06851,5.6241045 -6.3178,9.0704094 -1.00394,13.8793904 2.20868,1.998835 4.01578,4.397744 4.01578,5.330932 0,2.151495 -7.50176,9.728253 -9.63195,9.728253 -0.88023,0 -5.12959,-3.614204 -9.44301,-8.031565 -7.36102,-7.538369 -13.0513,-10.271832 -13.0513,-6.269521 0,0.969109 1.35532,2.886845 3.01183,4.261629 3.8764,3.217125 3.79412,5.064124 -0.44623,10.016508 -4.88503,5.705302 -7.14693,5.117994 -15.37803,-3.992834 -3.99082,-4.417361 -8.61371,-8.031565 -10.27309,-8.031565 -3.90192,0 -3.9055,3.245214 -0.005,4.741896 4.14473,1.590471 3.77274,6.656642 -0.85339,11.622199 l -3.86523,4.148845 -7.23679,-5.519754 c -3.98023,-3.035871 -8.04619,-6.966098 -9.03547,-8.733825 -0.98926,-1.767749 -2.50253,-2.510226 -3.36278,-1.649965 -1.25167,1.251659 -16.48035,141.710261 -16.73901,154.388791 -0.0841,4.11856 5.10107,4.91694 34.06505,5.24516 15.31614,0.17347 34.53855,-1.82927 70.2762,-7.32228 z m -71.5858,-31.50031 c -1.69723,-4.42292 0.27831,-24.79804 2.63265,-27.1524 2.36662,-2.36659 24.60894,-6.24777 27.07401,-4.72428 2.29458,1.41813 2.20209,19.37978 -0.13141,25.5173 -2.89433,7.61269 -27.09729,12.81688 -29.57525,6.35938 z m 22.21916,-3.11 c 1.00903,-0.93031 -1.70162,-1.15482 -6.02367,-0.49892 -4.32205,0.65591 -8.76182,2.04873 -9.86617,3.09519 -1.27049,1.20389 0.9417,1.38713 6.02368,0.4989 4.41736,-0.77204 8.85713,-2.16487 9.86616,-3.09517 z m -12.37602,-3.90772 c -5.3699,-2.15844 -6.09985,-10.11585 -1.3625,-14.8532 4.20443,-4.20444 12.21056,-4.00987 14.75493,0.35856 1.80437,3.09789 2.05384,2.94816 2.10767,-1.26508 0.0574,-4.49009 -0.491,-4.71666 -9.07364,-3.74928 -5.02408,0.56629 -9.6478,1.54271 -10.27492,2.16983 -0.62713,0.62713 -1.60356,5.25084 -2.16984,10.27493 -1.0129,8.9864 -0.93573,9.13263 4.75322,9.00742 5.46826,-0.12027 5.53708,-0.22605 1.26508,-1.94318 z m 13.55327,-2.96102 c 0,-1.40536 -1.7505,-4.68828 -3.89,-7.29541 -3.16792,-3.86029 -4.56558,-4.32712 -7.52959,-2.51491 -4.71067,2.88014 -5.44067,10.95239 -0.84737,9.37011 1.77729,-0.61223 4.36088,-2.5149 5.74131,-4.22817 1.53686,-1.90743 2.50986,-2.18786 2.50986,-0.72337 0,4.36925 -0.38798,5.40711 -1.87403,5.01309 -0.80985,-0.21475 -1.47246,0.79072 -1.47246,2.23435 0,1.55672 1.49794,2.23308 3.68114,1.66216 2.02463,-0.52944 3.68114,-2.11249 3.68114,-3.51785 z m 5.86515,-8.52179 c -0.17448,-10.49812 -1.14928,-9.64882 -2.30462,2.00789 -0.41045,4.14127 -0.0241,7.52959 0.85843,7.52959 0.88259,0 1.53338,-4.29187 1.44619,-9.53748 z m 99.66298,-97.327546 c -7.21297,-10.297953 -1.91795,-26.0397228 11.00715,-32.7235519 7.80059,-4.0338476 12.46235,-3.7376626 18.72659,1.1897961 9.49143,7.4659631 5.77159,25.2643558 -6.83681,32.7123278 -8.20086,4.84436 -19.07017,4.284901 -22.89693,-1.178572 z m 26.18954,-4.372164 c 8.16759,-8.1676 9.34512,-18.765352 2.81105,-25.29943236 C 305.83883,-4.6139052 302.3902,-4.7596071 293.35821,-0.47366456 285.5559,3.2287869 280.59389,11.224773 280.59389,20.095317 c 0,13.823028 15.78891,16.982063 27.30733,5.463653 z M 117.05215,180.4256 c 0.53862,-1.40362 4.39622,-36.64212 8.57243,-78.30778 8.387,-83.676242 8.76694,-78.476888 -5.37448,-73.547152 -3.83575,1.337135 -6.69598,3.911854 -7.24928,6.525647 -0.50264,2.374412 -3.88551,34.586074 -7.5175,71.581475 -3.63198,36.9954 -6.819012,64.55372 -7.082288,61.2407 -0.263276,-3.31303 2.492398,-35.16321 6.123708,-70.778185 3.63131,-35.614978 6.23772,-64.754504 5.79204,-64.754504 -0.4457,0 -6.81557,3.181846 -14.155288,7.07075 -23.495816,12.449189 -21.421687,7.730483 -26.550109,60.40205 -2.484249,25.514469 -3.993825,47.752809 -3.35462,49.418559 1.795056,4.67783 33.881897,29.60224 40.654527,31.57962 8.44084,2.46444 9.03948,2.439 10.14086,-0.43118 z m -21.518927,-1.18307 c -0.981102,-2.53191 -27.19003,-24.38918 -29.133528,-24.29627 -2.085075,0.0996 25.857226,25.89634 28.129584,25.96958 0.920289,0.0297 1.37206,-0.72331 1.003944,-1.67331 z M 278.586,173.94216 c 1.44076,-1.73601 1.63591,-3.01184 0.46067,-3.01184 -1.12141,0 -2.559,1.35532 -3.19468,3.01184 -0.63565,1.65651 -0.84295,3.01183 -0.46067,3.01183 0.38228,0 1.8199,-1.35532 3.19468,-3.01183 z m 8.03156,-4.13429 c 0,-1.72169 -0.90355,-2.57191 -2.00789,-1.88938 -1.10433,0.68252 -2.00789,2.09118 -2.00789,3.13033 0,1.03917 0.90356,1.88939 2.00789,1.88939 1.10434,0 2.00789,-1.40866 2.00789,-3.13034 z m 19.69113,-1.94252 c -0.61821,-0.61821 -1.74094,0.49617 -2.49496,2.4764 -1.08964,2.86164 -0.85902,3.09227 1.12402,1.12401 1.37223,-1.36203 1.98916,-2.98219 1.37094,-3.60041 z m 39.37222,-0.93925 c 23.68897,-3.55268 31.87404,-6.12226 28.91798,-9.07832 -0.96196,-0.96198 -49.06595,5.42085 -61.37676,8.14395 -6.84516,1.51413 -5.88467,7.09641 1.00394,5.83485 3.03694,-0.55616 17.19163,-2.76137 31.45484,-4.90048 z m -63.38935,-2.91905 c 0.44375,-2.28904 -0.27984,-3.25449 -2.00789,-2.67907 -1.48588,0.49479 -3.0138,2.51 -3.39534,4.47826 -0.44374,2.28904 0.27983,3.25449 2.00789,2.67907 1.48587,-0.49478 3.0138,-2.51001 3.39534,-4.47826 z m 26.41281,-4.23864 c 0,-1.59133 -0.90355,-2.89333 -2.00789,-2.89333 -1.10434,0 -2.00789,1.86043 -2.00789,4.13429 0,2.27385 0.90355,3.57585 2.00789,2.89333 1.10434,-0.68253 2.00789,-2.54295 2.00789,-4.13429 z m -6.02367,-2.95782 c 0,-8.79753 -5.31893,-20.20608 -9.99003,-21.4276 -2.27206,-0.59415 -3.45334,-2.04335 -2.71677,-3.33286 0.74436,-1.30312 0.5194,-1.56401 -0.52454,-0.60835 -1.00532,0.9203 -1.86891,2.7274 -1.91911,4.01579 -0.0502,1.2884 -0.95374,2.19195 -2.00789,2.00788 -1.05414,-0.18411 -1.80369,2.30073 -1.66565,5.52171 0.13794,3.22099 0.36394,8.56701 0.50198,11.88003 0.13794,3.31302 1.25248,6.02367 2.47656,6.02367 2.14721,0 1.54408,-5.11994 -1.55428,-13.19413 -0.92318,-2.40578 -0.60829,-3.06706 0.99007,-2.07922 1.28909,0.79671 2.91346,5.01092 3.60969,9.36489 1.13297,7.08525 1.87134,7.91635 7.03292,7.91635 5.08282,0 5.76705,-0.72234 5.76705,-6.08816 z m -24.06396,-0.43748 c 0.0209,-1.7067 0.72406,-1.54604 2.19732,0.50197 1.85384,2.57713 2.0113,2.52526 1.09092,-0.3594 -4.02036,-12.60063 -3.7158,-17.49734 1.40689,-22.62003 8.34978,-8.34979 12.21809,-6.83557 17.30814,6.77516 2.44895,6.54842 5.60911,12.35 7.02255,12.89239 3.35053,1.28572 7.08548,-7.07323 7.08548,-15.85756 0,-22.16992 -32.70254,-18.47947 -40.30231,4.54808 -2.37149,7.18566 -1.12745,16.62925 2.19062,16.62925 1.08331,0 1.98348,-1.12944 2.00039,-2.50986 z M 67.757282,99.890671 c 3.694235,-37.210827 4.061916,-49.970576 1.18686,-41.187692 -1.954119,5.969553 -8.886532,85.034801 -7.63051,87.027181 1.688792,2.67882 1.477859,4.17936 6.44365,-45.839489 z M 458.99529,136.67067 c 0.76986,-2.32918 0.38052,-2.41327 -2.0168,-0.43567 -2.58505,2.13244 -2.77684,1.08956 -1.47705,-8.03157 2.21579,-15.54919 2.07862,-17.50985 -1.22494,-17.50985 -1.98313,0 -3.01183,1.98401 -3.01183,5.80884 0,3.19488 -1.29622,6.30627 -2.8805,6.9142 -1.58427,0.60794 -3.83142,2.88218 -4.99367,5.05388 -1.79174,3.3479 -1.12452,4.58139 4.38642,8.10905 7.06864,4.52482 9.74577,4.54655 11.21837,0.0912 z m 8.33252,-3.03814 c 0,-1.60531 -1.24341,-2.25687 -3.01184,-1.57826 -1.65651,0.63568 -3.01183,2.38605 -3.01183,3.88974 0,1.60531 1.2434,2.25688 3.01183,1.57827 1.65652,-0.63568 3.01184,-2.38606 3.01184,-3.88975 z m -63.42532,-10.20561 -1.48193,-9.72151 -2.78517,6.75826 c -2.47721,6.01106 -2.40539,7.17791 0.6497,10.55374 4.68319,5.17486 5.35002,3.77558 3.6174,-7.59049 z m 23.26748,7.21395 c 7.17821,-1.16003 13.95485,-3.07697 15.05918,-4.25984 1.40627,-1.50628 0.50384,-1.80903 -3.01183,-1.01045 -2.76085,0.62713 -10.68715,1.76634 -17.61399,2.53157 -6.92683,0.76523 -13.07912,2.17587 -13.67175,3.13478 -1.40767,2.27763 3.2927,2.18087 19.23839,-0.39606 z m 36.36851,-38.218048 c 2.18812,-21.315291 3.70998,-41.058771 3.38189,-43.874357 -0.32807,-2.815586 -2.23504,11.144662 -4.23772,31.022784 -2.00267,19.878132 -4.16295,40.208031 -4.80063,45.177571 -0.63767,4.96953 -0.52097,8.44906 0.25931,7.73233 0.78031,-0.71676 3.20902,-18.74301 5.39715,-40.058328 z m -79.17051,33.957398 c -0.64096,-1.60175 -1.11676,-1.12598 -1.21309,1.21311 -0.0871,2.11664 0.38736,3.30256 1.05459,2.63536 0.6672,-0.66722 0.73852,-2.39903 0.15842,-3.84847 z m 10.31341,-1.14996 c 0.48732,-3.41569 -0.3577,-4.49723 -3.51381,-4.49723 -3.12545,0 -4.15543,1.28071 -4.15543,5.16695 0,6.59059 6.7171,6.00402 7.66924,-0.66972 z m 49.88753,-2.94974 c 1.28688,-0.11486 2.7428,-2.31717 3.23538,-4.89398 0.68786,-3.59832 -0.002,-4.68507 -2.97704,-4.68507 -2.88705,0 -3.56537,0.96812 -2.6653,3.80402 0.77276,2.43476 0.2794,3.71228 -1.3706,3.54909 -3.25542,-0.32196 -25.5033,2.58548 -30.18648,3.94489 -1.93261,0.56099 -3.51382,1.71569 -3.51382,2.56602 0,0.85032 7.90608,0.28107 17.56906,-1.26502 9.66298,-1.5461 18.62195,-2.90509 19.9088,-3.01995 z M 412.7548,95.132406 c 1.31324,-14.080336 2.38324,-27.633605 2.37776,-30.11837 -0.012,-5.268201 -3.9574,-6.218882 -4.16686,-1.003944 -0.11947,2.976398 -0.38298,2.899615 -1.72248,-0.501972 -0.97818,-2.483947 -1.49877,1.34565 -1.36481,10.039453 0.11906,7.730387 -0.52317,21.509546 -1.42731,30.620347 -1.34603,13.5634 -1.14016,16.56511 1.13602,16.56511 2.09781,0 3.36585,-6.28193 5.16768,-25.600624 z m -13.94966,20.385444 c 0.82459,-0.69791 6.1619,-49.213701 6.23339,-56.660851 0.0373,-3.897658 -0.84986,-4.548215 -5.47707,-4.015782 -5.50836,0.633811 -5.52739,0.691096 -7.87816,23.726088 -1.29606,12.699918 -2.76504,26.919905 -3.26443,31.599965 -0.88779,8.32028 -0.79089,8.48117 4.36435,7.24712 2.89977,-0.69413 5.60965,-1.54759 6.02192,-1.89654 z m 25.35299,1.19939 c -3.58681,-1.54131 -3.43911,-1.74072 1.3829,-1.86675 4.80685,-0.12569 5.52138,-1.07661 6.51808,-8.67468 1.12157,-8.549836 5.15032,-46.576031 5.15032,-48.612234 0,-1.735099 -9.33977,-1.249711 -14.62605,0.760149 -4.41376,1.678089 -4.97276,3.341775 -6.24044,18.572991 -0.76583,9.201364 -1.92597,21.846562 -2.57809,28.100404 -1.1268,10.80604 -0.94804,11.41559 3.59986,12.2759 8.09887,1.53202 11.08369,1.28781 6.79342,-0.55578 z m -39.77033,-7.49137 c -0.50908,-1.95362 -0.95909,-0.84137 -1,2.47165 -0.0409,3.31302 0.37559,4.91142 0.92562,3.55202 0.55,-1.3594 0.58347,-4.07006 0.0745,-6.02367 z m 55.6894,2.97362 c 1.06731,-5.14949 5.17765,-46.793112 5.16929,-52.372496 -0.004,-2.041064 -1.11811,-3.310272 -2.50271,-2.848738 -2.27721,0.759063 -6.95546,34.441925 -7.39087,53.213354 -0.17167,7.40028 3.30073,8.8761 4.72429,2.00788 z m 16.05893,-10.03946 c 1.35704,-8.534177 5.16801,-46.719036 5.16801,-51.781954 0,-2.994931 -1.37696,-3.937034 -5.75429,-3.937034 h -5.7543 l -2.37533,25.600615 c -1.30644,14.080336 -2.85478,28.085383 -3.44076,31.122323 -0.97337,5.04453 -0.53896,5.5217 5.02679,5.5217 5.32184,0 6.22344,-0.8252 7.12988,-6.52565 z m -51.66941,-4.981521 c -0.50908,-1.953614 -0.95909,-0.841364 -1.00001,2.471657 -0.0409,3.313024 0.3756,4.911424 0.92562,3.552014 0.55,-1.3594 0.58348,-4.070046 0.0745,-6.023671 z m -18.04237,-7.042417 c -0.48027,-2.497631 -0.89146,-0.926959 -0.91376,3.490398 -0.0223,4.417367 0.37069,6.46089 0.87325,4.541167 0.50254,-1.919726 0.52078,-5.533923 0.0405,-8.031565 z m 20.05026,-13.036499 c -0.50908,-1.953615 -0.95909,-0.841364 -1.00001,2.471656 -0.0409,3.31302 0.3756,4.911426 0.92562,3.55202 0.55,-1.359396 0.58347,-4.070052 0.0745,-6.023676 z m -18.04237,-7.042417 c -0.48027,-2.497632 -0.89146,-0.92696 -0.91375,3.490397 -0.0223,4.417367 0.37068,6.460893 0.87323,4.541167 0.50255,-1.919715 0.52079,-5.533923 0.0405,-8.031564 z m 12.27659,-17.865895 c 4.57792,-0.232754 4.7214,-0.400914 0.96409,-1.13002 -4.96224,-0.962945 -12.65289,2.461072 -12.65289,5.6333 0,1.144377 1.41986,0.660797 3.15526,-1.074583 1.73538,-1.735401 5.57548,-3.278305 8.53354,-3.428697 z m 9.76172,-0.103004 c -0.64095,-1.601755 -1.11674,-1.125985 -1.21308,1.213108 -0.0871,2.116639 0.38737,3.30256 1.05459,2.635357 0.6672,-0.667222 0.73851,-2.399028 0.15841,-3.848465 z m 18.23066,-1.175239 c 0.57514,-1.746002 -1.05455,-2.411176 -5.14395,-2.099572 -4.08543,0.311284 -5.65594,1.315752 -4.94677,3.163795 1.26503,3.296657 8.9202,2.489284 10.09072,-1.064223 z m 7.87194,-4.848436 c -0.64097,-1.601754 -1.11675,-1.125984 -1.21309,1.213108 -0.0871,2.11664 0.38736,3.30256 1.05458,2.635358 0.66721,-0.667222 0.73853,-2.399029 0.15843,-3.848466 z m 6.65995,1.26188 c 0,-1.721687 -0.90354,-2.571908 -2.00789,-1.889385 -1.10434,0.682522 -2.00789,2.091178 -2.00789,3.130343 0,1.039164 0.90355,1.889385 2.00789,1.889385 1.10435,0 2.00789,-1.408656 2.00789,-3.130343 z m 15.56116,-4.277431 c -1.9326,-0.505025 -5.09502,-0.505025 -7.02762,0 -1.9326,0.505045 -0.35138,0.918269 3.51381,0.918269 3.86519,0 5.44642,-0.413224 3.51381,-0.918269 z m -378.775156,-66.324 c 5.499408,-53.954327 6.788621,-72.485021 4.912365,-70.608759 -0.917711,0.917711 -13.158288,116.873341 -13.158288,124.649161 0,2.36365 0.576157,3.721386 1.280349,3.017179 0.704192,-0.704189 3.838704,-26.3801011 6.965574,-57.057581 z m 16.001224,44.080879 17.219542,-8.364635 3.58751,-36.705701 3.58752,-36.705701 -15.78731,-14.914046 -15.787336,-14.914044 -0.657316,5.87301 C 83.753908,-45.352539 76.835352,30.301932 77.690501,29.809697 78.301164,29.458176 86.549583,25.406491 96.020328,20.80593 Z m 41.812402,-39.457327 c 1.30844,-14.446643 2.86425,-28.75139 3.45735,-31.788326 0.99248,-5.081853 0.57532,-5.521702 -5.23683,-5.521702 -3.47336,0 -8.06291,-0.935342 -10.199,-2.078537 -3.16273,-1.69264 -3.89119,-1.413056 -3.92369,1.505919 -0.0219,1.971451 -1.35933,15.782397 -2.97192,30.690991 -4.38453,40.535134 -4.89691,37.840382 6.74164,35.4562514 l 9.75349,-1.9979727 z m 18.2719,16.1449433 c 0,-0.4169383 -1.58121,-1.9981558 -3.51382,-3.5137998 -3.18462,-2.497559 -3.25564,-2.426539 -0.75808,0.7580891 2.62305,3.3446451 4.2719,4.40828524 4.2719,2.7557107 z m 48.1894,-1.9425393 c 0,-0.381011 -2.033,-2.4140015 -4.51776,-4.5177555 l -4.51776,-3.8250085 3.82501,4.5177555 c 3.59458,4.2455762 5.21051,5.431828 5.21051,3.8250085 z m -62.24464,-57.441629 c 0,-5.732801 -4.26591,-14.149717 -7.17143,-14.149717 -1.38108,0 -4.85025,2.779977 -7.70927,6.177729 -2.85902,3.397752 -5.19822,5.115594 -5.19822,3.817424 0,-1.298168 2.70713,-4.889146 6.01584,-7.979949 l 6.01586,-5.619642 -15.59328,-14.057133 c -15.13355,-13.64269 -15.75083,-13.97458 -20.937162,-11.25719 -9.580305,5.01963 -9.172499,10.127533 1.703689,21.339328 16.968583,17.49219 28.427053,25.650456 36.026663,25.650456 5.45372,0 6.84731,-0.798075 6.84731,-3.921306 z m 39.97521,-2.019642 c 14.41722,-2.251464 25.61455,-4.992296 26.57382,-6.504622 2.42275,-3.819622 2.08247,-11.649128 -0.50629,-11.649128 -1.37131,0 -1.74196,1.926767 -0.9657,5.019728 1.85295,7.38267 -0.31562,6.108732 -3.80097,-2.232931 -2.78784,-6.67223 -3.55329,-7.16241 -9.56444,-6.12494 -3.59374,0.620247 -17.18726,2.685547 -30.20781,4.589555 -19.95474,2.918003 -23.47645,3.959045 -22.41795,6.626912 0.69068,1.740794 1.75185,6.11983 2.35818,9.731192 1.02078,6.079925 1.56566,6.487224 7.35877,5.500677 3.441,-0.585991 17.46858,-2.816392 31.17239,-4.956443 z m -42.98706,-22.169533 c -3.39891,-3.547713 -7.83434,-6.023675 -10.79077,-6.023675 h -5.01972 l 5.77104,6.023675 c 3.39893,3.547713 7.83435,6.023674 10.79078,6.023674 h 5.01973 z m 27.71618,0.03364 c 0.88749,-0.799536 0.005,-4.826915 -1.96101,-8.949725 l -3.57461,-7.496028 -11.09027,1.49069 c -6.09965,0.81988 -13.27399,1.57607 -15.94297,1.68042 -2.66897,0.10435 -5.26064,1.41397 -5.75926,2.91028 -0.6674,2.002846 0.28187,2.343383 3.59822,1.290818 2.80421,-0.890018 4.03922,-0.676458 3.2715,0.565727 -0.67831,1.097526 0.26196,3.227316 2.0895,4.732872 2.99387,2.466404 3.19916,2.141097 2.07385,-3.286302 -1.01647,-4.902445 -0.50745,-4.443845 2.73466,2.463794 l 3.98361,8.487465 9.4816,-1.218153 c 5.21488,-0.669984 10.20771,-1.872319 11.09518,-2.671858 z m 25.49295,-1.37064 c 4.72108,-1.008659 4.07995,-1.937269 -10.77563,-15.607663 -12.68574,-11.67365 -16.76716,-14.34941 -20.73166,-13.59154 -4.93003,0.94243 -4.92653,0.95386 2.74406,8.96329 4.90639,5.12314 6.77386,8.35206 5.17051,8.93994 -3.49106,1.28005 -3.15339,3.24175 1.59772,9.281804 4.21225,5.354998 5.71431,5.492547 21.995,2.014169 z m 20.79327,0.36369 c 0.66611,-1.73586 -0.45138,-3.83503 -2.67516,-5.025158 -4.3675,-2.337418 -6.71141,-0.01526 -4.85851,4.813335 1.54346,4.022159 6.02317,4.148116 7.53367,0.211823 z m 21.99187,-24.442173 c 12.34026,-12.84364 16.90598,-18.85834 15.14256,-19.94821 -1.68162,-1.03928 -8.42249,4.75567 -20.18673,17.35404 -9.71413,10.40288 -17.66205,19.671713 -17.66205,20.597391 0,4.083762 6.23378,-0.858855 22.70622,-18.003221 z m -109.04555,15.78353 c 0,-0.88022 -3.51028,-5.02808 -7.80061,-9.21749 -9.96766,-9.73315 -13.77131,-6.03659 -4.07858,3.96375 6.21035,6.407472 11.87919,8.914589 11.87919,5.25374 z m 82.32354,-1.19966 c 0,2.362731 33.91411,-31.39453 36.52277,-36.35383 1.16178,-2.20869 -2.47356,0.95375 -8.07855,7.02762 -5.60499,6.07387 -10.23191,10.05718 -10.28205,8.8518 -0.0502,-1.20537 5.59051,-7.6474 12.53477,-14.3156 l 12.62587,-12.12401 -16.75013,-1.3591 c -13.96983,-1.13351 -17.97757,-0.757 -24.14477,2.26825 -15.36534,7.5373 -20.20708,23.33641 -12.41458,40.51003 3.35849,7.401666 4.44956,8.382798 6.98351,6.2798 1.65173,-1.37083 3.00316,-1.72405 3.00316,-0.78496 z m 7.94766,-9.74927 c 8.32062,-8.86523 10.12337,-10.4593 10.12337,-8.9516 0,0.32224 -4.29187,4.61411 -9.53749,9.53748 l -9.53748,8.9516 z m -123.266591,3.23294 c 7.528471,-7.98249 7.945701,-8.75464 4.73044,-8.75464 -2.810179,0 -13.900786,11.0906 -13.900786,13.90078 0,3.600429 1.957071,2.50217 9.170346,-5.14614 z m 103.024701,0.65836 c -2.89885,-5.62811 -9.98692,-13.42879 -12.20203,-13.42879 -0.9402,0 -0.30772,2.71066 1.40551,6.02368 1.71323,3.31302 2.52935,6.02367 1.81361,6.02367 -3.29635,0 3.45529,5.18787 7.10992,5.46317 3.62683,0.2732 3.85734,-0.22913 1.87299,-4.08173 z m -67.53493,-0.34073 c 0.26798,-2.70544 -14.2637,-14.03539 -15.9013,-12.39779 -0.75778,0.75778 1.68612,4.53893 5.4309,8.40256 6.49619,6.70236 10.06727,8.06499 10.4704,3.99523 z m 29.53148,-4.31828 c 0.49695,-0.47964 -2.28255,-4.05817 -6.17668,-7.9523 l -7.08023,-7.08024 -13.57651,2.36425 -13.57652,2.36425 7.28375,7.45924 7.28376,7.45924 12.46944,-1.87118 c 6.85819,-1.02916 12.87605,-2.26363 13.37299,-2.74326 z m 311.48865,0.0623 c 23.7323,-3.64341 24.0391,-3.89342 19.14705,-15.60177 l -2.7747,-6.64077 -28.34762,4.10291 -28.34764,4.10293 v 6.45391 c 0,3.54965 -0.60365,8.02698 -1.34143,9.94962 -1.52712,3.97964 1.41281,3.81262 41.66434,-2.36682 z m -285.28566,-0.68194 c 0,-2.36903 -3.9161,-4.90326 -5.35438,-3.46499 -1.43827,1.43828 1.09595,5.35438 3.46499,5.35438 1.03916,0 1.88939,-0.85022 1.88939,-1.88939 z m -77.31803,-4.11128 c 0.70343,-1.13819 -0.10253,-1.47482 -1.8894,-0.78913 -3.47851,1.33484 -4.11495,2.77402 -1.22673,2.77402 1.03917,0 2.44142,-0.89321 3.11613,-1.98489 z m 72.11548,-1.73509 c 1.92936,-3.12177 -3.58694,-8.40755 -6.71569,-6.43505 -2.38909,1.50619 -2.43294,2.35935 -0.25612,4.98226 2.9234,3.52249 5.37671,4.03371 6.97181,1.45279 z m 17.91611,-19.85305 c 3.40205,-6.44857 16.0483,-14.57691 22.67908,-14.57691 2.37443,0 1.01197,-2.13191 -4.43776,-6.94403 -9.18964,-8.11447 -16.43249,-8.96839 -25.98636,-3.06378 -7.59556,4.69431 -13.00008,14.78901 -13.00008,24.28185 0,4.96017 1.90445,8.5937 7.52959,14.36573 l 7.52959,7.72624 1.1268,-7.64158 c 0.61975,-4.20286 2.67136,-10.56924 4.55914,-14.14752 z m 301.07677,14.33317 c -0.39593,-5.15461 -4.97208,-10.83905 -8.72575,-10.83905 -0.75642,0 0.0875,4.06809 1.87555,9.04022 3.56337,9.90931 7.55366,10.95714 6.8502,1.79883 z m -336.76459,-0.61109 c -0.61844,-1.00067 -2.93064,-1.34707 -5.13822,-0.76977 -5.52482,1.44477 -5.02782,2.58915 1.12445,2.58915 2.82601,0 4.63222,-0.81872 4.01377,-1.81938 z m 10.96718,-3.24886 c 4.13764,-4.98555 0.23423,-6.13811 -4.55802,-1.34586 -3.5412,3.54119 -3.77561,4.40621 -1.19404,4.40621 1.76671,0 4.35513,-1.37716 5.75206,-3.06035 z m 271.87833,-2.71949 c 0.63108,-1.02112 6.57036,-2.48599 13.19839,-3.25525 6.62802,-0.76926 12.05095,-1.74343 12.05095,-2.16483 0,-0.42139 -1.46877,-4.437 -3.26395,-8.92359 l -3.26394,-8.15741 -9.28539,1.23905 c -14.76639,1.97045 -14.87119,2.05192 -11.36348,8.83507 4.85217,9.38304 3.64962,11.08477 -3.8116,5.39382 -3.7915,-2.89193 -7.2961,-5.25805 -7.78797,-5.25805 -0.49187,0 -2.01889,2.71501 -3.39339,6.03333 l -2.49909,6.03332 -13.99812,-13.20511 c -7.69897,-7.26282 -14.59008,-12.59083 -15.31356,-11.84003 -0.7235,0.7508 4.88382,7.00441 12.46069,13.8969 13.02983,11.85293 14.35436,12.5507 24.44958,12.88059 5.87039,0.19183 11.18978,-0.48669 11.82088,-1.50781 z m -15.88233,-12.34941 c 1.95093,-3.7727 4.06565,-5.42347 5.99785,-4.68201 1.64147,0.62989 2.55921,1.83336 2.03943,2.67439 -0.51979,0.84103 0.96432,3.23113 3.29806,5.31131 l 4.24311,3.78215 -3.33809,-6.52564 c -1.83594,-3.58911 -4.27933,-6.52564 -5.42973,-6.52564 -1.21196,0 -1.52805,-1.77568 -0.75159,-4.2221 3.0297,-9.54575 1.47728,-18.6125 -3.99243,-23.31736 -7.09972,-6.10692 -12.36313,-5.79427 -30.48004,1.81054 -11.76,4.93642 -14.3861,6.72984 -11.49955,7.85328 2.05744,0.80075 10.45033,8.26798 18.65086,16.59383 8.20053,8.32586 15.66125,14.67366 16.57938,14.10621 0.91815,-0.56744 3.02537,-3.65397 4.68274,-6.85896 z m 50.03105,1.06218 c -4.95154,-6.49183 -10.90727,-9.38061 -10.90727,-5.29052 0,3.75836 8.54388,12.31814 12.29527,12.31814 3.69333,0 3.59589,-0.49342 -1.388,-7.02762 z m -219.93738,3.18373 c 3.24921,-2.05739 1.56258,-8.21813 -2.23746,-8.17272 -1.82648,0.0218 -1.69915,0.65484 0.43896,2.18207 2.44623,1.74732 2.20349,1.97586 -1.29248,1.21699 -3.90946,-0.84862 -4.57405,0.56232 -2.87692,6.10768 0.31743,1.03719 3.26288,0.3788 5.9679,-1.33402 z m 218.06562,-12.21925 c -7.67115,-7.73038 -14.85108,-14.05524 -15.95543,-14.05524 -1.10435,0 4.2685,6.32486 11.93965,14.05524 7.67114,7.73039 14.85109,14.05524 15.95543,14.05524 1.10434,0 -4.2685,-6.32485 -11.93965,-14.05524 z m -147.85014,6.86013 c 23.457,-4.02935 53.23092,-12.13887 54.096,-14.73413 0.42255,-1.26764 2.44888,-1.28221 5.71335,-0.041 3.82112,1.45278 4.85018,1.30538 4.20675,-0.60255 -0.4685,-1.38919 -3.22287,-2.56712 -6.12083,-2.61764 -2.89795,-0.0505 -5.90535,-0.72818 -6.68309,-1.50592 -0.77776,-0.77774 -2.39292,-1.40024 -3.5893,-1.38332 -1.22314,0.0173 -1.03313,0.75519 0.43408,1.68587 3.32678,2.11023 -26.339,11.15708 -31.85524,9.71455 -2.38244,-0.62303 -3.38916,-0.20716 -2.59787,1.07318 0.82916,1.34163 -0.92989,1.7643 -4.91092,1.18002 -3.71344,-0.54502 -5.71907,-0.12766 -4.99746,1.03998 0.75577,1.22284 -2.09246,1.45118 -7.63563,0.61213 -6.65494,-1.00734 -8.0963,-0.794 -5.82919,0.86276 2.26093,1.65223 0.25846,1.92243 -8.03156,1.08371 -7.42523,-0.75122 -10.05663,-0.4863 -8.03157,0.80859 2.02915,1.29751 -4.03077,1.93591 -18.573,1.95662 -20.10421,0.0286 -23.8875,0.96253 -20.07892,4.95642 2.15114,2.25578 42.40848,-0.2971 64.4844,-4.08922 z m 3.28195,-11.83812 c 20.6858,-4.25685 40.19402,-9.96389 59.92726,-17.53144 l 15.75366,-6.04141 -7.72209,-8.31336 -7.72209,-8.31335 8.16294,7.57521 c 7.53574,6.99316 8.75322,7.45257 15.84519,5.97907 l 7.68224,-1.59613 -7.38151,-6.48105 c -9.58091,-8.41216 -15.85987,-8.34027 -37.43031,0.4285 -43.73764,17.78014 -76.61903,23.97921 -127.89831,24.11243 l -38.61729,0.10037 6.92321,6.92436 c 6.84641,6.84754 7.16352,6.93666 28.57784,8.03157 27.71505,1.41706 63.40018,-0.65632 83.89926,-4.87474 z m 125.39874,-0.95824 c 1.79139,-0.0537 -0.0211,-3.09673 -4.69616,-7.88438 -9.88806,-10.12631 -14.60644,-9.28862 -14.78655,2.6252 l -0.12971,8.58028 8.34753,-1.61683 c 4.59114,-0.88926 9.66035,-1.65617 11.26489,-1.70427 z m -220.17399,-17.15459 c 7.03187,-3.86519 13.61371,-6.98416 14.62634,-6.93104 1.01263,0.0531 -3.35427,2.77825 -9.70423,6.05586 -6.34996,3.2776 -11.54538,6.49546 -11.54538,7.15078 0,3.94784 91.68313,-3.92248 96.00168,-8.24103 1.81106,-1.81108 -5.84001,-1.14716 -33.24566,2.88487 l -26.59517,3.91279 -7.53899,-6.92428 c -10.05077,-9.23124 -18.10039,-9.26372 -32.58407,-0.13149 -8.64893,5.45331 -10.03203,7.00875 -6.93458,7.79864 2.12805,0.54268 4.06396,1.09151 4.30203,1.21962 0.23806,0.12809 6.1862,-2.92952 13.21803,-6.79471 z m -16.61968,-0.26682 c 4.39369,-2.9076 7.98852,-5.95708 7.98852,-6.77664 0,-0.81954 2.93655,-2.17298 6.52565,-3.00765 4.39822,-1.02282 5.38981,-1.80536 3.04158,-2.40037 -3.95278,-1.00158 -21.81244,8.12732 -26.90136,13.75051 -4.94067,5.45939 -0.0259,4.63593 9.34561,-1.56585 z m 45.14565,-2.7327 c -4.86175,-5.37217 -1.48512,-5.16967 4.29173,0.25738 4.4233,4.15549 5.14428,4.20838 23.76698,1.74357 10.56294,-1.39806 19.60906,-3.19518 20.10251,-3.99362 0.49346,-0.79843 -1.12671,-3.35305 -3.60036,-5.67695 -4.3641,-4.09984 -4.98296,-4.1405 -20.85251,-1.37006 -8.99521,1.57036 -19.59318,3.07329 -23.55102,3.33983 -3.95785,0.26655 -7.1961,0.91939 -7.1961,1.45075 0,0.53137 1.96126,3.05379 4.35835,5.60537 5.28784,5.62865 7.8352,4.3397 2.68042,-1.35627 z m 79.38359,-3.368 c 6.63835,-1.84564 11.75308,-4.3304 11.36605,-5.52171 -0.38701,-1.19131 -5.93664,-4.26402 -12.33253,-6.82827 -10.48529,-4.20378 -12.60389,-4.42834 -21.54421,-2.2836 -5.45345,1.30827 -10.46895,1.82507 -11.14556,1.14846 -0.67662,-0.67662 0.67415,-1.23022 3.00172,-1.23022 2.32754,0 4.8713,-1.03456 5.65279,-2.29901 1.00497,-1.6261 -0.28269,-1.91473 -4.39927,-0.98612 -19.12709,4.31467 -50.86273,9.30881 -59.15353,9.30881 -5.32298,0 -10.28796,0.98668 -11.03327,2.19262 -1.53491,2.48354 14.49122,1.30094 44.17591,-3.25985 16.71233,-2.56769 19.00367,-2.47935 33.00426,1.27253 14.53766,3.89581 23.72438,7.63934 19.05601,7.7652 -1.24555,0.0336 -5.31154,-1.19317 -9.03551,-2.72613 -3.72396,-1.53296 -10.83683,-3.44307 -15.80636,-4.24471 l -9.03552,-1.4575 4.76561,5.13991 c 2.62108,2.82696 7.59062,5.49603 11.04341,5.93126 3.45279,0.43524 6.96909,0.93594 7.81402,1.11268 0.84493,0.17673 6.96763,-1.18872 13.60598,-3.03435 z m -14.13826,-19.9499 c 0,-0.43401 -1.86044,-0.78912 -4.13429,-0.78912 -2.27386,0 -3.60025,0.8641 -2.94752,1.9202 1.07143,1.73363 7.08181,0.77368 7.08181,-1.13108 z m 56.79524,439.94306 c 0.0161,-5.52169 0.40503,-7.54225 0.86654,-4.49014 0.46154,3.05212 0.44919,7.56988 -0.0273,10.03946 -0.47659,2.46958 -0.8542,-0.0275 -0.83914,-5.54932 z"
       id="path75"
       inkscape:connector-curvature="0" />
  </g>
</svg>
