<?xml version="1.0" encoding="UTF-8" standalone="no"?>
<!-- Created with Inkscape (http://www.inkscape.org/) -->

<svg
   xmlns:dc="http://purl.org/dc/elements/1.1/"
   xmlns:cc="http://creativecommons.org/ns#"
   xmlns:rdf="http://www.w3.org/1999/02/22-rdf-syntax-ns#"
   xmlns:svg="http://www.w3.org/2000/svg"
   xmlns="http://www.w3.org/2000/svg"
   xmlns:sodipodi="http://sodipodi.sourceforge.net/DTD/sodipodi-0.dtd"
   xmlns:inkscape="http://www.inkscape.org/namespaces/inkscape"
   width="500mm"
   height="500mm"
   viewBox="0 0 500 500"
   version="1.1"
   id="svg8"
   inkscape:version="0.92.4 5da689c313, 2019-01-14"
   sodipodi:docname="icon.svg">
  <defs
     id="defs2" />
  <sodipodi:namedview
     id="base"
     pagecolor="#ffffff"
     bordercolor="#666666"
     borderopacity="1.0"
     inkscape:pageopacity="0.0"
     inkscape:pageshadow="2"
     inkscape:zoom="0.35"
     inkscape:cx="947.14286"
     inkscape:cy="902.85714"
     inkscape:document-units="mm"
     inkscape:current-layer="layer1"
     showgrid="false"
     inkscape:window-width="1920"
     inkscape:window-height="1003"
     inkscape:window-x="0"
     inkscape:window-y="0"
     inkscape:window-maximized="1" />
  <metadata
     id="metadata5">
    <rdf:RDF>
      <cc:Work
         rdf:about="">
        <dc:format>image/svg+xml</dc:format>
        <dc:type
           rdf:resource="http://purl.org/dc/dcmitype/StillImage" />
        <dc:title></dc:title>
      </cc:Work>
    </rdf:RDF>
  </metadata>
  <g
     inkscape:label="Layer 1"
     inkscape:groupmode="layer"
     id="layer1"
     transform="translate(0,203)">
    <path
       style="fill:#000000;stroke-width:0.99936908"
       d="m 117.91075,295.69775 c -6.41217,-0.79771 -8.83783,-1.50278 -13.72776,-3.99031 -0.95444,-0.48553 -2.30359,-0.89278 -2.99811,-0.905 -0.69452,-0.0122 -2.387062,-0.90165 -3.761192,-1.97651 -1.37414,-1.07486 -3.66019,-1.96429 -5.08013,-1.97651 -1.41994,-0.0122 -2.88691,-0.32744 -3.25995,-0.70047 -0.37303,-0.37304 -2.80899,-1.41436 -5.41324,-2.31404 l -4.73501,-1.63581 -0.26177,-37.56306 -0.26176,-37.56308 15.90285,-0.72069 15.902862,-0.72067 0.585,-9.62051 c 0.68296,-11.23136 0.7677,-13.57493 4.61224,-127.546046 1.61309,-47.819806 3.39587,-99.312298 3.96175,-114.427755 0.56589,-15.115458 1.49174,-40.524417 2.05747,-56.464359 2.02716,-57.11772 3.07086,-74.74216 4.6014,-77.70191 5.18937,-10.03514 22.17507,-16.95715 51.33781,-20.92118 11.44991,-1.55636 79.38243,-2.20478 92.94132,-0.88713 6.32101,0.61428 16.21477,1.54653 21.98612,2.07167 5.77136,0.52514 15.88997,1.44676 22.48581,2.04803 16.3575,1.49114 35.20099,4.19805 47.96971,6.89096 2.74827,0.57961 9.49401,1.94594 14.99054,3.03629 13.20119,2.61874 16.62356,3.48122 19.12431,4.81958 3.58357,1.91787 8.2262,7.98482 9.37502,12.25119 0.60543,2.24841 1.54026,17.88194 2.07738,34.7412 0.53713,16.85926 1.41344,42.795533 1.94738,57.636163 0.53393,14.840631 1.40524,39.575016 1.93624,54.9653 0.531,15.3902834 1.42188,41.024101 1.97973,56.964037 1.44882,41.398894 2.82088,82.20871 3.96476,117.92555 0.54571,17.03924 1.49883,45.59621 2.11806,63.45994 0.61921,17.86372 1.19865,40.12466 1.28761,49.46876 0.17379,18.25362 -0.21264,20.07727 -5.70871,26.9404 -4.16849,5.20534 -10.8523,5.43038 -159.02544,5.35414 -72.55419,-0.0373 -135.06473,-0.4595 -138.9123,-0.93817 z m 45.94351,-3.20005 c -1.0842,-0.72878 -4.66957,-2.35449 -7.96748,-3.61269 -3.29792,-1.2582 -8.01994,-3.24259 -10.49338,-4.40978 -4.135,-1.95124 -6.49785,-2.14948 -29.34082,-2.46148 -20.320522,-0.27756 -24.763432,-0.0977 -24.403032,0.98783 0.34154,1.02875 5.36612,1.43955 22.345232,1.82687 21.44705,0.48925 27.48634,1.43412 25.8711,4.04762 -0.32739,0.52974 -7.29564,0.96266 -15.76806,0.97962 -12.37876,0.0248 -14.8124,0.2554 -13.18265,1.24921 1.82299,1.11165 12.46985,1.68759 46.44319,2.51232 7.31704,0.17763 8.19939,0.0256 6.4959,-1.11952 z m 50.49561,0.40241 c 2.30049,-0.66612 2.34008,-0.7709 0.49968,-1.32255 -1.09931,-0.32951 -6.4959,-1.55148 -11.99243,-2.71549 -5.49653,-1.16401 -11.79255,-2.53198 -13.99117,-3.03993 -2.19861,-0.50795 -6.69577,-1.42474 -9.99369,-2.03732 -3.29791,-0.61257 -7.79507,-1.49773 -9.99369,-1.96703 -2.19861,-0.46928 -6.69577,-1.33232 -9.99369,-1.91785 -3.29792,-0.58553 -9.7773,-1.74391 -14.39862,-2.57416 -4.62131,-0.83026 -8.60136,-1.31059 -8.84454,-1.06741 -0.85388,0.85387 0.89373,2.57387 2.61521,2.57387 0.95693,0 2.16711,0.38082 2.68928,0.84626 0.96369,0.85902 9.26974,4.17359 26.43331,10.54833 l 9.49401,3.5262 17.48895,-0.0648 c 9.61893,-0.0356 18.61325,-0.39029 19.98739,-0.78817 z m 75.49267,-45.95634 0.0403,-44.38059 7.07776,-6.62996 c 8.43865,-7.90475 16.44533,-12.38572 26.91613,-15.0637 9.32277,-2.38436 15.60978,-2.491 23.6733,-0.40152 11.4133,2.95748 21.51418,9.84033 27.54982,18.77275 l 2.79681,4.13912 1.18836,27.98234 c 0.65359,15.39028 1.18591,32.92921 1.18292,38.97539 -0.003,6.04618 0.27815,13.35407 0.62476,16.23975 l 0.63021,5.24668 h 14.29266 c 8.00919,0 14.5522,-0.4199 14.88299,-0.95513 0.32466,-0.52533 0.12419,-15.25353 -0.4455,-32.72934 -0.5697,-17.47581 -1.49898,-45.94026 -2.0651,-63.25433 -0.5661,-17.31407 -1.459,-44.74675 -1.98419,-60.96151 -0.9101,-28.09734 -1.77631,-53.637886 -4.01643,-118.425233 -0.55114,-15.93993689 -1.42808,-41.348896 -1.94873,-56.464353 -2.06623,-59.985874 -3.17922,-91.197244 -3.82608,-107.294144 l -0.67715,-16.85125 -78.45047,-0.13803 -78.45047,-0.13803 -0.27309,226.357104 c -0.15019,124.496396 -0.0273,227.376646 0.27318,228.622776 l 0.54626,2.26569 25.21074,-0.26695 25.21073,-0.26695 0.0403,-44.38058 z M 235.8363,62.968514 V -164.38795 h -46.47066 -46.47066 l -0.6766,30.48076 c -0.37212,16.76441 -1.1557,50.71798 -1.74127,75.452365 -3.01579,127.386659 -3.85451,163.796695 -5.98548,259.835955 -0.53663,24.18473 -1.29374,49.23537 -1.6825,55.66808 l -0.7068,11.69582 2.39822,0.9661 c 1.31901,0.53137 5.32137,1.48189 8.89411,2.11229 3.57275,0.63039 8.29476,1.52931 10.49338,1.99758 2.19861,0.46827 6.69577,1.37418 9.99369,2.01313 6.2566,1.21216 11.23892,2.26557 19.23785,4.06743 2.61085,0.58812 6.54587,1.46404 8.74448,1.94646 5.7819,1.2687 21.63841,4.77358 31.48013,6.95829 4.67205,1.03711 9.39407,1.80309 10.49337,1.70217 1.99235,-0.18291 1.99874,-0.91091 1.99874,-227.539966 z M 376.65287,271.58681 c -0.27194,-10.58082 -0.92407,-28.40517 -1.44918,-39.60965 -0.52513,-11.20449 -0.95477,-22.15175 -0.95477,-24.32723 0,-3.52037 -0.68702,-4.64157 -6.24606,-10.19346 -4.09407,-4.0888 -8.65627,-7.40535 -13.24164,-9.62619 -6.67826,-3.2345 -7.49423,-3.3863 -17.98864,-3.34679 -9.3982,0.0354 -11.95338,0.41705 -17.61227,2.63074 -8.23621,3.22189 -13.82443,6.7155 -20.03698,12.52661 l -4.82394,4.51222 v 43.3358 43.33581 h 41.42395 41.42395 z m 40.22178,12.49211 c 2.50072,-6.02785 2.49232,-7.30142 -0.6579,-99.68706 -1.19781,-35.12798 -2.66806,-79.16121 -3.95411,-118.423936 -1.00066,-30.550102 -2.00062,-59.9506819 -4.04486,-118.926219 -0.54298,-15.66511 -1.46214,-42.648075 -2.04258,-59.962145 -0.58042,-17.31407 -1.36797,-35.97729 -1.75011,-41.47382 -0.6819,-9.80841 -0.7411,-9.99369 -3.19321,-9.99369 -1.89867,0 -2.45053,0.4798 -2.29894,1.99874 0.10972,1.0993 0.69578,17.51394 1.30237,36.47697 1.16977,36.569145 2.33495,71.10916 3.99494,118.4252384 0.98192,27.9885596 1.85685,53.4723156 4.01442,116.9261816 0.56067,16.48959 1.46444,43.02284 2.00836,58.96277 0.54393,15.93994 1.41206,42.47319 1.92919,58.96278 1.25579,40.04311 2.21908,59.46246 2.94962,59.46246 0.33146,0 1.11573,-1.23672 1.74281,-2.74827 z m -304.46043,-5.84194 c 0,-0.32739 -0.98468,-1.97811 -2.18818,-3.66827 l -2.18819,-3.07302 1.20831,-26.56264 c 0.66457,-14.60946 1.19954,-28.71082 1.18882,-31.33636 l -0.0195,-4.77373 -14.740692,0.27657 -14.74069,0.27656 -0.26362,33.47175 c -0.14499,18.40947 -0.0467,34.03711 0.21848,34.72808 0.35849,0.93422 4.4615,1.25632 16.00368,1.25632 8.536872,0 15.521582,-0.26786 15.521582,-0.59526 z m 15.49022,-0.40411 c -0.3397,-0.54966 -1.04082,-0.99937 -1.55804,-0.99937 -0.51721,0 -0.94038,0.44971 -0.94038,0.99937 0,0.54965 0.70112,0.99937 1.55803,0.99937 0.85692,0 1.2801,-0.44972 0.94039,-0.99937 z m -10.49337,-3.88092 c 0,-1.15394 -3.85452,-2.15574 -4.469,-1.1615 -0.26043,0.42138 -0.18593,1.05375 0.16556,1.40523 0.9587,0.95869 4.30344,0.76926 4.30344,-0.24373 z m 9.54904,-6.20183 c 0.36997,-0.59863 1.07566,-22.07257 1.56819,-47.71987 0.49252,-25.6473 1.32917,-65.06981 1.8592,-87.60558 0.53005,-22.53578 1.41102,-60.311926 1.95774,-83.947006 0.54671,-23.635076 1.46304,-62.760376 2.03629,-86.945107 2.15443,-90.893127 2.80757,-125.942857 2.36045,-126.670037 -0.25347,-0.41224 -2.20288,-0.74952 -4.33201,-0.74952 -2.8329,0 -4.00329,0.46906 -4.36379,1.74889 -0.27096,0.96189 -0.76554,10.74322 -1.09908,21.73628 -0.33354,10.99306 -1.04258,32.12972 -1.57562,46.970349 -0.53305,14.840631 -1.41581,40.024732 -1.96169,55.964669 -1.61892,47.2736541 -5.21815,149.614052 -7.02939,199.873812 -0.53483,14.84063 -1.41156,39.57502 -1.94831,54.9653 -0.53675,15.39028 -1.27761,33.71621 -1.64634,40.72429 l -0.67044,12.74196 h 7.08606 c 4.03255,0 7.37593,-0.46903 7.75874,-1.08843 z m 106.27686,-436.58355 c 2.45785,-0.65733 2.59933,-1.04483 2.59933,-7.11917 v -6.42399 l -44.95608,0.33567 c -24.72584,0.18462 -45.25517,0.52052 -45.62072,0.74645 -1.07719,0.66574 -3.11876,10.30455 -2.51553,11.87653 0.39111,1.0192 2.69465,1.56054 7.84758,1.8442 10.82084,0.59567 79.62953,-0.45312 82.64542,-1.25969 z m 94.26524,-0.87494 c 1.48459,-1.48459 -1.69773,-9.68899 -4.52677,-11.67053 -1.81338,-1.27014 -8.25121,-1.49738 -42.42126,-1.49738 -45.29236,0 -41.34798,-0.78372 -41.58358,8.26233 l -0.13619,5.22915 41.47382,0.49969 c 47.5524,0.57292 45.76665,0.60407 47.19398,-0.82326 z m 43.10742,0.95822 24.84272,-0.13496 -0.67447,-2.68731 c -0.37096,-1.47802 -1.57946,-3.95824 -2.68556,-5.51161 -3.99173,-5.60587 -5.16135,-5.79225 -36.34945,-5.79225 h -28.59899 l 0.67936,2.24858 c 0.37364,1.23672 1.07852,2.67581 1.56639,3.19798 0.48788,0.52217 0.88705,2.17649 0.88705,3.67625 0,4.33511 1.95747,5.47327 9.10879,5.29625 3.50978,-0.0869 17.56065,-0.2187 31.22416,-0.29293 z m 32.92224,0.11488 c 0.82908,-1.48236 -2.26161,-7.03546 -5.37275,-9.6533 -1.74593,-1.46912 -3.3395,-2.50605 -3.54125,-2.30429 -0.20175,0.20175 0.86035,3.14339 2.36022,6.53697 1.80388,4.08144 3.30378,6.17015 4.4308,6.17015 0.93708,0 1.89242,-0.33729 2.12298,-0.74953 z m -265.67149,-5.24669 c 0.64407,-2.47344 1.51732,-5.53679 1.94054,-6.80745 0.73411,-2.20404 0.57032,-2.29596 -3.56132,-1.99874 -3.83117,0.27561 -4.52745,0.7151 -6.03515,3.80935 -1.78312,3.65951 -2.30438,8.15715 -1.08652,9.375 0.3926,0.3926 2.25677,0.57998 4.14261,0.41641 3.14781,-0.27303 3.52476,-0.66595 4.59984,-4.79457 z m 104.41181,-14.76959 c 2.44043,-1.80226 7.61216,-4.20078 11.49274,-5.33003 10.57467,-3.07726 10.36192,-2.97367 8.05497,-3.92226 -1.09931,-0.45202 -5.38341,-0.85347 -9.52022,-0.8921 -4.13682,-0.0386 -11.33228,-0.54992 -15.98991,-1.13618 -14.85829,-1.87025 -53.89197,1.52911 -71.42867,6.22056 -7.46369,1.9967 -17.48896,6.62497 -17.48896,8.07396 0,0.55425 18.03472,0.7905 45.22145,0.59241 l 45.22145,-0.32951 z m 68.31974,2.3864 c 0.23517,-1.06271 -0.48017,-1.47662 -10.72598,-6.20632 l -7.92493,-3.65832 -11.06308,0.65258 c -15.69714,0.92595 -34.54826,5.43194 -34.54826,8.25809 0,1.05346 6.12788,1.37315 30.7306,1.60319 16.90183,0.15804 31.3165,0.27697 32.03259,0.26429 0.7161,-0.0127 1.39068,-0.42376 1.49906,-0.91351 z m 52.88756,-0.78472 c -0.64652,-0.64652 -3.54719,-1.54166 -6.44593,-1.98919 -2.89874,-0.44754 -8.1936,-1.309 -11.76634,-1.91437 -19.21352,-3.25556 -42.75037,-4.9814 -41.55485,-3.04702 0.38427,0.62176 1.11059,1.13048 1.61403,1.13048 0.50345,0 3.73735,1.28296 7.18645,2.85102 3.4491,1.56805 6.94566,3.10656 7.77014,3.41889 0.82448,0.31233 11.14546,0.60338 22.93552,0.64678 16.43215,0.0605 21.16205,-0.19552 20.26098,-1.09659 z m -217.85587,-1.82262 c 1.18072,-1.1 1.58898,-1.99874 0.90796,-1.99874 -1.4293,0 -7.13439,2.81757 -7.13439,3.52345 0,1.29369 4.3427,0.23026 6.22643,-1.52471 z"
       id="path4034"
       inkscape:connector-curvature="0" />
  </g>
</svg>
