<?xml version="1.0" encoding="UTF-8" standalone="no"?>
<svg
   xmlns:dc="http://purl.org/dc/elements/1.1/"
   xmlns:cc="http://creativecommons.org/ns#"
   xmlns:rdf="http://www.w3.org/1999/02/22-rdf-syntax-ns#"
   xmlns:svg="http://www.w3.org/2000/svg"
   xmlns="http://www.w3.org/2000/svg"
   width="500mm"
   height="500mm"
   viewBox="0 0 500 500"
   version="1.1"
   id="svg8">
  <defs
     id="defs2" />
  <metadata
     id="metadata5">
    <rdf:RDF>
      <cc:Work
         rdf:about="">
        <dc:format>image/svg+xml</dc:format>
        <dc:type
           rdf:resource="http://purl.org/dc/dcmitype/StillImage" />
        <dc:title></dc:title>
      </cc:Work>
    </rdf:RDF>
  </metadata>
  <g
     id="layer1">
    <path
       style="fill:#000000;stroke-width:1.96798"
       d="m 168.6014,490.43543 c -5.31415,-8.90218 -5.4842,-8.99887 -13.77584,-7.8338 -4.6174,0.64878 -11.73415,2.43269 -15.815,3.96421 -4.08086,1.53154 -14.26514,2.7863 -22.63173,2.78838 -8.3666,0.002 -29.158621,1.79673 -46.204491,3.98811 -28.15469,3.61952 -31.52645,3.70822 -36.82399,0.96875 -3.9695,-2.05271 -6.49039,-5.36832 -7.89505,-10.38402 -2.99083,-10.67956 -10.26522,-182.05751 -7.79257,-183.58568 1.08191,-0.66866 18.09896,-2.30907 37.81567,-3.64536 42.20418,-2.86034 49.637121,-4.4276 59.480921,-12.54168 19.74456,-16.27514 19.49828,-47.82255 -0.47931,-61.39766 -4.03641,-2.74281 -6.27858,-4.98694 -4.98259,-4.98694 4.30152,0 16.83301,12.63929 20.47078,20.64687 7.31947,16.11186 3.64558,33.23225 -9.96516,46.43784 -11.6666,11.31932 -16.79031,12.63269 -61.609731,15.7924 -19.19589,1.35329 -35.93602,3.09983 -37.2003,3.8812 -1.74639,1.07932 -1.47812,21.44389 1.11655,84.75764 1.87838,45.83532 4.01698,86.79172 4.75244,91.01421 0.85285,4.8964 3.15705,9.03596 6.36137,11.42833 4.84584,3.61795 5.89269,3.64158 29.49589,0.66638 35.83725,-4.51733 39.361111,-5.17838 38.139791,-7.15452 -0.60967,-0.98647 -2.767731,-1.79357 -4.795681,-1.79357 -4.38254,0 -6.20511,-4.87684 -6.49125,-17.36934 -0.11588,-5.05908 -0.52426,-7.74365 -0.90751,-5.96572 -0.45689,2.11955 -2.01642,2.88755 -4.52918,2.23044 -3.16504,-0.82767 -3.83235,0.0196 -3.83235,4.86588 0,11.71426 -15.47296,23.67704 -27.07624,20.93374 -6.28051,-1.48486 -14.25126,-8.15508 -14.25126,-11.92596 0,-1.43491 -1.21769,-2.60892 -2.70597,-2.60892 -3.22318,0 -5.16594,-8.47464 -5.16594,-22.53469 0,-8.28474 0.90818,-11.08801 4.76651,-14.71272 3.94537,-3.70647 6.23382,-4.29187 13.28384,-3.39799 4.68453,0.59395 6.74616,0.58006 4.58138,-0.0309 -7.12231,-2.01003 -15.15936,-8.99869 -17.90462,-15.56903 -1.48472,-3.55342 -3.5985,-7.01641 -4.69729,-7.6955 -1.09879,-0.67905 -1.99779,-8.18928 -1.99779,-16.68936 v -15.45467 l 7.37991,-1.09599 c 4.05895,-0.60279 13.35764,-1.66939 20.66375,-2.37023 l 13.28384,-1.27422 v 6.06032 c 0,3.33318 1.84297,10.736 4.0955,16.45071 2.27931,5.78266 3.76363,13.23306 3.34714,16.80065 -0.74798,6.40698 0.57204,7.40661 6.33319,4.79597 2.04233,-0.92546 2.95197,-4.31925 2.95197,-11.01354 0,-6.50845 0.89495,-9.97419 2.7339,-10.58718 1.50365,-0.5012 2.22125,-0.0819 1.59467,0.93202 -0.62657,1.01382 1.04206,5.68353 3.70807,10.37713 2.66602,4.69361 4.444768,8.93635 3.952798,9.42834 -0.491978,0.49198 -3.117988,-3.39865 -5.835568,-8.64585 l -4.94107,-9.54035 1.13219,26.56767 c 1.2765,29.95423 4.37205,41.42759 4.51322,16.7278 0.058,-10.1408 0.72133,-14.74624 1.864,-12.94076 1.33483,2.1091 1.98517,1.37831 2.62696,-2.95196 0.762688,-5.14608 0.884138,-4.98865 1.147808,1.48802 0.240353,5.90391 1.113523,7.35931 4.722813,7.87191 4.09374,0.58139 4.50222,1.86788 5.41194,17.04444 0.86749,14.4721 1.56109,16.88218 5.85846,20.35678 6.42252,5.19288 17.08068,3.64719 23.16919,-3.36006 3.84003,-4.41948 4.42795,-7.30259 4.42795,-21.71418 0,-15.30607 0.31074,-16.61806 3.93595,-16.61806 3.3892,0 3.93595,-1.31199 3.93595,-9.44471 v -9.44471 l -7.37991,0.46464 c -7.30363,0.45984 -7.31337,0.45069 -0.94257,-0.88716 l 6.43734,-1.35181 -5.21769,-7.8719 c -2.86973,-4.32955 -6.65213,-9.08052 -8.40532,-10.5577 -2.5874,-2.18009 -2.63178,-2.52328 -0.23566,-1.82264 1.62358,0.47473 6.22502,5.6685 10.22543,11.54169 5.75277,8.44592 7.29571,12.60864 7.37991,19.91027 0.0585,5.07745 -0.62436,9.6834 -1.51757,10.23544 -0.89321,0.55204 -1.69174,9.3842 -1.77452,19.627 -0.0828,10.24282 -0.75071,21.35608 -1.4843,24.69613 -1.19343,5.43366 -0.85131,6.06967 3.25049,6.04271 10.55303,-0.0693 10.19603,3.94788 8.63662,-97.18706 -0.79443,-51.52207 -0.7028,-93.61255 0.2036,-93.5344 2.73791,0.23604 11.84457,12.31156 13.25007,17.56969 0.9311,3.48338 0.1865,2.86778 -2.55009,-2.10827 -2.12585,-3.86552 -5.34603,-8.25721 -7.15594,-9.75931 -3.06225,-2.54142 -3.23181,0.13304 -2.44197,38.51585 0.49389,24.00108 1.76186,43.304 3.03259,46.16685 l 2.18382,4.91994 0.12475,-5.28382 c 0.0686,-2.90611 -0.73893,-7.55545 -1.79453,-10.33187 -1.10799,-2.91422 -1.16585,-5.04806 -0.13688,-5.04806 0.98032,0 2.17424,-1.54978 2.65317,-3.44396 0.47893,-1.89417 0.57963,0.0984 0.22377,4.42795 -0.48038,5.84449 -0.19816,6.8582 1.09575,3.93595 1.42653,-3.22175 1.76786,-3.3321 1.88109,-0.60814 0.0761,1.83029 0.94132,3.82409 1.92276,4.43066 0.98145,0.60657 1.30376,-0.89094 0.71626,-3.32781 -0.84717,-3.51392 -0.55154,-3.94904 1.42883,-2.10298 1.37336,1.28023 1.92615,3.81534 1.22843,5.63359 -1.03008,2.68434 -1.81921,2.8489 -4.19726,0.8753 -2.49974,-2.0746 -2.92868,-1.40349 -2.92868,4.58215 0,3.857 -0.8869,7.56087 -1.97089,8.23081 -2.04755,1.26547 3.58529,10.64466 6.46225,10.76024 0.84667,0.034 2.42143,-1.93074 3.49947,-4.36611 l 1.96008,-4.42795 -0.83187,4.3385 c -0.72984,3.80638 0.23999,4.49923 7.9073,5.64902 4.80655,0.72079 9.28866,0.76104 9.96025,0.0895 0.67159,-0.67169 -1.51191,-1.22117 -4.85222,-1.22117 -6.06986,0 -6.07214,-0.004 -4.02681,-7.37991 2.99856,-10.81324 0.80122,-65.94164 -3.11802,-78.22704 -4.17264,-13.07974 -4.25411,-12.83762 4.19823,-12.47689 7.26597,0.31007 7.28116,0.32719 0.98399,1.10867 -3.51776,0.43654 -6.39593,1.64108 -6.39593,2.67673 0,1.11844 7.39145,1.57062 18.20378,1.11364 10.01208,-0.42318 13.78635,-0.38746 8.38726,0.0793 -5.39908,0.46682 -11.34769,2.23445 -13.21913,3.92808 -1.87143,1.69362 -5.13664,2.62585 -7.25603,2.07162 -2.92548,-0.76505 -3.57989,-0.232 -2.71754,2.21351 0.62473,1.77167 2.36751,4.66117 3.87283,6.42109 1.50532,1.75994 3.12217,6.63068 3.59299,10.82387 l 0.85603,7.62405 -2.07499,-8.54105 c -3.14241,-12.93476 -4.24605,-8.45588 -1.62507,6.59494 1.27139,7.30086 1.83745,19.13855 1.25791,26.30598 -0.57954,7.16743 -0.61301,11.41822 -0.0744,9.4462 0.94492,-3.45948 1.07096,-3.46019 3.58672,-0.0197 2.451,3.35192 2.74755,3.25823 4.94386,-1.56215 1.84565,-4.05079 1.70921,-8.80075 -0.64956,-22.61207 -2.99865,-17.55801 -2.61746,-27.2867 1.16065,-29.62168 2.89442,-1.78885 7.3667,5.08348 7.18299,11.03775 -0.16492,5.34565 -0.73588,4.42074 -2.66194,-4.31209 -0.6565,-2.97657 -2.0935,-5.41194 -3.19336,-5.41194 -1.22164,0 -1.04745,1.72287 0.44774,4.42795 3.31934,6.00541 3.25257,40.36112 -0.0901,46.41599 -1.39571,2.52807 -2.09485,5.03928 -1.55366,5.58047 2.34485,2.34487 5.43969,-8.37944 7.03684,-24.38412 l 1.72444,-17.28047 -0.004,13.77584 c -0.002,7.5767 0.61714,15.54701 1.37638,17.71178 1.1103,3.16565 0.96488,3.35823 -0.74301,0.98399 -1.16793,-1.62358 -2.13706,-2.0221 -2.15363,-0.88559 -0.0157,1.1365 1.07686,3.25942 2.42984,4.71759 2.00307,2.15879 1.85055,2.43773 -0.82112,1.50184 -1.9026,-0.66647 -3.73697,0.0386 -4.36619,1.67833 -0.71687,1.86816 0.22958,2.82771 2.78909,2.82771 2.13081,0 3.87403,-0.66419 3.87381,-1.47598 -2.2e-4,-0.81179 4.64913,-1.48071 10.33187,-1.48648 5.68275,-0.006 19.18817,-0.62274 30.01204,-1.37104 11.45429,-0.79188 6.01716,0.14996 -13.00852,2.25362 -17.97855,1.9878 -35.69034,4.15229 -39.35953,4.80999 -4.28166,0.76749 -5.31296,0.61598 -2.87918,-0.42301 3.18374,-1.35915 3.30253,-1.80668 0.74046,-2.78985 -2.93981,-1.1281 -5.47662,2.20734 -8.23144,10.82293 -1.00012,3.1278 0.23155,3.36703 13.10539,2.54554 l 14.20924,-0.90671 -13.64228,1.91285 c -20.35669,2.85432 -20.61877,5.12493 -0.85993,7.45015 l 12.53424,1.47502 -16.2667,1.52126 c -20.22877,1.89182 -20.04249,5.80965 0.20979,4.4124 l 14.08893,-0.97202 -14.04154,2.01525 c -12.86645,1.84661 -13.97631,2.37235 -13.26202,6.28243 0.42874,2.34693 -0.63248,0.5034 -2.35826,-4.09674 -2.27001,-6.0508 -4.23918,-8.3639 -7.12029,-8.3639 -2.83471,0 -3.63581,0.90348 -2.77957,3.13479 0.66161,1.72414 1.67053,5.4879 2.24205,8.3639 0.57152,2.87602 -0.56446,1.24396 -2.5244,-3.62678 -1.95994,-4.87075 -4.42389,-8.66329 -5.47546,-8.42788 -2.98326,0.66783 -4.50713,16.63678 -4.65411,48.77139 l -0.13502,29.51964 6.01976,9.58825 c 5.93718,9.45674 8.20484,9.94202 10.37155,2.2196 0.65916,-2.34931 0.84617,-1.75433 0.46392,1.47599 -0.72849,6.15634 2.73374,7.2278 6.93673,2.14668 2.05206,-2.48079 2.67708,-10.87277 2.60165,-34.93157 -0.096,-30.62754 2.1246,-30.36072 3.48638,0.4189 l 0.54886,12.40545 14.75982,-0.9488 14.75982,-0.9488 -15.25181,2.06185 c -12.60761,1.70441 -15.25182,2.67564 -15.25182,5.60218 0,1.94717 -0.51398,4.87971 -1.14217,6.51676 -0.84846,2.21106 0.5432,3.18357 5.41194,3.78195 l 6.5541,0.80554 -6.39592,0.31493 c -3.51776,0.17318 -6.39593,1.31372 -6.39593,2.53446 0,1.4538 2.54597,1.82939 7.37991,1.08868 4.05896,-0.62194 13.13625,-1.588 20.17176,-2.14678 9.12618,-0.72485 6.30644,0.10253 -9.83988,2.88729 -12.44745,2.14681 -25.2885,4.38623 -28.53566,4.9765 -5.34751,0.97208 -6.41102,0.22376 -11.28449,-7.94021 z M 65.549269,484.63838 c 12.52722,-5.2342 17.10101,-19.64829 8.99542,-28.34861 -7.68564,-8.24956 -20.03746,-8.03358 -28.57065,0.49963 -9.47829,9.47828 -7.79124,22.7375 3.51843,27.65277 8.05688,3.50159 8.1434,3.50265 16.0568,0.19621 z m 71.364971,0.653 c 6.93168,-2.63542 8.46426,-5.07419 8.50193,-13.52891 l 0.0301,-6.76412 -5.48313,5.25316 c -16.15678,15.47918 -33.85357,4.12167 -33.86904,-21.73657 -0.007,-10.98542 -0.42797,-12.29985 -3.94331,-12.29985 -3.153453,0 -3.935951,1.31199 -3.935951,6.59923 0,3.62958 -0.39111,12.26408 -0.86913,19.18777 -0.68224,9.8816 -0.5307,10.89582 0.70472,4.71663 1.501918,-7.51214 1.586618,-7.31424 1.853118,4.33016 0.213903,9.34619 1.085323,12.67154 3.723233,14.20798 4.55674,2.65405 26.3381,2.67664 33.28743,0.0344 z m -39.323001,-8.11779 c -0.62822,-1.56991 -1.09455,-1.1036 -1.18898,1.189 -0.0855,2.07456 0.37968,3.2369 1.03362,2.58296 0.65394,-0.65395 0.72386,-2.35133 0.15537,-3.77196 z M 45.663009,454.449 c 4.90913,-5.42185 15.06477,-7.53044 22.97986,-4.77122 l 5.95042,2.07432 -2.92745,-5.66106 c -1.6101,-3.11359 -4.92974,-6.33365 -7.37698,-7.15571 -6.4931,-2.18111 -19.098,-2.16421 -17.74574,0.0238 0.6431,1.04057 -0.2657,1.31752 -2.06174,0.62831 -3.11066,-1.19367 -5.50896,0.90714 -6.80804,5.96356 -2.15513,8.38848 -2.70136,14.67792 -1.5372,17.69962 1.23592,3.20794 1.49401,3.17285 3.44055,-0.46784 1.15742,-2.16478 3.89626,-5.91497 6.08632,-8.33377 z m 40.744,2.42984 c 0,-1.62358 -1.32838,-2.95196 -2.95196,-2.95196 -1.62358,0 -2.95197,1.32838 -2.95197,2.95196 0,1.62358 1.32839,2.95196 2.95197,2.95196 1.62358,0 2.95196,-1.32838 2.95196,-2.95196 z m -1.57438,-6.88792 c 2.98178,0 3.54236,-1.71286 3.54236,-10.82387 0,-10.27019 -0.25491,-10.82386 -4.98336,-10.82386 -3.10946,0 -5.51453,-1.41943 -6.39592,-3.77474 -1.34694,-3.59935 -1.67595,-3.54775 -7.08152,1.11069 -5.56246,4.79361 -5.59487,4.93728 -1.72553,7.64747 2.16889,1.51916 4.98713,6.90699 6.26276,11.97297 1.74587,6.93348 2.87805,8.65213 4.57909,6.95111 1.24287,-1.24287 3.85382,-2.25977 5.80212,-2.25977 z m -14.01805,-27.40029 c 9.54997,-9.54995 7.28805,-23.37894 -4.73428,-28.94457 -6.0201,-2.78695 -6.04579,-2.84869 -0.72587,-1.74444 5.00912,1.03974 5.32411,0.7879 3.43338,-2.74497 -2.88565,-5.39186 -5.55852,-6.72637 -16.20897,-8.09269 -5.84948,-0.75041 -8.80654,-0.47519 -8.0498,0.74925 0.69515,1.12477 -0.14909,1.41918 -2.01564,0.70292 -1.76647,-0.67785 -3.81976,-0.24873 -4.56285,0.95362 -0.8977,1.4525 -0.42354,1.62708 1.41296,0.52027 2.35407,-1.41875 2.36343,-1.17195 0.0631,1.66391 -3.15223,3.88608 -5.05682,4.43761 -3.00362,0.86976 0.77861,-1.35298 0.65267,-1.76517 -0.27985,-0.91599 -2.49502,2.27207 -3.55082,21.08775 -1.18328,21.08775 1.09038,0 2.5076,-1.65438 3.14936,-3.67642 0.64177,-2.02201 2.79339,-5.1484 4.78139,-6.9475 3.81955,-3.45665 16.73402,-7.95675 15.05967,-5.24759 -0.53955,0.87301 -3.65569,2.12224 -6.92475,2.77605 -6.92183,1.38437 -13.79927,11.13532 -13.81056,19.58083 -0.0197,14.72896 22.08884,20.92061 33.59962,9.40981 z m 13.62445,-0.0896 c 0,-2.63518 -0.94406,-3.51191 -2.95196,-2.74141 -1.62358,0.62304 -2.95196,2.36642 -2.95196,3.8742 0,1.50776 1.32838,2.74141 2.95196,2.74141 1.62429,0 2.95196,-1.74245 2.95196,-3.8742 z m -49.1994,-41.5054 c 0,-1.01851 -0.88559,-1.85183 -1.96798,-1.85183 -1.08239,0 -1.96798,1.38066 -1.96798,3.06812 0,1.68746 0.88559,2.52078 1.96798,1.85182 1.08239,-0.66895 1.96798,-2.0496 1.96798,-3.06811 z m 33.45559,-2.83581 c 0,-1.62358 -1.43682,-2.95197 -3.19293,-2.95197 -2.61503,0 -2.74951,0.53429 -0.74302,2.95197 1.34745,1.62358 2.78427,2.95196 3.19293,2.95196 0.40866,0 0.74302,-1.32838 0.74302,-2.95196 z M 235.50417,487.95857 c 2.44798,-0.47072 5.99034,-0.45285 7.8719,0.0398 1.88156,0.49256 -0.12142,0.87771 -4.45089,0.85587 -4.32955,-0.0218 -5.869,-0.42487 -3.42101,-0.89559 z m -14.29078,-3.51952 c 9.74148,-1.49913 23.46812,-3.17232 30.50363,-3.7182 10.59679,-0.82222 9.75253,-0.5248 -4.91994,1.73314 -9.74148,1.49912 -23.46811,3.17232 -30.50363,3.71819 -10.59678,0.82222 -9.75252,0.5248 4.91994,-1.73313 z m 34.43959,0.875 c 4.87074,-0.86668 11.51266,-1.53058 14.75982,-1.47534 4.35482,0.0742 3.58024,0.51392 -2.95197,1.67623 -4.87074,0.86668 -11.51266,1.53057 -14.75982,1.47533 -4.35481,-0.0742 -3.58024,-0.51392 2.95197,-1.67622 z m -75.05111,-11.21542 c -0.1474,-6.22372 -0.66518,-9.10189 -1.15062,-6.39592 -1.22997,6.85607 -4.19573,9.54025 -6.50509,5.88747 -2.76605,-4.37512 -2.30298,-7.16805 0.54381,-3.2799 2.21519,3.02552 2.48813,2.86844 2.74296,-1.57881 0.15565,-2.71626 -0.40072,-4.51611 -1.23637,-3.99964 -2.05031,1.26716 -3.89168,-8.69963 -4.31408,-23.3508 l -0.34752,-12.05386 -1.27294,13.77584 -1.27294,13.77583 -0.31738,-12.79185 c -0.17456,-7.03551 0.45563,-14.01228 1.40043,-15.50395 2.76181,-4.36034 6.55745,-0.43555 5.20951,5.38677 -0.8324,3.59547 -0.63335,4.34076 0.64585,2.41825 1.45581,-2.18796 2.072,-1.76941 2.89728,1.96797 0.57652,2.61084 0.71144,-1.00935 0.29983,-8.04487 -0.6867,-11.7374 -0.58539,-12.14296 1.22904,-4.91994 1.08758,4.32955 1.50727,12.29985 0.93264,17.71179 -0.70594,6.64863 -0.47403,8.56337 0.71507,5.90393 1.18485,-2.64994 1.80506,2.65489 1.89818,16.2358 0.0761,11.09446 -0.30447,20.17175 -0.84567,20.17175 -0.54119,0 -1.10458,-5.09214 -1.25199,-11.31586 z m -4.33257,-22.63172 c -0.54594,-1.35299 -0.99262,-0.246 -0.99262,2.45997 0,2.70596 0.44668,3.81295 0.99262,2.45997 0.54594,-1.35299 0.54594,-3.56696 0,-4.91994 z m 104.96737,31.92425 c -3.60829,-1.11498 -3.94566,-1.57257 -1.26543,-1.71645 2.40359,-0.1291 3.26676,-1.20661 2.52173,-3.14813 -1.29131,-3.36512 1.7707,-4.04681 3.75511,-0.83598 0.84017,1.3594 2.9291,0.59279 5.84235,-2.14407 3.87054,-3.63617 10.59612,-5.04758 45.92606,-9.63779 22.76531,-2.95775 42.54965,-4.75599 43.9652,-3.99605 1.41556,0.75993 11.87242,0.14425 23.23749,-1.36836 11.36506,-1.51252 22.43493,-2.47858 24.5997,-2.1468 2.16478,0.33178 -6.50896,1.82364 -19.27499,3.31527 -22.58007,2.63833 -31.888,5.73832 -18.7247,6.23624 6.49751,0.24576 6.49446,0.25005 -1.35984,1.91427 -17.50985,3.71009 -45.37214,7.80389 -49.13226,7.21897 -2.20169,-0.34251 5.47733,-1.79031 17.06452,-3.21735 12.81672,-1.57845 21.95969,-3.66947 23.34538,-5.33912 1.75868,-2.11909 1.62964,-2.99319 -0.56631,-3.83586 -3.90039,-1.49672 -79.23442,8.23242 -84.16119,10.86914 -8.15642,4.36518 -4.2715,6.34203 10.30287,5.24262 10.48374,-0.79083 11.91908,-0.65822 5.41193,0.50001 -16.57294,2.94984 -26.5588,3.61247 -31.48762,2.08944 z m 8.65317,-1.58462 c 0.55747,-0.902 -0.27585,-1.63999 -1.85183,-1.63999 -1.57595,0 -2.86539,0.73799 -2.86539,1.63999 0,0.90199 0.83332,1.63998 1.85183,1.63998 1.0185,0 2.30794,-0.73799 2.86539,-1.63998 z m -20.93008,-3.68785 c 2.44799,-0.47072 5.99035,-0.45285 7.87191,0.0398 1.88156,0.49256 -0.12143,0.87771 -4.45089,0.85587 -4.32955,-0.0218 -5.869,-0.42487 -3.42102,-0.89559 z m 57.07132,0 c 2.44798,-0.47072 5.99034,-0.45285 7.8719,0.0398 1.88156,0.49256 -0.12142,0.87771 -4.45089,0.85587 -4.32955,-0.0218 -5.869,-0.42487 -3.42101,-0.89559 z m -98.39882,-9.83988 c 2.44799,-0.47072 5.99034,-0.45285 7.87191,0.0398 1.88156,0.49256 -0.12143,0.87771 -4.4509,0.85587 -4.32955,-0.0219 -5.86899,-0.42487 -3.42101,-0.89559 z m 15.74381,-1.96797 c 2.44799,-0.47072 5.99034,-0.45285 7.87191,0.0398 1.88156,0.49257 -0.12143,0.87772 -4.4509,0.85587 -4.32954,-0.0218 -5.86899,-0.42486 -3.42101,-0.89558 z m 171.68299,-1.67015 c 9.20029,-1.39988 19.38457,-2.4957 22.63173,-2.43517 3.24716,0.0604 -1.62358,1.25539 -10.82387,2.65527 -9.20029,1.39988 -19.38457,2.49571 -22.63173,2.43518 -3.24716,-0.0604 1.62358,-1.25539 10.82387,-2.65528 z m -245.68631,-2.84191 c 0,-2.70597 0.44668,-3.81295 0.99262,-2.45997 0.54594,1.35298 0.54594,3.56696 0,4.91994 -0.54594,1.35298 -0.99262,0.246 -0.99262,-2.45997 z m 89.74713,2.54408 c 2.44799,-0.47072 5.99034,-0.45285 7.87191,0.0398 1.88156,0.49257 -0.12143,0.87772 -4.4509,0.85588 -4.32954,-0.0219 -5.86899,-0.42487 -3.42101,-0.89559 z m -24.89269,-2.54408 c -0.0244,-1.62358 1.09368,-5.60873 2.4847,-8.85589 l 2.52913,-5.90393 3.20725,5.90393 3.20723,5.90393 0.0787,-5.41194 c 0.0434,-2.97656 0.96446,-5.41193 2.04685,-5.41193 1.08239,0 1.96798,3.09956 1.96798,6.88791 0,5.57593 -0.7497,6.88792 -3.93595,6.88792 -2.18664,0 -3.93596,-1.31199 -3.93596,-2.95196 0,-4.39034 -3.03586,-3.57117 -5.47001,1.47598 -1.27166,2.63679 -2.15348,3.23384 -2.17994,1.47598 z m 40.6365,0.57611 c 2.44799,-0.47073 5.99035,-0.45286 7.87191,0.0398 1.88156,0.49256 -0.12143,0.87772 -4.4509,0.85587 -4.32954,-0.0218 -5.86899,-0.42487 -3.42101,-0.89559 z m -22.43355,-7.46403 c 0.22262,-6.46962 0.972,-7.8719 4.20682,-7.8719 3.00207,0 4.08228,1.51754 4.55264,6.39592 0.34639,3.59266 -0.30051,6.39592 -1.47598,6.39592 -1.15097,0 -2.09267,-2.83388 -2.09267,-6.29752 0,-7.61426 -3.2166,-5.24777 -4.5474,3.34556 -0.65949,4.25858 -0.83881,3.71015 -0.64341,-1.96798 z m 38.17736,5.49605 c 2.44799,-0.47072 5.99035,-0.45285 7.87191,0.0398 1.88156,0.49257 -0.12143,0.87772 -4.45089,0.85587 -4.32955,-0.0218 -5.869,-0.42486 -3.42102,-0.89558 z m 157.43811,0 c 2.44798,-0.47072 5.99034,-0.45285 7.8719,0.0398 1.88157,0.49257 -0.12142,0.87772 -4.45089,0.85587 -4.32955,-0.0218 -5.869,-0.42486 -3.42101,-0.89558 z m 15.43521,-0.0254 c -2.99634,-0.76277 -3.18981,-1.29121 -0.98399,-2.68794 1.87873,-1.18962 0.26017,-1.82158 -5.12628,-2.00151 -7.14925,-0.23883 -7.34683,-0.3771 -2.1523,-1.50611 6.95776,-1.51227 4.39717,-4.12864 -7.79484,-7.9646 -7.00068,-2.20261 -15.02679,-1.62541 -65.44967,4.70697 -31.60877,3.9696 -58.99269,6.9243 -60.85316,6.56601 -1.86044,-0.35829 21.13916,-3.65825 51.11024,-7.33323 30.18854,-3.70166 54.00325,-7.47402 53.39509,-8.45802 -0.60375,-0.97693 -4.68831,-1.5044 -9.07676,-1.17219 -5.08338,0.38484 -8.28947,-0.28868 -8.8345,-1.85592 -0.47052,-1.35298 0.57786,-2.45997 2.32971,-2.45997 2.53546,0 2.77109,-0.77379 1.15504,-3.79339 -1.11659,-2.08635 -1.44004,-5.33119 -0.7188,-7.21074 0.89273,-2.32641 0.57634,-2.96311 -0.99103,-1.99441 -1.36102,0.84123 -2.30242,0.23439 -2.30242,-1.48411 0,-1.59892 -0.52633,-4.52936 -1.16962,-6.51205 -0.98391,-3.03248 -0.81868,-3.13615 1.04048,-0.65296 1.77829,2.37517 2.10296,1.81206 1.66163,-2.88202 -0.76033,-8.0871 5.3558,-9.31368 8.77774,-1.76037 l 2.48162,5.47776 0.98399,-6.81361 c 0.78213,-5.41581 1.88351,-6.82527 5.36877,-6.87044 2.41164,-0.0313 5.60018,-1.71896 7.08564,-3.75045 1.7678,-2.41762 4.1372,-3.31798 6.8587,-2.60629 4.78716,1.25187 7.35787,-1.20013 9.27767,-8.84924 1.29597,-5.16351 1.02175,-5.41209 -6.2377,-5.65488 -4.93679,-0.16511 -2.44281,-0.89773 7.12872,-2.09414 8.0971,-1.01211 15.10801,-2.22621 15.57982,-2.69802 1.83397,-1.83395 -1.92964,-3.27961 -11.96929,-4.59754 l -10.4606,-1.3732 16.35321,-1.52498 c 15.51625,-1.44694 16.55934,-1.84486 20.38113,-7.77542 3.69127,-5.72801 3.78444,-4.68189 0.34361,3.85798 -2.35197,5.83738 3.98629,1.77246 8.02865,-5.14901 2.93107,-5.01867 4.11715,-12.05094 5.11818,-30.34566 l 1.30298,-23.81314 0.26485,18.69577 c 0.4007,28.28413 -4.47993,42.6891 -15.33168,45.25086 -3.93513,0.92896 -4.12866,1.38299 -1.51426,3.55277 7.04915,5.85026 11.87896,22.44037 12.43316,42.70726 l 0.53816,19.67976 -1.54547,-19.76098 c -2.25374,-28.81744 -11.01433,-46.20278 -23.2488,-46.13721 l -5.41194,0.0289 4.87828,2.46832 c 5.03867,2.54947 13.74271,15.88406 13.7659,21.08938 0.008,1.62358 -2.2988,-1.91878 -5.12451,-7.87191 -2.82572,-5.95312 -5.54763,-9.71688 -6.0487,-8.36389 -0.50108,1.35298 -2.50513,2.45997 -4.45347,2.45997 -1.94834,0 -3.98598,1.69613 -4.5281,3.76922 -0.54212,2.07307 -3.08078,4.16644 -5.64146,4.65194 -2.8955,0.54897 -1.62322,0.98403 3.36507,1.15072 13.47414,0.45021 20.81831,12.6541 20.17512,33.52526 l -0.33967,11.02228 -1.28864,-12.79185 -1.28863,-12.79184 -0.36655,10.82387 c -0.2016,5.95312 -0.87406,13.03784 -1.49436,15.7438 -0.88441,3.85808 -0.67276,4.28283 0.98072,1.96798 2.79228,-3.90919 2.73304,-1.42353 -0.11513,4.82735 -1.89674,4.16288 -3.64804,5.0231 -10.33188,5.07488 l -8.048,0.0624 5.41194,4.03776 c 2.97656,2.22076 5.41193,5.29226 5.41193,6.82557 0,5.05789 5.89211,2.90209 9.86145,-3.60811 4.02796,-6.60632 5.48686,-6.1234 1.87718,0.62137 -1.5942,2.97877 -1.39388,3.80658 0.92113,3.80658 1.62708,0 4.27956,-2.43537 5.89438,-5.41194 1.61481,-2.97656 2.97147,-4.40305 3.01481,-3.16997 0.25034,7.12328 -14.13669,13.69162 -24.31457,11.10068 z m -3.30114,-19.51197 c 2.24333,-2.85185 4.07879,-4.0855 4.07879,-2.74133 0,1.40019 1.30433,1.9434 3.05418,1.27192 1.75134,-0.67204 2.54129,-0.34213 1.85182,0.77344 -0.66128,1.06998 -2.62606,1.94544 -4.36615,1.94544 -1.7401,0 -2.64018,0.52366 -2.00015,1.16368 0.64002,0.64001 2.7802,0.65022 4.75595,0.0226 2.79978,-0.88926 3.68415,-3.4253 4.00879,-11.49553 l 0.41652,-10.35457 -3.26812,6.69702 c -1.79747,3.68335 -3.53033,5.89732 -3.85082,4.91994 -1.21088,-3.69296 2.72405,-19.47044 4.75424,-19.0625 4.12124,0.82812 4.7763,-9.40118 1.015,-15.85022 -3.06437,-5.25412 -4.89514,-6.28135 -11.74978,-6.5927 -8.69905,-0.39513 -13.60557,3.07057 -11.63121,8.21567 1.56806,4.08629 5.2087,3.7576 5.17174,-0.46694 -0.026,-2.96533 -0.31417,-3.03369 -2.07378,-0.49199 -1.68561,2.43481 -1.93418,2.26242 -1.41889,-0.98399 0.34361,-2.16478 1.941,-3.93595 3.54976,-3.93595 1.86054,0 2.65478,1.43237 2.18245,3.93595 -1.32772,7.03752 -1.25315,7.86647 0.74255,8.25703 1.08239,0.21182 1.7985,-1.80093 1.59135,-4.47279 -0.24248,-3.12733 0.40247,-4.37641 1.8104,-3.50627 1.41745,0.87605 1.74487,0.19932 0.9304,-1.92312 -0.90635,-2.36193 -0.19089,-3.27479 2.56699,-3.27479 3.77448,0 9.93336,8.97188 9.72725,14.17009 -0.0557,1.40673 -1.47887,-0.76326 -3.16244,-4.82221 -1.68358,-4.05895 -3.85192,-7.37991 -4.81853,-7.37991 -2.44737,0 -2.22781,1.36601 1.47321,9.16532 2.16212,4.55634 2.57724,7.46166 1.2551,8.78381 -1.32217,1.32216 -2.41233,-0.75551 -3.29597,-6.28151 -0.7262,-4.54142 -1.73379,-7.84372 -2.23907,-7.33844 -0.50525,0.50527 0.0468,5.7263 1.2269,11.60224 1.46524,7.29594 1.5215,12.86013 0.17751,17.54783 -1.43306,4.99815 -2.01637,5.66047 -2.14561,2.43632 -0.0976,-2.43537 -1.15781,-4.42795 -2.35602,-4.42795 -1.31921,0 -1.6024,1.35846 -0.71795,3.44396 4.15831,9.80509 -1.24302,17.54553 -8.90457,12.76081 -2.16857,-1.35422 -3.94282,-1.64295 -3.94282,-0.6416 0,1.00136 1.10699,2.26734 2.45997,2.81328 5.4253,2.18916 9.25546,1.05769 13.14101,-3.88199 z m -21.24354,-0.71851 c 8.81978,0 12.57488,-27.52781 5.33621,-39.11874 -2.17473,-3.48233 -9.53353,-6.07099 -9.53353,-3.3537 0,0.45267 -0.52633,2.44525 -1.16963,4.42794 -0.97275,2.99814 -0.8122,3.10803 0.95384,0.65296 1.64366,-2.2849 2.13278,-0.95079 2.1646,5.90393 0.0563,12.13408 3.73986,25.15823 6.07296,21.47262 2.89536,-4.57379 2.21637,-17.53667 -0.91853,-17.53667 -1.66247,0 -3.0523,-2.70367 -3.54079,-6.88792 -1.02954,-8.81872 1.7221,-8.85095 5.39387,-0.0632 4.79478,11.47554 2.34892,32.92103 -3.35278,29.39721 -1.5019,-0.92823 -1.73828,-0.53688 -0.69517,1.15089 1.18937,1.92445 0.30525,2.3136 -3.57233,1.57236 -2.83408,-0.54179 -4.73137,-0.30303 -4.21619,0.53057 0.5152,0.83357 0.26699,1.88888 -0.55155,2.34511 -0.81854,0.45626 -0.30883,0.53189 1.13269,0.16807 1.44151,-0.36378 4.36486,-0.66144 6.49633,-0.66144 z m 14.10226,-1.30681 c -0.71526,-1.86393 -0.44639,-2.77404 0.62405,-2.11247 1.03437,0.63928 1.8807,-0.47881 1.8807,-2.48465 0,-2.00584 -0.84633,-3.12392 -1.8807,-2.48464 -1.12962,0.69814 -1.27877,-0.342 -0.37348,-2.60446 3.25227,-8.12802 3.63491,-9.90459 1.47909,-6.86767 -1.56086,2.19878 -2.17802,1.56242 -2.86292,-2.95196 -0.4802,-3.16526 -0.77532,-0.44148 -0.6558,6.05284 0.15271,8.29728 -0.49304,11.6686 -2.17186,11.33948 -1.38068,-0.27068 -1.91482,0.76769 -1.26543,2.45997 0.61804,1.61059 2.32955,2.92835 3.80335,2.92835 1.69079,0 2.21592,-1.2085 1.423,-3.27479 z m -36.94163,-2.13714 c 2.34374,-5.53308 4.3754,-20.17175 2.79959,-20.17175 -0.79345,0 -1.99831,-2.21397 -2.67745,-4.91994 -1.18959,-4.73967 -7.06378,-7.09794 -7.06378,-2.83581 0,1.14626 0.88724,1.53576 1.97166,0.86555 1.08441,-0.67019 2.85559,1.10636 3.93595,3.94794 2.52753,6.64788 2.57085,19.29323 0.0608,17.74191 -1.04692,-0.64703 -1.39658,-3.71107 -0.777,-6.80894 0.61958,-3.09789 0.25429,-7.19108 -0.81177,-9.096 -1.47269,-2.63158 -1.84972,-1.36239 -1.56966,5.28399 0.20273,4.81111 1.11711,9.95859 2.03194,11.43884 1.09276,1.76811 0.41855,3.60158 -1.9654,5.34475 -3.01702,2.2061 -3.1032,2.65342 -0.51122,2.65342 1.71466,0 3.77403,-1.54978 4.57637,-3.44396 z m 13.9185,-3.46747 c 2.37404,-3.62328 2.99835,-7.84624 2.33768,-15.81306 -1.01538,-12.24414 -4.00066,-17.05452 -7.946,-12.80397 -1.65887,1.7872 -1.70315,2.22537 -0.13599,1.34549 2.85421,-1.60249 5.84713,2.63862 3.09895,4.39136 -1.08644,0.69292 -1.44813,4.34377 -0.80681,8.14388 l 1.16244,6.88791 1.25941,-7.8719 1.25939,-7.87191 0.27925,8.23579 c 0.31327,9.23817 -2.48709,18.33189 -5.64518,18.33189 -1.45246,0 -1.46726,-1.15599 -0.0486,-3.80658 2.63291,-4.91964 2.58442,-6.6038 -0.1417,-4.91901 -1.49249,0.92241 -1.73278,-0.12595 -0.76281,-3.32781 0.95862,-3.16449 0.76816,-4.0387 -0.58962,-2.70642 -1.10311,1.08239 -2.4337,5.28894 -2.95685,9.34789 -0.8033,6.23238 -0.37988,7.37991 2.72307,7.37991 2.02086,0 5.13187,-2.22456 6.91337,-4.94346 z m 7.44243,-0.0787 c 0.67204,-1.75134 0.34213,-2.54129 -0.77344,-1.85183 -1.06998,0.66128 -1.94544,2.03568 -1.94544,3.05418 0,2.8308 1.41059,2.20701 2.71888,-1.20235 z m 22.91561,-14.67095 c -0.88874,-3.78101 -1.70653,-6.01332 -1.81733,-4.96069 -0.1108,1.05261 -1.58005,-0.0543 -3.26499,-2.45997 -1.68496,-2.4056 -4.0533,-4.37383 -5.263,-4.37383 -1.20968,0 -0.33286,1.99258 1.94847,4.42795 2.28136,2.43537 5.11727,6.98613 6.30205,10.11281 2.8576,7.54141 4.12299,5.88252 2.0948,-2.74625 z m -2.01877,-36.39419 c 0,-1.62358 -0.83332,-2.95197 -1.85183,-2.95197 -2.48158,0 -4.2589,3.07318 -2.68662,4.64545 2.21631,2.2163 4.53845,1.34982 4.53845,-1.69348 z m -193.51767,76.42304 c -0.7216,-0.72158 -1.31199,-4.26393 -1.31199,-7.8719 0,-5.95226 0.53783,-6.55992 5.80614,-6.55992 3.35578,0 6.57515,1.37414 7.62829,3.256 1.2793,2.286 2.92073,2.78156 5.50973,1.66341 3.40676,-1.47129 3.4253,-1.6553 0.24361,-2.4163 -4.72247,-1.12954 -4.35478,-4.47108 0.492,-4.47108 3.29805,0 3.93595,1.31199 3.93595,8.09527 0,7.90132 -0.14347,8.07421 -5.99058,7.21604 -3.29481,-0.48358 -6.44664,-0.14131 -7.00407,0.76062 -1.21131,1.95994 -7.45703,2.17993 -9.30908,0.32786 z m 10.12558,-7.0745 c 0.40859,-2.12161 -0.56149,-3.42136 -2.55351,-3.42136 -1.95157,0 -2.6539,0.90369 -1.78944,2.30241 0.95679,1.54811 0.3501,1.89071 -1.85185,1.04574 -3.30128,-1.26682 -4.45111,0.72347 -1.89477,3.27979 2.36966,2.36968 7.39965,0.37587 8.08957,-3.20658 z m 10.21017,1.26905 c 0,-0.41495 -1.77118,-0.75446 -3.93595,-0.75446 -2.16477,0 -3.93595,0.80268 -3.93595,1.78373 0,0.98106 1.77118,1.32057 3.93595,0.75447 2.16477,-0.56611 3.93595,-1.36879 3.93595,-1.78374 z m 21.17869,5.72557 c 2.44799,-0.47072 5.99035,-0.45285 7.87191,0.0398 1.88156,0.49256 -0.12143,0.87771 -4.45089,0.85587 -4.32955,-0.0219 -5.869,-0.42487 -3.42102,-0.89559 z m 131.85442,-1.96797 c 2.44798,-0.47072 5.99034,-0.45285 7.8719,0.0398 1.88156,0.49256 -0.12142,0.87772 -4.45089,0.85587 -4.32955,-0.0218 -5.869,-0.42486 -3.42101,-0.89558 z m -143.88072,-3.46504 c -0.60972,-1.58892 -0.30035,-3.38846 0.68749,-3.99898 0.98785,-0.61053 1.29721,-2.41007 0.6875,-3.99899 -0.60974,-1.58891 -0.20206,-2.88893 0.90593,-2.88893 1.10799,0 2.46121,1.10699 3.00715,2.45997 0.55855,1.38425 1.06056,0.84859 1.14798,-1.22495 0.12851,-3.04857 0.66516,-3.26184 3.10734,-1.23502 1.70149,1.41212 2.95196,1.60339 2.95196,0.45151 0,-2.6424 5.18145,-4.54118 8.70373,-3.18956 4.09349,1.57082 5.36707,6.3816 2.90656,10.97911 -1.73205,3.23635 -3.45692,3.80811 -8.84882,2.93311 -3.68358,-0.59776 -6.69742,-0.25692 -6.69742,0.75741 0,2.99878 -7.35211,2.10145 -8.5594,-1.04468 z m 22.33523,-7.1615 c 0,-3.964 -4.81207,-5.11621 -6.94617,-1.66318 -0.70097,1.1342 -0.78675,3.33326 -0.19069,4.88676 1.49995,3.90878 7.1368,1.36271 7.1368,-3.22358 z m 7.87191,4.35706 c 0,-0.96659 1.32838,-2.26717 2.95196,-2.89021 1.79816,-0.69001 2.95197,-0.004 2.95197,1.75742 0,1.58961 -1.32839,2.89021 -2.95197,2.89021 -1.62358,0 -2.95196,-0.79085 -2.95196,-1.75742 z m 9.30868,-3.65451 c -0.54461,-1.89418 -1.66189,-5.08144 -2.48282,-7.08279 -1.35412,-3.30126 -1.09543,-3.39254 2.78875,-0.98399 3.64077,2.25764 4.55076,2.22171 6.08224,-0.24013 3.11289,-5.00393 3.77145,-1.32901 0.95963,5.35494 -2.9758,7.07375 -5.83263,8.22148 -7.3478,2.95197 z m 19.29113,-2.25782 c -0.66161,-2.08456 -2.67605,-3.51324 -4.56057,-3.23443 -1.85651,0.27467 -2.2685,0.11867 -0.91552,-0.34644 1.35298,-0.46521 2.45997,-2.21772 2.45997,-3.89447 0,-2.48676 0.54405,-2.5971 2.95196,-0.59872 2.35512,1.95457 3.54882,1.95457 5.90393,0 3.60823,-2.99455 3.87808,-0.24981 0.66809,6.79532 -2.71606,5.96112 -4.88638,6.38756 -6.50786,1.27874 z m 8.79174,1.10984 c 0,-1.4432 1.32838,-2.62399 2.95196,-2.62399 1.62358,0 2.95197,1.18079 2.95197,2.62399 0,1.44317 -1.32839,2.62396 -2.95197,2.62396 -1.62358,0 -2.95196,-1.18079 -2.95196,-2.62396 z m 12.9077,-2.44193 c 2.10105,-1.70383 2.71311,-2.53717 1.36013,-1.85182 -1.35299,0.68534 -2.45997,0.30822 -2.45997,-0.83805 0,-1.14626 1.32838,-2.08412 2.95196,-2.08412 4.10498,0 3.71151,-3.48948 -0.49199,-4.36324 -2.80043,-0.58211 -2.61657,-0.94237 0.98398,-1.92803 3.99195,-1.0928 4.44023,-0.50362 4.5527,5.98351 0.10922,6.29497 0.34762,6.64114 1.90536,2.76554 0.97934,-2.43659 1.24061,-5.83745 0.58057,-7.55746 -0.95293,-2.48329 -0.028,-3.00437 4.49173,-2.5303 3.1305,0.32837 6.87542,-0.13442 8.32206,-1.02855 1.51335,-0.9353 3.56026,-0.6956 4.82036,0.5645 1.60815,1.60815 1.22007,2.1901 -1.46048,2.1901 -3.48632,0 -3.49536,0.17161 -0.20081,3.81195 3.67553,4.06139 2.70524,7.9959 -1.97189,7.9959 -3.33086,0 -3.82392,-3.27858 -0.65205,-4.33588 1.36615,-0.45537 0.99774,-1.71224 -0.98399,-3.35693 -2.76835,-2.29754 -3.16775,-2.00724 -3.16775,2.30237 0,5.42715 -3.96073,7.28525 -15.62796,7.33156 -6.46608,0.0256 -6.59947,-0.11316 -2.95196,-3.07105 z m 16.58181,-5.26599 c -0.0244,-3.58061 -0.39521,-3.86306 -1.93784,-1.47598 -2.46572,3.81543 -2.46572,5.90393 0,5.90393 1.08238,0 1.95441,-1.99258 1.93784,-4.42795 z m 89.4722,-16.08124 c 0.0797,-20.07912 0.45401,-23.50682 1.77942,-16.2922 0.94876,5.16428 0.9049,16.22061 -0.10076,25.42912 l -1.77942,16.29221 z m 7.37243,19.5252 c 0.0401,-3.24716 0.48117,-4.3373 0.98013,-2.42252 0.49896,1.91478 0.46616,4.57155 -0.073,5.90393 -0.53909,1.33238 -0.94733,-0.23425 -0.90722,-3.48141 z m -204.48652,-4.31378 c -0.54328,-1.41578 -3.59832,-2.57414 -6.78898,-2.57414 -5.69295,0 -5.79001,-0.17455 -5.20138,-9.34788 0.5493,-8.56052 1.05566,-9.40033 6.01175,-9.9706 3.15772,-0.36334 5.41194,-1.82356 5.41194,-3.50573 0,-1.58566 1.27247,-3.3713 2.8277,-3.96809 4.46788,-1.7145 1.30973,-6.99247 -3.3072,-5.52712 -2.62292,0.8325 -3.4971,0.52169 -2.60277,-0.92534 0.76013,-1.22991 0.0372,-2.17881 -1.65977,-2.17881 -1.86377,0 -2.57583,1.12191 -1.87357,2.95197 0.62304,1.62358 0.15252,2.95196 -1.04575,2.95196 -1.1982,0 -2.17853,-1.17984 -2.17853,-2.62187 0,-1.94031 -2.94167,-2.4864 -11.31586,-2.10072 -8.51904,0.39236 -7.30302,0.0197 4.91994,-1.51107 19.08758,-2.38916 22.44808,-6.45555 3.93595,-4.76272 -6.76492,0.61862 -17.61338,0.43412 -24.10771,-0.41001 l -11.80785,-1.53478 15.74381,-1.44184 c 24.80297,-2.27152 32.47161,-3.62692 32.47161,-5.73921 0,-1.13123 -2.71113,-1.49253 -6.39593,-0.85237 -3.51776,0.61116 -13.92343,1.54319 -23.12372,2.07122 -16.50609,0.9473 -16.44087,0.92339 4.91994,-1.80397 11.90626,-1.52018 23.53899,-2.36224 25.85051,-1.87121 2.34841,0.49887 5.3161,-0.44872 6.72605,-2.14761 4.69022,-5.65136 9.12,-6.60754 49.92184,-10.77571 33.97146,-3.47041 41.23853,-3.72697 43.86455,-1.54862 1.90768,1.58247 7.4851,2.4913 14.15936,2.30723 6.05652,-0.16708 8.3551,0.0669 5.10794,0.51967 -15.9647,2.22637 -18.69578,3.0703 -18.69578,5.77711 0,2.14476 2.34459,2.78866 9.34789,2.56722 l 9.34789,-0.29559 -8.85589,-1.37681 -8.8559,-1.37682 7.87191,-0.12319 c 4.32955,-0.0677 12.29985,0.49477 17.71178,1.25004 l 9.83989,1.37319 -15.27736,1.49074 c -8.40258,0.8199 -18.58685,1.00046 -22.63173,0.40121 -5.48015,-0.81185 -6.35131,-0.61782 -3.41842,0.7613 3.53594,1.6627 3.57414,1.86485 0.37585,1.98911 -1.95806,0.0762 -3.11183,0.86364 -2.56394,1.75016 0.54788,0.88649 11.44862,0.41292 24.22386,-1.0524 12.77523,-1.46531 25.44166,-2.40697 28.14763,-2.09257 2.70597,0.31443 -7.03552,1.79561 -21.64774,3.2915 -14.61222,1.49592 -27.17102,3.65863 -27.90844,4.80606 -0.77798,1.2105 -2.3562,-0.14248 -3.75986,-3.2231 -2.0168,-4.42639 -3.75742,-5.3522 -10.4671,-5.56734 -7.01018,-0.22476 -6.5591,-0.44813 3.49802,-1.73221 10.21571,-1.30434 14.89504,-3.87178 14.99153,-8.22547 0.0709,-3.19852 -5.04709,-3.14168 -39.45302,0.43821 -19.95617,2.07641 -38.3188,3.7974 -40.80585,3.82442 -2.48705,0.027 -6.78334,2.48453 -9.54732,5.4611 l -5.02541,5.41193 5.61137,1.24315 c 3.72239,0.82464 0.64272,1.42753 -9.14845,1.79092 -8.1179,0.3013 -11.87513,0.90546 -8.3494,1.34261 7.05207,0.87435 10.25097,5.33881 14.11388,19.69755 1.2326,4.58175 3.76082,9.11169 5.61821,10.06653 2.0281,1.04262 12.02456,0.70064 25.02487,-0.85608 31.30552,-3.74864 32.33387,-3.69399 30.98402,1.6469 -0.61553,2.43537 -2.0824,5.07858 -3.25972,5.87379 -2.60928,1.76241 3.93564,1.9336 10.15924,0.26572 2.97425,-0.79705 4.42795,-2.68156 4.42795,-5.74017 0,-3.1575 -1.35753,-4.81501 -4.42795,-5.40641 -2.43537,-0.46906 -0.44279,-0.90353 4.42795,-0.96549 4.87074,-0.062 7.74891,0.33405 6.39592,0.87999 -1.35298,0.54593 -2.45997,3.60338 -2.45997,6.79431 0,3.19094 -1.10698,6.17784 -2.45997,6.63755 -1.35298,0.45974 -20.4862,2.91869 -42.51824,5.46435 -32.37622,3.74084 -40.2477,4.13481 -41.04607,2.05433 z m 15.0652,-2.57414 c 4.83417,0 5.35598,-0.59674 4.48877,-5.13324 -0.67304,-3.52087 -3.08488,-6.01221 -7.67833,-7.93148 -3.68338,-1.53902 -6.277,-3.47787 -5.76359,-4.30859 0.51342,-0.8307 0.11985,-2.79649 -0.87451,-4.36839 -1.5154,-2.39546 -1.81286,-2.3218 -1.83813,0.45525 -0.0197,2.14181 -1.94358,3.5334 -5.44207,3.93595 -4.50952,0.51888 -5.51476,1.68919 -6.02862,7.01863 -0.57447,5.95821 -0.2041,6.39592 5.41194,6.39592 4.22516,0 6.02862,0.94607 6.02862,3.16252 0,2.07527 1.07018,2.75184 3.11292,1.96798 1.7121,-0.65701 5.57445,-1.19455 8.583,-1.19455 z m 21.75968,-2.72253 c 0,-0.41503 -2.21398,-1.1778 -4.91995,-1.69508 -2.70596,-0.51728 -4.91994,-0.17771 -4.91994,0.75456 0,0.93229 2.21398,1.69508 4.91994,1.69508 2.70597,0 4.91995,-0.33956 4.91995,-0.75456 z m 20.71686,-3.09545 c -0.63973,-1.03512 -2.46318,-1.38315 -4.0521,-0.77344 -4.06802,1.56106 -3.58864,2.65547 1.16317,2.65547 2.22866,0 3.52868,-0.84692 2.88893,-1.88203 z m -18.74889,-2.05392 c 0,-1.08239 -0.88559,-1.96798 -1.96797,-1.96798 -1.08239,0 -1.96798,0.88559 -1.96798,1.96798 0,1.08239 0.88559,1.96798 1.96798,1.96798 1.08238,0 1.96797,-0.88559 1.96797,-1.96798 z m -7.8719,-1.96798 c 0,-1.08238 -0.93786,-1.96797 -2.08413,-1.96797 -1.14627,0 -1.53679,0.88559 -0.86784,1.96797 0.66896,1.08239 1.60682,1.96798 2.08413,1.96798 0.47731,0 0.86784,-0.88559 0.86784,-1.96798 z m 23.61571,-1.96797 c 0,-1.08239 -0.39052,-1.96798 -0.86784,-1.96798 -0.47731,0 -1.41517,0.88559 -2.08412,1.96798 -0.66896,1.08238 -0.27843,1.96797 0.86784,1.96797 1.14626,0 2.08412,-0.88559 2.08412,-1.96797 z m 3.31232,-2.33697 c -0.62821,-1.56992 -1.09455,-1.10361 -1.18897,1.18899 -0.0854,2.07456 0.37966,3.23691 1.03362,2.58297 0.65394,-0.65396 0.72384,-2.35134 0.15527,-3.77196 z m 9.24644,1.25076 c 0.67205,-1.75134 0.34213,-2.54128 -0.77343,-1.85182 -1.06999,0.66128 -1.94545,2.03567 -1.94545,3.05418 0,2.83079 1.41059,2.207 2.71888,-1.20236 z M 267.97989,391.5343 c -2.42049,-0.46712 -6.84844,-0.47922 -9.83988,-0.0268 -2.99145,0.45234 -1.01105,0.83454 4.40088,0.84932 5.41194,0.0138 7.85949,-0.35533 5.439,-0.82245 z m -18.23084,40.92908 c 0,-2.78282 -1.01648,-3.4859 -3.93595,-2.72244 -2.20058,0.57546 -3.93596,0.0604 -3.93596,-1.16823 0,-1.20863 1.77118,-2.1975 3.93596,-2.1975 2.62396,0 3.93595,-1.31199 3.93595,-3.93595 0,-2.16478 0.88559,-3.93595 1.96797,-3.93595 1.08239,0 1.96798,1.32838 1.96798,2.95196 0,1.62358 1.32838,2.95196 2.95196,2.95196 1.62359,0 2.95197,0.88559 2.95197,1.96798 0,1.08239 -1.32838,1.96798 -2.95197,1.96798 -1.63997,0 -2.95196,1.74931 -2.95196,3.93595 0,2.16477 -0.88559,3.93595 -1.96798,3.93595 -1.08238,0 -1.96797,-1.68827 -1.96797,-3.75171 z m -62.66451,-10.02412 c 0,-2.70597 0.44668,-3.81296 0.99262,-2.45997 0.54594,1.35298 0.54594,3.56695 0,4.91994 -0.54594,1.35298 -0.99262,0.246 -0.99262,-2.45997 z M 166.75675,410.6314 c 0.41289,-4.32955 1.10048,-7.8719 1.52799,-7.8719 0.4275,0 0.77728,3.54235 0.77728,7.8719 0,4.32955 -0.6876,7.87191 -1.52799,7.87191 -0.84039,0 -1.19017,-3.54236 -0.77728,-7.87191 z m -57.22601,4.46296 c 9.808,-0.88339 11.26715,-4.36023 1.96797,-4.68928 -6.19586,-0.21923 -6.14969,-0.27488 1.47598,-1.77899 4.32955,-0.85398 10.52868,-0.99937 13.77584,-0.32312 l 5.90393,1.22955 -6.88792,1.27437 -6.88792,1.27436 8.8559,0.53615 8.85589,0.53616 -10.82387,1.49625 c -5.95313,0.82295 -13.92343,1.42913 -17.71179,1.34708 -5.84456,-0.12654 -5.62099,-0.26331 1.47599,-0.90253 z m 270.10474,-2.66738 c 6.54124,-2.98081 17.71179,-4.05393 17.71179,-1.70149 0,1.03063 -1.54978,1.88363 -3.44396,1.89555 -1.89417,0.0118 -6.98631,0.47757 -11.31586,1.03481 -7.08637,0.91204 -7.38094,0.78941 -2.95197,-1.22887 z m -278.42917,-5.66767 c -3.115141,-5.04038 4.46658,-8.77273 19.15461,-9.42948 11.44893,-0.51191 13.53428,-0.18735 10.57397,1.64612 -2.25744,1.39808 -7.21839,1.81656 -12.79185,1.079 -6.26116,-0.82854 -8.18244,-0.60378 -6.15233,0.71974 2.40339,1.56689 2.14728,1.93014 -1.3782,1.95468 -2.38158,0.0157 -5.1372,1.47224 -6.12359,3.23482 -1.33614,2.38755 -2.17314,2.59029 -3.28261,0.79512 z m 33.68844,-1.04785 c 0.65998,-1.71989 0.0181,-2.97694 -1.53775,-3.01181 -1.68556,-0.0378 -1.33035,-0.83883 0.9631,-2.1719 5.00415,-2.90869 8.85662,0.80459 5.2915,5.10031 -3.22081,3.88083 -6.19424,3.93341 -4.71685,0.0834 z m 250.04892,-0.49199 c -1.52501,-2.71829 -3.67573,-13.29136 -2.45547,-12.0711 1.46207,1.46207 5.04283,13.54708 4.01397,13.54708 -0.40176,0 -1.10309,-0.66419 -1.5585,-1.47598 z m -160.77831,-2.54243 c 5.95312,-0.82295 14.36622,-1.45916 18.69577,-1.41381 6.80302,0.0712 6.40218,0.28563 -2.95196,1.57873 -5.95313,0.82294 -14.36623,1.45915 -18.69578,1.41381 -6.80302,-0.0712 -6.40218,-0.28563 2.95197,-1.57873 z m -16.7278,-5.65624 -9.83988,-1.18439 13.79667,-1.42833 c 7.58816,-0.7856 19.98641,-0.79949 27.55167,-0.0309 l 13.75499,1.39752 -10.82387,1.32978 c -12.70035,1.56031 -20.94757,1.54027 -34.43958,-0.0836 z m 23.15078,-1.55055 c -2.42049,-0.46712 -6.84844,-0.47922 -9.83988,-0.0268 -2.99145,0.45234 -1.01105,0.83454 4.40088,0.84932 5.41194,0.0138 7.85949,-0.35534 5.439,-0.82246 z M 98.733919,393.47541 c 2.991451,-0.45236 7.419401,-0.44025 9.839891,0.0268 2.42048,0.46712 -0.0271,0.83721 -5.439,0.82245 -5.411941,-0.0157 -7.392341,-0.39698 -4.400891,-0.84932 z m 19.679771,-1.96797 c 2.99144,-0.45236 7.41939,-0.44026 9.83988,0.0268 2.42049,0.46712 -0.0271,0.83722 -5.43899,0.82246 -5.41194,-0.0157 -7.39234,-0.39698 -4.40089,-0.84932 z m 60.7165,-12.85565 c -0.20736,-10.2785 -1.14391,-12.09432 -5.64022,-10.93545 -2.01239,0.51868 -3.84825,-8.81577 -4.52594,-23.01214 l -0.56367,-11.80785 -1.30632,11.80785 -1.30631,11.80786 -0.30396,-9.83988 c -0.79473,-25.72725 7.53112,-25.06127 12.30143,0.98399 1.10128,6.01285 -0.60459,-19.24177 -1.89814,-28.10115 l -0.92548,-6.33843 2.11677,5.90392 c 2.28115,6.36241 4.93213,60.42086 3.28127,66.91119 -0.55063,2.16477 -1.10387,-1.15619 -1.22943,-7.37991 z m -4.74035,-31.46467 c -0.47072,-2.44799 -0.87373,-0.90854 -0.89558,3.42101 -0.0218,4.32955 0.3633,6.33246 0.85587,4.45089 0.49257,-1.88156 0.51044,-5.42392 0.0397,-7.8719 z m -3.02834,-15.73045 c -1.46037,-1.46037 -1.71649,-0.69202 -0.86047,2.58142 0.69589,2.66109 1.58796,3.55318 2.07926,2.07926 0.47326,-1.41977 -0.0752,-3.51709 -1.21879,-4.66068 z m 51.35493,56.11481 c 2.99145,-0.45235 7.41939,-0.44025 9.83988,0.0268 2.4205,0.46712 -0.0272,0.83722 -5.43899,0.82246 -5.41193,-0.0157 -7.39233,-0.39698 -4.40089,-0.84932 z m 84.62298,-1.96797 c 2.99145,-0.45236 7.41939,-0.44026 9.83989,0.0268 2.42049,0.46712 -0.027,0.83722 -5.439,0.82246 -5.41193,-0.0157 -7.39233,-0.39698 -4.40089,-0.84932 z m 25.06464,-2.60623 c 5.95313,-0.82295 14.36623,-1.45916 18.69578,-1.41382 6.80302,0.0713 6.40218,0.28564 -2.95197,1.57873 -5.95312,0.82295 -14.36622,1.45916 -18.69577,1.41382 -6.80302,-0.0712 -6.40218,-0.28563 2.95196,-1.57873 z m 82.65501,-7.62408 c -8.74638,-1.19647 -8.6822,-1.22924 5.18953,-2.64947 7.725,-0.79089 19.68045,-0.79836 26.56768,-0.0157 l 12.52226,1.42137 -10.82387,1.32903 c -12.85305,1.57818 -21.461,1.5565 -33.4556,-0.0842 z m 22.13973,-1.55423 c -2.43537,-0.46908 -6.42052,-0.46908 -8.85589,0 -2.43537,0.46907 -0.4428,0.85286 4.42795,0.85286 4.87074,0 6.86331,-0.38379 4.42794,-0.85286 z m -222.33037,-1.86548 c -1.79499,-0.72697 -1.57948,-2.24166 0.84562,-5.94282 2.81834,-4.30132 2.94342,-6.47395 0.93304,-16.20726 -3.05367,-14.7844 -3.00693,-22.38345 0.13126,-21.33737 5.22075,1.74024 5.45484,32.23976 0.31734,41.34472 -1.05667,1.87272 -0.7994,1.90941 1.09905,0.15665 3.57629,-3.3017 6.28147,-19.72538 5.13363,-31.16719 l -0.98714,-9.83989 2.02105,7.87191 c 1.11157,4.32955 1.64051,10.52867 1.17538,13.77583 -0.46512,3.24716 -0.44756,7.01092 0.039,8.3639 1.33484,3.71174 6.44091,2.95035 6.59894,-0.98399 0.11985,-2.98542 0.3379,-2.93394 1.63734,0.38661 1.38833,3.54769 1.59412,3.47503 2.78677,-0.98399 1.77204,-6.62525 1.67461,-27.00671 -0.13441,-28.13241 -0.81179,-0.50512 -1.33496,4.97754 -1.16258,12.18372 l 0.3134,13.10211 -2.07838,-12.40444 c -1.57775,-9.41653 -1.50521,-12.97182 0.30115,-14.75983 1.85,-1.83122 2.81197,-1.58896 4.32274,1.08859 2.13264,3.7797 7.94819,4.7788 7.15956,1.22999 -1.02189,-4.59853 3.84804,-3.57611 6.05682,1.27162 6.20535,13.61926 -0.21616,39.31887 -8.17424,32.71424 -3.65251,-3.03129 -2.21223,-8.37252 1.83852,-6.81809 2.18034,0.83666 2.31499,1.72135 0.58016,3.81167 -1.5662,1.88715 -1.60284,2.72215 -0.11946,2.72215 3.59699,0 6.22975,-7.16466 5.91857,-16.10643 l -0.29565,-8.49322 -1.37681,8.8559 -1.37682,8.85589 -0.29559,-10.16788 c -0.16255,-5.59232 0.62066,-10.47328 1.74052,-10.84656 1.24421,-0.41475 0.8996,-2.20063 -0.8861,-4.59196 -2.85827,-3.82762 -2.89779,-3.81636 -1.80656,0.5147 0.90503,3.59211 0.29517,4.42795 -3.23075,4.42795 -3.93422,0 -4.30515,0.88648 -3.91153,9.34789 0.59763,12.84661 0.55278,13.0178 -4.97308,18.9803 -3.99015,4.30544 -5.61003,4.90723 -8.72374,3.2408 -3.11425,-1.6667 -4.05543,-1.31636 -5.07248,1.88808 -1.2746,4.01593 -2.1081,4.36381 -6.3445,2.64811 z m 19.13682,-8.27207 c 0,-0.69598 -2.21398,-1.26543 -4.91994,-1.26543 -5.18727,0 -6.62167,2.03038 -2.45997,3.48206 2.8499,0.9941 7.37991,-0.36652 7.37991,-2.21663 z m 43.81453,6.17828 c 2.99144,-0.45236 7.41939,-0.44026 9.83988,0.0268 2.42049,0.46712 -0.027,0.83722 -5.43899,0.82246 -5.41194,-0.0157 -7.39233,-0.39698 -4.40089,-0.84932 z m 19.67976,-1.96798 c 2.99145,-0.45236 7.41939,-0.44025 9.83988,0.0268 2.4205,0.46712 -0.027,0.83721 -5.43899,0.82245 -5.41193,-0.0157 -7.39233,-0.39698 -4.40089,-0.84932 z m 118.07858,0 c 2.99144,-0.45236 7.41939,-0.44025 9.83988,0.0268 2.4205,0.46712 -0.027,0.83721 -5.43899,0.82245 -5.41194,-0.0157 -7.39233,-0.39698 -4.40089,-0.84932 z M 195.30736,353.56009 c 0,-8.1179 0.34738,-11.43886 0.77196,-7.37991 0.42458,4.05896 0.42458,10.70087 0,14.75983 -0.42458,4.05895 -0.77196,0.73799 -0.77196,-7.37992 z m 72.1051,10.7656 c -1.93511,-2.33168 -1.98567,-4.13529 -0.22433,-8.00102 3.0386,-6.66896 12.7295,-6.11208 13.70761,0.7877 1.23713,8.72679 -8.08722,13.71516 -13.48328,7.21332 z m 10.87224,-4.86167 c 0,-4.26801 -7.67778,-3.68007 -8.51202,0.65182 -0.53821,2.79464 0.33945,3.45742 3.90901,2.95196 2.53166,-0.35851 4.60301,-1.9802 4.60301,-3.60378 z m 38.8946,6.45973 c 2.99144,-0.45236 7.41939,-0.44026 9.83988,0.0268 2.42049,0.46712 -0.027,0.83722 -5.439,0.82246 -5.41193,-0.0157 -7.39233,-0.39698 -4.40088,-0.84932 z m 130.35137,-1.22889 17.71178,-2.45142 -7.47329,-3.76671 c -7.42907,-3.74441 -7.80932,-3.7338 -64.25326,1.79223 -31.22899,3.05743 -57.87651,5.19345 -59.21674,4.7467 -1.34024,-0.44675 19.76832,-2.92799 46.90791,-5.51387 44.76894,-4.26563 49.18095,-5.00763 47.57854,-8.00175 -1.19231,-2.22785 -0.79651,-4.50753 1.21808,-7.01598 2.85522,-3.5551 2.89748,-3.5355 0.97699,0.45339 -2.49943,5.19132 -0.58721,7.4246 3.57707,4.17762 2.77207,-2.16143 2.82184,-2.04609 0.43211,1.00107 -1.84575,2.35348 -1.98197,3.44395 -0.43024,3.44395 3.33115,0 4.9972,-5.80907 2.40849,-8.39778 -3.22957,-3.22957 -2.73409,-5.44823 0.90487,-4.05183 2.16129,0.82937 2.87797,2.94829 2.30883,6.82616 -0.74183,5.05438 -0.26239,5.62345 4.73773,5.62345 5.17829,0 5.56309,-0.54449 5.56309,-7.8719 0,-6.59199 0.64788,-7.8719 3.98466,-7.8719 2.46649,0 4.71592,1.92334 5.90393,5.04805 2.48008,6.52313 2.45633,11.25997 -0.0488,9.71177 -1.08239,-0.66896 -1.96798,-3.82079 -1.96798,-7.00407 10e-5,-3.83271 -0.99706,-5.78778 -2.95187,-5.78778 -2.06564,0 -2.95196,2.08273 -2.95196,6.93663 0,5.33921 1.01969,7.35812 4.42795,8.76699 2.43537,1.0067 6.64192,3.62185 9.34788,5.81146 l 4.91994,3.9811 -6.88791,0.0577 c -3.78836,0.0317 -13.08705,0.45159 -20.66375,0.93294 -12.91465,0.82046 -12.6686,0.72193 3.93595,-1.57625 z m -163.88965,-6.0627 c 0.58064,-8.1854 2.62273,-10.12658 7.43553,-7.0681 2.3636,1.50205 2.48979,2.62205 0.63304,5.61939 -1.72178,2.77947 -1.74711,4.31526 -0.0984,5.96398 1.64871,1.64871 1.64232,2.22052 -0.025,2.22052 -1.23499,0 -2.85119,-0.98013 -3.59156,-2.17808 -0.93953,-1.5202 -1.88306,-1.3716 -3.12373,0.492 -1.17561,1.76584 -1.59215,0.0557 -1.22998,-5.04971 z m 17.51523,4.22044 c -2.73698,-2.73698 -2.92719,-13.22846 -0.23982,-13.22846 1.08239,0 1.96798,2.70904 1.96798,6.02008 0,3.51225 0.81982,5.5134 1.96797,4.80379 1.08239,-0.66895 1.96798,-3.37799 1.96798,-6.02008 0,-5.42645 3.82872,-6.68645 4.13212,-1.35983 0.12576,2.2088 0.7071,1.67943 1.62077,-1.47598 l 1.4246,-4.91994 1.46382,4.42794 c 1.81268,5.48328 4.46661,5.69669 6.11851,0.492 1.58769,-5.00236 4.91994,-5.12715 4.91994,-0.1842 0,2.70803 1.03315,3.48154 3.71385,2.78051 2.04262,-0.53415 4.30887,-0.008 5.03609,1.16823 0.72723,1.17669 2.264,2.13943 3.41503,2.13943 1.4292,0 1.3978,-0.83744 -0.099,-2.64105 -1.20552,-1.45256 -1.53535,-3.36573 -0.73295,-4.25146 0.80238,-0.88574 0.23702,-0.90239 -1.25638,-0.037 -1.85706,1.07613 -2.42753,0.70933 -1.80491,-1.16046 1.50667,-4.52453 7.47215,-4.55838 7.47215,-0.0423 0,2.18026 1.01475,4.59125 2.25499,5.35777 1.587,0.9808 1.86737,-0.15074 0.9465,-3.81982 -0.77428,-3.08478 -0.48969,-5.21358 0.6969,-5.21358 1.10301,0 2.00546,1.05486 2.00546,2.34412 0,1.28926 1.12712,0.80269 2.50471,-1.08127 2.1802,-2.98162 2.50468,-2.39993 2.50468,4.49014 0,4.45598 -0.74431,7.17118 -1.70301,6.21248 -0.9587,-0.9587 -3.98865,-0.51049 -6.93265,1.02553 -6.17017,3.2193 -10.14956,3.52701 -10.14956,0.78483 0,-1.08238 -1.77118,-1.96797 -3.93595,-1.96797 -2.16478,0 -3.94952,1.10698 -3.96609,2.45997 -0.0205,1.66483 -0.62229,1.52362 -1.86211,-0.43683 -1.55002,-2.45098 -2.04843,-2.33276 -3.23833,0.76808 -1.29963,3.38677 -1.58873,3.41552 -3.80908,0.37901 -2.2303,-3.05015 -2.50517,-3.03466 -3.83068,0.21589 -1.32628,3.25243 -1.54321,3.22151 -3.04639,-0.43416 -1.25405,-3.04981 -1.64956,-3.20798 -1.75673,-0.70255 -0.17594,4.11329 -4.88236,5.99521 -7.77042,3.10714 z m 56.8315,-9.17636 c 0,-3.31104 -0.0663,-6.66213 -0.1476,-7.44686 -0.0813,-0.78473 0.80441,-1.74411 1.96797,-2.13196 2.69759,-0.89921 2.83735,12.72025 0.1476,14.38262 -1.14815,0.70961 -1.96797,-1.29155 -1.96797,-4.8038 z m 126.40705,-6.02007 c 0,-3.78836 0.40501,-5.33814 0.90002,-3.44396 0.49498,1.89418 0.49498,4.99374 0,6.88791 -0.49501,1.89418 -0.90002,0.3444 -0.90002,-3.44395 z m -220.86992,-16.7278 v -16.7278 l 11.31587,-0.0301 c 14.70542,-0.0392 18.10741,-2.03421 12.69614,-7.44548 -2.20234,-2.20234 -3.48765,-4.52083 -2.85626,-5.15224 0.63138,-0.63139 0.098,-1.14798 -1.18549,-1.14798 -1.52802,0 -1.89184,1.75955 -1.05401,5.09773 1.2165,4.84697 1.0605,4.96796 -3.17159,2.45997 -3.51105,-2.0807 -4.63919,-2.11825 -5.34192,-0.17771 -0.48996,1.35298 -1.68073,2.45997 -2.64612,2.45997 -1.01772,0 -1.0016,-1.98232 0.0384,-4.71759 0.98649,-2.59466 1.25976,-5.25143 0.60728,-5.90393 -0.65251,-0.65258 1.61801,-1.18644 5.04555,-1.18644 3.42757,0 6.23194,-0.98762 6.23194,-2.19472 0,-1.48293 -3.35092,-1.81855 -10.33188,-1.03484 -20.78663,2.33358 -71.89262,5.66905 -74.34357,4.85206 -1.38686,-0.46229 17.23191,-2.34195 41.37505,-4.17705 31.41561,-2.38786 44.62049,-2.73574 46.4426,-1.22351 1.40032,1.16215 4.0318,6.69419 5.84775,12.29342 1.81595,5.59922 4.00924,10.95251 4.87401,11.89622 1.81091,1.97618 0.27596,7.14009 -2.12235,7.14009 -0.88722,0 -2.01814,-1.54978 -2.51312,-3.44396 -0.67266,-2.57393 -0.95768,-2.31747 -1.1283,1.01524 -0.18952,3.7007 -1.23257,4.38268 -6.13222,4.00936 -4.70801,-0.35874 -5.90393,-1.36168 -5.90393,-4.95121 0,-3.56446 1.09227,-4.50133 5.24795,-4.50133 2.88635,0 4.78269,-0.46525 4.21406,-1.03388 -0.56862,-0.56863 -6.02976,-0.44669 -12.13586,0.27097 l -11.10198,1.30481 v 13.32064 c 0,12.35174 0.28628,13.24577 3.93595,12.29137 2.54709,-0.66609 3.93595,-2.68436 3.93595,-5.71969 0,-5.66982 7.79244,-6.88443 7.99666,-1.24646 0.0956,2.63868 0.5409,2.40861 1.90455,-0.98399 1.47442,-3.66817 3.39466,-4.47059 11.19113,-4.67646 5.17621,-0.13658 13.6503,-0.44238 18.83131,-0.67934 5.18101,-0.23699 9.94106,0.41219 10.57787,1.44258 0.68315,1.10536 1.7504,0.91474 2.60308,-0.46493 0.79487,-1.28613 5.11212,-2.69162 9.59389,-3.1233 7.57362,-0.72949 8.14866,-0.44043 8.14866,4.09628 0,2.68464 0.88559,4.88116 1.96798,4.88116 1.08238,0 1.96797,-1.31152 1.96797,-2.91448 0,-1.60295 2.21398,-3.47013 4.91994,-4.1493 2.70597,-0.67915 4.91995,-1.95197 4.91995,-2.82849 0,-0.87652 0.58856,-3.12743 1.30791,-5.00205 1.19425,-3.11215 0.12536,-3.28087 -12.29985,-1.94136 -7.48427,0.80685 -17.15013,1.71591 -21.47967,2.02018 -4.32955,0.30427 -8.3147,0.7188 -8.8559,0.92117 -3.66864,1.37194 -17.71178,1.27098 -17.71178,-0.12733 0,-0.9472 1.53952,-1.72217 3.42118,-1.72217 13.51699,0 80.70599,-6.79906 82.67778,-8.36642 3.63743,-2.89135 3.02574,-7.56079 -2.39251,-18.26319 -2.66887,-5.27168 -4.66145,-9.77575 -4.42795,-10.00901 0.23351,-0.23328 10.16602,-0.94211 22.07228,-1.57515 11.90625,-0.63306 20.76215,-0.77103 19.67976,-0.30661 -1.08239,0.46442 -10.60361,1.43393 -21.15826,2.15446 -10.64127,0.72644 -18.69907,2.10485 -18.08764,3.09417 0.60646,0.98127 3.63336,1.78413 6.72643,1.78413 3.09309,0 6.07048,1.10699 6.61641,2.45997 0.63117,1.56421 1.04919,1.29182 1.14798,-0.74803 0.13009,-2.68465 3.868,-3.43998 22.91309,-4.62996 12.51675,-0.78207 23.17542,-1.00423 23.68598,-0.4937 0.51053,0.51055 -8.85606,1.56241 -20.81464,2.33748 -20.87905,1.35322 -21.85715,1.61758 -24.61848,6.65367 -2.86846,5.23147 -2.8787,5.2335 -4.14058,0.81649 -2.41618,-8.45749 -5.29057,-4.74156 -3.97919,5.14419 0.97,7.31208 0.5652,10.15691 -1.71444,12.04882 -4.17567,3.46551 -3.72115,5.51502 1.44372,6.50983 l 4.42795,0.85286 -4.42795,0.268 c -3.02663,0.1832 -4.42794,1.51363 -4.42794,4.20397 0,2.16477 -0.88559,3.93595 -1.96798,3.93595 -1.08239,0 -1.96798,-1.32838 -1.96798,-2.95196 0,-1.62358 -1.32838,-2.95197 -2.95196,-2.95197 -4.60904,0 -3.46275,-3.5564 1.47598,-4.57928 2.43537,-0.50441 0,-0.78739 -5.41193,-0.62887 l -9.83988,0.28821 -0.6108,7.37991 c -0.52508,6.34433 -1.2845,7.37991 -5.41194,7.37991 -2.92823,0 -4.80113,1.13692 -4.80113,2.91448 0,1.60295 -1.99258,3.32696 -4.42795,3.83114 -5.13748,1.06355 -73.12534,7.07623 -79.70304,7.04874 -4.24321,-0.0177 -4.42795,-0.71645 -4.42795,-16.74632 z m 35.83343,9.49314 c -1.72978,-0.69406 -1.91906,-1.77074 -0.59232,-3.36935 1.39098,-1.67605 0.85052,-2.43216 -1.88584,-2.63829 -2.10959,-0.15881 -3.83562,0.91062 -3.83562,2.37675 0,2.61929 3.00876,4.65089 6.88791,4.65089 1.08239,0 0.82404,-0.45901 -0.57413,-1.02 z m 18.04063,-6.93804 c -0.90013,-1.45646 -2.11168,-1.11135 -3.69365,1.05214 -1.29479,1.77073 -3.07278,2.56908 -3.95107,1.77411 -0.87831,-0.79496 -0.95838,-0.33601 -0.1779,1.01989 1.0444,1.81455 2.4409,1.91836 5.29058,0.39326 2.12939,-1.13962 3.26885,-3.04736 2.53212,-4.2394 z m 9.10118,5.43295 c 0,-0.47731 -0.88559,-1.41517 -1.96797,-2.08412 -1.08239,-0.66896 -1.96798,-0.27843 -1.96798,0.86784 0,1.14626 0.88559,2.08412 1.96798,2.08412 1.08238,0 1.96797,-0.39052 1.96797,-0.86784 z m 11.57483,-7.14808 c -2.98502,-1.84486 -6.20756,-0.34847 -4.65599,2.16202 0.59352,0.96033 2.4534,1.21869 4.13306,0.57414 2.38553,-0.91541 2.49998,-1.51428 0.52293,-2.73616 z m 125.951,4.64482 c -4.92868,-5.8909 -7.77459,-13.96761 -5.22147,-14.81866 1.21819,-0.40606 -0.9246,-2.67862 -4.76174,-5.05011 -8.52421,-5.26823 -8.55434,-5.26917 -8.93018,-0.27974 -0.22189,2.94572 0.59316,3.75314 3.02517,2.99689 5.48434,-1.70543 7.36936,1.30156 6.08004,9.69885 -1.13814,7.41286 -1.2249,7.49892 -1.48789,1.47599 -0.23735,-5.43587 -1.01777,-6.39593 -5.19921,-6.39593 -4.42795,0 -4.91994,-0.78719 -4.91994,-7.8719 0,-6.01292 0.76916,-7.87191 3.25698,-7.87191 3.03064,0 3.03064,-0.25009 0,-3.59891 -4.71376,-5.20864 -4.02422,-9.90937 1.66296,-11.33676 6.12381,-1.53697 6.43485,-6.14652 0.49199,-7.29118 -2.43537,-0.46907 1.05472,-0.97346 7.75576,-1.12086 15.77549,-0.34701 18.04963,-3.78164 3.12255,-4.716 l -11.3703,-0.7117 13.14984,-0.37212 c 12.30365,-0.34816 13.39511,-0.0238 16.96159,5.03983 2.09647,2.97656 4.40233,7.62591 5.12414,10.33187 0.88947,3.3346 0.1417,2.67604 -2.32042,-2.04378 -6.28733,-12.0523 -6.29829,-12.06238 -9.56549,-8.79518 -1.63188,1.63188 -6.06829,2.96706 -9.85869,2.96706 -9.15572,0 -8.3434,5.39953 1.61724,10.75007 5.74177,3.08429 7.37665,5.26431 8.11727,10.82387 0.51008,3.82895 1.51932,9.17568 2.24275,11.88165 0.88022,3.29237 0.33452,2.80409 -1.64956,-1.47598 -3.07683,-6.63735 -7.09087,-8.58693 -7.09087,-3.44396 0,1.62358 0.78959,2.95197 1.75462,2.95197 2.74506,0 4.60985,10.16652 2.29028,12.4861 -2.08279,2.08278 -3.04897,-1.75015 -2.15531,-8.55015 0.32798,-2.49575 -0.11965,-2.45751 -2.89586,0.24733 -3.03722,2.95907 -3.04503,3.66101 -0.1043,9.34789 3.6094,6.9798 5.87756,7.66468 8.9571,2.70463 1.95777,-3.15325 2.0887,-3.11364 1.55118,0.4694 -0.77257,5.14976 -5.93205,5.99168 -9.63029,1.57143 z m -1.73546,-22.01284 c 0,-2.14568 -10.07871,-6.52203 -11.57019,-5.02396 -1.6997,1.70723 7.63772,8.9903 9.8072,7.64948 0.96964,-0.59927 1.76299,-1.78074 1.76299,-2.62552 z m 5.90393,-8.21594 c 0,-2.81637 -1.0598,-3.87617 -3.42137,-3.42137 -5.12998,0.98794 -5.70211,7.50161 -0.65888,7.50161 2.81636,0 4.08025,-1.26389 4.08025,-4.08024 z m -9.83988,-0.50715 c 0,-1.44068 -2.21264,-3.80359 -4.91697,-5.2509 -2.70434,-1.44732 -4.55781,-2.99065 -4.11884,-3.42963 0.43898,-0.43897 3.5372,0.61828 6.88495,2.34947 3.34774,1.73119 6.08681,2.38145 6.08681,1.44501 0,-2.77133 -9.98445,-6.48972 -14.00197,-5.21461 -5.35859,1.70075 -4.55764,6.23048 1.70212,9.62648 6.78517,3.681 8.3639,3.77052 8.3639,0.47418 z m 28.22631,19.34721 c 0.008,-8.65909 0.35313,-11.95665 0.76887,-7.3279 0.41571,4.62876 0.40987,11.71348 -0.0138,15.74381 -0.42286,4.03034 -0.763,0.24319 -0.75586,-8.41591 z m -416.409641,4.76231 c -1.89418,-1.10325 -3.44396,-2.91076 -3.44396,-4.01668 0,-1.10591 1.39164,-0.61911 3.09253,1.08178 1.7009,1.7009 4.29441,3.09253 5.76336,3.09253 2.95251,0 8.85589,-5.23387 8.85589,-7.85151 0,-7.95626 -11.61261,-11.27052 -15.58617,-4.44834 -1.10326,1.89418 -2.03286,2.51409 -2.06577,1.37758 -0.20266,-6.99765 14.13253,-9.42965 17.5827,-2.98294 2.89414,5.40775 2.56567,7.47282 -1.89873,11.93724 -4.37307,4.37306 -7.18847,4.78745 -12.29985,1.81034 z m 148.090221,-3.77832 c -1.77372,-1.14627 -2.01645,-1.91974 -0.60815,-1.93785 1.28911,-0.0157 2.89116,0.85546 3.56011,1.93785 1.51003,2.4433 0.82876,2.4433 -2.95196,0 z m -79.39803,-3.59892 c -4.23322,-4.67764 -4.12376,-8.78246 0.34194,-12.82386 6.84154,-6.19151 16.08084,-2.92374 16.08084,5.68749 0,4.7575 -5.66959,10.73529 -10.18182,10.73529 -1.64119,0 -4.44962,-1.61951 -6.24096,-3.59892 z m 12.39693,-1.2127 c 1.29801,-1.56399 2.07064,-4.88495 1.71695,-7.37991 -1.17926,-8.31872 -15.40288,-6.28806 -15.40288,2.19901 0,7.2392 9.11424,10.68946 13.68593,5.1809 z m 73.74966,-9.18968 c -1.03307,-1.67154 -0.48558,-2.02582 1.7845,-1.15471 4.60103,1.76557 4.08458,-1.7654 -0.75389,-5.15439 -3.63526,-2.54625 -1.79716,-2.96123 18.82175,-4.24957 12.56775,-0.78526 23.38416,-0.89405 24.03645,-0.24174 0.6523,0.6523 -0.63155,1.186 -2.853,1.186 -2.22143,0 -6.57558,1.32293 -9.67587,2.93984 -3.783,1.97297 -4.50423,2.94381 -2.19294,2.95196 1.89418,0.006 3.44396,0.89771 3.44396,1.9801 0,1.08239 -1.77118,1.96798 -3.93595,1.96798 -2.88637,0 -3.93595,-1.31199 -3.93595,-4.91994 0,-2.70597 -0.79085,-4.91994 -1.75742,-4.91994 -2.8099,0 -4.49821,6.43827 -2.08018,7.93269 1.45631,0.90004 1.09192,1.78452 -1.07829,2.61731 -6.26975,2.40593 -8.85995,1.33531 -8.85995,-3.66209 0,-2.70596 -0.7345,-4.91994 -1.63224,-4.91994 -0.89773,0 -1.56192,1.96495 -1.47598,4.36653 0.17318,4.84024 -5.44167,7.18476 -7.855,3.27991 z m 15.61086,-4.69447 c 0.62302,-1.62358 0.27496,-2.95197 -0.77344,-2.95197 -1.04842,0 -1.90622,1.32839 -1.90622,2.95197 0,1.62358 0.34806,2.95196 0.77343,2.95196 0.4254,0 1.28318,-1.32838 1.90623,-2.95196 z m 243.6281,-2.95197 c 0,-2.70596 0.44669,-3.81295 0.99263,-2.45997 0.54594,1.35299 0.54594,3.56696 0,4.91994 -0.54594,1.35299 -0.99263,0.246 -0.99263,-2.45997 z m 7.71656,-3.11595 c 0.0945,-2.2926 0.56075,-2.75891 1.18897,-1.18899 0.56849,1.42062 0.49859,3.118 -0.15527,3.77196 -0.65396,0.65393 -1.11907,-0.50841 -1.03362,-2.58297 z m -3.00876,-8.38132 c -2.39948,-7.5601 -9.544,-14.39677 -19.77204,-18.92008 l -10.31964,-4.56384 -36.17083,2.80581 c -19.89396,1.54321 -38.82761,2.47099 -42.07477,2.06175 -3.67141,-0.46271 -2.18309,-0.86597 3.93596,-1.06639 l 9.83988,-0.32232 -6.41391,-3.9106 c -6.54374,-3.98976 -14.22922,-14.51656 -14.24248,-19.50792 -0.004,-1.52323 2.05055,1.12206 4.56576,5.87841 8.21597,15.53662 11.43012,16.35785 52.79766,13.4902 31.13224,-2.15812 35.97435,-2.10355 37.87024,0.42679 1.19558,1.59574 4.96849,4.53705 8.38423,6.53628 5.94604,3.48023 15.9385,17.92012 13.84766,20.01097 -0.55162,0.55161 -1.56308,-0.76196 -2.24772,-2.91906 z M 170.538,289.16123 c 3.51776,-0.43654 9.27409,-0.43654 12.79185,0 3.51775,0.43655 0.63959,0.79374 -6.39593,0.79374 -7.03551,0 -9.91368,-0.35719 -6.39592,-0.79374 z m 33.94759,-2.57331 c 8.1179,-0.7659 20.07336,-1.36511 26.56768,-1.33155 l 11.80786,0.061 -14.75982,1.39254 c -8.1179,0.76589 -20.07336,1.3651 -26.56768,1.33155 l -11.80786,-0.061 z m 66.9112,-4.95761 c 15.69461,-1.37852 33.4064,-2.46203 39.35952,-2.40778 5.95313,0.0543 -2.01717,1.22654 -17.71178,2.60509 -15.69461,1.37853 -33.4064,2.46204 -39.35953,2.40778 -5.95313,-0.0543 2.01718,-1.22654 17.71179,-2.60509 z m 156.94611,-0.34099 c 3.51776,-0.43653 9.27409,-0.43653 12.79184,0 3.51776,0.43656 0.6396,0.79375 -6.39592,0.79375 -7.03551,0 -9.91368,-0.35719 -6.39592,-0.79375 z m -92.00289,-4.54128 c 8.1179,-0.7659 20.07335,-1.36511 26.56768,-1.33155 l 11.80785,0.061 -14.75982,1.39254 c -8.1179,0.7659 -20.07336,1.36511 -26.56768,1.33156 l -11.80786,-0.061 z M 171.8166,261.52708 c -4.81719,-3.21654 -6.92485,-10.11976 -4.49718,-14.72969 3.04873,-5.78929 5.52912,-7.31319 11.96288,-7.34978 5.51301,-0.0313 11.49336,6.14564 11.35043,11.72363 -0.0424,1.65333 -1.328,0.12792 -2.85696,-3.38986 -2.25746,-5.19382 -3.89889,-6.39592 -8.7335,-6.39592 -4.17884,0 -6.91452,1.46661 -9.17723,4.91994 -2.98624,4.55758 -2.98624,5.2823 0,9.83988 3.77152,5.75607 9.99391,6.33846 15.76982,1.47598 4.08678,-3.44047 4.08713,-3.43949 0.34194,0.98399 -3.7225,4.39669 -10.00878,5.69381 -14.1602,2.92183 z m 55.74188,-14.25952 -11.26503,-8.06669 v -37.08508 -37.08507 l 24.10771,-1.34623 c 13.25924,-0.74042 28.97845,-0.99341 34.93158,-0.5622 7.58962,0.54975 5.23743,0.89698 -7.87191,1.16205 -10.28267,0.20792 -24.79569,0.954 -32.25117,1.65797 l -13.5554,1.27993 7.44678,3.82043 c 6.97228,3.57699 10.09322,3.72682 48.97898,2.35132 l 41.53219,-1.46911 -7.87191,-3.69054 c -8.45059,-3.96185 -6.45681,-3.79488 5.41194,0.45322 l 7.37991,2.64145 v 29.98456 29.98455 l 6.48722,-1.05273 c 4.84824,-0.78675 7.18596,-0.13401 9.25297,2.5837 2.3572,3.09925 2.35824,3.27304 0.008,1.17646 -3.49786,-3.11915 -10.31487,-3.16925 -13.38572,-0.0984 -1.29887,1.29886 -2.36157,5.21022 -2.36157,8.6919 0,5.11463 1.0393,6.70991 5.41193,8.30693 2.97656,1.08712 4.24674,2.04651 2.82259,2.13196 -1.42415,0.0854 -4.33832,-0.78063 -6.47594,-1.92466 -3.59382,-1.92336 -45.60577,-0.2036 -77.57651,3.17559 -9.1943,0.97178 -10.68392,0.47741 -21.15574,-7.02131 z m 61.91887,1.97294 c 15.89745,-1.07312 29.84549,-1.95111 30.99563,-1.95111 1.40297,0 2.09119,-12.31812 2.09119,-37.42904 v -37.42904 l -4.42795,0.93171 c -2.43537,0.51245 -21.03274,1.51093 -41.3275,2.21884 l -36.89955,1.28712 v 38.17935 38.17937 l 10.33187,-1.01804 c 5.68253,-0.55993 23.33888,-1.89605 39.23631,-2.96916 z m -51.53616,-35.01455 v -36.9994 l -8.90854,-4.3281 c -4.89969,-2.38046 -9.32763,-4.32811 -9.83988,-4.32811 -0.51224,0 -0.93134,15.77283 -0.93134,35.05072 v 35.05074 l 8.3639,6.11702 c 4.60014,3.36435 9.02809,6.18891 9.83988,6.27678 0.81179,0.0878 1.47598,-16.48999 1.47598,-36.83965 z m 100.77942,34.03416 c 0.76814,-1.19171 2.26179,-4.33301 3.31921,-6.98067 1.2155,-3.04343 1.96848,-3.62747 2.04734,-1.58798 0.0687,1.77425 -1.42503,4.91556 -3.31921,6.98067 -1.89417,2.0651 -2.81548,2.77969 -2.04734,1.58798 z m 33.20791,-7.00946 c -0.36861,-11.29634 5.57008,-24.79189 14.5534,-33.07245 4.84519,-4.46612 9.84769,-8.12024 11.11666,-8.12024 1.26897,0 -1.33625,2.63931 -5.78937,5.86512 -9.46683,6.85775 -13.99666,14.59032 -17.31569,29.55845 -1.32004,5.95313 -2.4743,8.54924 -2.565,5.76912 z M 12.720189,217.46847 C 12.228189,216.01059 9.9041387,170.43505 7.5556183,116.1895 2.9086983,8.8556478 2.8873283,9.2534248 13.591889,3.8389608 c 3.87966,-1.962368 52.4927,-2.494685 229.912611,-2.517562 l 224.99269,-0.02901 5.75254,5.752545 c 5.39239,5.3923872 5.73214,6.6553132 5.42661,20.1717552 l -0.32594,14.419209 -1.15004,-15.4307 C 476.38083,1.7917188 481.46631,3.2299988 397.62125,3.4157308 c -38.57542,0.08545 -68.80875,0.684971 -67.18517,1.332265 1.62358,0.647295 10.92227,3.03012 20.66375,5.2951672 17.53416,4.076964 17.71796,4.182028 18.32847,10.475591 l 0.61669,6.357324 h 22.84407 c 18.30361,0 23.54481,-0.634167 26.36968,-3.190643 1.93911,-1.754854 4.887,-2.668237 6.55088,-2.029741 3.52396,1.352269 4.05275,8.289035 0.78577,10.308129 -2.54856,1.575109 -28.58826,1.305725 -45.48392,-0.470535 L 369.7956,30.303637 v 7.142113 7.142112 h -16.33263 -16.33262 l 0.74436,-6.395922 c 0.73459,-6.311768 0.62789,-6.403294 -8.10961,-6.956177 -7.13105,-0.45123 -9.03172,0.123214 -9.76715,2.951964 -0.85032,3.270554 -0.92886,3.275251 -1.14145,0.06827 -0.20372,-3.073422 -2.73804,-3.443958 -23.55531,-3.443958 -12.82987,0 -28.77048,0.568951 -35.42358,1.264338 l -12.09654,1.264332 v 6.763932 c 0,6.390349 0.30549,6.696833 5.53114,5.549088 3.04213,-0.668161 7.55535,-0.466038 10.02937,0.449165 3.4525,1.277163 2.16484,1.664008 -5.53888,1.664008 -7.01045,0 -11.66678,1.207216 -15.44132,4.003366 -7.23325,5.358332 -14.26007,15.966565 -14.26007,21.528135 0,2.482021 -0.79091,5.001579 -1.7576,5.59902 -2.3319,1.44119 0.35366,-10.222251 3.92174,-17.032143 1.53829,-2.935944 5.68139,-7.46619 9.20688,-10.067215 l 6.40998,-4.729135 -18.02781,-1.410291 c -21.92837,-1.715425 -23.36891,-2.219006 -23.36891,-8.169245 v -4.709388 h -44.27946 -44.27947 v 7.871904 c 0,7.616902 -0.20719,7.864361 -6.39592,7.639063 -12.867821,-0.468447 -16.235811,-2.251642 -16.235811,-8.596099 0,-4.032472 -1.0809,-6.085138 -3.44396,-6.540223 -2.53546,-0.488284 -3.44396,0.629418 -3.44396,4.236998 0,2.695131 1.10699,5.34692 2.45997,5.89286 1.46957,0.592985 1.07341,1.055172 -0.98399,1.147988 -2.54916,0.114998 -3.44396,-1.378572 -3.44396,-5.748563 v -5.903928 h -19.37475 c -20.99346,0 -24.79783,1.692093 -26.20126,11.653709 -0.36929,2.621186 -1.91358,5.175409 -3.43175,5.67605 -4.92858,1.625271 -1.02184,-13.77191 4.7716,-18.805741 4.55914,-3.961373 7.18414,-4.427946 24.91214,-4.427946 h 19.81602 l -1.22999,-6.149926 c -0.67649,-3.382459 -1.22998,-8.695994 -1.22998,-11.8078572 v -5.657931 h -32.36187 c -31.38076,0 -32.52927,0.144105 -37.88354,4.753316 C 6.9856183,12.524541 6.7200283,13.553449 7.0188183,28.185435 7.6327583,58.250054 13.760269,201.17268 14.794549,209.55236 l 1.05042,8.51042 31.83706,-1.38239 c 17.51039,-0.76029 31.39427,-0.93302 30.85308,-0.38381 -0.5412,0.54922 -15.36968,1.63397 -32.95219,2.41057 -25.99329,1.14808 -32.13539,0.91659 -32.86273,-1.23868 z M 104.1188,40.836151 c 0,-4.750795 -0.66673,-5.545333 -3.93595,-4.690413 -4.848191,1.267829 -5.204371,7.822053 -0.492003,9.053522 1.894183,0.495001 3.665363,1.002731 3.935963,1.12829 0.27059,0.125557 0.49199,-2.345571 0.49199,-5.491399 z m 9.83988,-9.040134 c 0,-13.447837 -0.34986,-14.759821 -3.93595,-14.759821 -3.58609,0 -3.93595,1.311984 -3.93595,14.759821 0,13.447836 0.34986,14.75982 3.93595,14.75982 3.58609,0 3.93595,-1.311984 3.93595,-14.75982 z m 121.9844,7.37991 c -0.0157,-2.976564 -0.96017,-6.740318 -2.09689,-8.363898 -1.63533,-2.335762 -1.81757,-2.061705 -0.873,1.312884 0.96917,3.4625 0.49977,4.083369 -2.49506,3.300203 -2.53034,-0.6617 -3.68881,-2.746429 -3.68881,-6.638249 0,-3.582342 0.78583,-5.181872 2.13199,-4.339533 4.64946,2.909387 6.70003,1.751643 7.38485,-4.169449 0.66541,-5.753342 0.26709,-6.218143 -5.60311,-6.538142 l -6.31943,-0.344489 0.11021,14.120322 c 0.0606,7.766177 0.50654,14.784513 0.99099,15.596303 0.48446,0.81179 3.04256,1.475982 5.68464,1.475982 3.93582,0 4.79834,-0.97785 4.77366,-5.411934 z m 9.87002,-8.363898 c 0,-12.463849 -0.37486,-13.775833 -3.93596,-13.775833 -3.56109,0 -3.93595,1.311984 -3.93595,13.775833 0,12.463848 0.37486,13.775832 3.93595,13.775832 3.5611,0 3.93596,-1.311984 3.93596,-13.775832 z m -23.64585,5.411934 c -0.0238,-5.055766 -0.46757,-5.777387 -2.1178,-3.443958 -1.57105,2.221473 -2.33467,2.343222 -3.08582,0.491994 -1.39331,-3.433786 -8.42747,-3.080589 -9.79838,0.491994 -2.1326,5.557432 0.87779,8.855892 8.08246,8.855892 6.53486,0 6.94788,-0.381764 6.91954,-6.395922 z m 136.1926,-4.91994 0.37213,-11.315863 0.71008,11.315863 c 0.60647,9.6646 1.27009,11.315862 4.54782,11.315862 3.41833,0 3.83775,-1.423059 3.83775,-13.021371 0,-12.052481 -0.29288,-12.944787 -3.93596,-11.992099 -2.16477,0.566101 -3.93595,0.375796 -3.93595,-0.422901 0,-0.798697 -3.98515,-2.364108 -8.85589,-3.478692 l -8.8559,-2.026516 v 15.47079 15.470789 h 7.87191 7.87191 z m -14.14794,-2.45997 c 0,-3.247161 0.73799,-5.903929 1.63997,-5.903929 0.90201,0 1.64,2.656768 1.64,5.903929 0,3.24716 -0.73799,5.903928 -1.64,5.903928 -0.90198,0 -1.63997,-2.656768 -1.63997,-5.903928 z m 8.64939,0.05581 c -0.11355,-3.211526 0.55062,-5.371214 1.47599,-4.799307 2.06982,1.279224 2.25162,10.649154 0.2065,10.642937 -0.81179,-0.0026 -1.56891,-2.632101 -1.68249,-5.84363 z m -4.71344,-0.05581 c 0,-1.082387 0.88559,-1.967976 1.96798,-1.967976 1.08239,0 1.96798,0.885589 1.96798,1.967976 0,1.082386 -0.88559,1.967976 -1.96798,1.967976 -1.08239,0 -1.96798,-0.88559 -1.96798,-1.967976 z M 92.060689,25.104408 c 1.76214,-1.116226 2.41413,-4.174743 1.87478,-8.794691 -0.45851,-3.927453 0.0914,-7.3894022 1.23424,-7.7703522 1.13364,-0.377882 -0.81699,-0.687058 -4.33475,-0.687058 -6.90168,0 -7.46163,1.395417 -5.16594,12.8738442 1.30787,6.539366 2.11126,7.089679 6.39167,4.378257 z m 9.897531,-9.284271 c -2.121613,-2.556388 -1.73367,-2.784414 2.8009,-1.646311 7.17898,1.80181 6.66781,-0.199041 -0.70771,-2.770161 -3.53892,-1.233672 -5.495741,-1.312093 -4.803803,-0.192518 0.64214,1.039003 0.22967,1.889097 -0.916598,1.889097 -3.71196,0 -2.43638,11.449079 1.359838,12.205354 4.260303,0.848727 5.732523,-5.310219 2.267373,-9.485461 z M 204.48559,15.06822 V 3.2603628 l -55.59533,0.09466 -55.595331,0.09466 11.315861,5.84082 c 9.94276,5.1320732 11.31587,6.5533952 11.31587,11.7131972 v 5.87238 h 44.27947 44.27946 z m 12.9217,9.629773 c 0.93839,-1.518352 1.85857,-1.369329 3.03798,0.491994 1.10274,1.740356 1.70234,-0.175189 1.72198,-5.501303 0.0274,-7.406875 -0.54972,-8.373515 -6.16746,-10.3318752 -9.23983,-3.221018 -9.54622,-2.974541 -9.54622,7.6793872 0,9.120448 0.35122,9.839881 4.80379,9.839881 2.64209,0 5.40955,-0.980137 6.14993,-2.178084 z m 100.02987,0.09429 c 0.60208,-0.604899 0.55025,-5.697036 -0.11513,-11.315861 L 316.112,3.2603628 265.71073,3.4157298 c -27.72069,0.08545 -49.28877,0.603884 -47.92904,1.152073 1.35974,0.548189 1.97249,1.805332 1.36167,2.793652 -0.61082,0.98832 0.49065,1.657955 2.44771,1.488077 7.401,-0.642427 12.60305,0.38497 11.44411,2.2601942 -0.6613,1.069989 0.0197,1.476639 1.51245,0.903667 1.49314,-0.572972 5.08149,-0.141952 7.97412,0.957821 4.13393,1.571717 5.25932,3.300475 5.25932,8.079077 v 6.079489 l 34.28067,-0.618846 c 18.85438,-0.340365 34.77332,-1.113762 35.37542,-1.718663 z m 19.5291,-13.716797 c -0.88563,-0.82836 -5.50467,-2.1399622 -10.26456,-2.9146792 l -8.65429,-1.408577 1.27438,6.3719702 c 0.70094,3.504584 1.27441,7.70626 1.27441,9.337059 0,2.32326 1.70397,2.736539 7.8719,1.909246 5.16228,-0.692407 7.98577,-0.273547 8.20272,1.21686 0.18204,1.249986 0.68517,-1.164957 1.11825,-5.366544 0.43309,-4.201586 0.0628,-8.31699 -0.82281,-9.145342 z m 89.36767,12.64364 c -0.65396,-0.653941 -2.35134,-0.723857 -3.77196,-0.155372 -1.56992,0.62823 -1.1036,1.094555 1.18899,1.188987 2.07456,0.08545 3.23691,-0.379678 2.58297,-1.033621 z M 90.834959,3.9249868 c -1.35299,-0.545941 -3.56696,-0.545941 -4.91994,0 -1.35299,0.54594 -0.246,0.992619 2.45997,0.992619 2.70596,0 3.81295,-0.446679 2.45997,-0.992619 z m 122.014531,0 c -1.35298,-0.545941 -3.56696,-0.545941 -4.91994,0 -1.35298,0.54594 -0.246,0.992619 2.45997,0.992619 2.70597,0 3.81296,-0.446679 2.45997,-0.992619 z m 112.17465,0 c -1.35298,-0.545941 -3.56695,-0.545941 -4.91994,0 -1.35298,0.54594 -0.246,0.992619 2.45997,0.992619 2.70597,0 3.81296,-0.446679 2.45997,-0.992619 z M 90.342959,215.80177 l -10.82387,-1.32644 9.83989,-0.18243 c 5.41193,-0.10036 11.611061,0.57865 13.775831,1.50889 4.43723,1.90673 2.76745,1.90673 -12.791851,0 z m 94.462871,-5.90393 c 0,-5.56483 0.52715,-6.1047 5.41193,-5.54265 4.29469,0.49416 5.41194,1.63838 5.41194,5.54265 0,3.90427 -1.11725,5.04849 -5.41194,5.54265 -4.88478,0.56205 -5.41193,0.0222 -5.41193,-5.54265 z m 9.83988,0 c 0,-1.08239 -1.77118,-1.96798 -3.93595,-1.96798 -2.16478,0 -3.93595,0.88559 -3.93595,1.96798 0,1.08239 1.77117,1.96798 3.93595,1.96798 2.16477,0 3.93595,-0.88559 3.93595,-1.96798 z M 177.42592,198.691 c -1.55087,-0.58569 -2.45997,-4.86845 -2.45997,-11.58888 v -10.65987 h 15.54564 15.54565 l 0.85737,9.34788 c 0.47156,5.14134 0.33933,9.89837 -0.29382,10.57117 -1.49415,1.58769 -25.98479,3.542 -29.19487,2.3297 z m 9.98045,-3.06099 c 2.67623,-2.83842 3.42515,-11.31586 0.99968,-11.31586 -0.89774,0 -1.63224,2.26624 -1.63224,5.03609 0,2.85625 -0.85183,4.50962 -1.96798,3.8198 -2.90301,-1.79415 -2.39447,-6.18028 1.12456,-9.69931 2.81139,-2.81139 2.63249,-3.09253 -1.96798,-3.09253 -4.68566,0 -5.06051,0.65599 -5.06051,8.85589 0,9.23284 3.41097,11.79812 8.50447,6.39592 z m 18.27376,-2.62092 c -0.657,-1.71211 -1.19454,-5.61435 -1.19454,-8.67165 0,-4.68977 -0.65035,-5.38866 -4.16032,-4.47079 -3.6107,0.94422 -3.74069,1.32278 -0.98399,2.86551 3.36398,1.88258 4.32794,8.50988 1.49265,10.26218 -0.92603,0.57232 -1.26559,-1.14659 -0.75457,-3.8198 0.51102,-2.67322 0.13245,-4.86039 -0.84127,-4.86039 -1.35023,0 -1.92126,7.91566 -0.81631,11.31586 0.0879,0.2706 2.02581,0.492 4.30639,0.492 2.97253,0 3.80831,-0.88134 2.95196,-3.11292 z m -11.63861,-6.19751 c -0.49896,-1.91478 -0.94003,-0.82465 -0.98013,2.42251 -0.0401,3.24716 0.36814,4.8138 0.90721,3.48141 0.53908,-1.33238 0.57189,-3.98915 0.0729,-5.90392 z m 211.17766,11.13671 c 4.75723,-1.38652 42.35154,-2.20718 38.37554,-0.83771 -1.08239,0.37281 -11.26667,1.03646 -22.63173,1.47474 -11.36507,0.43831 -18.44978,0.15154 -15.74381,-0.63703 z m 52.41496,-3.27744 c 11.70798,-0.67191 12.10795,-0.8753 13.28384,-6.75472 0.66681,-3.33407 1.39618,-15.91413 1.62083,-27.95568 l 0.40843,-21.89374 0.69806,18.69578 c 0.38391,10.28267 0.13638,23.34511 -0.55005,29.02764 l -1.24809,10.33188 -13.14224,-0.37919 -13.14223,-0.37919 z M 293.04453,162.66641 c -6.81003,-1.43344 -6.82117,-1.45243 -0.98399,-1.67877 3.24716,-0.12591 7.23231,0.62954 8.85589,1.67877 3.2768,2.11764 2.18857,2.11764 -7.8719,0 z m 181.63528,-45.26345 c -0.0557,-11.36506 0.52271,-33.061983 1.28528,-48.215398 1.36409,-27.105739 1.38815,-27.217221 1.48775,-6.887916 0.0557,11.365062 -0.52271,33.061997 -1.28528,48.215404 -1.36409,27.10574 -1.38815,27.21722 -1.48775,6.88791 z m -256.91038,11.65023 c -1.89417,-1.10326 -3.44396,-3.48735 -3.44396,-5.29798 0,-2.61416 0.63086,-2.3914 3.06355,1.08177 3.65694,5.22099 6.22723,5.48079 11.04932,1.11686 2.02895,-1.83616 3.59892,-2.29561 3.59892,-1.05322 0,2.18854 -6.14396,6.33294 -9.21851,6.21833 -0.88295,-0.0329 -3.15514,-0.9625 -5.04932,-2.06576 z m 66.55978,-2.9349 c -7.61775,-7.61774 1.25858,-21.63118 10.55132,-16.65786 2.23735,1.1974 4.06793,3.57242 4.06793,5.27783 0,2.33979 -0.87754,2.01702 -3.57582,-1.31521 -3.08132,-3.80526 -4.18624,-4.08926 -7.98986,-2.05363 -5.31816,2.84619 -5.10178,11.36592 0.37311,14.69094 2.8982,1.76014 4.28233,1.2951 7.37991,-2.47949 2.09695,-2.55528 3.81266,-3.72553 3.81266,-2.60054 0,2.92823 -5.70515,8.23049 -8.8559,8.23049 -1.46895,0 -4.06247,-1.39164 -5.76335,-3.09253 z m -70.00374,-7.97243 c 0,-1.15546 1.77478,-3.707 3.94395,-5.67007 3.25879,-2.94916 4.79727,-3.18042 8.85589,-1.33119 2.70158,1.23092 4.91195,3.20586 4.91195,4.38877 0,1.1829 -1.39163,0.75909 -3.09254,-0.9418 -4.27576,-4.27577 -7.94861,-3.86852 -11.5557,1.2813 -1.68494,2.40562 -3.06355,3.42846 -3.06355,2.27299 z m 32.47161,-7.70176 c -7.4123,-2.53636 -18.69577,-13.117057 -18.69577,-17.531327 0,-1.10394 2.1568,1.16686 4.79289,5.04621 11.33147,16.675757 36.23135,16.199327 47.79948,-0.91459 9.44326,-13.970386 6.74955,-33.501336 -6.0074,-43.557064 -3.4328,-2.705928 -5.22622,-4.92969 -3.98535,-4.941693 3.62436,-0.03505 13.8469,12.78576 16.42629,20.601404 4.4341,13.435467 -1.33421,29.544653 -13.32535,37.21371 -9.67918,6.19043 -17.42444,7.36158 -27.00479,4.08335 z M 226.44406,85.915357 c 0,-2.70597 0.44669,-3.812952 0.99262,-2.45997 0.54594,1.35299 0.54594,3.56696 0,4.91994 -0.54593,1.352986 -0.99262,0.246 -0.99262,-2.45997 z m 91.45435,-44.852161 c -0.52914,-0.856179 2.29677,-1.23479 6.2798,-0.841359 10.89111,1.075795 12.18781,2.06829 2.93006,2.242682 -4.53627,0.08545 -8.68071,-0.545145 -9.20986,-1.401323 z"
       id="path188" />
  </g>
</svg>
