<?xml version="1.0" encoding="UTF-8" standalone="no"?>
<svg
   xmlns:dc="http://purl.org/dc/elements/1.1/"
   xmlns:cc="http://creativecommons.org/ns#"
   xmlns:rdf="http://www.w3.org/1999/02/22-rdf-syntax-ns#"
   xmlns:svg="http://www.w3.org/2000/svg"
   xmlns="http://www.w3.org/2000/svg"
   id="svg8"
   version="1.1"
   viewBox="0 0 500 500"
   height="500mm"
   width="500mm">
  <defs
     id="defs2" />
  <metadata
     id="metadata5">
    <rdf:RDF>
      <cc:Work
         rdf:about="">
        <dc:format>image/svg+xml</dc:format>
        <dc:type
           rdf:resource="http://purl.org/dc/dcmitype/StillImage" />
        <dc:title></dc:title>
      </cc:Work>
    </rdf:RDF>
  </metadata>
  <g
     transform="translate(0,203)"
     id="layer1">
    <path
       id="path1175"
       d="M 177.43967,286.40869 C 157.7596,282.0894 131.45756,276.33374 118.9907,273.61832 106.52384,270.90287 94.871815,267.86084 93.097294,266.85821 91.322783,265.85558 78.75029,251.75706 65.158425,235.52819 L 40.445918,206.0211 v -36.025 c 0,-23.13295 0.792523,-36.81754 2.214582,-38.2396 1.451429,-1.45144 1.755737,-7.75765 0.883063,-18.29991 -1.680454,-20.30049 -3.61336,-214.9785 -2.191703,-220.74325 0.606533,-2.45948 11.99736,-12.37158 26.78817,-23.3106 l 25.732921,-19.03163 38.205159,-12.77154 c 21.01284,-7.02435 49.7065,-16.85533 63.7637,-21.84662 33.97013,-12.0618 47.13124,-15.88305 54.70432,-15.88305 3.46216,0 20.40328,3.1639 37.64693,7.0309 17.24362,3.867 38.67163,8.57229 47.61779,10.45621 12.94346,2.72567 17.43297,4.6748 21.98034,9.54279 l 5.71461,6.11749 V -55.24478 56.493137 l 20.958,4.034752 c 11.5269,2.219115 25.33282,3.740891 30.67982,3.381762 35.54438,-2.387412 59.44474,56.714699 33.44782,82.711609 -4.73756,4.73758 -12.0369,8.28007 -26.88127,13.04596 -19.39803,6.22789 -26.71027,6.85145 -36.22404,3.08909 -3.33383,-1.31844 -3.57819,1.30727 -3.57819,38.4485 0,34.93289 -0.44257,40.40553 -3.5782,44.24541 -3.61385,4.42551 -22.69047,10.4127 -107.85701,33.85093 -19.11778,5.26129 -38.83396,10.8746 -43.81374,12.47399 -11.0241,3.54072 -6.27692,4.05831 -49.21932,-5.36645 z m 47.16439,-0.15969 c 1.84641,-3.45001 1.23774,-3.83395 -6.07813,-3.83395 -9.1731,0 -12.76921,3.44589 -7.56635,7.2503 4.39576,3.21427 10.9779,1.56621 13.64448,-3.41633 z m -17.76957,1.35559 c -1.39885,-3.64539 -0.23644,-3.30226 -41.66292,-12.29923 -18.55549,-4.02986 -41.92587,-9.15506 -51.93414,-11.38931 -10.00829,-2.23424 -18.469255,-3.78992 -18.802148,-3.45703 -2.863379,2.8634 7.646298,6.53808 39.081168,13.66465 36.02758,8.16778 70.08015,15.7364 72.99578,16.22424 0.80812,0.13516 0.95315,-1.09928 0.32226,-2.74332 z m 29.0847,-0.93412 c 3.26038,-1.03324 21.5698,-6.23017 40.68759,-11.54873 92.87593,-25.83807 96.37917,-27.10114 94.76305,-34.16555 -0.58975,-2.57786 -5.13641,-1.75202 -27.28852,4.95655 -14.61948,4.42737 -39.00232,11.74107 -54.18409,16.25265 -62.06467,18.44382 -60.80772,17.99152 -61.93056,22.28529 -1.21129,4.63196 -0.38602,4.86232 7.95253,2.21979 z m -26.71191,-8.93815 c 0.64642,-2.5755 0.89397,-24.96075 0.55013,-49.74502 l -0.62516,-45.0623 -6.13405,-7.29686 c -4.28842,-5.10139 -8.98317,-8.01886 -15.60328,-9.69641 -10.18187,-2.58015 -18.59846,-9.86024 -22.09327,-19.11003 -1.2846,-3.4 -2.17476,-23.31823 -2.17476,-48.662753 0,-34.730308 0.60312,-44.073077 3.16495,-49.027118 3.64892,-7.056222 9.98615,-10.079899 17.93965,-8.559472 l 5.56252,1.063337 -0.5543,-41.58216297 -0.55429,-41.58214703 -23.51385,-5.326042 -23.51386,-5.32604 -0.65437,-6.683408 c -0.55507,-5.669057 -0.0895,-6.505516 3.06701,-5.511303 4.30105,1.354669 41.81459,9.337931 44.1039,9.385754 0.84343,0.01762 1.53351,-12.878343 1.53351,-28.657696 0,-21.183659 -0.66869,-28.888409 -2.55585,-29.449109 -7.8226,-2.32418 -89.639644,-19.5591 -92.850338,-19.5591 -2.102762,0 -13.716126,7.46467 -25.807492,16.58818 l -21.984282,16.588164 0.108282,154.776152 0.108292,154.776154 20.399052,23.90288 c 11.219486,13.14659 20.990277,23.90289 21.71287,23.90289 0.722594,0 -0.07066,-1.61019 -1.762802,-3.57819 -19.119842,-22.237 -38.432801,-45.95644 -38.360953,-47.11352 0.04941,-0.79625 4.419943,3.58338 9.71224,9.7325 5.292297,6.14909 15.209208,17.6484 22.037583,25.554 l 12.415222,14.37379 20.299706,4.54999 c 11.16483,2.50249 36.40158,8.16616 56.08164,12.58594 19.68007,4.41977 36.45451,8.125 37.27651,8.23382 0.82201,0.10878 2.02344,-1.90937 2.66984,-4.48485 z M 58.848066,-67.225716 c -6.842249,-6.842253 -3.554788,-20.446829 4.940857,-20.446829 7.462791,0 12.600809,16.400073 6.918306,22.082575 -3.536066,3.536061 -7.191565,3.031854 -11.859163,-1.635746 z m 4.681813,-8.178731 c -0.588172,-2.249152 -1.422132,-4.089366 -1.85326,-4.089366 -0.431128,0 -0.783868,1.840214 -0.783868,4.089366 0,2.249151 0.83396,4.089365 1.85326,4.089365 1.019289,0 1.372029,-1.840214 0.783868,-4.089365 z M 223.27779,279.12927 c 2.81477,-1.08013 3.23426,-7.12634 3.23426,-46.61713 V 187.1361 l -7.15639,0.83548 -7.15638,0.83546 v 44.41854 c 0,24.43021 0.6134,45.03196 1.36312,45.78166 1.69713,1.69716 5.48669,1.74473 9.71539,0.12207 z m 96.26732,-28.37913 c 16.86864,-4.98351 35.73083,-10.70887 41.916,-12.72302 l 11.24576,-3.66211 0.63038,-9.88786 c 0.55473,-8.70143 0.18668,-9.76693 -3.06703,-8.87996 -14.07089,3.83577 -14.94315,3.73461 -14.94315,-1.73271 0,-4.88494 -0.48911,-5.15155 -7.15639,-3.90076 l -7.15639,1.34254 v -12.33708 c 0,-12.28653 0.0292,-12.34676 7.15639,-14.6989 5.83141,-1.92454 7.15639,-3.3852 7.15639,-7.88919 0,-4.66842 1.35036,-5.99414 8.68989,-8.53131 10.65773,-3.68423 12.08402,-9.07261 4.71848,-17.82606 l -5.20427,-6.18492 -23.01536,7.19865 c -12.65846,3.95925 -43.02771,13.55572 -67.48722,21.32549 l -44.47185,14.12688 v 45.60387 45.60389 l 30.15906,-8.94328 c 16.58749,-4.91879 43.96069,-13.02068 60.82931,-18.00416 z m 60.31815,-12.68657 c 0,-2.75737 -4.06735,-3.88622 -4.11727,-1.14271 -0.0164,0.84343 -0.5437,3.83378 -1.17411,6.64522 -1.10625,4.9336 -1.03403,4.97343 2.0726,1.14272 1.77032,-2.18295 3.21878,-5.1733 3.21878,-6.64523 z m 0,-15.81376 v -11.09285 l -8.23677,0.5867 c -4.53021,0.32267 -8.90072,1.25603 -9.71224,2.07412 -0.81151,0.8181 1.97493,0.84295 6.19209,0.0552 l 7.66755,-1.43224 v 10.45097 c 0,5.74804 0.92011,10.45097 2.04469,10.45097 1.12457,0 2.04468,-4.99179 2.04468,-11.09286 z m -21.13737,-13.9545 c -0.56721,-1.40572 -1.03131,-0.25559 -1.03131,2.55585 0,2.81144 0.4641,3.96157 1.03131,2.55585 0.56723,-1.40572 0.56723,-3.70598 0,-5.1117 z m 14.49215,-0.48672 c 4.26985,-1.22733 4.60054,-2.48055 4.60054,-17.43502 v -16.11263 l -7.66757,2.64822 -7.66755,2.6482 -0.60018,15.81293 c -0.65417,17.23606 -1.63027,16.16493 11.33476,12.4383 z m -13.80161,-11.61734 v -8.07846 l -7.66756,0.63459 c -6.71832,0.55605 -7.74971,1.35211 -8.3312,6.43019 -1.04637,9.13776 0.48463,10.90332 8.63016,9.95238 7.07318,-0.82575 7.3686,-1.18412 7.3686,-8.9387 z M 44.010434,154.1112 c -0.383274,-8.71545 -0.696867,-1.58463 -0.696867,15.8463 0,17.43092 0.313593,24.56175 0.696867,15.84629 0.383274,-8.71546 0.383274,-22.97713 0,-31.69259 z m 182.501616,27.43284 c 0,-4.47996 -2.06631,-5.23221 -8.35255,-3.04083 -8.11552,2.82909 -7.50615,5.76707 1.19616,5.76707 4.60054,0 7.15639,-0.97366 7.15639,-2.72624 z M 333.85789,150.5602 c 13.49491,-4.14743 25.21867,-8.18891 26.05282,-8.98104 1.16746,-1.10866 -1.31935,-11.62827 -3.83971,-16.24265 -0.19833,-0.36318 -20.45924,5.75854 -45.02416,13.6038 -24.56489,7.84529 -54.3246,17.20409 -66.13264,20.79733 -11.80805,3.59327 -21.71565,6.76575 -22.01692,7.04997 -0.30125,0.28423 0.84322,3.18397 2.54326,6.44388 1.70005,3.2599 3.09667,6.96638 3.1036,8.23663 0.008,1.36346 16.55543,-2.9497 40.39508,-10.52876 22.21037,-7.06111 51.42377,-16.23172 64.91867,-20.37916 z m 24.868,27.06486 c -0.56721,-1.40572 -1.03131,-0.25558 -1.03131,2.55585 0,2.81144 0.4641,3.96158 1.03131,2.55586 0.56723,-1.40572 0.56723,-3.70599 0,-5.11171 z m -136.30321,-5.55471 c 0,-3.97225 -3.8322,-3.92601 -8.96073,0.10816 -2.94363,2.31545 -5.35204,3.25538 -5.35204,2.08875 0,-1.16661 1.91902,-3.14816 4.26449,-4.40342 2.34546,-1.25526 3.73126,-2.8155 3.07955,-3.46722 -0.65171,-0.6517 -3.03079,0.48555 -5.28683,2.52725 -2.25604,2.0417 -4.1019,2.68183 -4.1019,1.42253 0,-1.2593 1.86598,-3.28828 4.14664,-4.50886 2.28064,-1.22057 3.60651,-3.09315 2.94635,-4.1613 -1.76551,-2.85666 -4.03324,-2.39721 -9.32748,1.8898 l -4.73219,3.83193 5.90038,6.25144 c 5.62621,5.961 6.16809,6.11304 11.66208,3.27199 3.16892,-1.63879 5.76168,-3.82173 5.76168,-4.85105 z m 149.11165,1.72248 c 4.32319,-1.50707 5.90139,-2.99137 4.58272,-4.31005 -2.50521,-2.5052 -17.27591,1.97905 -15.57643,4.72886 1.4992,2.42577 2.99748,2.36871 10.99371,-0.41881 z m 6.47599,-14.68487 c -1.61879,-1.6188 -2.23643,-1.08824 -2.23643,1.92109 0,5.40562 2.85939,8.27491 3.76995,3.78299 0.38661,-1.9072 -0.30347,-4.47404 -1.53352,-5.70408 z m -179.21104,-2.95207 c 1.23961,-4.05186 0.68556,-4.60054 -4.64561,-4.60054 -8.95218,0 -12.49166,11.39531 -3.93474,12.66785 4.86426,0.72339 6.30558,-0.63174 8.58035,-8.06731 z m 215.82358,1.67382 c 14.10079,-10.02668 17.83488,-35.58454 8.32338,-56.96921 -8.34959,-18.77231 -27.43766,-30.999963 -32.78763,-21.003467 -3.00268,5.610569 -2.62724,8.313149 1.15487,8.313149 6.21991,0 16.70908,13.101858 20.25536,25.300648 2.85814,9.83171 3.01736,13.35668 0.98579,21.82524 -2.72258,11.34894 -11.37251,20.34864 -19.55782,20.34864 -6.22984,0 -6.44014,3.61675 -0.35428,6.0932 5.92215,2.40985 15.48673,0.70922 21.98033,-3.9082 z M 183.645,144.09701 c -2.73275,-5.85269 -4.14699,-6.72987 -10.94366,-6.78785 -7.16299,-0.0612 -7.68855,0.31203 -6.38618,4.53395 2.53439,8.21582 6.95666,15.59917 10.54641,17.60809 2.75025,1.53911 4.20611,0.81647 6.71655,-3.33393 2.89015,-4.77816 2.89672,-5.95962 0.0668,-12.02026 z m 24.14944,14.8173 c 2.98494,-1.57545 19.68883,-7.28276 37.11976,-12.68288 17.43092,-5.40014 32.09129,-10.10715 32.57861,-10.46005 0.48732,-0.35291 0.0143,-1.51274 -1.0497,-2.57739 -2.39887,-2.39886 -66.28852,17.56827 -66.28852,20.71684 0,1.19428 -1.26805,1.68481 -2.81786,1.09008 -2.83129,-1.08646 -7.40556,2.08972 -7.40556,5.14211 0,2.30841 1.65015,2.05055 7.86327,-1.22871 z m 18.97171,-0.3 c 4.92083,-1.74043 10.64818,-2.72288 12.72741,-2.18321 2.07926,0.53968 3.20962,0.41041 2.51194,-0.28728 -0.6977,-0.69768 10.94266,-5.16413 25.86746,-9.92542 14.92477,-4.7613 40.70755,-12.97695 57.29503,-18.25699 l 30.15908,-9.60008 v -9.18028 c 0,-6.941 -0.6845,-8.91761 -2.80621,-8.10344 -1.5434,0.59226 -9.59435,3.046 -17.89097,5.45274 -30.54966,8.86211 -40.64331,12.6834 -40.64331,15.38694 0,6.03398 -10.50288,15.1165 -21.037,18.19205 -27.20279,7.94212 -58.59832,19.05048 -57.35536,20.29344 1.73939,1.73941 0.74936,1.89789 11.17193,-1.78847 z m 159.23116,-0.8724 c 0,-1.09571 -2.77846,-3.42897 -6.17437,-5.18507 -3.39589,-1.75608 -8.91654,-6.97834 -12.2681,-11.60503 -7.45872,-10.29647 -8.15066,-7.68556 -0.8216,3.10013 2.89969,4.26725 8.19031,9.53799 11.75693,11.71276 7.53439,4.59409 7.50714,4.58691 7.50714,1.97721 z m 45.82336,-5.04311 c 11.96588,-1.31353 22.29706,-13.3142 24.58257,-28.55495 4.1926,-27.958328 -19.41472,-61.561116 -39.38026,-56.05407 l -6.80097,1.875894 6.71474,4.525047 c 9.30413,6.270062 19.62123,20.377228 22.37103,30.589249 3.22515,11.97725 1.65082,34.22329 -2.91506,41.19172 -5.26252,8.03163 -6.10019,5.45271 -1.29211,-3.97806 4.48835,-8.8036 5.30661,-23.98891 1.94486,-36.09266 -4.74235,-17.074613 -23.70427,-36.01635 -34.05852,-34.022314 -2.8513,0.549119 -2.26555,1.539135 2.81869,4.764152 22.09333,14.014133 31.44309,48.450662 19.6347,72.317532 -2.40556,4.86207 -3.04842,7.57285 -1.48896,6.27861 1.50936,-1.25266 5.05056,-2.53072 7.86929,-2.84015 z M 399.093,151.27204 c 11.62379,-5.29614 15.36327,-30.49853 6.77518,-45.66159 -6.36676,-11.241158 -16.89871,-18.084344 -25.6762,-16.683307 -8.5139,1.358979 -12.46457,4.567617 -15.98057,12.978977 -5.35823,12.81852 -2.15112,29.17437 7.98404,40.71767 9.34253,10.64057 17.07108,13.12549 26.89755,8.64825 z m -23.49219,-12.17006 c -11.83925,-12.67396 -12.03664,-31.5431 -0.4255,-40.676406 6.96388,-5.477787 11.27506,-5.196581 18.91729,1.233922 8.66137,7.288064 12.35153,15.154074 12.35153,26.328704 0,18.6513 -18.37319,26.46309 -30.84332,13.11378 z m 11.49466,-9.95901 c -6.72806,-7.02257 -7.17468,-18.90221 -0.8765,-23.31365 5.4528,-3.81927 3.35379,-7.435724 -4.31575,-7.435724 -15.67292,0 -16.8167,31.076744 -1.54047,41.854864 4.31592,3.04508 4.84694,2.96684 8.26623,-1.21836 3.54871,-4.3436 3.5045,-4.62857 -1.53351,-9.88713 z m 13.06621,8.84619 c 2.33078,-2.96308 4.23777,-6.12888 4.23777,-7.03514 0,-2.23228 -10.40946,3.29881 -12.54434,6.66549 -4.81441,7.59232 2.37362,7.91218 8.30657,0.36965 z m -0.26054,-9.33425 c 5.15894,-5.15894 0.69349,-22.08259 -5.82668,-22.08259 -1.47569,0 -0.0546,8.39531 3.07199,18.14704 0.9942,3.10101 0.81303,4.39674 -0.50123,3.5845 -1.13206,-0.69965 -3.19981,-6.03055 -4.59502,-11.84643 -2.34797,-9.78741 -2.75044,-10.28241 -5.40835,-6.65152 -3.27419,4.47281 -1.9951,12.29404 2.89868,17.72442 3.77641,4.19047 6.95021,4.53498 10.36061,1.12458 z m -163.56705,12.16586 c 21.69987,-7.25804 30.32675,-10.93893 26.63738,-11.36551 -7.6419,-0.88363 -66.19722,18.09174 -62.68994,20.3152 1.49418,0.94725 2.9961,1.73637 3.33764,1.75359 0.34152,0.0164 15.06324,-4.79926 32.71492,-10.70328 z m 42.961,5.71237 c 5.97687,-1.96523 10.50713,-3.93309 10.06721,-4.37298 -1.03693,-1.03695 -26.04596,7.39285 -26.04596,8.77931 0,0.57937 1.15013,0.62892 2.55585,0.11022 1.40572,-0.51883 7.44603,-2.55122 13.4229,-4.51647 z m -58.17456,-8.27119 c 15.89796,-5.06223 29.91592,-9.8928 31.15101,-10.73458 1.57181,-1.07127 1.26502,-3.10876 -1.02235,-6.79001 l -3.26797,-5.25948 -32.20375,10.21097 c -32.65608,10.35439 -36.33179,12.74187 -29.75013,19.32352 3.40755,3.40756 2.86299,3.51231 35.09319,-6.75042 z M 179.48435,98.804168 V 62.410449 l -7.15639,0.835477 -7.15639,0.835458 v 35.558265 35.558241 h 7.15639 7.15639 z M 288.82237,127.1207 c 4.21004,-8.14134 4.14232,-8.28027 -4.03686,-8.28027 -6.49487,0 -7.15639,0.5355 -7.15639,5.79326 0,10.4069 6.36624,11.8214 11.19325,2.48701 z m -97.06993,-25.77313 c 0,-10.50781 -0.91804,-19.637483 -2.04468,-20.333779 -1.12457,-0.695028 -2.04468,-4.429764 -2.04468,-8.299409 0,-3.869643 -0.9201,-7.035712 -2.04468,-7.035712 -2.26914,0 -2.95669,61.79161 -0.71251,64.03579 3.47903,3.47903 6.84655,-10.47342 6.84655,-28.36689 z m 5.58029,26.48094 c -0.67944,-0.67944 -2.44299,-0.75206 -3.91898,-0.16133 -1.6311,0.65271 -1.14661,1.13721 1.23534,1.23532 2.15542,0.0887 3.36307,-0.39449 2.68364,-1.07391 z m 78.25171,-7.06408 c 0,-4.65025 -0.92698,-6.01337 -4.08937,-6.01337 -2.68479,0 -4.08936,1.36312 -4.08936,3.96869 0,2.18278 -1.14086,4.67379 -2.53524,5.53557 -1.71783,1.06168 -0.89378,1.98559 2.55585,2.8656 6.84513,1.7462 8.15812,0.72316 8.15812,-6.35649 z m -57.25112,1.07558 9.20108,-3.07238 -8.93747,0.89739 c -4.91563,0.49355 -9.93021,1.89009 -11.14353,3.1034 -2.97961,2.97962 -0.0837,2.7325 10.87992,-0.92841 z m 44.57409,0.68085 c 4.75023,-4.75024 2.9134,-9.81448 -3.55976,-9.81448 -7.56169,0 -8.97869,2.20964 -5.03116,7.84551 3.54159,5.05633 5.13771,5.42217 8.59092,1.96897 z m -54.87183,-4.61321 c 1.35909,-1.6376 1.87749,-3.93786 1.15202,-5.11172 -2.15802,-3.49174 -6.65786,-2.42848 -7.77324,1.83675 -1.69307,6.47436 2.31901,8.45883 6.62122,3.27497 z M 364.29325,95.972017 c 3.5438,-5.408534 11.32435,-9.846519 17.26264,-9.846519 2.09055,0 4.53163,-2.614229 5.95007,-6.37209 l 2.4052,-6.37207 -6.55747,1.283979 c -14.60451,2.859632 -24.30831,16.637788 -25.22205,35.812013 l -0.54472,11.43012 1.67354,-10.40426 c 0.92043,-5.72236 3.18519,-12.711392 5.03279,-15.531173 z m -119.37905,17.608693 7.15639,-2.63088 -6.13406,-0.13066 c -3.37372,-0.0718 -8.89436,1.77344 -12.26809,4.10062 -5.67039,3.91137 -5.74769,4.1201 -1.02234,2.76146 2.81144,-0.80836 8.33208,-2.65362 12.2681,-4.1006 z m -25.43816,0.21303 c 3.88831,-2.94095 3.8799,-3.00332 -0.41279,-3.06702 -2.40998,-0.0358 -4.91139,1.31514 -5.55872,3.00199 -1.49314,3.89112 0.87881,3.91695 5.97151,0.065 z m 107.25227,-7.3067 26.55407,-8.371787 V 8.1505975 c 0,-88.9882535 -0.0444,-89.9520745 -4.08936,-88.8045385 -2.24916,0.638071 -5.86035,1.66021 -8.02487,2.271421 -2.9615,0.836259 -4.10008,-0.0493 -4.60054,-3.578195 -0.56077,-3.954339 -1.70678,-4.588849 -7.31026,-4.047519 l -6.64521,0.641969 V -97.38646 c 0,-11.72421 0.17625,-12.10423 7.15639,-15.43284 4.81807,-2.29758 7.15639,-4.81338 7.15639,-7.69957 0,-3.10285 2.25903,-5.1743 8.17873,-7.49963 7.97547,-3.13286 8.17873,-3.45906 8.17873,-13.12595 0,-5.4523 -0.67019,-9.91326 -1.48928,-9.91326 -0.8191,0 -13.47058,3.62614 -28.11439,8.05809 -64.67951,19.57527 -88.80147,26.7633 -100.74485,30.02068 l -12.77927,3.48534 v 75.318037 c 0,41.4249264 0.33302,75.318038 0.74003,75.318038 0.40702,0 13.6926,-3.660616 29.52356,-8.134689 41.36334,-11.689921 43.77732,-11.939904 49.16463,-5.091055 4.18286,5.317648 4.40377,7.698354 4.40377,47.457519 0,36.52912 0.39393,41.70785 3.09384,40.67179 1.7016,-0.65295 15.04316,-4.95451 29.64789,-9.559 z m -35.24814,-27.006761 0.56061,-34.248438 h -7.20583 -7.20583 v 34.88916 34.889159 l 6.64522,-0.64072 6.64522,-0.64073 z m -15.89573,20.958001 c 0,-9.17799 -0.72421,-12.268098 -2.87516,-12.268098 -1.89603,0 -3.34957,3.449502 -4.26827,10.129174 -1.49591,10.876634 -0.46743,14.407024 4.19708,14.407024 2.23797,0 2.94635,-2.94956 2.94635,-12.2681 z m -39.73003,7.95014 c 0.77273,-1.25033 0.137,-3.07644 -1.41283,-4.05807 -4.1888,-2.65314 -5.29755,-2.26938 -6.47729,2.24197 -0.78441,2.99954 -0.0628,4.08938 2.70788,4.08938 2.0775,0 4.40951,-1.02299 5.18224,-2.27328 z m -26.25358,-1.00675 c -0.67945,-0.67942 -2.44299,-0.75206 -3.91899,-0.16133 -1.6311,0.65271 -1.14661,1.13722 1.23534,1.23532 2.15542,0.0887 3.36307,-0.39447 2.68365,-1.07391 z m 12.37656,-2.69884 c 1.75287,-4.698817 0.68291,-30.823384 -1.26269,-30.830192 -0.74748,-0.0021 -1.05633,6.898187 -0.68634,15.33512 0.5656,12.897472 0.15867,15.339892 -2.55585,15.339892 -1.77571,0 -3.22856,0.9201 -3.22856,2.04467 0,3.66944 6.22731,2.14793 7.73344,-1.88949 z m 24.07952,0.93218 c 3.33438,-2.522 3.43689,-3.0124 0.64115,-3.06703 -1.8303,-0.0358 -4.47326,1.31514 -5.87323,3.002 -3.26244,3.93101 0.066,3.97238 5.23208,0.065 z M 204.02054,93.281889 c 0,-8.633101 -0.71253,-11.245756 -3.06702,-11.245756 -2.30322,0 -3.06703,2.461184 -3.06703,9.882627 0,5.435462 0.61341,10.49605 1.36314,11.24575 3.39193,3.39195 4.77091,0.53549 4.77091,-9.882621 z m 9.71224,9.957011 c 4.14288,-1.11025 4.56292,-2.37877 4.22231,-12.751336 l -0.37822,-11.518455 -0.75097,10.734585 c -0.62295,8.904635 -1.41079,10.734586 -4.62146,10.734586 -3.1468,0 -4.01366,-1.815925 -4.6363,-9.712245 -0.75734,-9.604918 -0.7699,-9.582325 -1.13437,2.044683 -0.38373,12.241632 -0.21603,12.482152 7.29901,10.468182 z m 48.68249,-6.693779 c -0.76173,-1.232494 -2.61236,-2.240892 -4.11255,-2.240892 -3.81808,0 -5.90707,6.483971 -2.72319,8.452501 3.22166,1.99186 8.78267,-3.061408 6.83574,-6.211609 z m -25.6798,3.893159 c 0,-1.124582 -2.07025,-1.980011 -4.60054,-1.900964 -4.38973,0.137198 -4.41316,0.22422 -0.51117,1.900964 2.24915,0.9665 4.31939,1.82193 4.60053,1.90096 0.28115,0.079 0.51118,-0.77638 0.51118,-1.90096 z m 11.90597,-4.600538 c 0.86976,-2.530295 1.22531,-10.351207 0.79013,-17.379805 -0.63861,-10.314341 -1.44638,-12.748126 -4.18781,-12.61784 -2.12429,0.10101 -2.4392,0.54773 -0.84074,1.192726 1.67736,0.67683 2.55586,5.606765 2.55586,14.342775 0,11.566792 -0.53297,13.450844 -4.06636,14.374856 -4.47481,1.170193 -3.59639,4.687826 1.17062,4.687826 1.64832,0 3.70856,-2.070243 4.5783,-4.600538 z M 230.60141,85.103157 c 0,-8.6331 -0.71252,-11.245756 -3.06701,-11.245756 -2.30322,0 -3.06703,2.461185 -3.06703,9.882628 0,5.435461 0.6134,10.496052 1.36312,11.245755 3.39195,3.391945 4.77092,0.535482 4.77092,-9.882627 z m 13.26043,7.204952 c 0.51074,-0.82638 -1.34383,-1.068102 -4.12123,-0.53718 -4.71287,0.900928 -5.07027,0.369577 -5.35619,-7.962915 -0.22434,-6.537792 -0.54081,-7.356625 -1.18198,-3.058334 -1.44028,9.655033 0.83065,15.388385 5.60104,14.140883 2.27138,-0.59396 4.54764,-1.756076 5.05836,-2.582454 z M 367.03455,81.73078 c 4.4821,-4.695491 10.62439,-8.442189 16.56837,-10.106397 l 9.44574,-2.644634 -14.26027,-3.648532 c -22.46311,-5.747236 -21.44187,-6.377939 -21.25522,13.12672 0.0887,9.27775 0.66032,15.488473 1.27008,13.80161 0.60976,-1.686864 4.31385,-6.424803 8.2313,-10.528767 z M 44.021884,-51.520221 c -0.323433,-26.068943 -0.587728,-4.153037 -0.587315,48.7020154 4.12e-4,52.8550516 0.265047,74.1841816 0.588068,47.3980796 0.323031,-26.786102 0.322691,-70.031149 -7.53e-4,-96.100095 z M 262.76258,91.024211 c -0.67944,-0.679428 -2.44299,-0.752055 -3.91898,-0.161326 -1.6311,0.652704 -1.14662,1.137212 1.23533,1.235316 2.15542,0.08874 3.36307,-0.39448 2.68365,-1.073908 z m -5.58029,-14.099786 c 0,-8.633101 -0.71253,-11.245755 -3.06703,-11.245755 -2.3032,0 -3.06701,2.461185 -3.06701,9.882627 0,5.435462 0.6134,10.496053 1.36312,11.245755 3.39195,3.391946 4.77092,0.535482 4.77092,-9.882627 z m 12.43533,9.201073 c 1.03259,0 1.70725,-5.290617 1.49923,-11.756926 l -0.37823,-11.756927 -0.75097,10.734586 c -0.63091,9.018421 -1.38767,10.734585 -4.73348,10.734585 -2.19039,0 -3.98251,1.018538 -3.98251,2.263443 0,1.244885 1.4554,1.704939 3.23426,1.022342 1.77883,-0.682618 4.07909,-1.241103 5.1117,-1.241103 z m -60.48537,-8.178731 c 1.60889,-2.60327 -3.12812,-2.60327 -7.15639,0 -2.49345,1.611394 -2.22922,1.987922 1.41284,2.013379 2.46392,0.01636 5.04852,-0.888803 5.74355,-2.013379 z m 19.2468,-10.905071 c 32.40461,-10.241857 33.568,-10.799687 33.80479,-16.208384 0.15437,-3.526077 -0.80354,-5.601471 -2.58537,-5.601471 -1.55682,0 -16.30892,4.228078 -32.78246,9.395707 -16.47351,5.167629 -31.102,9.739294 -32.50772,10.159231 -2.68881,0.803274 -3.66826,13.268131 -1.02233,13.01091 0.84343,-0.08199 16.63531,-4.922206 35.09309,-10.755993 z m 7.33408,2.72634 c 1.60889,-2.60327 -3.12813,-2.60327 -7.15639,0 -2.49345,1.611394 -2.22922,1.987922 1.41283,2.013379 2.46393,0.01636 5.04853,-0.888804 5.74356,-2.013379 z M 400.82126,66.3692 c -1.40572,-0.567216 -3.70599,-0.567216 -5.11171,0 -1.40572,0.567216 -0.25559,1.031318 2.55585,1.031318 2.81144,0 3.96157,-0.464102 2.55586,-1.031318 z m -9.24367,-1.925866 c -0.67945,-0.679428 -2.44299,-0.752055 -3.91897,-0.161326 -1.63111,0.652704 -1.14663,1.137212 1.23532,1.235316 2.15543,0.08874 3.36308,-0.394481 2.68365,-1.073908 z M 213.899,56.300118 c 33.44304,-10.27995 40.52471,-12.679037 38.11024,-12.910801 -2.66779,-0.256077 -62.40506,17.622017 -63.90993,19.126883 -2.0905,2.090504 1.91976,1.124269 25.79969,-6.216082 z m 48.395,5.289187 c 1.6089,-2.603271 -3.12812,-2.603271 -7.15639,0 -2.49345,1.611393 -2.22921,1.987922 1.41283,2.013378 2.46393,0.01636 5.04854,-0.888804 5.74356,-2.013378 z m 121.10486,0.809346 c -0.67945,-0.679427 -2.44299,-0.752055 -3.91898,-0.161326 -1.6311,0.652704 -1.14662,1.137212 1.23533,1.235316 2.15542,0.08873 3.36308,-0.39448 2.68365,-1.073909 z m -201.5572,-7.835348 c 2.83579,-6.223892 1.01473,-11.376144 -4.02093,-11.376144 -4.45196,0 -9.51385,5.164766 -11.52276,11.756926 -1.27284,4.176755 -0.72603,4.600536 5.93604,4.600536 5.79178,0 7.81625,-1.049637 9.60765,-4.981318 z m 11.32487,-0.736065 c -4.62647,-0.954069 -9.59282,0.859074 -9.59282,3.502174 0,1.231247 2.55931,1.089305 6.64522,-0.368575 4.8786,-1.74072 5.6622,-2.573785 2.9476,-3.133599 z m 82.03629,-2.972519 c -0.41065,-4.258972 -1.74207,-6.64522 -3.70775,-6.64522 -3.93832,0 -5.31092,9.213444 -1.7124,11.49439 4.82844,3.060522 6.07523,1.945087 5.42015,-4.84917 z m 86.25829,-65.039352 c 0,-47.269048 -0.69642,-71.254165 -2.04468,-70.420887 -1.29909,0.802877 -2.04469,26.94289 -2.04469,71.684571 0,45.584146 0.72114,70.420888 2.04469,70.420888 1.32424,0 2.04468,-25.257988 2.04468,-71.684572 z M 190.55947,46.546838 c -0.70907,-1.847821 -2.11089,-3.359679 -3.11515,-3.359679 -2.79001,0 -2.17293,5.669332 0.72993,6.706068 3.45617,1.234355 3.90265,0.607946 2.38522,-3.346389 z m 15.00483,1.240857 c 0.5513,-1.674064 -1.33338,-2.555854 -5.46274,-2.555854 -6.07455,0 -7.89301,1.819236 -4.85506,4.857186 2.19628,2.196254 9.36303,0.597763 10.3178,-2.301332 z m 35.54845,-6.788327 c 33.71233,-8.981596 34.47169,-9.256238 34.47169,-12.46733 0,-2.478791 -1.20606,-2.228051 -38.25738,7.953468 -14.85641,4.082475 -27.47901,8.640605 -28.05023,10.129195 -0.57122,1.48857 -0.6699,2.706506 -0.2193,2.706506 0.45064,0 14.87546,-3.744816 32.05522,-8.321839 z m -33.4711,-40.4215394 0.55409,-41.5869906 -5.43037,4.271529 c -2.98671,2.349338 -6.68643,4.271525 -8.22164,4.271525 -2.25425,0 -2.79129,7.015571 -2.79129,36.4635051 0,20.0549439 0.65702,37.1205219 1.46003,37.9235499 0.80301,0.803009 4.25341,1.186387 7.66756,0.851938 l 6.20753,-0.608068 z m 83.35417,40.4412294 c 1.89375,-3.06412 -2.86877,-13.646499 -6.82466,-15.164513 -5.22725,-2.005895 -10.75255,6.650904 -8.04202,12.599888 2.28976,5.025442 12.28063,6.748967 14.86668,2.564625 z m -25.6348,-1.921265 c 0,-1.124576 -0.97441,-2.044683 -2.16535,-2.044683 -1.19095,0 -1.59669,0.920107 -0.90167,2.044683 0.69503,1.124575 1.66944,2.044682 2.16536,2.044682 0.49591,0 0.90166,-0.920107 0.90166,-2.044682 z m 8.19743,-0.99983 c -1.38971,-1.674473 -3.3576,-2.531011 -4.37309,-1.903395 -2.60998,1.613051 -0.11409,4.947907 3.70308,4.947907 2.59918,0 2.72442,-0.569075 0.67001,-3.044512 z M 202.86588,-46.57041 c -1.28341,-1.283431 -4.93316,3.909632 -4.88304,6.947913 0.0184,1.124576 1.37511,0.271636 3.01458,-1.89542 1.63948,-2.167056 2.4803,-4.440679 1.86846,-5.052493 z m -13.15812,-1.815074 c 0,-2.964875 -3.53291,-4.365411 -18.79309,-7.450048 -10.3362,-2.089323 -20.45739,-4.233988 -22.49151,-4.765925 -2.60482,-0.681173 -3.69842,0.175681 -3.69842,2.897764 0,3.19756 3.2658,4.617202 18.91331,8.221619 23.98102,5.524043 26.06971,5.611902 26.06971,1.09659 z m 11.62016,-4.91083 c -0.65271,-1.631112 -1.13722,-1.146609 -1.23532,1.23533 -0.0887,2.155435 0.39447,3.363076 1.07391,2.683646 0.67943,-0.679432 0.75206,-2.44297 0.16133,-3.918976 z m 6.78199,-27.219841 v -27.603215 h -8.17874 -8.17873 v 22.148938 22.148941 l 7.66757,5.250688 c 4.21716,2.887882 7.89758,5.342307 8.17873,5.45428 0.28114,0.111973 0.51117,-12.217862 0.51117,-27.399632 z m 132.25644,-5.495085 c -0.65271,-1.63111 -1.13722,-1.146609 -1.23532,1.23533 -0.0887,2.155435 0.39446,3.363076 1.07391,2.683647 0.67943,-0.679433 0.75206,-2.442971 0.16133,-3.918977 z m 14.79034,1.118082 c 2.05179,-1.769434 -7.29196,-0.465047 -10.05304,1.4034 -2.23987,1.515736 -1.41271,1.705438 3.06703,0.703392 3.37372,-0.75465 6.51742,-1.702706 6.98601,-2.106792 z m -1.36314,-3.669905 c 5.52316,-1.210227 5.62288,-1.503321 5.62288,-16.528237 0,-16.47725 -0.66564,-17.27403 -11.11265,-13.3021 -4.98594,1.89566 -5.24481,2.75033 -5.24481,17.31564 0,11.314063 0.6685,15.115604 2.55585,14.534163 1.40572,-0.433067 5.08615,-1.341826 8.17873,-2.019466 z m -16.01352,-2.395265 c 2.19454,-0.842119 3.23426,-3.839695 3.23426,-9.324502 v -8.0834 l -7.66756,0.6346 c -7.44271,0.61599 -7.686,0.88943 -8.2963,9.324498 -0.58263,8.052681 -0.25753,8.689905 4.4333,8.689905 2.78413,0 6.51746,-0.558495 8.2963,-1.241101 z M 69.0982,-119.38536 c 13.984392,-10.59049 19.914829,-16.29716 19.111579,-18.39041 -1.409052,-3.67193 -1.395003,-3.67956 -23.738833,12.9038 -11.256509,8.35447 -17.890972,14.68087 -17.890972,17.06023 0,2.07995 0.504451,3.78174 1.121001,3.78174 0.61655,0 10.245306,-6.90992 21.397225,-15.35536 z m 136.79815,3.66543 c -1.16178,-3.05573 -3.09188,-6.73615 -4.28911,-8.17873 -1.40051,-1.68749 -1.4414,-2.62286 -0.11473,-2.62286 1.13415,0 3.63079,3.3058 5.54809,7.34623 2.42123,5.10236 4.52214,7.05085 6.87818,6.3792 6.14802,-1.75261 68.43857,-20.29026 88.24653,-26.26214 10.68347,-3.22094 26.55532,-7.92194 35.27078,-10.44666 13.92818,-4.03476 15.84629,-5.1681 15.84629,-9.36295 0,-6.47124 -11.21843,-17.57907 -15.89072,-15.73404 -1.94358,0.7675 -32.47081,11.10315 -67.8383,22.96812 -74.76282,25.08117 -76.88161,25.90139 -78.62163,30.43583 -2.69336,7.01876 0.61316,11.03387 9.08663,11.03387 7.84849,0 7.95283,-0.0986 5.87799,-5.55587 z m 138.18496,-4.79834 c 1.12458,0.0607 5.11974,-0.90433 8.87813,-2.14471 7.98899,-2.6366 5.8067,-7.20969 -2.4514,-5.13704 -6.90417,1.73283 -11.58207,6.75102 -11.33462,12.15914 0.19915,4.35174 0.23448,4.34559 1.53351,-0.26673 0.73134,-2.59666 2.24981,-4.67145 3.37438,-4.61066 z m -154.90615,-1.2697 c 1.39392,-3.00189 2.30105,-5.69134 2.01584,-5.97656 -0.57507,-0.57505 -61.17309,-13.96539 -79.73286,-17.61856 -12.33472,-2.42788 -14.928678,-1.56598 -16.146077,5.36479 -0.721635,4.10842 5.060557,5.79033 63.725457,18.53633 27.838,6.0483 27.18391,6.05494 30.13764,-0.306 z m 172.28595,-19.04633 c 0,-6.81561 -0.90873,-12.2681 -2.04468,-12.2681 -2.25044,0 -2.86771,20.98694 -0.68155,23.17308 2.47564,2.47565 2.72623,1.47324 2.72623,-10.90498 z m -94.07647,-12.63801 68.47582,-22.87065 -13.26938,-2.75458 c -7.29817,-1.51502 -27.84192,-5.96347 -45.65278,-9.88544 l -32.3834,-7.13086 -68.27268,22.9134 c -37.54996,12.60235 -67.80388,23.38217 -67.23091,23.95514 1.44652,1.44654 78.45908,18.21365 84.74582,18.4508 2.81144,0.10606 35.92581,-10.09897 73.58751,-22.67781 z m -172.886928,6.71245 c -1.283429,-1.28343 -4.933172,3.90963 -4.88307,6.94791 0.01857,1.12457 1.375114,0.27163 3.014584,-1.89542 1.639481,-2.16706 2.480301,-4.44068 1.868486,-5.05249 z M 360.45288,-163.0377 c -1.58384,-6.38432 -8.7547,-14.60089 -12.74269,-14.60089 -1.91113,0 -1.14034,2.19514 2.40111,6.83822 2.86867,3.76102 5.21577,8.20821 5.21577,9.88264 0,3.92467 2.09111,5.98329 4.54023,4.46966 1.05884,-0.6544 1.32234,-3.61973 0.58558,-6.58963 z m -26.1264,-17.8809 c -0.67945,-0.67943 -2.44299,-0.75207 -3.91898,-0.16143 -1.63111,0.65271 -1.14663,1.13722 1.23533,1.23534 2.15543,0.0888 3.36308,-0.39448 2.68365,-1.07391 z m -32.71493,-6.13405 c -0.67944,-0.67943 -2.44299,-0.75207 -3.91898,-0.16143 -1.6311,0.65272 -1.14661,1.13722 1.23534,1.23533 2.15542,0.0888 3.36307,-0.39448 2.68364,-1.0739 z m -8.17873,-2.04469 c -0.67944,-0.67942 -2.44299,-0.75206 -3.91898,-0.16141 -1.6311,0.65271 -1.14661,1.13721 1.23534,1.23532 2.15542,0.0888 3.36307,-0.39447 2.68364,-1.07391 z m -16.82604,-4.01976 c -5.62288,-1.56462 -11.60357,-2.77217 -13.29044,-2.68345 -4.22112,0.22199 14.34237,5.48804 19.42449,5.51029 2.24915,0.0103 -0.51118,-1.26223 -6.13405,-2.82684 z m -17.93356,-4.15897 c -0.67946,-0.67942 -2.44299,-0.75206 -3.91899,-0.16142 -1.6311,0.65272 -1.14661,1.13722 1.23534,1.23533 2.15542,0.0888 3.36307,-0.39447 2.68365,-1.07391 z"
       style="fill:#000000;stroke-width:2.04468274" />
  </g>
</svg>
