<?xml version="1.0" encoding="UTF-8" standalone="no"?>
<!-- Created with Inkscape (http://www.inkscape.org/) -->

<svg
   xmlns:dc="http://purl.org/dc/elements/1.1/"
   xmlns:cc="http://creativecommons.org/ns#"
   xmlns:rdf="http://www.w3.org/1999/02/22-rdf-syntax-ns#"
   xmlns:svg="http://www.w3.org/2000/svg"
   xmlns="http://www.w3.org/2000/svg"
   xmlns:sodipodi="http://sodipodi.sourceforge.net/DTD/sodipodi-0.dtd"
   xmlns:inkscape="http://www.inkscape.org/namespaces/inkscape"
   width="500mm"
   height="500mm"
   viewBox="0 0 500 500"
   version="1.1"
   id="svg8"
   inkscape:version="0.92.4 5da689c313, 2019-01-14"
   sodipodi:docname="icon.svg">
  <defs
     id="defs2" />
  <sodipodi:namedview
     id="base"
     pagecolor="#ffffff"
     bordercolor="#666666"
     borderopacity="1.0"
     inkscape:pageopacity="0.0"
     inkscape:pageshadow="2"
     inkscape:zoom="0.35"
     inkscape:cx="947.14286"
     inkscape:cy="902.85714"
     inkscape:document-units="mm"
     inkscape:current-layer="layer1"
     showgrid="false"
     inkscape:window-width="1920"
     inkscape:window-height="1003"
     inkscape:window-x="0"
     inkscape:window-y="0"
     inkscape:window-maximized="1" />
  <metadata
     id="metadata5">
    <rdf:RDF>
      <cc:Work
         rdf:about="">
        <dc:format>image/svg+xml</dc:format>
        <dc:type
           rdf:resource="http://purl.org/dc/dcmitype/StillImage" />
        <dc:title></dc:title>
      </cc:Work>
    </rdf:RDF>
  </metadata>
  <g
     inkscape:label="Layer 1"
     inkscape:groupmode="layer"
     id="layer1"
     transform="translate(0,203)">
    <path
       style="fill:#000000;stroke-width:1.05380023"
       d="m 259.20475,236.30965 c -30.21473,-3.30821 -41.84402,-5.2314 -62.70112,-10.3692 -28.47314,-7.01389 -56.17898,-16.96764 -76.40051,-27.44805 -14.30769,-7.4154 -19.00823,-10.02502 -19.31968,-10.72575 -0.1932,-0.4347 -0.811978,-0.79036 -1.375062,-0.79036 -1.365944,0 -12.324319,-7.44515 -21.457278,-14.57812 C 59.276652,157.81313 47.703397,143.06068 41.724092,126.21949 37.820144,115.22371 39.039749,97.026907 44.326587,87.389661 45.619319,85.033184 46.959756,80.150354 47.364154,76.324753 L 48.08795,69.477559 38.255216,57.260195 C 20.64891,35.383988 10.987559,20.728288 6.7119864,9.4109507 0.97820328,-5.7662073 1.1485944,-4.8676213 1.216734,-19.568555 c 0.067802,-14.630373 1.0461142,-20.202802 5.5237441,-31.463177 7.2860719,-18.32305 18.8474329,-32.8512 34.6724089,-43.56979 4.246776,-2.87642 9.463091,-7.160148 11.591804,-9.519378 6.72613,-7.45447 17.196488,-14.95837 28.769859,-20.61882 6.16002,-3.01282 11.941117,-5.47785 12.84686,-5.47785 0.905744,0 1.907507,-0.42182 2.226135,-0.93737 0.318639,-0.51556 2.124907,-1.16821 4.013945,-1.45035 1.88905,-0.28215 8.06085,-1.76848 13.71514,-3.30295 15.94107,-4.32614 26.62782,-5.85177 48.71004,-6.95383 32.07233,-1.60062 69.35466,0.68693 94.33737,5.78833 4.34693,0.88763 10.51166,2.10297 13.69941,2.70075 3.18774,0.59779 8.16695,1.54486 11.0649,2.10462 2.89795,0.55975 7.05885,1.31416 9.24644,1.67646 2.1876,0.36231 4.23098,1.06896 4.54085,1.57034 0.30986,0.50137 1.93005,0.91159 3.60041,0.91159 1.67036,0 3.29631,0.41954 3.61321,0.93231 0.31691,0.51276 1.88608,1.17907 3.48704,1.48067 5.7002,1.07385 18.80896,4.73988 24.51375,6.85558 3.18776,1.18222 10.35595,3.79658 15.92935,5.8097 5.5734,2.01311 13.74003,5.37168 18.14807,7.46347 4.40805,2.0918 8.45419,3.80328 8.99141,3.80328 0.53722,0 3.75163,1.49072 7.14313,3.312718 3.3915,1.822 8.77452,4.60619 11.96227,6.18709 6.43234,3.19 28.6788,16.62777 29.5064,17.82307 0.2898,0.41856 3.58926,2.8254 7.33215,5.34855 6.66355,4.49202 27.93458,24.82829 32.51224,31.08348 6.05438,8.273051 10.82073,16.842154 13.00527,23.381227 1.31907,3.948442 4.19383,9.8796717 6.38834,13.1805117 2.19451,3.300839 3.99001,6.243787 3.99001,6.539873 0,0.296097 1.32941,2.811719 2.95425,5.5902743 5.37734,9.195573 7.96608,20.456728 9.35444,40.692249 0.415,6.04872 0.16228,11.385644 -0.72359,15.280102 -4.18205,18.385346 -5.14625,20.910359 -12.14409,31.802893 -4.62274,7.195512 -15.49886,18.239132 -21.30737,21.635452 -1.88366,1.10142 -3.42485,2.37454 -3.42485,2.82917 0,0.45461 -0.50731,0.82659 -1.12737,0.82659 -0.62007,0 -3.19511,1.42263 -5.72232,3.1614 -2.52722,1.73877 -4.87533,3.16139 -5.21802,3.16139 -0.34268,0 -2.58371,1.30408 -4.98003,2.89796 -2.39633,1.59388 -9.811,5.74493 -16.47706,9.22458 l -12.12011,6.32662 -2.32558,6.46239 c -1.69954,4.72266 -2.18555,7.91984 -1.8054,11.87622 0.56605,5.89101 -1.77533,17.28603 -5.18741,25.24609 -2.48102,5.788 -10.26268,15.10587 -16.10373,19.28285 -2.35382,1.68325 -5.10977,3.75086 -6.12435,4.5947 -2.7084,2.25268 -11.02427,6.38953 -17.65064,8.7806 -3.18774,1.15026 -8.40405,3.03636 -11.5918,4.19133 -6.12295,2.21844 -26.96397,5.6918 -45.08772,7.51431 -12.53549,1.26056 -38.05265,1.17983 -50.28119,-0.15907 z m 50.5824,-5.07314 c 32.19108,-2.4628 59.82837,-12.62468 73.88124,-27.16521 6.11627,-6.32849 9.12953,-11.92664 10.85156,-20.16038 3.98281,-19.04335 -12.53414,-44.96095 -41.16354,-64.59188 -4.25703,-2.91901 -8.45137,-5.89362 -9.32075,-6.61027 -2.84439,-2.34467 -21.95876,-12.37593 -32.93126,-17.282404 -2.75305,-1.231068 -7.02094,-3.157049 -9.4842,-4.279971 -9.74881,-4.444172 -36.66205,-13.171119 -49.26516,-15.974837 -4.63596,-1.03132 -8.87834,-2.063031 -17.3877,-4.228555 -23.73926,-6.04135 -82.19129,-8.868931 -106.43382,-5.148692 -18.06459,2.77219 -22.2154,3.556776 -23.13092,4.372247 -0.55061,0.490442 -1.79145,0.891709 -2.75743,0.891709 -4.106041,0 -22.494201,8.260188 -30.351151,13.634124 -8.892551,6.082252 -15.982514,14.842425 -18.876821,23.323699 -1.659202,4.86202 -1.648647,16.11137 0.01961,20.92637 1.950297,5.62895 8.284588,17.21428 11.868664,21.70762 15.082643,18.90905 42.137938,37.78203 73.239118,51.08946 4.34693,1.85995 9.32614,4.01267 11.06491,4.78385 5.73154,2.54201 34.63277,11.88889 42.15201,13.6323 4.05713,0.94066 11.17028,2.58967 15.807,3.66444 32.81926,7.60738 67.15746,10.09875 102.21862,7.41638 z m -76.40051,-19.54212 c -15.04293,-2.03166 -26.30616,-4.57103 -47.37517,-10.68104 -9.5215,-2.76125 -28.33771,-10.67854 -40.09025,-16.86877 -16.60771,-8.74755 -31.57856,-20.55201 -39.60294,-31.22679 -11.586562,-15.41355 -12.828564,-28.51823 -3.90293,-41.18112 12.9331,-18.348333 50.37491,-28.341177 93.53489,-24.963502 9.28801,0.726864 18.78413,1.718083 21.1025,2.202705 2.31836,0.484611 7.06046,1.429001 10.538,2.098639 15.18224,2.923517 33.80308,8.066725 42.15201,11.642688 1.15917,0.49651 4.47865,1.66283 7.3766,2.59184 8.18193,2.62293 24.23263,10.798 35.82921,18.24881 5.7959,3.72388 10.77511,7.06842 11.0649,7.43231 0.28979,0.36389 2.66085,2.54418 5.269,4.84509 5.5196,4.86938 12.70204,13.45315 15.54585,18.57895 4.9578,8.93614 5.7454,21.53138 1.87142,29.9276 -4.56505,9.89397 -20.5792,20.55729 -37.43947,24.92974 -15.83377,4.10624 -54.3118,5.33496 -75.87362,2.42285 z m 28.4526,-3.03768 c 0,-0.24717 -2.62336,-1.73289 -5.82969,-3.3016 -3.20634,-1.56872 -6.78548,-4.06728 -7.95364,-5.55236 -6.42433,-8.16722 4.60682,-15.03463 18.86789,-11.74615 7.97126,1.83811 10.82767,3.35698 14.78122,7.85983 3.97987,4.53281 4.11659,6.16391 0.7951,9.4854 -1.38751,1.38751 -2.28523,2.76024 -1.99497,3.05051 1.54723,1.54722 21.29027,-2.13172 33.58054,-6.25743 10.71484,-3.59686 14.69623,-5.97749 21.6721,-12.95869 6.94944,-6.95472 8.85499,-12.12584 7.89217,-21.41706 -0.94029,-9.07394 -7.17757,-19.17243 -17.75237,-28.74207 -13.54227,-12.25506 -35.19907,-24.44408 -58.26244,-32.79166 -16.32467,-5.90857 -29.31728,-9.111551 -53.74382,-13.249106 -10.05169,-1.702635 -50.55601,-2.342031 -57.93289,-0.914538 -29.27776,5.66557 -43.01609,12.427524 -49.98062,24.600234 -7.124038,12.45154 -3.24498,25.9212 11.96238,41.53822 4.65619,4.78161 9.06304,8.69385 9.79301,8.69385 0.72996,0 1.3272,-1.16109 1.3272,-2.5802 0,-3.19597 4.25151,-7.95781 7.10497,-7.95781 1.16664,0 2.75,-0.75769 3.51857,-1.68376 0.99561,-1.19963 2.4388,-1.51476 5.01929,-1.09602 1.99203,0.32327 4.49935,0.11814 5.57182,-0.45581 1.38027,-0.73871 2.80483,-0.60148 4.87632,0.46973 1.60952,0.83231 4.16955,1.27564 5.68897,0.98519 1.62007,-0.3097 3.87509,0.20084 5.45261,1.23446 1.4795,0.96941 3.74723,1.60744 5.03938,1.41785 2.2172,-0.32534 2.10395,-0.62777 -2.01276,-5.37519 -18.07896,-20.84885 5.61069,-39.06888 44.89784,-34.53157 25.12848,2.90213 49.03513,12.32445 60.99894,24.04154 6.93152,6.78856 8.74419,10.36614 8.74875,17.26698 0.004,5.81006 -0.12815,6.08046 -5.18921,10.63078 -8.12986,7.30946 -16.73689,9.62915 -35.55748,9.58315 -8.21289,-0.0201 -17.22289,-0.61289 -20.02221,-1.31735 -16.95029,-4.26562 -26.27181,-7.29504 -33.38546,-10.85 -6.68517,-3.34081 -8.42493,-3.30798 -5.02214,0.0948 3.06988,3.06988 3.26592,9.01332 0.38582,11.69654 -3.04362,2.83556 -11.16536,5.50059 -14.33717,4.7045 -1.40597,-0.35287 -2.87313,-0.12895 -3.26036,0.4976 -0.88549,1.43274 -5.50463,1.49461 -6.37558,0.0853 -0.35821,-0.57958 -1.86688,-1.05379 -3.35262,-1.05379 -4.77765,0 -1.07752,2.51954 9.9112,6.74886 5.66622,2.18081 11.25064,4.37583 12.40983,4.87784 3.73712,1.61845 11.40581,3.91921 18.9684,5.6909 4.05713,0.95045 9.03634,2.14172 11.06491,2.64728 10.23962,2.55187 25.59082,5.14297 33.7216,5.69181 8.48944,0.57305 17.9146,0.69874 17.9146,0.23892 z m -135.6536,-90.3765 c -2.63443,-1.29723 -3.81312,-3.94613 -2.86053,-6.42855 1.01325,-2.64048 6.11195,-3.92746 10.62392,-2.68165 6.27966,1.73389 8.96734,3.95077 8.60216,7.09534 -0.30335,2.61229 -0.63951,2.75091 -7.16797,2.95591 -3.76734,0.1183 -7.90625,-0.30518 -9.19758,-0.94105 z m 12.11166,-3.17737 c -0.58391,-1.75174 -6.87778,-3.23796 -10.19085,-2.40644 -2.63894,0.66232 -2.6623,0.73645 -0.68749,2.18045 2.55809,1.87053 11.48837,2.05605 10.87834,0.22599 z m 140.40274,88.75193 c 2.48875,-1.93007 2.54706,-2.20155 1.05381,-4.90726 -2.43507,-4.41222 -10.17985,-7.75985 -18.23203,-7.88065 -7.72782,-0.11593 -10.83162,0.61224 -11.64504,2.73199 -0.79196,2.0638 3.009,6.55618 7.01689,8.29333 1.85068,0.80215 4.5504,1.96501 5.99938,2.58415 4.46878,1.90951 12.84685,1.47406 15.80699,-0.82156 z m -16.70406,-30.70031 c 3.88623,-1.22652 8.64172,-3.54642 10.56773,-5.15532 3.22364,-2.69289 3.49737,-3.39664 3.44564,-8.85831 -0.0548,-5.78344 -0.20895,-6.08743 -6.11521,-12.05595 -6.21367,-6.2792 -21.35483,-14.99247 -29.8798,-17.19491 -10.24428,-2.64662 -21.44081,-4.67405 -31.7475,-5.74869 -6.62468,-0.69074 -19.9392,0.92012 -23.60416,2.85577 -1.00643,0.53154 -2.69935,0.96643 -3.76207,0.96643 -1.06272,0 -3.91441,1.69669 -6.3371,3.77041 -4.00888,3.43144 -4.40397,4.21306 -4.39465,8.69385 0.008,4.04593 0.67757,5.76302 3.75453,9.63409 2.05937,2.59086 5.967,6.30466 8.68362,8.25291 6.07468,4.35647 19.25388,10.74695 22.16366,10.74695 1.18061,0 2.43966,0.47421 2.79786,1.0538 0.35821,0.57959 1.6566,1.0538 2.88533,1.0538 1.22872,0 3.69034,0.44741 5.47025,0.99424 8.57201,2.63352 11.59808,3.01327 24.80941,3.11338 11.73447,0.0889 15.42199,-0.27918 21.26246,-2.12245 z m 88.07708,54.28336 c -0.35016,-0.35016 -1.25908,-0.38759 -2.01978,-0.0832 -0.84065,0.33639 -0.59096,0.5861 0.63667,0.63666 1.11087,0.0458 1.73328,-0.2033 1.38311,-0.55348 z m 5.5544,-2.52471 c 0,-0.5796 -0.20911,-1.0538 -0.4647,-1.0538 -0.25559,0 -0.75779,0.4742 -1.11599,1.0538 -0.35822,0.57958 -0.1491,1.0538 0.4647,1.0538 0.61379,0 1.11599,-0.47422 1.11599,-1.0538 z m 12.64561,-4.21521 c 0,-0.57959 -0.44622,-1.0538 -0.99161,-1.0538 -0.54538,0 -1.28469,0.47421 -1.64289,1.0538 -0.35821,0.57959 0.0879,1.0538 0.9916,1.0538 0.90359,0 1.6429,-0.47421 1.6429,-1.0538 z m 13.50811,-6.95843 c 17.16119,-11.07606 24.37406,-23.89711 23.07882,-41.0231 -2.21863,-29.3354 -39.1751,-62.93234 -95.08946,-86.445349 -15.6794,-6.593478 -46.11673,-16.57737 -58.9962,-19.351606 -5.79589,-1.248445 -12.43484,-2.686251 -14.7532,-3.195125 -12.86337,-2.823511 -26.53327,-5.054223 -40.04441,-6.534608 -14.8474,-1.626787 -57.52922,-1.627451 -68.49701,-0.0011 -11.65956,1.728986 -20.58904,3.370989 -23.71051,4.360046 -1.44898,0.459125 -4.768446,1.427483 -7.376603,2.151922 -25.741909,7.150057 -42.216932,18.361821 -49.665308,33.798764 -5.314243,11.0139 -4.769801,22.95555 1.664263,36.50387 3.658816,7.70443 15.505727,23.46666 17.637561,23.46666 0.743851,0 0.769116,-0.43859 0.07582,-1.31725 -7.669702,-9.72123 -11.199462,-15.79207 -15.073611,-25.9251 -0.744716,-1.94783 -1.323006,-7.61933 -1.289411,-12.64561 0.05462,-8.16362 0.423927,-9.82785 3.542931,-15.96346 3.551609,-6.986623 15.55943,-20.022201 18.443583,-20.022201 0.81429,0 1.480512,-0.356472 1.480512,-0.792167 0,-0.75544 7.348413,-4.737198 12.382147,-6.709312 4.160742,-1.630088 7.573119,-3.008116 10.011117,-4.042821 27.986619,-11.877722 102.539729,-11.871163 147.795479,0.01297 13.88918,3.647302 16.67779,4.300775 20.81916,4.878717 2.1771,0.303834 4.22047,0.976519 4.54084,1.494884 0.32037,0.518365 1.71204,0.942492 3.09261,0.942492 1.38056,0 2.80319,0.474214 3.16139,1.053801 0.35821,0.579588 1.57816,1.053802 2.711,1.053802 1.13283,0 2.88313,0.418886 3.88956,0.930851 2.87916,1.464631 6.55984,2.884627 13.94855,5.381296 15.075,5.093891 39.08287,17.203878 54.37164,27.426018 25.00642,16.71939 41.78137,36.26217 46.67516,54.37642 2.26442,8.3817 1.36292,18.75499 -2.32471,26.74964 -3.09881,6.71809 -17.23461,21.07601 -20.74999,21.07601 -0.57458,0 -1.04468,0.47421 -1.04468,1.0538 0,0.57959 -0.71132,1.0538 -1.58071,1.0538 -0.86938,0 -1.58069,0.47421 -1.58069,1.0538 0,2.24969 3.66387,0.82264 12.45431,-4.85083 z m 23.55211,-62.06708 c -0.67705,-1.4481 -1.82188,-3.93698 -2.54405,-5.53086 -4.50406,-9.9407 -23.61705,-30.20411 -36.79149,-39.00601 -3.0955,-2.06811 -5.86529,-4.10054 -6.15508,-4.51649 -0.2898,-0.41594 -2.30519,-1.75965 -4.47866,-2.986011 -2.17346,-1.226365 -5.73004,-3.2287 -7.9035,-4.449645 -2.17346,-1.220944 -4.4587,-2.630427 -5.07832,-3.132174 -2.09341,-1.695232 -25.11572,-12.740306 -31.80036,-15.256398 -3.64966,-1.373737 -8.40387,-3.274791 -10.56492,-4.224558 -7.34761,-3.22928 -8.14369,-3.522158 -12.88646,-4.740783 -2.60815,-0.670155 -5.69052,-1.583986 -6.8497,-2.030742 -1.15918,-0.446767 -5.66418,-1.874492 -10.01111,-3.172719 -4.34692,-1.298247 -9.08902,-2.749403 -10.538,-3.224787 -1.44897,-0.475406 -5.24265,-1.381413 -8.4304,-2.013365 -49.1166,-9.737093 -57.66819,-10.720646 -91.15372,-10.483939 -31.70374,0.224116 -40.8148,1.407205 -65.797698,8.543986 -14.625037,4.177887 -28.930834,11.684143 -36.951869,19.388627 -3.471891,3.334895 -6.069725,6.306243 -5.772957,6.603011 0.296769,0.296759 2.073649,-0.921666 3.948637,-2.707625 7.473851,-7.118971 18.572091,-12.866062 38.184476,-19.77337 4.9506,-1.743548 13.216531,-3.586216 21.076001,-4.698319 4.63672,-0.656089 11.60411,-1.649933 15.4831,-2.208525 9.57726,-1.379189 49.51187,-1.303984 62.49812,0.117688 22.82648,2.498936 37.14733,4.621407 48.47481,7.18438 19.9713,4.518712 53.55394,14.829371 65.33561,20.059542 2.31836,1.02919 6.34915,2.753705 8.95731,3.832265 15.575,6.440771 39.09201,19.913661 53.2169,30.487911 14.26615,10.68001 32.34793,30.9239 35.67024,39.93549 0.40451,1.09723 1.04117,1.68927 1.4148,1.31566 0.37363,-0.37363 0.12535,-1.86414 -0.55171,-3.31224 z m 3.12344,-5.53086 c 0.62748,-1.59387 2.93392,-9.06268 5.12543,-16.59735 2.19149,-7.53467 5.19392,-17.24592 6.67206,-21.58056 2.88422,-8.457991 2.54696,-9.779479 -2.36139,-9.252636 -1.99119,0.213719 -2.88156,1.302486 -4.10125,5.015086 -0.85686,2.60816 -1.91677,5.69052 -2.35536,6.84971 -1.99828,5.28136 -5.22634,17.13989 -5.22634,19.19939 0,1.25352 -0.41954,2.53841 -0.9323,2.85531 -1.78189,1.10128 -1.92916,7.46179 -0.27604,11.92213 0.91462,2.46779 1.8095,4.48688 1.98862,4.48688 0.17913,0 0.83908,-1.30408 1.46657,-2.89796 z m 23.16223,-9.58044 c 33.35057,-17.34004 47.31597,-29.6184 54.72608,-48.115118 3.99956,-9.983491 3.52473,-26.135647 -1.11524,-37.936814 -5.68068,-14.448066 -13.42987,-25.640163 -27.36118,-39.517507 -9.24503,-9.2092243 -29.42203,-25.365952 -35.74147,-28.61996 -1.50962,-0.777336 -3.63715,-2.218155 -4.72784,-3.201803 -1.0907,-0.983649 -4.41016,-3.009622 -7.37661,-4.502161 -2.96643,-1.49254 -7.52747,-3.970867 -10.13563,-5.507402 -6.80036,-4.006276 -31.33709,-16.127687 -32.6464,-16.127687 -0.6071,0 -1.92723,-0.42231 -2.93365,-0.93847 -1.57754,-0.80907 -6.38548,-2.99676 -14.47546,-6.58654 -1.15917,-0.51437 -5.66418,-2.07275 -10.0111,-3.46305 -4.34692,-1.39033 -11.08299,-3.74252 -14.96903,-5.22713 -3.88603,-1.48459 -10.76209,-3.70227 -15.2801,-4.92818 -4.51802,-1.22591 -9.63721,-2.63395 -11.37598,-3.12897 -3.05645,-0.87015 -7.5778,-2.13288 -15.2801,-4.26746 -3.78822,-1.04985 -9.47395,-2.21727 -20.54911,-4.21926 -3.47753,-0.62861 -8.69385,-1.59514 -11.5918,-2.14785 -20.80559,-3.96813 -29.36005,-5.1039 -50.58241,-6.71577 -39.34608,-2.98842 -82.71001,-1.08409 -106.433821,4.67403 -2.318359,0.5627 -6.112041,1.47652 -8.4304,2.03068 -9.820976,2.3476 -18.055298,4.55937 -20.022213,5.37807 -1.159174,0.48248 -4.478642,1.93591 -7.376599,3.22984 -2.897945,1.29392 -7.282698,3.22045 -9.743894,4.28117 -11.842513,5.10384 -27.890868,18.12503 -34.293477,27.824796 -5.3204324,8.060293 -8.1257432,17.955435 -8.1257432,28.661897 0,5.3364537 0.413572,10.7919257 0.91903,12.12327574 0.5054687,1.331351 1.5177029,4.31747296 2.2494176,6.63583396 2.8510216,9.0331333 7.0075986,16.4825903 16.1697016,28.9795053 3.320122,4.528571 15.410361,20.755921 17.207603,23.09579 1.04198,1.35658 1.575529,-1.340352 0.660506,-3.338628 -2.54084,-5.548756 -3.48369,-10.36645 -3.46878,-17.724385 0.03891,-19.201807 12.874002,-36.27099926 35.601457,-47.34586 12.925291,-6.298363 13.303781,-6.438498 27.610692,-10.222589 24.4169,-6.45813 35.19358,-7.690371 67.3632,-7.70251 14.82356,-0.0053 31.69403,0.519049 37.48992,1.165872 14.01169,1.563702 56.41567,9.199464 63.75492,11.480478 1.44897,0.450332 4.76845,1.39422 7.37659,2.097516 2.60816,0.703295 5.56554,1.706713 6.57196,2.229809 1.00642,0.523107 2.76238,0.951098 3.90217,0.951098 1.13977,0 3.1616,0.4248277 4.49295,0.9440557 1.33134,0.519229 4.55457,1.521709 7.16273,2.227713 2.60816,0.706015 5.92762,1.767265 7.37661,2.358342 1.44897,0.591076 3.58291,1.437089 4.7421,1.880043 1.15917,0.442943 3.76733,1.512277 5.7959,2.37628804 2.02856,0.86401 4.87382,1.91734696 6.3228,2.34076396 2.72831,0.797242 26.37892,11.3188583 29.95027,13.3241883 1.1135,0.625241 4.07732,2.267613 6.58624,3.649712 2.50893,1.382088 6.76415,3.727283 9.45604,5.211527 13.7075,7.557977 27.96714,18.468691 40.47723,30.971046 12.23606,12.228489 14.9521,15.760443 20.79579,27.042909 6.61531,12.772225 7.42965,30.529125 1.95185,42.559845 -0.65975,1.44897 -1.4374,2.8716 -1.72812,3.1614 -0.29072,0.28979 -2.14922,2.66084 -4.13003,5.269 -1.98079,2.60816 -4.05425,5.33487 -4.60769,6.05935 -1.50454,1.96958 -0.69519,1.68624 7.80012,-2.73074 z m -9.29725,-2.53826 c 3.09631,-4.2086 6.29587,-11.28323 8.08382,-17.87437 1.37802,-5.07995 0.77251,-13.95395 -1.02806,-15.06679 -1.87947,-1.161573 -5.93054,9.91052 -5.40152,14.7631 0.12636,1.15919 -0.77979,5.18998 -2.01367,8.95731 -3.78362,11.55233 -4.05049,12.6456 -3.08688,12.6456 0.50965,0 2.06048,-1.54118 3.44631,-3.42485 z m -20.49405,-9.77738 c 1.25104,-4.07349 2.27462,-8.43194 2.27462,-9.68547 0,-1.25352 0.4742,-2.5722 1.0538,-2.9304 0.57959,-0.35821 1.0538,-2.01794 1.0538,-3.6883 0,-1.67036 0.4742,-3.3301 1.05379,-3.68831 0.5796,-0.3582 1.0538,-1.57815 1.0538,-2.71099 0,-1.13283 0.43047,-2.88314 0.95657,-3.889564 1.07116,-2.049058 4.31244,-12.623925 4.31244,-14.069555 0,-0.51305 -1.10963,-0.932791 -2.46584,-0.932791 -2.50669,0 -2.87488,0.757096 -5.89352,12.118699 -1.93325,7.276391 -3.52133,12.775771 -4.26035,14.753211 -1.20855,3.23382 -2.85324,8.91873 -4.32574,14.95203 -1.09669,4.49354 -1.08456,5.76896 0.0681,7.15781 1.84743,2.22602 2.4203,1.39933 5.11855,-7.38637 z m -10.02854,-4.44892 c 0.31993,-1.59388 1.06384,-4.79479 1.65315,-7.11315 0.58931,-2.31837 1.36552,-5.63784 1.72492,-7.37661 0.35939,-1.73877 1.03546,-4.10982 1.50238,-5.269 0.46692,-1.159179 1.91114,-5.664172 3.20937,-10.011101 1.29824,-4.346929 2.75472,-9.08903 3.2366,-10.538002 0.48189,-1.448974 1.01735,-3.820024 1.18991,-5.269007 0.26715,-2.243407 -0.15841,-2.68081 -2.86672,-2.946483 -2.98573,-0.292899 -3.26252,-0.0021 -4.52055,4.742101 -3.17233,11.964399 -5.62143,20.619463 -6.49941,22.968696 -1.96389,5.254906 -3.1873,9.815096 -3.1873,11.880476 0,1.23567 -0.54945,3.45257 -1.221,4.92646 -1.01734,2.2328 -0.9022,3.03207 0.69022,4.79169 2.63755,2.91445 4.40034,2.64212 5.08843,-0.78607 z m -6.94233,-11.80713 c -0.24576,-1.7558 -0.57165,-2.1365 -0.94324,-1.10192 -1.99469,5.55359 -2.69312,8.38089 -2.19372,8.8803 1.05203,1.05203 3.51734,-5.06094 3.13696,-7.77838 z m 49.85964,-9.830556 c -0.60926,-1.747724 -1.10775,-4.115231 -1.10775,-5.261119 0,-6.181899 -12.31145,-24.687285 -24.07419,-36.18599 -7.72586,-7.552462 -26.42639,-22.536481 -28.12622,-22.536481 -0.44967,0 -2.2902,-1.123248 -4.09011,-2.496088 -5.17507,-3.947213 -23.78773,-14.203978 -32.7556,-18.050422 -2.31835,-0.994376 -7.06046,-3.144034 -10.538,-4.7770133 -3.47754,-1.632991 -9.64227,-4.153017 -13.6994,-5.600054 -20.43303,-7.287787 -26.08561,-9.169874 -35.30231,-11.754297 -5.50611,-1.5439547 -11.67083,-3.2743057 -13.6994,-3.8452227 -6.29679,-1.772176 -11.87007,-3.018579 -18.44151,-4.124227 -3.47754,-0.58509 -8.93095,-1.537262 -12.1187,-2.115913 -28.70481,-5.210674 -54.60371,-7.311225 -81.66952,-6.623883 -17.3751,0.441247 -29.49006,1.768308 -42.41545,4.646142 -2.46327,0.548439 -6.49405,1.424706 -8.95731,1.947243 C 88.298255,-14.49828 69.038683,-5.3605993 57.751789,5.0893367 48.609478,13.553724 40.912037,27.948382 41.836245,34.852337 l 0.403111,3.011217 0.813605,-3.161394 C 45.353858,25.7616 49.542585,18.408358 57.37292,9.5637517 c 5.291108,-5.97648 21.289312,-15.678218 30.589287,-18.550162 2.608157,-0.80543 5.1926,-1.8561627 5.74321,-2.3349787 0.55061,-0.478815 1.861132,-0.870565 2.912255,-0.870565 1.051123,0 2.734566,-0.42799 3.740988,-0.951097 6.15563,-3.199474 29.13115,-6.851123 50.98144,-8.102817 l 12.26858,-0.7028 1.84107,2.809831 1.84106,2.809822 1.19607,-2.410126 c 0.98836,-1.991608 2.18542,-2.466577 6.89372,-2.735254 11.14692,-0.636105 57.23042,3.525046 67.49024,6.094084 2.02856,0.507953 6.53356,1.483888 10.0111,2.168742 3.47754,0.684865 7.50833,1.617899 8.9573,2.073416 1.44898,0.455515 5.47977,1.4039347 8.95731,2.1075997 3.47753,0.703664 7.50832,1.647838 8.9573,2.098179 1.44898,0.450331 4.76845,1.40205 7.3766,2.114924 2.60815,0.712865 5.69052,1.704017 6.8497,2.202548 1.15918,0.498532 7.08681,2.55071304 13.17251,4.560406 6.08569,2.009692 14.26582,5.109045 18.17805,6.887459 6.71424,3.0521423 7.11315,3.4306473 7.11315,6.7493803 0,1.933747 -0.76079,5.040952 -1.69065,6.904888 -1.71671,3.441227 -1.47284,5.088376 0.56674,3.827858 0.61815,-0.382044 1.12391,-1.520508 1.12391,-2.529937 0,-3.387555 2.61228,-7.578624 5.12731,-8.226119 4.19046,-1.078849 33.30244,14.782775 51.7779,28.211099 19.77526,14.373051 39.69498,38.699498 40.54583,49.515584 0.1192,1.515351 1.00357,3.878556 1.96527,5.251544 1.02615,1.46506 1.74851,4.54064 1.74851,7.44471 0,2.72158 0.35566,5.81699 0.79036,6.87867 1.26956,3.10075 1.57595,-11.09149 0.31739,-14.701796 z m -53.61257,7.592166 c 0.97123,-3.14228 2.27531,-7.728635 2.89794,-10.191887 2.13552,-8.448473 3.52437,-13.443614 5.34727,-19.231861 4.05576,-12.878272 4.47362,-14.667373 3.82223,-16.364884 -0.41317,-1.076715 -1.32709,-1.519537 -2.3366,-1.132148 -0.91189,0.349925 -2.34228,0.636233 -3.1786,0.636233 -1.6224,0 -3.33454,3.483828 -4.66106,9.484201 -2.46478,11.149192 -3.26274,15.04018 -4.75113,23.167305 -1.03228,5.636656 -2.39841,9.751031 -3.69654,11.132811 -1.13251,1.20551 -2.0591,2.60491 -2.0591,3.10979 0,1.52975 4.54238,5.86211 5.73516,5.47003 0.613,-0.20151 1.90919,-2.93732 2.88043,-6.07959 z m -10.71742,-0.18079 c 0.008,-0.40282 7.42676,-29.33728 8.44258,-32.931257 0.49146,-1.738771 1.20227,-4.346929 1.57956,-5.795902 0.3773,-1.448972 1.0575,-3.582916 1.51154,-4.7421 1.42738,-3.644138 3.07986,-11.550057 2.52925,-12.100656 -0.67734,-0.677347 -2.79372,2.903871 -3.72592,6.304755 -0.39718,1.448972 -1.27553,4.531344 -1.95191,6.849702 -0.67637,2.318359 -1.46848,5.996461 -1.76023,8.173564 -0.29176,2.177092 -0.95459,4.220467 -1.47295,4.540834 -0.51837,0.320368 -0.9425,1.587815 -0.9425,2.816531 0,2.025839 -1.10938,6.190451 -3.16139,11.867873 -3.28916,9.100312 -4.14155,15.280116 -2.1076,15.280116 0.57959,0 1.0564,-0.11856 1.05957,-0.26346 z m 29.50063,-1.31725 c 0,-0.86939 -0.47421,-1.5807 -1.0538,-1.5807 -0.57958,0 -1.0538,0.71131 -1.0538,1.5807 0,0.86939 0.47422,1.58071 1.0538,1.58071 0.57959,0 1.0538,-0.71132 1.0538,-1.58071 z m -12.6456,-3.16139 c 0,-1.448987 -0.47421,-2.634512 -1.0538,-2.634512 -0.57959,0 -1.0538,1.185525 -1.0538,2.634512 0,1.44897 0.47421,2.63449 1.0538,2.63449 0.57959,0 1.0538,-1.18552 1.0538,-2.63449 z m -21.07601,-1.242438 c 0,-0.973135 0.46379,-3.225631 1.03066,-5.005548 0.56685,-1.779927 1.9459,-6.081483 3.06456,-9.559026 1.11865,-3.477543 2.6051,-8.930954 3.30322,-12.118699 0.69812,-3.187755 1.69012,-6.885186 2.20443,-8.216543 0.51433,-1.331348 0.93514,-3.489006 0.93514,-4.794782 0,-1.305787 0.41669,-2.82466 0.92599,-3.37527 0.50928,-0.55061 1.24208,-2.779403 1.62844,-4.952867 0.60407,-3.398195 0.42878,-3.951747 -1.25147,-3.951747 -3.18768,0 -5.22984,2.364049 -5.91702,6.849703 -0.35517,2.318359 -1.14381,6.586244 -1.75254,9.4842 -1.58154,7.529243 -2.93322,15.028287 -3.75985,20.859513 -0.73924,5.214733 -3.23263,8.119997 -6.96883,8.119997 -2.69276,0 -2.38228,3.9795 0.49793,6.382279 2.97218,2.479478 6.05934,2.621528 6.05934,0.27879 z m 35.82922,-1.981172 c 0,-0.903582 -0.47422,-1.349811 -1.05381,-0.991598 -0.57958,0.358202 -1.0538,1.097509 -1.0538,1.642889 0,0.54539 0.47422,0.991609 1.0538,0.991609 0.57959,0 1.05381,-0.739297 1.05381,-1.6429 z m -12.64561,-4.756399 c 0,-1.132833 0.416,-2.88313 0.92444,-3.889554 2.81952,-5.580991 4.34327,-14.723419 2.23697,-13.42165 -0.5796,0.358202 -1.05381,1.578145 -1.05381,2.710989 0,1.132844 -0.41599,2.883141 -0.92444,3.889565 -2.81951,5.580981 -4.34327,14.723419 -2.23696,13.421649 0.57959,-0.358212 1.0538,-1.578155 1.0538,-2.710999 z m -33.40295,-1.754757 c 0.30893,-1.600964 1.04817,-4.570581 1.6428,-6.599152 3.17952,-10.847129 5.87648,-21.315263 7.46612,-28.979498 0.72127,-3.477543 1.7404,-7.412091 2.26472,-8.743438 1.22256,-3.104336 1.23481,-8.644266 0.0191,-8.644266 -0.51381,0 -1.19638,1.304078 -1.51684,2.897945 -1.439,7.15728 -1.9785,9.357865 -2.77723,11.328356 -0.46987,1.159184 -1.43757,4.241545 -2.15043,6.849702 -0.71287,2.608157 -1.66459,5.927626 -2.11493,7.376598 -0.45034,1.448973 -1.39451,5.479763 -2.09818,8.957306 -0.70366,3.477544 -1.66429,7.508323 -2.13473,8.957295 -1.56722,4.82708 -2.15172,8.516371 -1.51299,9.549863 0.98028,1.586137 2.29399,0.255233 2.91258,-2.950711 z m -5.6748,-1.593593 c 1.04829,-2.697407 2.57215,-8.389455 4.30234,-16.070456 1.33134,-5.910322 3.00325,-12.38897 4.21521,-16.333904 0.44515,-1.448973 1.39357,-4.768452 2.1076,-7.376598 0.71402,-2.608158 1.7859,-6.072572 2.38194,-7.698674 1.27523,-3.479051 0.12196,-5.128826 -3.01231,-4.309201 -1.74266,0.455709 -2.42582,1.966716 -3.43867,7.605534 -2.58363,14.383985 -3.45884,18.708865 -4.42472,21.86486 -0.54475,1.779917 -0.99044,4.211609 -0.99044,5.403756 0,4.068181 -3.06867,9.801532 -5.24607,9.801532 -1.13101,0 -2.61129,1.036856 -3.28951,2.304124 -1.07755,2.013407 -0.84953,2.611078 1.80706,4.73687 3.78321,3.027276 4.43584,3.03569 5.58757,0.07223 z m 75.7014,-0.526906 c -6.07053,-12.50282 -13.27951,-21.456424 -27.13945,-33.707384 -11.31968,-10.005613 -9.97894,-8.940149 -18.64713,-14.818668 -3.59063,-2.435067 -7.02865,-4.427406 -7.64005,-4.427406 -0.61139,0 -1.11162,-0.474214 -1.11162,-1.053801 0,-0.579587 -0.80073,-1.053802 -1.77941,-1.053802 -1.50518,0 -1.42845,0.326969 0.49777,2.121511 1.73489,1.616296 2.12727,2.871078 1.64769,5.269007 l -0.6295,3.147485 5.66417,0.02341 c 7.02568,0.0291 10.1453,2.192149 10.60479,7.353168 0.30971,3.478502 0.56816,3.707711 4.54359,4.029566 5.36652,0.434482 7.70633,2.572495 8.11001,7.410573 0.28359,3.398774 0.68362,3.88037 3.48179,4.191574 4.6468,0.516826 6.84971,2.998089 6.84971,7.715219 0,3.609405 0.28503,4.051869 2.61021,4.051869 2.92365,0 6.4871,4.391153 5.22313,6.436331 -1.00911,1.632777 2.36333,4.101671 5.60277,4.101671 1.37239,0 2.3226,-0.35565 2.11153,-0.790343 z m -61.73139,-6.070326 c 0.39071,-2.891914 1.04515,-7.510527 1.45431,-10.263578 0.51385,-3.457424 0.37562,-5.005548 -0.44693,-5.005548 -0.65497,0 -1.19085,1.429064 -1.19085,3.175702 0,1.746628 -0.416,3.999124 -0.92443,5.005548 -1.43573,2.841891 -3.29076,9.156969 -3.29076,11.202685 0,1.190123 0.65561,1.721573 1.84414,1.494916 1.33918,-0.255402 2.03867,-1.791474 2.55452,-5.609725 z m -25.14914,-2.393974 c 0.30514,-1.575235 1.09956,-4.760892 1.7654,-7.07925 1.3541,-4.714811 2.70404,-10.323872 4.18475,-17.387705 0.93581,-4.464407 1.62437,-7.356975 4.32716,-18.178048 2.32587,-9.311986 2.38223,-10.274555 0.60175,-10.274555 -0.98343,0 -1.93172,1.201796 -2.28667,2.897946 -1.22654,5.861194 -2.81858,12.451836 -3.62745,15.016655 -0.45697,1.448972 -1.41504,4.768451 -2.12907,7.376598 -0.71402,2.608157 -1.66669,5.927625 -2.11702,7.376608 -0.45034,1.448973 -1.37913,5.479763 -2.06399,8.957295 -0.68486,3.477544 -1.74327,8.05055 -2.352,10.162244 -1.26712,4.395603 -0.3933,6.930602 1.7701,5.135132 0.75474,-0.626374 1.62191,-2.427686 1.92704,-4.00292 z m -6.2882,-1.019901 c 2.58389,-12.49393 4.35917,-19.623668 8.19975,-32.931255 1.26731,-4.391185 2.79798,-10.813007 3.70489,-15.54355 0.5646,-2.945038 0.36008,-3.424852 -1.45986,-3.424852 -3.57935,0 -4.80023,2.610087 -6.65441,14.226302 -3.66268,22.946298 -5.7756,30.791944 -8.52793,31.665495 -2.9445,0.934552 -2.63672,6.588238 0.42568,7.819179 3.50303,1.408039 3.65968,1.34224 4.31188,-1.811319 z m 15.11846,-4.742101 c 0.65203,-2.463252 1.73934,-7.323906 2.41627,-10.80145 0.67691,-3.477543 1.64634,-7.982536 2.1543,-10.011106 0.50795,-2.02856 1.16963,-5.585135 1.47038,-7.903493 0.30076,-2.318369 0.67966,-5.163623 0.84199,-6.322808 0.52466,-3.746221 -2.72198,-2.347546 -3.66915,1.580697 -2.20345,9.138399 -2.96331,12.430198 -3.89205,16.860809 -0.54671,2.608157 -1.52655,6.876043 -2.17741,9.484201 -2.44465,9.796196 -2.49463,11.591804 -0.32267,11.591804 1.45602,0 2.31217,-1.206436 3.17834,-4.478654 z m -26.44564,-3.951746 c 0.29327,-1.448984 0.93593,-4.294238 1.42812,-6.322808 2.54221,-10.477897 3.21613,-14.001078 3.21613,-16.813728 0,-1.696244 0.47421,-3.377168 1.0538,-3.73537 0.57959,-0.358212 1.0538,-2.255048 1.0538,-4.215205 0,-1.960156 0.4742,-3.856992 1.0538,-4.215205 1.27467,-0.787781 1.41881,-5.795891 0.16681,-5.795891 -1.11128,0 -3.32821,7.234899 -3.32821,10.861512 0,1.492427 -0.42182,2.974194 -0.93737,3.292822 -0.51555,0.318638 -1.18274,2.124906 -1.48265,4.013949 -0.2999,1.889044 -1.09515,5.331452 -1.76719,7.649821 -2.40581,8.299203 -3.38501,12.717403 -3.8536,17.387705 -0.44933,4.478273 -0.38292,4.624855 1.19377,2.634498 0.91826,-1.159184 1.90952,-3.293128 2.20279,-4.7421 z M 56.935485,70.99521 c 2.559726,-2.671784 3.207189,-4.432774 3.777655,-10.274545 0.378648,-3.877564 1.267963,-11.555118 1.976269,-17.061231 2.146755,-16.688225 2.045009,-18.085276 -1.401522,-19.244703 -1.630098,-0.548375 -3.122926,-0.829095 -3.317401,-0.623822 -0.194476,0.205273 -0.885667,5.826639 -1.535967,12.491927 -1.575034,16.14313 -2.933112,27.998211 -3.832855,33.458161 -0.882029,5.352425 0.127558,5.644607 4.333821,1.254213 z m 258.034545,1.907169 c 0.68055,-2.393004 3.93389,-16.020938 4.46534,-18.704953 0.2869,-1.448973 0.92442,-3.582916 1.41668,-4.742101 0.49228,-1.159174 1.19336,-3.530224 1.55796,-5.268995 0.3646,-1.738772 1.08421,-5.05824 1.59912,-7.376609 2.43083,-10.944509 3.14679,-14.592855 2.90312,-14.793351 -0.14537,-0.119587 -2.19016,0.612919 -4.54399,1.62781 -3.98988,1.720276 -4.3722,2.264244 -5.64525,8.032297 -0.75105,3.402876 -1.73824,7.37257 -2.19375,8.821553 -0.45552,1.448973 -1.38856,5.479752 -2.07342,8.957295 -1.51988,7.717528 -3.10183,13.950031 -4.35913,17.173838 -1.48941,3.818948 -1.12541,5.477886 1.427,6.503828 3.37189,1.355336 5.01506,1.285763 5.44632,-0.230612 z m 80.70184,-2.054911 c 0,-1.702329 -0.31162,-2.006742 -1.17274,-1.145613 -0.645,0.644995 -0.85412,1.688263 -0.4647,2.318358 1.09003,1.763721 1.63744,1.37167 1.63744,-1.172745 z m -67.27713,-2.687189 c 0.64223,-1.593867 1.62064,-5.268996 2.17422,-8.166952 0.55358,-2.897945 1.44096,-7.402949 1.97197,-10.011096 0.53101,-2.608157 1.38721,-7.669508 1.90271,-11.247457 0.51547,-3.577939 1.23256,-6.983198 1.59352,-7.567235 0.36095,-0.584037 0.17636,-1.358489 -0.41022,-1.721025 -1.46279,-0.904046 -2.29533,1.359375 -6.29382,17.110866 -0.55174,2.173464 -1.70639,7.508322 -2.56591,11.85525 -0.8595,4.346929 -1.88602,8.970476 -2.28115,10.274555 -1.0811,3.568069 2.45046,3.092009 3.90868,-0.526906 z m -23.34969,-0.277746 c 0,-1.167041 0.43235,-2.945334 0.96076,-3.951758 0.52842,-1.006414 1.51222,-4.67511 2.1862,-8.152642 0.67401,-3.477543 1.70342,-8.219644 2.2876,-10.538002 5.5507,-22.028471 5.60711,-22.360786 4.10328,-24.17279 -2.83173,-3.412019 -2.98841,-2.953369 -8.52808,24.963133 -1.19169,6.005455 -2.69675,12.106835 -4.24257,17.199071 -1.51784,5.000097 -1.22306,6.774889 1.12521,6.774889 1.40981,0 2.1076,-0.702538 2.1076,-2.121901 z m 188.67907,-9.23423 c -1.5165,-10.819934 -2.88083,-15.064991 -7.86547,-24.47308 -5.71668,-10.789777 -14.4778,-21.984758 -25.5656,-32.6678063 -9.58559,-9.235684 -18.72382,-17.0698027 -20.77374,-17.8091607 -0.64269,-0.231804 -1.40563,-0.763362 -1.69542,-1.181246 -0.87271,-1.258416 -24.26784,-16.382526 -31.61401,-20.437306 -6.86971,-3.791795 -33.45791,-16.965206 -37.40992,-18.535146 -1.15917,-0.46049 -3.76733,-1.44289 -5.79589,-2.18311 -2.02857,-0.7402 -6.53356,-2.61775 -10.01111,-4.17232 -3.47754,-1.55456 -10.35358,-4.09586 -15.2801,-5.64734 -4.92651,-1.55147 -9.90572,-3.25448 -11.06491,-3.78445 -3.19974,-1.46288 -12.16026,-4.38923 -16.59735,-5.42036 -8.45792,-1.96554 -13.50093,-3.29431 -23.97395,-6.31683 -8.14741,-2.35135 -15.92119,-3.84919 -51.63622,-9.94911 -20.80214,-3.55289 -48.15294,-5.71586 -72.1853,-5.70862 -27.49283,0.008 -47.89858,2.1082 -71.131519,7.31999 -22.944612,5.14712 -23.8392,5.41296 -34.77541,10.3341 -2.608158,1.17363 -7.077046,3.17173 -9.930873,4.44022 -10.630879,4.72529 -20.617069,12.53841 -32.874841,25.72099 -1.855733,1.99575 -4.643655,7.78511 -7.3741514,15.313045 -2.8203896,7.775781 -2.9460819,8.51028 -1.4563435,8.51028 0.579587,0 1.0537907,-1.185526 1.0537907,-2.634501 0,-1.448975 0.4742143,-2.6345 1.0538013,-2.6345 0.5795975,0 1.0538012,-0.696889 1.0538012,-1.548644 0,-3.482247 5.7901647,-11.66469 13.9993697,-19.78334 7.576229,-7.49267 25.00083,-17.8253 39.510561,-23.42943 4.875374,-1.88302 28.261639,-8.27047 36.063092,-9.84985 27.090492,-5.48436 63.145162,-6.61661 107.487622,-3.37551 21.13369,1.54472 30.15801,2.89938 59.01282,8.85856 17.57655,3.62997 22.89904,4.86629 30.0333,6.9762 9.09886,2.69093 17.67563,4.92825 22.93305,5.98224 1.60097,0.32097 3.17014,1.0031 3.48705,1.51587 0.3169,0.51276 1.50305,0.93229 2.63591,0.93229 1.13283,0 2.88313,0.41889 3.88955,0.93086 3.84661,1.95678 7.34478,3.28868 14.47545,5.51141 4.05713,1.26465 10.45897,3.70114 14.2263,5.41442 3.76734,1.71326 9.72926,4.26808 13.24871,5.67738 7.0839,2.83659 26.44477,12.561786 37.86061,19.017819 7.95045,4.49625 26.00967,16.01123 26.8719,17.13417 0.2898,0.377408 2.18664,1.83533 4.21521,3.239814 11.52187,7.9772047 32.35443,29.201547 39.6694,40.41544 3.4512,5.290676 6.7808,10.80494 7.39915,12.253913 3.8275,8.968999 4.23268,10.117302 6.24656,17.702568 0.81536,3.07112 1.49691,6.627706 1.51455,7.903504 0.0291,2.10446 0.13312,2.145996 1.12169,0.447705 0.75291,-1.293407 0.73712,-4.387325 -0.0511,-10.011096 z m -195.00186,6.952292 c 0,-1.262923 0.44207,-3.752527 0.98239,-5.532443 1.52405,-5.020585 3.04534,-11.166611 4.19196,-16.935624 0.57599,-2.897956 1.61117,-8.11426 2.30042,-11.591803 0.68925,-3.477543 2.07005,-9.509276 3.06846,-13.40386 0.9984,-3.894577 1.56374,-7.3326 1.25629,-7.640046 -1.59193,-1.5919243 -3.21427,-0.08546 -4.22107,3.919652 -0.61922,2.46326 -1.42898,5.664174 -1.79944,7.113147 -0.37046,1.448984 -1.06519,4.294237 -1.54381,6.322808 -0.47864,2.02856 -1.55667,6.296456 -2.39561,9.484201 -0.83894,3.187744 -2.10879,8.641155 -2.82188,12.118698 -0.71308,3.477543 -1.78924,8.321779 -2.39145,10.764986 -0.60222,2.443186 -0.8157,5.169897 -0.47439,6.059349 0.95145,2.479397 3.84813,1.968245 3.84813,-0.679065 z m -6.16135,-4.113112 c 2.95555,-15.295085 4.27775,-21.186617 8.31712,-37.059909 1.5944,-6.265444 2.95159,-12.887462 2.69475,-13.148267 -0.12957,-0.131567 -1.19067,0.429751 -2.35799,1.247373 -1.33571,0.935574 -2.61332,3.758448 -3.44686,7.61581 -3.40568,15.760464 -3.59641,16.58183 -6.37824,27.468691 -2.78942,10.916555 -3.47425,14.903753 -2.84257,16.549868 1.06647,2.779192 3.23989,1.331506 4.01379,-2.673566 z m 75.71216,0.613446 c 0,-1.380559 -0.47422,-2.803191 -1.0538,-3.161404 -0.62836,-0.388338 -1.05381,0.887955 -1.05381,3.161404 0,2.273449 0.42545,3.549743 1.05381,3.161404 0.57958,-0.358212 1.0538,-1.780845 1.0538,-3.161404 z m 29.5064,1.6429 c 0,-0.545391 -0.4742,-1.284687 -1.0538,-1.6429 -0.57959,-0.358212 -1.0538,0.08794 -1.0538,0.991609 0,0.903593 0.47421,1.642889 1.0538,1.642889 0.5796,0 1.0538,-0.446218 1.0538,-0.991598 z M 69.839424,60.78368 c 0.605727,-1.593877 1.391399,-5.980316 1.745952,-9.747648 0.354543,-3.767342 1.098911,-10.169181 1.65414,-14.226311 0.555229,-4.05713 1.309182,-11.288835 1.675451,-16.070446 0.626585,-8.180222 0.542934,-8.693856 -1.415936,-8.693856 -1.886608,0 -2.195187,1.161289 -3.290144,12.382155 -0.664556,6.810182 -1.445461,14.5161 -1.735365,17.124247 -2.169184,19.515859 -1.62955,27.113937 1.365902,19.231859 z m 215.749706,0 c 1.14415,-5.467498 2.72907,-12.385615 3.8024,-16.59735 2.39928,-9.414744 2.96994,-11.839529 4.09217,-17.387705 0.6448,-3.187745 1.56331,-7.077352 2.04114,-8.643581 1.13494,-3.720068 -0.79791,-6.431855 -4.23823,-5.946253 -2.22847,0.314548 -2.66582,1.073422 -3.24611,5.632528 -0.83935,6.594375 -3.39039,18.920729 -6.21563,30.033309 -2.1215,8.344503 -2.44484,13.86869 -0.87017,14.866394 2.55443,1.618457 4.01526,1.001489 4.63443,-1.957342 z m -9.38457,-1.542166 c 0.43466,-0.703297 1.14802,-3.1929 1.58527,-5.532443 0.43723,-2.339564 1.32104,-6.387689 1.96402,-8.995846 3.29922,-13.382929 7.50761,-34.53828 7.75633,-38.9906073 0.22858,-4.091927 -2.77645,-3.262334 -3.81716,1.0538 -0.48912,2.028567 -1.33843,5.4665893 -1.88735,7.6400533 -2.10355,8.329125 -3.16642,13.10886 -4.15943,18.704951 -0.56565,3.187744 -1.53005,7.929844 -2.14309,10.538002 -0.61307,2.608157 -1.48852,6.438387 -1.94546,8.511614 -0.45693,2.073227 -1.17456,4.325734 -1.59471,5.005548 -0.42015,0.679824 -0.47084,1.710248 -0.11263,2.289845 0.89747,1.452137 3.39754,1.322996 4.35421,-0.224917 z M 75.316602,55.126853 c 0,-1.839263 -0.440713,-2.889025 -1.053801,-2.510124 -0.579587,0.358202 -1.053801,2.073912 -1.053801,3.812684 0,1.839251 0.440714,2.889024 1.053801,2.510112 0.579587,-0.358201 1.053801,-2.073901 1.053801,-3.812672 z m 6.392076,1.1411 c 1.22938,-0.657944 2.038324,-2.201091 2.038324,-3.888321 0,-1.538592 0.462214,-5.434146 1.027134,-8.656772 0.89987,-5.13336 1.499555,-10.3374 3.793029,-32.915486 0.439522,-4.3268003 0.22787,-5.0128653 -1.739046,-5.6371363 -4.343175,-1.378466 -4.256403,-1.753188 -7.326121,31.6394833 -0.586093,6.375499 -1.343168,13.607203 -1.68239,16.070456 -0.655308,4.758412 0.09944,5.415903 3.88907,3.387776 z M 265.97173,51.299512 c 2.75225,-12.752728 3.4099,-15.671921 4.4514,-19.758755 6.25236,-24.5342623 6.27079,-26.3292533 0.26328,-25.6370433 -2.86139,0.329702 -3.08927,0.763647 -4.88534,9.3031383 -1.03617,4.926517 -2.30147,10.854142 -2.81178,13.172501 -5.06024,22.988984 -5.49097,26.281352 -3.61761,27.651187 3.7167,2.717716 5.22598,1.635824 6.60005,-4.731028 z m 3.24411,5.005548 c 0,-0.579587 -0.4742,-1.053802 -1.0538,-1.053802 -0.57959,0 -1.0538,0.474215 -1.0538,1.053802 0,0.579587 0.47421,1.053801 1.0538,1.053801 0.5796,0 1.0538,-0.474214 1.0538,-1.053801 z M 50.461394,48.138108 c 1.761959,-21.594854 1.874449,-25.554657 0.725936,-25.554657 -0.639059,0 -1.161937,0.12525 -1.161937,0.278337 0,0.153066 -0.948418,2.873092 -2.107592,6.044471 -3.174964,8.686329 -2.463516,27.398801 1.041707,27.398801 0.459536,0 1.135385,-3.675129 1.501886,-8.166952 z m 319.919276,3.889554 c 0,-1.124967 -0.47421,-2.045399 -1.0538,-2.045399 -0.57959,0 -1.0538,1.21351 -1.0538,2.69669 0,1.529449 0.45613,2.414789 1.0538,2.04541 0.57959,-0.358212 1.0538,-1.571723 1.0538,-2.696701 z m -116.5812,1.336483 c 0.28326,-0.458324 1.23246,-4.844774 2.10931,-9.747649 0.87688,-4.902896 2.57865,-13.419339 3.78174,-18.925442 4.84523,-22.1748653 5.48487,-26.4453913 4.19397,-28.0008323 -1.8401,-2.217195 -2.60505,-1.169507 -4.05836,5.55847 -0.72571,3.359653 -1.73243,8.0052993 -2.23715,10.3236603 -0.50471,2.31836 -1.15628,5.63783 -1.44793,7.376601 -0.5703,3.400072 -2.00642,10.085152 -3.6221,16.860799 -2.29056,9.605792 -3.27852,15.557069 -2.72995,16.444686 0.7209,1.166429 3.31355,1.237352 4.01047,0.109707 z m 17.50784,-4.636939 c 0.008,-1.559671 0.44026,-3.097882 0.95863,-3.418261 0.51836,-0.320357 1.20012,-2.363732 1.515,-4.540834 1.83399,-12.679875 2.00643,-15.30135 0.96411,-14.657177 -0.60026,0.370982 -1.33995,2.455766 -1.64378,4.632868 -0.30382,2.177092 -1.11094,6.092301 -1.79359,8.700459 -1.78086,6.804044 -2.50147,15.720131 -1.10718,13.699395 0.59987,-0.869386 1.09794,-2.85679 1.10681,-4.41645 z M 87.962207,52.089855 c 0,-0.579587 -0.5022,-1.053791 -1.115994,-1.053791 -0.613793,0 -0.822915,0.474204 -0.464713,1.053791 0.358212,0.579597 0.860412,1.053801 1.115994,1.053801 0.255591,0 0.464713,-0.474204 0.464713,-1.053801 z m 7.730698,-0.113007 c 2.010307,-0.915951 2.69126,-2.21868 3.167351,-6.05935 0.857228,-6.915417 2.501754,-18.306218 3.977344,-27.549241 0.69397,-4.34693 1.30602,-10.0150163 1.36014,-12.5957633 0.0848,-4.046192 -0.29242,-4.91288996 -2.73983,-6.29472796 -1.561019,-0.88136604 -3.210488,-1.23019504 -3.6655,-0.77517504 -0.455023,0.45501004 -1.175265,4.236066 -1.600553,8.402329 -0.425276,4.1662733 -1.280152,11.3687093 -1.899714,16.0054373 -0.619562,4.636717 -1.556096,12.224082 -2.081199,16.860799 -1.621441,14.317723 -1.618056,14.329417 3.481961,12.005692 z M 244.36494,51.408649 c 0.36617,-0.954249 1.13047,-4.629378 1.69841,-8.166952 1.46349,-9.115591 3.00404,-16.756533 6.2897,-31.196246 2.59031,-11.38370926 2.62192,-10.5237763 -0.39319,-10.6960733 -1.52141,-0.08694 -3.33954,-0.20549 -4.04027,-0.263449 -1.21774,-0.10074396 -1.84514,1.714964 -4.06016,11.7498733 -3.4865,15.795136 -5.30467,25.132207 -6.1716,31.693735 -0.6511,4.92796 -0.48024,5.795174 1.40143,7.11315 2.81284,1.970185 4.45783,1.897216 5.27568,-0.234038 z M 105.27558,41.756103 c 0.4024,-3.879664 1.1953,-11.321839 1.76201,-16.538154 1.90016,-17.4898853 2.22746,-24.30024926 1.11416,-23.1836003 -0.57783,0.57959 -1.30151,4.136166 -1.60816,7.903502 -0.30666,3.7673363 -1.01825,9.9320703 -1.58128,13.6994013 -0.56304,3.767342 -1.4753,10.234749 -2.02725,14.372039 -0.55195,4.13727 -1.32937,8.049506 -1.7276,8.693848 -1.00179,1.620934 0.22308,3.301647 1.92907,2.646993 0.86704,-0.332716 1.68834,-3.248524 2.13905,-7.594029 z m 126.30086,3.932165 c 1.32004,-5.423844 2.85072,-13.342754 4.05862,-20.997214 1.04199,-6.603074 1.86696,-11.416692 3.88301,-22.6567053 0.51979,-2.89794996 1.24472,-5.980316 1.61095,-6.849701 0.36623,-0.869386 0.2164,-2.288053 -0.33296,-3.152592 -1.59982,-2.5176327 -3.05807,-0.103485 -4.80889,7.96121804 -0.87286,4.02054396 -2.09997,9.68112696 -2.72695,12.57907826 -0.62696,2.897951 -1.57203,7.165845 -2.10013,9.484204 -0.92503,4.060884 -2.46772,12.607053 -3.74787,20.762332 -1.16844,7.443725 2.44496,9.933561 4.16422,2.86938 z m -118.97862,1.645346 c 2.09934,-0.877157 3.84683,-1.944129 3.88329,-2.37105 0.72801,-8.522128 3.70761,-31.12463 4.54774,-34.497813 0.28872,-1.1591803 0.77122,-4.6163823 1.07225,-7.6826673 0.5282,-5.380473 0.42932,-5.647 -2.83294,-7.636111 -1.85914,-1.133572 -3.91268,-2.062824 -4.56342,-2.064985 -0.65074,-0.0021 -1.49012,2.485662 -1.86526,5.52851 -1.51882,12.3192843 -2.85362,23.9449873 -3.78101,32.9312593 -0.53834,5.216314 -1.29079,10.544096 -1.67211,11.839507 -0.63849,2.169005 -0.0519,5.548197 0.96318,5.548197 0.2372,0 2.14894,-0.717679 4.24828,-1.594847 z m 111.50421,-2.631545 c 0.39957,-2.022413 1.25379,-6.99658 1.89829,-11.05371 0.64449,-4.05713 2.38057,-13.691318 3.85796,-21.409293 1.47738,-7.7179803 2.51903,-14.1998223 2.31475,-14.4040903 -0.20429,-0.204279 -1.63555,-0.68869 -3.18061,-1.076478 -3.39232,-0.851418 -4.72666,1.126439 -6.27257,9.29768 -0.56838,3.004311 -1.48529,7.8334243 -2.03758,10.7313713 -1.12082,5.881177 -2.75228,16.303198 -3.77912,24.141726 -0.56693,4.327706 -0.35505,5.40924 1.29626,6.616708 3.0242,2.211352 5.10159,1.210453 5.90262,-2.843914 z M 121.79367,43.922903 c 1.26119,-3.288235 3.2785,-17.711205 6.07995,-43.46925426 0.47278,-4.34692604 1.22105,-8.73337004 1.66284,-9.74765304 0.57464,-1.3193257 0.32702,-1.8441487 -0.87012,-1.8441487 -1.78057,0 -2.30453,1.6213967 -3.2351,10.0111007 -0.32144,2.897951 -1.05271,8.114262 -1.62505,11.5918033 -3.36744,20.460704 -5.03567,36.356108 -3.81558,36.356108 0.38037,0 1.19174,-1.304079 1.80306,-2.897956 z m 91.88638,-1.924178 c 0.46339,-2.274345 1.29325,-6.157373 1.84415,-8.628945 0.5509,-2.471573 1.00163,-6.59293 1.00163,-9.15855 0,-2.565642 0.47422,-4.957866 1.0538,-5.316078 0.57959,-0.358202 1.05381,-2.551311 1.05381,-4.873572 0,-2.322259 0.41183,-5.0209783 0.91519,-5.9971563 0.50335,-0.976177 1.23821,-4.738687 1.63302,-8.36112596 0.58302,-5.34931104 0.4342,-6.58625104 -0.79242,-6.58625104 -1.08247,0 -1.68977,1.865638 -2.14398,6.58625104 -0.69351,7.20787896 -2.08508,16.31161726 -3.74514,24.50086026 -0.97464,4.808079 -1.92029,9.540699 -3.86959,19.366104 -0.54929,2.768658 -0.38262,3.452995 0.75045,3.081359 0.80111,-0.262751 1.8357,-2.338551 2.29908,-4.612896 z m -5.58462,0.992642 c 0,-1.526624 0.43307,-4.490442 0.96238,-6.586245 1.75926,-6.965757 4.81941,-23.067279 6.33199,-33.3169733 0.59873,-4.05712996 1.36543,-9.195261 1.7038,-11.418062 0.53126,-3.4900807 0.35776,-3.9918797 -1.27176,-3.6780587 -2.44764,0.471376 -3.57951,4.6161927 -6.71242,24.580324 -1.64598,10.488846 -3.11654,18.371387 -4.24959,22.778969 -0.53878,2.095803 -0.9796,5.296728 -0.9796,7.113151 0,2.600048 0.44833,3.302586 2.1076,3.302586 1.57417,0 2.1076,-0.702538 2.1076,-2.775691 z m -73.64172,-1.96641 c 0.64454,-2.635584 2.42532,-15.432283 5.88032,-42.2559233 0.52017,-4.038426 0.31792,-4.466459 -3.11198,-6.586253 -2.01757,-1.246919 -3.89224,-2.2671337 -4.16596,-2.2671337 -0.79506,0 -2.8104,10.45147374 -3.45443,17.9146027 -0.3251,3.7673373 -1.08043,10.6433793 -1.6785,15.2801073 -0.59806,4.636717 -1.35544,11.426252 -1.68306,15.087852 l -0.59568,6.657453 4.01809,-0.334645 c 3.47755,-0.289641 4.12209,-0.759953 4.7912,-3.49606 z m 6.8951,2.371051 c 0.45154,-0.724492 1.18455,-3.925407 1.62891,-7.113151 0.44436,-3.187744 1.29322,-9.11537 1.88634,-13.1725 1.26215,-8.633577 3.00301,-22.75618826 3.8645,-31.3505613 0.37751,-3.7661127 0.20588,-6.0593497 -0.45348,-6.0593497 -1.07586,0 -1.54294,1.832589 -3.35736,13.1725017 -0.55642,3.477541 -1.52199,9.405168 -2.14572,13.1725033 -1.6407,9.909908 -4.20842,28.671001 -4.21862,30.823661 -0.0105,2.139184 1.60126,2.442912 2.79543,0.526896 z m 10.48509,-0.949852 c 0.64381,-0.499891 1.45977,-3.395221 1.81322,-6.434054 0.35347,-3.038833 1.16034,-8.844615 1.79305,-12.901745 0.63271,-4.05713 1.59124,-10.93318 2.13007,-15.2801073 0.53882,-4.346925 1.26396,-9.373458 1.61141,-11.170072 0.49902,-2.580367 0.064,-3.879186 -2.07103,-6.182888 -3.91873,-4.2283627 -5.55623,-2.9534747 -6.27908,4.888621 -1.31911,14.310777 -3.85123,33.8116833 -5.5507,42.7481633 -0.90843,4.776908 -0.007,6.56273 2.94697,5.83828 1.33952,-0.328519 2.96227,-1.006308 3.60609,-1.506198 z m 33.77723,-2.559463 c 0.68547,-2.271909 1.28276,-5.872846 1.32732,-8.002096 0.0446,-2.12924 0.58611,-6.397137 1.20348,-9.484201 0.61737,-3.087064 1.58856,-8.220999 2.15819,-11.408745 0.56964,-3.1877453 1.45717,-7.9298473 1.9723,-10.53800226 0.51514,-2.60815504 1.23274,-6.99459904 1.59468,-9.74765304 0.59848,-4.5523317 0.46321,-5.0055497 -1.49403,-5.0055497 -2.29776,0 -2.65799,0.963669 -3.74234,10.0111007 -0.34732,2.897951 -1.04847,7.640053 -1.5581,10.538004 -1.68375,9.5743333 -3.21079,17.8489463 -4.18117,22.6567083 -2.21437,10.971197 -2.42411,12.635745 -1.79779,14.267889 1.0489,2.733386 3.16561,1.192991 4.51746,-3.287455 z m 6.18718,3.713259 c 0.66345,-1.073488 1.31969,-4.67278 3.73574,-20.489595 0.61974,-4.05713 1.57282,-10.221865 2.11795,-13.6994063 0.54513,-3.477541 1.27631,-9.28661496 1.62485,-12.909053 0.53433,-5.553422 0.37406,-6.5862507 -1.02201,-6.5862507 -1.057,0 -1.84688,1.2384357 -2.1844,3.4248497 -0.75507,4.891266 -1.61937,9.977497 -2.77563,16.333904 -3.4255,18.8312243 -5.29464,32.9813093 -4.52403,34.2485023 0.69119,1.136577 2.22673,0.972776 3.02753,-0.322951 z m 9.07978,-2.048099 c 1.05196,-3.803816 2.68326,-12.064341 4.05808,-20.549099 0.65741,-4.05713 1.64232,-9.747652 2.18872,-12.6456033 1.84251,-9.772143 1.71798,-13.579807 -0.45864,-14.024406 -2.88391,-0.589064 -4.11081,1.205115 -5.06926,7.413105 -0.47191,3.056622 -1.358,8.6398663 -1.96908,12.4072023 -1.3167,8.117455 -2.86273,18.569634 -3.79349,25.646669 -0.64593,4.911353 -0.57935,5.084591 1.82234,4.742101 1.59932,-0.22806 2.75389,-1.299703 3.22133,-2.989969 z m 292.78797,-2.867725 c -1.80033,-6.69651 -8.50724,-19.470095 -14.29264,-27.220964 -9.32675,-12.4953003 -23.74937,-25.954574 -43.92003,-40.986465 -6.3184,-4.708684 -24.94375,-16.135561 -31.87802,-19.557541 -2.89794,-1.4301 -5.5061,-2.86604 -5.7959,-3.19096 -1.02284,-1.14684 -26.36095,-12.85703 -36.57647,-16.90408 -4.51551,-1.78889 -9.63267,-3.89319 -11.37144,-4.67622 -1.73877,-0.78303 -6.48087,-2.45919 -10.538,-3.72481 -4.05713,-1.26562 -8.20003,-2.72069 -9.20646,-3.2335 -1.00641,-0.51279 -2.75671,-0.93236 -3.88955,-0.93236 -1.13284,0 -2.35279,-0.47421 -2.71099,-1.0538 -0.35821,-0.57958 -1.71399,-1.0538 -3.01284,-1.0538 -1.29885,0 -2.81205,-0.42758 -3.36266,-0.95021 -0.55061,-0.52261 -5.5061,-2.00404 -11.0122,-3.29207 -5.50611,-1.28803 -15.70163,-3.88104 -22.65672,-5.76224 -6.95507,-1.8812 -16.20216,-3.98268 -20.54909,-4.66994 -4.34693,-0.68727 -10.27456,-1.679498 -13.1725,-2.204948 -11.41514,-2.06981 -22.63643,-3.73424 -36.88302,-5.47078 -14.37379,-1.75203 -81.33962,-1.77911 -93.26132,-0.0377 -11.06033,1.61558 -19.21018,3.11782 -30.296754,5.58445 -14.483949,3.222518 -16.911403,3.914598 -23.97396,6.835108 -1.738761,0.71902 -5.295337,2.10944 -7.903494,3.08985 -7.465226,2.80614 -11.774416,4.92516 -16.523771,8.12542 -2.422793,1.63255 -4.793843,2.96885 -5.269006,2.96956 -0.475163,7.1e-4 -2.286567,1.23928 -4.025328,2.75238 -1.738771,1.51311 -4.723742,3.956 -6.633263,5.42865 -3.666545,2.8277 -13.423357,15.0013 -12.023132,15.0013 0.451564,0 3.174236,-2.41678 6.050407,-5.37063 9.42823,-9.68292 21.398913,-16.8108 43.956537,-26.17372 8.888607,-3.68935 33.494466,-9.23197 52.953464,-11.92809 12.88795,-1.785668 82.3837,-1.757468 98.00342,0.0397 13.13405,1.51124 22.87132,2.91202 30.56021,4.39629 6.86867,1.32595 15.31453,2.85832 23.18361,4.20632 3.47754,0.59572 8.21964,1.54136 10.538,2.10141 2.31836,0.56007 6.11204,1.45998 8.4304,1.99983 2.31836,0.53982 7.29756,1.92764 11.06491,3.08402 3.76733,1.15638 9.22074,2.6852 12.11869,3.39738 2.89795,0.71218 8.58848,2.46174 12.64561,3.88791 4.05713,1.42615 11.58193,3.98666 16.72181,5.68999 5.13985,1.70333 10.83037,3.74876 12.64559,4.54543 1.81522,0.79665 5.54774,2.45205 8.29447,3.67867 2.74674,1.22663 5.52456,2.23023 6.17293,2.23023 1.42128,0 32.39166,15.30432 42.15096,20.829308 36.57918,20.708417 64.32605,45.3573627 77.97666,69.270606 3.86081,6.763395 5.6468,10.394668 6.68246,13.586789 1.36484,4.206674 1.87481,0.448981 0.58842,-4.335815 z M 171.78272,40.76151 c 0.33574,-1.593878 0.84358,-3.846374 1.12851,-5.005559 0.5976,-2.431207 2.13794,-12.323434 3.692,-23.7105 0.59324,-4.3469263 1.33643,-9.7223823 1.6515,-11.94545726 0.50093,-3.53432004 0.13489,-4.49384804 -2.91454,-7.64005304 -1.91807,-1.978952 -3.8116,-3.5980937 -4.20784,-3.5980937 -0.39622,0 -0.9916,2.7267067 -1.32308,6.0593497 -0.76586,7.700351 -2.40717,19.9122093 -3.85953,28.7160553 -0.62148,3.767342 -1.40659,9.813521 -1.74471,13.435959 l -0.61473,6.586244 h 3.79098 c 3.28511,0 3.87245,-0.386714 4.40144,-2.897945 z m 6.80631,-2.484954 c 0,-1.659497 0.45487,-5.03946 1.01084,-7.511032 0.55598,-2.471572 1.54292,-7.339028 2.19321,-10.816571 0.65028,-3.477543 1.59231,-8.219641 2.09338,-10.5380023 0.50109,-2.318361 1.19022,-6.704804 1.53141,-9.74765296 0.49948,-4.45455004 0.31742,-5.53245004 -0.93445,-5.53245004 -2.84739,0 -3.05963,0.818717 -5.87363,22.6567013 -1.44328,11.20066 -2.91206,19.81634 -3.72771,21.866358 -0.40356,1.01428 -0.4403,2.608875 -0.0816,3.543532 1.01187,2.636786 3.78862,-0.236949 3.78862,-3.920883 z M 77.068312,39.180803 c -0.29234,-0.724482 -0.531524,-0.131724 -0.531524,1.317259 0,1.448973 0.239184,2.04173 0.531524,1.317249 0.29234,-0.724492 0.29234,-1.910017 0,-2.634508 z m 12.085726,-3.454166 c -0.892257,-3.810649 -0.988319,-3.902482 -1.07159,-1.024477 -0.111078,3.839404 1.223612,9.152076 1.713475,6.820379 0.186029,-0.885509 -0.102811,-3.493666 -0.641885,-5.795902 z m 70.990122,5.034873 c 0.71575,-1.762244 1.20635,-4.629695 3.50187,-20.46821 0.56056,-3.867728 1.2689,-7.436265 1.57408,-7.930065 1.00751,-1.630176 1.10987,-14.0014543 0.11616,-14.0398863 -0.53545,-0.02076 -1.26736,2.22842904 -1.62646,4.99808 -0.61329,4.730099 -2.80729,17.8115103 -5.16008,30.7661263 -0.57019,3.139513 -1.0367,6.340438 -1.0367,7.11315 0,2.022254 1.75003,1.730136 2.63113,-0.439195 z m 204.57233,-6.586256 c 1.37653,0 2.50278,-0.374008 2.50278,-0.83114 0,-0.982119 -10.67357,-7.599259 -12.25773,-7.599259 -1.43642,0 -1.46753,6.454099 -0.0399,8.257783 0.70994,0.896887 2.23596,1.183828 4.2033,0.790354 1.69879,-0.339759 4.21496,-0.617738 5.59149,-0.617738 z M 345.87981,24.115115 c 2.23015,-0.697054 1.46758,-2.453604 -1.79836,-4.142478 -2.98656,-1.544413 -3.22431,-1.493936 -5.73951,1.218603 -1.44315,1.55636 -2.3752,3.232169 -2.07122,3.724025 0.48907,0.791323 5.98032,0.334075 9.60909,-0.80015 z M 92.103336,16.461909 c 0.04534,-2.775205 -0.335679,-4.287599 -0.979725,-3.889557 -0.579598,0.358207 -1.02047,3.350008 -0.979736,6.648451 0.08763,7.102816 1.83882,4.637297 1.959461,-2.758894 z m 185.542904,3.362659 c 0,-2.190515 -0.42793,-3.423828 -1.05379,-3.037019 -0.5796,0.358213 -1.0538,2.31102 -1.0538,4.33958 0,2.190525 0.42793,3.423828 1.0538,3.037029 0.57959,-0.358212 1.05379,-2.311019 1.05379,-4.33959 z m 39.79527,-4.540789 c 1.00641,-0.537279 2.65971,-1.233715 3.674,-1.547632 2.50923,-0.776587 2.34913,-3.7982963 -0.20125,-3.7982963 -1.12498,0 -2.33849,-0.47421 -2.69671,-1.0538 -0.3582,-0.579591 -1.57172,-1.053801 -2.69669,-1.053801 -1.68378,0 -2.04541,0.745259 -2.04541,4.2152013 0,4.320618 0.76645,4.946443 3.96606,3.238328 z M 66.434322,12.648604 c 0.764446,-3.0457883 2.920227,-4.1371353 7.565032,-3.8297313 3.162911,0.209317 3.424851,-0.01844 3.424851,-2.978408 0,-4.206718 3.061883,-5.99503796 7.572339,-4.422683 3.790761,1.321464 5.073266,0.758387 5.073266,-2.22739796 0,-1.20597904 0.829864,-2.82264604 1.844144,-3.59259404 2.119191,-1.608689 6.746534,-1.907947 8.219646,-0.531579 0.55061,0.514444 2.0263,1.244454 3.27931,1.622241 1.91294,0.576755 2.3932,0.163245 2.99556,-2.57926 1.1053,-5.0324337 4.81009,-5.9247497 11.2581,-2.711566 5.43768,2.709711 5.37043,2.738311 6.5838,-2.7992297 0.49371,-2.253162 1.27532,-2.925729 3.51287,-3.022805 3.82582,-0.165984 5.92546,0.176586 6.56618,1.071304 0.69572,0.971551 7.02146,5.3763517 7.721,5.3763517 0.30028,0 1.11873,-1.778289 1.81881,-3.9517507 0.70007,-2.173463 1.80382,-4.621251 2.45277,-5.439538 0.99584,-1.255666 0.44008,-1.368928 -3.56218,-0.726015 -2.60816,0.418959 -8.53578,1.168601 -13.1725,1.665857 -12.8249,1.3754 -15.79351,2.028408 -30.03331,6.6064847 -12.746654,4.09804 -17.513344,6.096456 -27.278328,11.436367 -5.030202,2.750725 -13.819879,10.0675763 -13.819879,11.5041593 0,0.491839 1.304079,1.0918 2.897946,1.333256 1.593877,0.241448 3.24458,0.510051 3.668222,0.596894 0.423653,0.08684 1.059211,-0.993322 1.412351,-2.400357 z M 279.93474,9.9348687 c 0.24702,-2.590136 -0.0163,-4.093719 -0.67903,-3.876457 -0.59541,0.195216 -1.23064,2.379712 -1.41162,4.8544373 -0.41972,5.739075 1.53739,4.823567 2.09065,-0.9779803 z m 21.60375,-1.314268 c 4.07771,-2.783434 5.26223,-5.005552 2.66826,-5.005552 -1.00427,0 -4.42072,-0.94842 -7.5921,-2.1076 -6.2814,-2.29593496 -10.35703,-2.859361 -7.14626,-0.98792796 1.29434,0.75443796 1.64424,1.88956996 1.22641,3.97873896 -0.6215,3.107458 0.68469,4.832571 4.33915,5.7308513 1.15918,0.284926 2.31536,0.573067 2.5693,0.6403 0.25392,0.06723 2.02478,-0.9447333 3.93524,-2.2488103 z M 94.268871,2.7625027 c 0.0095,-2.762409956609 -0.396585,-4.285762 -1.037658,-3.889555 -0.579597,0.35820804 -1.046546,3.112905 -1.037668,6.121547 0.0116,3.920485 0.305542,5.0224333 1.037668,3.889556 0.561841,-0.869385 1.02879,-3.624083 1.037658,-6.121548 z m 217.867379,3.377273 c -0.35017,-0.350168 -1.25907,-0.387598 -2.01979,-0.08314 -0.84064,0.336394 -0.59094,0.586102 0.63668,0.636664 1.11088,0.04573 1.73328,-0.203309 1.38311,-0.553477 z m -33.51683,-4.032462 c 0.91631,-0.829257 2.98267,-2.19080896 4.59188,-3.02568196 l 2.92586,-1.51795704 -6.83308,-1.716408 c -9.79234,-2.45976 -11.14537,-2.316074 -11.1259,1.181531 0.0202,3.62354504 0.97932,5.142418 3.67217,5.815207 3.76198,0.939895 5.07429,0.797073 6.76907,-0.736691 z m -167.48974,-7.186117 c 0.008,-1.014282 -0.45808,-1.84415 -1.03767,-1.84415 -0.57959,0 -1.04654,1.541183 -1.03767,3.424851 0.0122,2.59890304 0.26249,3.04364904 1.03767,1.84415 0.56184,-0.869385 1.02879,-2.410568 1.03767,-3.424851 z m 145.84626,0.827423 c 0.93605,-1.428584 1.7019,-3.020171 1.7019,-3.536869 0,-0.89514 -13.68474,-4.7696367 -14.38237,-4.0720107 -0.68659,0.686604 2.3235,7.6203977 3.84437,8.8555467 2.70869,2.19980804 6.97201,1.59831 8.8361,-1.246667 z m 215.48892,0.834041 c -7.82445,-9.5399897 -26.23595,-25.4880237 -39.32976,-34.0674197 -3.09732,-2.029456 -6.51035,-4.452597 -7.58452,-5.384763 -1.07414,-0.93216 -4.79826,-3.22918 -8.2758,-5.10448 -3.47754,-1.8753 -6.79701,-3.7966 -7.3766,-4.26957 -1.7771,-1.45014 -26.04964,-13.79048 -31.08711,-15.8049 -2.60816,-1.04299 -8.41923,-3.60244 -12.91351,-5.68772 -4.49427,-2.08526 -8.58037,-3.79138 -9.08022,-3.79138 -0.49986,0 -3.46166,-0.99931 -6.5818,-2.22069 -3.12013,-1.22137 -6.62139,-2.58056 -7.78058,-3.02041 -1.15918,-0.43983 -3.29313,-1.31907 -4.7421,-1.95384 -1.44897,-0.63476 -5.00555,-1.84573 -7.9035,-2.69104 -2.89795,-0.84531 -10.95953,-3.29215 -17.9146,-5.43741 -11.31727,-3.49078 -18.1931,-5.22572 -35.82921,-9.040628 -2.89795,-0.62686 -7.16585,-1.56897 -9.4842,-2.09358 -42.18354,-9.54553 -108.79217,-12.82542 -148.05894,-7.2906 -3.76733,0.53101 -10.88048,1.51102 -15.807,2.17778 -8.996865,1.21764 -14.763305,2.58307 -18.163756,4.30098 -1.006413,0.50844 -2.993828,0.92444 -4.41646,0.92444 -1.422632,0 -2.879682,0.4742 -3.237895,1.0538 -0.358202,0.57959 -1.80882,1.0538 -3.223586,1.0538 -1.414776,0 -2.572316,0.47421 -2.572316,1.0538 0,0.57959 1.185525,1.053788 2.634509,1.053788 1.448973,0 2.634498,-0.426448 2.634498,-0.947688 0,-0.52122 2.015389,-1.1981 4.478652,-1.50417 2.463253,-0.30606 6.612596,-1.01279 9.220754,-1.57051 6.975194,-1.49154 20.55822,-4.14174 28.97951,-5.65423 5.08859,-0.91391 19.30688,-1.30533 45.8403,-1.26192 41.65717,0.0682 47.68642,0.55704 82.98677,6.72895 3.33264,0.58268 9.14172,1.51755 12.90905,2.07751 3.76733,0.55995 8.98365,1.53177 11.59181,2.159608 2.60815,0.62783 6.63893,1.55401 8.9573,2.05821 2.31836,0.50417 5.87494,1.38892 7.9035,1.9661 2.02857,0.57717 6.77067,1.81751 10.538,2.7563 11.18623,2.78752 14.82137,3.8527 24.23741,7.10214 4.92651,1.70012 12.51388,4.27043 16.86081,5.71181 4.34691,1.44137 11.46006,4.08136 15.80699,5.86663 4.34693,1.78526 8.85193,3.60942 10.01111,4.05369 1.15917,0.44425 4.35493,1.80343 7.10166,3.02037 2.74674,1.21693 5.47345,2.21261 6.05936,2.21261 0.58591,0 1.06528,0.47422 1.06528,1.0538 0,0.57959 0.50529,1.05381 1.12287,1.05381 2.50273,0 28.07576,13.19321 34.65797,17.88016 1.65452,1.17813 3.31209,2.142039 3.68348,2.142039 0.9287,0 15.53695,9.851454 23.2368,15.670338 9.23316,6.977634 18.249,14.729272 23.68241,20.3616437 4.51991,4.685418 8.25809,7.07694304 5.16266,3.302842 z m -238.02443,-5.613214 c 0.72022,-1.7387707 1.96329,-3.1614007 2.76235,-3.1614007 0.79907,0 1.45286,-0.405429 1.45286,-0.900957 0,-0.495528 -3.20092,-1.19403 -7.11315,-1.552217 -3.91224,-0.358186 -8.22728,-0.96881 -9.589,-1.356946 l -2.47584,-0.705698 1.81257,3.575154 c 2.84666,5.6148367 4.76315,7.2634657 8.4436,7.2634657 2.78105,0 3.6346,-0.573321 4.70661,-3.161401 z m -66.40554,-2.3710507 c -0.0122,-2.598904 -0.26249,-3.043649 -1.03766,-1.84415 -1.33854,2.071233 -1.33854,5.2690007 0,5.2690007 0.57958,0 1.04653,-1.541184 1.03766,-3.4248507 z m 13.71553,2.3302467 c 0,-0.602035 -1.82518,-3.0513097 -4.05599,-5.4428457 -3.0014,-3.217663 -4.55594,-4.156378 -5.97886,-3.610351 -1.68117,0.645126 -1.34245,1.329274 2.69471,5.442836 4.42397,4.5077037 7.34014,5.9420627 7.34014,3.6103607 z m 28.96537,-2.7223867 c 0.87717,-2.099349 1.59485,-3.942351 1.59485,-4.095553 0,-0.153201 -2.25251,-0.603532 -5.00556,-1.00073 -2.75305,-0.397199 -6.07252,-0.976662 -7.3766,-1.287691 -3.53511,-0.843156 -3.01661,1.989795 1.17823,6.437633 4.65374,4.9343977 7.53165,4.9183277 9.60908,-0.05364 z m -46.87997,1.31118 c 0,-0.219011 -0.71768,-2.115851 -1.59483,-4.215201 -1.53417,-3.671734 -1.79719,-3.81699 -6.91191,-3.81699 -3.27634,0 -5.06708,0.404449 -4.66576,1.0538 0.3582,0.579589 1.21606,1.054337 1.90635,1.05498 0.69027,6.53e-4 2.67768,1.39618 4.41645,3.101176 2.62277,2.57181 6.8497,4.3134147 6.8497,2.822235 z m 23.18361,-2.174095 c 0,-1.414769 0.4742,-2.865388 1.0538,-3.223596 2.46772,-1.525144 0.69274,-2.6345 -4.2152,-2.6345 -2.89795,0 -5.269,0.250583 -5.269,0.556838 0,0.842039 6.73408,7.718107 7.64005,7.801136 0.43469,0.03984 0.79035,-1.085109 0.79035,-2.499878 z m 284.52606,2.025889 c 0,-0.848541 -12.49562,-13.025876 -20.06294,-19.551904 -7.49372,-6.462556 -26.00874,-19.946088 -27.38913,-19.946088 -0.47972,0 -1.49884,-0.61152 -2.26472,-1.35891 -3.45195,-3.36864 -41.88444,-23.57854 -51.44803,-27.05418 -4.17354,-1.51678 -7.68534,-2.98749 -15.2801,-6.39923 -2.89796,-1.30183 -8.11426,-3.20274 -11.59181,-4.22428 -3.47754,-1.02152 -9.50228,-3.07668 -13.38833,-4.56698 -3.88604,-1.49032 -10.76208,-3.71268 -15.28011,-4.9386 -4.518,-1.22591 -9.8743,-2.693668 -11.90287,-3.261698 -2.02856,-0.56802 -4.87382,-1.2726 -6.3228,-1.56573 -1.44898,-0.29312 -3.58292,-0.93574 -4.7421,-1.428 -1.15918,-0.49228 -3.53023,-1.19149 -5.269,-1.55378 -7.15784,-1.49146 -14.05545,-2.8189 -20.0222,-3.85329 -3.47755,-0.60286 -8.69385,-1.54833 -11.59181,-2.10103 -25.59307,-4.88122 -42.69654,-6.72886 -72.18532,-7.79802 -21.48426,-0.77893 -52.12662,0.71662 -66.38941,3.24024 -4.92652,0.87168 -10.98358,1.87206 -13.46015,2.22305 -2.47656,0.351 -4.75704,1.04949 -5.067739,1.55221 -0.310698,0.50271 -2.168656,0.91402 -4.128812,0.91402 -1.960157,0 -3.856993,0.4742 -4.215205,1.0538 -0.358202,0.57959 -1.975162,1.05379 -3.593239,1.05379 -2.776008,0 -7.47516,1.20842 -12.213759,3.14082 -7.512498,3.06363 -10.36139,4.64487 -9.116836,5.06021 0.781644,0.26087 2.441373,-0.0312 3.688299,-0.64889 4.806792,-2.38138 17.218263,-6.13469 24.923844,-7.53714 6.801287,-1.23787 32.583597,-4.91321 43.852147,-6.25125 29.73634,-3.53092 98.10535,1.78436 133.71319,10.39539 4.63672,1.1213 11.03856,2.58424 14.2263,3.25097 5.55055,1.16093 9.17402,2.01983 18.44151,4.371348 2.31836,0.58827 5.03862,1.49755 6.04505,2.02065 1.00641,0.52311 2.75672,0.9511 3.88955,0.9511 1.13285,0 2.319,0.41954 2.6359,0.93229 0.31691,0.51278 1.88608,1.17081 3.48705,1.46232 4.38377,0.79819 15.2735,3.82642 17.66405,4.91203 1.15918,0.52641 8.03522,3.20526 15.28011,5.95299 21.39633,8.11488 45.12808,19.37415 61.6473,29.24789 10.44557,6.24344 29.01972,18.368243 30.03331,19.605099 0.2898,0.353624 2.66085,2.288032 5.269,4.298684 6.61744,5.101435 11.2905,9.252292 16.2727,14.454259 3.89844,4.070399 5.85711,5.3899247 5.85711,3.94584 z m -0.14139,-8.674335 c -1.21714,-2.173464 -3.10587,-5.210484 -4.19719,-6.748927 -1.09132,-1.538443 -1.98422,-3.24365 -1.98422,-3.789339 0,-1.000826 -11.24864,-14.798541 -15.24909,-18.704691 -9.97068,-9.73568 -34.82512,-29.1314 -39.54852,-30.86259 -0.86939,-0.31865 -3.47755,-1.83028 -5.79591,-3.35923 -2.31835,-1.52892 -8.72019,-5.06234 -14.2263,-7.85201 -5.5061,-2.78968 -10.48531,-5.41021 -11.06489,-5.82339 -0.5796,-0.4132 -2.71355,-1.38046 -4.74212,-2.14948 -2.02856,-0.76902 -6.77066,-2.791688 -10.538,-4.494798 -9.54991,-4.31728 -10.21683,-4.58182 -17.9146,-7.10582 -6.47027,-2.12151 -8.26231,-2.79253 -13.96285,-5.22832 -6.90285,-2.94952 -44.08869,-13.1308 -54.53417,-14.93115 -3.18774,-0.54943 -8.16695,-1.45009 -11.06489,-2.00147 -32.08423,-6.10452 -50.34302,-7.82925 -82.72332,-7.81405 -28.51762,0.0134 -47.43601,1.70784 -62.70111,5.6159 -5.65175,1.44691 -12.31427,3.08291 -17.12426,4.20487 -6.056889,1.41283 -8.948244,2.58355 -23.973957,9.70716 -7.989876,3.78796 -23.475283,15.24876 -22.253874,16.47016 0.31345,0.31345 2.825683,-0.49042 5.582731,-1.78639 7.496322,-3.52369 9.283831,-4.12721 22.467045,-7.58566 23.015405,-6.03781 27.409505,-6.70146 58.702585,-8.86601 22.51476,-1.55734 26.60975,-1.55536 51.63622,0.0251 30.98332,1.95661 43.33638,3.41121 61.43063,7.2336 4.34693,0.91828 12.1714,2.43947 17.3877,3.38043 5.21632,0.94097 13.515,2.90016 18.44151,4.35377 4.92652,1.4536 11.80256,3.33911 15.2801,4.19002 9.23034,2.25855 14.47518,3.701158 16.86081,4.637628 1.15918,0.45504 3.76733,1.39726 5.79589,2.09384 2.02857,0.69657 4.63673,1.67296 5.79591,2.16975 1.15918,0.49678 5.86938,2.1344 10.46712,3.63914 4.59772,1.50474 10.99956,3.94648 14.2263,5.42607 3.22674,1.47959 8.23784,3.62711 11.13579,4.77225 6.46783,2.5558 28.98597,13.80438 38.9906,19.47713 19.91213,11.29041 36.81564,23.842522 52.33501,38.86259 3.86187,3.737629 7.52889,6.795684 8.14895,6.795684 0.62004,0 0.13151,-1.778289 -1.08563,-3.951752 z M 52.901395,-91.863642 c -0.350167,-0.35017 -1.259074,-0.3876 -2.019786,-0.0831 -0.840652,0.33639 -0.590944,0.5861 0.636675,0.63666 1.11088,0.0458 1.733278,-0.2033 1.383111,-0.55348 z m 6.081304,-2.52473 c 0.358202,-0.57959 1.571723,-1.0538 2.69669,-1.0538 1.124978,0 2.04541,-0.47422 2.04541,-1.0538 0,-0.57959 1.185525,-1.0538 2.634498,-1.0538 1.448983,0 2.634508,-0.47421 2.634508,-1.05381 0,-0.57958 -0.697803,-1.0538 -1.550654,-1.0538 -1.88625,0 -13.202553,4.91815 -13.202553,5.73792 0,1.02791 4.065461,0.62591 4.742101,-0.46891 z m -7.135105,-1.69048 c -0.350167,-0.35016 -1.259074,-0.3876 -2.019787,-0.0831 -0.840651,0.3364 -0.590943,0.5861 0.636676,0.63667 1.11088,0.0458 1.733278,-0.2033 1.383111,-0.55348 z"
       id="path3907"
       inkscape:connector-curvature="0" />
  </g>
</svg>
