<?xml version="1.0" encoding="UTF-8" standalone="no"?>
<svg
   xmlns:dc="http://purl.org/dc/elements/1.1/"
   xmlns:cc="http://creativecommons.org/ns#"
   xmlns:rdf="http://www.w3.org/1999/02/22-rdf-syntax-ns#"
   xmlns:svg="http://www.w3.org/2000/svg"
   xmlns="http://www.w3.org/2000/svg"
   id="svg8"
   version="1.1"
   viewBox="0 0 500 500"
   height="500mm"
   width="500mm">
  <defs
     id="defs2" />
  <metadata
     id="metadata5">
    <rdf:RDF>
      <cc:Work
         rdf:about="">
        <dc:format>image/svg+xml</dc:format>
        <dc:type
           rdf:resource="http://purl.org/dc/dcmitype/StillImage" />
        <dc:title></dc:title>
      </cc:Work>
    </rdf:RDF>
  </metadata>
  <g
     transform="translate(0,203)"
     id="layer1">
    <path
       id="path6717"
       d="m 55.705017,263.68395 -9.688769,-4.39789 v -13.65518 c 0,-7.51034 1.02587,-14.2892 2.27971,-15.06413 2.955786,-1.82677 2.955786,-11.85148 0,-13.67825 -1.25384,-0.77492 -2.27971,-3.40014 -2.27971,-5.83383 0,-3.9867 -1.693098,-4.42488 -17.097829,-4.42488 -28.90512417,0 -26.2166707,16.8248 -26.2166707,-164.068236 V -112.38786 l 27.5421767,-30.84699 27.542177,-30.847 H 257.07512 c 196.24942,0 199.35855,0.0695 203.84845,4.55942 2.50768,2.50768 4.44041,6.3547 4.29496,8.54892 -0.25186,3.79951 -0.31409,3.79951 -1.30702,0 -0.57339,-2.19422 -1.7588,-3.98948 -2.63419,-3.98948 -0.87541,0 -8.23772,7.43754 -16.36075,16.52789 l -14.7691,16.52789 1.13986,155.916183 1.13985,155.916137 15.11888,-16.89399 c 8.31536,-9.29172 15.63391,-18.92767 16.26343,-21.41326 1.13286,-4.47293 1.14697,-4.47251 1.37587,0.0401 0.20996,4.13804 -13.66435,20.97309 -44.62095,54.14313 l -10.10603,10.82862 h -16.94206 c -15.25053,6e-5 -16.94205,0.44185 -16.94205,4.42494 0,2.43368 -1.02587,5.05891 -2.27971,5.83382 -1.25384,0.77492 -2.27971,3.85254 -2.27971,6.83914 0,2.9866 1.02587,6.06421 2.27971,6.83912 1.25384,0.77493 2.27971,7.55379 2.27971,15.06413 v 13.65517 l -9.68877,4.3979 c -11.88582,5.39516 -17.23055,5.5482 -29.02017,0.83094 -12.01742,-4.80842 -11.9002,-8.49426 0.13519,-4.24795 9.67958,3.41516 19.33776,3.10052 30.02491,-0.97809 5.6899,-2.17149 6.2692,-3.45102 6.2692,-13.84755 -7e-5,-6.30024 -0.89696,-11.45498 -1.99315,-11.45498 -1.0962,0 -6.15299,1.46771 -11.23731,3.26154 -8.15307,2.87659 -10.58463,2.8329 -20.60063,-0.37008 -10.97279,-3.50896 -11.3163,-3.87889 -10.16869,-10.95072 0.67791,-4.17761 0.10148,-7.99044 -1.34326,-8.8833 -1.392,-0.86031 -2.53095,-3.55541 -2.53095,-5.98909 0,-4.06951 -1.7393,-4.42488 -21.65725,-4.42488 -19.91795,0 -21.65725,0.35537 -21.65725,4.42488 0,2.43368 -1.02587,5.05891 -2.27971,5.83382 -1.25384,0.77492 -2.27971,3.85254 -2.27971,6.83914 0,2.9866 1.02587,6.06421 2.27971,6.83912 1.25384,0.77493 2.27971,7.55379 2.27971,15.06413 v 13.65517 l -9.68877,4.3979 c -5.32882,2.41885 -12.25345,4.39791 -15.38805,4.39791 -3.1346,0 -10.05922,-1.97906 -15.38804,-4.39791 l -9.68877,-4.3979 v -13.65517 c 0,-7.51034 1.02587,-14.2892 2.27971,-15.06413 2.95578,-1.82677 2.95578,-11.85148 0,-13.67826 -1.25384,-0.77491 -2.27971,-3.40014 -2.27971,-5.83382 0,-4.06951 -1.7393,-4.42488 -21.65725,-4.42488 -19.91795,0 -21.65725,0.35537 -21.65725,4.42488 0,2.43368 -1.02587,5.05891 -2.27971,5.83382 -1.25384,0.77492 -2.27971,3.85254 -2.27971,6.83915 0,2.9866 1.02587,6.06421 2.27971,6.83912 1.25384,0.77493 2.27971,7.55379 2.27971,15.06413 v 13.65517 l -9.68878,4.3979 c -5.32881,2.41885 -12.25344,4.39791 -15.38804,4.39791 -3.1346,0 -10.05922,-1.97906 -15.38804,-4.39791 l -9.68877,-4.3979 v -13.65518 c 0,-7.51034 1.02586,-14.2892 2.27971,-15.06413 1.25384,-0.77491 2.2797,-3.85252 2.2797,-6.83912 0,-2.9866 -1.02586,-6.06422 -2.2797,-6.83914 -1.25385,-0.77491 -2.27971,-3.40014 -2.27971,-5.83382 0,-4.06951 -1.73932,-4.42488 -21.65726,-4.42488 -19.917933,0 -21.65724,0.35537 -21.65724,4.42488 0,2.43368 -1.02587,5.05891 -2.27971,5.83382 -1.253842,0.77492 -2.279711,3.85254 -2.279711,6.83914 0,2.9866 1.025869,6.06421 2.279711,6.83912 1.25384,0.77493 2.27971,7.55379 2.27971,15.06413 v 13.65517 l -9.68877,4.3979 c -5.328823,2.41885 -12.253444,4.39791 -15.388046,4.39791 -3.134602,0 -10.059223,-1.97906 -15.388047,-4.39791 z m 13.475778,-13.17531 c 0.695303,-11.80475 0.317235,-13.13193 -3.787008,-13.29422 -2.507681,-0.0992 -7.438536,-0.99179 -10.957454,-1.98365 l -6.398032,-1.80338 0.698757,12.05537 c 0.665554,11.48257 1.077883,12.19169 8.677743,14.92416 4.388442,1.57783 8.657271,2.94682 9.486284,3.0422 0.829014,0.0953 1.854883,-5.72781 2.27971,-12.94048 z m 18.909555,8.59273 c 5.167753,-1.96479 5.79982,-3.47321 5.79982,-13.8412 v -11.63611 l -7.40906,1.59071 c -13.768132,2.956 -15.388046,4.78101 -15.388046,17.33658 0,12.64375 0.481491,12.8293 16.997286,6.55002 z m 74.19113,-8.01721 c 0,-6.89613 0.7694,-12.53981 1.70978,-12.54152 0.94038,-0.001 1.35043,5.77761 0.91122,12.84294 -0.79445,12.77981 -0.76854,12.83849 5.0288,11.38346 16.46643,-4.13282 17.42702,-5.09792 17.42702,-17.50887 v -11.63611 l -7.40907,1.74058 c -9.58192,2.25102 -23.94199,2.20115 -32.04477,-0.11125 l -6.39804,-1.82593 0.69876,12.05537 c 0.66556,11.48258 1.07789,12.1917 8.67774,14.92416 4.38845,1.57783 8.7484,2.94681 9.68877,3.04221 0.94039,0.0953 1.70979,-5.46893 1.70979,-12.36504 z m 112.27575,8.26611 c 5.68176,-2.22404 6.2692,-3.52736 6.2692,-13.90897 0,-6.30023 -0.89689,-11.45498 -1.99308,-11.45498 -1.0962,0 -6.22556,1.4933 -11.39856,3.31844 -8.23304,2.90479 -10.5779,2.90479 -18.81094,0 -5.17301,-1.82514 -10.35595,-3.31844 -11.51769,-3.31844 -1.16172,0 -1.80213,5.29917 -1.42315,11.77592 0.65178,11.13889 1.12069,11.93731 8.66805,14.75992 8.58694,3.21137 20.15481,2.7626 30.20617,-1.17189 z M 256.37052,252.224 c 0,-5.64227 0.44458,-7.95049 0.98795,-5.12934 0.54339,2.82114 0.54339,7.43756 0,10.2587 -0.54337,2.82114 -0.98795,0.51293 -0.98795,-5.12936 z M 83.483062,231.76304 c 3.911728,-1.48723 5.847687,-3.94012 5.847687,-7.40906 0,-4.96241 -0.785541,-5.18577 -18.237685,-5.18577 H 52.855379 v 6.10205 c 0,3.8945 1.443288,6.47922 3.989494,7.14459 7.349271,1.92056 20.733714,1.59307 26.638189,-0.65181 z m 92.191718,0.79846 c 5.80783,-1.16155 7.1241,-2.53048 7.1241,-7.40905 0,-5.96049 -0.0724,-5.98424 -18.23769,-5.98424 H 146.3235 v 6.10205 c 0,3.8945 1.44329,6.47922 3.9895,7.14459 6.26811,1.63804 17.57788,1.70344 25.36178,0.14659 z m 93.46813,0 c 6.26027,-1.25205 7.1241,-2.34143 7.1241,-8.98429 0,-4.15771 1.02587,-8.19351 2.27971,-8.96843 3.52213,-2.17678 2.69323,-7.97899 -1.13986,-7.97899 -2.2992,0 -3.41957,2.29974 -3.41957,7.01924 v 7.01925 l -17.10313,-0.75005 -17.10315,-0.75002 0.005,6.10205 c 0.002,3.89151 1.45056,6.47971 3.9948,7.14459 6.26811,1.63804 17.57787,1.70344 25.36179,0.14659 z m 93.46813,0 c 6.29031,-1.25805 7.1241,-2.3253 7.1241,-9.11883 0,-4.23172 1.02587,-7.69403 2.27971,-7.69403 1.25384,0 2.27971,-2.05174 2.27971,-4.55942 0,-2.53301 -1.51982,-4.55943 -3.41957,-4.55943 -2.2992,0 -3.41957,2.29974 -3.41957,7.01924 v 7.01925 l -17.10313,-0.75005 -17.10315,-0.75002 0.005,6.10205 c 0.002,3.89151 1.45056,6.47971 3.99481,7.14459 6.26811,1.63804 17.57786,1.70344 25.36178,0.14659 z M 57.414801,212.32907 c 0,-4.17946 -1.215845,-5.69928 -4.559422,-5.69928 -5.765635,0 -6.249484,8.3429 -0.569927,9.82709 2.194221,0.57341 4.245961,1.16159 4.559421,1.30703 0.31346,0.14545 0.569928,-2.30023 0.569928,-5.43484 z m 32.968366,2.62555 c 6.849396,-5.00839 2.527393,-7.36634 -14.579635,-7.95419 -15.876283,-0.54555 -16.10902,-0.46989 -16.10902,5.23718 0,5.5366 0.581193,5.79074 13.242541,5.79074 7.510667,0 15.062009,-1.33041 17.446114,-3.07373 z m 60.499753,-2.62555 c 0,-4.17946 -1.21584,-5.69928 -4.55942,-5.69928 -5.76564,0 -6.24948,8.3429 -0.56992,9.82709 2.19422,0.57341 4.24596,1.16159 4.55942,1.30703 0.31345,0.14545 0.56992,-2.30023 0.56992,-5.43484 z m 25.93008,1.70979 c -1.00644,-3.12865 -0.79469,-3.30294 0.98132,-0.80766 2.65695,3.73294 9.56398,1.77506 9.56398,-2.71105 0,-2.28862 -4.44192,-3.20655 -17.09784,-3.53328 -16.86821,-0.43549 -17.09782,-0.36432 -17.09782,5.30004 0,5.43553 0.66426,5.74144 12.46686,5.74144 10.84229,0 12.29962,-0.51986 11.1835,-3.98949 z m 67.53806,-1.70979 c 0,-4.17946 -1.21584,-5.69928 -4.55942,-5.69928 -5.62056,0 -5.98917,5.77982 -0.56993,8.93624 5.33247,3.10589 5.12935,3.23407 5.12935,-3.23696 z m 26.94515,0.56994 c -0.63465,-4.4686 -2.27025,-5.21813 -12.69696,-5.81842 -11.4919,-0.66162 -11.96848,-0.45738 -11.96848,5.12935 0,5.54161 0.60401,5.81841 12.69696,5.81841 11.86327,0 12.64914,-0.3368 11.96848,-5.12934 z m 66.52299,-0.56994 c 0,-4.17946 -1.21585,-5.69928 -4.55943,-5.69928 -5.62056,0 -5.98917,5.77982 -0.56993,8.93624 5.33248,3.10589 5.12936,3.23407 5.12936,-3.23696 z m 27.35651,0 c 0,-5.38841 -0.6839,-5.69928 -12.5384,-5.69928 -11.8545,0 -12.53841,0.31087 -12.53841,5.69928 0,5.38842 0.68391,5.69928 12.53841,5.69928 11.8545,0 12.5384,-0.31086 12.5384,-5.69928 z m 48.26435,-11.75187 c 3.95997,-3.58373 4.169,-11.44482 4.169,-156.792765 0,-134.8053 -0.42243,-153.622985 -3.54883,-158.086545 l -3.54885,-5.06667 H 211.91542 c -181.596467,0 -198.952823,0.32295 -202.7649617,3.77289 -3.9604396,3.58415 -4.1689996,11.47284 -4.1689996,157.690444 0,140.022726 0.340596,154.293906 3.7728927,158.086546 3.6000516,3.97801 12.8605336,4.169 202.1447986,4.169 181.38798,0 198.72885,-0.32301 202.54091,-3.7729 z M 40.886899,190.48922 c -3.140374,-1.8291 -3.989493,-5.42184 -3.989493,-16.88009 0,-19.5072 -2.587519,-25.61047 -11.8784,-28.01798 l -7.49914,-1.94322 V 42.345733 -58.956462 l 6.244314,-0.718949 c 3.434372,-0.395423 7.794319,-2.93189 9.68877,-5.636601 1.894451,-2.7047 3.444456,-3.822513 3.444456,-2.484017 0,3.990845 -7.973937,9.979423 -13.287843,9.979423 H 18.659721 V 42.490654 142.79791 h 5.345949 c 9.389006,0 13.806768,7.71053 14.790295,25.81418 0.488849,8.99825 1.926077,17.6428 3.193835,19.2101 3.28719,4.06388 334.62656,4.17538 338.68795,0.11401 1.58048,-1.58048 2.73566,-9.15186 2.73566,-17.93024 0,-16.83022 4.89433,-26.28951 14.29362,-27.62535 l 5.08391,-0.72254 V 42.654679 -56.348715 l -6.48605,-1.734637 c -10.11238,-2.704467 -12.73822,-8.120389 -12.81899,-26.439643 -0.0611,-13.8842 -0.75976,-16.815505 -4.48205,-18.807615 -6.91671,-3.70172 -330.964679,-3.22927 -335.890631,0.48972 -2.658765,2.00731 -4.00545,7.229755 -4.555888,17.667765 l -0.781419,14.818112 -0.439251,-16.447692 c -0.378966,-14.190195 0.165962,-16.771605 3.970295,-18.807615 2.923049,-1.56437 60.006124,-2.35992 169.331174,-2.35992 145.57732,0 165.51592,0.41626 169.9883,3.54884 4.38115,3.06867 5.06669,5.621845 5.06669,18.870295 0,17.599626 3.64612,24.783379 13.13323,25.875694 l 6.2443,0.718949 V 42.490654 143.93776 l -6.2443,0.71896 c -9.48121,1.09163 -13.13323,8.2777 -13.13323,25.84214 0,10.85845 -1.03796,16.32582 -3.58241,18.87027 -3.19274,3.19276 -21.72795,3.57487 -170.40837,3.51308 -109.06578,-0.0453 -168.207231,-0.87383 -170.815441,-2.39299 z M 141.19572,13.939857 c -0.60494,-3.164512 -0.2116,-6.30267 0.8741,-6.973657 1.08569,-0.67101 1.97397,1.918148 1.97397,5.75367 0,8.463265 -1.35267,9.042699 -2.84807,1.219987 z m 43.88287,3.60853 c 0,-1.179841 1.02587,-2.779195 2.27971,-3.554114 1.25384,-0.774918 2.27971,-2.434798 2.27971,-3.68864 0,-1.25384 -1.02587,-1.645699 -2.27971,-0.87078 -1.25384,0.774918 -2.27971,0.322533 -2.27971,-1.005307 0,-1.327841 1.49751,-2.414259 3.32778,-2.414259 2.28358,0 3.17777,2.144615 2.84965,6.834595 -0.26299,3.759037 -1.7605,6.836646 -3.3278,6.839132 -1.5673,0.0023 -2.84963,-0.960785 -2.84963,-2.140627 z m 45.59421,-0.0791 c 0,-1.432342 1.02587,-1.970217 2.27971,-1.195298 1.25384,0.774919 2.27971,0.38306 2.27971,-0.87078 0,-1.253842 -1.02587,-2.913722 -2.27971,-3.688641 -3.27135,-2.021807 -2.81875,-6.258899 0.54868,-5.136438 3.69235,1.230793 3.70943,11.302895 0.0206,12.53973 -1.5673,0.52561 -2.84964,-0.216345 -2.84964,-1.648573 z m 48.1999,0.194231 c -1.94093,-1.229812 -2.52075,-3.765056 -1.55616,-6.804206 2.25837,-7.1155 5.7896,-5.898637 5.7896,1.995111 0,7.616286 0.0704,7.536222 -4.23344,4.809118 z M 61.974222,-4.108861 c 0,-7.038788 4.011045,-9.638929 8.281518,-5.368468 4.166253,4.166263 1.711556,10.933195 -3.966002,10.933195 -3.055587,0 -4.315516,-1.624636 -4.315516,-5.564727 z m 7.44196,1.922274 c 1.82631,-1.826299 -0.563957,-7.756099 -3.126444,-7.756099 -1.119693,0 -2.035805,2.051739 -2.035805,4.559421 0,4.443589 2.418018,5.940925 5.162249,3.196678 z m 6.500752,-0.34704 c -0.16277,-3.157148 1.050352,-5.129349 3.155117,-5.129349 2.073885,0 3.356511,2.018524 3.259337,5.129349 C 82.17949,2.3287 82.076821,2.358381 80.358964,-1.963699 L 78.546769,-6.52312 77.364078,-1.963699 C 76.285713,2.193535 76.158056,2.143245 75.916934,-2.533627 Z M 88.930668,-4.64049 c 0.972816,-4.771342 1.546077,-5.344594 2.210414,-2.210407 0.493328,2.327402 -0.09773,5.226327 -1.313453,6.442051 -1.427411,1.427419 -1.745145,-0.07159 -0.896961,-4.231644 z m 10.343325,2.676791 c -1.828978,-4.766236 0.66045,-10.258698 4.649697,-10.258698 3.71788,0 7.00735,7.802059 4.7972,11.37815 -2.13561,3.455493 -7.95599,2.76579 -9.446897,-1.119452 z m 7.154587,-3.039607 c 0,-4.123221 -4.46208,-3.370483 -5.34707,0.902036 -0.49239,2.377077 0.3622,3.419246 2.2797,2.780061 1.68705,-0.562336 3.06737,-2.219298 3.06737,-3.682097 z m 5.85951,0.189901 c -0.0881,-4.074983 0.92618,-7.40906 2.25401,-7.40906 1.32784,0 1.64385,1.282338 0.70225,2.849639 -1.23161,2.050006 -0.66282,1.999191 2.02704,-0.18101 3.32958,-2.698844 3.61198,-2.329985 2.5787,3.368204 -1.42633,7.865777 -3.10765,9.905775 -3.32305,4.031988 -0.15311,-4.175359 -0.24727,-4.166901 -2.11947,0.189945 -1.64187,3.82084 -1.98522,3.359222 -2.11948,-2.849638 z m 23.92747,0.96206 c -7.88381,-5.764704 -3.70005,-22.049315 5.66482,-22.049315 10.69395,0 15.11069,15.297608 6.21559,21.527991 -6.1547,4.310909 -6.66719,4.333387 -11.88041,0.521392 z m 10.25782,-1.612189 c 9.0045,-4.819075 3.04734,-20.203043 -6.63346,-17.130471 -5.86202,1.86053 -7.48714,8.93949 -3.39385,14.783487 3.80276,5.429199 4.12653,5.504976 10.02731,2.346984 z m 35.34848,1.057216 c -1.97033,-1.970239 -3.58241,-4.64858 -3.58241,-5.951761 0,-1.303185 1.86401,-0.06747 4.14224,2.746032 3.52674,4.355319 4.88174,4.719685 9.11885,2.452057 5.73376,-3.068627 6.65372,-11.951376 1.66643,-16.090456 -4.26975,-3.543583 -12.59478,-0.913691 -12.82778,4.052327 -0.11693,2.492188 -0.59171,2.810809 -1.35538,0.909581 -1.58737,-3.951899 3.41255,-9.612122 8.49078,-9.612122 10.69395,0 15.11069,15.297608 6.21559,21.527991 -6.3104,4.419971 -7.41792,4.416824 -11.86832,-0.03351 z m 45.59421,0 c -5.08359,-5.083595 -4.6018,-16.229008 0.82715,-19.13449 5.9908,-3.206183 8.32454,-2.978407 12.52543,1.222483 4.80412,4.80411 4.52982,13.09124 -0.58659,17.721514 -5.20483,4.710316 -8.20146,4.755044 -12.76599,0.190585 z m 10.24573,-1.057216 c 5.33119,-2.853171 5.78193,-11.900813 0.7989,-16.036366 -7.45907,-6.190478 -16.39445,7.353352 -9.96348,15.102187 3.26065,3.928853 3.51965,3.955252 9.16458,0.934179 z m 35.34848,1.057216 c -5.08359,-5.083595 -4.6018,-16.229008 0.82715,-19.13449 5.9908,-3.206183 8.32454,-2.978407 12.52544,1.222483 4.80412,4.80411 4.52981,13.09124 -0.5866,17.721514 -5.20483,4.710316 -8.20147,4.755044 -12.76599,0.190585 z m 10.24573,-1.057216 c 5.33119,-2.853171 5.78193,-11.900813 0.7989,-16.036366 -7.45908,-6.190478 -16.39445,7.353352 -9.96348,15.102187 3.26065,3.928853 3.51965,3.955252 9.16458,0.934179 z M 57.414801,-22.23719 c 0,-5.617592 5.644759,-9.720038 8.04052,-5.843615 0.741073,1.199079 -0.508412,2.252248 -2.77663,2.340375 -3.681213,0.143027 -3.634463,0.370608 0.435386,2.119481 l 4.559421,1.95925 -4.559421,0.32046 -4.559421,0.320461 4.559421,1.95925 c 4.3505,1.869474 4.324385,1.966592 -0.569928,2.119482 -3.934983,0.122918 -5.129348,-1.110051 -5.129348,-5.295144 z m 11.927452,-1.383759 c 0,-4.388443 0.469153,-6.183715 1.042564,-3.989493 0.573409,2.194221 0.573409,5.784765 0,7.978986 -0.573411,2.194222 -1.042564,0.39895 -1.042564,-3.989493 z m 4.29497,2.849638 c -0.162769,-3.157146 1.050352,-5.129349 3.155118,-5.129349 2.073884,0 3.35651,2.018522 3.259336,5.129349 -0.151898,4.862337 -0.254566,4.892006 -1.972424,0.569928 l -1.812195,-4.559422 -1.182691,4.559422 c -1.078364,4.157223 -1.206021,4.106948 -1.447144,-0.569928 z m 13.593791,0.379953 c 0.109376,-2.655733 0.649583,-3.195927 1.377325,-1.377327 0.658543,1.645666 0.577551,3.611917 -0.179982,4.369447 -0.75753,0.757528 -1.296337,-0.588926 -1.19735,-2.99212 z m 9.019647,1.32983 c 0.04443,-0.62692 1.435541,-3.583862 3.091354,-6.570981 l 3.010565,-5.431125 2.29067,6.570981 c 2.10303,6.032793 1.84985,6.570981 -3.09136,6.570981 -2.960105,0 -5.345657,-0.512936 -5.301229,-1.139856 z m 13.957429,-2.279711 c 0,-3.134601 0.51744,-4.416939 1.14986,-2.849638 0.63242,1.567301 0.63242,4.131976 0,5.699277 -0.63242,1.567301 -1.14986,0.284963 -1.14986,-2.849639 z m 4.55943,0 c 0,-3.134601 0.51743,-4.416939 1.14985,-2.849638 0.63242,1.567301 0.63242,4.131976 0,5.699277 -0.63242,1.567301 -1.14985,0.284963 -1.14985,-2.849639 z m 4.79765,-0.379952 c -0.19119,-2.538079 1.19631,-4.165759 3.53299,-4.14456 3.31753,0.0301 3.37655,0.339461 0.42824,2.244802 -2.27971,1.473263 -2.46969,2.22153 -0.56993,2.244801 1.56731,0.01915 2.84964,0.889801 2.84964,1.934667 0,3.901504 -5.93873,1.732187 -6.24094,-2.27971 z M 61.414088,-46.987982 c -1.529394,-4.158845 0.486581,-8.548914 3.925773,-8.548914 3.439189,0 5.538245,4.390069 4.087553,8.548914 -0.546706,1.567301 -2.337572,2.849639 -3.9797,2.849639 -1.642126,0 -3.457258,-1.282338 -4.033626,-2.849639 z m 6.139073,-4.184203 c -0.734012,-1.187656 -2.306285,-1.558818 -3.493939,-0.824808 -1.187656,0.734012 -1.558818,2.306285 -0.824808,3.493939 0.734012,1.187656 2.306285,1.558818 3.493939,0.824808 1.187656,-0.734012 1.558818,-2.306285 0.824808,-3.493939 z m 70.387609,3.384197 c -1.6128,-4.202898 3.9005,-8.583603 6.9566,-5.527505 2.4883,2.488292 0.20456,9.17715 -3.13328,9.17715 -1.33255,0 -3.05304,-1.64234 -3.82332,-3.649645 z m 6.10302,-2.184173 c 0,-1.954759 -1.02586,-2.920086 -2.2797,-2.14517 -1.25385,0.774918 -2.27971,2.374265 -2.27971,3.554108 0,1.179844 1.02586,2.145169 2.27971,2.145169 1.25384,0 2.2797,-1.599349 2.2797,-3.554107 z m 39.83323,3.454245 c -2.13646,-3.456839 3.65424,-9.757897 6.42302,-6.989124 2.55672,2.556717 0.56762,9.368697 -2.73565,9.368697 -1.21921,0 -2.87852,-1.070808 -3.68737,-2.379573 z m 5.76099,-3.454245 c 0,-1.954759 -1.0426,-2.909743 -2.3169,-2.122188 -1.2743,0.787558 -1.72668,2.386905 -1.00531,3.554108 1.95426,3.162059 3.32221,2.572451 3.32221,-1.43192 z m 39.75972,3.335344 c -0.84929,-1.374162 -0.005,-4.037281 1.87543,-5.918042 2.40388,-2.403893 3.88856,-2.660698 4.99863,-0.864607 0.86848,1.405227 0.5795,2.273074 -0.64215,1.928548 -1.22165,-0.344528 -2.06731,0.399458 -1.87924,1.653299 0.18808,1.25384 1.11136,2.023242 2.05174,1.709783 0.94038,-0.313461 1.70979,0.455942 1.70979,1.709782 0,3.074226 -6.18203,2.907557 -8.1142,-0.218763 z m 46.10883,-0.754415 c -1.73191,-4.513325 3.7325,-8.821141 7.01973,-5.533916 3.05089,3.050898 1.19717,8.786805 -2.83972,8.786805 -1.61245,0 -3.49347,-1.4638 -4.18001,-3.252889 z m 6.33937,-3.780953 c -0.73399,-1.187656 -2.30627,-1.558818 -3.49392,-0.824808 -1.18767,0.734012 -1.55882,2.306285 -0.8248,3.493939 0.734,1.187656 2.30626,1.558818 3.49393,0.824808 1.18766,-0.734012 1.55882,-2.306285 0.82479,-3.493939 z M 41.721276,-64.085812 c -0.284344,-7.966475 5.469009,-10.663302 8.103338,-3.798343 1.017022,2.650316 1.839751,2.875814 3.093138,0.847781 2.060697,-3.334269 6.77676,-0.884305 6.77676,3.520496 0,4.959609 -4.940815,6.7307 -7.252597,2.599771 -2.75407,-4.921247 -8.099349,-4.77937 -9.413625,0.249863 -0.57341,2.194222 -1.161566,0.655417 -1.307014,-3.419568 z m 15.693525,0.435389 c 0,-1.954756 -1.042603,-2.909741 -2.316897,-2.122193 -1.274293,0.787559 -1.726685,2.386915 -1.005315,3.554112 1.95426,3.162059 3.322212,2.572451 3.322212,-1.431919 z m 6.113488,4.34827 c -2.442652,-2.442657 -1.814538,-8.06336 0.725644,-6.493437 1.25384,0.774917 2.295419,0.06608 2.314619,-1.575244 0.02767,-2.366654 0.442328,-2.341117 2.003749,0.123419 1.662235,2.623654 2.161298,2.623654 3.204681,0 0.96792,-2.433886 1.267289,-2.366251 1.380907,0.311981 0.07979,1.880754 -0.849384,4.958369 -2.064825,6.839127 -1.964349,3.039613 -2.21765,3.039613 -2.279711,0 -0.0531,-2.599948 -0.508581,-2.728344 -1.900408,-0.535669 -1.006824,1.586146 -2.52992,2.18457 -3.384656,1.329833 z m 12.124196,-4.213725 c 0,-3.850187 1.044866,-5.730942 2.849638,-5.129357 1.567301,0.522434 2.849639,2.830648 2.849639,5.129357 0,2.298709 -1.282338,4.60691 -2.849639,5.129344 -1.804772,0.60159 -2.849638,-1.27917 -2.849638,-5.129344 z m 9.118842,0 c 0,-3.134607 0.883611,-5.699279 1.963579,-5.699279 1.079969,0 1.473311,2.564672 0.874093,5.699279 -0.599217,3.134598 -1.482829,5.699272 -1.963578,5.699272 -0.480753,0 -0.874094,-2.564674 -0.874094,-5.699272 z M 429.00762,28.559846 c 0,-85.122276 -0.84706,-154.767776 -1.88235,-154.767776 -1.03526,0 -4.06565,2.32406 -6.73419,5.16459 -3.44655,3.66869 -4.23208,6.14484 -2.71201,8.54892 1.27504,2.01655 2.18464,64.653839 2.25065,154.985074 0.11033,151.057666 0.12675,151.581456 4.59431,146.218836 4.36142,-5.23527 4.48359,-9.59872 4.48359,-160.149644 z m -8.20334,-152.859576 c 1.89956,-2.71201 2.92307,-5.78963 2.27444,-6.83913 -0.64862,-1.04951 -90.70357,-1.90819 -200.12206,-1.90819 H 24.013914 l -5.342361,5.68667 -5.34236,5.68668 199.290287,0.59521 c 109.60966,0.32737 200.51446,0.84597 202.01069,1.15245 1.49619,0.30649 4.27454,-1.66167 6.17411,-4.37369 z m 22.90533,-25.79862 c 8.39346,-9.37822 14.61387,-18.09811 13.82313,-19.37754 -2.28244,-3.6931 -395.907332,-3.17869 -400.508431,0.52339 -1.947903,1.56731 -9.569206,9.5178 -16.936227,17.66776 l -13.394584,14.81813 198.307422,1.15875 c 109.06909,0.63731 199.46401,1.40672 200.87763,1.70978 1.41362,0.30307 9.43759,-7.12205 17.83106,-16.50027 z M 329.32125,245.38488 c 0,-5.64229 0.44459,-7.95049 0.98796,-5.12935 0.54339,2.82115 0.54339,7.43755 0,10.25871 -0.54337,2.82114 -0.98796,0.51293 -0.98796,-5.12936 z M 463.63289,129.11965 c -1.79471,-2.74334 -2.8248,-2.85605 -5.20887,-0.56994 -1.63446,1.56731 -6.23916,2.84965 -10.23262,2.84965 -10.23748,0 -14.62436,-7.53223 -14.62436,-25.10982 0,-18.767696 4.51555,-27.323518 14.42072,-27.323518 4.10548,0 8.69554,1.231043 10.20015,2.735653 2.12772,2.127722 3.34358,2.127722 5.47131,0 1.50461,-1.50461 8.71108,-2.735653 16.01439,-2.735653 12.15624,0 13.46668,0.494332 15.50204,5.847685 3.21986,8.468896 2.78304,38.151173 -0.62635,42.560383 -3.98976,5.15975 -27.80324,6.50426 -30.91641,1.74556 z m -14.66639,-2.84963 c -0.51617,-1.56731 -3.16125,-3.17681 -5.87798,-3.57664 -3.69621,-0.54404 -4.59405,0.17325 -3.56704,2.84963 1.62381,4.23157 10.83261,4.94041 9.44502,0.72701 z m 43.75314,-5.69928 c 1.30577,-4.70191 2.37416,-11.62653 2.37416,-15.38805 0,-3.76152 -1.06839,-10.686141 -2.37416,-15.388044 -2.32514,-8.372418 -2.60169,-8.548914 -13.39492,-8.548914 h -11.02076 l -2.55035,10.128343 c -1.40268,5.570587 -2.55034,10.756155 -2.55034,11.523455 0,0.76733 4.84507,1.08246 10.7668,0.70029 10.42461,-0.67275 10.84869,-0.98466 13.34303,-9.813681 2.37562,-8.408688 2.55795,-7.525551 2.34154,11.340351 -0.20631,17.99565 -0.47959,19.29955 -2.26838,10.82863 l -2.03369,-9.63057 h -11.07464 c -6.09108,0 -11.07466,0.57159 -11.07466,1.27021 0,0.69861 1.14766,5.82796 2.55034,11.39855 l 2.55035,10.12835 h 11.02076 c 10.79323,0 11.06978,-0.17646 13.39492,-8.54892 z m -1.79989,-14.24819 c 0,-3.1346 0.51744,-4.41694 1.14985,-2.84964 0.63242,1.5673 0.63242,4.13197 0,5.69927 -0.63241,1.56731 -1.14985,0.28498 -1.14985,-2.84963 z m -28.29234,8.89761 c -1.61215,-6.35141 -1.63577,-12.5519 -0.0739,-19.377533 2.05114,-8.963548 1.86287,-10.037474 -1.7598,-10.037474 -9.11964,0 -10.13844,1.884591 -9.78891,18.107537 0.39285,18.23549 1.40582,20.64754 8.67101,20.64754 5.09636,0 5.22167,-0.39656 2.95156,-9.34007 z m -14.16888,-0.82776 c -2.96255,-15.09152 -3.36804,-20.423512 -1.30914,-17.214478 1.55134,2.417906 2.06665,0.615248 1.7921,-6.269204 -0.30372,-7.616558 -1.24832,-9.662986 -4.46032,-9.662986 -2.24125,0 -4.07501,0.429042 -4.07501,0.953398 0,0.524379 -0.59135,2.494482 -1.31413,4.378025 -0.88893,2.316459 0.40203,3.751696 3.98949,4.435427 4.76261,0.907689 4.66413,1.042466 -0.96557,1.321252 -6.10999,0.302563 -6.2692,0.658744 -6.2692,14.024916 v 13.71448 l 6.76232,-0.51527 c 5.46957,-0.41676 6.58782,-1.40426 5.84946,-5.16556 z"
       style="fill:#000000;stroke-width:2.27971053" />
  </g>
</svg>
