<?xml version="1.0" encoding="UTF-8" standalone="no"?>
<!-- Created with Inkscape (http://www.inkscape.org/) -->

<svg
   xmlns:dc="http://purl.org/dc/elements/1.1/"
   xmlns:cc="http://creativecommons.org/ns#"
   xmlns:rdf="http://www.w3.org/1999/02/22-rdf-syntax-ns#"
   xmlns:svg="http://www.w3.org/2000/svg"
   xmlns="http://www.w3.org/2000/svg"
   xmlns:sodipodi="http://sodipodi.sourceforge.net/DTD/sodipodi-0.dtd"
   xmlns:inkscape="http://www.inkscape.org/namespaces/inkscape"
   width="500"
   height="500"
   viewBox="0 0 132.29166 132.29167"
   version="1.1"
   id="svg8"
   inkscape:version="0.92.4 5da689c313, 2019-01-14"
   sodipodi:docname="icon.svg">
  <defs
     id="defs2" />
  <sodipodi:namedview
     id="base"
     pagecolor="#ffffff"
     bordercolor="#666666"
     borderopacity="1.0"
     inkscape:pageopacity="0.0"
     inkscape:pageshadow="2"
     inkscape:zoom="0.42657054"
     inkscape:cx="322.0882"
     inkscape:cy="275.94377"
     inkscape:document-units="mm"
     inkscape:current-layer="layer1"
     showgrid="false"
     units="px"
     inkscape:window-width="1920"
     inkscape:window-height="1003"
     inkscape:window-x="0"
     inkscape:window-y="0"
     inkscape:window-maximized="1" />
  <metadata
     id="metadata5">
    <rdf:RDF>
      <cc:Work
         rdf:about="">
        <dc:format>image/svg+xml</dc:format>
        <dc:type
           rdf:resource="http://purl.org/dc/dcmitype/StillImage" />
        <dc:title></dc:title>
      </cc:Work>
    </rdf:RDF>
  </metadata>
  <g
     inkscape:label="Layer 1"
     inkscape:groupmode="layer"
     id="layer1"
     transform="translate(0,-164.70832)">
    <path
       style="fill:#000000;stroke:#000000;stroke-width:0.61493635"
       d="m 55.554676,294.52378 c -3.552351,-0.40724 -8.073516,-1.02699 -10.04705,-1.37721 l -3.588224,-0.63675 v -59.78204 -59.78203 l 7.433968,-3.30468 7.433968,-3.30468 6.918961,0.80213 c 3.805409,0.44117 8.826816,1.01761 11.158674,1.281 2.331858,0.26338 4.506758,0.788 4.833119,1.1658 0.326378,0.37781 0.598338,27.51138 0.60439,60.29683 0.0081,47.05575 -0.177937,59.72392 -0.886068,60.15136 -1.350827,0.81537 -15.67408,5.39515 -16.598422,5.30725 -0.442466,-0.0421 -3.710965,-0.40973 -7.263316,-0.81698 z m 6.817637,-59.42955 V 176.8789 l -1.614706,-0.21846 c -4.739973,-0.64128 -10.618958,-1.36398 -13.635274,-1.67617 l -3.408827,-0.3528 v 58.2474 58.24741 l 3.767654,0.59271 c 3.591193,0.56496 10.953886,1.38913 13.635274,1.52631 1.189017,0.0608 1.255879,-3.03471 1.255879,-58.15107 z m -10.631661,49.42418 c -1.491204,-0.43803 -2.396254,-2.71922 -1.543172,-3.88958 0.78012,-1.0703 3.214649,-1.33192 4.938564,-0.53071 0.559171,0.25987 1.016661,1.22556 1.016661,2.14598 0,2.15831 -1.744894,3.05776 -4.412053,2.27431 z m 20.598528,6.31898 5.821355,-1.94524 v -21.77351 -21.77352 l -2.599405,0.79746 c -4.558288,1.39841 -4.57706,1.37922 -4.57706,-4.68034 v -5.4778 l 3.588224,-1.69063 3.588241,-1.69065 v -30.53161 -30.5316 l -6.458826,2.44931 -6.45881,2.44933 v 58.17202 c 0,33.5525 0.269786,58.17202 0.637472,58.17202 0.350601,0 3.257076,-0.87536 6.458809,-1.94524 z m 3.939588,-46.2756 2.599405,-0.79745 v -4.73527 c 0,-2.6044 -0.178229,-4.73526 -0.396047,-4.73526 -0.217834,0 -1.668589,0.5335 -3.223896,1.18558 l -2.827818,1.18559 -0.0065,4.34713 c -0.0032,2.39093 0.27798,4.34715 0.624476,4.34715 0.346513,0 1.799734,-0.35886 3.229413,-0.79747 z m -7.447645,-71.96872 c 2.960293,-1.17878 5.651903,-2.33369 5.981363,-2.56647 0.329461,-0.23277 -2.254076,-0.70712 -5.741171,-1.0541 -3.487095,-0.34698 -7.407165,-0.83297 -8.711264,-1.07999 -2.086361,-0.39518 -3.055857,-0.15527 -8.073922,1.99804 -3.595379,1.54283 -5.369802,2.58403 -4.801594,2.8175 0.495699,0.20368 3.461103,0.63176 6.589776,0.95127 3.128673,0.31951 5.845042,0.69587 6.036381,0.83637 0.926273,0.6801 3.819817,0.0488 8.720431,-1.90262 z"
       id="path4500"
       inkscape:connector-curvature="0" />
  </g>
</svg>
