<?xml version="1.0" encoding="UTF-8" standalone="no"?>
<svg
   xmlns:dc="http://purl.org/dc/elements/1.1/"
   xmlns:cc="http://creativecommons.org/ns#"
   xmlns:rdf="http://www.w3.org/1999/02/22-rdf-syntax-ns#"
   xmlns:svg="http://www.w3.org/2000/svg"
   xmlns="http://www.w3.org/2000/svg"
   width="500mm"
   height="500mm"
   viewBox="0 0 500 500"
   version="1.1"
   id="svg8">
  <defs
     id="defs2" />
  <metadata
     id="metadata5">
    <rdf:RDF>
      <cc:Work
         rdf:about="">
        <dc:format>image/svg+xml</dc:format>
        <dc:type
           rdf:resource="http://purl.org/dc/dcmitype/StillImage" />
        <dc:title></dc:title>
      </cc:Work>
    </rdf:RDF>
  </metadata>
  <g
     id="layer1">
    <path
       style="fill:#000000;stroke-width:1.99662"
       d="m 73.854842,497.78696 c -1.64721,-1.06322 -11.53046,-5.65791 -21.96278,-10.21042 -10.43233,-4.55252 -20.5402,-9.64821 -22.46194,-11.32375 -3.23751,-2.82276 -3.49408,-10.13461 -3.49408,-99.57294 0,-84.47023 0.37407,-96.52646 2.99492,-96.52646 4.37153,0 4.37153,-29.54633 0,-31.22383 -2.60562,-0.99989 -2.99492,-13.83274 -2.99492,-98.72385 V 52.631129 l 4.59082,-3.008025 c 2.52496,-1.654415 10.16164,-3.247461 16.97041,-3.540107 7.30857,-0.314126 12.37993,-1.4271 12.38042,-2.717035 5.4e-4,-1.420021 9.96154,-2.633096 28.45262,-3.465028 15.648488,-0.704043 33.842658,-2.186719 40.431498,-3.294839 29.24417,-4.918326 63.84084,-8.457034 87.19221,-8.918426 18.84587,-0.37237 26.03126,-1.23401 28.176,-3.378743 1.97624,-1.976236 15.95555,-4.301742 44.5845,-7.416776 22.93807,-2.495827 49.98341,-5.813286 60.10074,-7.3721305 10.11732,-1.558844 20.00057,-2.315764 21.96279,-1.682045 2.64727,0.854973 2.8806,0.66023 0.90445,-0.754887 -3.71996,-2.6638671 1.43776,-4.4594356 12.80957,-4.4594356 6.51023,0 8.82147,0.7846754 8.82147,2.9949256 0,3.767761 2.7893,3.856441 5.83588,0.185539 1.28236,-1.5451623 7.65487,-3.4272199 14.16112,-4.1823502 l 11.82954,-1.37296409 23.0847,15.57005579 c 16.34099,11.021587 23.48561,17.055353 24.45704,20.654438 0.7548,2.796412 1.37671,94.932144 1.38202,204.746064 0.008,172.02583 -0.39821,200.48395 -2.9371,205.6024 -2.91089,5.86838 -3.32357,5.99512 -33.89098,10.40872 -73.54945,10.61973 -342.960698,42.66956 -357.425268,42.5202 -1.6284,-0.0168 -4.30844,-0.9005 -5.95565,-1.96372 z m 13.22743,-6.49134 6.02431,-6.489 -4.4256,-4.20961 -4.4256,-4.20961 -4.38074,7.79448 c -4.09211,7.28094 -4.31718,13.60275 -0.48428,13.60275 0.91718,0 4.37855,-2.92006 7.69191,-6.48901 z m 55.065988,-0.41639 c 25.7073,-2.69983 66.00639,-7.24579 89.55356,-10.10211 23.54716,-2.85634 46.85617,-5.60971 51.7978,-6.11863 32.20073,-3.3162 176.01553,-22.55566 177.24966,-23.71236 0.30201,-0.28304 -1.04571,-2.36066 -2.99493,-4.61692 l -3.54399,-4.1023 -57.71593,10.67579 c -54.2823,10.04066 -104.5966,18.07721 -124.97452,19.96177 -57.70328,5.33642 -79.10496,6.98377 -115.80378,8.91374 -56.690818,2.98137 -58.456308,3.23252 -63.968438,9.0999 -4.52181,4.81324 -4.53118,4.9099 -0.47628,4.9099 2.27498,0 25.169558,-2.20896 50.876848,-4.90878 z m -70.290038,2.00989 c 0,-1.07582 -33.9534,-17.14155 -35.71633,-16.8999 -1.01031,0.13848 33.65323,17.61661 35.21718,17.75727 0.27454,0.0247 0.49915,-0.36111 0.49915,-0.85737 z m 2.66958,-61.492 c 1.68363,-74.69889 1.68672,-206.86838 0.007,-285.18834 l -1.30991,-61.068085 -9.16875,-5.258102 c -5.04282,-2.891956 -13.88577,-7.9993 -19.651,-11.349657 L 33.922902,62.441382 V 267.01713 471.59291 l 18.46871,8.9311 c 10.15779,4.9121 18.99782,9.00828 19.6445,9.10262 0.64669,0.0944 1.76813,-26.10894 2.49209,-58.22951 z m 6.57393,45.92218 c 2.86453,-5.53841 3.58599,-17.01872 4.92483,-78.36721 2.47672,-113.48916 2.6937,-106.18351 -3.18694,-107.30767 l -4.99154,-0.9542 -0.005,56.12755 c -0.003,30.87015 -0.59474,74.32173 -1.31522,96.55905 -0.72049,22.23732 -0.7412,40.43149 -0.046,40.43149 0.69517,0 2.77423,-2.92005 4.62014,-6.48901 z m 84.597488,1.50509 c 87.75854,-5.55742 129.88398,-10.35719 201.68308,-22.97978 68.26791,-12.00178 91.85298,-17.1366 95.51574,-20.79518 2.79938,-2.79622 3.48473,-10.52383 4.57982,-51.63868 1.78122,-66.87525 1.95838,-190.04991 0.37924,-263.66736 -1.14902,-53.565351 -1.76002,-62.119758 -4.69583,-65.745345 -3.32488,-4.106055 -3.84582,-4.13101 -35.11388,-1.682066 -108.32775,8.484336 -168.60561,15.498858 -266.27562,30.986435 -46.58797,7.387475 -69.483698,11.823504 -70.879898,13.732914 -2.45721,3.360422 -2.84103,378.360012 -0.39128,382.280592 2.05416,3.28747 17.073828,3.1893 75.198628,-0.49153 z M 256.736,398.26238 c -2.55225,-4.12966 -3.69907,-21.82102 -2.27594,-35.11007 1.78046,-16.62568 4.30726,-18.5174 28.87647,-21.6186 16.25196,-2.05137 18.52952,-1.94062 21.51658,1.04644 3.98397,3.98395 5.71895,22.1681 3.67554,38.52295 -1.31464,10.52201 -1.84444,11.38976 -8.72197,14.28555 -9.20132,3.87424 -41.13549,6.00493 -43.07068,2.87373 z m 44.06234,-5.93943 c 3.14549,-1.68341 4.36447,-4.93187 5.33496,-14.21711 1.51584,-14.50267 -0.33657,-30.0645 -3.73389,-31.36819 -5.1122,-1.96172 -35.83416,3.4713 -38.36681,6.78496 -1.61051,2.10719 -2.49577,10.31039 -2.49577,23.12695 v 19.86149 l 17.59223,-1.00306 c 9.67573,-0.55169 19.4269,-1.98496 21.66928,-3.18504 z m -29.77758,-3.47951 c -2.79081,-2.86688 -1.70361,-28.16533 1.31819,-30.6732 1.54861,-1.28523 8.06257,-2.51834 14.47547,-2.74026 l 11.65982,-0.40346 0.58034,14.16362 c 0.4334,10.57798 -0.16352,14.78096 -2.35789,16.60213 -3.47774,2.88627 -23.51815,5.26776 -25.67593,3.05117 z m 16.97124,-4.15089 7.48732,-1.23756 V 370.5115 357.56804 l -9.48393,1.41943 c -5.21617,0.78068 -10.15779,1.83419 -10.9814,2.34115 -0.8236,0.50694 -1.49746,6.25958 -1.49746,12.7836 0,13.0661 -0.10382,12.99015 14.47547,10.58033 z m -28.68519,-12.19563 -0.23343,-17.4704 -1.85493,10.9814 c -1.68103,9.95195 -0.85442,23.9594 1.41392,23.9594 0.49931,0 0.8028,-7.86168 0.67444,-17.4704 z m 2.99185,-21.56734 c 0.68182,-1.77682 0.34711,-2.57827 -0.78469,-1.87877 -1.08556,0.6709 -1.97376,2.0653 -1.97376,3.09863 0,2.87199 1.43112,2.23912 2.75845,-1.21986 z m 25.02781,-6.15662 c 1.59965,-1.39949 -12.85626,-0.31489 -17.80317,1.33573 -3.22232,1.0752 -1.09926,1.26262 5.98985,0.52881 6.03976,-0.62518 11.35576,-1.46424 11.81332,-1.86454 z m -71.71183,-25.72987 c 0,-0.57344 3.60394,-8.2105 8.00875,-16.97124 7.65619,-15.2274 10.72754,-18.61991 12.37709,-13.67131 0.41384,1.24153 7.1994,-5.04699 15.07905,-13.97448 9.147,-10.36336 13.90745,-17.32409 13.16725,-19.25306 -0.63766,-1.66171 -0.54759,-7.10101 0.20016,-12.08732 1.04062,-6.93938 2.49799,-9.58474 6.21287,-11.27735 l 4.85334,-2.21133 v -38.82716 c 0,-34.88418 -0.32671,-38.70179 -3.21705,-37.59266 -2.52323,0.96825 -2.99437,0.26076 -2.18456,-3.28047 0.56786,-2.48322 2.62905,-11.47816 4.58042,-19.98874 1.95137,-8.51058 4.10179,-15.47378 4.7787,-15.47378 0.67692,0 3.27368,7.78924 5.77058,17.30943 4.06939,15.51562 4.21438,17.49157 1.39911,19.06707 -2.6884,1.50451 -3.14073,7.34161 -3.14073,40.5298 0,33.78892 0.3882,38.62318 3.02034,37.61314 3.91712,-1.50314 8.95936,2.72829 8.95936,7.51866 0,4.71956 2.00913,4.7055 34.94079,-0.24447 14.27581,-2.1458 26.62988,-3.92211 27.45348,-3.94735 0.82361,-0.0252 1.49747,-1.94762 1.49747,-4.27198 0,-3.40777 0.8699,-3.99332 4.49239,-3.02388 2.47081,0.66122 9.65863,2.23062 15.97293,3.48757 6.3143,1.25693 11.48055,2.86988 11.48055,3.58435 0,1.18078 -28.71563,16.15099 -30.98059,16.15099 -0.5309,0 -0.96528,-1.593 -0.96528,-3.54002 0,-3.34944 -1.63909,-3.30081 -30.44841,0.90337 -16.74662,2.44386 -31.00996,4.4861 -31.69629,4.53833 -0.68634,0.0523 -1.78995,2.80521 -2.45245,6.11773 -1.37663,6.88312 -7.27192,9.95014 -19.12571,9.95014 -6.98117,0 -8.6538,1.23026 -20.80611,15.30343 -10.37306,12.01269 -12.73021,15.8871 -10.96188,18.01779 1.239,1.49291 1.90008,2.96366 1.46905,3.26834 -0.43101,0.30467 -6.68641,4.32609 -13.90089,8.93652 -12.65538,8.08744 -15.83373,9.56082 -15.83373,7.33994 z m 75.20831,-59.97491 c 2.73163,-3.73571 3.60692,-18.04886 1.44782,-23.67536 -1.41192,-3.67943 -14.74433,-4.37621 -20.88211,-1.09138 -3.2609,1.74519 -3.86198,4.27075 -3.86198,16.22697 v 14.16011 l 10.31826,-0.99146 c 6.82771,-0.65605 11.21803,-2.22196 12.97801,-4.62888 z M 31.925892,376.98931 c 0,-60.56404 -0.69417,-92.84269 -1.99662,-92.84269 -1.30245,0 -1.99662,32.27865 -1.99662,92.84269 0,60.56404 0.69417,92.84268 1.99662,92.84268 1.30245,0 1.99662,-32.27864 1.99662,-92.84268 z m 436.917828,67.08423 c 0.36139,-2.46467 0.15714,-5.78396 -0.45387,-7.37622 -0.90602,-2.36106 -1.85575,-2.15016 -5.14943,1.14352 -4.67676,4.67675 -4.95203,6.31959 -1.61762,9.654 3.36007,3.36007 6.44063,1.90048 7.22092,-3.4213 z m 1.82377,-56.60199 c -0.37899,-7.96151 -0.68907,-1.44755 -0.68907,14.47547 0,15.92302 0.31008,22.43698 0.68907,14.47547 0.37898,-7.96151 0.37898,-20.98943 0,-28.95094 z m 2.00335,-123.79025 c -0.3559,-11.25593 -0.64708,-2.04653 -0.64708,20.46532 0,22.51186 0.29118,31.72125 0.64708,20.46533 0.3559,-11.25593 0.3559,-29.67472 0,-40.93065 z m -384.954118,7.98647 c -0.0629,-10.15779 -0.83766,-51.28838 -1.7216,-91.40129 -1.53514,-69.66413 -1.80281,-73.28798 -5.97294,-80.862982 l -4.36577,-7.930396 1.09583,42.750038 c 0.60271,23.51252 1.09584,67.69665 1.09584,98.18697 0,58.88888 -0.4088,56.11907 8.48562,57.49476 0.8236,0.12738 1.44596,-8.07931 1.38302,-18.2371 z M 31.925892,153.36822 c 0,-60.56404 -0.69417,-92.84268 -1.99662,-92.84268 -1.30245,0 -1.99662,32.27864 -1.99662,92.84268 0,60.56404 0.69417,92.84268 1.99662,92.84268 1.30245,0 1.99662,-32.27864 1.99662,-92.84268 z M 472.6715,178.82509 c -0.35298,-11.805 -0.64181,-2.14637 -0.64181,21.46363 0,23.60999 0.28883,33.26863 0.64181,21.46363 0.353,-11.805 0.353,-31.12227 0,-42.92726 z M 470.67073,71.099036 c -0.37517,-8.56077 -0.68442,-2.087874 -0.68722,14.384215 -0.002,16.472089 0.30417,23.476359 0.68213,15.565039 0.37798,-7.91132 0.38025,-21.388483 0.006,-29.949254 z M 87.698702,83.349974 c -5.89378,-6.080839 -7.02264,-6.541947 -9.6307,-3.933887 -2.60806,2.608059 -2.41194,4.112418 1.67314,12.834224 l 4.62748,9.879869 5.00322,-5.945982 5.00321,-5.945982 z m 75.196858,-2.673995 c 33.93712,-5.389346 73.60869,-11.361261 88.15903,-13.270917 14.55035,-1.909659 26.44142,-4.014155 26.42461,-4.67666 -0.016,-0.662504 -0.85428,-2.506551 -1.86101,-4.097884 -1.58665,-2.508009 -6.83414,-2.302505 -39.40262,1.543101 -30.10353,3.554553 -148.647938,16.252569 -152.270158,16.310586 -0.48995,0.0078 2.15711,3.158942 5.88237,7.002429 3.72525,3.843488 7.8061,6.988159 9.06855,6.988159 1.262448,0 30.062108,-4.409466 63.999228,-9.798814 z M 75.914012,74.501858 c -0.382,-0.549069 -8.85141,-5.695086 -18.82091,-11.435591 -15.85558,-9.129752 -18.48995,-10.073678 -21.02878,-7.53485 -1.59634,1.596337 -2.45951,3.345347 -1.91817,3.886692 0.54135,0.541345 9.47264,5.872423 19.84732,11.84684 16.58147,9.54869 19.08998,10.461769 20.73908,7.548897 1.03181,-1.822524 1.56347,-3.762918 1.18146,-4.311988 z m 70.817348,-7.089537 c 82.85547,-8.402257 107.76907,-11.717192 108.31646,-14.412289 0.27454,-1.351666 -1.2978,-2.457576 -3.49407,-2.457576 -7.74568,0 -3.87504,-3.466658 5.27021,-4.720154 13.49719,-1.849995 22.68242,-1.55563 22.68242,0.726921 0,1.098139 1.79696,1.996616 3.99324,1.996616 2.19627,0 3.99323,0.744952 3.99323,1.655449 0,0.910498 6.06472,0.888848 13.47716,-0.04812 35.61723,-4.502147 147.91214,-19.782795 152.92524,-20.809466 5.4452,-1.11516 5.01403,-1.604535 -10.65942,-12.097983 L 426.90165,6.3099145 367.6795,13.501491 C 335.10731,17.456859 275.21366,24.687001 234.5825,29.568476 90.543442,46.873497 47.533852,52.238506 46.777062,52.995298 c -0.42126,0.42126 7.07124,5.407116 16.65001,11.07968 15.08554,8.933693 18.48458,10.185663 25.4024,9.356474 4.39256,-0.526502 30.448408,-3.235112 57.901888,-6.019131 z m 168.71413,-7.726522 c 14.82488,-1.555955 52.30034,-4.852873 83.27881,-7.326485 l 56.32446,-4.49748 3.15843,-7.893682 c 1.73713,-4.341528 2.89621,-8.148373 2.57573,-8.45966 -0.32049,-0.311286 -21.69693,2.418454 -47.50321,6.066092 -25.80627,3.647635 -66.687,9.074983 -90.84607,12.060771 -24.15906,2.985789 -44.17133,5.630466 -44.47172,5.877058 -0.30037,0.246592 0.0204,1.924663 0.71277,3.729047 1.52903,3.984599 2.88377,4.000971 36.7708,0.444339 z M 33.922502,53.537382 c 1.38652,-1.67065 1.60272,-2.994926 0.48895,-2.994926 -1.09813,0 -3.11512,1.347717 -4.48218,2.994926 -1.38652,1.670649 -1.60272,2.994925 -0.48895,2.994925 1.09814,0 3.11512,-1.347717 4.48218,-2.994925 z M 468.80431,39.181828 c -0.86284,-10.196051 -4.15622,-10.201813 -7.93214,-0.01398 -3.11324,8.400011 -3.08475,8.683973 1.05927,10.552777 5.5239,2.491073 7.69392,-0.836459 6.87287,-10.538897 z M 82.839622,45.543259 c 1.09814,-0.371468 -3.16963,-0.746331 -9.48393,-0.833026 -6.3143,-0.08669 -11.48055,0.630483 -11.48055,1.593731 0,1.555836 15.81246,0.982076 20.96448,-0.760705 z M 157.172,35.359848 c -0.66346,-0.663457 -2.38554,-0.734391 -3.82685,-0.157632 -1.59277,0.637372 -1.11965,1.110484 1.20629,1.20629 2.10477,0.08669 3.28402,-0.385204 2.62056,-1.048664 z M 174.18484,33.2472 c -1.37267,-0.553885 -3.61887,-0.553885 -4.99154,0 -1.37268,0.553888 -0.24958,1.007066 2.49577,1.007066 2.74535,0 3.86844,-0.453178 2.49577,-1.007066 z m 16.92965,-1.880585 c -0.66346,-0.663458 -2.38554,-0.734392 -3.82685,-0.157633 -1.59277,0.637372 -1.11966,1.110484 1.20629,1.20629 2.10476,0.08669 3.28402,-0.385203 2.62056,-1.048663 z m 17.96955,-1.996617 c -0.66346,-0.663458 -2.38554,-0.734392 -3.82685,-0.157633 -1.59277,0.637372 -1.11965,1.110484 1.20629,1.20629 2.10477,0.08669 3.28402,-0.385203 2.62056,-1.048663 z M 389.81946,7.2911815 c -1.37267,-0.553886 -3.61886,-0.553886 -4.99154,0 -1.37267,0.553886 -0.24957,1.007066 2.49577,1.007066 2.74535,0 3.86845,-0.45318 2.49577,-1.007066 z m -9.02636,-1.880585 c -0.66348,-0.6634593 -2.38556,-0.7343917 -3.82686,-0.157627 -1.59276,0.637372 -1.11966,1.110484 1.2063,1.206289 2.10475,0.0867 3.28401,-0.385202 2.62056,-1.048662 z"
       id="path74" />
  </g>
</svg>
