<?xml version="1.0" encoding="UTF-8" standalone="no"?>
<svg
   xmlns:dc="http://purl.org/dc/elements/1.1/"
   xmlns:cc="http://creativecommons.org/ns#"
   xmlns:rdf="http://www.w3.org/1999/02/22-rdf-syntax-ns#"
   xmlns:svg="http://www.w3.org/2000/svg"
   xmlns="http://www.w3.org/2000/svg"
   width="500mm"
   height="500mm"
   viewBox="0 0 500 500"
   version="1.1"
   id="svg8">
  <defs
     id="defs2" />
  <metadata
     id="metadata5">
    <rdf:RDF>
      <cc:Work
         rdf:about="">
        <dc:format>image/svg+xml</dc:format>
        <dc:type
           rdf:resource="http://purl.org/dc/dcmitype/StillImage" />
        <dc:title></dc:title>
      </cc:Work>
    </rdf:RDF>
  </metadata>
  <g
     id="layer1">
    <path
       style="fill:#000000;stroke-width:1.99473"
       d="m 63.680693,490.25122 c -10.00707,-4.78289 -21.46002,-9.77384 -25.451,-11.09098 -14.34032,-4.73272 -13.20403,13.97047 -13.20403,-217.33715 0,-238.874156 -2.20422,-214.666369 19.68775,-216.220518 6.9847,-0.495857 13.26657,-1.78249 13.95971,-2.859187 0.69314,-1.076696 16.0711,-2.465398 34.17324,-3.086001 18.102137,-0.620606 36.054677,-2.05728 39.894527,-3.192608 11.64481,-3.443028 173.95531,-23.176528 197.42559,-24.002746 13.87914,-0.488585 40.06977,-5.4556101 42.71502,-8.1008631 1.11054,-1.1105521 5.43016,-2.0191851 9.59914,-2.0191851 6.25014,0 7.57996,0.699904 7.57996,3.9894531 0,2.659635 1.32982,3.9894531 3.98945,3.9894531 2.55766,0 3.98946,-1.3298181 3.98946,-3.7052911 0,-5.2595651 22.59761,-7.7965651 28.78125,-3.2312261 2.27245,1.6777461 12.65919,8.7102872 23.08163,15.6278702 10.42245,6.917581 20.20676,14.105354 21.74292,15.972825 2.31091,2.809319 2.63007,14.487971 1.84907,67.658614 -0.51915,35.34477 -0.38841,53.04289 0.29051,39.32914 0.67895,-13.71374 1.242,31.1676 1.25124,99.73633 0.01,68.56872 -0.54073,115.69413 -1.22217,104.72313 -0.68142,-10.97099 -0.83182,6.53273 -0.33422,38.89717 0.85412,55.55353 0.69425,59.08186 -2.85872,63.08983 -3.31252,3.73672 -10.93372,5.22819 -63.60525,12.44763 -81.41331,11.15892 -311.397797,38.31933 -322.796737,38.12121 -1.28902,-0.0223 -10.53127,-3.954 -20.53834,-8.7369 z m 26.90828,1.10251 6.71888,-5.57309 -4.91921,-5.30791 -4.91921,-5.3079 -2.37304,5.20823 c -1.30517,2.86454 -2.82471,4.75656 -3.37677,4.20452 -0.55205,-0.55206 1.0524,-4.48297 3.56546,-8.73536 l 4.56919,-7.73162 V 289.58258 111.05456 l -4.98682,-8.21434 -4.98681,-8.214349 0.34244,199.708089 c 0.18835,109.83945 0.41276,200.3813 0.49869,201.20413 0.278,2.66208 3.00983,1.5036 9.8672,-4.18436 z m 55.117637,-1.26988 c 130.65898,-14.01852 312.93987,-37.03398 315.77707,-39.87118 0.56514,-0.56514 -0.47046,-2.68278 -2.30134,-4.70587 -3.72739,-4.11872 1.06544,-4.67772 -66.12965,7.71312 -87.60177,16.15388 -146.98534,22.98382 -244.26698,28.09411 l -46.78907,2.45786 -7.068547,6.60763 -7.06855,6.60763 5.98418,-0.99048 c 3.2913,-0.54476 26.629597,-3.20552 51.862887,-5.91282 z m -85.773237,-6.1378 c -9.87389,-4.82031 -18.85016,-8.70929 -19.94726,-8.64219 -2.49172,0.1524 33.16931,17.46507 35.90507,17.43112 1.0971,-0.014 -6.08391,-3.96863 -15.95781,-8.78893 z M 78.619143,302.5483 c 0.14078,-61.43757 -0.33134,-135.11834 -1.04916,-163.73504 l -1.30513,-52.030354 -18.47519,-10.30484 c -10.16136,-5.66766 -18.97792,-10.30484 -19.59236,-10.30484 -1.06324,0 -3.14635,129.492464 -3.20886,199.472634 -0.0162,18.10215 0.65287,71.83992 1.48677,119.41727 l 1.51617,86.50429 18.9499,8.51862 18.9499,8.51862 1.236,-37.17584 c 0.67979,-20.4467 1.35117,-87.44294 1.49196,-148.88052 z m 74.215777,176.45324 c 101.2346,-5.71447 146.68943,-11.20769 256.17558,-30.95879 43.88466,-7.91671 50.37921,-9.56746 54.1274,-13.75785 4.0105,-4.48362 4.34579,-7.64688 5.74116,-54.16312 0.81505,-27.17077 1.08978,-110.2987 0.61051,-184.72873 -0.85797,-133.241064 -0.93453,-135.390434 -4.96619,-139.42209 -4.07142,-4.071424 -4.30967,-4.076548 -41.77219,-0.89847 -102.44802,8.691026 -197.57636,20.279636 -289.01294,35.207786 -27.02042,4.411405 -36.645457,6.745455 -38.897167,9.432455 -2.61522,3.120799 -2.97332,27.064529 -2.84309,190.097009 0.0819,102.58956 0.80815,187.59301 1.61377,188.89652 1.80244,2.91641 11.896937,2.96674 59.223157,0.29528 z m 108.10414,-96.97853 c -3.51146,-2.96596 -4.39935,-5.9845 -4.60146,-15.64346 -0.89631,-42.83669 -0.19409,-43.99317 28.76132,-47.36548 l 19.70876,-2.29541 3.9257,4.84804 c 3.50481,4.32828 3.85118,7.3319 3.23062,28.01544 -0.47315,15.76987 -1.56546,24.21586 -3.42088,26.45095 -3.28581,3.95821 -12.77241,6.57675 -30.23726,8.34627 -10.98204,1.1127 -13.69563,0.74451 -17.3668,-2.35635 z m 33.3314,-5.3635 c 13.92971,-2.93318 15.93261,-6.63063 15.97167,-29.48431 0.0371,-21.74707 -0.88967,-22.70212 -20.18593,-20.80073 -15.36885,1.51442 -23.71776,3.98335 -26.09093,7.71556 -2.53902,3.99311 -1.84097,40.1941 0.8265,42.86157 2.91499,2.91499 14.80799,2.79714 29.47869,-0.29209 z m -24.52259,-12.38665 c -1.64912,-10.16234 0.64721,-26.39696 3.9109,-27.64934 1.5139,-0.58095 8.57585,-1.65287 15.69321,-2.38207 l 12.94065,-1.32581 v 17.06534 17.06535 l -10.07182,2.16003 c -5.53949,1.18799 -12.60306,2.16 -15.69682,2.16 -4.89986,0 -5.77339,-0.91444 -6.77612,-7.0935 z m 28.41984,0.19568 c 1.1716,-0.72409 2.13019,-7.2228 2.13019,-14.44158 v -13.12504 l -11.8329,1.07298 c -6.50811,0.59012 -12.7915,1.6654 -13.96308,2.38949 -1.1716,0.72408 -2.13019,7.2228 -2.13019,14.44158 v 13.12504 l 11.8329,-1.07299 c 6.50811,-0.59012 12.7915,-1.66539 13.96308,-2.38948 z m -38.29851,-19.5323 c -0.41997,-4.66267 -0.76358,-0.84776 -0.76358,8.47759 0,9.32534 0.34361,13.14026 0.76358,8.47758 0.41995,-4.66267 0.41995,-12.2925 0,-16.95517 z m 4.52362,-15.57686 c 0,-1.03235 -0.89762,-1.877 -1.99472,-1.877 -1.0971,0 -1.99473,1.39942 -1.99473,3.10982 0,1.7104 0.89763,2.55505 1.99473,1.877 1.0971,-0.67805 1.99472,-2.07747 1.99472,-3.10982 z m 21.40533,-5.0095 c 5.73887,-0.74846 9.94759,-2.14838 9.3527,-3.11093 -0.59489,-0.96258 -3.04627,-1.34702 -5.44752,-0.85434 -2.40123,0.49268 -8.62961,1.44861 -13.84083,2.12428 -5.21122,0.67566 -9.47495,2.16843 -9.47495,3.31723 0,1.16283 1.98954,1.60021 4.48814,0.98667 2.46847,-0.60613 9.18358,-1.71444 14.92246,-2.46291 z M 251.28899,282.6702 c -2.78865,-4.25601 -3.23874,-13.44825 -3.3453,-68.31939 -0.0678,-34.87095 0.55045,-65.50332 1.37369,-68.07195 2.08567,-6.50764 10.97582,-9.65209 35.27436,-12.47659 22.69957,-2.63862 30.4496,-1.76821 32.63469,3.6652 2.52925,6.28923 4.58848,66.52278 3.48394,101.90633 -0.86024,27.55705 -1.72474,35.35 -4.26291,38.42777 -4.14815,5.02998 -26.4592,9.70655 -46.52316,9.75166 -14.20046,0.0319 -15.66666,-0.35229 -18.63531,-4.88303 z m 52.001,-1.63434 c 6.87955,-1.84908 10.77549,-4.18797 12.55842,-7.53931 2.00839,-3.77516 2.41322,-18.87001 1.81548,-67.69248 -0.4231,-34.55864 -1.45789,-64.40473 -2.2995,-66.32465 -3.10789,-7.08976 -53.38217,-3.0749 -61.35699,4.89992 -3.74667,3.74667 -3.87843,6.56082 -3.24283,69.26359 0.54869,54.12855 1.17075,65.97017 3.62041,68.91959 2.5883,3.11634 5.20536,3.41094 20.94463,2.35769 9.89271,-0.66201 22.47488,-2.40997 27.96038,-3.88435 z M 34.498533,345.9336 c -0.31821,-23.86191 -0.57857,-4.33853 -0.57857,43.3853 0,47.72383 0.26036,67.24722 0.57857,43.3853 0.31821,-23.86191 0.31821,-62.90868 0,-86.7706 z m -3.80669,-82.26014 c 0.006,-122.10909 -0.72648,-203.894484 -1.8311,-204.577184 -1.11942,-0.69184 -1.84035,79.003164 -1.84035,203.439764 0,122.86761 0.73135,204.57719 1.83109,204.57719 1.09962,0 1.8348,-81.26942 1.84036,-203.43977 z M 469.84966,441.08868 v -8.07204 l -4.92414,3.5839 c -5.50439,4.00621 -6.19032,6.63199 -2.65582,10.16648 4.75299,4.753 7.57996,2.63524 7.57996,-5.67834 z m 1.36262,-20.22817 c -0.63676,-1.59125 -1.10943,-1.1186 -1.20514,1.20516 -0.0866,2.10276 0.38482,3.2809 1.04767,2.61808 0.66283,-0.66285 0.73368,-2.3833 0.15739,-3.82324 z M 38.322473,55.833741 c 1.84736,-2.041301 6.41067,-3.770021 10.45038,-3.958917 l 7.17107,-0.33532 -7.39578,-0.777421 c -4.06767,-0.427581 -9.22903,0.203708 -11.46967,1.402864 -4.01808,2.150408 -4.06738,3.375264 -3.59746,89.379373 l 0.47645,87.1991 0.54285,-84.64304 c 0.48259,-75.247254 0.90687,-85.045274 3.82216,-88.266639 z M 473.27576,182.39346 c -0.45849,-3.03211 -0.84588,-1.02479 -0.86086,4.46071 -0.014,5.4855 0.36016,7.96631 0.83363,5.51292 0.47347,-2.45339 0.48574,-6.94152 0.0271,-9.97363 z M 92.265803,86.619176 c -10.97598,-11.50231 -16.2824,-7.22877 -9.36434,7.541575 l 4.50764,9.623999 5.52146,-5.341359 5.52145,-5.341355 z m 53.128267,-0.377 c 53.64166,-8.6829 132.72335,-19.3746 176.84582,-23.90924 31.61239,-3.24893 128.81923,-12.117519 132.81765,-12.117519 1.47734,0 7.22243,-14.218781 6.17023,-15.27097 -0.48216,-0.482177 -20.50694,1.838033 -44.49951,5.156021 -64.17188,8.87448 -216.67903,27.313408 -275.58747,33.320008 -28.20759,2.87618 -51.669897,5.57322 -52.138467,5.99344 -2.0863,1.87098 11.021437,12.69076 15.374367,12.69076 2.63987,0 21.09769,-2.63813 41.01738,-5.8625 z m -65.177837,-9.37222 c -3.91181,-3.27013 -35.80858,-20.67036 -37.89133,-20.67036 -1.60013,0 -3.41932,1.32903 -4.04265,2.95339 -1.13563,2.95941 0.19893,3.89868 26.50527,18.65464 9.96811,5.59139 11.03609,5.80907 13.30132,2.7112 1.35464,-1.85258 2.31196,-3.49457 2.12739,-3.64887 z m 52.759187,-4.76354 C 221.23077,63.335786 456.94763,33.836868 459.56932,31.234643 459.94917,30.857604 452.24741,25.243229 442.4543,18.758255 427.76273,9.0295259 422.75786,6.7811919 413.83748,5.9027389 c -5.94614,-0.58556 -9.11002,-0.637741 -7.03085,-0.11596 2.67491,0.67129 3.06298,1.39202 1.32715,2.464818 -1.34921,0.833868 2.3354,1.191835 8.18807,0.795483 22.67456,-1.53556 4.6084,1.2738251 -40.22433,6.2550961 -25.78185,2.864566 -82.33235,9.627581 -125.66778,15.028919 -43.33543,5.40134 -106.09274,12.980816 -139.4607,16.843281 -33.367957,3.862462 -61.039427,7.39308 -61.492167,7.845817 -0.68617,0.68617 11.83408,8.419613 30.40377,18.779643 5.34584,2.98244 6.37319,2.94967 53.094777,-1.69342 z m 338.24926,-7.42923 c -0.50173,-1.91993 -0.91225,-0.34908 -0.91225,3.49077 0,3.83985 0.41052,5.41069 0.91225,3.49077 0.50172,-1.91992 0.50172,-5.06162 0,-6.98154 z M 32.547443,52.584154 c 1.19674,-3.59023 -2.92627,-2.83581 -4.31763,0.790032 -0.74548,1.942692 -0.29969,2.85462 1.15796,2.368737 1.30355,-0.434517 2.7254,-1.855963 3.15967,-3.158769 z M 469.84966,45.228601 c 0,-13.052638 -3.78557,-14.834781 -7.81887,-3.680903 -2.47899,6.855488 -2.35422,7.50689 2.09269,10.926641 2.60084,2.000102 4.95322,3.656507 5.2275,3.680902 0.27427,0.0244 0.49868,-4.892593 0.49868,-10.92664 z m -368.02703,0.833328 c 20.84489,-2.288396 38.34862,-4.658011 38.89717,-5.265812 0.54854,-0.607799 -4.3884,-0.53499 -10.971,0.161802 -6.5826,0.696792 -24.75954,1.858074 -40.393207,2.58063 -21.8223,1.008581 -28.42485,1.936614 -28.42485,3.995303 0,3.311431 -3.9866,3.454932 40.891887,-1.471923 z m 56.37427,-7.190681 c -1.90712,-0.499266 -5.49763,-0.51738 -7.9789,-0.04025 -2.48126,0.477123 -0.92088,0.885613 3.46752,0.907754 4.38839,0.02214 6.41851,-0.368236 4.51138,-0.8675 z M 144.16901,37.04191 c -0.66283,-0.662829 -2.38328,-0.733696 -3.82323,-0.157483 -1.59126,0.636768 -1.11859,1.109432 1.20515,1.205147 2.10277,0.08661 3.28091,-0.384838 2.61808,-1.04767 z m 29.9857,-0.165383 c -1.90713,-0.499266 -5.49764,-0.51738 -7.97891,-0.04025 -2.48126,0.477116 -0.92088,0.885606 3.46752,0.907748 4.3884,0.02214 6.41852,-0.368237 4.51139,-0.867501 z M 159.171,34.931262 c -1.37137,-0.553361 -3.61543,-0.553361 -4.9868,0 -1.37138,0.553363 -0.24934,1.006112 2.4934,1.006112 2.74275,0 3.86478,-0.452749 2.4934,-1.006112 z m 76.12272,-5.024049 c 28.428,-3.522863 50.66603,-6.745625 49.41781,-7.161697 -2.20152,-0.733844 -101.08865,10.990181 -105.09458,12.459981 -5.07126,1.860677 7.76099,0.639539 55.67677,-5.298284 z m -60.12694,3.041977 c -1.3505,-0.546401 -4.04338,-0.579661 -5.98418,-0.0739 -1.9408,0.505743 -0.83585,0.952799 2.45545,0.993449 3.29129,0.04065 4.87922,-0.373143 3.52873,-0.919545 z m 13.92512,-2.007381 c -1.37137,-0.553361 -3.61544,-0.553361 -4.98681,0 -1.37138,0.553363 -0.24935,1.006112 2.4934,1.006112 2.74275,0 3.86479,-0.452749 2.49341,-1.006112 z m 15.95781,-1.994726 c -1.37137,-0.553361 -3.61544,-0.553361 -4.98681,0 -1.37138,0.553363 -0.24934,1.006112 2.4934,1.006112 2.74275,0 3.86479,-0.452749 2.49341,-1.006112 z m 15.99577,-1.982072 c -1.35049,-0.546401 -4.04337,-0.579662 -5.98418,-0.0739 -1.9408,0.505751 -0.83585,0.952807 2.45545,0.993458 3.2913,0.04065 4.87922,-0.373144 3.52873,-0.919545 z m 13.92513,-2.007381 c -1.37137,-0.553361 -3.61544,-0.553361 -4.98682,0 -1.37137,0.553363 -0.24934,1.006112 2.49341,1.006112 2.74275,0 3.86478,-0.452749 2.49341,-1.006112 z m 14.9189,-1.878805 c -0.66285,-0.66283 -2.3833,-0.733696 -3.82323,-0.157484 -1.59126,0.636769 -1.11861,1.109433 1.20515,1.205148 2.10276,0.08661 3.28091,-0.384838 2.61808,-1.04767 z m 49.93297,-2.160115 c -1.90714,-0.499266 -5.49765,-0.51738 -7.97891,-0.04025 -2.48126,0.477125 -0.92088,0.885615 3.46751,0.907756 4.3884,0.02214 6.41854,-0.368236 4.5114,-0.8675 z m 13.93982,-1.999206 c -1.91992,-0.501728 -5.06161,-0.501728 -6.98154,0 -1.91992,0.501729 -0.34908,0.912234 3.49077,0.912234 3.83985,0 5.4107,-0.410505 3.49077,-0.912234 z m 44.88136,-3.950381 c 21.34656,-2.444339 29.42221,-4.092111 29.42221,-6.0033731 0,-3.228403 1.22128,-3.263892 -16.32607,0.474424 -8.02571,1.7098061 -22.67084,4.3062391 -32.54473,5.7698501 -25.8354,3.829592 -14.91838,3.694368 19.44859,-0.240901 z"
       id="path74" />
  </g>
</svg>
