<?xml version="1.0" encoding="UTF-8" standalone="no"?>
<svg
   xmlns:dc="http://purl.org/dc/elements/1.1/"
   xmlns:cc="http://creativecommons.org/ns#"
   xmlns:rdf="http://www.w3.org/1999/02/22-rdf-syntax-ns#"
   xmlns:svg="http://www.w3.org/2000/svg"
   xmlns="http://www.w3.org/2000/svg"
   id="svg8"
   version="1.1"
   viewBox="0 0 500 500"
   height="500mm"
   width="500mm">
  <defs
     id="defs2" />
  <metadata
     id="metadata5">
    <rdf:RDF>
      <cc:Work
         rdf:about="">
        <dc:format>image/svg+xml</dc:format>
        <dc:type
           rdf:resource="http://purl.org/dc/dcmitype/StillImage" />
        <dc:title></dc:title>
      </cc:Work>
    </rdf:RDF>
  </metadata>
  <g
     transform="translate(0,203)"
     id="layer1">
    <path
       id="path420"
       d="m 51.638844,287.30704 c -5.91776,-4.5504 -9.43656,-8.79999 -9.43656,-11.39635 0,-2.27713 -0.89837,-5.03861 -1.99639,-6.13662 -1.31739,-1.31739 -1.82415,-68.83505 -1.48998,-198.515548 l 0.50641,-196.519162 79.465706,-15.537 c 43.70614,-8.54534 131.07165,-25.76277 194.14558,-38.26095 86.99719,-17.2386 116.77659,-22.43657 123.36593,-21.5334 7.23736,0.99199 10.06189,2.7878 16.9352,10.76726 l 8.24918,9.57669 V 17.593478 215.43499 l -4.46995,1.87464 c -2.45847,1.03105 -62.13224,13.07153 -132.6084,26.75662 -70.47615,13.68509 -157.15416,30.70212 -192.61778,37.81563 -35.463606,7.11349 -65.859246,12.87686 -67.545846,12.80747 -1.6866,-0.0694 -7.313,-3.39144 -12.5031,-7.38231 z M 219.01349,259.15598 c 72.66148,-14.2009 155.35548,-30.53725 183.76448,-36.30298 l 51.6527,-10.48316 0.50649,-193.241323 0.5065,-193.241347 -4.47978,1.06583 c -5.44637,1.29581 -303.59246,60.20446 -348.16899,68.79235 -17.482456,3.36808 -32.443086,7.149264 -33.245846,8.402637 -1.65421,2.582766 -2.10188,381.477263 -0.45268,383.126473 0.58725,0.58725 4.8337,0.31028 9.43656,-0.61548 4.60285,-0.92576 67.819106,-13.30212 140.480566,-27.503 z m -91.0388,-42.26742 c -1.73908,-1.73909 -2.33341,-35.33425 -2.33341,-131.898706 0,-71.260913 0.52605,-130.936156 1.169,-132.61165 0.64295,-1.675497 3.99541,-3.949566 7.44991,-5.053485 3.4545,-1.10392 61.26125,-12.772028 128.45946,-25.929126 67.19819,-13.157101 124.02897,-24.428143 126.2906,-25.046763 7.03624,-1.92459 8.88673,3.42663 10.80565,31.247377 2.0326,29.468813 2.21094,190.164813 0.24541,221.135443 l -1.25663,19.80083 -14.89982,3.44566 c -28.45026,6.57924 -118.38127,25.33132 -149.99155,31.27567 -75.99604,14.29114 -101.94277,17.6306 -105.93862,13.63475 z m 24.3544,-3.32232 c 2.58775,-1.01337 3.08742,-1.97031 1.53104,-2.93221 -2.13451,-1.31921 -10.33906,1.69022 -10.33906,3.79235 0,1.31907 4.32062,0.89712 8.80802,-0.86014 z m 67.67772,-13.28661 c 28.40901,-5.07571 52.06367,-9.61072 52.56595,-10.07782 1.27195,-1.18287 1.15277,-240.651688 -0.12039,-241.924854 -0.56848,-0.56848 -12.6013,1.195 -26.73959,3.918844 -14.13828,2.723844 -39.1158,7.220676 -55.50561,9.992956 -17.62161,2.98064 -31.01744,6.244382 -32.7796,7.986382 -2.5819,2.552359 -2.97997,18.603292 -2.97997,120.159326 0,126.183166 -0.32813,122.211716 9.91671,120.025216 2.19439,-0.46833 27.23351,-5.00436 55.6425,-10.08005 z m -48.55905,-10.25952 c 3.56688,-4.09745 10.36943,-11.79863 15.11679,-17.11374 l 8.63156,-9.66384 6.44542,4.92572 c 16.79218,12.83292 23.58576,19.39299 21.02854,20.30574 -4.60425,1.64337 -47.82638,8.99603 -52.88257,8.99603 -4.8137,0 -4.80982,-0.0179 1.66026,-7.44991 z m 37.33095,-12.79289 c -5.84373,-5.1867 -11.27705,-9.45884 -12.07403,-9.49361 -1.47986,-0.0646 -14.2349,13.2264 -21.24213,22.13462 l -3.88864,4.94362 23.91488,-4.07712 23.91488,-4.07711 z m -67.63752,-95.339225 -0.60009,-115.222168 -4.96661,-4.020723 -4.9666,-4.020721 -0.512,121.575263 -0.51199,121.575254 4.48528,3.6494 c 4.4498,3.62054 4.49788,3.60208 6.07869,-2.33236 0.87637,-3.28998 1.32337,-57.83175 0.99332,-121.203945 z m 8.37668,124.477495 c 1.96522,-2.36796 2.25124,-17.35235 1.31775,-69.03584 -0.65575,-36.30629 -0.55832,-87.616906 0.21653,-114.023601 1.30087,-44.333747 1.14452,-48.1769 -2.04086,-50.162723 -1.89732,-1.182824 -3.6853,-2.150591 -3.97329,-2.150595 -0.28799,-2e-6 -0.52361,53.639343 -0.52361,119.198553 0,65.559216 0.56102,119.198576 1.24672,119.198576 0.68571,2e-5 2.37624,-1.36095 3.75676,-3.02437 z m 186.70756,-28.8842 c 26.77001,-5.57452 49.75152,-11.17995 51.07003,-12.4565 2.94824,-2.85445 6.06057,-39.66063 7.80306,-92.278074 1.22445,-36.974681 -1.80302,-121.630982 -5.02432,-140.493514 -1.23295,-7.219601 -1.89528,-7.934338 -7.23984,-7.812851 -3.23551,0.07355 -28.23248,4.980538 -55.54882,10.904429 l -49.66607,10.770709 V 67.868117 189.62076 l 4.9666,-1.00199 c 2.73164,-0.55107 26.86935,-5.56296 53.63936,-11.13748 z m 5.5575,-24.2335 c -7.32358,-5.72574 -13.07513,-11.2591 -12.78121,-12.29635 0.60797,-2.14549 52.58749,-14.00515 54.22146,-12.37118 1.03298,1.03299 -24.26328,33.64217 -26.84121,34.60074 -0.7059,0.26248 -7.27546,-4.20747 -14.59904,-9.93321 z m 26.10863,-7.82694 c 9.40354,-12.33081 10.18628,-14.00821 6.02949,-12.92118 -2.62732,0.68706 -11.96013,2.75555 -20.73962,4.59667 -8.77947,1.8411 -16.69037,3.98791 -17.57979,4.77069 -1.48612,1.30796 17.44982,17.94151 20.25307,17.79048 0.67675,-0.0363 6.09334,-6.44294 12.03685,-14.23666 z m 27.47788,18.64874 c 1.1919,-3.57568 -2.91441,-2.82431 -4.30013,0.78683 -0.74247,1.93481 -0.29847,2.84304 1.15326,2.35914 1.29828,-0.43275 2.71436,-1.84846 3.14687,-3.14597 z m 2.44192,-28.51661 c 0,-13.29394 -0.33203,-23.79831 -0.73782,-23.34305 -0.40581,0.45527 -1.36439,11.33214 -2.13016,24.17082 -0.9634,16.15177 -0.73611,23.34306 0.73782,23.34306 1.39905,0 2.13016,-8.29573 2.13016,-24.17083 z m -0.0604,-186.909975 c -0.0431,-20.182716 -0.64105,-27.312823 -2.083,-24.837245 -1.82809,3.13847 -0.47276,53.146905 1.44038,53.146905 0.38668,0 0.67585,-12.739347 0.64262,-28.30966 z m -242.45834,19.54847 c 1.89441,-2.282619 1.1775,-3.053259 -3.87209,-4.162336 -7.67756,-1.686275 -9.84632,0.103881 -4.77446,3.940979 4.82471,3.650118 5.78062,3.67459 8.64655,0.221357 z M 139.3509,-44.116667 c -4.79012,-5.098848 -7.74968,-6.08878 -7.74968,-2.592166 0,2.918514 8.4992,9.647948 10.56935,8.368525 0.90712,-0.560635 -0.36173,-3.159996 -2.81967,-5.776359 z m 60.7895,1.256699 c 60.38543,-10.552483 70.52583,-12.607099 70.52583,-14.28971 0,-2.592406 -4.02137,-2.107435 -42.4438,5.118683 -19.81573,3.726749 -43.18052,7.874174 -51.92175,9.216495 -8.74123,1.342323 -17.23412,3.18292 -18.8731,4.090215 -5.80489,3.213427 8.68903,1.810048 42.71282,-4.135683 z m -24.83304,-3.040025 c 28.51582,-4.663408 86.03788,-15.038596 89.27364,-16.102181 2.18016,-0.71662 1.62666,-2.166317 -2.34265,-6.135623 l -5.19729,-5.1973 -58.24998,11.545249 c -32.03748,6.349889 -58.61698,11.848223 -59.06556,12.218523 -0.44857,0.3703 0.83812,2.500601 2.85932,4.734001 2.54528,2.8125 5.23868,3.747661 8.76216,3.042262 2.79799,-0.560156 13.58015,-2.407376 23.96036,-4.104931 z m 140.05833,-18.899515 c 53.79952,-10.961308 67.57359,-14.342743 70.52582,-17.313585 2.65298,-2.669708 2.43499,-2.892166 -1.98664,-2.027355 -4.90166,0.958698 -96.05174,20.464225 -104.87666,22.442925 -2.52199,0.565475 -3.97546,1.95203 -3.25989,3.109832 0.73447,1.188382 3.55373,1.521347 6.53783,0.772138 2.8856,-0.724479 17.76239,-3.867258 33.05954,-6.983955 z m 11.91986,-9.979287 c 26.22368,-5.535083 51.11823,-10.968386 55.32119,-12.074006 7.40203,-1.947153 7.53261,-2.13084 4.16203,-5.855267 -1.91383,-2.114779 -4.90563,-3.851268 -6.64844,-3.858865 -1.74278,-0.0075 -28.92927,5.02301 -60.41438,11.179126 l -57.24567,11.192936 5.25101,5.480888 c 2.88809,3.01449 6.74589,5.147459 8.57292,4.739935 1.82706,-0.407526 24.77765,-5.269662 51.00134,-10.804747 z m 68.50876,-9.665713 c 0.0231,-2.112276 -0.94747,-1.906237 -3.98981,0.847059 -3.0047,2.7192 -3.39432,4.025108 -1.54243,5.169644 2.65344,1.639916 5.48232,-1.436688 5.53224,-6.016703 z M 66.042004,95.157914 c 0,-124.183629 -0.68468,-189.913056 -1.98665,-190.717712 -1.31919,-0.815306 -1.98664,63.259915 -1.98664,190.717712 0,127.457796 0.66745,191.533016 1.98664,190.717716 1.30197,-0.80465 1.98665,-66.53408 1.98665,-190.717716 z m -7.94657,-2.59024 V -99.746978 l -6.95325,-6.739352 -6.95325,-6.73936 V 81.283737 275.79316 l 5.46326,4.47312 c 3.0048,2.46022 6.13376,4.50529 6.95325,4.54459 0.81949,0.0393 1.48999,-86.47014 1.48999,-192.243196 z M 41.705174,-21.557353 c -0.2944,-52.720534 -0.53527,-9.585551 -0.53527,95.855518 0,105.441065 0.24087,148.576055 0.53527,95.855515 0.2944,-52.72053 0.2944,-138.990498 0,-191.711033 z m 25.9427,-79.118047 c -0.39154,-1.17461 -1.56117,-2.13564 -2.59919,-2.13564 -1.03803,0 -2.20766,0.96103 -2.59919,2.13564 -0.39154,1.174599 0.7781,2.135638 2.59919,2.135638 1.82109,0 2.99072,-0.961039 2.59919,-2.135638 z m -12.25216,-11.42439 c -3.90558,-3.90558 -7.74024,-6.46187 -8.52147,-5.68065 -1.92638,1.92639 11.35977,15.41624 13.73664,13.94724 1.03724,-0.64104 -1.30959,-4.36101 -5.21517,-8.26659 z m 92.524706,-4.20541 c 38.55486,-7.58568 121.05715,-23.69741 183.3384,-35.80384 104.84518,-20.38015 126.42877,-25.21624 121.18,-27.15196 -1.09551,-0.40402 -53.84087,9.4535 -117.21192,21.9056 -63.37104,12.4521 -148.29769,29.13622 -188.72587,37.07581 -66.180466,12.99703 -85.772406,17.76654 -72.980376,17.76654 2.36501,0 35.844906,-6.20646 74.399766,-13.79215 z m 90.75079,-25.04331 c 92.44402,-18.08154 177.46693,-34.7257 188.93979,-36.98703 11.47286,-2.26132 21.53613,-4.72722 22.36282,-5.47977 0.8267,-0.75255 -1.13881,-3.89937 -4.36779,-6.99294 l -5.87088,-5.62466 -89.00441,17.33876 C 238.0953,-157.1519 62.521654,-122.50212 56.472154,-121.02169 l -4.60324,1.1265 5.47158,5.71111 c 3.00937,3.14111 7.22189,5.7111 9.36114,5.7111 2.13925,0 79.525556,-14.79399 171.969576,-32.87553 z m -187.073756,17.76877 c -0.66015,-0.66014 -2.37363,-0.73072 -3.80773,-0.15685 -1.58481,0.63419 -1.11407,1.10494 1.20026,1.20027 2.09425,0.0863 3.26761,-0.38328 2.60747,-1.04343 z m 9.93321,-1.98664 c -0.66014,-0.66015 -2.37362,-0.73073 -3.80773,-0.15685 -1.58481,0.63419 -1.11406,1.10494 1.20026,1.20027 2.09426,0.0863 3.26762,-0.38328 2.60747,-1.04343 z m 9.93322,-1.98665 c -0.66015,-0.66014 -2.37363,-0.73072 -3.80774,-0.15684 -1.58481,0.63419 -1.11406,1.10494 1.20027,1.20026 2.09425,0.0863 3.26761,-0.38328 2.60747,-1.04342 z m 9.93321,-1.98664 c -0.66014,-0.66014 -2.37362,-0.73072 -3.80773,-0.15684 -1.58481,0.63418 -1.11406,1.10493 1.20026,1.20026 2.09425,0.0863 3.26761,-0.38328 2.60747,-1.04342 z m 9.93322,-1.98664 c -0.66015,-0.66015 -2.37363,-0.73072 -3.80774,-0.15685 -1.58481,0.63419 -1.11406,1.10494 1.20027,1.20027 2.09425,0.0863 3.26761,-0.38328 2.60747,-1.04343 z m 9.933206,-1.98664 c -0.66015,-0.66015 -2.373626,-0.73073 -3.807726,-0.15685 -1.58481,0.63419 -1.11406,1.10494 1.20026,1.20026 2.094246,0.0863 3.267606,-0.38328 2.607466,-1.04342 z m 9.93321,-1.98665 c -0.66014,-0.66014 -2.37362,-0.73072 -3.80773,-0.15684 -1.58481,0.63419 -1.11406,1.10493 1.20026,1.20026 2.09425,0.0863 3.26762,-0.38328 2.60747,-1.04342 z m 9.93322,-1.98664 c -0.66015,-0.66014 -2.37363,-0.73072 -3.80774,-0.15685 -1.58481,0.63419 -1.11406,1.10494 1.20027,1.20027 2.09425,0.0863 3.26761,-0.38328 2.60747,-1.04343 z m 10.96792,-2.10209 c -1.36582,-0.55112 -3.60079,-0.55112 -4.96661,0 -1.36582,0.55112 -0.24833,1.00203 2.48331,1.00203 2.73163,0 3.84912,-0.45091 2.4833,-1.00203 z m 9.93321,-1.98665 c -1.36581,-0.55112 -3.60079,-0.55112 -4.9666,0 -1.36582,0.55112 -0.24833,1.00204 2.4833,1.00204 2.73163,0 3.84912,-0.45092 2.4833,-1.00204 z m 9.93322,-1.98664 c -1.36582,-0.55112 -3.60079,-0.55112 -4.96661,0 -1.36582,0.55112 -0.24833,1.00203 2.4833,1.00203 2.73164,0 3.84912,-0.45091 2.48331,-1.00203 z m 9.93321,-1.98664 c -1.36582,-0.55112 -3.60079,-0.55112 -4.96661,0 -1.36581,0.55112 -0.24833,1.00203 2.48331,1.00203 2.73163,0 3.84912,-0.45091 2.4833,-1.00203 z m 9.93322,-1.98665 c -1.36582,-0.55111 -3.60079,-0.55111 -4.96661,0 -1.36582,0.55112 -0.24833,1.00204 2.4833,1.00204 2.73164,0 3.84912,-0.45092 2.48331,-1.00204 z m 9.93321,-1.98664 c -1.36582,-0.55112 -3.60079,-0.55112 -4.96661,0 -1.36581,0.55112 -0.24833,1.00204 2.48331,1.00204 2.73163,0 3.84912,-0.45092 2.4833,-1.00204 z m 9.93321,-1.98664 c -1.36581,-0.55112 -3.60079,-0.55112 -4.9666,0 -1.36582,0.55112 -0.24833,1.00203 2.4833,1.00203 2.73163,0 3.84912,-0.45091 2.4833,-1.00203 z m 10.88516,-1.87119 c -0.66016,-0.66015 -2.37364,-0.73073 -3.80774,-0.15685 -1.58481,0.63419 -1.11406,1.10494 1.20027,1.20027 2.09424,0.0863 3.26761,-0.38328 2.60747,-1.04343 z m 10.96792,-2.1021 c -1.36582,-0.55112 -3.60079,-0.55112 -4.96661,0 -1.36582,0.55112 -0.24833,1.00204 2.4833,1.00204 2.73164,0 3.84912,-0.45092 2.48331,-1.00204 z m 9.93321,-1.98664 c -1.36582,-0.55112 -3.60079,-0.55112 -4.96661,0 -1.36581,0.55112 -0.24833,1.00203 2.48331,1.00203 2.73163,0 3.84912,-0.45091 2.4833,-1.00203 z m 9.93321,-1.98664 c -1.36581,-0.55112 -3.60079,-0.55112 -4.9666,0 -1.36582,0.55112 -0.24833,1.00203 2.4833,1.00203 2.73163,0 3.84912,-0.45091 2.4833,-1.00203 z m 9.93322,-1.98665 c -1.36582,-0.55111 -3.60079,-0.55111 -4.96661,0 -1.36582,0.55112 -0.24833,1.00204 2.4833,1.00204 2.73164,0 3.84913,-0.45092 2.48331,-1.00204 z m 9.93322,-1.98664 c -1.36581,-0.55112 -3.60079,-0.55112 -4.9666,0 -1.36582,0.55112 -0.24834,1.00204 2.4833,1.00204 2.73163,0 3.84912,-0.45092 2.4833,-1.00204 z m 9.93322,-1.98664 c -1.36582,-0.55112 -3.60079,-0.55112 -4.96661,0 -1.36582,0.55112 -0.24833,1.00203 2.4833,1.00203 2.73164,0 3.84912,-0.45091 2.48331,-1.00203 z m 9.93321,-1.98664 c -1.36582,-0.55112 -3.60079,-0.55112 -4.96661,0 -1.36581,0.55112 -0.24833,1.00203 2.48331,1.00203 2.73163,0 3.84912,-0.45091 2.4833,-1.00203 z m 9.93321,-1.98665 c -1.36581,-0.55112 -3.60079,-0.55112 -4.9666,0 -1.36582,0.55112 -0.24833,1.00204 2.4833,1.00204 2.73164,0 3.84912,-0.45092 2.4833,-1.00204 z m 9.93322,-1.98664 c -1.36582,-0.55112 -3.60079,-0.55112 -4.96661,0 -1.36581,0.55112 -0.24833,1.00203 2.48331,1.00203 2.73163,0 3.84912,-0.45091 2.4833,-1.00203 z m 10.88515,-1.87119 c -0.66016,-0.66014 -2.37364,-0.73072 -3.80774,-0.15685 -1.5848,0.63419 -1.11407,1.10494 1.20027,1.20027 2.09424,0.0863 3.26761,-0.38328 2.60747,-1.04343 z m 10.96792,-2.1021 c -1.36582,-0.55111 -3.60079,-0.55111 -4.96661,0 -1.36581,0.55112 -0.24833,1.00204 2.48331,1.00204 2.73163,0 3.84912,-0.45092 2.4833,-1.00204 z m 9.93321,-1.98664 c -1.36581,-0.55112 -3.60079,-0.55112 -4.9666,0 -1.36582,0.55112 -0.24833,1.00204 2.4833,1.00204 2.73163,0 3.84912,-0.45092 2.4833,-1.00204 z m 9.93322,-1.98664 c -1.36582,-0.55112 -3.60079,-0.55112 -4.96661,0 -1.36582,0.55112 -0.24833,1.00203 2.48331,1.00203 2.73163,0 3.84912,-0.45091 2.4833,-1.00203 z m 9.93321,-1.98664 c -1.36581,-0.55112 -3.60079,-0.55112 -4.9666,0 -1.36582,0.55112 -0.24833,1.00203 2.4833,1.00203 2.73163,0 3.84912,-0.45091 2.4833,-1.00203 z m 9.93322,-1.98665 c -1.36582,-0.55112 -3.60079,-0.55112 -4.96661,0 -1.36582,0.55112 -0.24833,1.00204 2.4833,1.00204 2.73164,0 3.84912,-0.45092 2.48331,-1.00204 z m 8.89851,-1.87119 c -0.66016,-0.66014 -2.37364,-0.73072 -3.80774,-0.15684 -1.58481,0.63419 -1.11407,1.10494 1.20027,1.20027 2.09424,0.0863 3.26761,-0.38328 2.60747,-1.04343 z m 10.96792,-2.10209 c -1.36582,-0.55112 -3.60079,-0.55112 -4.96661,0 -1.36582,0.55112 -0.24833,1.00203 2.4833,1.00203 2.73164,0 3.84912,-0.45091 2.48331,-1.00203 z m 10.88515,-1.87119 c -0.66016,-0.66015 -2.37364,-0.73073 -3.80774,-0.15684 -1.5848,0.63419 -1.11407,1.10493 1.20027,1.20026 2.09424,0.0863 3.26761,-0.38328 2.60747,-1.04342 z m 9.93321,-1.98665 c -0.66016,-0.66014 -2.37364,-0.73072 -3.80774,-0.15684 -1.5848,0.63419 -1.11406,1.10494 1.20027,1.20027 2.09424,0.0863 3.26762,-0.38328 2.60747,-1.04343 z m 9.93322,-1.98664 c -0.66016,-0.66014 -2.37364,-0.73072 -3.80774,-0.15684 -1.58481,0.63419 -1.11407,1.10494 1.20027,1.20026 2.09424,0.0863 3.26761,-0.38327 2.60747,-1.04342 z m 9.93321,-1.98664 c -0.66016,-0.66015 -2.37364,-0.73072 -3.80774,-0.15684 -1.5848,0.63419 -1.11407,1.10493 1.20027,1.20026 2.09424,0.0863 3.26761,-0.38328 2.60747,-1.04342 z m 9.93322,-1.98664 c -0.66017,-0.66015 -2.37364,-0.73073 -3.80774,-0.15684 -1.58481,0.63418 -1.11407,1.10493 1.20027,1.20026 2.09424,0.0863 3.26761,-0.38328 2.60747,-1.04342 z"
       style="fill:#000000;stroke-width:1.98664284" />
  </g>
</svg>
