<?xml version="1.0" standalone="no"?>
<!DOCTYPE svg PUBLIC "-//W3C//DTD SVG 20010904//EN"
 "http://www.w3.org/TR/2001/REC-SVG-20010904/DTD/svg10.dtd">
<svg version="1.0" xmlns="http://www.w3.org/2000/svg"
 width="50.000000pt" height="48.000000pt" viewBox="0 0 50.000000 48.000000"
 preserveAspectRatio="xMidYMid meet">
<metadata>
Created by potrace 1.15, written by Peter Selinger 2001-2017
</metadata>
<g transform="translate(0.000000,48.000000) scale(0.100000,-0.100000)"
fill="#000000" stroke="none">
<path d="M402 447 c16 -12 2 -15 -115 -21 -182 -10 -181 -9 -190 -24 -7 -11
-12 -11 -25 -1 -16 12 -16 11 -2 -4 13 -14 14 -32 7 -110 -5 -50 -6 -123 -3
-160 4 -61 3 -67 -11 -56 -8 7 -19 22 -23 34 l-9 20 0 -21 c-1 -11 14 -34 32
-52 33 -32 57 -41 57 -22 0 6 -6 9 -13 8 -15 -4 -22 223 -9 292 7 33 9 5 8
-110 l-1 -155 115 -1 115 0 -110 5 -110 6 2 144 c1 79 6 148 10 152 4 4 42 12
83 18 l75 10 -80 -4 c-108 -5 -44 11 81 20 101 8 199 -2 154 -16 -15 -4 -18
-7 -8 -8 24 -1 32 -71 24 -195 -4 -55 -9 -102 -11 -104 -2 -2 -25 -7 -52 -12
l-48 -8 58 2 59 2 6 59 c10 86 5 264 -6 278 -6 7 -25 20 -44 30 -18 10 -25 12
-16 4z"/>
<path d="M245 361 c-11 -5 -30 -20 -43 -33 -72 -78 -29 -198 70 -198 80 0 128
47 128 127 0 67 -30 104 -90 109 -25 2 -54 0 -65 -5z m79 -7 c10 -4 16 -19 17
-38 1 -30 1 -30 9 -6 6 22 8 23 15 7 4 -10 1 -27 -9 -42 -9 -13 -16 -32 -16
-41 0 -10 -8 -26 -17 -38 -18 -20 -18 -20 8 -1 17 13 24 26 21 39 -3 12 -1 17
6 12 6 -3 10 -20 10 -37 -1 -24 -9 -36 -32 -50 -40 -24 -50 -24 -43 2 5 17 3
18 -11 7 -9 -7 -14 -8 -10 -4 8 10 -9 36 -23 36 -13 0 -11 -34 3 -48 7 -7 8
-12 2 -12 -13 0 -41 20 -29 20 6 1 0 5 -11 10 -31 12 -41 110 -12 110 6 0 5
-6 -2 -15 -8 -9 -9 -15 -2 -15 20 0 25 23 9 35 -15 11 -14 15 11 38 19 19 34
25 50 20 13 -3 22 -1 22 6 0 12 11 14 34 5z"/>
</g>
</svg>
