<?xml version="1.0" encoding="UTF-8" standalone="no"?>
<!-- Created with Inkscape (http://www.inkscape.org/) -->

<svg
   xmlns:dc="http://purl.org/dc/elements/1.1/"
   xmlns:cc="http://creativecommons.org/ns#"
   xmlns:rdf="http://www.w3.org/1999/02/22-rdf-syntax-ns#"
   xmlns:svg="http://www.w3.org/2000/svg"
   xmlns="http://www.w3.org/2000/svg"
   xmlns:sodipodi="http://sodipodi.sourceforge.net/DTD/sodipodi-0.dtd"
   xmlns:inkscape="http://www.inkscape.org/namespaces/inkscape"
   width="210mm"
   height="297mm"
   viewBox="0 0 210 297"
   version="1.1"
   id="svg8"
   inkscape:version="0.92.2 2405546, 2018-03-11"
   sodipodi:docname="icon.svg">
  <defs
     id="defs2" />
  <sodipodi:namedview
     id="base"
     pagecolor="#ffffff"
     bordercolor="#666666"
     borderopacity="1.0"
     inkscape:pageopacity="0.0"
     inkscape:pageshadow="2"
     inkscape:zoom="1"
     inkscape:cx="249.28571"
     inkscape:cy="894.39452"
     inkscape:document-units="mm"
     inkscape:current-layer="layer1"
     showgrid="false"
     inkscape:window-width="2560"
     inkscape:window-height="1021"
     inkscape:window-x="0"
     inkscape:window-y="0"
     inkscape:window-maximized="1" />
  <metadata
     id="metadata5">
    <rdf:RDF>
      <cc:Work
         rdf:about="">
        <dc:format>image/svg+xml</dc:format>
        <dc:type
           rdf:resource="http://purl.org/dc/dcmitype/StillImage" />
        <dc:title />
      </cc:Work>
    </rdf:RDF>
  </metadata>
  <g
     inkscape:label="Layer 1"
     inkscape:groupmode="layer"
     id="layer1">
    <path
       style="fill:#000000;stroke-width:1.02045631"
       d="m 31.14832,294.74168 c -3.20496,-1.45447 -6.3965,-6.13473 -6.3965,-9.38018 0,-3.13197 3.11445,-8.39248 5.66771,-9.57312 5.74481,-2.65645 11.53664,-1.03135 14.07436,3.94904 2.34657,4.60526 1.91914,8.80674 -1.2557,12.34312 -3.32558,3.70426 -7.67954,4.66263 -12.08987,2.66114 z m 8.75782,-2.62578 c 2.55094,-1.38553 4.24188,-6.68327 3.10326,-9.72258 -1.14417,-3.05415 -4.8223,-5.71937 -7.89302,-5.71937 -3.478,0 -7.32571,4.39524 -7.32571,8.36815 0,6.24772 6.57184,10.08478 12.11547,7.0738 z m 51.00633,2.62578 c -9.86884,-4.47867 -6.80747,-20.12376 3.93774,-20.12376 5.03441,0 7.47632,1.32882 9.40783,5.1195 2.95075,5.79098 2.46322,6.18868 -7.58665,6.18868 -9.95893,0 -11.09924,0.83533 -6.77214,4.96089 2.98378,2.8448 8.11372,2.92973 10.82395,0.17919 1.11424,-1.13081 2.48173,-2.05603 3.03885,-2.05603 3.47121,0 -2.41896,5.9197 -6.63288,6.66613 -1.64459,0.29131 -4.4421,-0.12926 -6.2167,-0.9346 z m 11.83663,-12.33902 c 0,-2.11116 -4.91276,-5.72871 -7.77979,-5.72871 -2.44615,0 -7.41449,4.10184 -7.41449,6.12138 0,0.65211 2.98748,1.07474 7.59714,1.07474 5.90603,0 7.59714,-0.32664 7.59714,-1.46741 z m 43.51036,10.97656 c -4.35592,-3.95023 -5.05837,-9.73395 -1.77921,-14.64924 3.10502,-4.65426 8.54683,-6.29591 12.39267,-3.73853 1.43082,0.95145 2.60147,1.25663 2.60147,0.67818 0,-0.57844 1.13957,-1.05171 2.53238,-1.05171 h 2.53238 v 10.28016 10.28017 h -2.53238 c -1.39281,0 -2.53238,-0.48884 -2.53238,-1.08631 0,-0.60889 -0.98942,-0.38298 -2.25129,0.51401 -3.39906,2.4162 -7.44589,1.9634 -10.96364,-1.22673 z m 11.36251,-4.01439 c 3.95583,-3.63322 1.1085,-10.63485 -4.32484,-10.63485 -3.07961,0 -5.97816,3.18693 -5.97816,6.57291 0,4.96697 6.5192,7.53716 10.303,4.06194 z m 36.68593,5.83391 c -6.70386,-2.74895 -8.54255,-12.02718 -3.5151,-17.73755 2.50876,-2.84955 3.64534,-3.35728 7.51554,-3.35728 3.43166,0 5.20647,0.61658 7.17375,2.49223 4.77787,4.55534 2.38452,7.01836 -3.43166,3.53157 -5.40575,-3.24075 -10.52011,0.34747 -9.34993,6.55988 0.66404,3.52538 4.47874,5.08056 8.68011,3.53872 7.00704,-2.57146 8.68467,-1.02452 3.59889,3.31853 -3.16244,2.70059 -6.75951,3.25807 -10.6716,1.6539 z M 0.44098,281.30003 c 0,-11.65085 0.24386,-13.87823 1.51942,-13.87823 1.18178,0 1.51943,1.37069 1.51943,6.1681 v 6.1681 h 7.09066 7.09067 v -6.1681 c 0,-4.79741 0.33765,-6.1681 1.51942,-6.1681 1.27557,0 1.51943,2.22738 1.51943,13.87823 0,11.65085 -0.24386,13.87822 -1.51943,13.87822 -1.19476,0 -1.51942,-1.4278 -1.51942,-6.68211 v -6.68211 H 10.57049 3.47983 v 6.68211 c 0,5.25431 -0.32466,6.68211 -1.51943,6.68211 -1.27556,0 -1.51942,-2.22737 -1.51942,-13.87822 z m 49.63463,3.59805 c 0,-8.45257 0.27012,-10.28016 1.51943,-10.28016 0.83568,0 1.51943,0.55513 1.51943,1.23362 0,0.95948 0.27012,0.95948 1.21554,0 1.7555,-1.78162 6.92826,-1.51537 9.08745,0.46774 1.7237,1.58312 1.98115,1.58312 3.70485,0 2.77167,-2.54563 7.9215,-2.15569 10.85552,0.82196 2.20046,2.23318 2.48633,3.41518 2.48633,10.28016 0,4.48589 -0.42715,7.75685 -1.01295,7.75685 -0.56186,0 -1.01295,-2.72525 -1.01295,-6.11973 0,-9.54317 -2.78294,-13.5844 -8.16164,-11.85187 -2.7828,0.89636 -3.99378,4.49568 -3.99378,11.87042 0,3.38211 -0.45144,6.10118 -1.01295,6.10118 -0.57883,0 -1.01296,-3.08405 -1.01296,-7.19612 0,-7.69122 -1.89376,-11.30818 -5.92071,-11.30818 -3.68555,0 -5.22175,3.275 -5.22175,11.13213 0,5.8677 -0.31008,7.37217 -1.51943,7.37217 -1.24931,0 -1.51943,-1.82759 -1.51943,-10.28017 z m 59.76415,-3.66012 v -13.94027 l 3.6781,0.31906 c 3.67054,0.3184 3.68477,0.3386 6.93237,9.8389 1.78984,5.23591 3.49922,9.76843 3.79861,10.07229 0.46684,0.47377 1.63138,-2.48095 7.0128,-17.7931 0.63443,-1.80518 1.59684,-2.31304 4.38332,-2.31304 h 3.5704 v 13.87823 13.87822 h -2.4957 c -2.46183,0 -2.49963,-0.13604 -2.78562,-10.02316 l -0.28991,-10.02316 -3.37563,10.02316 c -2.97688,8.83916 -3.65503,10.02316 -5.74094,10.02316 -2.08591,0 -2.76406,-1.184 -5.74094,-10.02316 l -3.37562,-10.02316 -0.28992,10.02316 c -0.28599,9.88712 -0.32379,10.02316 -2.78562,10.02316 h -2.4957 z m 58.7512,5.71616 c 0,-4.79742 -0.42207,-8.22414 -1.01295,-8.22414 -0.55713,0 -1.01295,-0.92521 -1.01295,-2.05603 0,-1.13082 0.45582,-2.05603 1.01295,-2.05603 0.55712,0 1.01295,-1.61913 1.01295,-3.59806 0,-3.15259 0.31353,-3.59806 2.53238,-3.59806 2.21885,0 2.53238,0.44547 2.53238,3.59806 0,2.51293 0.45824,3.59806 1.51943,3.59806 0.84412,0 1.51942,0.91379 1.51942,2.05603 0,1.14224 -0.6753,2.05603 -1.51942,2.05603 -1.22398,0 -1.51943,1.59915 -1.51943,8.22414 0,8.08706 -0.0422,8.22413 -2.53238,8.22413 -2.49017,0 -2.53238,-0.13707 -2.53238,-8.22413 z m 11.14247,-2.05604 c 0,-9.59481 0.13505,-10.28016 2.0259,-10.28016 1.89085,0 2.0259,0.68535 2.0259,10.28016 0,9.59482 -0.13505,10.28017 -2.0259,10.28017 -1.89085,0 -2.0259,-0.68535 -2.0259,-10.28017 z m 0,-15.42024 c 0,-1.37069 0.6753,-2.05604 2.0259,-2.05604 1.3506,0 2.0259,0.68535 2.0259,2.05604 0,1.37068 -0.6753,2.05603 -2.0259,2.05603 -1.3506,0 -2.0259,-0.68535 -2.0259,-2.05603 z m 17.23942,-15.49663 c -17.68654,-4.44943 -56.60257,-7.21494 -70.92586,-5.04022 -4.17843,0.63441 -27.8815,1.53568 -52.67349,2.00283 -39.60489,0.74626 -60.22901,1.84447 -68.88072,3.66783 -2.39767,0.50531 -2.37073,0.42617 0.50648,-1.4878 3.80776,-2.53298 20.12363,-8.12755 26.14622,-8.96531 4.25926,-0.59249 4.55891,-0.8471 5.13143,-4.36023 0.33442,-2.05205 0.61305,-15.00313 0.61918,-28.78018 l 0.0112,-25.04915 -6.83742,0.56254 -6.83743,0.56255 6.58419,-1.21644 6.58419,-1.21644 0.26799,-31.03191 0.268,-31.03191 -3.81333,-0.40414 -3.81333,-0.40414 3.68043,-0.17282 c 2.88494,-0.13547 3.81244,-0.67276 4.29121,-2.48585 0.33594,-1.27217 0.61701,-14.68779 0.62462,-29.812483 l 0.0138,-27.499442 -4.30504,-0.145881 -4.30505,-0.145882 4.05181,-0.625131 4.0518,-0.625131 0.28699,-9.776289 0.28698,-9.776289 -4.84526,0.208018 -4.84527,0.208018 4.81152,-1.08011 4.81152,-1.080108 V 19.558606 c 0,-12.262058 0.3734,-19.421103 1.01295,-19.421103 0.55713,0 1.06492,2.428689 1.12844,5.397086 0.0635,2.968398 0.40538,11.410984 0.75971,18.761302 l 0.64423,13.364215 4.55828,-0.224715 c 14.06027,-0.693145 45.79544,-0.648807 50.14111,0.07006 6.23105,1.03074 5.48524,0.002 -3.60013,-4.966288 -8.31998,-4.549654 -7.04425,-4.633333 2.48887,-0.163253 16.47271,7.724049 36.16144,24.684618 47.55905,40.969037 19.17463,27.395913 31.87083,62.636123 37.51387,104.125413 1.70455,12.53224 3.61106,40.99579 3.94705,58.92802 l 0.21809,11.63925 10.47671,3.448 c 5.76218,1.8964 10.73831,3.7135 11.05805,4.038 0.80012,0.81202 -0.15873,0.64496 -8.85362,-1.54242 z m -29.03826,-14.57286 c 0.35132,-2.9684 0.64272,-16.38401 0.64757,-29.81248 l 0.009,-24.41539 3.79857,-0.11822 3.79857,-0.11822 -3.54533,-0.65279 c -1.94994,-0.35904 -11.60763,-0.51675 -21.46155,-0.35046 l -17.91622,0.30231 0.58075,27.96814 c 0.31942,15.38247 0.63264,28.04483 0.69604,28.13858 0.0634,0.0938 6.7248,0.94226 14.80309,1.88558 8.07829,0.94332 14.87773,1.90747 15.10986,2.14258 1.59971,1.62015 2.92371,-0.27067 3.47985,-4.96963 z m -71.00996,-0.13189 29.12236,-0.059 V 211.51822 183.819 l -38.6698,0.68965 c -21.26839,0.37932 -38.79769,0.81945 -38.954,0.97809 -0.38515,0.39088 1.68897,51.06071 2.19894,53.71908 0.38816,2.0234 0.75131,2.06966 8.79251,1.12006 4.61319,-0.54474 21.49269,-1.017 37.50999,-1.04942 z M 69.44325,180.98978 c 8.62146,-0.67045 24.76754,-0.99719 36.153,-0.73162 l 20.57381,0.47989 -0.51885,-3.68988 c -0.28537,-2.02944 -0.79511,-7.39074 -1.13277,-11.91401 -0.63708,-8.5347 -3.61726,-28.9067 -5.60187,-38.29362 l -1.14107,-5.39708 -35.11613,0.0157 c -19.31388,0.008 -35.62842,0.35562 -36.25455,0.77102 -0.84085,0.55786 -0.7853,8.14465 0.21251,29.02573 0.74301,15.54875 1.36926,29.13784 1.39165,30.19798 0.0331,1.56872 0.5819,1.81769 2.9479,1.33745 1.59895,-0.32454 9.91782,-1.13526 18.48637,-1.80159 z m 97.80524,-6.86048 c -0.77287,-10.98481 -4.1611,-31.58088 -7.14108,-43.40858 l -2.2079,-8.76326 -17.85458,-0.28032 -17.85457,-0.28031 1.97212,7.8128 c 2.32748,9.22062 6.47257,33.85862 7.45877,44.33425 l 0.69493,7.3817 6.2352,0.59774 c 7.99549,0.7665 14.72913,1.18378 22.84736,1.41583 l 6.48264,0.1853 z m -7.12478,-53.57848 c -2.58881,-0.5805 -3.24896,-1.65342 -6.22319,-10.11453 -5.75442,-16.370162 -16.0616,-35.710542 -24.44991,-45.877794 -1.32232,-1.60275 -2.2165,-3.221876 -1.98708,-3.598058 0.50981,-0.835935 -76.51161,-0.460228 -81.33584,0.396753 l -3.44145,0.61134 0.67158,17.144259 c 0.36938,9.429342 0.96234,22.39999 1.3177,28.82367 l 0.6461,11.67941 5.66909,-0.67392 c 3.118,-0.37065 19.11602,-0.915 35.55116,-1.20967 27.30511,-0.48957 29.85359,-0.6851 29.5518,-2.26736 -0.18164,-0.95237 -1.67563,-5.84376 -3.31999,-10.86973 C 108.66615,92.040431 100.87324,77.03417 94.01216,68.467424 l -5.73677,-7.162938 4.79725,4.626075 c 9.65625,9.311701 20.36548,28.052086 25.92758,45.371409 l 2.1905,6.8208 13.79186,0.74967 c 7.58552,0.41232 15.85747,1.10505 18.38212,1.53942 2.52465,0.43438 5.72984,0.78945 7.12265,0.78906 2.31801,-6.6e-4 2.28723,-0.0557 -0.36364,-0.6501 z M 78.94473,58.2291 c 16.15658,-0.0047 33.25014,0.356821 37.98569,0.803524 l 8.61009,0.812188 -6.07771,-6.280732 c -3.34274,-3.454403 -8.29611,-7.946751 -11.00749,-9.982994 L 103.52552,39.878824 82.5261,39.406486 C 70.97642,39.1467 57.12688,39.26892 51.74934,39.678087 L 41.972,40.422026 v 8.984873 c 0,4.941681 0.28172,9.270791 0.62606,9.620245 0.34433,0.349455 2.05369,0.314802 3.79857,-0.07701 1.74488,-0.391803 16.39152,-0.71627 32.5481,-0.721034 z m -53.9204,64.55798 c 0.98557,-0.26064 2.35306,-0.2435 3.03886,0.038 0.6858,0.28161 -0.12057,0.49486 -1.79194,0.47391 -1.67137,-0.021 -2.23248,-0.25135 -1.24692,-0.512 z m 0.55051,-60.642821 c 0.73123,-0.296965 1.6049,-0.260442 1.94149,0.08116 0.3366,0.341602 -0.26168,0.584573 -1.3295,0.539935 -1.18003,-0.04932 -1.42005,-0.292924 -0.61199,-0.621093 z"
       id="path8"
       inkscape:connector-curvature="0" />
  </g>
</svg>
