<?xml version="1.0" encoding="UTF-8" standalone="no"?>
<svg
   xmlns:dc="http://purl.org/dc/elements/1.1/"
   xmlns:cc="http://creativecommons.org/ns#"
   xmlns:rdf="http://www.w3.org/1999/02/22-rdf-syntax-ns#"
   xmlns:svg="http://www.w3.org/2000/svg"
   xmlns="http://www.w3.org/2000/svg"
   xmlns:sodipodi="http://sodipodi.sourceforge.net/DTD/sodipodi-0.dtd"
   xmlns:inkscape="http://www.inkscape.org/namespaces/inkscape"
   width="500"
   height="500"
   viewBox="0 0 400 285.71429"
   version="1.1"
   xml:space="preserve"
   style="clip-rule:evenodd;fill-rule:evenodd;stroke-linejoin:round;stroke-miterlimit:1.41420996"
   id="svg44"
   sodipodi:docname="icon.svg"
   inkscape:export-filename="/home/timow/Downloads/icon.svg.png"
   inkscape:export-xdpi="96"
   inkscape:export-ydpi="96"
   inkscape:version="0.92.4 5da689c313, 2019-01-14"><metadata
     id="metadata50"><rdf:RDF><cc:Work
         rdf:about=""><dc:format>image/svg+xml</dc:format><dc:type
           rdf:resource="http://purl.org/dc/dcmitype/StillImage" /><dc:title></dc:title></cc:Work></rdf:RDF></metadata><defs
     id="defs48" /><sodipodi:namedview
     pagecolor="#ffffff"
     bordercolor="#666666"
     borderopacity="1"
     objecttolerance="10"
     gridtolerance="10"
     guidetolerance="10"
     inkscape:pageopacity="0"
     inkscape:pageshadow="2"
     inkscape:window-width="1920"
     inkscape:window-height="1003"
     id="namedview46"
     showgrid="false"
     units="px"
     inkscape:zoom="0.76"
     inkscape:cx="126.29116"
     inkscape:cy="258.75187"
     inkscape:window-x="0"
     inkscape:window-y="0"
     inkscape:window-maximized="1"
     inkscape:current-layer="g42" /><g
     transform="translate(2.73863,134.6789)"
     id="g42"><path
       style="fill:#000000;stroke-width:0.81064463"
       d="m 352.23825,202.3516 c -4.85651,-1.72487 -18.69885,-4.92183 -29.71602,-6.86307 -31.98429,-5.63569 -93.86198,-6.9769 -106.84676,-2.31591 -2.89017,1.03744 -7.29657,1.13795 -29.34153,0.66922 -46.20304,-0.98239 -113.9409,1.77681 -140.98562,5.74286 -4.42194,0.64846 -8.19551,1.02342 -8.38569,0.83323 -0.5212,-0.52119 6.06211,-4.50871 11.57363,-7.01017 7.96151,-3.61343 21.21693,-7.75994 31.60323,-9.88604 l 9.72773,-1.9913 0.50069,-12.4724 c 0.27538,-6.85983 0.54897,-26.09873 0.608,-42.75308 l 0.10722,-30.28067 -6.2825,0.48483 c -3.45537,0.266658 -9.93039,0.658939 -14.38894,0.871756 l -8.10645,0.386927 7.29581,-1.507498 c 4.01268,-0.829105 10.4877,-1.983922 14.38894,-2.566218 l 7.09314,-1.058749 -0.007,-3.693232 c -0.004,-2.031277 0.22909,-23.158929 0.5181,-46.950351 l 0.52541,-43.2571257 -3.15269,0.46232084 c -1.73396,0.254278 -6.61818,0.6720446 -10.85379,0.9283698 -4.23562,0.2563265 -9.52507,0.6512319 -11.75435,0.87756416 -8.09435,0.8218111 -1.58531,-1.09874836 9.72775,-2.8702606 6.24196,-0.9774236 12.21455,-1.9147319 13.27243,-2.0829109 1.05788,-0.1681676 2.11236,-0.4947054 2.34329,-0.7256475 0.23093,-0.2309223 0.60387,-20.1848481 0.82872,-44.3420251 l 0.40884,-43.922159 -9.23729,0.508225 c -5.0805,0.279529 -11.97322,0.751574 -15.31712,1.049016 -3.34391,0.297442 -5.83339,0.274301 -5.53216,-0.05143 0.57283,-0.619452 14.59667,-3.13919 22.96101,-4.125535 7.78326,-0.917827 7.32901,0.09875 7.05535,-15.790727 l -0.24045,-13.96165 -3.81277,0.49773 c -2.09703,0.27376 -7.39781,0.86591 -11.77955,1.31588 -4.38171,0.44998 -9.48877,1.02342 -11.34902,1.27433 -2.31868,0.31275 -2.99988,0.21167 -2.16628,-0.32143 1.01067,-0.64634 13.22019,-3.19618 26.04899,-5.44009 2.62987,-0.46 2.99822,-0.83332 3.43633,-3.4826 0.26988,-1.63212 0.4947,-14.91432 0.49962,-29.51604 0.01,-25.72543 0.0576,-26.54862 1.58054,-26.54862 1.24582,0 1.65446,0.71418 1.97133,3.44524 0.53521,4.61313 2.17049,41.71693 2.14879,48.75523 l -0.0172,5.5884 6.2825,-0.53208 c 3.45538,-0.29265 8.10645,-0.80109 10.33572,-1.12987 6.05648,-0.89321 61.55163,-0.57808 68.09415,0.38669 3.12098,0.46022 5.77776,0.74933 5.90397,0.64244 0.3975,-0.33663 -10.45371,-6.54373 -18.35083,-10.49702 -4.17064,-2.08783 -7.38586,-3.99317 -7.14491,-4.23411 0.63738,-0.63739 10.45723,2.76268 18.02974,6.2427 31.42676,14.44241 61.23879,42.237877 84.08267,78.395083 6.6181,10.475105 18.50111,34.35148 23.50383,47.225894 14.54523,37.432042 24.82593,86.331917 27.69483,131.729743 0.25358,4.0127 0.66905,10.39652 0.92325,14.18628 0.25421,3.78976 0.54657,18.00104 0.64967,31.5806 l 0.18748,24.69013 8.86605,2.5752 c 14.86925,4.3189 27.77826,9.48944 29.12266,11.66473 0.6794,1.09929 -0.0145,0.98699 -5.13216,-0.83063 z m -58.39048,-24.69691 c 1.01162,-11.26828 1.73749,-55.44244 1.14213,-69.50512 l -0.60917,-14.388934 h -26.99232 -26.99234 l 0.31659,3.039916 c 1.04075,9.993618 1.98392,30.764118 2.46126,54.202208 l 0.54668,26.84295 10.62294,0.95505 c 11.89137,1.06908 27.82398,3.0374 33.09066,4.08804 5.73392,1.14386 5.84945,1.04958 6.41357,-5.23411 z m -159.80041,-0.90378 c 16.50113,-1.47562 61.22521,-1.9674 82.35948,-0.90561 l 12.23872,0.61486 0.52892,-8.64476 c 0.68652,-11.2199 0.68683,-65.38083 4.3e-4,-70.388671 l -0.52853,-3.85601 -58.44588,0.47665 c -32.14523,0.262137 -58.94366,0.548065 -59.55206,0.635374 -0.87493,0.125594 -1.00029,1.443994 -0.59962,6.306137 0.27859,3.38107 0.87017,14.35516 1.31461,24.3869 0.44444,10.03173 1.16372,25.5353 1.59838,34.45239 0.43468,8.91709 0.79687,16.89187 0.80488,17.72174 0.0127,1.25936 0.45019,1.42893 2.64915,1.02547 1.44902,-0.26586 9.38321,-1.08687 17.63152,-1.82447 z M 300.22951,92.636674 c 0,-0.172328 -1.09437,-0.473938 -2.43194,-0.670241 -1.33756,-0.196317 -2.43194,-0.05538 -2.43194,0.313308 0,0.368645 1.09438,0.670254 2.43194,0.670254 1.33757,0 2.43194,-0.140993 2.43194,-0.313321 z M 293.4712,83.424913 C 292.07521,61.124785 287.0704,30.970288 281.0504,8.5884809 l -3.03787,-11.2945498 h -26.91247 -26.91247 l 1.1233,3.7324314 c 1.62803,5.4095727 6.42995,27.5206545 8.4277,38.8065095 2.81508,15.903203 6.30656,43.795719 5.81185,46.429297 -0.11373,0.605635 0.72082,1.032966 2.07445,1.062154 1.24566,0.02684 3.90638,0.189733 5.91272,0.361977 2.00634,0.172229 10.03172,0.728841 17.83417,1.236912 13.22744,0.86133 27.5608,2.021444 28.28072,2.288992 0.17241,0.064 0.0908,-3.440206 -0.1813,-7.787291 z M 123.10366,88.51467 c 20.60287,-2.301326 43.68547,-3.093332 74.99536,-2.573211 l 30.40993,0.50516 -0.57394,-9.11065 c -1.35911,-21.574366 -4.08723,-42.425725 -8.48375,-64.84245 l -2.98105,-15.1995879 -37.76618,0.00198 c -20.77141,8.109e-4 -45.7537,0.2431822 -55.51622,0.5379838 l -17.75004,0.5359989 0.5512,11.4190237 c 0.57336,11.8778895 1.79827,38.6876465 2.50325,54.7885085 0.95089,21.717013 1.32344,25.13049 2.74187,25.122183 0.73215,-0.0042 6.07345,-0.537512 11.86957,-1.184937 z M 280.55449,-4.0064843 c -0.26938,-0.2693677 -0.96856,-0.2981653 -1.55373,-0.063941 -0.64668,0.2587777 -0.4546,0.4508704 0.48976,0.4897608 0.85455,0.035163 1.33334,-0.1563937 1.06397,-0.4257699 z m -3.83368,-1.8954703 c 0,-1.3524684 -7.8369,-22.9276424 -10.90518,-30.0222184 -7.86831,-18.193403 -20.46764,-39.564295 -31.19509,-52.912893 l -4.3974,-5.471852 h -28.99386 -28.99386 l 7.98474,7.748059 c 12.9649,12.58058 22.4726,27.322269 32.02307,49.651825 2.80174,6.550621 6.29398,15.592927 7.76053,20.094 l 2.66646,8.1837706 17.90554,1.027645 c 9.84806,0.5652018 20.64147,1.3026656 23.98538,1.6388088 8.96662,0.9013352 12.15967,0.9178419 12.15967,0.062825 z M 119.86107,-7.5534404 c 21.96597,-1.997661 29.83541,-2.256215 61.4561,-2.019143 l 33.08354,0.248038 -0.55413,-2.5679396 c -0.88601,-4.105855 -7.53469,-23.873831 -10.26666,-30.524983 -7.29171,-17.752122 -18.26726,-35.406558 -28.35538,-45.610342 l -6.24552,-6.317133 -28.20687,0.04436 c -15.51378,0.02444 -30.72424,0.272393 -33.801,0.551116 l -5.59411,0.506742 0.5356,13.045209 c 0.29459,7.17486 0.87543,20.158603 1.29076,28.852768 0.41533,8.694164 0.99944,22.191397 1.29798,29.99385 0.29856,7.802454 0.71945,14.4812343 0.9353,14.8417277 0.21585,0.3604935 1.36091,0.4720589 2.54456,0.2479249 1.18366,-0.2241425 6.52959,-0.8056181 11.87983,-1.292196 z m 98.48615,-99.2430396 c -5.12337,-5.01833 -12.31059,-11.34106 -15.97157,-14.0505 -6.63198,-4.90826 -6.6824,-4.92855 -13.78096,-5.54341 -9.88554,-0.85626 -67.45432,-0.89487 -79.16712,-0.0531 l -9.62286,0.69159 0.48258,11.06028 c 0.26543,6.08315 0.49183,12.46248 0.50312,14.17628 l 0.0206,3.115978 3.85056,-0.487937 c 8.24165,-1.04434 11.09398,-1.28369 24.67027,-2.07009 25.99302,-1.505641 67.08074,-0.639101 88.61733,1.86895 4.90439,0.57114 9.09625,0.898434 9.31523,0.727306 0.21899,-0.171126 -3.79371,-4.417027 -8.91709,-9.435357 z"
       id="path241"
       inkscape:connector-curvature="0" /></g></svg>