<?xml version="1.0" encoding="UTF-8" standalone="no"?>
<svg
   xmlns:dc="http://purl.org/dc/elements/1.1/"
   xmlns:cc="http://creativecommons.org/ns#"
   xmlns:rdf="http://www.w3.org/1999/02/22-rdf-syntax-ns#"
   xmlns:svg="http://www.w3.org/2000/svg"
   xmlns="http://www.w3.org/2000/svg"
   width="500mm"
   height="500mm"
   viewBox="0 0 500 500"
   version="1.1"
   id="svg8">
  <defs
     id="defs2" />
  <metadata
     id="metadata5">
    <rdf:RDF>
      <cc:Work
         rdf:about="">
        <dc:format>image/svg+xml</dc:format>
        <dc:type
           rdf:resource="http://purl.org/dc/dcmitype/StillImage" />
        <dc:title></dc:title>
      </cc:Work>
    </rdf:RDF>
  </metadata>
  <g
     id="layer1">
    <path
       style="fill:#000000;stroke-width:2.06619"
       d="m 195.57624,495.73122 c -68.1692,-15.38472 -91.32784,-20.39921 -94.50607,-20.46318 -2.000835,-0.0403 -5.637159,-1.20248 -8.080726,-2.58274 -7.082581,-4.00055 -52.662288,-59.73927 -51.445056,-62.91132 0.618044,-1.61059 0.165509,-2.26232 -1.049512,-1.51138 -1.455919,0.8998 -1.778289,-10.41492 -1.012424,-35.53446 1.315773,-43.15513 1.31411,-39.69666 0.08337,-174.25614 C 38.826544,117.64564 39.186159,93.400615 41.161425,90.895463 42.56392,89.116751 54.529936,79.552666 67.752589,69.641942 L 91.793763,51.622442 133.87061,37.495161 C 157.01289,29.725156 186.1751,19.675889 198.67554,15.163457 228.16062,4.5198755 243.18035,0.1179066 250.01165,0.1179066 c 3.03419,0 22.01306,3.6493427 42.17526,8.1096515 20.16218,4.4603079 42.19511,9.2146679 48.96207,10.5652419 9.0883,1.813876 13.81289,4.071327 18.07915,8.638368 l 5.77558,6.182776 10e-4,112.905306 0.001,112.90532 19.11111,4.05634 c 10.5111,2.23098 23.72836,3.85227 29.3717,3.60286 14.51336,-0.64146 22.23368,2.54237 32.08788,13.23294 11.86153,12.86822 15.20281,21.59588 15.3367,40.06042 0.0928,12.78355 -0.73753,16.87132 -4.74242,23.35014 -6.37624,10.31497 -9.88479,12.39382 -34.00774,20.14988 -19.20558,6.17501 -25.21999,6.67631 -34.94799,2.91286 -3.36785,-1.3029 -3.61584,1.36394 -3.61584,38.88399 0,35.37676 -0.44299,40.82991 -3.63733,44.77474 -2.4541,3.03068 -10.68773,6.48086 -25.31081,10.60609 -64.06175,18.07208 -84.19846,23.72123 -110.51958,31.00521 -15.90964,4.40276 -29.39152,7.9217 -29.95973,7.8199 -0.56819,-0.10187 -8.93625,-1.96875 -18.59569,-4.14872 z m 26.86045,-1.79426 c 6.02734,-6.02734 5.1357,-7.43655 -4.14534,-6.55145 -9.32704,0.88947 -11.84595,3.25385 -8.17669,7.67505 3.43093,4.13401 7.42901,3.76942 12.32203,-1.1236 z m -15.77372,-1.01066 c -1.28843,-3.35761 -4.65648,-4.37728 -40.01338,-12.11373 -13.06863,-2.85954 -34.80607,-7.6199 -48.30542,-10.57853 -13.49934,-2.95866 -24.838642,-5.08497 -25.198464,-4.72514 -3.188624,3.18862 8.642194,7.22219 43.726434,14.90798 22.62782,4.95701 47.1851,10.38307 54.57172,12.05792 7.38663,1.67485 14.09839,3.15389 14.91503,3.28677 0.81662,0.13286 0.95346,-1.143 0.30408,-2.83527 z m 39.90234,-3.96313 c 83.28739,-22.72596 120.33565,-33.63761 123.70555,-36.43439 2.75517,-2.28658 5.45037,-10.24653 3.46943,-10.24653 -0.66411,0 -11.50203,3.14819 -24.08427,6.99595 -12.58226,3.84778 -35.89381,10.89001 -51.80346,15.64941 -69.06796,20.66185 -68.67733,20.52273 -69.81179,24.86094 -0.59666,2.28163 -0.77408,4.14841 -0.39428,4.14841 0.37982,0 8.89327,-2.2382 18.91882,-4.97379 z m -36.97548,-48.918 c 0.32084,-25.47509 0.1095,-48.17792 -0.4696,-50.45073 -2.06258,-8.09464 -14.32784,-18.89558 -23.03919,-20.28859 -9.04488,-1.44633 -17.75179,-9.02068 -21.36618,-18.58695 -1.29486,-3.42712 -2.19632,-23.37347 -2.19443,-48.55543 0.003,-36.55013 0.52633,-43.78609 3.61583,-49.97056 3.27833,-6.56248 4.52471,-7.29009 13.46943,-7.86315 l 9.85682,-0.63149 -0.55897,-41.72538 -0.55896,-41.72537 -23.76117,-5.32901 -23.76118,-5.32901 -0.66126,-6.73674 c -0.56207,-5.72616 -0.0943,-6.55682 3.11787,-5.5373 5.88576,1.86807 40.62124,9.40711 43.57283,9.45712 2.04675,0.0347 2.51073,-6.56584 2.06618,-29.39346 L 188.34458,87.940938 157.35175,81.41343 C 140.3057,77.823297 118.32932,73.064262 108.51537,70.837799 L 90.671838,66.789677 67.708164,84.255942 44.74448,101.72222 V 254.5795 407.43678 l 21.939556,25.78728 c 12.066758,14.183 21.536693,26.19013 21.0443,26.68253 -0.492383,0.49239 -10.093507,-10.20678 -21.335831,-23.77594 -11.242325,-13.56916 -20.807102,-24.3047 -21.25506,-23.85673 -1.18941,1.1894 2.746947,6.37308 22.335112,29.4124 11.569385,13.60773 18.972767,20.6374 21.69497,20.59984 3.99223,-0.0552 22.399073,3.87216 85.746823,18.29487 16.47786,3.7516 30.88952,6.58741 32.02593,6.30178 1.27855,-0.32134 2.28856,-18.17607 2.64955,-46.83764 z M 57.141615,134.42017 c -4.952386,-4.9524 -5.358637,-12.9419 -0.885512,-17.41502 4.033575,-4.03358 5.037362,-4.03641 10.756718,-0.0304 7.675138,5.37587 5.382926,21.57781 -3.052787,21.57781 -1.477325,0 -4.545609,-1.85957 -6.818419,-4.13237 z m 4.731047,-8.26476 c -0.594343,-2.27281 -1.437084,-4.13238 -1.872748,-4.13238 -0.435664,0 -0.792117,1.85957 -0.792117,4.13238 0,2.27281 0.842741,4.13237 1.872759,4.13237 1.030017,0 1.38646,-1.85956 0.792106,-4.13237 z m 164.217728,311.83786 0.55442,-46.64583 -7.26346,0.15661 -7.26343,0.15663 -0.006,47.13669 -0.006,47.13671 6.71511,-0.64747 6.71511,-0.64745 0.55442,-46.64585 z m 84.15931,21.00479 c 14.77325,-4.35827 35.46095,-10.57971 45.97269,-13.82542 l 19.11224,-5.9013 v -10.08257 c 0,-10.95433 0.28722,-10.83358 -14.97987,-6.29795 -2.81109,0.83513 -3.61582,-0.15765 -3.61582,-4.46044 0,-5.20628 -0.42907,-5.45416 -7.23167,-4.178 l -7.23166,1.35667 v -12.33051 c 0,-12.21841 0.0647,-12.35186 7.10588,-14.67568 5.35273,-1.76655 7.26434,-3.67362 7.7482,-7.72972 0.50444,-4.22859 2.52751,-6.06905 9.42364,-8.57301 7.12443,-2.58684 8.7813,-4.15866 8.7813,-8.33043 0,-2.82807 -2.36386,-7.6093 -5.25304,-10.62495 l -5.25301,-5.48298 -32.45492,10.05208 c -17.8502,5.52862 -47.7801,14.76477 -66.5109,20.52474 -18.73079,5.76 -34.76958,10.91374 -35.64175,11.45277 -0.87215,0.53903 -1.58576,21.72384 -1.58576,47.07734 v 46.09728 l 27.377,-8.07192 c 15.05735,-4.43954 39.4642,-11.63775 54.23745,-15.996 z m 71.2835,-16.07763 c 0,-2.78637 -4.11012,-3.9271 -4.16058,-1.15473 -0.0165,0.85231 -0.54943,3.8741 -1.18645,6.71512 -1.11789,4.98547 -1.04491,5.02573 2.09439,1.15472 1.78895,-2.2059 3.25264,-5.2277 3.25264,-6.71511 z m 0,-16.25655 c 0,-7.13116 -0.78338,-11.00181 -2.0662,-10.20899 -1.1364,0.70234 -2.06618,0.35722 -2.06618,-0.76692 0,-1.30826 -2.33199,-1.37509 -6.47918,-0.18575 -9.45277,2.71102 -10.28335,4.65694 -1.26903,2.97312 l 7.74821,-1.4473 v 10.56089 c 0,5.80848 0.92978,10.56088 2.06618,10.56088 1.13641,0 2.0662,-5.16869 2.0662,-11.48599 z m -21.35968,-13.82481 c -0.57318,-1.42052 -1.04217,-0.25828 -1.04217,2.58273 0,2.84101 0.46899,4.00324 1.04217,2.58274 0.57318,-1.42051 0.57318,-3.74497 0,-5.16547 z m 14.64456,-0.49184 c 4.31811,-1.24118 4.64892,-2.50263 4.64892,-17.72655 0,-9.01464 -0.35132,-16.39028 -0.78077,-16.39028 -0.42941,0 -4.14855,1.40716 -8.26475,3.12701 l -7.48399,3.12702 v 15.60792 c 0,16.90938 -0.93982,15.93995 11.88059,12.25488 z m -17.91015,-3.124 c 3.25631,0 3.96338,-1.49669 3.96338,-8.38949 v -8.38947 l -7.74821,0.64127 c -6.78897,0.56189 -7.83122,1.36632 -8.41882,6.49782 -0.92465,8.07472 1.05602,12.39673 4.9894,10.88733 1.78796,-0.68609 5.03438,-1.24746 7.21425,-1.24746 z M 42.147916,358.08507 c -0.387302,-8.80713 -0.704197,-1.6013 -0.704197,16.01296 0,17.61425 0.316895,24.82009 0.704197,16.01296 0.387313,-8.80713 0.387313,-23.2188 0,-32.02592 z m 184.159854,29.27562 c 0.42448,-0.37801 0.23414,-2.0884 -0.42296,-3.80085 -0.97012,-2.52807 -2.37792,-2.70108 -7.48692,-0.92007 -6.60703,2.30323 -8.05545,4.8798 -3.70941,6.59871 2.37531,0.93946 9.80381,-0.26107 11.61929,-1.87779 z m 86.00811,-25.66785 c 26.13729,-8.16089 48.23188,-15.50791 49.09911,-16.32669 1.28779,-1.21589 -1.62267,-13.72921 -3.81954,-16.42193 -0.32791,-0.40191 -10.64996,2.5197 -22.93788,6.49249 -12.28793,3.97278 -42.33207,13.48045 -66.76474,21.12818 -24.43268,7.64773 -44.67213,14.11808 -44.97656,14.37855 -0.30441,0.26048 0.85209,3.16883 2.57,6.46301 1.71794,3.29419 3.12924,7.08573 3.13625,8.42567 0.008,1.61115 6.13572,0.44863 18.09188,-3.43252 9.94353,-3.22782 39.46419,-12.54588 65.60148,-20.70676 z m 47.85764,20.15339 c -0.57318,-1.4205 -1.04217,-0.25827 -1.04217,2.58274 0,2.84101 0.46899,4.00324 1.04217,2.58273 0.57318,-1.4205 0.57318,-3.74496 0,-5.16547 z M 222.43669,376.2331 c 0,-4.38792 -4.79792,-4.29634 -9.56553,0.18265 -4.33344,4.07106 -4.89517,4.21205 -3.62829,0.91064 1.04388,-2.72035 0.76509,-3.45262 -0.91837,-2.41219 -1.32954,0.82169 -2.41732,0.73298 -2.41732,-0.19712 0,-0.9301 1.89564,-2.87496 4.21255,-4.32189 2.31689,-1.44693 3.65672,-3.53017 2.97735,-4.62939 -1.80678,-2.92341 -4.08072,-2.47247 -9.44789,1.87359 l -4.78197,3.87222 5.96244,6.31721 c 5.68539,6.02368 6.23297,6.17733 11.78473,3.3064 3.20226,-1.65607 5.8223,-3.86198 5.8223,-4.90212 z m 158.75488,-6.17604 c 0.38033,-2.58521 -0.43997,-5.75539 -1.82285,-7.04483 -1.95451,-1.82243 -2.23041,-0.8264 -1.23913,4.4734 0.81101,4.33616 0.51973,6.35092 -0.80028,5.53511 -3.53643,-2.18564 -16.35612,3.07098 -15.15064,6.21241 1.78769,4.65863 18.13858,-3.2327 19.0129,-9.17609 z m -165.98654,1.97478 c 0.70233,-1.1364 0.34718,-2.06619 -0.78923,-2.06619 -1.1364,0 -2.64081,0.92979 -3.34315,2.06619 -0.70234,1.13641 -0.34718,2.06619 0.78923,2.06619 1.1364,0 2.64081,-0.92978 3.34315,-2.06619 z m -16.45172,-10.84749 c 1.31086,-5.30773 0.96747,-5.68202 -5.2127,-5.68202 -5.12336,0 -6.89028,1.04884 -7.83171,4.64893 -1.6221,6.20288 -1.46005,6.52 4.06337,7.95195 5.78618,1.50005 7.16395,0.43863 8.98104,-6.91886 z m 26.83733,5.04797 c -0.63616,-0.63617 -2.30337,-0.001 -3.70494,1.41075 -2.02541,2.04061 -1.78808,2.27793 1.15665,1.15665 2.03772,-0.77591 3.18445,-1.93125 2.54829,-2.5674 z M 416.6584,361.8941 c 12.93921,-9.32954 17.50053,-29.51428 11.29849,-49.99818 -4.29582,-14.18821 -16.15938,-29.18553 -25.7248,-32.52005 -5.34722,-1.86406 -6.58528,-1.55489 -9.30121,2.32262 -4.48783,6.40731 -3.94177,8.38521 3.18626,11.54038 7.86272,3.48038 15.5616,14.92145 18.27066,27.15142 4.2852,19.34542 -5.7971,39.24442 -19.88413,39.24442 -5.59654,0 -6.14288,3.06089 -1.08989,6.10623 4.72115,2.84534 16.71638,0.86021 23.24462,-3.84684 z m -232.6241,-2.67889 c 1.78494,-3.58021 1.59871,-6.14051 -0.82432,-11.33334 -2.71781,-5.82458 -4.1692,-6.71715 -11.0176,-6.77556 -7.23833,-0.0618 -7.76942,0.3153 -6.45335,4.58162 2.57178,8.33705 7.03562,15.76649 10.70771,17.82148 4.07319,2.27949 4.4034,2.09259 7.58756,-4.2942 z m 23.62028,3.78985 c 3.01634,-1.55552 19.89592,-7.3382 37.51018,-12.8504 17.61426,-5.51217 32.42882,-10.29858 32.92126,-10.63645 0.49245,-0.33783 -0.0399,-1.54955 -1.18306,-2.69268 -2.47124,-2.47124 -66.8634,17.74123 -66.8634,20.98818 0,1.13568 -0.97051,1.46508 -2.15669,0.73197 -2.31907,-1.43327 -8.17426,2.48802 -8.17426,5.47439 0,2.48313 1.54543,2.28573 7.94597,-1.01501 z m 26.21063,-2.4449 c 6.20142,-1.8028 13.37276,-2.68762 15.93634,-1.96627 2.98624,0.84025 3.72015,0.65429 2.04249,-0.51756 -2.16447,-1.5119 37.93636,-15.11911 102.31216,-34.71705 1.58198,-0.48161 2.58274,-4.49983 2.58274,-10.37002 0,-7.48468 -0.65053,-9.33413 -2.97005,-8.44404 -1.63353,0.62685 -6.97979,2.20936 -11.88058,3.5167 -4.90079,1.30736 -17.5037,5.11929 -28.00646,8.47098 -15.85511,5.05974 -19.30368,6.9218 -20.32014,10.97173 -2.19471,8.74436 -9.65499,12.75675 -44.62905,24.00308 -18.95112,6.09393 -33.96609,11.87355 -33.36656,12.8436 0.5995,0.97003 2.42512,1.25135 4.05693,0.62518 1.63179,-0.62618 8.04078,-2.61352 14.24218,-4.41633 z m 153.86655,1.1938 c 0,-1.10723 -2.80768,-3.46504 -6.23931,-5.23961 -3.43161,-1.77454 -9.01031,-7.05173 -12.39713,-11.72709 -7.04775,-9.72913 -8.25614,-8.66425 -1.87831,1.65529 4.10708,6.64542 15.73551,17.25387 18.96511,17.30162 0.8523,0.0124 1.54964,-0.88298 1.54964,-1.99021 z m 49.07197,-14.58721 c 8.78886,-17.14612 5.2256,-40.63522 -8.99204,-59.2755 -5.64977,-7.40722 -14.78792,-12.97027 -21.30566,-12.97027 -3.2415,0 -1.47883,2.62094 7.99004,11.88059 9.94623,9.72645 12.78419,14.08772 15.65206,24.05355 4.36447,15.16663 3.29708,30.65901 -2.9363,42.61803 l -4.65519,8.9312 4.79908,-3.08403 c 2.63951,-1.69622 6.89111,-7.16534 9.44801,-12.15357 z m -156.85613,3.12939 c 7.57491,-2.64944 12.77321,-4.88638 11.55175,-4.97096 -2.85949,-0.19794 -32.15572,9.746 -33.75624,11.45788 -1.41037,1.50852 3.17476,0.16902 22.20449,-6.48692 z m 122.05907,4.27054 c 3.19269,-1.65101 6.94315,-5.74979 8.33432,-9.10836 3.17827,-7.67306 3.25583,-22.80766 0.16488,-32.17338 -2.65342,-8.03989 -14.04428,-19.05423 -21.69025,-20.97324 -12.4032,-3.113 -23.54806,6.75749 -25.31333,22.41891 -1.32081,11.71823 2.21161,22.55405 10.38847,31.86697 9.69686,11.04413 17.75352,13.32767 28.11591,7.9691 z m -24.3965,-11.57 c -12.39077,-12.39076 -12.70413,-31.83033 -0.66576,-41.29974 12.7881,-10.05911 31.44924,6.53715 31.44924,27.96933 0,18.75633 -17.69498,26.41891 -30.78348,13.33041 z m 11.1503,-10.60444 c -6.64939,-7.90237 -6.97768,-18.77316 -0.69971,-23.17041 3.75918,-2.63304 4.03847,-3.63444 1.77448,-6.36239 -1.67332,-2.0162 -4.33058,-2.76244 -7.04411,-1.97821 -15.21979,4.39869 -15.71222,32.64097 -0.75318,43.19529 4.35529,3.07287 4.89738,2.99876 8.27216,-1.13116 3.47618,-4.25397 3.41812,-4.64928 -1.54964,-10.55312 z m 13.04612,9.70446 c 2.98279,-3.79202 3.87566,-7.63521 3.40292,-14.64739 -0.58916,-8.73885 -5.30964,-17.40313 -9.48158,-17.40313 -3.76551,0 2.4993,20.05817 7.223,23.12598 1.27559,0.82845 -0.15972,2.32949 -3.40858,3.5647 -3.08663,1.17353 -5.61203,2.54554 -5.61203,3.04892 0,0.50339 -0.56435,2.38598 -1.25415,4.18352 -2.01862,5.26048 4.58487,3.90613 9.13042,-1.8726 z m -3.33801,-9.86647 c -1.19144,-1.43561 -3.3097,-7.15118 -4.70723,-12.70127 -2.34634,-9.31817 -2.76074,-9.79083 -5.4105,-6.17108 -3.27681,4.4763 -1.96308,12.40229 2.96141,17.86674 3.82452,4.24387 10.63852,5.20138 7.15632,1.00561 z m 48.8624,18.38569 c 8.54254,-7.77769 11.45864,-15.79409 11.37567,-31.27189 -0.11404,-21.26897 -9.52357,-38.37083 -25.51874,-46.38016 -5.57723,-2.79271 -8.84004,-3.1872 -14.26197,-1.72436 l -7.03032,1.89678 6.16196,3.7473 c 9.10616,5.5378 18.78149,18.25036 22.56917,29.65398 4.80522,14.46721 3.32246,35.5229 -3.14076,44.59967 l -4.91782,6.90644 4.95879,-1.50815 c 2.72733,-0.82949 7.13916,-3.49331 9.80402,-5.91961 z m -210.78609,-5.80138 c 22.59443,-7.52186 30.92122,-11.10566 28.11031,-12.09849 -2.2194,-0.78391 -9.04329,0.32318 -15.35807,2.49162 -6.25021,2.14625 -20.45478,6.70855 -31.56573,10.13842 -11.11093,3.42985 -19.65656,7.11814 -18.9903,8.19617 1.8848,3.04968 3.65213,2.64165 37.80379,-8.72772 z m -14.39096,-2.98149 c 16.63337,-5.24531 30.88466,-9.91502 31.66952,-10.37712 0.78489,-0.46211 -0.0922,-3.48715 -1.94881,-6.72231 l -3.37586,-5.88211 -11.48142,3.66773 c -6.31476,2.01727 -21.01168,6.69535 -32.65982,10.39574 -21.42057,6.80496 -24.89835,9.77619 -18.69901,15.97555 3.44431,3.44429 2.79508,3.56984 36.4954,-7.05748 z m 100.23681,-4.1257 c 5.37783,-1.83243 9.42052,-3.68904 8.98373,-4.12583 -0.43679,-0.4368 -5.83346,0.99451 -11.99258,3.18069 -6.15909,2.18617 -10.20178,4.04281 -8.98372,4.12583 1.21806,0.0831 6.61472,-1.34828 11.99257,-3.18069 z m -142.82746,-1.31726 c -0.28411,-0.8523 -0.51655,-17.26301 -0.51655,-36.46823 v -34.91858 h -7.23166 -7.23166 v 37.1095 37.1095 l 7.7482,-0.64127 c 4.26152,-0.35271 7.51577,-1.33861 7.23167,-2.19092 z m 109.01408,-4.13238 c 5.51056,-9.03798 5.26359,-9.81439 -3.12193,-9.81439 -6.54293,0 -7.23165,0.55099 -7.23165,5.78532 0,4.81945 3.09303,10.74419 5.60908,10.74419 0.35762,0 2.49265,-3.02181 4.7445,-6.71512 z m -97.20672,-26.7385 c 0.041,-11.20399 -0.83686,-20.58585 -1.99297,-21.30038 -1.1364,-0.70234 -2.06619,-4.47636 -2.06619,-8.3867 0,-3.91035 -0.92978,-7.10971 -2.06618,-7.10971 -2.35472,0 -2.95619,62.4731 -0.62393,64.80538 3.60223,3.60223 6.6804,-9.17175 6.74927,-28.00859 z m 12.47035,24.25017 c 0,-0.29394 -2.78722,-0.43543 -6.19386,-0.31441 -3.40662,0.12108 -6.19597,1.33387 -6.19856,2.69526 -0.004,1.8531 1.55332,1.93213 6.19385,0.31443 3.40922,-1.18847 6.19857,-2.40134 6.19857,-2.69528 z m 158.44175,0.55128 c -0.65956,-1.64827 -1.14917,-1.15868 -1.24831,1.24833 -0.0897,2.17809 0.39862,3.39845 1.08521,2.71187 0.68657,-0.6866 0.75997,-2.46868 0.16302,-3.9602 z m -86.51079,-5.45372 c 0.87737,-8.88402 -5.96451,-9.22823 -9.27169,-0.46645 -1.93935,5.13787 -1.76795,6.22856 1.09665,6.97913 5.87368,1.53894 7.50848,0.23656 8.17504,-6.51268 z m -52.30217,-0.67335 c 2.93438,-1.31084 1.5141,-1.57992 -4.8991,-0.9281 -4.96732,0.50483 -10.08114,2.01902 -11.36403,3.36484 -1.78715,1.87477 -0.64164,2.09178 4.8991,0.92808 3.9774,-0.83534 9.09123,-2.34952 11.36403,-3.36482 z m 39.87743,1.96887 c 4.8002,-4.8002 2.94405,-9.91771 -3.59718,-9.91771 -7.75687,0 -9.78553,3.2944 -5.16959,8.39495 4.22672,4.67049 5.413,4.87653 8.76677,1.52276 z m 102.4026,-26.75238 c 3.62469,-5.53194 11.46587,-10.02578 17.49382,-10.02578 2.11253,0 4.57929,-2.64172 6.01264,-6.43911 l 2.43051,-6.4391 -6.62644,1.29749 c -15.58098,3.05086 -24.3565,15.49276 -25.3584,35.95319 l -0.67832,13.85202 1.64099,-11.47109 c 0.90255,-6.30911 3.1909,-13.83651 5.0852,-16.72762 z m -158.02013,22.29377 c 1.42196,-1.71334 5.74363,-2.63142 11.10047,-2.35808 4.82462,0.24616 7.60977,0.0366 6.18927,-0.46583 -1.4205,-0.50235 -2.58273,-2.14352 -2.58273,-3.64702 0,-1.71643 -1.53774,-2.33155 -4.13238,-1.65303 -2.2728,0.59435 -4.13238,1.93469 -4.13238,2.97855 0,1.07001 -1.74333,0.96489 -3.99655,-0.241 -5.52961,-2.95936 -7.74958,-2.68319 -9.21933,1.14686 -2.41008,6.28063 2.51921,9.36582 6.77363,4.23955 z m 34.3358,-3.29795 c 9.23156,-3.60475 9.67831,-5.46408 1.03309,-4.29944 -3.79191,0.51082 -16.32064,8.25402 -13.43023,8.30037 1.13641,0.0186 6.71512,-1.7822 12.39714,-4.00093 z m 84.71372,-8.02927 28.92664,-9.62829 0.53827,-90.39575 c 0.42796,-71.87345 0.002,-90.39575 -2.07983,-90.39575 -1.43995,0 -5.63375,0.86488 -9.31957,1.92196 -6.2707,1.79841 -6.70147,1.59317 -6.70147,-3.1929 0,-4.72653 -0.54908,-5.01187 -7.23166,-3.75821 l -7.23166,1.35668 v -12.2444 c 0,-11.959281 0.16839,-12.324702 7.23166,-15.692937 4.79442,-2.286303 7.23166,-4.877257 7.23166,-7.687773 0,-3.056373 2.59437,-5.351302 9.29784,-8.224757 9.06719,-3.886643 9.29786,-4.218012 9.29786,-13.356796 0,-6.61052 -0.84376,-9.371281 -2.86408,-9.371281 -2.64885,0 -22.83278,5.91306 -80.81656,23.675919 -12.50043,3.829407 -31.79347,9.493666 -42.87341,12.587242 l -20.14533,5.62467 v 76.407933 c 0,71.77929 0.21903,76.34635 3.61582,75.39128 40.07092,-11.2667 65.98824,-18.06102 68.89482,-18.06102 2.00113,0 5.56545,2.44986 7.92074,5.44412 4.01393,5.10289 4.28235,8.08155 4.28235,47.52234 0,23.14303 0.69733,41.99447 1.54963,41.89212 0.85231,-0.10228 14.56663,-4.51884 30.47628,-9.8144 z m -34.55869,-27.70745 0.56651,-34.60865 h -7.28163 -7.28161 v 35.25612 35.25611 l 6.71511,-0.64746 6.71511,-0.64745 z m -57.3867,25.26774 c -4.48373,-2.83529 -5.59009,-2.50685 -6.77132,2.0102 -1.32336,5.0605 2.66395,6.75397 6.77132,2.8759 2.75492,-2.60113 2.75492,-3.14403 0,-4.8861 z m 41.32377,-4.0893 c 0,-9.40756 -0.71686,-12.39713 -2.97269,-12.39713 -1.93793,0 -3.45667,3.22756 -4.36316,9.27247 -1.606,10.70969 -0.3127,15.52179 4.17173,15.52179 2.4898,0 3.16412,-2.64199 3.16412,-12.39713 z m -79.16991,5.81116 c -0.65957,-1.64827 -1.14917,-1.15869 -1.24831,1.24833 -0.0897,2.17809 0.39862,3.39844 1.08521,2.71187 0.68657,-0.6866 0.75996,-2.46868 0.16302,-3.9602 z m 14.08498,2.4536 c 0.74201,-1.20058 -1.15452,-2.00534 -4.52698,-1.92096 -5.10518,0.12769 -5.30644,0.359 -1.67159,1.92096 2.27281,0.97666 4.30994,1.84109 4.52699,1.92095 0.21703,0.08 0.96924,-0.78455 1.67158,-1.92095 z m 50.62162,0 c 3.77693,-2.44083 0.51466,-2.44083 -5.16547,0 -2.72477,1.17086 -3.07668,1.81441 -1.0331,1.88932 1.7046,0.0624 4.49396,-0.78772 6.19857,-1.88932 z m -39.62351,-4.64893 c 1.8271,-5.31546 0.6986,-30.47391 -1.36723,-30.48093 -0.75137,-0.002 -1.0574,6.50583 -0.68003,14.4631 0.55552,11.71466 0.0641,14.70646 -2.58273,15.72214 -4.17131,1.60067 -4.25139,4.94462 -0.1184,4.94462 1.73273,0 3.86952,-2.09202 4.74841,-4.64893 z m 24.24873,1.61535 c 3.36946,-2.54853 3.47303,-3.04408 0.6479,-3.09928 -1.84956,-0.0362 -4.52031,1.32896 -5.93501,3.03357 -3.29675,3.97235 0.0667,4.01415 5.28711,0.0657 z m -42.4785,-12.46284 c 0,-8.7239 -0.72003,-11.36403 -3.09928,-11.36403 -2.32744,0 -3.09929,2.48707 -3.09929,9.98656 0,5.49264 0.61986,10.60645 1.37747,11.36404 3.42762,3.42762 4.8211,0.54112 4.8211,-9.98657 z m 9.81439,10.06174 c 4.18645,-1.12192 4.61092,-2.40378 4.26673,-12.88546 l -0.3822,-11.6396 -0.75887,10.84749 c -0.62951,8.99829 -1.42564,10.84749 -4.67006,10.84749 -3.17991,0 -4.0559,-1.83502 -4.68507,-9.8144 -0.76531,-9.70593 -0.778,-9.6831 -1.1463,2.0662 -0.38778,12.37039 -0.21832,12.61344 7.37577,10.57828 z m 47.62565,-1.17713 c 3.7321,-3.73209 2.98083,-7.85152 -1.43189,-7.85152 -4.0645,0 -7.29423,5.17803 -5.2713,8.45121 1.5789,2.55472 3.74234,2.36116 6.70319,-0.59969 z m -24.38102,-1.65295 c 0,-1.1364 -2.09202,-2.05195 -4.64893,-2.03455 -3.7593,0.0256 -4.05585,0.41493 -1.54964,2.03455 4.00585,2.58877 6.19857,2.58877 6.19857,0 z m 12.0312,-4.64893 c 0.87889,-2.5569 1.23819,-10.46007 0.79844,-17.56259 -0.64108,-10.35398 -1.47988,-12.9074 -4.23186,-12.88205 -2.97457,0.0275 -3.01897,0.30299 -0.33303,2.06618 2.75491,1.8085 2.75491,2.26062 0,4.06912 -2.07249,1.3605 -2.24364,2.04503 -0.51655,2.06619 1.72401,0.0211 2.58274,3.53084 2.58274,10.55601 0,8.78671 -0.6823,10.70279 -4.13238,11.60502 -5.3772,1.40616 -5.34127,4.73105 0.051,4.73105 2.48753,0 4.83136,-1.88467 5.78151,-4.64893 z m -5.33774,-3.28424 c 1.13536,-1.13537 -0.23123,-1.48015 -3.43752,-0.86724 -5.02617,0.96081 -5.34019,0.51568 -5.64673,-8.00476 l -0.32462,-9.02219 -1.41697,10.33094 -1.41698,10.33095 -0.32461,-10.84749 c -0.24298,-8.1205 -1.10374,-10.84749 -3.42388,-10.84749 -2.32744,0 -3.09929,2.48707 -3.09929,9.98657 0,5.49264 0.69734,10.68818 1.54965,11.5457 1.90686,1.91853 14.95523,-0.0186 17.54095,-2.60499 z m 128.67855,-14.45463 c 3.11755,-2.45225 9.49848,-5.52754 14.17984,-6.83399 l 8.51156,-2.37535 -14.46332,-3.78303 c -22.70233,-5.93804 -21.6962,-6.54897 -21.68725,13.16865 l 0.008,17.04605 3.89161,-6.38184 c 2.14037,-3.51 6.44231,-8.38821 9.55983,-10.84049 z M 42.159498,150.29085 c -0.326844,-26.34313 -0.59392,-4.19672 -0.593507,49.21425 4.24e-4,53.41097 0.267841,74.96444 0.594261,47.89661 0.32643,-27.06783 0.326089,-70.76773 -7.54e-4,-97.11086 z M 264.31632,294.22757 c -1.39887,-0.56597 -4.18823,-0.60041 -6.19856,-0.0767 -2.01034,0.52386 -0.8658,0.98693 2.54341,1.02904 3.40921,0.0422 5.05403,-0.3865 3.65515,-0.9525 z m -23.93869,-5.23068 c -0.65957,-1.64826 -1.14918,-1.15868 -1.24831,1.24833 -0.0897,2.1781 0.39861,3.39845 1.0852,2.71188 0.68658,-0.68661 0.75996,-2.46869 0.16303,-3.96021 z m 18.21736,-9.05433 c 0,-8.00532 -0.75852,-10.27654 -3.61584,-10.82681 -3.04698,-0.58679 -3.61583,0.89861 -3.61583,9.44174 0,5.57594 0.63922,10.7773 1.42051,11.55859 3.41007,3.41008 5.81116,-0.79344 5.81116,-10.17352 z m 11.53303,9.44174 c 1.04343,0 1.7252,-5.34626 1.51499,-11.88059 l -0.38221,-11.88057 -0.75887,10.84749 c -0.63754,9.11326 -1.40226,10.84748 -4.78326,10.84748 -2.21343,0 -4.0244,1.02925 -4.0244,2.28725 0,1.25798 1.47071,1.72287 3.26828,1.0331 1.79753,-0.6898 4.122,-1.25416 5.16547,-1.25416 z m -61.12156,-8.26475 c 1.62583,-2.63066 -3.16102,-2.63066 -7.23165,0 -2.51968,1.62834 -2.25267,2.00882 1.42769,2.03455 2.48984,0.0165 5.10162,-0.89815 5.80396,-2.03455 z m 17.57914,-10.46184 c 18.62338,-5.75403 34.60638,-10.9227 35.51777,-11.48598 1.85536,-1.14668 2.26717,-9.81237 0.54802,-11.53154 -0.61,-0.61001 -13.39454,2.80228 -28.41009,7.58285 -15.01557,4.78055 -30.52234,9.56651 -34.4595,10.63546 -5.79434,1.57314 -7.41801,3.21242 -8.52035,8.60228 -0.74903,3.66232 -0.72618,6.65877 0.0508,6.65877 0.77695,0 16.64995,-4.70783 35.27336,-10.46184 z m 9.28131,2.19708 c 1.62582,-2.63065 -3.16102,-2.63065 -7.23166,0 -2.51967,1.62835 -2.25266,2.00883 1.4277,2.03456 2.48983,0.0165 5.10162,-0.89815 5.80396,-2.03456 z m 164.26198,-4.13237 c -2.84101,-0.90985 -7.02504,-1.65427 -9.29785,-1.65427 -3.27216,0 -3.05709,0.34436 1.0331,1.65427 2.841,0.90984 7.02504,1.65427 9.29784,1.65427 3.27217,0 3.0571,-0.34437 -1.03309,-1.65427 z m -186.40156,-9.19684 c 27.54779,-8.11516 41.94728,-13.17286 38.10948,-13.38565 -2.67767,-0.14836 -64.85208,18.33149 -66.41933,19.74167 -2.29344,2.06358 6.20769,0.15496 28.30985,-6.35602 z m 49.00003,5.06446 c 0.70234,-1.13641 -0.5826,-2.06619 -2.85541,-2.06619 -2.2728,0 -4.707,0.92978 -5.40935,2.06619 -0.70233,1.1364 0.58261,2.06618 2.85542,2.06618 2.27281,0 4.70701,-0.92978 5.40934,-2.06618 z m 122.37862,0.81785 c -0.68659,-0.68657 -2.46868,-0.75995 -3.9602,-0.16302 -1.64826,0.65957 -1.15867,1.14917 1.24833,1.24831 2.17809,0.0897 3.39844,-0.39862 2.71187,-1.0852 z m -202.74762,-7.83296 c 4.42616,-9.55089 -5.11301,-15.85873 -12.04486,-7.96475 -1.74632,1.9887 -3.81265,5.70783 -4.59184,8.26475 -1.29766,4.25825 -0.75389,4.64755 6.47072,4.6328 6.2825,-0.0124 8.35109,-1.01656 10.16598,-4.9328 z m 15.27042,0.61059 c 0.57571,-0.11323 -1.27772,-0.88713 -4.11873,-1.71963 -6.26987,-1.8373 -10.33095,-0.64406 -10.33095,3.03549 0,2.10097 1.55169,2.28899 6.70148,0.81204 3.68581,-1.05707 7.17251,-2.01464 7.7482,-2.1279 z m 78.14317,-4.42605 c -0.87629,-9.06558 -7.87912,-10.89863 -7.87912,-2.06243 0,6.6691 1.34668,8.76063 5.64076,8.76063 2.00999,0 2.68931,-2.03287 2.23836,-6.6982 z m 87.16554,-65.74035 c 0,-47.76621 -0.70374,-72.0036 -2.06618,-71.16156 -1.31275,0.81133 -2.06619,27.22628 -2.06619,72.43854 0,46.0636 0.72872,71.16157 2.06619,71.16157 1.33816,0 2.06618,-25.52366 2.06618,-72.43855 z m -172.69914,61.37024 c -0.71655,-1.86726 -2.1331,-3.39502 -3.14792,-3.39502 -2.81936,0 -2.19579,5.72896 0.7376,6.77661 3.49252,1.24733 3.94369,0.61433 2.41032,-3.38159 z m 15.16511,1.2539 c 0.55532,-1.69113 -1.35123,-2.58273 -5.52267,-2.58273 -4.40549,0 -6.37074,0.9984 -6.37074,3.23652 0,3.93741 10.57675,3.356 11.89341,-0.65379 z m 36.25276,-6.81422 c 30.44697,-8.11163 36.80946,-10.67865 33.83649,-13.65161 -2.17566,-2.17567 -65.11545,16.08903 -66.32758,19.24779 -0.58414,1.52223 -0.57618,2.76769 0.0186,2.76769 0.59386,0 15.2069,-3.76376 32.47341,-8.36387 z m -34.15603,-40.89219 0.55992,-42.02439 -5.48749,4.31645 c -3.01812,2.37406 -6.75677,4.31646 -8.30813,4.31646 -2.27795,0 -2.82063,7.08936 -2.82063,36.84702 0,20.26588 0.66393,37.51095 1.47539,38.32243 0.81144,0.81145 4.29814,1.19886 7.7482,0.86089 l 6.27283,-0.61446 z m 85.1869,38.28162 c 0,-4.68272 -6.7265,-13.81982 -10.17381,-13.81982 -0.96142,0 -3.11471,2.09201 -4.78506,4.64892 -4.69153,7.1816 -0.79011,13.94677 8.04295,13.94677 5.84906,0 6.91592,-0.73672 6.91592,-4.77587 z m -26.86045,0.29913 c 0,-0.94701 -0.8749,-1.72183 -1.94424,-1.72183 -1.06934,0 -2.42312,0.77482 -3.00839,1.72183 -0.58529,0.94701 0.28962,1.72184 1.94424,1.72184 1.65461,0 3.00839,-0.77483 3.00839,-1.72184 z m 8.28365,-0.66598 c -1.40434,-1.69209 -3.39292,-2.55763 -4.41909,-1.92342 -2.63743,1.63002 -0.11529,4.99996 3.74203,4.99996 2.62653,0 2.75307,-0.57507 0.67706,-3.07654 z m -71.73681,-81.63719 c 0.59436,-2.27281 0.2379,-4.13238 -0.79212,-4.13238 -1.03001,0 -1.87275,0.38884 -1.87275,0.86411 0,0.47525 -0.56436,2.33482 -1.25415,4.13237 -0.68978,1.79755 -0.33335,3.26827 0.79211,3.26827 1.12545,0 2.53255,-1.85956 3.12691,-4.13237 z m -12.99581,-4.81135 c 0,-4.43867 -1.65614,-5.15883 -21.38186,-9.29784 -25.68895,-5.39026 -24.07428,-5.33706 -24.07428,-0.79319 0,2.98618 4.25265,4.71746 22.21153,9.04246 12.21633,2.94204 22.44396,5.46407 22.72806,5.60454 0.28411,0.14045 0.51655,-1.90973 0.51655,-4.55597 z m 13.14433,-4.4865 c -0.65414,-1.7046 -1.99044,-3.09929 -2.96959,-3.09929 -0.97916,0 -1.2451,1.39469 -0.59099,3.09929 0.65413,1.70461 1.99044,3.09928 2.96959,3.09928 0.97916,0 1.2451,-1.39467 0.59099,-3.09928 z m 5.45136,-28.92664 V 93.096387 h -8.26475 -8.26475 v 22.381903 22.38191 l 7.74821,5.30591 c 4.26151,2.91825 7.98065,5.3985 8.26476,5.51165 0.28409,0.11315 0.51653,-12.34637 0.51653,-27.68782 z m 133.6475,-5.55288 c -0.65957,-1.64827 -1.14917,-1.15867 -1.24831,1.24832 -0.0897,2.1781 0.39862,3.39844 1.08521,2.71187 0.68657,-0.68658 0.75996,-2.46866 0.16302,-3.96019 z m 14.9459,1.12984 c 2.07338,-1.78804 -7.36865,-0.46994 -10.15876,1.41816 -2.26343,1.53167 -1.42758,1.72337 3.09927,0.71078 3.40921,-0.76257 6.58598,-1.7206 7.05949,-2.12894 z m 1.72181,-3.94944 c 1.76713,-0.54441 2.58274,-5.70975 2.58274,-16.356934 0,-16.763133 -0.66343,-17.563443 -11.22953,-13.546221 -5.04274,1.917245 -5.29998,2.771608 -5.29998,17.601965 v 15.58693 l 5.68202,-1.24503 c 3.12511,-0.68478 6.84425,-1.60309 8.26475,-2.04071 z m -16.40425,-10.87195 0.64182,-8.913513 -7.87348,0.648748 c -7.68764,0.633427 -7.88861,0.859106 -8.51526,9.562235 l -0.64181,8.9135 7.87348,-0.64875 c 7.68763,-0.63342 7.8886,-0.85909 8.51525,-9.56222 z M 42.023547,96.841356 c -0.659575,-1.648268 -1.149179,-1.158664 -1.248319,1.248333 -0.08968,2.178101 0.398626,3.398441 1.085197,2.711871 0.686582,-0.68658 0.759986,-2.468671 0.163133,-3.960204 z M 67.499563,81.711903 C 81.631026,71.010023 87.623844,65.243338 86.812139,63.128072 85.390283,59.422775 85.429842,59.401451 62.823634,76.058316 51.116419,84.684508 44.74448,90.762746 44.74448,93.304141 c 0,2.158545 0.509761,3.924631 1.132794,3.924631 0.623034,0 10.353062,-6.982595 21.622289,-15.516869 z m 140.466077,7.768658 c -0.0186,-3.721899 -8.47581,-14.979866 -11.25325,-14.979866 -4.11659,0 -7.86917,7.458221 -6.27685,12.475178 0.99115,3.122876 3.15358,4.054332 9.41231,4.054332 4.46902,0 8.12204,-0.697347 8.11779,-1.549644 z m 36.7329,-10.09047 C 359.7191,45.49887 354.66,47.228239 354.66675,41.799287 c 0.008,-6.510116 -11.33079,-17.743306 -16.05187,-15.902212 -1.96401,0.765913 -32.85914,11.114629 -68.65586,22.99715 -35.79671,11.882518 -66.31626,22.037435 -67.82119,22.566494 -2.13786,0.751546 -1.98705,1.711124 0.68959,4.387756 1.88422,1.884216 4.25474,5.606032 5.26785,8.27069 1.0131,2.664669 2.35256,4.844847 2.97658,4.844847 0.62402,0 15.75603,-4.308266 33.62669,-9.573921 z m 102.48792,1.674985 c 8.96948,-1.543435 14.38062,-4.62889 12.1064,-6.903126 -5.2378,-5.237801 -19.25076,3.175411 -18.87748,11.333819 0.19567,4.277572 0.27276,4.295921 1.54965,0.368965 0.73903,-2.27281 3.08868,-4.432656 5.22143,-4.799658 z m -158.347,-1.781057 c 1.40859,-3.033457 2.21157,-5.864884 1.78441,-6.292056 -0.42718,-0.427161 -14.13175,-3.554768 -30.45462,-6.950216 -16.32287,-3.395458 -34.92597,-7.530168 -41.34023,-9.188251 -16.1514,-4.175126 -21.828739,-3.866166 -24.614739,1.339515 -1.281659,2.394813 -1.546814,5.081518 -0.58924,5.970451 0.957584,0.888942 18.942069,5.370879 39.965539,9.95987 21.02347,4.58899 40.08406,8.767815 42.35687,9.286285 8.38058,1.911738 10.38666,1.269767 12.89201,-4.125598 z M 362.93749,60.037368 c 0,-6.887288 -0.91829,-12.397124 -2.06618,-12.397124 -2.27411,0 -2.89787,21.20766 -0.68872,23.416797 2.50167,2.501691 2.7549,1.488741 2.7549,-11.019673 z M 266.79874,47.691983 c 37.28855,-12.471988 68.10483,-22.983805 68.48064,-23.359593 0.37577,-0.37579 -5.10216,-1.848053 -12.17322,-3.271696 -7.07106,-1.423643 -27.73302,-5.83878 -45.91548,-9.811415 l -33.05902,-7.2229757 -70.05859,23.6395527 -70.0586,23.639557 23.56936,5.424892 c 35.97213,8.279606 60.1967,13.202775 66.08914,13.431337 2.9306,0.113676 35.83721,-9.997673 73.12577,-22.469659 z M 93.166214,54.049478 c -1.296928,-1.296928 -4.985054,3.950749 -4.93443,7.020987 0.0188,1.13641 1.38958,0.274494 3.046299,-1.915355 1.656719,-2.189849 2.506381,-4.487381 1.888131,-5.105632 z M 362.13088,38.958273 c -1.48519,-7.426016 -8.65749,-16.112293 -13.304,-16.112293 -2.59669,0 -2.55414,0.55826 0.28136,3.691448 1.83739,2.030299 4.78332,7.144115 6.54652,11.364037 4.01502,9.609306 8.32736,10.313017 6.47612,1.056808 z M 334.52741,19.411394 c -1.4205,-0.573185 -3.74497,-0.573185 -5.16547,0 -1.4205,0.573187 -0.25828,1.042156 2.58273,1.042156 2.84101,0 4.00324,-0.468969 2.58274,-1.042156 z m -9.34089,-1.946114 c -0.68659,-0.686575 -2.46868,-0.759981 -3.9602,-0.163126 -1.64826,0.659582 -1.15867,1.14918 1.24833,1.248324 2.17809,0.08972 3.39844,-0.398626 2.71187,-1.085204 z m -12.39713,-2.066188 c -0.68659,-0.686576 -2.46868,-0.759981 -3.9602,-0.163126 -1.64826,0.659581 -1.15868,1.149179 1.24833,1.248323 2.17809,0.08972 3.39844,-0.398626 2.71187,-1.085203 z m -10.33094,-2.066189 c -0.6866,-0.686575 -2.46869,-0.759981 -3.96021,-0.163126 -1.64825,0.659582 -1.15867,1.14918 1.24833,1.248324 2.1781,0.08972 3.39845,-0.398626 2.71188,-1.085204 z M 281.32305,8.2433401 C 273.36824,6.0990646 265.46506,4.4133405 263.76046,4.497286 c -4.28588,0.2110648 22.77596,7.614947 27.89354,7.631427 2.27281,0.0073 -2.37612,-1.741098 -10.33095,-3.8853729 z M 259.0685,3.0019608 c -0.68661,-0.6865767 -2.46869,-0.7599811 -3.96021,-0.163119 -1.64826,0.6595809 -1.15868,1.1491776 1.24833,1.2483216 2.17809,0.089718 3.39845,-0.3986248 2.71188,-1.0852026 z"
       id="path74" />
  </g>
</svg>
