<?xml version="1.0" encoding="UTF-8" standalone="no"?>
<svg
   xmlns:dc="http://purl.org/dc/elements/1.1/"
   xmlns:cc="http://creativecommons.org/ns#"
   xmlns:rdf="http://www.w3.org/1999/02/22-rdf-syntax-ns#"
   xmlns:svg="http://www.w3.org/2000/svg"
   xmlns="http://www.w3.org/2000/svg"
   id="svg8"
   version="1.1"
   viewBox="0 0 500 500"
   height="500mm"
   width="500mm">
  <defs
     id="defs2" />
  <metadata
     id="metadata5">
    <rdf:RDF>
      <cc:Work
         rdf:about="">
        <dc:format>image/svg+xml</dc:format>
        <dc:type
           rdf:resource="http://purl.org/dc/dcmitype/StillImage" />
        <dc:title></dc:title>
      </cc:Work>
    </rdf:RDF>
  </metadata>
  <g
     transform="translate(0,203)"
     id="layer1">
    <path
       id="path75"
       d="M 260.18283,292.31445 C 241.49007,286.46957 231.17162,276.63081 203.71639,238.47306 88.711135,78.636763 70.831665,52.583988 68.527495,41.484852 c -3.59917,-17.33712 0.59099,-85.251703 7.05787,-114.39463 3.49508,-15.750557 4.9597,-27.841582 4.69977,-38.798492 -0.41934,-17.67617 3.46798,-30.29418 14.0886,-45.73071 25.469825,-37.01912 80.545535,-54.91639 109.185635,-35.48069 3.73565,2.53508 7.65828,4.60924 8.71698,4.60924 1.05869,0 1.33409,1.53957 0.61203,3.42127 -0.72209,1.8817 -0.67643,2.78481 0.10147,2.00693 1.62199,-1.62201 6.75464,2.08705 6.75464,4.88118 0,1.0249 -1.03369,1.22461 -2.29709,0.44379 -1.46788,-0.9072 -1.75507,-0.54268 -0.79559,1.00978 0.82581,1.3362 2.00097,1.92999 2.61144,1.31952 0.61047,-0.61047 2.08767,-0.32858 3.28267,0.62644 1.27267,1.01708 14.2749,-0.22024 31.38723,-2.98688 16.38827,-2.64958 30.98553,-4.06811 33.24844,-3.23102 4.42128,1.63555 53.67263,66.11292 75.96008,99.443129 16.54305,24.739618 28.42076,47.527937 26.87373,51.559397 -0.60702,1.581869 -0.28758,2.371758 0.70986,1.755308 1.97158,-1.218504 12.35382,24.1086617 18.22483,44.45891 11.93221,41.359817 23.54784,123.612086 23.83473,168.777896 0.12794,20.12439 -0.65846,28.04105 -3.76174,37.87422 -4.90487,15.54183 -14.38631,30.50084 -24.31795,38.36684 -16.64951,13.18666 -54.39177,25.44145 -95.00411,30.84754 -25.93972,3.45292 -38.59576,3.46588 -49.51819,0.0507 z m 36.67529,-5.82309 c 2.09784,-4.60423 1.88477,-4.73507 -9.67886,-5.94371 -12.44819,-1.30109 -20.36063,-4.50789 -31.25798,-12.66841 -4.04189,-3.02678 -6.17198,-6.06126 -5.49436,-7.82711 0.60866,-1.58616 0.25589,-2.35811 -0.78393,-1.71547 -2.50925,1.5508 -10.5906,-14.46462 -9.16864,-18.17017 0.61098,-1.59221 0.27791,-2.38012 -0.74018,-1.75091 -1.01809,0.62921 -3.36419,-4.24871 -5.21356,-10.83984 l -3.3625,-11.98385 h -8.69132 c -9.88642,0 -9.8554,-0.0933 -5.52395,16.62498 4.62774,17.86204 11.9567,31.4901 22.54173,41.91595 11.7302,11.55384 24.87447,16.85095 42.11762,16.97335 11.90063,0.0846 13.3089,-0.34153 15.25593,-4.61481 z m 33.31287,-0.48463 c 28.26576,-5.26762 38.12117,-8.65051 40.51629,-13.90721 2.59059,-5.68571 2.95854,-5.66229 -14.78298,-0.94123 -7.73302,2.05775 -21.16327,4.81816 -29.845,6.13422 -19.88718,3.01466 -23.91633,4.57894 -25.28612,9.81698 -1.2353,4.72386 -2.02663,4.75355 29.39781,-1.10276 z M 298.7061,270.80514 c -0.58104,-2.46221 -2.66942,-18.57851 -4.64084,-35.814 -2.34339,-20.48753 -4.38751,-31.33725 -5.90406,-31.33725 -2.09492,0 -35.31503,6.46917 -45.83652,8.92605 -3.71849,0.86831 -4.2408,2.28093 -3.97934,10.76232 0.16554,5.36956 0.82122,8.92417 1.45706,7.89918 0.63583,-1.02502 2.17172,1.52579 3.41307,5.66848 1.24135,4.14268 4.86758,11.64828 8.05827,16.67912 9.29978,14.66316 21.1719,21.24896 38.8222,21.53577 9.04299,0.14704 9.59845,-0.13172 8.61016,-4.31967 z m 48.37705,-2.67059 c 11.49033,-2.7035 22.06117,-5.64293 23.49076,-6.53205 2.11587,-1.31597 1.78364,-8.2422 -1.7864,-37.24386 -2.41211,-19.59499 -4.57585,-35.8752 -4.80831,-36.17824 -0.61914,-0.80715 -67.06105,13.24395 -68.25074,14.43364 -0.91192,0.9119 4.26555,50.12768 6.98507,66.39841 l 1.11373,6.6634 11.18219,-1.3129 c 6.15022,-0.72211 20.58338,-3.52488 32.0737,-6.2284 z m 41.92059,0.11381 c 20.31286,-10.29332 34.62826,-29.26111 39.43947,-52.25698 2.7694,-13.23683 2.91782,-42.18249 0.21627,-42.18249 -1.11644,0 -1.98966,5.51558 -1.98966,12.56742 0,36.57182 -12.25177,59.95118 -38.72202,73.891 -9.31331,4.90461 -12.90876,8.09942 -12.97885,11.53267 -0.0533,2.60881 3.804,1.6327 14.03479,-3.55164 z m -0.56887,-13.68029 c 11.8391,-6.05089 20.99361,-15.54833 26.07341,-27.05013 6.16043,-13.94862 10.67967,-47.99074 6.68995,-50.39354 -1.32507,-0.79802 -50.2658,8.35831 -51.87956,9.70615 -0.35509,0.2966 1.21177,15.8004 3.48192,34.45291 2.27017,18.6525 4.12756,34.85133 4.12756,35.99738 0,2.91747 0.91087,2.70273 11.50672,-2.71277 z m -172.42684,-10.4742 c -2.3455,-4.03347 -2.91189,-2.74246 -0.99191,2.26094 0.68234,1.77816 1.65976,2.8139 2.17204,2.30162 0.51228,-0.51228 -0.0179,-2.56543 -1.18013,-4.56256 z m -9.44321,-12.08723 c -1.56305,-5.198 -6.17601,-14.09406 -10.25103,-19.76903 -4.07502,-5.67496 -33.78564,-47.19385 -66.02359,-92.2642 C 98.052235,74.903054 71.368745,38.948285 70.993535,40.073919 c -1.70911,5.127331 9.53009,22.241469 71.471305,108.830681 36.41406,50.90412 66.37263,92.55296 66.57462,92.55296 0.20198,0 -0.9116,-4.25291 -2.47464,-9.45092 z m 5.06796,-4.3237 c -1.22389,-5.70678 -2.68639,-9.91485 -3.24999,-9.35123 -0.56361,0.56359 0.0724,5.59814 1.41336,11.18785 3.174,13.23071 4.73352,11.67119 1.83663,-1.83662 z M 196.0925,182.54427 c -3.21729,-16.29478 -6.88699,-35.44665 -8.15489,-42.55971 -1.26791,-7.11306 -3.58355,-14.91587 -5.14587,-17.33958 -3.39862,-5.27246 -3.63844,-7.26437 -0.65241,-5.4189 3.90542,2.41368 -2.17483,-7.27045 -20.87778,-33.252415 C 142.78371,58.304419 140.65721,56.960638 140.29767,70.726206 140.01604,81.508588 136.39111,79.975132 125.28923,64.37722 118.83504,55.309215 117.34994,51.403698 116.62242,41.585111 115.77943,30.208117 114.91768,28.595592 94.985945,1.0984587 83.568765,-14.652303 74.632145,-27.943991 75.126785,-28.438632 c 0.49464,-0.494641 10.04263,11.744214 21.21776,27.1974617 11.175125,15.4532433 20.742915,27.6723033 21.261765,27.1534583 0.6839,-0.683888 -39.468655,-57.712989 -44.102905,-62.639823 -0.32415,-0.344625 -0.6175,1.446075 -0.65187,3.979333 -0.0344,2.533257 -0.69626,18.063992 -1.47086,34.5127417 L 69.972315,31.671358 122.57491,105.2272 c 76.3258,106.72876 77.69918,108.612 78.57105,107.74011 0.43789,-0.43789 -1.83617,-14.12825 -5.05346,-30.42304 z M 160.14493,91.147289 C 150.08644,77.313177 142.23909,65.612067 142.70637,65.144773 c 0.46729,-0.467273 9.10824,10.440239 19.20213,24.238935 10.09388,13.798692 17.94123,25.499822 17.43855,26.002492 -0.50268,0.5027 -9.14364,-10.40482 -19.20212,-24.238911 z m 40.78306,84.823481 c -3.69892,-20.05202 -7.6041,-37.33701 -8.67819,-38.41109 -1.2774,-1.27741 -1.35742,1.04091 -0.23135,6.70241 0.94684,4.76041 4.04054,21.19021 6.87488,36.51064 5.49284,29.69036 6.51424,33.90197 7.88856,32.52765 0.47927,-0.47926 -2.15499,-17.27759 -5.8539,-37.32961 z m 27.69192,33.77847 c 0.63337,-1.02484 -0.62043,-11.99288 -2.78625,-24.37342 -2.16581,-12.38056 -6.27489,-39.96942 -9.13129,-61.30859 C 201.2645,8.7361919 199.60035,0.24960771 187.69467,-23.861845 c -3.16032,-6.400294 -5.26666,-12.412544 -4.68076,-13.360556 0.98321,-1.590872 -8.49392,-17.780378 -10.40841,-17.780378 -1.01265,0 0.67085,3.013637 5.89928,10.560305 2.12858,3.072378 3.49418,5.962116 3.03465,6.421641 -0.45953,0.459528 -5.60248,-6.08331 -11.42878,-14.539638 -5.8263,-8.456328 -22.28813,-30.929276 -36.58185,-49.939879 l -25.9886,-34.56474 -4.22255,5.29559 c -2.32241,2.91258 -7.615115,12.2539 -11.761585,20.75849 l -7.53902,15.462895 22.313305,29.509167 c 26.65036,35.244871 63.42637,90.223011 72.50905,108.397064 7.918,15.843616 9.88715,24.162412 15.01131,63.416244 3.65599,28.0069 11.28113,73.27422 16.22935,96.34699 2.00238,9.33673 2.16044,9.49121 9.71188,9.49121 4.22199,0 8.19458,-0.8385 8.82797,-1.86332 z m 38.87658,-6.9407 c 65.24202,-13.00147 152.10094,-31.21237 152.95779,-32.06922 1.70719,-1.7072 -3.7507,-47.22796 -9.7933,-81.679649 C 404.77716,55.513235 393.06081,-1.6634173 391.80407,-2.9635053 391.29251,-3.4927113 211.88729,32.410579 210.46419,33.32696 c -0.67339,0.433608 7.37579,63.034708 12.67747,98.59699 3.02651,20.30092 5.51015,41.08572 5.5192,46.18841 0.01,5.10272 0.56743,8.38615 1.24086,7.29653 0.67342,-1.08962 1.82955,2.58066 2.56915,8.15618 1.8035,13.59535 3.06081,16.3595 6.90848,15.18808 1.78547,-0.54358 14.43818,-3.21864 28.11714,-5.94461 z M 254.073,185.24948 c -1.085,-1.3679 -2.97845,-9.64989 -4.20763,-18.40442 -1.22919,-8.75453 -6.4179,-41.70347 -11.53045,-73.21988 -8.03525,-49.533328 -8.91204,-57.686067 -6.46682,-60.131287 2.9075,-2.9075 124.54024,-28.8066723 135.28749,-28.8066723 7.88286,0 8.55033,1.9513056 15.65384,45.7623323 16.11853,99.411277 16.62585,103.727597 12.65674,107.680727 -7.38088,7.35118 -69.52593,23.04164 -109.06785,27.53759 -23.49297,2.67116 -29.9409,2.58772 -32.32532,-0.41839 z m 50.23232,-4.75152 c 23.26619,-3.58509 53.34708,-10.74542 75.10992,-17.87885 14.92488,-4.89207 15.41989,-5.25668 15.41957,-11.35736 -8.3e-4,-15.41311 -20.63236,-140.147767 -23.68598,-143.201388 -2.39039,-2.3903855 -0.21047,-2.7602643 -79.77634,13.536339 -30.09371,6.163768 -55.86188,12.326144 -57.26261,13.694179 -2.06643,2.018199 -1.25293,10.155657 4.31308,43.144747 3.77291,22.361583 8.83434,54.087683 11.24761,70.502433 2.41326,16.41475 5.23885,31.47607 6.27905,33.46962 2.15091,4.12219 11.64299,3.74732 48.3557,-1.90972 z m 5.40011,-13.13964 c -3.16965,-3.81923 -6.15545,-26.30672 -4.00346,-30.15211 1.9604,-3.50303 13.60667,-7.14274 22.90677,-7.15888 7.90926,-0.0139 10.12999,3.67305 11.79228,19.57711 1.14214,10.92741 0.87955,12.04405 -3.50283,14.89526 -7.12412,4.63503 -24.22069,6.41972 -27.19276,2.83862 z m 23.22041,-5.8359 c 4.4776,-1.64808 4.66939,-2.38543 3.40921,-13.10754 -0.7344,-6.24869 -1.97408,-11.97385 -2.75485,-12.72259 -0.78074,-0.74873 -6.12013,-0.4183 -11.8653,0.73429 l -10.44575,2.09562 v 8.56032 c 0,4.70819 0.86684,10.8403 1.92632,13.62695 1.68533,4.43272 2.74327,4.90976 8.45608,3.81295 3.59137,-0.68951 8.6648,-2.0395 11.27429,-3 z m -1.37213,-8.60502 c 0.0406,-3.28295 0.48647,-4.38511 0.99093,-2.44922 0.50446,1.93588 0.47129,4.62193 -0.0738,5.969 -0.54503,1.34706 -0.95776,-0.23683 -0.91721,-3.51978 z m -16.14814,-2.15547 c 0.0955,-2.31786 0.56694,-2.78931 1.20208,-1.2021 0.57475,1.43628 0.50408,3.15237 -0.15699,3.81354 -0.66116,0.66114 -1.1314,-0.51401 -1.04501,-2.61144 z m 111.21817,-21.6615 C 421.53889,83.017392 410.77901,28.125732 401.68545,1.8774137 395.28856,-16.587123 390.63419,-26.377095 393.562,-15.209446 c 9.13259,34.834666 26.87529,129.395546 30.05276,160.168176 2.14214,20.74562 3.20576,25.516 5.23637,23.48539 1.21191,-1.21191 0.40243,-15.51003 -2.22739,-39.34369 z M 188.5543,95.217053 C 184.19309,62.596209 183.07402,57.983884 176.00291,43.48572 171.7331,34.731187 159.56953,14.585812 148.97273,-1.2817793 125.53433,-36.378349 83.916325,-92.282065 83.146085,-89.703955 c -1.74472,5.839846 -8.64727,40.013548 -8.64727,42.811599 0,1.827411 14.58577,23.357731 32.412815,47.84515171 C 175.6881,95.424893 185.71861,110.02033 187.09061,117.62156 c 1.32143,7.32104 4.57892,15.38534 5.68638,14.07733 0.31098,-0.36731 -1.58922,-16.78414 -4.22269,-36.481837 z m -50.38614,-27.94071 c 0,-5.180535 -2.18369,-9.941469 -8.23754,-17.959726 -4.53064,-6.000814 -7.81508,-11.333002 -7.29875,-11.84934 0.51633,-0.516319 3.80735,3.055611 7.31337,7.937656 3.50602,4.882045 7.37647,9.495664 8.601,10.252453 2.78226,1.71953 1.23577,-1.016739 -8.00372,-14.161333 -9.26251,-13.177323 -11.04465,-14.973694 -9.37608,-9.450916 0.81309,2.691243 0.50551,4.47675 -0.7712,4.47675 -2.82173,0 -2.55033,9.64087 0.45307,16.094513 3.21064,6.89893 13.95968,21.61349 15.8276,21.666674 0.82073,0.02328 1.49225,-3.129666 1.49225,-7.006731 z m 122.9557,-46.780405 c 27.03275,-5.531313 67.05746,-13.6795952 88.94379,-18.1072993 21.88634,-4.427705 40.10985,-8.351362 40.4967,-8.719229 0.38683,-0.367868 -2.18672,-9.4550647 -5.71906,-20.1937697 -8.09883,-24.62149 -19.19964,-46.385418 -23.65914,-46.385418 -5.99194,0 -48.5533,5.602336 -67.824,8.927648 -36.0859,6.226914 -103.73041,24.480227 -106.33433,28.693444 -0.58609,0.948323 1.63641,7.420965 4.93888,14.383648 3.30248,6.962684 5.41652,10.421051 4.69785,7.685259 -0.71866,-2.735792 -3.04493,-8.418493 -5.16949,-12.628225 -2.12456,-4.209733 -3.3643,-8.1526 -2.75498,-8.761927 2.14968,-2.149678 11.68817,22.646334 16.83768,43.7708179 2.86727,11.7622121 5.47927,21.3872251 5.80444,21.3889161 0.32517,0.0017 22.70892,-4.522532 49.74166,-10.053865 z m -55.93754,-4.24378 c -0.63515,-1.587217 -1.10662,-1.115765 -1.20208,1.202097 -0.0864,2.097427 0.38385,3.272584 1.04501,2.611437 0.66115,-0.661166 0.73182,-2.377253 0.15699,-3.813534 z M 201.20698,0.33482471 c -0.63514,-1.58721701 -1.10661,-1.11576502 -1.20207,1.20209699 -0.0864,2.097427 0.38384,3.272584 1.04501,2.611437 0.66114,-0.661166 0.73182,-2.377253 0.15698,-3.81353399 z m 9.58401,-46.96124571 c 38.60878,-11.865807 96.02764,-23.318275 136.78958,-27.283344 7.38664,-0.718526 13.43025,-1.731949 13.43025,-2.25205 0,-2.100388 -18.10543,-27.659985 -45.26372,-63.899205 -24.15481,-32.23146 -29.50785,-38.30108 -33.77927,-38.30108 -23.81386,0 -170.84881,31.84976 -169.02126,36.61229 0.50154,1.30697 12.14586,17.25605 25.87627,35.44241 13.7304,18.186355 30.10213,40.786394 36.3816,50.222304 6.27947,9.435911 12.37857,16.800117 13.55355,16.364903 1.17498,-0.435216 11.08983,-3.543017 22.033,-6.906228 z m 46.22093,-19.657762 c -7.35642,-3.872331 -4.82864,-7.36795 4.2711,-5.906436 4.14961,0.66647 6.0844,0.456252 4.55964,-0.495415 -1.76872,-1.103931 0.15638,-2.101679 5.79438,-3.003243 5.04184,-0.806223 9.27483,-0.518312 10.50785,0.7147 1.42661,1.426621 1.34615,2.064799 -0.26037,2.064799 -1.27882,0 -1.82416,1.305535 -1.21184,2.901188 1.28546,3.349877 -6.90259,6.121556 -13.21087,4.471907 -2.17258,-0.568143 -3.44839,-0.221137 -2.83514,0.771125 1.51726,2.454992 -1.03162,1.946664 -7.61475,-1.518625 z M 156.8623,-78.290458 c -19.39358,-26.683382 -46.77894,-62.267972 -47.92049,-62.267972 -1.40992,0 1.17863,3.61627 26.34801,36.80883 13.27684,17.509055 26.64973,35.658094 29.71752,40.331184 3.0678,4.67309 6.00278,8.07156 6.52219,7.552154 0.5194,-0.519407 -6.08085,-10.610293 -14.66723,-22.424196 z M 84.811925,-113.1342 c -1.42771,-1.42771 -2.35444,-1.54518 -2.35444,-0.29845 0,1.1308 0.5969,2.65289 1.32645,3.38244 0.72954,0.72954 1.78904,0.86384 2.35443,0.29845 0.5654,-0.5654 -0.0315,-2.08749 -1.32644,-3.38244 z m 2.30754,-10.7339 c -3.58824,-5.50044 -3.68113,-5.52406 -4.3173,-1.09802 -0.77927,5.42174 3.41062,11.29325 6.12316,8.58071 1.15528,-1.15528 0.4703,-3.99356 -1.80586,-7.48269 z m 5.97867,-7.9193 c -1.72681,-2.63544 -3.83623,-4.7917 -4.68761,-4.7917 -3.18368,0 -3.55837,5.6618 -0.64951,9.81477 2.3446,3.34739 3.62008,3.79931 5.74521,2.03561 2.30318,-1.91146 2.23918,-3.01844 -0.40809,-7.05868 z m 6.7982,-2.96213 c 3.248035,-4.28222 -5.47776,-16.97413 -9.14713,-13.30476 -1.27749,1.2775 -2.32272,3.12462 -2.32272,4.10473 0,1.89895 8.15473,13.98967 8.73873,12.9566 0.19028,-0.33659 1.41928,-2.02704 2.73112,-3.75657 z m 7.104985,-9.42692 c 3.05574,-3.37655 2.96577,-4.03615 -1.34824,-9.88345 -3.52354,-4.7759 -5.17469,-5.71324 -6.945205,-3.94272 -3.16918,3.16917 -2.91628,6.72997 0.89061,12.54002 3.836185,5.85478 3.345445,5.76952 7.402835,1.28615 z m 13.96946,-5.50136 c 2.44649,-0.9388 1.69559,-3.01081 -3.92775,-10.83807 -6.8607,-9.54959 -11.08644,-10.99124 -13.53256,-4.61676 -1.33007,3.4661 8.0479,16.61554 11.84993,16.61554 1.42209,0 3.94677,-0.52232 5.61038,-1.16071 z m 15.20771,-5.35686 c 0,-1.14088 -3.66087,-6.92313 -8.13528,-12.84943 -7.79491,-10.32428 -8.29241,-10.63289 -11.89109,-7.37613 -4.0579,3.67235 -4.00525,3.85685 4.56501,15.99808 4.64369,6.57858 6.69647,7.97733 10.60954,7.2293 2.6685,-0.51012 4.85182,-1.86093 4.85182,-3.00182 z m 10.33908,-4.62848 c 2.85441,-1.01506 1.93333,-3.15183 -5.969,-13.8472 -5.13934,-6.95581 -9.84463,-12.68371 -10.45621,-12.72867 -0.61158,-0.045 -2.75621,1.12055 -4.76585,2.59003 -3.4495,2.52234 -3.16951,3.35861 5.00569,14.95104 4.76276,6.75359 9.59344,11.81932 10.73485,11.25717 1.1414,-0.56215 3.59413,-1.56222 5.45052,-2.22237 z m 28.45942,-4.0546 c 5.47158,-1.46252 11.96287,-2.66975 14.42508,-2.68274 2.79335,-0.0147 4.47675,-1.23749 4.47675,-3.25174 0,-2.56378 -0.58174,-2.74532 -2.82675,-0.88212 -1.55472,1.2903 -7.37812,2.38125 -12.94089,2.42434 -5.56277,0.0431 -10.78202,1.13719 -11.59833,2.43133 -0.81631,1.29415 -3.72257,3.45127 -6.45836,4.79361 l -4.97417,2.44061 4.97417,-1.30709 c 2.73579,-0.7189 9.45092,-2.50369 14.9225,-3.9662 z m -14.47669,-2.66996 c -1.03443,-4.40077 -16.48644,-23.91242 -18.91299,-23.88192 -1.33338,0.0168 -3.65958,0.81284 -5.16934,1.76908 -2.16501,1.37127 -0.77717,4.49631 6.5684,14.7902 8.17398,11.4548 9.84863,12.844 13.68818,11.35495 2.40612,-0.93314 4.12771,-2.74768 3.82575,-4.03231 z m 11.1308,-5.06215 c 1.69603,-1.47817 -16.99364,-24.72035 -19.91527,-24.76631 -6.44255,-0.10135 -5.77964,4.01697 2.56043,15.90655 6.91628,9.85984 9.12611,11.74081 12.55736,10.68867 2.29022,-0.70225 4.44909,-1.52526 4.79748,-1.82891 z m 28.21672,2.15868 c 0,-0.48257 -0.89535,-1.43076 -1.98967,-2.10709 -1.09431,-0.67632 -1.98966,-0.28149 -1.98966,0.87741 0,1.1589 0.89535,2.10709 1.98966,2.10709 1.09432,0 1.98967,-0.39483 1.98967,-0.87741 z m -15.18923,-3.59934 c -0.82303,-1.36789 -5.12878,-7.46659 -9.56834,-13.55266 -6.7039,-9.19019 -8.84657,-10.87623 -12.64265,-9.94833 -4.44921,1.08754 -4.32499,1.44786 4.6721,13.55266 6.97276,9.38124 10.44536,12.43542 14.13907,12.43542 3.38863,0 4.43547,-0.7658 3.39982,-2.48709 z m 26.95117,-0.60505 c -0.1542,-1.03512 -3.51933,-6.51682 -7.47795,-12.18157 -5.66731,-8.10988 -8.30732,-10.26799 -12.41783,-10.15112 -2.8712,0.0816 -6.38308,-0.57017 -7.80418,-1.44846 -3.03014,-1.87273 -1.81229,0.45146 5.7408,10.95595 9.36351,13.02235 12.75203,15.97779 17.57813,15.33149 2.56382,-0.34334 4.53528,-1.47117 4.38103,-2.50629 z m -12.64623,-8.9564 c -9.57219,-13.32379 -8.12881,-14.76717 1.65805,-1.65806 4.13192,5.53455 7.10244,10.47295 6.60116,10.97423 -0.50128,0.50128 -4.21793,-3.69099 -8.25921,-9.31617 z m -5.08596,6.36408 c -0.002,-2.30684 -17.91817,-24.16054 -19.80709,-24.16054 -4.43609,0 -3.15827,3.84081 5.11272,15.3676 5.93322,8.26877 9.80246,11.95 11.76768,11.19587 1.61037,-0.61795 2.92738,-1.69927 2.92669,-2.40293 z"
       style="fill:#000000;stroke-width:1.98966658" />
  </g>
</svg>
