<?xml version="1.0" encoding="UTF-8" standalone="no"?>
<svg
   xmlns:dc="http://purl.org/dc/elements/1.1/"
   xmlns:cc="http://creativecommons.org/ns#"
   xmlns:rdf="http://www.w3.org/1999/02/22-rdf-syntax-ns#"
   xmlns:svg="http://www.w3.org/2000/svg"
   xmlns="http://www.w3.org/2000/svg"
   width="500mm"
   height="500mm"
   viewBox="0 0 500 500"
   version="1.1"
   id="svg8">
  <defs
     id="defs2" />
  <metadata
     id="metadata5">
    <rdf:RDF>
      <cc:Work
         rdf:about="">
        <dc:format>image/svg+xml</dc:format>
        <dc:type
           rdf:resource="http://purl.org/dc/dcmitype/StillImage" />
        <dc:title></dc:title>
      </cc:Work>
    </rdf:RDF>
  </metadata>
  <path
     id="path129"
     d="m 200.67423,498.06187 c -14.10725,-1.73664 -42.0603,-7.08883 -52.57868,-10.0673 l -10.71992,-3.03553 V 378.65878 272.3585 l -9.19042,-18.70847 c -10.53993,-21.45559 -15.31227,-41.60519 -15.31227,-64.651 0,-40.82835 16.93816,-80.46227 44.12294,-103.244128 6.61598,-5.544434 25.0292,-23.055985 40.91826,-38.914557 21.83105,-21.789152 31.94842,-30.362468 41.4106,-35.09078 59.34295,-29.654021 125.28323,6.534066 144.38514,79.238725 4.62404,17.59977 4.54232,51.59765 -0.16663,69.30615 -1.92382,7.23479 -6.18349,19.07723 -9.46596,26.31653 l -5.96805,13.16236 -0.0286,108.44825 -0.0286,108.44821 -34.90436,38.79593 c -20.60065,22.89744 -37.11495,39.51425 -40.29873,40.54881 -5.75325,1.86951 -80.18869,3.52283 -92.1747,2.04734 z m 84.22798,-4.13348 9.69897,-1.21383 V 389.69185 286.66916 l -5.6152,4.36823 c -20.63006,16.04883 -37.85684,23.67801 -58.09004,25.72623 -26.73498,2.7064 -56.87807,-8.3271 -77.88065,-28.50723 l -11.55588,-11.10334 v 102.84311 102.84311 l 7.65709,2.14147 c 37.16096,10.3929 94.20312,14.15171 135.78571,8.94765 z m -75.54995,-40.97872 -8.67803,-0.78161 v -64.20214 -64.20213 l 11.74087,0.028 c 6.45747,0.0163 13.80828,0.58193 16.33512,1.2591 l 4.59425,1.2312 v 64.0814 64.0814 l -7.65708,-0.35674 c -4.2114,-0.19622 -11.56221,-0.70845 -16.33513,-1.13836 z m 19.90843,-19.94475 v -17.35607 h -5.87043 c -3.22874,0 -8.74184,-0.57428 -12.25134,-1.27618 l -6.38091,-1.27618 v 17.27098 c 0,9.49906 0.61256,17.88357 1.36126,18.63225 0.74869,0.7487 6.2618,1.36127 12.25135,1.36127 h 10.89007 z m -17.4151,9.85872 c -2.58028,-2.58029 -3.09612,-5.39881 -2.11313,-11.54612 1.62987,-10.19256 2.50443,-11.58489 7.27689,-11.58489 4.77248,0 5.64703,1.39233 7.27689,11.58489 1.26207,7.89253 -2.17563,14.95969 -7.27689,14.95969 -0.96261,0 -3.2863,-1.53612 -5.16376,-3.41357 z m 8.77961,-15.3463 c -1.26204,-3.78612 -5.65774,-4.41408 -5.65774,-0.80824 0,1.77814 1.45485,3.23299 3.23299,3.23299 1.77815,0 2.86929,-1.09115 2.42475,-2.42475 z m 9.66195,-30.75598 c 0.75619,-8.14203 1.06432,-18.01967 0.68469,-21.95032 l -0.6902,-7.14661 -12.76181,-0.60792 -12.76182,-0.60788 v 21.40164 21.40167 l 5.6152,0.85063 c 3.08836,0.46784 8.52306,0.98829 12.07712,1.15657 l 6.46194,0.30593 z m 1.01543,-51.38349 v -17.18186 l -13.27657,-0.68468 -13.27657,-0.6847 0.004,17.86653 0.004,17.86654 h 13.27229 13.27228 z m -20.01053,10.64778 c -1.34764,-1.34764 -2.45026,-5.02305 -2.45026,-8.16755 0,-4.99129 0.77786,-5.7173 6.12567,-5.7173 4.08378,0 6.12568,-1.02095 6.12568,-3.06284 0,-1.68455 -1.37828,-3.06283 -3.06284,-3.06283 -1.68457,0 -3.06284,0.91886 -3.06284,2.04189 0,1.12304 -0.95118,2.04189 -2.11373,2.04189 -1.41236,0 -1.36651,-1.3962 0.13816,-4.20768 1.44063,-2.69187 3.85721,-3.97916 6.70798,-3.57331 3.7707,0.53679 4.55282,2.1506 5.08492,10.49199 0.35188,5.5161 -0.4327,11.13671 -1.78143,12.76182 -2.94328,3.54643 -8.40702,3.75819 -11.71131,0.45392 z m -49.41373,-32.26186 c -3.2694,-3.2694 -3.72101,-5.03012 -2.07772,-8.10063 3.026,-5.65412 5.5257,-6.67655 10.20307,-4.1733 5.35466,2.86573 5.40809,11.44408 0.089,14.29077 -3.21093,1.71843 -4.89178,1.30574 -8.21436,-2.01684 z m 8.16755,-5.10473 c 0,-5.1884 -4.65048,-7.10165 -7.20704,-2.96505 -1.96679,3.18233 0.50434,8.06978 4.08012,8.06978 1.97413,0 3.12692,-1.88195 3.12692,-5.10473 z m 166.25133,128.63909 29.56875,-32.67024 0.10064,-107.12633 c 0.0856,-91.09907 -0.32033,-106.67898 -2.71351,-104.13641 -19.61581,20.84052 -48.07788,54.11996 -53.39621,62.43385 -3.71211,5.80297 -7.7444,11.16585 -8.96063,11.91753 -1.54052,0.95212 -2.2113,33.056 -2.2113,105.83632 0,103.93436 0.0206,104.44902 4.02174,100.44258 2.21197,-2.21487 17.32769,-18.72866 33.59049,-36.6973 z M 242.94295,311.43452 c 12.70639,-2.7486 29.0532,-11.21562 41.3356,-21.41028 46.33266,-38.45706 58.7379,-115.36122 27.66492,-171.50391 -28.47204,-51.443353 -85.93996,-70.362102 -134.59812,-44.310438 -14.64047,7.838534 -35.4403,29.696278 -44.59331,46.861398 -15.48793,29.04531 -20.59844,69.25789 -12.90732,101.56251 10.27551,43.15975 43.67372,80.08447 80.21384,88.68359 10.9051,2.56634 31.30458,2.62207 42.88439,0.1172 z m -43.58257,-38.88593 c -29.93391,-11.51178 -49.73341,-44.76071 -49.73341,-83.5164 0,-38.11757 17.73512,-69.66053 46.96348,-83.52735 9.25054,-4.38875 14.11018,-5.31755 27.56552,-5.26853 13.83579,0.0504 18.00835,0.93157 27.27102,5.75905 34.50404,17.98265 52.20674,62.27908 42.07202,105.27442 -11.42929,48.48736 -54.49893,76.52319 -94.13863,61.27881 z m 49.93373,-6.08743 c 20.49788,-10.24292 35.95904,-31.60742 41.46995,-57.30395 1.29028,-6.01626 1.86936,-19.16982 1.31259,-29.81419 -0.87336,-16.69698 -1.9155,-20.90788 -8.44316,-34.11569 -13.39622,-27.10541 -34.83952,-41.9877 -60.49846,-41.9877 -25.60497,0 -47.10651,14.89089 -60.43124,41.85164 -22.28265,45.08589 -7.27546,101.62865 32.21056,121.36004 10.49945,5.24663 14.92153,6.26522 27.19973,6.26522 12.27319,0 16.70135,-1.01912 27.18003,-6.25537 z m 95.04187,-46.69613 c 24.18654,-27.01119 31.97921,-40.73433 37.29077,-65.6702 6.5599,-30.79637 0.32223,-71.25568 -15.02232,-97.439183 C 356.53155,39.467589 338.33257,22.208024 321.52077,13.899183 306.33907,6.3959844 305.59274,6.2498436 282.45573,6.2498436 c -22.45495,0 -24.28277,0.3259291 -38.06361,6.7873604 -11.95888,5.607176 -18.69516,11.017571 -38.74097,31.115741 l -24.26499,24.328382 11.17545,-4.384978 c 14.94726,-5.864944 43.10223,-6.282432 59.15988,-0.877239 42.85946,14.427005 72.84137,54.4712 79.77081,106.5428 2.59375,19.49086 0.13416,45.20082 -6.0873,63.62932 -1.99399,5.90635 -3.45909,10.73884 -3.25578,10.73884 0.20338,0 10.18734,-10.96426 22.18676,-24.36504 z"
     style="fill:#000000;stroke-width:2.04189038" />
</svg>
