<?xml version="1.0" encoding="UTF-8" standalone="no"?>
<!-- Created with Inkscape (http://www.inkscape.org/) -->

<svg
   xmlns:dc="http://purl.org/dc/elements/1.1/"
   xmlns:cc="http://creativecommons.org/ns#"
   xmlns:rdf="http://www.w3.org/1999/02/22-rdf-syntax-ns#"
   xmlns:svg="http://www.w3.org/2000/svg"
   xmlns="http://www.w3.org/2000/svg"
   xmlns:sodipodi="http://sodipodi.sourceforge.net/DTD/sodipodi-0.dtd"
   xmlns:inkscape="http://www.inkscape.org/namespaces/inkscape"
   width="500"
   height="500"
   viewBox="0 0 132.29166 132.29167"
   version="1.1"
   id="svg8"
   inkscape:version="0.92.4 5da689c313, 2019-01-14"
   sodipodi:docname="icon.svg">
  <defs
     id="defs2" />
  <sodipodi:namedview
     id="base"
     pagecolor="#ffffff"
     bordercolor="#666666"
     borderopacity="1.0"
     inkscape:pageopacity="0.0"
     inkscape:pageshadow="2"
     inkscape:zoom="0.42657054"
     inkscape:cx="322.0882"
     inkscape:cy="275.94377"
     inkscape:document-units="mm"
     inkscape:current-layer="layer1"
     showgrid="false"
     units="px"
     inkscape:window-width="1920"
     inkscape:window-height="1003"
     inkscape:window-x="0"
     inkscape:window-y="0"
     inkscape:window-maximized="1" />
  <metadata
     id="metadata5">
    <rdf:RDF>
      <cc:Work
         rdf:about="">
        <dc:format>image/svg+xml</dc:format>
        <dc:type
           rdf:resource="http://purl.org/dc/dcmitype/StillImage" />
        <dc:title></dc:title>
      </cc:Work>
    </rdf:RDF>
  </metadata>
  <g
     inkscape:label="Layer 1"
     inkscape:groupmode="layer"
     id="layer1"
     transform="translate(0,-164.70832)">
    <path
       style="fill:#000000;stroke:#000000;stroke-width:0.58359808"
       d="m 60.480333,291.08322 v -4.64974 H 35.282873 10.085424 V 272.77485 259.11621 H 5.6905118 1.29561 v -24.09189 -24.0919 l 3.5452832,-7.67676 c 3.0495487,-6.60332 4.1657915,-8.35468 7.9828518,-12.52486 l 4.437559,-4.84811 h 21.609509 21.60952 v -9.29949 -9.29951 h 2.929938 2.929938 v 5.68286 c 0,6.54272 0.733122,8.2664 3.515923,8.2664 2.782801,0 3.515924,-1.72368 3.515924,-8.2664 v -5.68286 h 2.929938 2.929927 v 9.29243 9.29242 l 21.781779,0.15239 21.78179,0.15237 3.39131,7.26524 3.39132,7.26522 0.0244,24.41792 0.0244,24.41793 -4.39491,4.73735 -4.3949,4.73734 v 9.03665 9.03666 l -4.24841,4.66873 -4.2484,4.66874 -16.55415,0.004 -16.554168,0.004 v 4.64974 4.64975 h -2.929938 -2.929937 v -4.64975 -4.64974 H 69.856203 66.34028 v 4.64974 4.64975 h -2.929939 -2.929938 z m 5.27388,-0.5812 v -4.06854 l -2.197451,-10e-4 -2.197451,-10e-4 0.194588,4.06985 0.194577,4.06983 h 2.002874 2.002863 v -4.06853 z m 12.891723,0 v -4.06854 l -2.197451,-10e-4 -2.19745,-10e-4 0.194576,4.06985 0.194588,4.06983 h 2.002874 2.002863 v -4.06853 z m 32.815304,-7.26524 v -2.03426 H 61.359311 11.257395 v 2.03426 2.03427 h 50.101916 50.101929 z m 8.78468,-15.54759 0.005,-8.57298 h -3.80892 -3.80892 l 0.0271,12.64151 0.0271,12.6415 3.77668,-4.06854 3.77667,-4.06852 0.005,-8.57297 z m -8.65084,1.74365 0.15916,-11.18845 4.2484,-0.17077 4.24841,-0.17078 v -3.75244 -3.75246 H 61.359311 2.4675811 v 3.75246 3.75244 l 4.2484105,0.17078 4.2484104,0.17077 0.159143,11.18845 0.159153,11.18846 h 50.076613 50.076619 z m -89.20393,-3.63262 v -11.33375 h 38.968161 38.968159 v 11.33375 11.33377 H 61.359311 22.39115 Z m 19.337585,0 v -10.17131 h -4.394902 -4.394912 v 10.17131 10.17134 h 4.394912 4.394902 z m 19.251758,-0.004 0.207167,-10.16725 h -4.74857 -4.74857 v 10.17131 10.17134 l 4.541402,-0.004 4.541404,-0.004 0.207167,-10.16753 z m 19.423409,0.004 v -10.17131 h -4.687904 -4.687895 v 10.17131 10.17134 h 4.687895 4.687904 z m 18.751588,0 v -10.17131 h -4.394901 -4.394901 v 10.17131 10.17134 h 4.394901 4.394901 z m 29.27225,-20.0251 0.0271,-3.75101 -3.78105,4.0416 -3.78105,4.04162 -0.0227,3.77792 -0.0227,3.77792 3.77666,-4.06854 3.77668,-4.06852 0.0271,-3.75099 z m -105.908691,-3.36894 0.165094,-6.8293 h 38.675168 38.675169 l 0.1651,6.8293 0.16508,6.82932 h 9.9432 9.94319 V 230.05529 210.87508 H 61.359311 2.4675811 v 19.18021 19.18021 h 9.9431909 9.943193 z m -13.0196209,2.76079 c 0,-0.63934 -0.2959738,-1.16243 -0.6577355,-1.16243 -0.4544405,0 -0.432262,-0.26949 0.071709,-0.87183 1.1736814,-1.40269 1.7579664,-1.01634 1.7579664,1.16243 0,1.11884 -0.263694,2.03428 -0.585985,2.03428 -0.3223014,0 -0.5859959,-0.52311 -0.5859959,-1.16245 z m 0.058904,-5.68015 c -0.062592,-2.02339 3.2739669,-10.59397 4.1242919,-10.59397 0.712614,0 0.701786,0.0373 -1.291407,4.44358 -0.987884,2.18389 -2.016171,4.88914 -2.28509,6.01166 l -0.4889321,2.04096 z m 0.1286972,-14.66249 c 0,-2.07786 0.1063547,-2.92789 0.2363426,-1.88896 0.1299881,1.03893 0.1299881,2.73899 0,3.77791 -0.1299879,1.03893 -0.2363426,0.18891 -0.2363426,-1.88895 z m 70.5147367,2.42441 c -1.288191,-1.41187 -1.226727,-3.17607 0.153846,-4.41531 1.519964,-1.36435 3.631518,-0.95537 4.681789,0.90679 0.773934,1.3722 0.759336,1.68936 -0.140427,3.0514 -1.184725,1.79341 -3.289026,1.99828 -4.695208,0.45712 z m 4.304087,-2.13381 c 0,-1.71012 -1.651818,-2.75526 -3.09156,-1.9561 -2.364359,1.3124 -0.336879,5.18818 2.050949,3.92063 0.57234,-0.3038 1.040611,-1.18785 1.040611,-1.96453 z m 2.929938,0 c 0,-2.03037 1.306496,-2.90393 1.955863,-1.30774 0.236444,0.58122 0.304814,0.58122 0.341816,0 0.05706,-0.8962 1.804229,-0.97669 1.804229,-0.0831 0,0.35387 0.387096,0.49607 0.860211,0.31599 0.473127,-0.18008 1.000771,-0.10185 1.172566,0.17386 0.385231,0.61825 2.655128,0.0883 2.655128,-0.61983 0,-0.28238 0.263695,-0.51343 0.585986,-0.51343 0.32229,0 0.585985,0.42435 0.585985,0.94299 0,0.70165 0.192508,0.78453 0.752135,0.32386 1.018268,-0.8382 2.34361,0.0649 2.08139,1.41828 -0.18397,0.94952 -0.824064,1.10668 -4.882026,1.19868 -3.06054,0.0693 -4.822144,-0.13093 -5.110844,-0.58121 -0.331388,-0.51687 -0.442772,-0.5071 -0.449524,0.0394 -0.0051,0.39958 -0.536352,0.72652 -1.180944,0.72652 -0.948742,0 -1.171971,-0.38749 -1.171971,-2.03427 z m 5.674179,0.18164 c -0.187058,-0.46365 -0.325916,-0.32594 -0.354027,0.35116 -0.02541,0.61269 0.113044,0.95598 0.307765,0.76284 0.194721,-0.19314 0.215537,-0.69444 0.04621,-1.114 z m 2.929939,0 c -0.187058,-0.46365 -0.325918,-0.32594 -0.354039,0.35116 -0.02541,0.61269 0.113056,0.95598 0.307776,0.76284 0.194721,-0.19314 0.215537,-0.69444 0.0462,-1.114 z M 8.327498,218.72154 c 0,-1.11886 0.2636945,-2.03427 0.5859855,-2.03427 0.322291,0 0.5859856,0.65386 0.5859856,1.45304 0,0.90413 0.3320639,1.45305 0.8789889,1.45305 0.483431,0 0.878978,0.26155 0.878978,0.58122 0,0.31967 -0.659242,0.58122 -1.4649742,0.58122 -1.2835913,0 -1.4649638,-0.25187 -1.4649638,-2.03426 z m 33.401278,24.12055 v -6.39339 h -9.082807 -9.082796 v 6.39339 6.39341 h 9.082796 9.082807 z m -9.3758,4.9888 c 0,-0.45285 -0.288035,-0.91862 -0.640085,-1.03502 -0.441655,-0.14602 -0.383735,-0.83475 0.186823,-2.22167 l 0.826917,-2.01004 0.647748,1.84298 c 0.672712,1.91405 0.395977,4.24715 -0.503756,4.24715 -0.284705,0 -0.517647,-0.37053 -0.517647,-0.8234 z m -1.171971,-8.18549 c 0,-1.11885 0.263695,-2.03427 0.585986,-2.03427 0.322291,0 0.585985,0.65388 0.585985,1.45305 0,0.90412 0.332064,1.45304 0.878989,1.45304 0.483432,0 0.878979,0.26155 0.878979,0.58122 0,0.31968 -0.659242,0.58122 -1.464975,0.58122 -1.283591,0 -1.464964,-0.25185 -1.464964,-2.03426 z m 29.885355,3.19669 v -6.39339 h -9.082807 -9.082806 v 6.39339 6.39341 h 9.082806 9.082807 z m -9.595383,5.23097 c -0.4045,-1.00049 -0.593914,-2.73854 -0.459245,-4.21383 0.110299,-1.20833 1.264814,-1.38518 1.264814,-0.19374 0,0.45285 0.225546,0.91057 0.501215,1.01713 0.27566,0.10651 0.173721,1.10916 -0.226549,2.22801 -0.500426,1.3988 -0.837868,1.76193 -1.080235,1.16243 z m 0.219584,-7.50741 c 0,-0.61269 -0.329616,-1.24665 -0.732487,-1.40879 -0.551217,-0.22185 -0.514974,-0.44738 0.146501,-0.91136 1.432439,-1.00479 1.757957,-0.74557 1.757957,1.3999 0,1.11884 -0.263695,2.03426 -0.585986,2.03426 -0.322291,0 -0.585985,-0.5013 -0.585985,-1.11401 z m 28.237338,2.27526 0.183052,-6.39458 -9.229308,0.001 -9.229298,0.001 v 6.39341 6.39341 h 9.046256 9.046234 z M 69.270178,239.6454 c 0,-2.19762 0.75446,-2.64611 1.711027,-1.01714 0.568847,0.9687 0.598135,0.9687 0.61511,0 0.01025,-0.55942 0.28151,-1.01713 0.6038,-1.01713 0.322291,0 0.585986,0.91542 0.585986,2.03427 0,2.03038 -1.306497,2.90393 -1.955853,1.30775 -0.236455,-0.58123 -0.304814,-0.58123 -0.341826,0 -0.109818,1.72461 -1.218244,0.53475 -1.218244,-1.30775 z m 29.885354,3.19669 v -6.39339 h -9.082797 -9.082806 v 6.39339 6.39341 h 9.082806 9.082797 z m -9.463694,4.64976 c -0.04835,-0.63935 -0.114263,-1.46758 -0.146491,-1.84054 -0.03227,-0.37294 0.271019,-0.78706 0.67388,-0.92025 0.49514,-0.16371 0.732487,0.43269 0.732487,1.84053 0,2.16131 -1.104995,2.96845 -1.259876,0.92026 z m -0.966873,-7.84645 c 0,-1.73095 0.199504,-2.03427 1.338049,-2.03427 0.993692,0 1.417175,0.41051 1.645476,1.59504 0.389523,2.0211 0.09476,2.47349 -1.611742,2.47349 -1.177093,0 -1.371783,-0.28871 -1.371783,-2.03426 z m 1.640763,0.87182 c 0,-0.31966 -0.279265,-0.58122 -0.620569,-0.58122 -0.341315,0 -0.457606,0.26156 -0.258409,0.58122 0.199187,0.31968 0.478443,0.58122 0.62057,0.58122 0.142127,0 0.258408,-0.26154 0.258408,-0.58122 z m 38.061322,-18.86267 0.0278,-19.1533 -3.78105,4.04162 -3.78105,4.0416 -0.0278,19.15329 -0.0278,19.15329 3.78105,-4.04161 3.78105,-4.0416 z m -10.30426,-15.28391 c -0.84014,-1.8381 -2.19848,-4.8459 -3.01848,-6.68401 l -1.49097,-3.34201 H 61.359199 9.105049 l -2.8792192,6.19141 c -1.5835706,3.40528 -2.9671241,6.41309 -3.0745545,6.68401 -0.1074303,0.27093 26.0609077,0.49261 58.1518567,0.49261 h 58.347188 z m 6.7374,-1.34486 3.73014,-4.09435 -3.1792,-6.88351 -3.17918,-6.88348 -3.77388,4.27388 c -2.07563,2.35062 -3.69833,4.61234 -3.60604,5.02601 0.30107,1.34928 5.62509,12.66725 5.956,12.66146 0.17712,-0.003 2.0006,-1.8481 4.05216,-4.10001 z m -9.26104,-12.02317 c 1.1175,-1.19876 2.80252,-3.0296 3.74449,-4.06852 l 1.7127,-1.88897 -51.823021,0.005 -51.823014,0.005 -3.701374,4.06288 -3.701363,4.06291 h 51.779898 51.779914 z m -36.953173,-15.8382 v -8.71828 h -2.050949 -2.050961 v 3.99588 c 0,7.17536 -1.308402,9.95337 -4.687894,9.95337 -3.220144,0 -4.101919,-1.77275 -4.101919,-8.24666 v -5.70259 h -2.021589 -2.02159 l -0.175862,8.71916 -0.17586,8.71914 8.643312,-8.7e-4 8.643312,-8.7e-4 z"
       id="path4156"
       inkscape:connector-curvature="0" />
  </g>
</svg>
