<?xml version="1.0" encoding="UTF-8" standalone="no"?>
<svg
   xmlns:dc="http://purl.org/dc/elements/1.1/"
   xmlns:cc="http://creativecommons.org/ns#"
   xmlns:rdf="http://www.w3.org/1999/02/22-rdf-syntax-ns#"
   xmlns:svg="http://www.w3.org/2000/svg"
   xmlns="http://www.w3.org/2000/svg"
   id="svg8"
   version="1.1"
   viewBox="0 0 500 500"
   height="500mm"
   width="500mm">
  <defs
     id="defs2" />
  <metadata
     id="metadata5">
    <rdf:RDF>
      <cc:Work
         rdf:about="">
        <dc:format>image/svg+xml</dc:format>
        <dc:type
           rdf:resource="http://purl.org/dc/dcmitype/StillImage" />
        <dc:title></dc:title>
      </cc:Work>
    </rdf:RDF>
  </metadata>
  <g
     transform="translate(0,203)"
     id="layer1">
    <path
       id="path6605"
       d="M 56.229418,235.75931 V 195.38298 H 36.041257 15.853095 v -22.98092 c 0,-21.28309 -0.298301,-23.05894 -4.037632,-24.0368 -4.9344578,-1.29038 -5.6124513,-11.74539 -1.009408,-15.56558 2.641063,-2.19188 3.028224,-21.32344 3.028224,-149.639582 0,-129.433128 -0.364171,-147.126378 -3.028224,-147.126378 -4.3606073,0 -3.8810207,-10.71534 0.663668,-14.82823 3.3915,-3.06927 23.102765,-3.34112 242.257937,-3.34112 H 492.2937 V -20.982248 140.17113 l -4.54234,4.15508 c -3.4166,3.12535 -10.5462,5.0374 -28.76813,7.71518 -13.32418,1.95803 -25.6819,4.10758 -27.46161,4.77677 -1.77971,0.66921 -9.27456,8.34184 -16.65523,17.05033 l -13.41942,15.83358 v 36.08067 36.08069 l -6.26557,7.13609 -6.26558,7.13611 H 222.57262 56.229418 Z M 387.31526,272.098 c 0,-2.78862 -322.296534,-2.78862 -324.019985,0 -0.827854,1.3395 53.477665,2.01881 161.386135,2.01881 107.07669,0 162.63385,-0.68964 162.63385,-2.01881 z M 64.304683,231.30624 c 0,-28.10963 -0.567211,-36.07103 -2.523521,-35.42023 -1.872918,0.62307 -2.665394,10.62907 -3.073817,38.81078 -0.490025,33.81236 -0.213629,37.69186 2.52352,35.42023 2.543766,-2.11114 3.073818,-8.80372 3.073818,-38.81078 z m 335.123477,-4.13837 v -33.2438 l -5.04704,0.96481 -5.04704,0.96479 v 38.27705 38.27706 l 5.04704,-5.99806 c 4.93635,-5.86651 5.04704,-6.72718 5.04704,-39.24185 z m -12.1129,11.50051 c 0,-18.41701 -0.72914,-28.94134 -1.9527,-28.18514 -1.07397,0.66375 -1.41465,3.89701 -0.75706,7.185 1.02493,5.12461 0.58312,5.97817 -3.09433,5.97817 -2.46745,0 -4.28999,-1.28649 -4.28999,-3.02823 0,-1.66552 -1.3627,-3.02821 -3.02822,-3.02821 -1.66553,0 -3.02823,1.36269 -3.02823,3.02821 0,1.66553 -1.26552,3.02823 -2.81223,3.02823 -1.54674,0 -3.33515,-1.3627 -3.97429,-3.02823 -0.63911,-1.66552 -2.45604,-3.02821 -4.03762,-3.02821 -1.58157,0 -3.3985,1.36269 -4.03763,3.02821 -0.63912,1.66553 -2.45606,3.02823 -4.03764,3.02823 -1.58156,0 -3.39849,-1.3627 -4.03763,-3.02823 -0.63912,-1.66552 -2.09901,-3.02821 -3.24422,-3.02821 -1.14519,0 -2.08216,1.36269 -2.08216,3.02821 0,1.68235 -1.79451,3.02823 -4.03764,3.02823 -2.22069,0 -3.81051,-1.11402 -3.53292,-2.4756 0.27759,-1.36156 -1.53935,-2.78746 -4.03764,-3.16862 -3.07558,-0.46926 -4.54234,0.33013 -4.54234,2.47559 0,4.03897 -5.24882,4.14758 -6.78651,0.1403 -0.63912,-1.66552 -2.099,-3.02822 -3.24422,-3.02822 -1.14519,0 -2.08216,1.3627 -2.08216,3.02822 0,1.68235 -1.7945,3.02823 -4.03763,3.02823 -2.24313,0 -4.03764,-1.34588 -4.03764,-3.02823 0,-1.68233 -1.7945,-3.02822 -4.03763,-3.02822 -2.24312,0 -4.03763,1.34589 -4.03763,3.02822 0,1.68235 -1.79451,3.02823 -4.03763,3.02823 -2.24313,0 -4.03763,-1.34588 -4.03763,-3.02823 0,-1.66552 -0.90847,-3.02822 -2.01882,-3.02822 -1.11035,0 -2.01882,1.3627 -2.01882,3.02822 0,1.66552 -1.71974,3.02823 -3.82163,3.02823 -2.10191,0 -4.34456,-1.36271 -4.98369,-3.02823 -0.63912,-1.66552 -3.00748,-3.02822 -5.26304,-3.02822 -3.5753,1.1e-4 -4.10098,-1.2938 -4.10098,-10.09397 0,-5.55175 -0.7076,-10.09408 -1.57244,-10.09408 -0.86484,0 -7.42498,5.90502 -14.57809,13.12229 l -13.00566,13.12231 h -84.3439 -84.343889 v -14.25086 c 0,-8.98648 -0.745764,-13.78995 -2.018816,-13.00316 -1.221018,0.75463 -2.018816,15.16208 -2.018816,36.45784 v 35.21014 H 226.81938 387.31526 Z m -276.57781,17.27909 c 0,-3.33105 1.05987,-6.05645 2.35529,-6.05645 1.29541,0 1.75541,0.59987 1.02225,1.33305 -0.73317,0.73315 0.47811,2.60161 2.69175,4.15209 2.21364,1.55049 4.02479,3.78726 4.02479,4.97061 0,1.3621 -1.11112,1.22938 -3.02823,-0.36167 -2.09222,-1.73639 -3.02821,-1.81279 -3.02821,-0.24719 0,1.2463 -0.90848,2.26601 -2.01883,2.26601 -1.11034,0 -2.01881,-2.7254 -2.01881,-6.05645 z m 15.64722,0.96122 c -0.53571,-2.80236 -0.18739,-5.58138 0.77405,-6.17558 0.96144,-0.59422 1.74807,1.69863 1.74807,5.0952 0,7.49472 -1.19786,8.00785 -2.52212,1.08038 z m 18.67266,-0.96122 c 0,-3.33105 0.90846,-6.05645 2.01881,-6.05645 1.11035,0 2.01881,1.0197 2.01881,2.266 0,1.62136 0.81632,1.58854 2.8694,-0.11548 2.34272,-1.94428 2.681,-1.66092 1.84294,1.54379 -1.24078,4.74475 2.80064,7.76949 6.04548,4.52466 1.76177,-1.76178 1.66622,-2.74146 -0.39144,-4.01315 -2.05569,-1.27048 -2.13206,-2.04712 -0.31193,-3.17202 3.78491,-2.33921 7.22111,2.24385 4.31121,5.75006 -1.89477,2.28309 -1.85422,3.145 0.1865,3.96383 1.43428,0.57548 -0.26904,1.11807 -3.78514,1.20572 -3.5161,0.0876 -6.92285,-0.9762 -7.57056,-2.36413 -0.94211,-2.01882 -1.41317,-2.01882 -2.35528,0 -2.14517,4.5969 -4.8788,2.61737 -4.8788,-3.53283 z m 34.38169,0 c 0,-4.71993 0.57622,-6.15647 1.73556,-4.32681 1.20986,1.90942 2.15382,2.06229 3.11646,0.5047 0.75949,-1.22889 2.34698,-2.23434 3.52776,-2.23434 1.35379,0 1.21847,1.11865 -0.36634,3.02823 -2.00506,2.41596 -2.00506,3.64049 0,6.05644 1.51733,1.82828 1.68195,3.02823 0.41543,3.02823 -1.15378,0 -2.55855,-1.13558 -3.12173,-2.52352 -0.77056,-1.89907 -1.5539,-1.77416 -3.16554,0.5047 -1.67846,2.37337 -2.1416,1.5002 -2.1416,-4.03763 z m 12.05107,3.91848 c 0,-1.17588 0.90847,-1.57649 2.01882,-0.89026 1.11035,0.68624 2.01882,0.33923 2.01882,-0.77113 0,-1.11035 -0.90847,-2.58026 -2.01882,-3.2665 -2.92667,-1.80878 -2.47613,-5.04704 0.70219,-5.04704 1.63918,0 2.78945,2.4079 2.8932,6.05645 0.1135,3.9921 -0.81395,6.05645 -2.72101,6.05645 -1.59125,0 -2.8932,-0.96209 -2.8932,-2.13797 z m 22.26882,-3.91848 c 0,-4.71993 0.57621,-6.15647 1.73553,-4.32681 1.20989,1.90942 2.15384,2.06229 3.11647,0.5047 0.7595,-1.22889 2.347,-2.23434 3.52776,-2.23434 1.32757,0 1.16068,1.18829 -0.43733,3.11378 -1.68375,2.02879 -1.89636,3.80165 -0.61017,5.08784 1.28618,1.28619 2.92286,0.20108 4.69697,-3.11378 3.61066,-6.7466 6.07828,-6.44009 6.07828,0.75504 0,5.09269 -0.71283,5.80874 -5.55174,5.57683 -3.05347,-0.14636 -6.2331,-1.1858 -7.06586,-2.30994 -0.96168,-1.29819 -2.23942,-0.93904 -3.50202,0.98431 -1.50281,2.28928 -1.98789,1.30401 -1.98789,-4.03763 z m -96.96501,-4.03764 c 0,-1.11035 0.96208,-2.01881 2.13796,-2.01881 1.17588,0 1.5765,0.90846 0.89027,2.01881 -0.68624,1.11036 -1.64832,2.01882 -2.13797,2.01882 -0.48964,0 -0.89026,-0.90846 -0.89026,-2.01882 z m -38.960654,-1.27608 c -2.165754,-2.16575 -1.683144,-10.83681 0.60315,-10.83681 1.110349,0 2.018816,2.27117 2.018816,5.04704 0,6.562 3.50847,6.54317 4.65416,-0.0251 0.814341,-4.66855 0.865156,-4.62976 0.638798,0.48745 -0.23674,5.352 -4.811254,8.43096 -7.914924,5.3273 z m 10.69723,-4.92077 c 0,-5.27164 0.678191,-6.10054 4.542336,-5.55174 3.252324,0.4619 4.723753,2.22178 5.181135,6.19685 0.550027,4.78023 -0.08119,5.55174 -4.542336,5.55174 -4.437028,0 -5.181135,-0.88997 -5.181135,-6.19685 z m 7.528502,2.95833 c -0.670835,-0.67084 -2.412064,-0.74254 -3.869397,-0.15928 -1.610477,0.64444 -1.132105,1.12282 1.219702,1.21969 2.128167,0.0876 3.32053,-0.3895 2.649695,-1.06033 z m 0,-6.05645 c -0.670835,-0.67083 -2.412064,-0.74253 -3.869397,-0.15928 -1.610477,0.64444 -1.132105,1.12283 1.219702,1.21968 2.128167,0.0876 3.32053,-0.38948 2.649695,-1.06032 z m 175.615812,6.03527 c -2.10462,-2.10462 -1.78228,-10.872 0.39972,-10.872 1.01781,0 2.3088,1.13557 2.86884,2.52352 0.81461,2.01881 1.05013,2.01881 1.17764,0 0.0876,-1.38795 1.03935,-2.52352 2.11484,-2.52352 1.07549,0 1.4281,1.37426 0.78355,3.05392 -0.64454,1.67967 -0.0505,4.40507 1.31996,6.05645 1.44578,1.74207 1.63127,3.00252 0.44184,3.00252 -1.12751,0 -2.69895,-1.58982 -3.49211,-3.53293 -1.36141,-3.33531 -1.51818,-3.32943 -2.80274,0.10498 -0.74837,2.00084 -2.01357,2.98502 -2.81154,2.18704 z m 14.69966,-2.67759 c 0,-2.28623 -0.068,-4.81542 -0.15141,-5.62043 -0.0834,-0.80499 0.8252,-1.78917 2.01882,-2.18704 2.73874,-0.91293 2.87923,9.03065 0.15141,10.71654 -1.11035,0.68624 -2.01882,-0.62284 -2.01882,-2.90907 z m 13.56376,2.67759 c -2.10461,-2.10462 -1.78227,-10.872 0.39973,-10.872 1.0178,0 2.3088,1.13557 2.86884,2.52352 0.81461,2.01881 1.05012,2.01881 1.17764,0 0.28081,-4.44613 3.51447,-2.69353 3.3479,1.81448 -0.21915,5.93058 3.3275,6.69763 6.61655,1.43101 2.38901,-3.82539 2.3154,-4.18509 -0.62535,-3.05662 -1.95422,0.74991 -2.82275,0.45343 -2.09957,-0.7167 1.79878,-2.9105 7.05156,-2.44213 7.05156,0.62877 0,1.44345 -1.13558,3.8479 -2.52352,5.34319 -2.01882,2.17502 -2.01882,2.4338 0,1.29404 1.38794,-0.7836 2.52352,-0.46264 2.52352,0.71324 0,3.69354 -11.54696,2.4661 -13.12301,-1.39497 -1.36141,-3.33531 -1.51819,-3.32943 -2.80274,0.10498 -0.74837,2.00084 -2.01357,2.98502 -2.81155,2.18704 z m 29.22495,-4.81556 c -0.0412,-3.88622 0.39605,-5.89236 0.97153,-4.45807 0.85511,2.13116 1.63476,2.13116 4.26579,0 2.33379,-1.8904 2.80946,-1.92504 1.72913,-0.12598 -0.81966,1.36501 -0.40762,4.54465 0.91564,7.06587 2.36564,4.50728 2.33635,4.52233 -1.74808,0.89875 -4.02164,-3.56786 -4.18438,-3.56786 -5.10661,0 -0.52393,2.02693 -0.98626,0.50567 -1.0274,-3.38055 z m 11.71933,4.08673 c 0,-1.26842 0.96923,-1.70719 2.15383,-0.97504 2.73752,1.69187 1.64697,-5.57231 -1.14443,-7.62312 -1.1299,-0.83011 -0.40416,-1.49681 1.64821,-1.51411 2.79381,-0.0236 3.51492,1.25403 3.02822,5.36515 -0.61633,5.20622 -5.68583,9.43877 -5.68583,4.74712 z m 16.54409,-4.08673 c -0.0411,-3.88622 0.39606,-5.89236 0.97154,-4.45807 0.85511,2.13116 1.63476,2.13116 4.26578,0 2.33379,-1.8904 2.80947,-1.92504 1.72913,-0.12598 -0.81965,1.36501 -0.40761,4.54465 0.91564,7.06587 2.36565,4.50728 2.33635,4.52233 -1.74807,0.89875 -4.02165,-3.56786 -4.18438,-3.56786 -5.10662,0 -0.52392,2.02693 -0.98625,0.50567 -1.0274,-3.38055 z m 13.32658,3.64057 c -3.03651,-2.32268 -3.09812,-3.08727 -0.52557,-6.52142 3.5996,-4.80516 5.49005,-3.24545 4.62196,3.81334 -0.57621,4.68555 -1.07774,5.0171 -4.09639,2.70808 z m -257.00178,-3.61746 c 0.70728,-1.14438 -0.10308,-1.48281 -1.89967,-0.7934 -2.5628,0.98344 -3.07427,-0.39874 -2.80999,-7.59368 0.2728,-7.42703 0.44981,-7.77483 1.13732,-2.23482 0.49388,3.97982 1.95529,6.56116 3.71454,6.56116 1.59518,0 2.90032,1.3627 2.90032,3.02823 0,1.66552 -0.96209,3.02822 -2.13797,3.02822 -1.17587,0 -1.58292,-0.89807 -0.90455,-1.99571 z m 12.40654,-1.03251 c -0.78234,-2.03877 0.0947,-3.02823 2.68433,-3.02823 2.82658,0 4.06223,-1.73954 4.66059,-6.56116 0.68751,-5.54001 0.86451,-5.19221 1.13731,2.23482 0.26428,7.19494 -0.24718,8.57712 -2.80998,7.59368 -1.7966,-0.68941 -2.60695,-0.35098 -1.89967,0.7934 0.67837,1.09764 0.36851,1.99571 -0.68857,1.99571 -1.05709,0 -2.44489,-1.3627 -3.08401,-3.02822 z m 18.26852,1.72441 c -0.76336,-0.76337 -1.24255,-5.09752 -1.06485,-9.63145 0.29196,-7.44926 0.40154,-7.61134 1.13733,-1.68235 0.51717,4.16746 1.93372,6.56116 3.88277,6.56116 1.6877,0 2.70895,1.07879 2.26944,2.39734 -0.98339,2.95018 -4.35431,4.22567 -6.22469,2.3553 z m 13.02483,-2.80099 c -5.47995,-4.56525 -5.4431,-4.59009 3.15365,-2.12456 6.3268,1.81449 6.44956,1.72007 7.21786,-5.55175 l 0.7816,-7.39765 0.33936,8.36398 c 0.24297,5.98795 -0.56778,8.71208 -2.85396,9.58938 -3.92988,1.50803 -2.99994,1.818 -8.63851,-2.8794 z m 20.41182,2.75891 c -1.52446,-0.60978 -2.4101,-4.33962 -2.23704,-9.42113 l 0.28648,-8.41174 1.22763,7.06586 c 0.67519,3.88622 2.36321,7.06586 3.75115,7.06586 2.79887,0 3.79536,3.71157 1.16082,4.32364 -0.91604,0.2128 -2.80111,-0.0672 -4.18904,-0.62249 z m 14.82332,-1.92324 c -1.00063,-2.60763 -0.22733,-3.07278 3.82164,-2.29877 2.79187,0.5337 5.07613,0.0366 5.07613,-1.10498 0,-1.14144 0.5837,-1.49164 1.29708,-0.77823 1.73929,1.73927 -3.14787,7.45111 -6.37533,7.45111 -1.41077,0 -3.12956,-1.47111 -3.81952,-3.26913 z m 22.00577,1.27342 c 0.70728,-1.14438 -0.10316,-1.48281 -1.89966,-0.7934 -2.56281,0.98344 -3.07427,-0.39874 -2.80998,-7.59368 0.2728,-7.42703 0.44979,-7.77483 1.13731,-2.23482 0.49388,3.97982 1.95528,6.56116 3.71454,6.56116 1.59517,0 2.90031,1.3627 2.90031,3.02823 0,1.66552 -0.96209,3.02822 -2.13796,3.02822 -1.17588,0 -1.58291,-0.89807 -0.90456,-1.99571 z m 13.1366,0.34317 c 0,-0.90891 -2.95251,-3.21273 -6.56114,-5.1196 -3.60864,-1.9069 -4.74423,-2.8517 -2.52352,-2.09956 2.22069,0.7521 6.47137,1.78687 9.44594,2.29944 4.85991,0.83747 5.49246,0.24558 6.23807,-5.83726 0.732,-5.97176 0.86782,-5.733 1.15283,2.02673 0.26428,7.19494 -0.24719,8.57712 -2.80999,7.59368 -1.79659,-0.68941 -2.60693,-0.35098 -1.89967,0.7934 0.67837,1.09764 0.27133,1.99571 -0.90454,1.99571 -1.17589,0 -2.13798,-0.74365 -2.13798,-1.65254 z M 116.7939,237.77813 c -1.66552,-1.07635 -2.11975,-1.95698 -1.00941,-1.95698 1.11035,0 3.38152,0.88063 5.04704,1.95698 1.66552,1.07635 2.11976,1.95698 1.00941,1.95698 -1.11035,0 -3.38152,-0.88063 -5.04704,-1.95698 z m -38.038743,-6.05646 c 0,-2.77587 0.458216,-3.91145 1.018262,-2.52352 0.560044,1.38795 0.560044,3.65911 0,5.04704 -0.560046,1.38795 -1.018262,0.25236 -1.018262,-2.52352 z m 15.831767,0 c 0,-1.11035 1.416317,-2.01881 3.147369,-2.01881 1.731051,0 2.585897,0.90846 1.899671,2.01881 -0.68623,1.11036 -2.102548,2.01882 -3.147368,2.01882 -1.04482,0 -1.899672,-0.90846 -1.899672,-2.01882 z m 9.744716,-17.15993 c 0.53289,-4.88968 0.1634,-5.5703 -1.91787,-3.53293 -3.636266,3.55952 -9.304114,3.1327 -11.543756,-0.8693 -1.778443,-3.17791 -2.113656,-3.17791 -5.291556,0 -4.002583,4.00257 -7.434587,4.31158 -10.775932,0.97024 -1.884228,-1.88423 -2.422579,-1.28606 -2.422579,2.69175 0,2.8129 0.641661,5.75601 1.425914,6.54025 0.784254,0.78425 7.824875,1.16278 15.645825,0.84119 14.155874,-0.58213 14.222874,-0.61203 14.879954,-6.6412 z m 32.65042,1.98035 c 0,-4.37976 -0.68195,-4.91434 -4.9141,-3.85214 -3.61595,0.90754 -5.5895,0.15182 -7.47088,-2.8607 l -2.55678,-4.09408 -2.85093,4.07027 c -2.04931,2.92579 -4.20603,3.73018 -7.67024,2.86071 -4.12455,-1.03519 -4.81931,-0.47642 -4.81931,3.87594 0,4.98275 0.30593,5.0855 15.14112,5.0855 14.83519,0 15.14112,-0.10275 15.14112,-5.0855 z m 34.31987,-1.21813 c 0,-5.28175 -0.4752,-5.90926 -2.93135,-3.87086 -3.78107,3.13803 -11.20036,0.79768 -11.20036,-3.53305 0,-2.56113 -0.76464,-2.2497 -3.27456,1.33371 -2.31694,3.3079 -4.67849,4.40669 -8.07527,3.75736 -3.95878,-0.75677 -4.8007,-0.0817 -4.8007,3.84938 0,4.58651 0.57358,4.76709 15.14112,4.76709 h 15.14112 z m 33.97052,-0.76222 c 0.53289,-4.88968 0.16332,-5.5703 -1.91787,-3.53293 -3.52608,3.45167 -7.80969,3.16484 -12.21023,-0.8176 -2.03053,-1.83761 -3.69189,-2.35307 -3.69189,-1.14546 0,3.41132 -7.92994,5.10157 -11.20036,2.38735 -2.42725,-2.01443 -2.93135,-1.5802 -2.93135,2.52498 0,2.72678 0.64166,5.59943 1.42591,6.38367 0.78426,0.78425 7.82487,1.16278 15.64583,0.84119 14.15587,-0.58213 14.22288,-0.61203 14.87996,-6.6412 z m 32.65041,1.98035 c 0,-4.37976 -0.68195,-4.91434 -4.9141,-3.85214 -3.61594,0.90754 -5.58949,0.15182 -7.47087,-2.8607 l -2.55679,-4.09408 -2.85093,4.07027 c -2.0493,2.92579 -4.20604,3.73018 -7.67025,2.86071 -4.12454,-1.03519 -4.8193,-0.47642 -4.8193,3.87594 0,4.98275 0.30593,5.0855 15.14112,5.0855 14.83519,0 15.14112,-0.10275 15.14112,-5.0855 z m 16.2195,-10.15622 11.03452,-11.20408 -12.1129,0.6053 -12.11289,0.6053 -0.6102,10.59879 c -0.33561,5.82933 0.14958,10.59879 1.07837,10.59879 0.92871,0 6.65412,-5.04184 12.7231,-11.2041 z m 35.26032,-0.90881 v -9.08467 l -9.58938,-0.61532 -9.58937,-0.61531 v 10.3153 10.31531 l 9.58937,-0.61532 9.58938,-0.61531 z m -16.32166,5.32907 c -0.63666,-1.65914 -0.85863,-5.12671 -0.49322,-7.70575 0.52021,-3.67183 1.93059,-4.68917 6.50077,-4.68917 7.19415,0 11.32525,5.41799 8.08134,10.59878 -2.87694,4.59471 -12.54214,5.82689 -14.08889,1.79614 z m 11.27462,-2.30084 c 2.00506,-2.41596 2.00506,-3.6405 0,-6.05644 -5.04494,-6.07879 -12.23599,-1.42777 -9.36402,6.05644 0.63911,1.66552 2.442,3.02822 4.00642,3.02822 1.56442,0 3.97534,-1.3627 5.3576,-3.02822 z m 34.31987,-3.02823 v -10.09408 h -10.09408 -10.09408 v 10.09408 10.09408 h 10.09408 10.09408 z m -16.07004,5.14403 c -5.3629,-6.46189 2.51389,-16.38829 9.50889,-11.98316 6.9898,4.40184 4.4996,14.9144 -3.53293,14.9144 -1.94879,0 -4.63796,-1.31905 -5.97596,-2.93124 z m 11.69639,-3.84435 c 0.97853,-5.13097 -2.43093,-8.03152 -7.53603,-6.41122 -4.10945,1.3043 -5.7231,6.99399 -2.80981,9.90728 2.64544,2.64544 9.62436,0.28714 10.34584,-3.49606 z m 32.63707,-1.29968 v -10.09408 h -9.08466 c -7.03411,0 -9.08468,0.73932 -9.08468,3.27542 0,2.62714 0.57736,2.79626 2.91711,0.85444 1.6044,-1.33153 5.01115,-2.12412 7.57056,-1.7613 3.8467,0.54531 4.65346,1.88465 4.65346,7.72552 0,5.84089 -0.80676,7.18023 -4.65346,7.72553 -2.55941,0.36282 -5.96616,-0.42976 -7.57056,-1.76129 -2.33975,-1.94183 -2.91711,-1.77271 -2.91711,0.85444 0,2.5361 2.05057,3.2754 9.08468,3.2754 h 9.08466 z m 28.26343,6.6621 c 0,-2.66932 -0.53836,-2.89364 -2.42258,-1.00941 -3.56996,3.56997 -11.20412,2.94515 -13.56624,-1.11034 -1.83771,-3.15515 -2.0643,-3.04721 -2.11913,1.0094 -0.0547,4.04672 0.92983,4.54233 9.02328,4.54233 7.2044,0 9.08467,-0.71031 9.08467,-3.43198 z M 84.177464,206.60944 c 0.91363,-4.71284 -2.204428,-7.64455 -6.412897,-6.0296 -3.963454,1.52092 -4.350052,5.12426 -0.917989,8.55633 3.156161,3.15616 6.449244,2.02113 7.330886,-2.52673 z m 16.549996,1.79452 c 2.14556,-2.58523 2.01298,-3.71382 -0.762216,-6.48903 -3.13346,-3.13347 -3.585546,-3.13347 -6.719009,0 -2.775206,2.77521 -2.907773,3.9038 -0.762217,6.48903 1.428511,1.72127 3.283286,3.12955 4.121722,3.12955 0.838437,0 2.693214,-1.40828 4.12172,-3.12955 z m 18.08525,-4.01525 c 0,-1.43704 -1.13558,-3.00891 -2.52352,-3.49307 -4.08782,-1.4259 -7.57056,0.70368 -7.57056,4.62919 0,2.00937 1.13559,4.06136 2.52352,4.55996 3.14095,1.1284 7.57056,-2.20445 7.57056,-5.69608 z m 16.15054,0.99152 c 0,-4.55583 -2.63556,-6.37093 -6.88368,-4.74078 -3.74833,1.43839 -4.16424,5.09508 -0.94559,8.31373 3.10143,3.10143 7.82927,0.94385 7.82927,-3.57295 z m 16.23461,3.02373 c 2.14556,-2.58523 2.013,-3.71382 -0.76221,-6.48903 -3.13347,-3.13347 -3.58555,-3.13347 -6.71902,0 -2.77521,2.77521 -2.90777,3.9038 -0.76221,6.48903 1.42851,1.72127 3.28329,3.12955 4.12172,3.12955 0.83843,0 2.69321,-1.40828 4.12172,-3.12955 z m 19.18067,-7.46923 1.36112,-5.55175 h -15.35998 c -8.44799,0 -15.35998,0.82342 -15.35998,1.82982 0,1.0064 1.8468,1.34688 4.10401,0.7566 2.33452,-0.6105 5.70872,0.379 7.82583,2.29496 3.30461,2.99061 3.85583,3.01896 4.9173,0.25282 1.3332,-3.47425 8.47119,-4.22857 10.40501,-1.09959 0.71656,1.15942 -0.69856,1.80266 -3.33103,1.51411 -5.28023,-0.57877 -7.86207,6.03067 -3.42689,8.77278 3.44219,2.12818 7.07355,-1.46432 8.86461,-8.76975 z m 15.05512,4.4455 c 0,-4.55583 -2.63555,-6.37093 -6.88368,-4.74078 -3.74833,1.43839 -4.16424,5.09508 -0.94559,8.31373 3.10143,3.10143 7.82927,0.94385 7.82927,-3.57295 z m 16.23461,3.02373 c 2.14555,-2.58523 2.013,-3.71382 -0.76221,-6.48903 -3.13347,-3.13347 -3.58555,-3.13347 -6.71901,0 -2.77521,2.77521 -2.90778,3.9038 -0.76222,6.48903 1.42851,1.72127 3.28329,3.12955 4.12172,3.12955 0.83844,0 2.69321,-1.40828 4.12172,-3.12955 z m 18.08526,-3.96752 c 0,-2.95812 -5.54252,-5.57173 -8.25744,-3.89382 -2.71842,1.68007 -2.22785,8.49507 0.68688,9.54217 3.12234,1.1217 7.57056,-2.19709 7.57056,-5.64835 z m 16.15053,0.94379 c 0,-4.55583 -2.63554,-6.37093 -6.88368,-4.74078 -3.80716,1.46096 -4.29569,8.1602 -0.68688,9.41904 4.10498,1.4319 7.57056,-0.70966 7.57056,-4.67826 z m 60.56448,-3.05054 c 0,-3.82069 -0.90846,-6.94671 -2.01881,-6.94671 -1.11035,0 -2.01882,3.68749 -2.01882,8.19442 0,4.94884 0.7996,7.70023 2.01882,6.9467 1.11035,-0.68623 2.01881,-4.37372 2.01881,-8.19441 z m 28.26343,0 c 0,-3.82069 -0.90846,-6.94671 -2.01881,-6.94671 -1.11036,0 -2.01882,3.68749 -2.01882,8.19442 0,4.94884 0.79959,7.70023 2.01882,6.9467 1.11035,-0.68623 2.01881,-4.37372 2.01881,-8.19441 z m 17.80624,3.62242 c 0.82801,-5.80471 -4.88004,-8.21 -9.2094,-3.88064 -2.68058,2.68058 -2.76765,3.72747 -0.53381,6.41909 3.63296,4.37746 8.95444,2.99103 9.74321,-2.53845 z m 11.4666,-2.49386 c 0,-3.70116 -1.13559,-7.10791 -2.52352,-7.57056 -1.74965,-0.58322 -2.52352,1.73843 -2.52352,7.57056 0,5.83214 0.77387,8.15378 2.52352,7.57056 1.38793,-0.46265 2.52352,-3.86941 2.52352,-7.57056 z m 17.15993,5.04704 c 2.00507,-2.41596 2.00507,-3.6405 0,-6.05644 -5.04494,-6.07879 -12.23599,-1.42777 -9.36402,6.05644 0.63912,1.66552 2.44201,3.02822 4.00642,3.02822 1.56443,0 3.97534,-1.3627 5.3576,-3.02822 z m 13.72908,-6.73738 c -1.08314,-9.03987 -5.65381,-7.60954 -5.65381,1.76929 0,7.44144 0.38685,8.16965 3.13029,5.89279 1.72165,-1.42886 2.85723,-4.87678 2.52352,-7.66208 z m -288.028165,-4.3661 c 1.63361,0 4.060355,1.09015 5.392775,2.42257 1.88423,1.88422 2.42258,1.65991 2.42258,-1.00941 0,-2.94409 -2.2959,-3.43199 -16.150524,-3.43199 -9.145065,0 -16.150529,0.85381 -16.150529,1.96835 0,1.10809 2.633348,1.44168 6.025359,0.76327 4.511833,-0.90236 6.349378,-0.36067 7.315291,2.15644 1.165523,3.03731 1.621947,3.06105 4.73239,0.24614 1.89335,-1.71346 4.779046,-3.11537 6.412658,-3.11537 z m 36.012395,0.56759 c 2.25721,0.59028 4.10402,0.2498 4.10402,-0.7566 0,-1.0064 -6.8135,-1.82982 -15.14112,-1.82982 -8.32762,0 -15.14112,0.7825 -15.14112,1.73888 0,0.95637 2.0993,1.33754 4.66512,0.84707 2.74236,-0.52425 5.7739,0.4442 7.35531,2.34969 2.46729,2.9729 2.99528,2.9654 6.372,-0.0904 2.08517,-1.88706 5.46149,-2.86657 7.78579,-2.25874 z m 64.92841,-0.56759 c 1.63361,0 4.17391,1.13557 5.64513,2.52352 2.1588,2.03659 2.4976,1.93922 1.75587,-0.50471 -0.69111,-2.27705 -4.75996,-3.17449 -16.4029,-3.61784 -9.53633,-0.36315 -15.4838,0.19903 -15.4838,1.46364 0,1.20235 2.49704,1.55384 6.02536,0.84818 4.51184,-0.90236 6.34938,-0.36067 7.31529,2.15644 1.16553,3.03731 1.62195,3.06105 4.73239,0.24614 1.89335,-1.71346 4.77904,-3.11537 6.41266,-3.11537 z m 35.388,0.55501 c 2.60064,0.49715 4.72841,0.12141 4.72841,-0.83496 0,-0.95638 -6.8135,-1.73888 -15.14112,-1.73888 -8.32762,0 -15.14112,0.7825 -15.14112,1.73888 0,0.95637 2.09931,1.33754 4.66512,0.84707 2.69611,-0.51541 5.76302,0.43108 7.26635,2.24248 2.35091,2.83268 2.90396,2.83151 5.74759,-0.0121 1.77759,-1.7776 5.20342,-2.75317 7.87477,-2.2425 z m 132.61979,-0.55501 c 2.49863,0 5.63313,1.09015 6.96554,2.42257 1.88422,1.88422 2.42258,1.65991 2.42258,-1.00941 0,-2.72167 -1.88027,-3.43199 -9.08467,-3.43199 -8.09345,0 -9.07796,0.49563 -9.02328,4.54235 0.0549,4.0566 0.28142,4.16454 2.11913,1.0094 1.13175,-1.94311 4.10207,-3.53292 6.6007,-3.53292 z M 395.39052,33.877696 V -125.60878 H 206.63122 17.871911 V 33.877696 193.36417 h 188.759309 188.7593 z m 17.81257,138.433554 c 8.86879,-10.41552 14.49608,-18.83326 14.50809,-21.70227 0.0102,-2.57785 3.1904,-8.67583 7.06586,-13.55106 l 7.04626,-8.86408 V -13.848594 -155.89102 h -6.91784 c -4.44565,0 -7.1511,-1.06087 -7.57056,-2.96863 -0.3928,-1.78646 -6.48127,4.00382 -15.28914,14.54034 l -14.63642,17.50895 V 31.258099 c 0,86.937631 0.29367,158.068441 0.65263,158.068441 0.35896,0 7.17246,-7.65689 15.14112,-17.01529 z m 43.76133,-22.39204 c 25.79138,-4.33765 26.58108,-4.57499 26.58108,-7.98886 0,-3.84954 0.33682,-3.86132 -27.5905,0.96342 -12.769,2.20598 -23.89773,4.01688 -24.73049,4.02424 -0.83276,0.008 -1.51411,1.37609 -1.51411,3.04161 0,3.82225 4.32497,3.81583 27.25402,-0.0403 z M 15.853095,142.89377 c 0,-2.24313 -1.345877,-4.03763 -3.028224,-4.03763 -3.073469,0 -4.1411217,4.2706 -1.682347,6.72937 2.559437,2.55943 4.710571,1.33022 4.710571,-2.69174 z m 448.681885,-3.7694 c 18.94656,-3.12541 21.70227,-3.19883 21.70227,-0.57823 0,1.65095 0.53719,2.46457 1.19375,1.80802 0.65654,-0.65656 0.59533,-3.07914 -0.13607,-5.38352 -1.23717,-3.89801 -2.84025,-4.18977 -23.02105,-4.18977 h -21.69126 l -4.47774,6.05644 -4.47771,6.05646 4.60276,-0.0947 c 2.53153,-0.052 14.36879,-1.7057 26.30505,-3.67469 z M 15.853095,134.8185 c 0,-1.11035 -0.400618,-2.01882 -0.890263,-2.01882 -0.489646,0 -1.451728,0.90847 -2.137961,2.01882 -0.686233,1.11035 -0.285614,2.01881 0.890264,2.01881 1.175878,0 2.13796,-0.90846 2.13796,-2.01881 z M 488.25607,-18.448793 V -165.65964 l -6.56116,1.71759 c -3.60863,0.94467 -13.60177,2.81301 -22.20697,4.15188 l -15.64583,2.4343 V -14.296912 128.76206 h 22.20697 22.20699 z M 458.31182,96.965699 c -9.51735,-8.108151 -4.5438,-22.711681 7.73495,-22.711681 5.77599,0 14.13403,7.759763 14.13403,13.122304 0,4.725282 -8.34766,13.122308 -13.04518,13.122308 -2.57227,0 -6.54298,-1.58982 -8.8238,-3.532931 z m 14.99011,-7.596785 c 1.32567,-5.281929 -1.86817,-11.077264 -6.10478,-11.077264 -5.61566,0 -9.83321,5.370454 -8.47315,10.789381 1.07742,4.29277 2.53719,5.361148 7.32508,5.361148 4.70274,0 6.25142,-1.083277 7.25285,-5.073265 z M 458.43605,-114.84707 c -4.24365,-1.70742 -8.86347,-12.59492 -7.39331,-17.42376 2.40999,-7.91578 7.14551,-11.50729 15.17272,-11.50729 8.68116,0 15.98416,7.08415 15.98416,15.50513 0,9.97507 -13.45157,17.57493 -23.76357,13.42592 z m 15.28922,-4.20056 c 6.33238,-5.47542 7.10062,-11.25297 2.30675,-17.34742 -7.95443,-10.11239 -22.09583,-5.02022 -22.09583,7.95647 0,11.08677 11.51059,16.54915 19.78908,9.39095 z m -62.18632,-28.26342 16.60422,-19.68346 27.26455,-4.3749 c 14.99551,-2.40619 28.24837,-5.35872 29.4508,-6.56116 1.56913,-1.56912 -57.6328,-2.18625 -209.72998,-2.18625 H 63.212295 l -19.137265,22.59459 c -10.525493,12.42702 -20.32436,24.2371 -21.775257,26.24461 -2.53937,3.51356 4.377059,3.65003 184.998477,3.65003 h 187.63648 z m -382.561545,4.10162 11.578268,-13.56303 -9.827769,-2.54856 c -15.371278,-3.98612 -14.874809,-4.43751 -14.874809,13.52408 0,8.88279 0.34786,16.15053 0.773023,16.15053 0.425162,0 5.983243,-6.10336 12.351287,-13.56302 z M 455.955,-161.94747 c 12.76902,-2.20597 23.89775,-4.01688 24.73051,-4.02424 0.83276,-0.007 1.51411,-1.67793 1.51411,-3.71235 0,-3.55669 -0.98946,-3.53508 -25.72326,0.5618 -20.64701,3.41995 -25.85535,4.94669 -26.39264,7.73659 -0.82087,4.26244 -2.23043,4.29305 25.87128,-0.5618 z m -410.420017,-1.18952 c 0.419,-1.27889 -5.663804,-3.60177 -14.538104,-5.55175 -18.601332,-4.08733 -21.200232,-4.14858 -21.200232,-0.49961 0,1.83304 4.511449,3.92928 12.6176,5.86275 14.182535,3.38283 22.053188,3.44702 23.120736,0.18861 z m 9.750078,-10.99127 5.867496,-6.12435 -23.666688,0.5726 c -13.352513,0.32306 -23.706224,1.4202 -23.757407,2.51748 -0.08802,1.88691 23.120657,8.45888 31.52447,8.92675 2.290548,0.12753 6.805007,-2.52409 10.032129,-5.89248 z m 432.331269,-0.31063 c -0.64446,-1.61048 -1.12284,-1.1321 -1.21969,1.2197 -0.0876,2.12817 0.38946,3.32053 1.06032,2.64969 0.67083,-0.67083 0.74254,-2.41206 0.15929,-3.86939 z"
       style="fill:#000000;stroke-width:2.01881599" />
  </g>
</svg>
