<?xml version="1.0" encoding="UTF-8" standalone="no"?>
<!-- Created with Inkscape (http://www.inkscape.org/) -->

<svg
   xmlns:dc="http://purl.org/dc/elements/1.1/"
   xmlns:cc="http://creativecommons.org/ns#"
   xmlns:rdf="http://www.w3.org/1999/02/22-rdf-syntax-ns#"
   xmlns:svg="http://www.w3.org/2000/svg"
   xmlns="http://www.w3.org/2000/svg"
   xmlns:sodipodi="http://sodipodi.sourceforge.net/DTD/sodipodi-0.dtd"
   xmlns:inkscape="http://www.inkscape.org/namespaces/inkscape"
   width="500"
   height="500"
   viewBox="0 0 132.29166 132.29167"
   version="1.1"
   id="svg8"
   inkscape:version="0.92.4 5da689c313, 2019-01-14"
   sodipodi:docname="icon.svg">
  <defs
     id="defs2" />
  <sodipodi:namedview
     id="base"
     pagecolor="#ffffff"
     bordercolor="#666666"
     borderopacity="1.0"
     inkscape:pageopacity="0.0"
     inkscape:pageshadow="2"
     inkscape:zoom="0.42657054"
     inkscape:cx="603.40158"
     inkscape:cy="369.71489"
     inkscape:document-units="mm"
     inkscape:current-layer="layer1"
     showgrid="false"
     units="px"
     inkscape:window-width="1920"
     inkscape:window-height="1003"
     inkscape:window-x="0"
     inkscape:window-y="0"
     inkscape:window-maximized="1" />
  <metadata
     id="metadata5">
    <rdf:RDF>
      <cc:Work
         rdf:about="">
        <dc:format>image/svg+xml</dc:format>
        <dc:type
           rdf:resource="http://purl.org/dc/dcmitype/StillImage" />
        <dc:title></dc:title>
      </cc:Work>
    </rdf:RDF>
  </metadata>
  <g
     inkscape:label="Layer 1"
     inkscape:groupmode="layer"
     id="layer1"
     transform="translate(0,-164.70832)">
    <path
       style="fill:#000000;stroke:#000000;stroke-width:0.53356236"
       d="M 5.2220338,294.79182 C 3.1292295,293.49891 2.6218733,292.87331 2.3463402,291.24591 1.9650557,288.99381 3.47449,178.30942 3.8952609,177.66639 c 0.1510822,-0.23088 1.7008133,-0.56102 3.443851,-0.73365 13.8953491,-1.37616 112.5456281,-10.01221 115.4440181,-10.10622 0.91088,-0.0296 2.15737,0.68226 3.70589,2.11623 l 2.33334,2.16074 -0.12008,11.68879 -0.12008,11.68879 -0.31835,-10.37077 c -0.17507,-5.70393 -0.28132,3.04642 -0.23609,19.44519 0.0549,19.88089 -0.0277,25.06442 -0.2479,15.55616 -0.20176,-8.71472 -0.33014,1.29978 -0.33014,25.75341 0,22.00728 -0.19231,40.19518 -0.42739,40.41757 -0.76073,0.7197 -58.507055,5.89892 -63.259078,5.67365 -3.499471,-0.16589 -3.890025,-0.11998 -1.921574,0.22585 1.895373,0.33299 1.256235,0.39484 -2.745103,0.26567 -4.014722,-0.12961 -4.646824,-0.068 -2.745104,0.26751 1.934957,0.34139 1.399324,0.3985 -2.470602,0.26342 -3.556539,-0.12413 -4.402722,-0.0481 -3.019617,0.27173 1.404702,0.3247 0.740137,0.39032 -2.47059,0.24396 -2.415694,-0.11012 -3.904501,-0.0193 -3.30846,0.2019 0.687955,0.25528 -1.016222,0.53774 -4.66669,0.7735 -3.162706,0.20426 -11.679824,0.94105 -18.926906,1.63731 -7.24707,0.69625 -13.3000329,1.26337 -13.4510168,1.26025 -0.150984,-0.004 -1.4180238,-0.71211 -2.8156414,-1.57556 z m 3.8107455,0.0589 c 0.137257,-0.3889 -0.068635,-0.58335 -0.4803934,-0.45372 -0.3963252,0.12478 -0.8286867,0.53312 -0.9607869,0.90744 -0.137257,0.38891 0.068635,0.58336 0.4803934,0.45373 0.3963252,-0.12477 0.8286744,-0.53313 0.9607869,-0.90745 z m 4.4951037,-0.0485 c -1.681365,-0.253 -0.80445,-0.32547 2.745115,-0.22682 3.996845,0.11107 4.638352,0.0458 2.745104,-0.27914 -1.859889,-0.31925 -1.181314,-0.38245 2.745104,-0.2557 3.979029,0.12845 4.629916,0.0662 2.745103,-0.26265 -1.910879,-0.33336 -1.351169,-0.3908 2.470602,-0.25349 3.611324,0.12975 4.424025,0.0554 3.019618,-0.2761 -1.444373,-0.34099 -0.899188,-0.40033 2.195314,-0.23897 2.723432,0.14202 3.838408,0.0484 3.294131,-0.27655 -0.589545,-0.352 -0.120816,-0.49349 1.653506,-0.49918 1.361962,-0.005 15.013541,-1.17615 30.336859,-2.60395 15.682858,-1.46132 29.478913,-2.50679 31.563049,-2.3919 2.919222,0.16095 3.237882,0.1157 1.506382,-0.21387 -1.576023,-0.29998 -0.800931,-0.36941 2.74511,-0.24591 3.67819,0.12811 4.37986,0.0607 2.7451,-0.26364 -1.62336,-0.32211 -0.90746,-0.38832 2.74511,-0.25384 3.54207,0.13039 4.39709,0.0559 3.01962,-0.26313 -1.57305,-0.36432 -1.25629,-0.42362 1.74648,-0.32694 2.01743,0.0649 3.56684,-0.0365 3.44314,-0.22562 -0.12371,-0.18905 1.6845,-0.46232 4.01824,-0.60726 2.33373,-0.14495 4.32601,-0.0572 4.42731,0.19501 0.2308,0.57474 1.18839,0.054 1.18839,-0.64618 0,-0.28519 -0.24706,-0.37432 -0.54901,-0.19807 -0.31685,0.18496 -0.54547,-0.29551 -0.54062,-1.1361 0.005,-0.82133 0.18432,-1.19502 0.41176,-0.85684 0.22185,0.32987 0.39039,-8.42046 0.37453,-19.44519 l -0.0289,-20.04495 0.30334,15.55615 c 0.16682,8.55589 0.30333,-7.11694 0.30333,-34.82852 0,-27.71158 -0.14082,-50.51767 -0.31292,-50.68021 -0.1721,-0.16255 -7.83094,0.40939 -17.01965,1.27094 -9.18871,0.86156 -17.324397,1.50013 -18.079304,1.41905 -0.754896,-0.0811 6.039235,-0.81441 15.098084,-1.62959 9.05886,-0.81519 17.27164,-1.6709 18.25065,-1.9016 1.03367,-0.24357 1.91281,-0.21648 2.09676,0.0647 0.36867,0.5634 1.33894,0.12015 1.33894,-0.61165 0,-0.78672 -9.055,-0.19955 -36.357009,2.35753 -13.806136,1.29308 -25.78853,2.32199 -26.62753,2.28647 -2.028811,-0.0859 11.734585,-1.46194 38.553089,-3.85454 12.07847,-1.07758 22.08438,-2.05651 22.23536,-2.1754 0.64792,-0.51023 -2.73487,-2.58171 -3.93303,-2.40845 -0.70547,0.10206 -8.20034,0.77662 -16.65527,1.4991 -8.45493,0.72249 -33.578182,2.94393 -55.829462,4.93655 -22.25128,1.99261 -41.0221935,3.62293 -41.7131443,3.62293 -1.254774,0 -1.2545162,0.001 0.2185627,1.39296 l 1.4748468,1.39295 8.2829498,-0.67782 c 4.555622,-0.3728 8.395982,-0.57107 8.534136,-0.4406 0.138141,0.13049 -3.351348,0.54044 -7.754414,0.91102 -6.58803,0.55447 -7.876459,0.79331 -7.276341,1.34883 0.599258,0.5547 3.616223,0.40413 16.925378,-0.8448 26.499335,-2.48667 47.187893,-4.19282 48.760928,-4.0212 0.810982,0.0884 -3.713736,0.58376 -10.054927,1.10066 -24.264424,1.97787 -55.396745,5.02385 -55.864664,5.46579 -0.268767,0.25385 -0.696058,12.56697 -0.949515,27.36248 l -0.4608468,26.90095 0.088402,-26.91991 c 0.068635,-20.91819 -0.062373,-26.96756 -0.587655,-27.13365 -0.5195975,-0.16426 -0.712634,2.58563 -0.8341504,11.88229 L 8.2908989,207.44457 8.1642747,194.96703 8.0376383,182.48948 6.3905786,180.99911 c -0.9058914,-0.81971 -1.651136,-1.27171 -1.6561209,-1.00446 -0.00491,0.26726 -0.3743597,25.57022 -0.820841,56.22882 l -0.8117797,55.7429 1.5071138,1.16555 1.5071137,1.16554 0.3338542,-1.94335 0.3338542,-1.94335 0.077966,1.68525 c 0.051691,1.11961 0.3543218,1.68525 0.9014344,1.68525 0.6760575,0 0.8376866,-0.99823 0.9025518,-5.57429 0.043465,-3.06586 0.2615361,-15.60801 0.4846049,-27.87146 l 0.4055951,-22.29716 -0.1861362,28.11762 c -0.2098575,31.70147 -0.5661683,29.20929 4.1581061,29.08367 l 2.470602,-0.0657 z M 7.1892698,269.15064 c 1.596e-4,-11.12265 0.072809,-15.59905 0.1615677,-9.94754 0.088648,5.65151 0.088525,14.75187 -2.824e-4,20.22301 -0.088894,5.47115 -0.1614326,0.84718 -0.1612853,-10.27547 z m 27.4621472,7.6026 c -1.093046,-0.62122 -2.369786,-0.85952 -3.859968,-0.72043 -1.561739,0.14576 -2.44014,-0.0351 -2.941455,-0.6056 -0.580816,-0.66098 -0.638278,-7.81689 -0.306646,-38.1869 0.363678,-33.30441 0.504606,-37.47726 1.294395,-38.32644 0.775388,-0.83372 4.595759,-1.28478 30.533432,-3.60503 51.301175,-4.58916 48.710985,-4.41351 49.527545,-3.35879 0.38934,0.50289 0.7079,1.61308 0.7079,2.46708 0,0.89508 0.52321,2.08085 1.2353,2.79966 l 1.2353,1.24693 -0.13545,17.19461 c -0.0745,9.45703 -0.27644,25.36158 -0.44877,35.34346 -0.28246,16.36016 -0.40827,18.24054 -1.27661,19.07919 -0.75689,0.73101 -2.46147,1.04343 -7.95567,1.4581 -3.845822,0.29027 -7.533934,0.44932 -8.195823,0.35345 -0.661888,-0.0959 2.378934,-0.46325 6.757383,-0.81639 6.93592,-0.55942 8.0845,-0.78215 8.9216,-1.73014 0.83332,-0.94372 1.37377,-3.56586 0.73495,-3.56586 -0.1242,0 -2.7801,0.56623 -5.90198,1.25828 -3.12188,0.69206 -7.282036,1.52086 -9.244778,1.84178 -5.049177,0.82559 -5.490219,0.99592 -5.490219,2.12027 0,0.73995 0.383028,1.00213 1.464054,1.00213 4.483095,0 -1.663303,0.68783 -25.080255,2.80668 -14.338625,1.29742 -26.94115,2.47442 -28.005601,2.61557 -1.288183,0.17082 -2.481529,-0.0537 -3.568634,-0.67161 z m 10.249769,-0.59909 c 10.182067,-0.92281 10.352327,-0.96032 10.352327,-2.28099 v -1.17713 l -10.156896,-0.0527 -10.156897,-0.0527 v 1.69367 c 0,0.93151 0.164711,1.84922 0.36601,2.03934 0.50468,0.47666 2.939675,0.43362 9.595456,-0.16959 z M 31.4969,275.31908 c -0.18244,-0.1723 -0.65597,-0.19072 -1.052295,-0.0409 -0.437973,0.16553 -0.307874,0.28841 0.331705,0.31328 0.578753,0.0225 0.903018,-0.10003 0.72059,-0.27234 z m 1.79576,-0.43961 c 0,-0.12889 -1.097111,-0.94727 -2.438016,-1.81862 l -2.438003,-1.58426 0.120571,1.42971 c 0.09872,1.16963 0.383507,1.42972 1.56568,1.42972 0.794787,0 1.631737,0.17501 1.859877,0.3889 0.454376,0.42601 1.329842,0.52776 1.329842,0.15455 z m -3.843147,-1.32125 c -0.494833,-0.30203 -0.562547,-0.50584 -0.169659,-0.51061 0.359626,-0.004 0.806561,0.22541 0.993189,0.51061 0.421262,0.64378 0.231196,0.64378 -0.82353,0 z m 43.647192,-0.0122 c 15.704197,-1.35721 15.647104,-1.34755 15.647104,-2.64518 0,-0.87806 -0.252954,-1.00427 -1.509803,-0.75331 -3.270312,0.65297 -16.163177,1.88307 -23.058897,2.20003 -7.175464,0.32982 -7.274536,0.35102 -7.274536,1.55646 0,1.11416 0.181827,1.19841 2.058831,0.95397 1.132361,-0.14745 7.494142,-0.73784 14.137301,-1.31197 z M 33.477028,250.61288 c 0.199814,-12.61993 0.359147,-27.84552 0.354077,-33.83464 l -0.0098,-10.88932 -2.219072,-1.74061 c -1.220494,-0.95734 -2.305032,-1.65736 -2.410083,-1.55561 -0.105101,0.10169 -0.372408,15.50288 -0.594126,34.22473 l -0.40314,34.03975 2.136834,1.32 c 1.175261,0.72602 2.281863,1.33375 2.459122,1.35053 0.177271,0.0168 0.485796,-10.29489 0.68561,-22.91483 z m 22.325501,11.54741 v -9.84232 l -2.333345,0.27438 c -1.283333,0.15091 -5.736579,0.58007 -9.896097,0.95369 -4.159518,0.37362 -7.69613,0.80528 -7.859146,0.95924 -0.163017,0.15396 -0.441804,4.15385 -0.619541,8.88863 l -0.32316,8.60869 h 10.515638 10.515651 z m 23.75126,8.33656 c 4.759254,-0.50908 8.769372,-1.03534 8.91138,-1.16947 0.397602,-0.37552 1.280939,-65.98222 0.893896,-66.39125 -0.608405,-0.64298 -26.679725,1.4946 -30.354957,2.48879 -1.320179,0.35713 -1.469383,3.37925 -1.837824,37.22514 l -0.321159,29.50161 7.027746,-0.36461 c 3.86526,-0.20054 10.921676,-0.78114 15.680918,-1.29021 z M 68.763268,253.03353 c -0.585064,-1.44001 -0.357576,-5.69154 0.353032,-6.59782 0.452609,-0.57725 1.849305,-0.98872 4.10213,-1.20853 3.38704,-0.33045 3.421014,-0.32062 4.028105,1.16506 0.793731,1.94241 0.222087,5.98209 -0.964126,6.81333 -1.402615,0.98288 -7.102889,0.85245 -7.519141,-0.17204 z m 7.021558,-0.37266 c 1.021465,-0.70545 1.456049,-4.76763 0.64298,-6.01017 -0.564855,-0.86319 -5.320966,-0.19291 -6.213462,0.87566 -0.722935,0.86558 -0.916561,3.60163 -0.353032,4.98863 0.416768,1.02577 4.503734,1.12642 5.923514,0.14588 z m 21.820146,15.23048 c 2.826388,-0.55001 6.930058,-1.38541 9.119288,-1.85645 l 3.9804,-0.85643 v -8.8404 -8.84039 l -2.60784,0.30169 c -1.43432,0.16594 -6.00492,0.57985 -10.156901,0.91979 l -7.54905,0.61809 -0.0049,7.05473 c -0.0025,3.8801 -0.160561,8.27978 -0.350982,9.77706 -0.337353,2.6527 -0.310697,2.72232 1.042375,2.72232 0.763723,0 3.70109,-0.45 6.527474,-1.00001 z m -48.880468,-16.69556 6.922019,-0.60987 0.295007,-11.45919 c 0.162255,-6.30255 0.213933,-11.54076 0.1148,-11.64045 -0.09908,-0.0997 -4.378706,0.19198 -9.510258,0.64817 -5.131539,0.45619 -9.718727,0.82944 -10.193731,0.82944 -0.760064,0 -0.863642,1.40729 -0.863642,11.7341 v 11.73409 l 3.156874,-0.31321 c 1.736285,-0.17226 6.271783,-0.58765 10.078894,-0.92308 z m 53.038716,-4.65598 c 4.29204,-0.35147 8.08207,-0.80152 8.4223,-1.00012 0.41302,-0.24109 0.72123,-4.18822 0.92741,-11.87733 l 0.30882,-11.51625 -1.86835,0.28593 c -1.02759,0.15725 -4.70954,0.52834 -8.1821,0.82465 -3.472562,0.2963 -7.363742,0.66589 -8.647087,0.82131 l -2.333344,0.28259 v 11.69306 11.69305 l 1.784329,-0.28393 c 0.981377,-0.15615 5.295979,-0.57148 9.588022,-0.92296 z M 46.743676,226.36585 c 3.925509,-0.30338 7.693159,-0.66407 8.37258,-0.80154 1.227996,-0.24847 1.235301,-0.30771 1.235301,-10.02371 v -9.77376 l -7.000022,1.18716 c -3.850023,0.65295 -8.386368,1.46449 -10.080772,1.80344 l -3.080763,0.61628 -0.388099,8.49099 c -0.213455,4.67005 -0.228446,8.73498 -0.03327,9.03319 0.195136,0.29821 1.138475,0.4246 2.096303,0.28087 0.957828,-0.14373 4.953285,-0.50954 8.878782,-0.81292 z m 54.627624,-4.92077 c 4.37844,-0.41084 8.39317,-0.75392 8.9216,-0.7624 0.87644,-0.014 0.96079,-0.78365 0.96079,-8.76574 v -8.75034 l -1.71569,-0.32409 c -0.94364,-0.17825 -5.5039,-0.32409 -10.133941,-0.32409 h -8.418255 l -0.160204,9.85281 -0.160217,9.85281 1.372558,-0.016 c 0.754907,-0.008 4.954918,-0.35213 9.333359,-0.76297 z M 41.643974,207.75584 c 2.502869,-0.54179 6.403626,-1.25915 8.668348,-1.59414 5.810604,-0.85951 6.039235,-0.94967 6.039235,-2.38188 0,-0.85628 -0.308573,-1.26085 -0.960787,-1.2597 -3.389655,0.006 -18.066334,1.70943 -18.646475,2.16417 -0.816175,0.63974 -0.966754,4.05659 -0.178769,4.05659 0.290267,0 2.575568,-0.44327 5.078448,-0.98504 z m -6.510002,-3.9124 1.342194,-1.26768 -2.52896,-1.8609 c -2.705027,-1.99046 -3.746911,-2.12697 -4.713358,-0.61757 -0.515951,0.80578 -0.234242,1.25648 1.862724,2.98019 1.358831,1.11696 2.521127,2.03146 2.582898,2.03223 0.06176,7.8e-4 0.71628,-0.56905 1.454502,-1.26627 z m 36.041159,-0.48815 c 4.076481,-0.42266 9.952159,-0.92625 13.057049,-1.11908 5.440959,-0.33791 5.632215,-0.39076 5.284757,-1.46018 -0.198279,-0.61026 -0.408714,-1.16464 -0.467624,-1.23194 -0.05893,-0.0673 -6.513539,0.45574 -14.34361,1.16231 -7.830072,0.70659 -14.800123,1.28667 -15.489011,1.2891 -1.320966,0.005 -2.079409,1.08044 -1.597665,2.26616 0.22324,0.54946 0.936881,0.61251 3.215613,0.28414 1.61079,-0.23213 6.264011,-0.76786 10.340491,-1.19051 z m -25.529499,-1.37585 c 3.321586,-0.29801 6.866252,-0.66351 7.877048,-0.81221 1.779013,-0.26172 1.807031,-0.3025 0.8757,-1.27448 -0.930325,-0.97092 -0.909416,-1.00525 0.632777,-1.0391 0.877197,-0.0192 8.452547,-0.66576 16.834127,-1.43672 15.078099,-1.38691 15.250459,-1.3911 16.303504,-0.39654 1.026229,0.96926 1.379876,0.98105 9.891726,0.32993 4.855086,-0.37139 8.962086,-0.88104 9.126666,-1.13254 0.16458,-0.2515 0.59098,-0.29201 0.94757,-0.0901 0.43563,0.24678 0.42009,0.10099 -0.0474,-0.44434 -0.38267,-0.4464 -0.55671,-1.15383 -0.38678,-1.57208 0.36242,-0.89201 -0.70894,-1.82902 -2.06562,-1.80658 -0.72667,0.012 -0.80943,0.17808 -0.34957,0.70141 0.33138,0.37712 0.88334,0.53416 1.22658,0.34898 0.34325,-0.18518 0.44746,-0.15192 0.23161,0.0739 -0.21583,0.22581 -0.12383,0.90491 0.20446,1.50912 0.40694,0.74895 -0.0797,0.5104 -1.52913,-0.74959 l -2.12604,-1.84811 -3.843161,0.37768 c -2.113726,0.20772 -17.43142,1.58013 -34.039324,3.04979 -16.60789,1.46967 -30.804397,2.7899 -31.547799,2.93387 -1.332311,0.25802 -1.320536,0.28689 0.823529,2.01972 2.453364,1.9828 2.640519,2.00428 10.959505,1.25792 z m 65.608058,-1.55145 c 0,-1.41848 -0.27622,-2.19053 -0.85931,-2.40187 -0.82834,-0.30021 -14.856342,0.62986 -17.944681,1.18975 -1.14664,0.20788 -1.509802,0.57276 -1.509802,1.5169 v 1.24318 l 9.745123,0.15436 c 5.35983,0.0848 9.93043,0.20694 10.1569,0.27124 0.22647,0.0643 0.41177,-0.82382 0.41177,-1.97356 z m -36.383264,-0.56402 c 12.461302,-1.05705 13.774495,-1.25613 13.078363,-1.98264 -0.699447,-0.72997 -2.268824,-0.67589 -16.322793,0.56244 -8.551927,0.75353 -15.640965,1.39523 -15.753433,1.42601 -0.112467,0.0307 0.122659,0.42826 0.52252,0.8833 0.515718,0.58689 1.293192,0.74867 2.675082,0.55663 1.071437,-0.1489 8.181557,-0.79949 15.800261,-1.44574 z M 7.7377208,227.14901 c -1.596e-4,-10.83746 0.072686,-15.34466 0.1618133,-10.01601 0.089139,5.32867 0.089262,14.19568 2.946e-4,19.70447 -0.089016,5.50881 -0.1619483,1.149 -0.1621079,-9.68846 z M 30.652743,178.64328 c 7.932263,-0.87361 25.67303,-2.14386 26.352685,-1.88687 0.395282,0.14946 -0.02247,0.29257 -0.928385,0.31804 -0.905891,0.0255 -7.20185,0.51057 -13.991032,1.07802 -12.072417,1.00902 -18.735896,1.29507 -11.433268,0.49081 z m 28.581175,-2.42319 c 0.830393,-0.11882 2.189224,-0.11882 3.019617,0 0.830394,0.11881 0.150972,0.21601 -1.509815,0.21601 -1.660786,0 -2.340196,-0.0972 -1.509802,-0.21601 z m 22.647126,-0.1671 c 1.81177,-0.21231 4.40589,-0.37705 5.764721,-0.36607 2.244083,0.0182 2.168585,0.0553 -0.82353,0.40598 -1.81177,0.21232 -4.40589,0.37705 -5.764721,0.36608 -2.244083,-0.0182 -2.168585,-0.0553 0.82353,-0.40599 z M 69.123852,290.30497 c -0.675272,-0.12308 -1.910561,-0.12626 -2.745116,-0.007 -0.834544,0.11919 -0.282053,0.21989 1.22775,0.22378 1.509814,0.004 2.192625,-0.0936 1.517366,-0.21669 z m 5.490207,-0.51853 c -0.67526,-0.12308 -1.910561,-0.12628 -2.745104,-0.007 -0.834543,0.11918 -0.282065,0.21988 1.22775,0.22378 1.509803,0.004 2.192613,-0.0936 1.517354,-0.21671 z m 5.490219,-0.51854 c -0.675272,-0.12308 -1.91056,-0.12627 -2.745116,-0.007 -0.834543,0.11918 -0.282053,0.21989 1.22775,0.22378 1.509815,0.004 2.192625,-0.0936 1.517366,-0.21671 z m 5.490207,-0.51853 c -0.675259,-0.12309 -1.91056,-0.12628 -2.745103,-0.007 -0.834544,0.11918 -0.282065,0.2199 1.22775,0.22379 1.509802,0.004 2.192613,-0.0936 1.517353,-0.21671 z m 5.49022,-0.51855 c -0.675272,-0.12308 -1.910561,-0.12626 -2.745116,-0.007 -0.834543,0.11919 -0.282053,0.21989 1.22775,0.22378 1.509815,0.004 2.192625,-0.0936 1.517366,-0.21671 z m 5.490207,-0.51854 c -0.67526,-0.12308 -1.91056,-0.12627 -2.745104,-0.007 -0.834543,0.11919 -0.282065,0.21989 1.22775,0.22378 1.509803,0.004 2.192613,-0.0936 1.517354,-0.21671 z M 10.391402,181.71835 c -0.9266419,-0.87519 -2.0277798,-0.0424 -1.1958026,0.90448 0.4594224,0.52283 0.8374656,0.5881 1.2345026,0.2131 0.397038,-0.375 0.385189,-0.71723 -0.03868,-1.11758 z m -1.5841593,-0.89609 c 0.3102924,-0.47419 -2.5630929,-2.67515 -3.4924478,-2.67515 -0.8795549,0 -0.6853397,0.59626 0.6225003,1.91109 1.2250978,1.23166 2.3653293,1.53522 2.8699475,0.76406 z"
       id="path5190"
       inkscape:connector-curvature="0" />
  </g>
</svg>
