<?xml version="1.0" encoding="UTF-8" standalone="no"?>
<svg
   xmlns:dc="http://purl.org/dc/elements/1.1/"
   xmlns:cc="http://creativecommons.org/ns#"
   xmlns:rdf="http://www.w3.org/1999/02/22-rdf-syntax-ns#"
   xmlns:svg="http://www.w3.org/2000/svg"
   xmlns="http://www.w3.org/2000/svg"
   id="svg8"
   version="1.1"
   viewBox="0 0 500 500"
   height="500mm"
   width="500mm">
  <defs
     id="defs2" />
  <metadata
     id="metadata5">
    <rdf:RDF>
      <cc:Work
         rdf:about="">
        <dc:format>image/svg+xml</dc:format>
        <dc:type
           rdf:resource="http://purl.org/dc/dcmitype/StillImage" />
        <dc:title></dc:title>
      </cc:Work>
    </rdf:RDF>
  </metadata>
  <g
     transform="translate(0,203)"
     id="layer1">
    <path
       id="path889"
       d="m 338.90739,291.97567 c 0,-6.89117 29.13576,-52.86306 55.21937,-87.12793 20.43266,-26.84142 21.96261,-35.40687 9.74847,-54.57697 -4.59776,-7.21616 -8.97012,-18.17078 -11.13316,-27.89319 -4.3566,-19.58214 -8.55836,-24.076076 -21.9651,-23.492593 -9.90072,0.430913 -22.05373,4.319583 -47.28056,15.128693 -19.59248,8.39492 -48.19445,8.80892 -72.94077,1.05578 -16.44781,-5.15316 -16.97848,-5.18086 -27.50493,-1.43522 -16.0647,5.71635 -49.3267,6.94998 -66.87504,2.48029 C 104.51218,102.95543 64.918915,63.800126 51.774297,12.868065 49.959033,5.8343836 45.8937,-2.9867521 42.740218,-6.7344381 33.360633,-17.881449 22.66699,-41.414211 18.550735,-59.966573 9.3474226,-101.44676 23.909499,-148.03209 55.590053,-178.45855 c 11.799098,-11.33202 29.421634,-22.99483 31.541753,-20.87471 0.663257,0.66326 -1.694061,2.70557 -5.238494,4.53846 -24.244618,12.53738 -47.749852,41.70434 -56.874532,70.57396 -11.230943,35.533625 -5.660121,78.482517 13.871892,106.946809 l 8.308857,12.1086283 1.293861,-19.8141193 c 1.596421,-24.447424 6.067978,-40.089167 16.363617,-57.240784 15.640094,-26.055014 37.796903,-43.856764 70.082663,-56.307464 23.43573,-9.03778 52.54915,-11.13925 74.07517,-5.34691 7.8706,2.11786 17.29021,4.47267 20.93247,5.23291 6.81442,1.42235 7.94449,2.11578 31.48507,19.31978 24.62386,17.99566 44.17759,47.0372 52.0027,77.235396 4.41785,17.049008 4.51106,51.4588547 0.17812,65.742082 -4.87102,16.056855 -4.98531,15.887995 9.33284,13.788293 8.56419,-1.255885 21.9169,-6.496103 41.27941,-16.199936 25.85191,-12.9560993 29.89817,-14.336813 41.82981,-14.2737383 21.38754,0.1129404 36.61665,9.3215963 43.69674,26.4219953 1.74783,4.221486 4.27017,14.789016 5.60517,23.483386 3.02854,19.72381 4.30473,23.054475 15.42732,40.263258 11.07491,17.135044 13.40577,25.196164 13.38804,46.301754 -0.0277,33.15637 -12.61653,61.30796 -46.2561,103.44048 -12.07016,15.11751 -23.68137,31.70811 -25.80267,36.86805 -3.9994,9.72818 -8.59446,13.1573 -5.95584,4.44461 2.5457,-8.40579 9.96535,-19.51368 27.5732,-41.27942 29.3535,-36.28502 41.33359,-58.79725 46.21911,-86.85201 4.5466,-26.10846 1.37986,-39.39218 -16.2237,-68.054925 -4.52669,-7.3705 -8.92015,-18.229364 -10.24357,-25.31804 -7.10594,-38.061338 -9.70806,-43.405448 -25.04701,-51.440491 -6.44096,-3.373971 -13.10379,-4.81023 -22.38069,-4.824408 -11.8108,-0.01762 -15.79639,1.323495 -37.64262,12.670601 -24.12617,12.531284 -42.52834,18.996324 -54.21634,19.047246 -4.46395,0.01981 -6.89826,1.767485 -9.51901,6.83543 -1.93668,3.745111 -4.02378,6.306724 -4.63805,5.692487 -0.61423,-0.61426 -0.0458,-3.117949 1.26313,-5.563783 2.93852,-5.49069 2.98754,-6.938002 0.23492,-6.938002 -1.91088,0 -8.86282,11.134567 -8.86282,14.1951 0,0.662385 8.5228,0.860945 18.93957,0.441238 18.05167,-0.727354 20.04308,-1.337916 42.47843,-13.023953 27.90482,-14.534955 46.03436,-19.166725 59.37593,-15.169491 12.13886,3.636882 16.67243,10.975371 23.28111,37.685067 3.43009,13.863124 8.1573,26.630375 12.16247,32.848463 17.85516,27.720451 18.34685,28.871171 19.40922,45.425171 1.92393,29.97907 -7.36802,50.78755 -43.081,96.476 -11.10729,14.20983 -22.93994,31.73542 -26.29473,38.94573 -6.63641,14.26337 -11.61891,18.32295 -6.01354,4.89963 5.88103,-14.08343 13.07094,-24.96182 33.82808,-51.18233 22.65995,-28.62409 34.01325,-49.76045 37.61023,-70.01871 3.29664,-18.56649 1.09072,-30.89981 -8.24716,-46.11052 -15.72491,-25.614661 -18.03414,-30.733748 -22.49592,-49.86908 -5.15129,-22.092567 -9.44479,-30.704266 -17.0315,-34.160994 -12.96402,-5.906786 -38.43859,-0.500813 -59.91712,12.715051 -14.09548,8.673036 -27.42353,13.029126 -45.54489,14.885709 -12.00947,1.230413 -15.8883,2.618105 -20.21359,7.231624 l -5.35235,5.709042 3.55339,-5.976862 c 5.55799,-9.348697 4.07175,-10.190687 -3.05135,-1.728628 -3.56745,4.23802 -6.51291,6.588415 -6.54549,5.22309 -0.0325,-1.365303 1.42683,-3.715698 3.24312,-5.22309 4.01674,-3.333594 4.29432,-6.629651 0.5504,-6.535533 -3.49463,0.08784 -11.38421,10.745792 -9.41344,12.716525 2.04858,2.048582 12.78236,3.053092 30.47552,2.851978 15.27305,-0.173483 16.89048,-0.68526 56.37142,-17.833147 28.70569,-12.467858 51.11449,-10.998619 57.08493,3.742822 1.37175,3.38698 4.44774,15.982464 6.83554,27.989996 3.73547,18.784627 5.81212,24.008507 14.87816,37.426677 10.4036,15.39781 10.53671,15.81729 10.53671,33.20736 0,15.76928 -0.83916,19.34062 -8.01816,34.12431 -4.68195,9.64151 -15.04334,24.75607 -24.90228,36.32589 -20.35638,23.88895 -30.96009,39.48621 -35.89298,52.7958 -3.70111,9.98609 -8.77625,14.27886 -5.90581,4.99538 4.7511,-15.36583 15.86091,-32.37816 39.17058,-59.9817 19.36366,-22.93061 26.35941,-34.85144 31.11099,-53.01351 4.51909,-17.2734 2.55243,-29.23998 -7.15061,-43.50947 -11.0661,-16.27403 -15.16354,-26.64 -18.26221,-46.200894 -1.61437,-10.190907 -4.66777,-20.079056 -7.47817,-24.217257 -4.63415,-6.823608 -5.14871,-6.991588 -21.13723,-6.900861 -14.75504,0.08366 -18.58054,1.108865 -38.40315,10.291234 -27.41726,12.700387 -35.5947,14.906095 -55.32005,14.921528 -11.25073,0.0088 -16.46747,0.946917 -18.43251,3.314637 -3.86643,4.658784 -7.79615,4.134107 -4.1223,-0.550391 2.74747,-3.503312 2.66727,-3.574709 -0.88444,-0.787061 -2.14827,1.686138 -3.38449,3.587148 -2.74713,4.22448 0.63733,0.637333 -0.40944,2.89165 -2.32614,5.009559 -3.27001,3.613347 -2.69335,3.950628 9.35187,5.469754 17.70074,2.232414 35.45699,-1.292827 60.45091,-12.001631 34.6149,-14.830979 58.94334,-14.701131 66.50429,0.354958 1.95735,3.897635 4.51372,13.811343 5.68082,22.030485 1.56836,11.04465 4.83744,19.92536 12.52891,34.03555 17.21908,31.58884 14.87542,39.97944 -25.67549,91.92098 -13.23455,16.95208 -27.62956,37.58205 -31.9889,45.84439 -8.22873,15.59598 -12.41309,18.80726 -6.7049,5.14564 4.27295,-10.22664 16.3744,-27.75199 39.7698,-57.59474 23.68858,-30.21675 33.11734,-48.25795 31.5046,-60.28172 -0.63326,-4.72136 -5.28982,-15.55028 -10.34789,-24.06428 -7.00402,-11.78954 -9.95436,-19.82121 -12.3755,-33.68974 -4.98485,-28.554046 -9.0954,-32.114224 -34.69086,-30.04607 -9.45168,0.763702 -20.25228,4.024467 -35.58607,10.743655 l -22.01569,9.647164 -29.72117,0.176786 c -25.30324,0.150367 -30.99986,0.838446 -38.32333,4.628605 l -8.60215,4.45189 10.80371,3.85608 c 6.15966,2.19851 20.2673,4.34113 32.8194,4.98454 l 22.0157,1.12849 26.41882,-10.47815 c 48.23109,-19.129232 57.76232,-17.01949 64.91205,14.36834 1.51698,6.65975 6.60347,19.16554 11.30327,27.79065 4.69979,8.62511 8.53315,18.53217 8.51855,22.01569 -0.0328,7.85105 -6.70943,19.694 -23.65566,41.9606 -18.439,24.22803 -43.7523,63.08117 -47.06285,72.23631 -2.34378,6.4815 -6.30987,10.59703 -6.30987,6.54751 z M 182.59601,114.751 c 0,-2.84984 -2.8225,-3.72897 -16.05834,-5.00171 -7.25535,-0.69766 -10.29736,-0.23581 -9.73205,1.47755 1.37946,4.18101 25.79039,7.51665 25.79039,3.52416 z m 30.27157,-1.39345 c 8.39331,-2.06102 5.61453,-6.15649 -11.55823,-17.035014 -9.08149,-5.752897 -16.51177,-10.837486 -16.51177,-11.299111 0,-2.359421 82.20719,-115.506869 83.92142,-115.506869 1.10503,0 8.136,4.458176 15.62436,9.907059 16.94508,12.3300193 19.82607,12.5814389 18.92145,1.651177 -0.52915,-6.393217 -1.62539,-8.258369 -4.85898,-8.266899 -5.91876,-0.01563 -12.17012,-20.575275 -7.33184,-24.113116 3.91899,-2.865635 2.02078,-8.812371 -7.60423,-23.822722 -4.79854,-7.483372 -7.81009,-10.182401 -10.43271,-9.350021 -2.43353,0.77237 -7.83239,-2.84503 -15.88102,-10.640731 -21.07826,-20.415913 -48.50698,-33.210913 -76.83929,-35.844113 -12.63881,-1.17465 -15.33328,-2.10706 -15.33328,-5.30597 0,-2.52549 -1.34557,-3.60848 -3.85275,-3.10092 -2.119,0.42897 -8.60394,1.39442 -14.41094,2.14545 -8.84788,1.14432 -10.35567,2.00365 -9.30791,5.30486 0.98708,3.10999 -1.14155,4.93335 -10.1107,8.66077 -10.25201,4.26053 -11.60958,4.38149 -13.90736,1.23908 -2.23106,-3.05113 -4.16984,-2.25751 -15.656988,6.4091 -22.055438,16.639979 -38.300566,42.235806 -44.064119,69.427453 -4.434987,20.923649 -4.131786,28.307238 1.232327,30.00974 3.190581,1.012652 4.40314,3.331041 4.40314,8.4187773 0,3.8617063 0.93644,10.2864332 2.080968,14.2772178 1.633166,5.6945109 1.396287,7.5186649 -1.100777,8.4768759 -5.081597,1.949996 -3.794907,7.821271 6.004911,27.40068 15.098702,30.166292 43.931158,55.363335 76.499988,66.854286 8.0721,2.84802 8.9808,2.81408 8.9808,-0.33531 0,-2.90191 1.75502,-3.26339 10.21432,-2.10392 5.6179,0.77 13.04819,1.40003 16.51177,1.40003 4.95676,0 6.29744,0.99777 6.29744,4.68676 0,4.3776 0.76246,4.58732 11.55823,3.17926 6.35703,-0.82912 13.78733,-2.05488 16.51177,-2.72386 z M 174.91721,73.540681 c 0.87919,-2.11901 1.64566,-5.091128 1.70325,-6.604707 0.0576,-1.513578 1.98845,-2.751961 4.29082,-2.751961 3.99893,0 3.97582,0.29534 -0.51684,6.604706 -5.21393,7.322286 -7.94231,8.693115 -5.47723,2.751962 z m -12.68918,-3.725055 c -4.79736,-3.507936 -4.76933,-5.409276 0.17452,-11.835237 l 3.9259,-5.10284 5.38182,4.479201 c 2.96,2.463556 4.34158,4.512159 3.07018,4.552449 -1.27141,0.04029 -3.5005,-1.115602 -4.95353,-2.568637 -1.46772,-1.46772 -2.64189,-1.663418 -2.64189,-0.440314 0,1.210863 1.18885,3.390416 2.64189,4.843452 1.46771,1.467719 1.6634,2.641882 0.44031,2.641882 -1.21086,0 -3.39042,-1.188847 -4.84345,-2.641882 -1.46772,-1.46772 -2.64189,-1.663417 -2.64189,-0.440314 0,1.210863 1.17234,3.373904 2.6052,4.80675 3.75394,3.753962 1.38869,5.030872 -3.15905,1.70549 z m 16.06285,-18.014227 c -4.18412,-2.970466 -7.97842,-5.771786 -8.4318,-6.225155 -1.56504,-1.565051 6.64638,-12.214194 9.41821,-12.214194 1.52877,0 4.1315,1.628963 5.78384,3.61993 2.69072,3.242096 2.43343,3.43874 -2.46512,1.883993 -5.06431,-1.607344 -5.22737,-1.444296 -2.20157,2.201568 3.00393,3.619511 2.86919,3.81096 -1.66845,2.370782 -6.09084,-1.933176 -6.47697,1.111791 -0.60592,4.778329 3.24803,2.028415 5.86171,2.100185 10.45744,0.287106 5.74229,-2.265414 5.85057,-2.539091 1.72398,-4.357631 -4.36417,-1.923246 -4.36439,-1.935487 -0.0253,-1.383444 6.03015,0.767202 6.91139,7.476506 1.21931,9.283113 -2.50817,0.796065 -3.99211,2.366752 -3.29763,3.490455 2.13819,3.459655 -1.93702,1.923335 -9.90701,-3.734852 z m 20.2665,-15.644765 c -1.51358,-0.52798 -2.75196,-2.484757 -2.75196,-4.348406 0,-2.762331 0.61021,-2.882031 3.30235,-0.647746 2.70464,2.244653 3.30235,2.09422 3.30235,-0.831224 0,-1.964549 1.23839,-3.587082 2.75197,-3.60562 1.83464,-0.02248 1.65117,-0.745099 -0.55039,-2.167863 -2.77961,-1.796325 -2.65184,-2.139484 0.80716,-2.167862 3.1923,-0.0262 3.81323,1.071878 2.78202,4.919824 -0.73012,2.724441 -1.34102,5.590575 -1.35756,6.36916 -0.0441,2.075067 -5.10449,3.589482 -8.28594,2.479737 z M 186.23293,27.93798 c -3.95705,-2.997965 -3.95705,-3.235535 0,-8.66707 4.76839,-6.545199 7.89729,-7.091847 12.03762,-2.103049 2.69071,3.242097 2.43343,3.438741 -2.46513,1.883992 -5.0643,-1.607343 -5.22737,-1.444295 -2.20157,2.20157 3.02558,3.645599 2.8611,3.810651 -2.21883,2.226534 -5.46244,-1.703376 -5.46815,-1.69021 -1.2927,2.984799 4.71239,5.27617 2.35027,6.177844 -3.85939,1.473224 z m 27.18503,-13.35835 c 0,-1.778295 -1.23837,-3.264772 -2.75195,-3.303277 -4.19075,-0.106553 5.22339,-6.5346963 9.5703,-6.5346963 3.23545,0 3.41138,0.7813147 1.2304,5.4645133 -2.94995,6.334464 -8.04875,9.104985 -8.04875,4.37346 z M 201.84139,8.8702808 c -4.80817,-2.6908015 -4.78961,-6.0830013 0.0673,-12.2997903 l 3.80377,-4.8688355 5.50393,4.3750013 5.50393,4.37498017 -6.60472,-1.41873472 c -6.40984,-1.37688355 -6.47479,-1.31024235 -2.20156,2.25900725 4.35516,3.6376734 4.34917,3.6628815 -0.5504,2.3145971 -5.10594,-1.4050855 -7.1131,2.1985084 -2.20156,3.95263 1.51357,0.5405735 2.24835,1.539535 1.63284,2.2199083 -0.61553,0.6803946 -2.84462,0.2714526 -4.95354,-0.9087636 z m 29.0528,-14.8817464 c 3.0435,-5.6868284 -0.74115,-6.3960424 -4.29637,-0.8051129 -2.00143,3.1474509 -2.19276,2.6546072 -1.04511,-2.6921893 1.39603,-6.5039072 1.3762,-6.5190122 -3.16339,-2.4107402 -5.108,4.6226794 -5.91428,3.3458349 -1.92301,-3.045228 2.51521,-4.027458 2.95222,-4.054316 8.89067,-0.546387 6.51447,3.848186 7.65397,11.3196502 2.01013,13.1799543 -2.36529,0.7796633 -2.46104,0.034562 -0.47292,-3.6802969 z M 208.5039,-17.274031 c -1.51238,-2.421726 -4.52399,-4.403138 -6.69246,-4.403138 -4.93034,0 -7.43878,-6.042721 -4.46528,-10.756695 3.27452,-5.191185 12.54994,-4.602091 13.37772,0.849636 l 0.66855,4.403137 -3.52649,-4.403137 c -3.45219,-4.310375 -3.59171,-4.315137 -6.6222,-0.226053 -3.13419,4.229008 -2.32181,8.986583 1.16638,6.830759 1.04354,-0.644934 2.54933,-0.11763 3.34624,1.171776 1.00161,1.620657 2.44197,1.520216 4.66575,-0.325359 2.56151,-2.125861 3.94069,-1.945898 6.76999,0.883386 2.93103,2.931042 3.05721,4.150663 0.7207,6.96598 -3.77366,4.546984 -6.10398,4.301729 -9.4089,-0.990292 z m 7.11564,-2.201568 c 0,-1.210865 -0.9907,-2.20157 -2.20158,-2.20157 -1.21085,0 -2.20156,0.990705 -2.20156,2.20157 0,1.210863 0.99071,2.201568 2.20156,2.201568 1.21088,0 2.20158,-0.990705 2.20158,-2.201568 z m 18.16294,-49.892566 c -1.51357,-0.610747 -2.75196,-2.077063 -2.75196,-3.25848 0,-1.181416 0.87885,-1.604871 1.95302,-0.941018 1.07414,0.663863 1.81717,-0.516042 1.65117,-2.622029 -0.35784,-4.539577 5.48336,-5.186772 6.95541,-0.770638 0.57336,1.720062 0.0221,2.441278 -1.2624,1.648137 -1.40334,-0.867317 -1.83824,0.286112 -1.12962,2.995908 1.14459,4.376928 -0.14069,5.0766 -5.41562,2.94812 z m -11.00784,-6.604715 c -3.84476,-1.55139 -3.42945,-6.246798 0.86797,-9.813342 3.21788,-2.670612 3.44591,-2.456039 2.0532,1.931999 -1.79329,5.65016 1.92367,6.860457 4.05021,1.318802 0.76347,-1.989594 1.94043,-3.065152 2.61548,-2.390114 1.51537,1.515362 -3.09023,10.476677 -5.26118,10.236907 -0.86555,-0.09553 -2.81211,-0.673505 -4.32568,-1.284252 z m -9.35668,-6.143841 c 0,-0.548452 1.14974,-3.520576 2.55497,-6.604703 2.82059,-6.190532 6.25131,-7.4556 6.25131,-2.305155 0,1.816284 -0.9907,3.302346 -2.20156,3.302346 -1.21087,0 -2.20158,1.486062 -2.20158,3.302352 0,1.8163 -0.9907,3.302351 -2.20156,3.302351 -1.21086,0 -2.20158,-0.448727 -2.20158,-0.997191 z m -9.35666,-7.299118 c -6.68905,-4.122554 -7.11173,-5.428328 -3.77528,-11.662531 2.64093,-4.93463 6.52724,-5.65674 6.52724,-1.21282 0,1.67506 1.98141,3.563731 4.40314,4.197026 5.08629,1.330088 5.52211,3.644262 1.65118,8.767459 -2.5576,3.384983 -3.17956,3.378684 -8.80628,-0.08913 z m 4.58926,-7.386395 c -4.27837,-2.712001 -6.24044,-2.345271 -6.24044,1.166403 0,2.054206 1.54452,2.692344 4.58925,1.896136 3.48918,-0.912447 3.88497,-1.646548 1.65119,-3.062539 z m -21.69557,-3.083825 c -1.53167,-1.845551 -2.0127,-4.074651 -1.06895,-4.953531 0.94376,-0.87888 2.15819,-0.35959 2.69875,1.15399 0.54057,1.51358 1.92586,2.75196 3.07842,2.75196 1.20381,0 1.03894,-1.9743 -0.38743,-4.6395 -2.93563,-5.48528 -0.13308,-9.37615 5.26228,-7.30576 4.25455,1.63263 4.44981,3.00418 1.52342,10.70116 -2.41747,6.358434 -6.95445,7.294587 -11.10649,2.291681 z m 11.05199,-7.652291 c 0,-1.21086 -1.04917,-2.20156 -2.33149,-2.20156 -1.28232,0 -1.71921,0.9907 -0.97086,2.20156 0.74836,1.21087 1.79754,2.20158 2.33151,2.20158 0.53396,0 0.97084,-0.99071 0.97084,-2.20158 z M 227.7327,109.0098 c 2.73266,-1.04863 2.96966,-1.83815 0.9301,-3.09867 -3.165,-1.95606 -8.64012,-0.34663 -8.64012,2.53981 0,2.31752 2.63019,2.50818 7.71002,0.55886 z m 23.49651,-14.499882 c -1.02395,-1.023949 -6.08276,0.535906 -11.24183,3.466305 -5.69282,3.233567 -8.21515,5.752057 -6.41654,6.406747 3.98326,1.44986 20.01674,-7.514687 17.65837,-9.873052 z m -29.00497,8.574762 c 0,-0.40017 -4.45817,-3.929209 -9.90705,-7.842299 -5.44889,-3.913091 -9.90707,-8.013029 -9.90707,-9.110994 0,-1.097967 5.56055,1.898874 12.35677,6.659657 l 12.35677,8.655946 8.74576,-4.461759 8.74574,-4.461744 -12.84663,-7.698489 c -13.80269,-8.271426 -20.75097,-14.036279 -16.91765,-14.036279 1.30703,0 4.73912,1.845245 7.62686,4.100533 9.17334,7.164301 24.07518,13.773366 28.14388,12.482014 2.16134,-0.685986 6.10187,-3.559387 8.75671,-6.385343 l 4.82699,-5.138086 -9.81569,-3.748656 c -11.054,-4.221552 -28.85313,-16.364415 -26.87975,-18.337813 0.71065,-0.710622 3.04733,0.29642 5.19262,2.237896 2.1453,1.941452 10.73037,6.72599 19.07792,10.632277 l 15.17737,7.102349 5.1419,-6.426115 c 2.82805,-3.534354 5.14682,-7.040396 5.15283,-7.791176 0.007,-0.750779 -4.46346,-2.61782 -9.93218,-4.148966 -11.33834,-3.17453 -29.68511,-14.116349 -29.68511,-17.703871 0,-1.319994 3.11326,-0.18317 6.91833,2.526322 6.9542,4.951812 29.5804,15.037926 33.95333,15.135389 1.28931,0.02884 3.90521,-3.221225 5.81311,-7.222137 l 3.46893,-7.274401 -10.36233,-3.680384 c -11.71928,-4.162308 -24.69905,-12.345099 -26.03439,-16.412762 -0.49096,-1.495547 4.18407,0.697193 10.38895,4.872755 10.32204,6.946236 25.18139,11.997691 27.74656,9.432511 1.92858,-1.928574 7.7706,-33.1631106 7.07353,-37.8189436 -0.55358,-3.6976229 -2.60548,-1.9274957 -10.56281,9.1121605 -5.43167,7.5356831 -10.66108,13.7275951 -11.62094,13.7598051 -0.95984,0.03214 -7.17183,-3.950341 -13.80439,-8.850087 C 253.98055,6.3442223 247.67645,2.8776328 246.604,3.5404363 243.37617,5.5353443 190.79438,80.478309 190.53857,83.44851 c -0.2474,2.872651 24.13714,19.88868 28.93372,20.19055 1.51357,0.0953 2.75195,-0.15433 2.75195,-0.55438 z m 44.03138,-17.985763 c 4.10764,-4.23802 6.23049,-7.705491 4.71739,-7.705491 -3.89306,0 -17.86921,11.521492 -16.5552,13.64759 1.91096,3.092016 4.19077,1.947641 11.83781,-5.942099 z m 25.35149,-34.188976 c 1.89686,-3.668144 2.76538,-7.775237 1.93002,-9.126868 -0.91312,-1.477473 -3.06031,0.523401 -5.3842,5.017309 -3.40116,6.577121 -3.75552,10.778925 -0.909,10.778925 0.50285,0 2.4663,-3.001223 4.36318,-6.669366 z m 9.14604,-24.316217 c 2.96659,-11.226107 3.75662,-32.8599109 1.19999,-32.8599109 -0.95104,0 -2.85632,7.6779717 -4.23397,17.0621579 -1.37766,9.384187 -3.22653,19.423891 -4.10861,22.310434 -1.21452,3.974337 -0.85479,5.003417 1.482,4.239517 1.69719,-0.55484 4.24447,-5.393315 5.66059,-10.752198 z m 9.0982,1.140479 c 2.0289,-5.46392 3.31926,-17.659356 3.48098,-32.8996057 0.214,-20.1729623 -0.29447,-24.2172573 -3.04534,-24.2172573 -2.62756,0 -3.19372,2.699148 -2.77073,13.209413 0.51149,12.7086883 -2.21978,38.353464 -5.24846,49.279652 -2.4698,8.910079 3.97562,4.344135 7.58355,-5.372202 z M 283.78311,4.608638 c 5.14755,-7.3383345 9.00623,-13.5915825 8.57486,-13.8961032 -0.43138,-0.3045219 -5.91018,-4.2365698 -12.17511,-8.7378678 l -11.39081,-8.184179 -8.9737,12.531629 c -4.93554,6.8923901 -8.95933,13.1133853 -8.94178,13.8244041 0.0227,0.9209821 20.90583,16.7879729 23.31595,17.7154949 0.12725,0.04909 4.44303,-5.915044 9.59059,-13.253378 z m -19.24619,1.104065 c -8.54512,-5.98522933 -6.18005,-17.68529 4.33015,-21.421175 4.64602,-1.651447 15.0011,6.206001 15.0011,11.3828575 0,9.5780355 -11.47851,15.5385835 -19.33125,10.0383175 z m 13.82733,-9.7773214 c 0,-6.3696226 -0.87979,-7.8302096 -5.07471,-8.4248756 -9.37544,-1.329076 -15.08222,8.3022264 -8.70055,14.6838919 1.50506,1.5050584 5.22021,2.4462292 8.25588,2.0914898 4.71729,-0.551273 5.51938,-1.764799 5.51938,-8.3505061 z M 58.803635,10.933568 C 58.324328,9.4956578 56.755044,7.9268198 55.316318,7.4472526 53.70752,6.9109945 53.215494,7.9174861 54.038277,10.061616 c 1.535648,4.001813 6.08619,4.834468 4.765358,0.871952 z M 57.106584,-4.0646184 c 0,-6.3600906 -0.917311,-8.8062756 -3.302351,-8.8062756 -3.819695,0 -4.201407,3.9533795 -1.155272,11.96530725 3.046189,8.01208015 4.457623,7.01182025 4.457623,-3.15903165 z M 305.40929,-43.384539 c -2.73963,-10.036396 -2.23884,-9.648046 -9.08511,-7.045098 -3.2,1.21664 -5.32499,3.449059 -4.77378,5.015125 5.37974,15.284733 5.14437,15.01109 10.72507,12.468358 4.88438,-2.225476 5.14172,-3.082646 3.13382,-10.438385 z m 4.47742,-2.109602 c -1.30736,-5.150578 -2.80792,-8.933761 -3.33463,-8.407071 -0.52668,0.52669 0.16332,5.12045 1.53335,10.208356 1.37003,5.087904 2.8706,8.871086 3.33463,8.407071 0.46402,-0.464016 -0.22599,-5.057776 -1.53335,-10.208356 z m -6.67665,-11.069688 c 2.18173,-1.384302 1.26107,-4.781205 -4.01846,-14.82687 -9.08975,-17.295535 -12.90886,-21.452589 -16.76695,-18.250646 -2.46411,2.045022 -2.17011,3.775641 1.70723,10.049267 2.57616,4.168346 6.56596,11.474144 8.8662,16.2351 4.35393,9.011587 5.50687,9.77853 10.21198,6.793149 z m -22.29565,-36.698413 c 2.05367,-2.053654 0.35005,-4.838662 -7.66005,-12.522418 -10.29175,-9.87245 -22.87589,-19.36624 -25.67018,-19.36624 -0.81396,0 3.30181,3.59095 9.14613,7.97988 14.11598,10.60069 22.73472,18.755443 22.73472,21.510799 0,1.23643 -4.2105,-1.767123 -9.35666,-6.674559 -5.14616,-4.90744 -12.71565,-11.22451 -16.82105,-14.03793 -7.20705,-4.93899 -7.56745,-4.97438 -10.4541,-1.02662 -2.67687,3.66082 -2.1261,4.78531 5.26281,10.74483 4.53888,3.66087 11.17613,9.841422 14.74943,13.734576 6.70584,7.306146 10.49223,7.234408 18.06895,-0.342318 z m -39.15342,-26.655148 c 3.67732,-8.07082 -1.68103,-16.24135 -10.65131,-16.24135 -3.5332,0 -7.01289,0.95285 -7.73265,2.11744 -0.83055,1.34384 -3.31134,1.35603 -6.79018,0.0334 -11.7984,-4.48575 -33.89517,-6.76073 -38.99504,-4.01475 -4.38713,2.36221 -3.10475,2.94496 12.19117,5.53998 10.56981,1.79321 22.75366,5.80512 31.92275,10.51157 8.1558,4.18633 15.41273,7.66023 16.1265,7.71978 0.71379,0.0596 2.48174,-2.49017 3.92876,-5.66606 z m -116.40578,-8.53586 c 8.6771,-6.40175 7.67209,-6.99153 -3.13337,-1.83878 -4.22724,2.01584 -7.1745,4.4926 -6.54947,5.50393 1.52383,2.4656 1.21426,2.58278 9.68284,-3.66515 z m 52.83766,-14.46512 c 0,-1.41606 -1.57099,-1.3608 -4.40314,0.15492 -2.42173,1.29606 -4.40314,3.34719 -4.40314,4.55806 0,1.41607 1.571,1.3608 4.40314,-0.15492 2.42172,-1.29607 4.40314,-3.3472 4.40314,-4.55806 z m 36.83041,3.22795 c -0.73157,-0.73157 -2.63042,-0.80978 -4.21968,-0.17382 -1.75625,0.7028 -1.23457,1.22448 1.33012,1.33011 2.32082,0.0955 3.62113,-0.42474 2.88956,-1.1563 z m -9.81929,-2.31554 c -1.49054,-0.60307 -4.46266,-0.63978 -6.6047,-0.0815 -2.14206,0.5582 -0.92253,1.0516 2.71006,1.09648 3.63257,0.0449 5.38517,-0.41184 3.89464,-1.0149 z m -14.3521,-2.27508 c -2.11901,-0.55376 -5.58648,-0.55376 -7.70549,0 -2.11901,0.55374 -0.38528,1.00682 3.85274,1.00682 4.23802,0 5.97176,-0.45308 3.85275,-1.00682 z"
       style="fill:#000000;stroke-width:2.20156884" />
  </g>
</svg>
