<?xml version="1.0" encoding="UTF-8" standalone="no"?>
<!-- Created with Inkscape (http://www.inkscape.org/) -->

<svg
   xmlns:dc="http://purl.org/dc/elements/1.1/"
   xmlns:cc="http://creativecommons.org/ns#"
   xmlns:rdf="http://www.w3.org/1999/02/22-rdf-syntax-ns#"
   xmlns:svg="http://www.w3.org/2000/svg"
   xmlns="http://www.w3.org/2000/svg"
   xmlns:sodipodi="http://sodipodi.sourceforge.net/DTD/sodipodi-0.dtd"
   xmlns:inkscape="http://www.inkscape.org/namespaces/inkscape"
   width="500"
   height="500"
   viewBox="0 0 132.29166 132.29167"
   version="1.1"
   id="svg8"
   inkscape:version="0.92.4 5da689c313, 2019-01-14"
   sodipodi:docname="icon.svg">
  <defs
     id="defs2" />
  <sodipodi:namedview
     id="base"
     pagecolor="#ffffff"
     bordercolor="#666666"
     borderopacity="1.0"
     inkscape:pageopacity="0.0"
     inkscape:pageshadow="2"
     inkscape:zoom="0.42657054"
     inkscape:cx="322.0882"
     inkscape:cy="275.94377"
     inkscape:document-units="mm"
     inkscape:current-layer="layer1"
     showgrid="false"
     units="px"
     inkscape:window-width="1920"
     inkscape:window-height="1003"
     inkscape:window-x="0"
     inkscape:window-y="0"
     inkscape:window-maximized="1" />
  <metadata
     id="metadata5">
    <rdf:RDF>
      <cc:Work
         rdf:about="">
        <dc:format>image/svg+xml</dc:format>
        <dc:type
           rdf:resource="http://purl.org/dc/dcmitype/StillImage" />
        <dc:title></dc:title>
      </cc:Work>
    </rdf:RDF>
  </metadata>
  <g
     inkscape:label="Layer 1"
     inkscape:groupmode="layer"
     id="layer1"
     transform="translate(0,-164.70832)">
    <path
       style="fill:#000000;stroke:#000000;stroke-width:0.58291215"
       d="m 88.045705,293.72717 c 0.701779,-2.19313 3.20395,-6.13051 9.112601,-14.3395 3.125974,-4.34299 6.649044,-9.2398 7.829044,-10.88184 3.23526,-4.50203 3.27754,-5.34549 0.5198,-10.37025 -1.30668,-2.38084 -2.73818,-5.82848 -3.18112,-7.66142 -1.33306,-5.51642 -1.83307,-5.99231 -6.010182,-5.72023 -2.548567,0.16599 -5.244837,0.9514 -9.492449,2.76511 -5.841763,2.49442 -6.032884,2.5333 -12.45883,2.53546 -5.249873,0.002 -7.287864,-0.2521 -10.421746,-1.29816 -3.74404,-1.24971 -3.998084,-1.26378 -6.526058,-0.3615 -3.975176,1.41879 -14.198633,1.73085 -18.952917,0.57851 -13.171334,-3.19248 -24.153193,-13.57445 -27.638244,-26.1285 -0.567279,-2.0435 -1.6245418,-4.35978 -2.3494634,-5.14728 -3.5133521,-3.81665 -6.4509428,-10.7497 -7.4279512,-17.53086 -1.24514183,-8.64213 2.3831974,-19.7204 8.6694229,-26.47002 2.5021717,-2.68662 9.2178427,-7.54461 10.4296477,-7.54461 1.272474,0 0.295751,1.13224 -2.589041,3.00128 -6.30007,4.08176 -10.9242888,9.77716 -13.6376347,16.79668 -1.1043415,2.85698 -1.3096443,4.53649 -1.2904169,10.5566 0.025181,7.8695 0.6976199,10.32712 4.54476,16.60911 l 1.9290804,3.15 0.1596505,-2.29091 c 0.7157463,-10.27086 3.7072577,-17.36774 9.8632037,-23.39887 2.932116,-2.87267 5.082801,-4.32662 9.396465,-6.35241 8.920083,-4.18905 16.201769,-5.2018 24.483239,-3.40517 2.284125,0.49555 5.110225,1.09303 6.280252,1.32777 1.170016,0.23474 2.638373,0.86762 3.263029,1.4064 0.624645,0.53879 2.788359,2.13778 4.808255,3.5533 6.274277,4.39698 10.879706,10.57679 13.494438,18.10756 2.414057,6.95286 2.594362,13.03449 0.612422,20.65765 -0.391695,1.50657 -0.338468,1.54757 1.586657,1.22201 3.935692,-0.66555 8.026019,-2.18168 14.003067,-5.19037 5.475944,-2.75646 6.446094,-3.05844 9.789084,-3.04711 4.25569,0.0144 7.63077,1.28335 10.057,3.78111 2.17924,2.2435 3.19643,4.82495 4.03422,10.23814 0.54561,3.52529 1.37447,5.81988 3.59449,9.95084 4.97731,9.26166 5.94748,18.1115 2.94427,26.85714 -2.18127,6.35206 -4.77328,10.19387 -11.92099,17.66906 -2.1455,2.2438 -4.24695,4.88609 -4.66988,5.87176 -0.42292,0.98569 -1.13704,1.79215 -1.58691,1.79215 -2.21803,0 0.27506,-3.91272 6.79789,-10.66881 7.59418,-7.86577 10.74344,-14.35726 11.21864,-23.12467 0.35429,-6.53682 -0.4159,-10.53902 -2.92026,-15.17474 -1.02105,-1.88999 -2.36621,-4.38065 -2.98928,-5.53478 -0.62305,-1.15413 -1.49541,-4.24686 -1.93856,-6.87274 -0.99028,-5.86774 -1.70772,-7.74647 -3.75646,-9.83681 -2.49095,-2.54153 -4.7795,-3.44175 -8.7131,-3.42735 -3.18621,0.0117 -4.3141,0.38702 -10.75063,3.57767 -5.336427,2.64533 -8.295998,3.74438 -11.475766,4.2616 -2.876198,0.46784 -4.471399,1.01883 -4.852388,1.67605 -0.411055,0.70906 -0.348397,0.97908 0.22716,0.97908 2.321805,0 8.250723,-2.0435 13.642375,-4.70206 5.859685,-2.88935 6.273029,-3.00339 10.933359,-3.01633 4.43959,-0.0123 5.05555,0.13049 7.38751,1.71268 3.43797,2.3326 4.55588,4.40411 5.60477,10.38571 0.66071,3.76787 1.64357,6.55593 3.82685,10.85559 3.42313,6.74137 4.46359,11.80518 3.60642,17.55215 -1.12312,7.53022 -3.9779,12.54322 -12.72587,22.34671 -2.7452,3.07643 -5.32121,6.36245 -5.72446,7.30227 -0.40326,0.93983 -1.10127,1.70878 -1.55114,1.70878 -0.44987,0 -0.81794,-0.13913 -0.81794,-0.30918 0,-1.21241 3.04789,-5.49829 7.15307,-10.05852 9.28116,-10.30992 12.38013,-16.51796 12.40729,-24.85505 0.0147,-4.50977 -0.72729,-6.9926 -3.87875,-12.97917 -1.94011,-3.68545 -2.85684,-6.33296 -3.56548,-10.29708 -1.40361,-7.85174 -2.85318,-9.89712 -8.25012,-11.64108 -3.93917,-1.2729 -5.65384,-0.90522 -14.545005,3.11893 -4.231494,1.91517 -8.689761,3.51985 -10.382363,3.73693 -4.23441,0.5431 -4.656923,0.70153 -5.549162,2.08076 -0.795,1.2289 -0.776568,1.23458 2.950691,0.90831 2.975903,-0.26051 5.121154,-0.99653 10.384963,-3.56306 10.605796,-5.17118 17.041806,-5.48392 20.180816,-0.98063 0.72225,1.03615 1.88957,4.32643 2.59406,7.31175 0.76105,3.22502 2.11126,6.87669 3.32699,8.9979 3.1394,5.47761 3.8881,7.3132 4.37626,10.72917 1.1061,7.7403 -1.85046,15.39959 -9.07819,23.51789 -6.07309,6.82143 -8.57882,10.10559 -9.41646,12.34181 -0.66744,1.78184 -2.26827,2.73357 -2.26827,1.34856 0,-1.56847 3.37844,-6.57556 8.1571,-12.08941 2.90518,-3.35215 6.10868,-7.34692 7.11889,-8.87728 3.72009,-5.63551 5.19121,-12.84215 3.68805,-18.06674 -0.33412,-1.16133 -1.79684,-4.1252 -3.25047,-6.58636 -1.87286,-3.17094 -3.01464,-6.06025 -3.91845,-9.91576 -2.10486,-8.97893 -3.81576,-10.69927 -10.09402,-10.14969 -2.946181,0.25789 -4.998904,0.97672 -10.124237,3.54531 -5.415345,2.71394 -7.221833,3.32427 -11.459414,3.87162 -3.954267,0.51074 -5.307106,0.93388 -6.322845,1.97764 l -1.292221,1.32785 h 2.447323 c 4.010736,0 8.18466,-1.10938 13.960605,-3.71055 13.715239,-6.17661 18.570609,-4.75029 21.158329,6.21549 0.82101,3.47908 2.26056,7.28693 3.96864,10.49767 2.64461,4.97118 2.67711,5.10079 2.43903,9.72807 -0.20438,3.97264 -0.57105,5.33006 -2.39795,8.87727 -1.19528,2.32082 -3.92019,6.10235 -6.1127,8.48299 -5.28375,5.7371 -8.4247,9.87053 -9.828474,12.93408 -1.188163,2.59298 -2.29013,3.32162 -2.29013,1.51426 0,-1.82381 4.316734,-8.11419 9.649044,-14.06066 10.04514,-11.20211 11.92458,-18.45193 7.00452,-27.01952 -1.7039,-2.96712 -2.7498,-5.86692 -4.48572,-12.43695 -2.17186,-8.21993 -6.38732,-8.84547 -19.287178,-2.86205 -5.303039,2.45973 -5.987202,2.62874 -11.576235,2.85972 -5.084279,0.21011 -6.187112,0.43562 -7.654653,1.56526 l -1.714562,1.31979 3.39497,0.40948 c 4.500484,0.54282 8.878233,-0.35785 15.65439,-3.22071 6.008652,-2.53861 12.537038,-3.49998 15.689518,-2.31044 2.31394,0.87313 3.78007,3.55044 4.49669,8.21146 0.40013,2.60248 1.47411,5.72677 3.03038,8.81557 4.5531,9.03671 3.48744,12.08329 -9.99563,28.57616 -2.31764,2.83501 -4.946186,6.50701 -5.841228,8.16001 -1.937471,3.57823 -3.661472,4.25178 -2.202444,0.86045 1.31308,-3.05207 3.285733,-5.84681 9.196802,-13.02955 5.65099,-6.86668 9.16464,-12.55895 9.7857,-15.85323 0.3309,-1.75519 -0.0467,-3.04856 -2.25733,-7.73183 -1.51724,-3.2143 -2.95627,-7.34184 -3.35852,-9.63315 -0.85549,-4.87308 -1.73407,-6.28244 -4.45729,-7.15006 -2.863591,-0.91233 -7.398523,0.0399 -14.563673,3.05789 l -5.636133,2.37399 -8.009249,0.0302 c -5.456002,0.0206 -8.465038,0.27085 -9.438998,0.78507 -1.877036,0.99103 -1.12102,1.38557 4.987877,2.60307 6.116911,1.21911 8.957059,0.8352 17.319038,-2.34101 12.841573,-4.87775 16.109808,-4.01171 17.709678,4.69282 0.22725,1.23642 1.44951,4.08385 2.71612,6.32763 3.64315,6.45374 3.27479,8.04692 -4.03498,17.45176 -5.438046,6.99664 -11.913527,16.56871 -12.720548,18.80353 -0.749878,2.07658 -2.624518,2.52635 -1.967137,0.47195 z M 45.541159,248.38902 c -0.526337,-0.50215 -6.476623,-1.30097 -6.476623,-0.86947 0,0.25108 0.734188,0.56387 1.631514,0.6951 2.38071,0.34815 5.131002,0.44714 4.845109,0.17437 z m 7.416462,-0.26147 c 0.951991,-0.19898 1.830456,-0.65076 1.952141,-1.00397 0.121685,-0.35321 -1.791858,-1.85346 -4.252322,-3.33388 -2.460464,-1.48041 -4.47357,-2.81344 -4.47357,-2.96227 0,-0.14884 4.317905,-6.12269 9.595345,-13.27523 5.27744,-7.15255 10.283219,-13.96561 11.123954,-15.14013 0.840745,-1.17453 1.810657,-2.14101 2.155364,-2.14773 0.344717,-0.007 2.510469,1.26895 4.812812,2.83485 2.302332,1.5659 4.31032,2.72713 4.462182,2.58053 0.151862,-0.1466 0.158336,-1.04119 0.01438,-1.98799 -0.173495,-1.14104 -0.602564,-1.72144 -1.272617,-1.72144 -0.701382,0 -1.316506,-0.93598 -2.00914,-3.05716 -1.216495,-3.72551 -1.219054,-3.81557 -0.10834,-3.81557 1.150024,0 1.130297,-0.15982 -0.374109,-3.02964 -2.076568,-3.96128 -3.434893,-5.54284 -4.440528,-5.17032 -0.593694,0.21994 -1.994368,-0.68362 -3.983302,-2.56959 -5.633677,-5.34202 -13.199604,-8.80286 -21.014275,-9.61246 -2.551667,-0.26435 -3.707981,-0.62897 -3.707981,-1.16926 0,-0.85206 -2.157893,-1.02712 -5.265339,-0.42715 -1.295738,0.25017 -1.853995,0.68556 -1.853995,1.44599 0,0.66686 -0.631558,1.30883 -1.631515,1.65841 -0.897336,0.31371 -2.223109,0.86163 -2.946164,1.21761 -0.999866,0.49226 -1.528568,0.47585 -2.208041,-0.0686 -1.198348,-0.96009 -3.888878,0.64755 -7.839485,4.68423 -5.042256,5.15211 -7.901092,11.21412 -8.795002,18.64932 -0.39562,3.2906 -0.340813,3.55503 0.736757,3.55503 0.918572,0 1.238832,0.51351 1.518108,2.43409 0.194659,1.33875 0.531302,3.27171 0.748074,4.29546 0.316029,1.49246 0.20307,1.86136 -0.56993,1.86136 -1.321664,0 -1.226312,0.61856 0.730304,4.73758 3.633223,7.64857 9.962154,13.96168 17.561684,17.51776 5.122693,2.39708 6.254877,2.66435 6.254877,1.47652 0,-0.80521 0.382937,-0.91152 2.22479,-0.61762 1.223641,0.19524 3.225951,0.35783 4.449582,0.3613 1.827102,0.005 2.224791,0.21106 2.224791,1.15175 0,0.95387 0.37212,1.13413 2.22479,1.0777 1.223641,-0.0373 3.003694,-0.23057 3.955684,-0.42955 z m -10.236272,-8.40898 c 0.114661,-0.91336 -0.116057,-1.69172 -0.542506,-1.83024 -0.471448,-0.15313 -0.610546,0.0897 -0.381479,0.66594 0.449458,1.13071 -0.83995,1.17019 -2.341674,0.0717 -1.248751,-0.91344 -0.962481,-2.49718 0.716521,-3.96402 1.00586,-0.87876 1.177785,-0.85141 2.589887,0.41194 0.831875,0.74425 1.967443,1.52172 2.523498,1.72771 0.931835,0.3452 0.916064,0.51926 -0.20151,2.22319 -1.598535,2.43726 -2.619207,2.73697 -2.362737,0.69378 z m 3.462521,-4.14088 c 0,-0.24594 -0.82532,-0.74789 -1.834044,-1.11547 -1.02523,-0.37357 -1.663883,-0.9341 -1.448182,-1.27102 0.223042,-0.34839 -0.137456,-0.60272 -0.854324,-0.60272 -0.682103,0 -1.384617,-0.36332 -1.56113,-0.80739 -0.176523,-0.44408 -0.969066,-0.96445 -1.761223,-1.15638 -1.877637,-0.45493 -2.050418,-3.40796 -0.253707,-4.33622 1.414844,-0.73098 3.559667,0.14388 3.559667,1.45196 0,1.02246 -1.563036,1.11949 -1.981869,0.12303 -0.226325,-0.53845 -0.454811,-0.50296 -0.921794,0.14319 -0.519761,0.71914 -0.188879,0.88753 2.031304,1.03365 1.458703,0.096 2.652197,0.40168 2.652197,0.67927 0,0.27758 1.067896,1.0841 2.373105,1.79226 2.403873,1.30425 2.955982,2.57577 1.661182,3.82573 -0.80959,0.78155 -1.661182,0.90464 -1.661182,0.24011 z m 1.334877,-5.90976 c -2.812501,-1.92304 -2.930465,-2.24439 -1.563281,-4.25868 1.139646,-1.67908 1.978617,-1.76957 3.52789,-0.38049 0.632557,0.56715 1.617303,1.20339 2.188334,1.41385 1.269783,0.46798 1.373637,2.62122 0.148324,3.07512 -0.489452,0.18132 -0.889914,0.68869 -0.889914,1.12749 0,1.13417 -0.556432,0.97476 -3.411353,-0.97729 z m 2.43934,-1.94763 c -0.187829,-0.47249 -0.417854,-0.85909 -0.511188,-0.85909 -0.09328,0 -0.323358,0.3866 -0.511177,0.85909 -0.205935,0.51806 -0.0031,0.8591 0.511177,0.8591 0.514195,0 0.717113,-0.34104 0.511188,-0.8591 z m 3.345117,-2.00455 c 0,-0.315 -0.200225,-0.53181 -0.444952,-0.4818 -0.921477,0.1883 -2.521439,-0.81683 -2.521439,-1.58402 0,-0.43879 -0.520679,-0.79782 -1.157069,-0.79782 -0.636389,0 -1.370578,-0.35786 -1.631514,-0.79524 -0.260946,-0.43739 -1.008388,-0.89195 -1.660998,-1.01012 -0.917094,-0.16607 -1.186552,-0.66831 -1.186552,-2.21158 0,-1.82276 0.163545,-2.01201 1.877443,-2.17251 1.510707,-0.14148 1.960246,0.076 2.301334,1.11348 0.439314,1.33622 2.496767,3.29118 3.533833,3.35779 0.995104,0.0639 3.263029,2.13796 3.263029,2.98408 0,0.8675 -1.139697,2.17048 -1.898496,2.17048 -0.261038,0 -0.474619,-0.25773 -0.474619,-0.57274 z m -5.458346,-6.84361 c -0.56414,-0.87205 -0.902393,-0.97195 -1.545736,-0.45652 -0.688903,0.55193 -0.644403,0.72789 0.272191,1.07608 1.787128,0.67892 2.035412,0.55813 1.273545,-0.61956 z m 8.009259,1.54495 c -0.260936,-0.39426 -1.208624,-1.08214 -2.10595,-1.52859 -1.907621,-0.94914 -1.998059,-1.58019 -0.478442,-3.33866 1.377705,-1.59426 2.757836,-1.64722 3.730827,-0.14319 0.407558,0.63001 1.085645,1.14546 1.506843,1.14546 1.27173,0 1.473852,1.53457 0.408801,3.10373 -1.084971,1.59853 -2.306879,1.9023 -3.062079,0.76125 z m 1.216015,-3.02424 c -0.470612,-1.18388 -0.800537,-1.04437 -0.800537,0.33852 0,0.6486 0.255319,1.02693 0.567372,0.84074 0.312052,-0.18617 0.416967,-0.71683 0.233165,-1.17926 z m 3.352407,-1.41347 c 0,-0.315 -0.200226,-0.53181 -0.444962,-0.4818 -0.921468,0.1883 -2.521429,-0.81683 -2.521429,-1.58402 0,-0.4388 -0.542323,-0.79781 -1.205168,-0.79781 -0.662856,0 -1.349608,-0.36334 -1.526131,-0.80741 -0.176513,-0.44407 -0.985297,-0.96837 -1.797282,-1.16511 -1.245794,-0.30184 -1.447539,-0.64529 -1.291946,-2.19941 0.168958,-1.68758 0.357491,-1.84171 2.252734,-1.84171 1.498167,0 2.123475,0.27629 2.268292,1.00227 0.229424,1.15 -1.400908,1.39981 -1.868921,0.28636 -0.2277,-0.54174 -0.448377,-0.51095 -0.907092,0.1266 -0.818541,1.13763 -0.528764,1.30309 2.218195,1.26649 1.521166,-0.0203 2.468273,0.25937 2.679672,0.79119 0.179836,0.4524 0.669064,0.83112 1.087184,0.8416 1.106635,0.0277 3.429969,2.03613 3.429969,2.96502 0,0.8675 -1.139697,2.17047 -1.898496,2.17047 -0.261038,0 -0.474619,-0.25772 -0.474619,-0.57273 z m -1.199255,-16.46591 c -0.0071,-0.23626 -2.009293,-1.58785 -4.449582,-3.00355 -2.440288,-1.4157 -4.436889,-2.87971 -4.436889,-3.25335 0,-0.37364 -0.573426,-0.76171 -1.274278,-0.86237 -2.023372,-0.2906 -2.640219,-1.77441 -1.344806,-3.23493 1.381354,-1.55742 3.224941,-1.60718 3.633742,-0.0981 0.170661,0.63 0.679616,1.14546 1.131011,1.14546 0.451395,0 0.820722,0.35652 0.820722,0.79229 0,0.72183 1.54126,1.49239 3.404717,1.70223 0.404234,0.0455 0.671215,0.23002 0.593276,0.41003 -0.208463,0.48151 1.745258,2.24999 2.485686,2.24999 0.34961,0 0.635656,0.25773 0.635656,0.57273 0,0.31501 0.384701,0.57273 0.854905,0.57273 1.173054,0 1.668297,0.93214 1.219879,2.29604 -0.357735,1.08809 -3.244352,1.71477 -3.274039,0.71078 z m -1.33453,47.04718 c -0.197147,-0.1903 -0.708855,-0.21066 -1.137118,-0.0452 -0.473283,0.18283 -0.332697,0.31853 0.358439,0.34601 0.62541,0.0248 0.975816,-0.11049 0.778679,-0.3008 z m 4.39821,-1.70075 c 0.993034,-0.49573 1.690552,-1.01229 1.550048,-1.14794 -0.279583,-0.26989 -4.007749,1.40905 -4.007749,1.80485 0,0.42924 0.606927,0.26702 2.457701,-0.65691 z m -9.72536,-2.14761 c -3.272775,-2.58682 -1.54073,-2.88844 2.224801,-0.38744 1.422786,0.945 3.072743,1.71424 3.66656,1.70942 1.349924,-0.0109 3.070663,-1.13336 2.266212,-1.4782 -2.026869,-0.86884 -6.334865,-3.83918 -6.624357,-4.56745 -0.647481,-1.62885 0.277177,-1.47082 3.182093,0.54388 4.357584,3.02217 5.906592,3.45876 7.629574,2.1504 l 1.418596,-1.07721 -2.609634,-0.9621 c -4.343291,-1.60127 -9.190765,-5.48238 -6.847439,-5.48238 0.329129,0 1.64282,0.73037 2.919321,1.62302 1.276501,0.89267 3.58911,2.09058 5.139148,2.66204 l 2.81824,1.03902 1.100386,-1.31186 1.100396,-1.31186 -3.19397,-1.25316 c -4.34537,-1.70492 -7.515545,-3.66379 -7.515545,-4.64391 0,-1.09948 0.259886,-1.04162 2.901603,0.64604 1.255592,0.80213 3.708298,1.98126 5.450467,2.62031 3.015489,1.1061 3.204358,1.11331 3.933806,0.1503 1.123834,-1.4837 1.01006,-1.63672 -1.755198,-2.36057 -2.831657,-0.74124 -8.157573,-3.8225 -8.157573,-4.71949 0,-0.78301 1.604825,-0.74933 2.112944,0.0443 0.532882,0.83236 7.393972,3.95111 8.693513,3.95169 0.559541,2.5e-4 1.292293,-0.49547 1.628313,-1.1016 0.530548,-0.957 0.330516,-1.19141 -1.519667,-1.78087 -3.937313,-1.25441 -7.948712,-3.7347 -7.948712,-4.91476 0,-1.07645 0.159396,-1.03302 3.084967,0.84073 2.288977,1.46603 5.827928,2.94787 7.040131,2.94787 0.542822,0 1.748387,-5.13327 1.721595,-7.33047 -0.0212,-1.73688 0.118066,-1.85992 -3.418897,3.02093 -2.178669,3.00645 -1.536213,3.07129 -6.863761,-0.69273 l -2.621694,-1.85227 -7.538626,10.26015 c -4.146236,5.64308 -7.534049,10.43847 -7.528462,10.65642 0.0103,0.40395 4.905656,3.70252 5.445746,3.66948 0.163157,-0.01 -0.437541,-0.59845 -1.334877,-1.3077 z m 15.276907,-1.53289 c 0.590605,-0.63 0.806847,-1.14545 0.480542,-1.14545 -0.326305,0 -1.076499,0.51545 -1.667094,1.14545 -0.590605,0.63 -0.806847,1.14545 -0.480542,1.14545 0.326295,0 1.076489,-0.51545 1.667094,-1.14545 z m 3.505105,-3.72273 c 0.534513,-0.7875 0.87873,-1.43181 0.764936,-1.43181 -0.113794,0 -0.833924,0.64431 -1.600288,1.43181 -0.766374,0.7875 -1.110581,1.43182 -0.764926,1.43182 0.345645,0 1.065785,-0.64432 1.600278,-1.43182 z m 3.298721,-5.12083 c -0.0104,-0.33355 -0.41084,-0.10614 -0.889914,0.5053 -0.479074,0.61145 -0.862562,1.38464 -0.852184,1.71818 0.0104,0.33355 0.410841,0.10614 0.889915,-0.5053 0.479084,-0.61145 0.862561,-1.38464 0.852183,-1.71818 z m 1.780532,-3.75644 c 0,-0.76364 -0.06392,-0.76364 -0.575109,0 -0.316314,0.47249 -0.575099,1.24567 -0.575099,1.71818 0,0.76364 0.06392,0.76364 0.575099,0 0.316314,-0.47251 0.575109,-1.24569 0.575109,-1.71818 z m 2.382198,0.39574 c 0.0051,-0.25484 -0.257888,-0.30407 -0.584192,-0.10939 -0.326305,0.19469 -0.589189,0.78979 -0.584193,1.32245 0.0082,0.83462 0.08859,0.84974 0.584193,0.10938 0.316314,-0.47251 0.579197,-1.0676 0.584192,-1.32244 z m 1.740905,-5.01091 c 0.9169,-4.12728 0.855925,-13.30392 -0.08635,-13.0007 -0.508313,0.16358 -0.742416,2.03393 -0.776589,6.20455 -0.02691,3.28372 -0.270356,6.97413 -0.540997,8.20093 -0.337897,1.53161 -0.295507,2.11323 0.135285,1.8562 0.345063,-0.20586 0.915962,-1.67331 1.268681,-3.26098 z m -2.363991,-1.68484 c 0.760267,-4.54144 0.774377,-5.15455 0.118607,-5.15455 -0.282457,0 -0.653324,1.73966 -0.824158,3.86591 -0.170814,2.12626 -0.512962,4.38137 -0.760308,5.01137 -0.318638,0.81158 -0.261374,0.97852 0.196464,0.57273 0.355401,-0.315 0.926636,-2.24796 1.269395,-4.29546 z m -6.629922,-0.61513 c 0.612768,-0.78019 0.427101,-0.8958 -1.379785,-0.8591 l -2.087844,0.0423 1.295963,1.01659 c 0.71278,0.55914 1.333684,0.94573 1.379795,0.8591 0.04608,-0.0866 0.40245,-0.56317 0.791871,-1.059 z m -4.818501,-3.05005 c -0.540702,-1.66768 -0.730203,-1.81637 -1.32095,-1.03645 -0.553965,0.73136 -0.441517,1.11075 0.571469,1.92794 0.693634,0.55957 1.288072,1.02597 1.32095,1.03645 0.03283,0.0108 -0.224265,-0.85709 -0.571469,-1.92794 z m 4.980679,-2.02707 c -0.453311,-0.81767 -1.140777,-1.18845 -1.98771,-1.07205 -1.701951,0.2339 -2.118102,2.68513 -0.63376,3.73291 0.911578,0.64347 1.236721,0.59487 2.192382,-0.32767 0.929816,-0.89762 1.003331,-1.29738 0.429088,-2.33319 z m -60.192471,-1.04193 c -0.644444,-0.62212 -0.829337,0.14983 -0.44693,1.86599 l 0.382856,1.71818 0.202672,-1.62736 c 0.11147,-0.89504 0.04914,-1.77562 -0.138598,-1.95681 z m 63.717415,1.07995 c -0.01906,-0.44752 -5.89502,-4.32815 -6.087029,-4.02001 -0.07687,0.12332 -0.663753,0.86855 -1.304221,1.65605 -0.640468,0.7875 -0.784459,1.10967 -0.319984,0.71592 1.970604,-1.67053 5.946708,-0.12827 5.946708,2.30661 0,0.93668 0.150159,1.00651 0.889914,0.41384 0.489453,-0.39215 0.883033,-0.87472 0.874612,-1.07241 z m 3.552184,-9.31339 c -0.680676,-2.29116 -0.751815,-2.34491 -1.967494,-1.48678 -0.857321,0.60517 -0.910803,1.00066 -0.346603,2.56306 0.560469,1.55211 0.841479,1.75742 1.757563,1.28412 0.900986,-0.4655 0.997673,-0.87554 0.556534,-2.3604 z m -0.335541,-3.83605 c 0.399565,-0.6241 -3.871363,-7.67276 -4.832855,-7.97605 -1.201263,-0.37894 -0.870167,0.66208 1.334876,4.19707 1.142063,1.83089 2.076477,3.53734 2.076477,3.79213 0,0.60713 1.030501,0.59761 1.421502,-0.0131 z m -8.625851,-10.79934 c -1.095308,-1.10351 -3.099616,-2.74974 -4.454026,-3.65829 -2.057259,-1.38004 -2.520582,-1.50595 -2.8151,-0.76502 -0.225295,0.56676 0.338192,1.44117 1.561079,2.42249 1.052501,0.8446 2.702315,2.35684 3.666264,3.36054 1.439923,1.49931 1.956086,1.7198 2.892937,1.23577 1.075123,-0.55545 1.026474,-0.70382 -0.851154,-2.59549 z m -16.390719,-9.15527 c -1.216892,-0.36955 -3.680883,-0.66829 -5.475545,-0.66389 l -3.263029,0.008 5.042857,1.2366 c 3.257208,0.79872 5.196075,1.0338 5.475546,0.66387 0.251444,-0.33283 -0.494071,-0.85416 -1.779829,-1.24462 z"
       id="path4672"
       inkscape:connector-curvature="0" />
  </g>
</svg>
