<?xml version="1.0" encoding="UTF-8" standalone="no"?>
<!-- Created with Inkscape (http://www.inkscape.org/) -->

<svg
   xmlns:dc="http://purl.org/dc/elements/1.1/"
   xmlns:cc="http://creativecommons.org/ns#"
   xmlns:rdf="http://www.w3.org/1999/02/22-rdf-syntax-ns#"
   xmlns:svg="http://www.w3.org/2000/svg"
   xmlns="http://www.w3.org/2000/svg"
   xmlns:sodipodi="http://sodipodi.sourceforge.net/DTD/sodipodi-0.dtd"
   xmlns:inkscape="http://www.inkscape.org/namespaces/inkscape"
   width="500"
   height="500"
   viewBox="0 0 132.29166 132.29167"
   version="1.1"
   id="svg8"
   inkscape:version="0.92.4 5da689c313, 2019-01-14"
   sodipodi:docname="icon.svg">
  <defs
     id="defs2" />
  <sodipodi:namedview
     id="base"
     pagecolor="#ffffff"
     bordercolor="#666666"
     borderopacity="1.0"
     inkscape:pageopacity="0.0"
     inkscape:pageshadow="2"
     inkscape:zoom="0.42657054"
     inkscape:cx="322.0882"
     inkscape:cy="275.94377"
     inkscape:document-units="mm"
     inkscape:current-layer="layer1"
     showgrid="false"
     units="px"
     inkscape:window-width="1920"
     inkscape:window-height="1003"
     inkscape:window-x="0"
     inkscape:window-y="0"
     inkscape:window-maximized="1" />
  <metadata
     id="metadata5">
    <rdf:RDF>
      <cc:Work
         rdf:about="">
        <dc:format>image/svg+xml</dc:format>
        <dc:type
           rdf:resource="http://purl.org/dc/dcmitype/StillImage" />
        <dc:title></dc:title>
      </cc:Work>
    </rdf:RDF>
  </metadata>
  <g
     inkscape:label="Layer 1"
     inkscape:groupmode="layer"
     id="layer1"
     transform="translate(0,-164.70832)">
    <path
       style="fill:#000000;stroke-width:0.6409564"
       d="m 63.528606,296.34321 c -7.143774,-1.748 -15.524398,-4.3599 -19.619588,-6.11461 -15.60199,-6.68514 -28.168753,-18.12742 -31.840874,-28.99173 -1.413851,-4.18301 -1.531915,-10.4702 -0.27274,-14.52364 1.449934,-4.66754 1.159331,-6.86841 -1.460771,-11.063 -1.2918504,-2.06816 -2.7218651,-4.49982 -3.1778218,-5.40366 -4.0580829,-8.04456 -4.9485779,-10.33706 -5.8563553,-15.07681 -0.96623981,-5.04505 -0.97387865,-5.67736 -0.1345027,-11.13725 1.2655263,-8.23198 4.9117342,-15.57127 9.8595098,-19.84583 1.063888,-0.91912 2.55608,-2.58417 3.315997,-3.7001 1.418314,-2.08282 6.833958,-7.06914 7.677776,-7.06914 0.259425,0 1.615162,-0.68035 3.012743,-1.51187 8.078478,-4.80647 26.206963,-6.17494 40.98362,-3.09372 19.214994,4.00669 35.630401,12.14226 47.529161,23.55568 4.50419,4.32049 9.69697,11.85136 11.28016,16.35919 1.48032,4.21489 2.02559,5.63009 4.58252,11.89366 1.76119,4.31426 1.82077,4.73968 1.82166,13.00868 5.6e-4,7.58016 -0.1531,8.96962 -1.35867,12.26533 -2.78624,7.61681 -6.85152,12.04994 -17.77356,19.38178 -2.77113,1.86024 -3.24975,2.84111 -3.24975,6.65981 0,5.36379 -1.14025,9.85508 -3.36506,13.25471 -2.65789,4.06133 -5.582714,6.33198 -11.64057,9.03695 -4.40449,1.9667 -5.166022,2.06918 -16.772601,2.25694 -6.687238,0.10816 -12.780365,0.0446 -13.540283,-0.14137 z m 22.277052,-2.5441 c 6.338679,-1.25186 11.485244,-4.06629 14.851512,-8.12162 l 2.93962,-3.54134 -0.0187,-5.1122 c -0.0226,-6.20172 -0.93607,-8.78635 -4.984162,-14.1022 -8.725385,-11.45794 -24.176297,-20.01234 -42.186305,-23.35643 -9.979611,-1.853 -16.519485,-1.86699 -24.175969,-0.0516 -7.333259,1.73868 -11.606411,4.20811 -14.864198,8.58995 -2.408483,3.23948 -2.473413,3.45032 -2.473413,8.03262 0,5.23934 1.307402,8.78947 5.190013,14.093 7.618945,10.40726 25.305463,20.36727 41.233824,23.22048 6.650658,1.19132 19.310089,1.37194 24.487706,0.34939 z m -22.277052,-4.87353 c -17.32725,-4.20377 -27.532122,-9.82005 -33.823438,-18.61487 -9.5186,-13.30633 -0.955425,-24.91675 18.34883,-24.8783 9.99799,0.0199 21.530175,3.45294 29.576357,8.80462 6.235195,4.14714 7.055189,4.88378 10.513422,9.44453 5.445462,7.18157 5.999806,12.8444 1.794686,18.33341 -3.450384,4.50381 -9.314082,6.78272 -18.119886,7.04223 -3.799565,0.11201 -7.530053,0.0527 -8.289971,-0.13169 z m 3.744384,-2.93381 c -3.668734,-2.6779 -2.857803,-6.54843 1.354049,-6.46279 3.878,0.0788 7.892476,3.72212 6.776804,6.15019 -0.671026,1.46035 4.307791,0.69203 7.926429,-1.2232 5.948454,-3.14832 7.801201,-6.55685 6.935975,-12.76022 -0.780882,-5.59865 -8.129407,-13.09267 -17.895004,-18.24928 -11.402957,-6.02121 -26.866361,-7.86048 -35.616382,-4.23633 -5.560994,2.30329 -9.149457,6.43517 -9.149457,10.53501 0,2.82173 2.173979,7.97467 4.660602,11.04691 1.267415,1.5659 1.577379,1.68132 1.99645,0.74335 1.39967,-3.13269 1.567123,-3.2404 5.043937,-3.24483 1.923511,-0.003 4.243388,0.23106 5.15528,0.5189 1.479045,0.46687 1.553344,0.41272 0.688382,-0.50159 -1.487063,-1.57195 -2.215328,-5.07727 -1.546454,-7.44354 1.940488,-6.86491 17.179611,-6.73493 26.222008,0.22366 3.331137,2.56349 4.439941,4.03268 5.276204,6.99111 1.324,4.68392 -2.067257,8.35941 -8.453003,9.16147 -3.69126,0.46363 -12.147818,-1.36645 -14.864324,-3.21677 -1.419517,-0.96687 -1.519835,-0.93232 -1.519835,0.5237 0,2.44642 -1.5142,3.88241 -4.500956,4.26841 l -2.750807,0.35552 2.21939,1.3365 c 3.910413,2.35481 12.902303,5.33951 17.743662,5.88971 2.583713,0.29363 4.946352,0.56974 5.250313,0.6136 0.303971,0.0439 -0.125007,-0.41492 -0.953263,-1.01949 z M 33.424219,256.40883 c -1.391999,-1.36904 -0.723052,-3.45257 1.108487,-3.45257 2.034096,0 3.573323,1.29208 3.573323,2.99955 0,1.15758 -0.379358,1.46057 -1.828691,1.46057 -1.005785,0 -2.289691,-0.4534 -2.853119,-1.00755 z m 3.30015,-1.22252 c -0.187859,-0.40884 -0.886454,-0.71 -1.552437,-0.66926 -1.127215,0.0689 -1.115419,0.11518 0.170777,0.66926 0.759917,0.32734 1.458512,0.62851 1.552447,0.66926 0.0939,0.0407 0.01709,-0.26041 -0.170787,-0.66926 z m 36.797406,30.47749 c 0.893545,0 0.542517,-2.15251 -0.469873,-2.88128 -2.842547,-2.04617 -7.275935,-1.67445 -6.26516,0.52532 0.558142,1.21471 4.505557,3.15314 5.491537,2.6967 0.404817,-0.1874 0.964383,-0.34074 1.243496,-0.34074 z m -2.632942,-11.70642 c 3.253651,-2.54843 2.420099,-6.61245 -2.084518,-10.16319 -5.565119,-4.38667 -15.999822,-6.24596 -20.739133,-3.69537 -2.15253,1.15845 -2.467273,1.87526 -2.249366,5.12276 0.217391,3.23979 6.766064,8.1585 13.337411,10.01775 3.578439,1.01244 9.653557,0.34883 11.735606,-1.28195 z m 34.815047,7.92638 c 0.75788,-1.92048 0.93736,-3.60062 0.73725,-6.90148 -0.41774,-6.89104 -4.25772,-13.49154 -11.739595,-20.17912 -3.39171,-3.03163 -8.531217,-6.71282 -11.553329,-8.2751 -6.611546,-3.41784 -12.84404,-6.18935 -13.816621,-6.14406 -0.607932,0.0284 1.680028,1.31808 5.084357,2.86616 16.980253,7.72161 27.984728,18.6543 30.601498,30.40191 0.93127,4.18074 0.0843,7.77991 -2.9324,12.46199 l -2.344169,3.63819 2.480629,-2.66501 c 1.36434,-1.46575 2.93141,-3.80732 3.48238,-5.20348 z m 3.9005,-24.51165 c 1.68915,-7.39491 1.68862,-7.38927 0.69622,-7.38927 -0.43924,0 -1.04324,1.48266 -1.43845,3.53092 -0.3747,1.94202 -1.03586,5.06764 -1.46925,6.94582 -0.43338,1.87819 -0.61228,4.0307 -0.39755,4.78336 0.46514,1.63033 0.38038,1.88599 2.60903,-7.87083 z m -95.532,3.52737 c -2.045817,-6.58575 0.294761,-13.38528 6.213524,-18.05071 5.116538,-4.03308 10.620082,-5.62165 21.688787,-6.26033 l 10.224287,-0.58995 -11.329619,0.20408 c -11.000736,0.19818 -11.468774,0.2695 -16.12314,2.4572 -8.213519,3.86063 -12.02028,8.45722 -12.493835,15.08609 -0.192364,2.69275 0.04917,4.4188 0.980167,7.00569 1.437421,3.99381 2.069092,4.10508 0.839829,0.14793 z m 109.42739,-6.7157 c 5.32484,-5.98679 6.60029,-13.90816 3.5864,-22.2741 -5.56345,-15.44309 -22.4227,-29.68857 -45.851969,-38.74336 -25.028428,-9.67282 -54.354181,-9.45288 -68.827067,0.51621 -6.0833049,4.19024 -10.2063918,11.38173 -10.2189052,17.82379 -0.0095,5.15143 3.0656768,13.44812 7.650017,20.63603 l 1.6593382,2.60174 -0.502687,-3.08448 c -0.953526,-5.85083 1.564813,-12.63325 6.293342,-16.94928 3.634549,-3.3175 8.677705,-5.6114 15.843816,-7.20665 18.940301,-4.21633 45.959672,2.57731 64.100881,16.11726 8.114004,6.05601 13.416574,12.32019 16.557264,19.55992 2.95505,6.81181 2.80991,12.91518 -0.4311,18.12815 l -1.47234,2.36815 4.5585,-3.34354 c 2.50717,-1.83895 5.6817,-4.60638 7.05451,-6.14984 z m -20.76173,5.75156 c -2.03902,-2.87402 -6.928039,-8.00145 -9.641876,-10.11203 -4.923182,-3.82885 -14.470903,-9.53323 -15.853396,-9.47177 -0.399594,0.0178 1.263047,1.1478 3.694773,2.51119 10.347816,5.80169 17.325837,11.45725 21.519149,17.44088 0.89278,1.27393 1.74985,2.31623 1.90458,2.31623 0.15474,0 -0.5757,-1.20803 -1.62323,-2.6845 z m 9.43112,-0.47474 c 0.69875,-1.54145 1.07546,-3.62667 1.04078,-5.76099 l -0.0543,-3.34509 -0.55455,2.60174 c -0.30501,1.43095 -0.88627,4.02339 -1.29169,5.76098 -0.88238,3.78166 -0.62022,4.00831 0.85981,0.74336 z m -6.6465,0 c -0.006,-1.30586 -0.11978,-1.43587 -0.5162,-0.59301 -0.27926,0.59374 -0.38512,1.34638 -0.23525,1.67255 0.47936,1.04324 0.76015,0.63986 0.75145,-1.07954 z m -1.79276,-5.57515 c 0.36905,-1.94202 1.16298,-5.81181 1.76429,-8.59953 1.47924,-6.85792 0.27589,-6.04937 -1.36652,0.91818 -1.5433,6.54718 -2.18374,11.21228 -1.53924,11.21228 0.25875,0 0.77241,-1.58893 1.14147,-3.53093 z m 4.76252,-7.80522 c 0.22487,-1.22335 0.1496,-2.04422 -0.18744,-2.04422 -0.30976,0 -0.5632,0.61665 -0.5632,1.37034 0,0.75368 -0.4974,3.31486 -1.10533,5.69152 -0.60793,2.37666 -1.08681,4.85421 -1.06419,5.50569 0.0408,1.17574 2.19988,-6.60477 2.92016,-10.52333 z m -6.62534,-0.60178 c 1.65213,-7.23286 1.77792,-8.87597 0.6795,-8.87597 -0.79069,0 -1.63205,3.8512 -2.30891,10.56883 -0.19435,1.92884 -0.702435,3.89665 -1.129092,4.37291 -0.617386,0.68918 -0.637601,1.08979 -0.09897,1.96269 0.786369,1.27444 0.636103,1.69663 2.857502,-8.02846 z m -4.625482,1.15713 c 0.387608,-1.86206 0.575931,-3.55882 0.41849,-3.77058 -0.15744,-0.21176 -0.451725,0.80136 -0.653965,2.25137 -0.221041,1.58475 -0.688424,2.63641 -1.171676,2.63641 -0.812408,0 -1.102251,1.58106 -0.450533,2.45764 0.632167,0.85029 1.139949,-0.12688 1.857684,-3.57484 z m -2.84146,-2.59957 c 0,-0.70283 -0.175588,-0.56542 -0.47498,0.37167 -0.26124,0.81769 -0.474969,1.98848 -0.474969,2.60174 0,0.70283 0.175588,0.56543 0.474969,-0.37167 0.26124,-0.81769 0.47498,-1.98848 0.47498,-2.60174 z m -1.915767,1.79759 c 0.435119,-1.52516 0.422964,-1.79998 -0.07903,-1.78621 -0.935284,0.0256 -1.912201,1.36475 -1.558018,2.13557 0.539351,1.17379 1.2455,1.02308 1.637055,-0.34936 z m 18.470589,-1.88807 c -1.7801,-4.2648 -7.64066,-11.50156 -8.25159,-10.18928 -0.3233,0.69445 -0.0948,1.0642 0.76944,1.2449 1.67922,0.35116 2.60622,1.49642 2.24266,2.77071 -0.19945,0.69909 0.0713,1.06067 0.79418,1.06067 1.40676,0 2.45547,1.69484 2.01153,3.25088 -0.25134,0.88097 -0.0288,1.20924 0.81946,1.20924 0.77915,0 1.16446,0.47147 1.16446,1.42477 0,1.18706 0.47393,1.86764 1.55519,2.23331 0.0955,0.0323 -0.40195,-1.32006 -1.10533,-3.0052 z m -21.17972,-2.90616 c 0.296607,-2.61813 0.06246,-2.12337 -0.882413,1.86465 -0.352484,1.48771 -0.34168,1.96739 0.03303,1.46347 0.306524,-0.4123 0.688772,-1.90995 0.849441,-3.32812 z m 22.957,2.29469 c -0.3163,-0.79493 -0.84824,-1.67238 -1.1821,-1.94991 -0.33386,-0.27753 -0.17957,0.37286 0.34286,1.44531 1.10623,2.27084 1.67907,2.61525 0.83924,0.5046 z M 87.845852,242.5493 c 0,-1.56779 -0.804062,-2.00039 -1.38166,-0.74335 -0.403002,0.87706 0.119742,2.23006 0.861617,2.23006 0.286024,0 0.520043,-0.66902 0.520043,-1.48671 z m 4.326392,-3.03012 c 1.045023,-6.08933 0.677441,-7.47927 -0.476457,-1.80168 -1.25756,6.18767 -1.188473,5.57515 -0.628865,5.57515 0.251755,0 0.749156,-1.69806 1.105322,-3.77347 z m 1.025124,1.40404 c -0.176421,-0.593 -0.307389,-0.41686 -0.333904,0.44911 -0.02395,0.78361 0.106617,1.22267 0.290276,0.97565 0.183639,-0.24701 0.203274,-0.88816 0.04358,-1.42476 z m 6.579134,-7.84858 c -0.704103,-0.94704 -1.371405,1.05074 -1.674964,5.01455 l -0.313119,4.08844 1.165588,-4.32075 c 0.641083,-2.37639 1.011208,-4.52841 0.822495,-4.78224 z m -14.91653,-1.78493 c 0.421423,-2.7176 0.930314,-5.51621 1.130865,-6.21914 0.310555,-1.08857 0.198346,-1.15836 -0.756879,-0.47075 -0.616826,0.44401 -1.253224,1.57007 -1.41422,2.50236 -1.565171,9.06336 -2.020252,12.68739 -1.68485,13.41732 0.530636,1.15482 1.760838,-3.01186 2.725084,-9.22979 z m -68.080782,1.77988 c 0.208686,-2.75862 0.518618,-5.76832 0.688751,-6.68822 0.216346,-1.16981 0.06288,-1.67255 -0.510494,-1.67255 -0.959572,0 -1.321235,2.03969 -1.792205,10.10761 -0.301165,5.15917 -0.246881,5.71584 0.445806,4.57165 0.4338,-0.71655 0.959466,-3.55988 1.168142,-6.31849 z m 46.473089,5.36212 c -2.735698,-0.94708 -6.217481,-1.70531 -7.737305,-1.68496 l -2.76333,0.037 3.039658,0.60608 c 1.671809,0.33335 4.531849,1.09177 6.355644,1.6854 1.823795,0.59362 3.93774,1.07911 4.697647,1.07887 0.759917,-2.4e-4 -0.856627,-0.77533 -3.592314,-1.72241 z m 10.715841,0.41342 c -1.401464,-0.76618 -3.515408,-1.59427 -4.697656,-1.84023 -1.515646,-0.31529 -1.008687,0.0856 1.719119,1.35942 4.585944,2.14153 6.615576,2.46917 2.978537,0.48081 z m 10.927767,-0.94179 c -0.153315,-0.51105 -0.278765,-0.0929 -0.278765,0.92919 0,1.02212 0.12545,1.44026 0.278765,0.92919 0.153315,-0.51105 0.153315,-1.34732 0,-1.85838 z m 2.287116,-2.41589 c 0,-1.17723 -0.09211,-1.09985 -0.442483,0.37167 -0.243367,1.02212 -0.442483,2.5274 -0.442483,3.3451 0,1.17722 0.09211,1.09984 0.442483,-0.37169 0.243367,-1.0221 0.442483,-2.52739 0.442483,-3.34508 z m 3.09293,-6.37903 c 0.211123,-1.77582 0.21911,-3.00716 0.01772,-2.73634 -0.422299,0.568 -2.415467,11.53701 -2.399251,13.20381 0.01646,1.68782 1.943252,-6.78129 2.381494,-10.46747 z m 5.120578,8.79492 c -0.153315,-0.51105 -0.278765,-0.0929 -0.278765,0.92919 0,1.02212 0.12545,1.44026 0.278765,0.92919 0.153315,-0.51105 0.153315,-1.34732 0,-1.85838 z m 15.661259,2.20212 c 0,-0.11752 -1.30567,-1.87375 -2.90148,-3.9026 l -2.9015,-3.68882 2.74255,3.9026 c 2.54843,3.62636 3.06043,4.24351 3.06043,3.68882 z m -29.322792,-7.30545 c 0.967094,-6.6117 0.431394,-6.01901 -0.936983,1.03666 -0.767809,3.95901 -0.927876,5.64808 -0.454574,4.79661 0.40182,-0.72287 1.028015,-3.34784 1.391557,-5.83327 z m 13.683152,-2.87209 c -0.217665,-1.24721 -1.318851,3.43328 -1.754739,7.45841 -0.180241,1.6644 0.112957,1.00496 0.83735,-1.88326 0.613101,-2.44447 1.025926,-4.95329 0.917389,-5.57515 z m -16.207664,6.58163 c 0.60196,-4.04827 0.301344,-4.86636 -0.512161,-1.39379 -0.93694,3.99951 -0.912842,3.71677 -0.316832,3.71677 0.265966,0 0.639014,-1.04533 0.828993,-2.32298 z m -59.662944,-7.87291 0.281582,-5.78621 -0.761173,6.31851 c -0.895771,7.43589 -0.969226,9.15506 -0.294876,6.90124 0.271094,-0.90602 0.619601,-4.25112 0.774467,-7.43354 z m 57.486233,-1.21158 c 0.488232,-3.1792 0.709642,-6.16784 0.49203,-6.64144 -0.471709,-1.02659 -2.930309,11.5033 -2.885172,14.70383 l 0.03144,2.23005 0.737001,-2.25605 c 0.405355,-1.24082 1.136468,-4.85721 1.624689,-8.03639 z m 0.141793,7.14734 c -0.140126,-0.72326 -0.263983,-0.31148 -0.275251,0.91505 -0.01129,1.22653 0.103398,1.81828 0.254772,1.31501 0.151395,-0.50327 0.160606,-1.50681 0.02047,-2.23006 z m 13.908604,-0.94334 c 0,-0.70283 -0.175588,-0.56543 -0.47498,0.37168 -0.26124,0.81769 -0.474969,1.98847 -0.474969,2.60174 0,0.70283 0.175577,0.56541 0.474969,-0.37168 0.26124,-0.81769 0.47498,-1.98847 0.47498,-2.60174 z m -63.478748,1.4546 c 2.428847,-0.9916 2.881965,-1.32349 1.399038,-1.02476 -1.860819,0.37487 -6.101432,2.35266 -5.26769,2.45682 0.151986,0.019 1.892882,-0.62543 3.868652,-1.43206 z m 38.63113,1.19653 c -0.781757,-1.05149 -12.359902,-3.29747 -18.458864,-3.58074 -4.336015,-0.20139 -6.198584,-0.10513 -4.697657,0.24286 1.367849,0.31711 4.600937,0.61664 7.184638,0.66565 2.583713,0.049 6.811602,0.70877 9.395303,1.46616 4.717841,1.38299 7.022324,1.8056 6.57658,1.20607 z m 7.226114,-2.46529 c 0.324873,-1.53317 0.701845,-4.29286 0.837699,-6.13267 0.261271,-3.53812 0.18943,-3.31676 -1.355315,4.17623 -0.537916,2.60921 -0.774414,4.74402 -0.52555,4.74402 0.248853,0 0.718273,-1.25441 1.043166,-2.78758 z m 56.210582,1.1615 c -0.17642,-0.593 -0.30738,-0.41686 -0.33389,0.4491 -0.0239,0.78362 0.10661,1.22266 0.29026,0.97566 0.18365,-0.24702 0.20329,-0.88816 0.0436,-1.42476 z M 22.80572,229.31497 c 0.180495,-3.14664 0.496356,-6.97559 0.701919,-8.50875 0.212622,-1.58587 0.151817,-2.78758 -0.141054,-2.78758 -0.283133,0 -0.883553,3.97581 -1.334255,8.83512 -0.595387,6.41913 -0.646559,8.74588 -0.187131,8.50876 0.35604,-0.18377 0.775733,-2.82626 0.960521,-6.04755 z m 48.06429,0.41149 c 1.587022,-9.38313 1.739536,-11.1952 0.910985,-10.82373 -0.749388,0.33599 -2.295705,7.41332 -2.863269,13.1048 -0.53799,5.39498 0.947554,3.65925 1.952284,-2.28107 z m -2.433151,-3.99463 c 0.644079,-3.73021 1.142207,-7.74432 1.106946,-8.92025 -0.04358,-1.45403 -0.13848,-1.6624 -0.296585,-0.65132 -0.127856,0.81769 -0.736705,4.49729 -1.352983,8.17689 -1.564728,9.3425 -1.721789,10.64212 -1.122963,9.29191 0.271992,-0.61326 1.021495,-4.16702 1.665585,-7.89723 z m -54.648065,6.51428 c 0,-0.76063 0.126547,-3.01856 0.281213,-5.01765 0.280242,-3.62211 0.278416,-3.62695 -0.527735,-1.40461 -0.925809,2.55218 -1.131846,7.80521 -0.306144,7.80521 0.30396,0 0.552666,-0.62233 0.552666,-1.38295 z m 12.433304,0.45376 c 0.132002,-0.51105 0.600958,-4.27428 1.042133,-8.36272 0.736578,-6.82604 0.526478,-9.78895 -0.587843,-8.29016 -0.411822,0.55392 -1.73463,11.98595 -1.797893,15.53786 -0.03672,2.06129 0.898693,2.83756 1.343603,1.11502 z m 12.022105,0.3849 c -1.291861,-0.1565 -3.405795,-0.1565 -4.697657,0 -1.29185,0.15651 -0.234873,0.28455 2.348829,0.28455 2.583712,0 3.640679,-0.12811 2.348828,-0.28455 z m 27.359816,-6.706 c 1.465888,-8.52088 1.521312,-9.84684 0.41158,-9.84684 -0.455946,0 -0.833584,0.25088 -0.839186,0.55752 -0.01678,0.91825 -1.587297,12.61143 -1.967572,14.64935 -0.248263,1.33043 -0.130388,1.88949 0.398021,1.88766 0.495502,-0.001 1.174494,-2.46575 1.997157,-7.24769 z m 61.957211,0.74588 c -2.24572,-5.28695 -7.86235,-12.82534 -12.94271,-17.37113 -4.28747,-3.83632 -13.38364,-10.45101 -16.634667,-12.09665 -1.168405,-0.59143 -4.238303,-2.14308 -6.822015,-3.4481 -6.41015,-3.23773 -12.529423,-5.46932 -22.659247,-8.26339 -8.400713,-2.31714 -8.870787,-2.36397 -24.317246,-2.42285 -15.527289,-0.0592 -15.831334,-0.031 -21.412902,1.99093 -9.797408,3.54899 -16.3952053,8.59836 -18.9026346,14.46639 -1.1693023,2.73646 -1.1456577,2.72155 1.0414888,-0.65728 3.8852698,-6.00216 10.3689388,-10.1011 20.7163328,-13.09675 9.321868,-2.69875 24.367626,-2.81829 36.242978,-0.28796 9.809911,2.09022 19.839955,5.36504 26.967682,8.80494 2.949765,1.42358 6.025823,2.86284 6.835699,3.19834 2.753613,1.14074 12.326931,7.91659 17.318111,12.25749 5.79502,5.04003 12.69701,14.222 14.6604,19.50331 0.75178,2.02222 1.44728,3.2313 1.54557,2.68685 0.0983,-0.54446 -0.6383,-2.91331 -1.63684,-5.26414 z m -95.844746,-3.286 c 0.859032,-6.94683 0.897142,-8.30796 0.248094,-8.86082 -1.34162,-1.14278 -1.59559,-0.75029 -1.606901,2.48329 -0.0063,1.73759 -0.339274,5.87363 -0.74044,9.19118 -0.667133,5.51708 -0.651992,6.0047 0.177466,5.71296 0.687665,-0.24188 1.152168,-2.30282 1.921781,-8.52661 z m 29.877965,5.51613 c 0.189315,-1.94201 0.792583,-6.29063 1.340564,-9.66359 0.548003,-3.37298 0.826853,-6.13267 0.619686,-6.13267 -0.398423,0 -1.941079,8.65727 -2.472031,13.8729 -0.173246,1.70184 -0.466487,3.62527 -0.651655,4.27427 -0.185157,0.64901 -0.0766,1.18002 0.241278,1.18002 0.317856,0 0.732833,-1.58891 0.922158,-3.53093 z m 17.899288,-6.13266 c -0.05835,-1.37937 -1.332082,3.93153 -1.786709,7.44951 -0.183786,1.42218 0.153653,0.5787 0.749852,-1.87436 0.596188,-2.45307 1.06277,-4.96189 1.036857,-5.57515 z m 8.16547,7.24768 c -0.153315,-0.51105 -0.278765,-0.0929 -0.278765,0.9292 0,1.02211 0.12545,1.44025 0.278765,0.92919 0.153315,-0.51105 0.153315,-1.34732 0,-1.85839 z m 17.061093,1.71211 c -0.29551,-0.64312 -3.81772,-4.0189 -5.821157,-5.57912 -1.537666,-1.19752 0.01889,0.61688 2.920897,3.40487 3.17734,3.05242 3.37021,3.19702 2.90026,2.17425 z m -76.731899,-2.81299 c -0.140126,-0.72325 -0.263993,-0.31148 -0.275251,0.91505 -0.01129,1.22654 0.103399,1.81828 0.254772,1.31502 0.151384,-0.50328 0.160595,-1.5068 0.02047,-2.23007 z m 32.137839,-5.13777 c 1.027477,-6.35905 1.137376,-8.02832 0.560157,-8.50815 -0.394951,-0.32831 -0.801973,-0.48412 -0.904496,-0.34622 -0.102554,0.13788 -0.523725,3.04664 -0.936032,6.46391 -0.412297,3.41727 -0.922158,7.13313 -1.133018,8.25744 -0.279124,1.4883 -0.176907,2.04422 0.375875,2.04422 0.516255,0 1.168343,-2.5319 2.037514,-7.9112 z m 32.063244,4.19444 c 0,-0.70282 -0.175588,-0.56542 -0.47498,0.37168 -0.26124,0.81768 -0.47498,1.98846 -0.47498,2.60173 0,0.70283 0.175588,0.56543 0.47498,-0.37167 0.26124,-0.8177 0.47498,-1.98848 0.47498,-2.60174 z m -56.624436,2.04421 c 0.103187,-0.51105 0.582936,-4.24709 1.066072,-8.30231 0.822357,-6.90248 0.818095,-7.43305 -0.06679,-8.31173 -0.825628,-0.8198 -0.964024,-0.68632 -1.093579,1.05463 -0.08156,1.09627 -0.516793,5.04523 -0.967158,8.77549 -0.450364,3.73022 -0.818843,6.99169 -0.818843,7.24768 0,0.88155 1.692974,0.46401 1.880326,-0.46376 z m 17.683353,-0.74334 c 1.330361,-9.21454 1.884304,-14.3104 1.618485,-14.8889 -0.520686,-1.13317 -1.267172,1.12472 -1.297464,3.92444 -0.01551,1.43095 -0.388452,4.60879 -0.828825,7.06185 -0.958179,5.33745 -0.969933,5.57515 -0.275811,5.57515 0.298179,0 0.6508,-0.75265 0.783615,-1.67254 z m 2.447373,-3.05912 c 0.977097,-7.13257 0.703101,-8.2632 -0.474621,-1.95852 -1.214745,6.50294 -1.232396,6.69018 -0.630711,6.69018 0.251428,0 0.748828,-2.12925 1.105332,-4.73166 z m 26.009102,-6.04696 c -0.01256,-0.81769 -0.500239,0.6876 -1.083745,3.34508 -0.583517,2.6575 -1.04419,5.50082 -1.023721,6.31851 0.02047,0.81769 0.508162,-0.6876 1.083755,-3.34508 0.575594,-2.6575 1.036267,-5.50082 1.023711,-6.31851 z m 11.492492,9.15254 c -0.176421,-0.593 -0.307389,-0.41686 -0.333904,0.44911 -0.02395,0.78361 0.106617,1.22266 0.290276,0.97565 0.183639,-0.24701 0.203274,-0.88816 0.04358,-1.42476 z m 7.115972,0.48741 c -1.366961,-1.39065 -1.966863,-1.38344 -1.966863,0.0237 0,0.72656 0.529506,1.10679 1.519834,1.0914 1.455749,-0.0227 1.474589,-0.0696 0.447029,-1.11504 z m -62.319362,-2.67819 c -0.174026,-1.48797 -0.25186,-1.38327 -0.506284,0.68096 -0.182077,1.47722 -0.100972,2.17068 0.205637,1.75828 0.278459,-0.37452 0.413753,-1.4722 0.300647,-2.43924 z m 2.979149,-2.13902 c 0.209066,-2.6525 0.611561,-6.40723 0.894452,-8.34383 0.37558,-2.57118 0.33441,-3.72193 -0.152598,-4.26557 -0.505757,-0.56456 -0.895728,1.18462 -1.613632,7.23785 -0.520686,4.39029 -1.08231,8.59847 -1.248043,9.35154 -0.227129,1.03201 -0.05001,1.30437 0.719191,1.10597 0.817177,-0.21076 1.096269,-1.22418 1.40063,-5.08596 z m 4.890527,2.42496 c 0.01118,-1.53317 0.345552,-5.04773 0.743068,-7.81012 0.602223,-4.18497 0.598826,-5.16086 -0.02036,-5.85201 -0.408678,-0.45622 -0.743057,-0.70422 -0.743057,-0.55114 0,0.15308 -0.4974,3.78936 -1.105332,8.0806 -0.607931,4.29124 -1.105332,8.05381 -1.105332,8.36125 0,0.30744 0.497401,0.55899 1.105332,0.55899 0.905214,0 1.109004,-0.50468 1.125643,-2.78757 z m 5.326004,-15.39191 c -0.252968,-1.04574 -2.590433,14.17145 -2.539926,16.53523 0.02374,1.10876 0.643552,-1.99818 1.377461,-6.90432 0.733909,-4.90613 1.257012,-9.24004 1.162465,-9.63091 z m 0.650579,10.37426 c 0.327668,-2.8619 0.745505,-6.37425 0.928541,-7.8052 0.222624,-1.7405 0.163803,-2.23264 -0.177687,-1.48671 -0.438073,0.95688 -1.267521,7.12311 -2.049848,15.23875 -0.434992,4.51241 0.692444,-0.649 1.298994,-5.94684 z m -4.525551,3.90261 c -0.153315,-0.51105 -0.278754,-0.0929 -0.278754,0.92919 0,1.02212 0.125439,1.44026 0.278754,0.92919 0.153315,-0.51105 0.153315,-1.34732 0,-1.85838 z m -14.352311,-1.10088 c -0.140115,-0.72326 -0.263983,-0.31149 -0.275251,0.91504 -0.01129,1.22653 0.103399,1.81829 0.254772,1.31502 0.151395,-0.50327 0.160606,-1.5068 0.02047,-2.23006 z m 9.942504,1.14735 c -0.176421,-0.593 -0.307379,-0.41686 -0.333894,0.4491 -0.02406,0.78362 0.106617,1.22266 0.290266,0.97566 0.183649,-0.24702 0.203284,-0.88816 0.04368,-1.42476 z m 53.737555,0.61173 c -0.126653,-0.14904 -0.764992,-0.64466 -1.418535,-1.1014 -0.945107,-0.66052 -1.252549,-0.60506 -1.502478,0.27097 -0.236414,0.82867 0.114878,1.10142 1.418524,1.10142 0.95302,0 1.629131,-0.12192 1.502489,-0.27099 z m 32.065666,-2.08123 c -2.01284,-5.16086 -7.35751,-12.80174 -11.8737,-16.97497 -4.56267,-4.21617 -6.65731,-5.90327 -11.30328,-9.10403 -11.285341,-7.77488 -23.183674,-12.98432 -38.962855,-17.05909 -5.943231,-1.53477 -8.239042,-1.71263 -22.106592,-1.71263 -14.371767,0 -15.829087,0.1226 -20.448583,1.71973 -8.998473,3.11118 -14.8777656,6.89895 -17.6766315,11.38827 -0.9726443,1.5601 -0.9101302,1.53899 0.5526661,-0.18663 6.1543124,-7.26006 18.4249324,-11.71751 33.9802344,-12.34371 8.28804,-0.33365 9.876677,-0.16504 25.867319,2.74544 6.613339,1.2037 17.741963,5.27941 26.912152,9.85621 9.81377,4.89801 20.07594,12.60916 26.62948,20.00981 3.02226,3.41292 8.46473,12.05659 8.46473,13.4436 0,0.44991 0.1445,0.62365 0.32111,0.3861 0.17661,-0.23754 0.0165,-1.21319 -0.35605,-2.1681 z m -46.022878,-1.55038 c -0.153315,-0.51105 -0.278754,-0.0929 -0.278754,0.92919 0,1.02211 0.125439,1.44024 0.278754,0.92919 0.153315,-0.51105 0.153315,-1.34733 0,-1.85838 z m -34.81787,-0.74336 c -0.153315,-0.51105 -0.278754,-0.0929 -0.278754,0.92919 0,1.02212 0.125439,1.44026 0.278754,0.92919 0.153315,-0.51105 0.153315,-1.34731 0,-1.85838 z m 48.821137,2.06332 c 0,-0.45086 -3.117387,-2.63097 -3.703046,-2.58967 -0.243071,0.0171 0.428503,0.67213 1.492381,1.45554 2.178316,1.60406 2.210665,1.62066 2.210665,1.13413 z m -5.802979,-1.13413 c 0.187859,-0.40884 -0.03155,-0.74334 -0.48744,-0.74334 -0.455946,0 -0.982699,0.3345 -1.170558,0.74334 -0.187859,0.40885 0.03155,0.74336 0.48743,0.74336 0.455957,0 0.982699,-0.33451 1.170568,-0.74336 z m -47.4225,-2.77343 c -0.140126,-0.72325 -0.263993,-0.31148 -0.275251,0.91505 -0.01129,1.22654 0.103399,1.81828 0.254772,1.31502 0.151384,-0.50328 0.160606,-1.5068 0.02047,-2.23007 z m 32.411561,-3.8548 c -0.395532,-0.65392 -0.700157,0.48714 -0.983185,3.68273 l -0.293789,3.31719 0.732158,-3.3451 c 0.402685,-1.83979 0.647845,-3.48446 0.544816,-3.65482 z m -37.385545,2.3681 c -0.140126,-0.72326 -0.263983,-0.31149 -0.275252,0.91505 -0.01129,1.22653 0.103399,1.81829 0.254773,1.31501 0.151384,-0.50328 0.160605,-1.5068 0.02047,-2.23006 z m 9.947958,-0.74335 c -0.140116,-0.72327 -0.263983,-0.31148 -0.275241,0.91504 -0.01129,1.22653 0.103399,1.81829 0.254773,1.31501 0.151384,-0.50326 0.160595,-1.50679 0.02047,-2.23005 z m 36.645548,0.97559 c 0,-0.14235 -0.44722,-0.41613 -0.99382,-0.60838 -0.677958,-0.23847 -1.018361,0.0889 -1.071063,1.02981 -0.06394,1.14196 0.107102,1.24667 0.99381,0.60839 0.589087,-0.42404 1.071073,-0.88747 1.071073,-1.02982 z m -67.225231,-0.0606 c 0.174965,-0.61326 0.763494,-1.11502 1.307846,-1.11502 0.544352,0 1.322322,-0.71631 1.728816,-1.59179 0.731451,-1.57537 0.717154,-1.57419 -1.386894,0.11462 -1.16927,0.93853 -2.490125,2.15659 -2.935215,2.70682 -0.70769,0.87484 -0.697762,1.0004 0.07903,1.0004 0.488558,0 1.031444,-0.50176 1.206409,-1.11503 z m 15.652286,-0.51105 c -0.176422,-0.59299 -0.307379,-0.41686 -0.333904,0.4491 -0.02395,0.78362 0.106627,1.22267 0.290276,0.97567 0.183638,-0.24702 0.203273,-0.88816 0.04358,-1.42477 z m 54.42485,0.0195 c -1.319125,-0.81469 -2.529786,-1.30456 -2.690371,-1.08856 -0.160584,0.21598 0.359131,0.6125 1.154911,0.88114 0.79578,0.26864 1.446875,0.78668 1.446875,1.15121 0,0.36452 0.559577,0.63458 1.243496,0.60013 0.945687,-0.0476 0.669085,-0.41739 -1.154911,-1.54392 z M 18.01165,216.36245 c 0.213202,-0.46399 -0.525382,0.093 -1.641286,1.23787 -1.115894,1.14482 -2.028904,2.23182 -2.028904,2.41555 0,0.51637 3.232908,-2.70175 3.67019,-3.65342 z m 61.938043,1.93667 c 0.280506,-1.14724 -2.190406,-1.92496 -2.686393,-0.84554 -0.218794,0.47617 -0.266399,1.15174 -0.105794,1.50127 0.401388,0.87354 2.541129,0.37105 2.792187,-0.65573 z m -40.924977,-2.69638 c -0.153315,-0.51105 -0.278755,-0.0929 -0.278755,0.92919 0,1.02211 0.12544,1.44026 0.278755,0.92919 0.153315,-0.51105 0.153315,-1.34732 0,-1.85838 z m 18.095439,-0.9292 c 0.265218,-2.13048 0.210068,-2.65731 -0.194559,-1.85838 -0.310586,0.61327 -0.568513,2.09069 -0.573166,3.28315 -0.01118,2.85633 0.308666,2.2628 0.767725,-1.42477 z m 26.857045,2.60174 c -0.455946,-0.39633 -1.0777,-0.72058 -1.38166,-0.72058 -0.303971,0 -0.179619,0.32425 0.276328,0.72058 0.455946,0.39633 1.077699,0.72059 1.38166,0.72059 0.303971,0 0.179618,-0.32426 -0.276328,-0.72059 z m -9.790022,-1.05423 c 0.897184,-0.91538 0.809221,-1.03487 -0.967158,-1.3138 -1.920969,-0.30164 -2.818818,1.03149 -1.263279,1.87572 1.034388,0.56141 1.160608,0.52961 2.230437,-0.56192 z m -49.89776,-0.73455 c 0,-0.6936 -0.387724,-0.90907 -1.152051,-0.64023 -0.875893,0.30808 -0.975251,0.55595 -0.414492,1.03406 1.073996,0.9157 1.566543,0.79187 1.566543,-0.39383 z m 9.772835,-0.58065 c -0.176432,-0.593 -0.30739,-0.41686 -0.333904,0.4491 -0.02395,0.78362 0.106627,1.22266 0.290265,0.97566 0.183649,-0.24701 0.203284,-0.88816 0.04368,-1.42476 z m -12.304331,-0.97877 c 1.495357,-1.0204 2.365805,-1.85355 1.934326,-1.85146 -0.712733,0.004 -5.574857,3.63973 -4.92948,3.68664 0.151985,0.011 1.499808,-0.81477 2.995154,-1.83518 z M 68.226938,213.56 c -0.144916,-0.31539 -0.997101,-0.71825 -1.893747,-0.89525 -1.406286,-0.27761 -1.559949,-0.1451 -1.118436,0.96454 0.281518,0.70749 0.825564,1.43786 1.209005,1.62301 0.827401,0.39955 2.180742,-0.87059 1.803178,-1.6923 z m 11.731935,1.77947 c -0.18366,-0.24701 -0.660328,-0.27342 -1.059278,-0.0586 -0.440879,0.2373 -0.309922,0.41344 0.333904,0.44912 0.582589,0.0323 0.909012,-0.14343 0.725374,-0.39043 z m -51.027106,-2.75884 c 0.334379,-0.33342 -0.01382,-0.37549 -0.773697,-0.0934 -1.851005,0.68689 -2.052949,1.02639 -1.089326,1.83133 0.537399,0.4489 0.88792,0.3722 1.034029,-0.22625 0.121567,-0.49796 0.494615,-1.17817 0.828994,-1.51159 z m 32.315379,-0.58341 c -1.036235,-0.8829 -2.139858,-0.83208 -2.139858,0.0985 0,1.06352 2.43141,2.22514 2.692513,1.28637 0.113042,-0.4064 -0.135653,-1.02961 -0.552655,-1.38491 z m -28.115091,0.44627 c 0,-0.61326 -0.358372,-1.11503 -0.796381,-1.11503 -1.068457,0 -1.597658,1.26402 -0.726893,1.73621 1.206494,0.65424 1.523274,0.52506 1.523274,-0.62118 z m 6.456838,-0.51105 c -0.176422,-0.59301 -0.307379,-0.41686 -0.333894,0.4491 -0.02406,0.78362 0.106617,1.22266 0.290266,0.97565 0.183649,-0.247 0.203284,-0.88815 0.04357,-1.42475 z m 8.465105,0.90888 c 0,-0.39446 -0.559577,-1.11215 -1.243497,-1.59487 -1.236827,-0.87297 -1.237851,-0.86913 -0.190675,0.7172 1.169619,1.77181 1.434172,1.93371 1.434172,0.87767 z m 26.378224,0.26808 c -0.183649,-0.247 -0.660327,-0.27341 -1.059277,-0.0586 -0.44088,0.23729 -0.309922,0.41344 0.333904,0.4491 0.582599,0.0323 0.909022,-0.14341 0.725373,-0.39042 z m -36.326193,-1.40927 c 0,-0.72721 -0.5286,-1.10586 -1.519824,-1.08869 l -1.519824,0.0263 1.38166,1.06235 c 1.729206,1.32957 1.657988,1.32957 1.657988,0 z m 4.973984,-0.37167 c -0.325347,-0.81769 -1.018023,-1.47558 -1.539269,-1.46198 -0.779215,0.0204 -0.715741,0.28468 0.357,1.48671 1.65057,1.84951 1.925738,1.84376 1.182269,-0.0248 z m 12.711289,0.37167 c 0,-0.69002 -0.520032,-1.11502 -1.364314,-1.11502 -0.985675,0 -1.276025,0.30946 -1.046205,1.11502 0.174965,0.61327 0.788911,1.11503 1.364325,1.11503 0.575403,0 1.046194,-0.50176 1.046194,-1.11503 z m 66.872428,0.83437 c 0,-0.15435 -0.43523,-0.73975 -0.96716,-1.30086 -0.87657,-0.92464 -0.89611,-0.89834 -0.20867,0.28066 0.72198,1.23824 1.17583,1.63201 1.17583,1.0202 z m -95.334654,-1.20604 c 0.696707,-0.40268 0.798861,-0.63886 0.276328,-0.63886 -0.455946,0 -1.326394,0.28749 -1.934326,0.63886 -0.696707,0.40269 -0.79886,0.63886 -0.276328,0.63886 0.455946,0 1.326395,-0.28748 1.934326,-0.63886 z m 22.38292,-0.37168 c 0,-0.6409 -0.498783,-1.11503 -1.173006,-1.11503 -0.980008,0 -1.059805,0.18346 -0.484992,1.11503 0.378407,0.61326 0.906258,1.11503 1.172995,1.11503 0.266747,0 0.485003,-0.50177 0.485003,-1.11503 z m 19.746242,0.66592 c -0.183649,-0.24701 -0.660317,-0.27342 -1.059278,-0.0588 -0.440869,0.2373 -0.309922,0.41343 0.333904,0.44911 0.582599,0.0322 0.909022,-0.14342 0.725374,-0.39043 z m -2.76332,-0.74335 c -0.183649,-0.24702 -0.660328,-0.27342 -1.059278,-0.0588 -0.440879,0.2373 -0.309922,0.41345 0.333904,0.44912 0.582599,0.0323 0.909022,-0.14342 0.725374,-0.39043 z m -36.475869,-0.74336 c -0.183648,-0.247 -0.660317,-0.27342 -1.059277,-0.0588 -0.44088,0.2373 -0.309922,0.41345 0.333904,0.44912 0.582599,0.0323 0.909022,-0.14341 0.725373,-0.39043 z m 33.712549,0 c -0.18366,-0.247 -0.660328,-0.27342 -1.059278,-0.0588 -0.440879,0.2373 -0.309922,0.41345 0.333904,0.44912 0.582599,0.0323 0.909012,-0.14341 0.725374,-0.39043 z m 59.495282,-1.96679 c -1.2926,-3.38251 -8.68526,-13.06331 -12.62016,-16.52632 -9.45687,-8.32272 -23.795074,-15.64378 -38.711815,-19.76615 -8.598964,-2.3764 -9.223355,-2.44417 -22.659247,-2.45933 -13.183304,-0.0149 -14.059587,0.0732 -19.117441,1.92199 -5.313649,1.9423 -10.628438,5.16096 -13.213437,8.00212 l -1.38166,1.51858 2.555383,-1.48453 c 3.565842,-2.07158 15.115045,-5.00003 22.03819,-5.58809 14.399632,-1.22312 38.163525,4.17337 52.779471,11.98556 1.823795,0.97481 3.487702,1.77143 3.69757,1.77025 0.209868,-0.001 3.042412,1.69853 6.294536,3.77711 7.27089,4.64718 13.89922,10.34007 17.91746,15.38884 1.67182,2.10055 3.10823,3.83195 3.19202,3.84753 0.0838,0.0155 -0.2631,-1.05882 -0.77087,-2.38756 z m -90.709327,1.18024 c -0.379959,-0.20621 -1.001702,-0.20621 -1.38166,0 -0.379959,0.20622 -0.06911,0.37493 0.69083,0.37493 0.759917,0 1.070788,-0.16871 0.69083,-0.37493 z m 12.296786,-0.25105 c 0.187859,-0.40883 -0.06088,-0.74335 -0.552666,-0.74335 -0.491819,0 -0.740525,0.33452 -0.552655,0.74335 0.187858,0.40886 0.436553,0.74336 0.552655,0.74336 0.116113,0 0.364808,-0.3345 0.552666,-0.74336 z m 15.889111,0.25105 c -0.379958,-0.20621 -1.001701,-0.20621 -1.38166,0 -0.379958,0.20622 -0.06911,0.37493 0.69083,0.37493 0.759918,0 1.070789,-0.16871 0.69083,-0.37493 z m -24.034471,-0.76178 c -0.528388,-0.18606 -1.523189,-0.19281 -2.210654,-0.015 -0.687464,0.17781 -0.255141,0.33003 0.960722,0.33829 1.215863,0.008 1.778331,-0.13719 1.249932,-0.32328 z m 19.895927,0 c -0.528399,-0.18606 -1.523189,-0.19281 -2.210653,-0.015 -0.687465,0.17781 -0.255142,0.33005 0.960721,0.33829 1.215853,0.008 1.778331,-0.13719 1.249932,-0.32328 z m 55.398194,-6.52497 c 0,-0.19003 -0.55958,-0.71025 -1.24349,-1.15603 -1.19411,-0.77833 -1.20089,-0.76461 -0.17071,0.34552 1.12759,1.21507 1.4142,1.37934 1.4142,0.81051 z m -5.5727,-4.38558 c -0.12666,-0.14904 -0.85203,-0.66926 -1.61194,-1.15604 -1.30278,-0.83452 -1.32042,-0.81905 -0.30888,0.27099 0.8804,0.9487 2.67926,1.77757 1.92082,0.88505 z m -5.75693,-6.08257 c -2.127757,-1.37997 -4.117349,-2.49929 -4.42132,-2.48739 -0.703649,0.0275 6.99466,5.00052 7.7373,4.99816 0.30398,-9.7e-4 -1.18823,-1.13081 -3.31598,-2.51077 z m -7.460978,-1.82334 c -0.455946,-0.39631 -1.077689,-0.72058 -1.38166,-0.72058 -0.303961,0 -0.179608,0.32427 0.276338,0.72058 0.455946,0.39633 1.077689,0.7206 1.38166,0.7206 0.303961,0 0.179619,-0.32427 -0.276338,-0.7206 z m -2.76332,-1.4867 c -0.455946,-0.39633 -1.077689,-0.72059 -1.38166,-0.72059 -0.303961,0 -0.179618,0.32426 0.276328,0.72059 0.455956,0.39632 1.077699,0.72059 1.38167,0.72059 0.303961,0 0.179608,-0.32427 -0.276338,-0.72059 z m 4.421318,0 c -0.455946,-0.39633 -1.077699,-0.72059 -1.38166,-0.72059 -0.303971,0 -0.179618,0.32426 0.276328,0.72059 0.455957,0.39632 1.0777,0.72059 1.381671,0.72059 0.30396,0 0.179608,-0.32427 -0.276339,-0.72059 z m -9.67163,-2.23006 c -1.519824,-0.75431 -3.136368,-1.37149 -3.592325,-1.37149 -0.455946,0 0.414503,0.61718 1.934326,1.37149 1.519835,0.75432 3.136379,1.37148 3.592325,1.37148 0.455946,0 -0.414502,-0.61716 -1.934326,-1.37148 z m 6.631972,0.74335 c -1.519317,-0.87814 -2.391908,-0.87814 -1.38166,0 0.455946,0.39633 1.202052,0.7022 1.657998,0.67973 0.546621,-0.027 0.452486,-0.25848 -0.276338,-0.67973 z m -3.868652,-1.88523 c -0.911892,-0.56162 -2.031036,-1.01076 -2.486992,-0.9981 -0.455947,0.0124 0.04147,0.4739 1.105332,1.02495 2.523298,1.307 3.516084,1.28771 1.38166,-0.0268 z m -10.373972,-1.53729 c -0.183649,-0.247 -0.660327,-0.27343 -1.059277,-0.0586 -0.440869,0.2373 -0.309922,0.41344 0.333904,0.44911 0.582599,0.0323 0.909022,-0.14341 0.725373,-0.39043 z m 4.570993,-0.66592 c -1.063877,-0.55106 -2.307373,-1.00193 -2.76332,-1.00193 -0.455946,0 0.04147,0.45087 1.105333,1.00193 1.063877,0.55106 2.307374,1.00192 2.76332,1.00192 0.455946,0 -0.04146,-0.45086 -1.105333,-1.00192 z m -6.781647,-0.0775 c -0.183648,-0.247 -0.660327,-0.2734 -1.059277,-0.0586 -0.44088,0.23729 -0.309922,0.41344 0.333904,0.4491 0.582599,0.0323 0.909012,-0.14341 0.725373,-0.39042 z m -2.210664,-0.74334 c -0.183649,-0.24701 -0.660317,-0.27342 -1.059278,-0.0588 -0.440869,0.2373 -0.309921,0.41344 0.333904,0.4491 0.582599,0.0323 0.909023,-0.14341 0.725374,-0.39041 z m -2.210654,-0.74336 c -0.183649,-0.24701 -0.660327,-0.27342 -1.059278,-0.0588 -0.440879,0.2373 -0.309921,0.41343 0.333904,0.44911 0.582599,0.0322 0.909012,-0.14342 0.725374,-0.39042 z m 6.505319,-0.29424 c -0.607931,-0.35137 -1.602732,-0.62903 -2.210654,-0.617 -0.888574,0.0176 -0.834374,0.13855 0.276328,0.617 1.889654,0.81398 3.342638,0.81398 1.934326,0 z m -9.533466,-0.49231 c -0.379959,-0.20621 -1.001702,-0.20621 -1.38166,0 -0.379959,0.20622 -0.06911,0.37494 0.69083,0.37494 0.759917,0 1.070788,-0.16872 0.69083,-0.37494 z M 63.67729,179.62 c -0.374167,-0.20363 -1.120262,-0.21603 -1.657988,-0.0275 -0.537737,0.18847 -0.231592,0.35507 0.680311,0.37022 0.911892,0.0151 1.351843,-0.13906 0.977677,-0.34268 z m 9.096934,0.0385 c -0.183649,-0.247 -0.660317,-0.27342 -1.059267,-0.0588 -0.44088,0.2373 -0.309933,0.41345 0.333893,0.44911 0.582599,0.0322 0.909023,-0.14341 0.725374,-0.39042 z m -41.449842,-0.74336 c -0.183649,-0.247 -0.660328,-0.27341 -1.059278,-0.0586 -0.440879,0.23729 -0.309922,0.41344 0.333904,0.4491 0.582599,0.0323 0.909012,-0.14341 0.725374,-0.39042 z m 28.484255,-0.0385 c -0.374166,-0.20363 -1.120272,-0.21601 -1.657998,-0.0275 -0.537726,0.18848 -0.231581,0.35508 0.680321,0.37023 0.911893,0.0151 1.351844,-0.13905 0.977677,-0.34268 z m 10.490116,-0.004 c -0.379958,-0.20621 -1.001712,-0.20621 -1.38167,0 -0.379948,0.20623 -0.06911,0.37495 0.69084,0.37495 0.759907,0 1.070778,-0.16872 0.69083,-0.37495 z m -34.254695,-0.73866 c -0.374166,-0.20363 -1.120272,-0.21601 -1.657988,-0.0275 -0.537726,0.18846 -0.231592,0.35506 0.680311,0.37021 0.911892,0.0151 1.351854,-0.13905 0.977677,-0.34268 z m 18.510195,-0.0231 c -0.5284,-0.18605 -1.523201,-0.19281 -2.210665,-0.015 -0.687464,0.1778 -0.255142,0.33003 0.960722,0.33828 1.215863,0.008 1.778342,-0.1372 1.249943,-0.32328 z m 12.98117,0.0184 c -0.379959,-0.20623 -1.001702,-0.20623 -1.38166,0 -0.379959,0.20622 -0.06911,0.37493 0.69083,0.37493 0.759917,0 1.070788,-0.16871 0.69083,-0.37493 z M 45.428841,177.3535 c -0.683919,-0.17718 -1.803073,-0.17718 -2.486992,0 -0.683919,0.17719 -0.124353,0.32215 1.243496,0.32215 1.367849,0 1.927416,-0.14496 1.243496,-0.32215 z m 19.353781,0.037 c -0.374177,-0.20363 -1.120272,-0.21603 -1.657999,-0.0275 -0.537726,0.18848 -0.231581,0.35508 0.680311,0.37023 0.911903,0.0151 1.351854,-0.13907 0.977688,-0.34268 z m -31.229629,-0.76651 c -0.528399,-0.18606 -1.52319,-0.19282 -2.210654,-0.015 -0.687475,0.1778 -0.255141,0.33003 0.960711,0.33828 1.215864,0.008 1.778342,-0.13719 1.249943,-0.32328 z m 26.53136,-0.0204 c -0.83046,-0.16961 -2.322662,-0.17302 -3.315986,-0.008 -0.993334,0.16545 -0.313868,0.30422 1.509927,0.30839 1.823795,0.004 2.63652,-0.13114 1.806059,-0.3008 z m -10.7616,-0.76346 c -2.189859,-0.14073 -5.920347,-0.14157 -8.289971,-10e-4 -2.369624,0.13967 -0.577925,0.25482 3.981557,0.25585 4.559482,0.001 6.498272,-0.11325 4.308414,-0.25396 z"
       id="path4586"
       inkscape:connector-curvature="0" />
  </g>
</svg>
