<?xml version="1.0" encoding="UTF-8" standalone="no"?>
<svg
   xmlns:dc="http://purl.org/dc/elements/1.1/"
   xmlns:cc="http://creativecommons.org/ns#"
   xmlns:rdf="http://www.w3.org/1999/02/22-rdf-syntax-ns#"
   xmlns:svg="http://www.w3.org/2000/svg"
   xmlns="http://www.w3.org/2000/svg"
   width="500mm"
   height="500mm"
   viewBox="0 0 500 500"
   version="1.1"
   id="svg8">
  <defs
     id="defs2" />
  <metadata
     id="metadata5">
    <rdf:RDF>
      <cc:Work
         rdf:about="">
        <dc:format>image/svg+xml</dc:format>
        <dc:type
           rdf:resource="http://purl.org/dc/dcmitype/StillImage" />
        <dc:title></dc:title>
      </cc:Work>
    </rdf:RDF>
  </metadata>
  <path
     id="path143"
     d="M 2.7905697,253.65293 C 2.7905697,56.854052 2.9714934,47.455562 6.8270191,43.96636 10.531553,40.613796 30.858865,40.313425 254.03643,40.313425 h 243.173 V 247.35132 c 0,158.08651 -0.62623,207.66415 -2.64867,209.68658 -2.0282,2.0282 -59.9385,2.64867 -247.20945,2.64867 H 2.7905697 Z M 487.84026,252.98664 487.27691,50.701177 247.79276,50.741138 8.3086324,50.781098 7.7452805,253.02662 7.1819174,455.27212 H 247.79276 488.40364 Z M 17.174295,447.78423 c -6.698258,-6.69827 -7.080064,-13.05914 -1.140369,-18.99883 6.177514,-6.17753 14.207394,-5.5876 19.743514,1.45043 10.455528,13.29205 -6.687974,29.46356 -18.603145,17.5484 z m 15.519825,-4.50384 c 4.440226,-6.77665 1.051564,-14.49499 -6.363886,-14.49499 -9.630608,0 -13.627075,9.59726 -6.827802,16.39653 4.914594,4.91462 9.123061,4.30796 13.191688,-1.90154 z m 427.99574,4.36675 c -2.97975,-2.97975 -5.41775,-7.44938 -5.41775,-9.93252 0,-6.17362 7.66296,-13.34368 14.26099,-13.34368 6.27788,0 14.43297,7.77478 14.43297,13.7599 0,5.01498 -9.52913,14.93405 -14.34698,14.93405 -1.93132,0 -5.94947,-2.43799 -8.92923,-5.41775 z m 14.82531,-2.64965 c 7.22167,-6.53552 3.70247,-16.21209 -5.89608,-16.21209 -9.29496,0 -13.13077,9.72981 -6.46402,16.39653 4.4194,4.41942 7.32076,4.37612 12.3601,-0.18452 z m -415.120005,-28.35701 -0.383941,-16.55935 9.794299,-10.47919 9.794309,-10.47915 26.708578,0.68159 26.70855,0.68158 v 15.95559 15.95558 l -10.56014,10.40136 -10.56014,10.40136 H 86.337896 60.779116 Z m 24.062801,8.81537 c 0,-2.77893 -0.731289,-2.87285 -4.42208,-0.56791 -5.838271,3.64607 -12.132119,-0.1821 -12.132119,-7.37925 0,-4.67172 0.950094,-5.24861 8.277105,-5.02574 5.64237,0.17171 8.277094,-0.70662 8.277094,-2.75903 0,-2.09687 -3.015029,-3.0108 -9.932515,-3.0108 h -9.932526 v 11.03614 11.03614 h 9.932526 c 7.382215,0 9.932515,-0.85491 9.932515,-3.32955 z m 26.486744,-7.70659 v -11.03614 h -10.0628 c -6.14646,0 -9.531875,0.85903 -8.698639,2.20723 0.75028,1.21398 4.218341,2.20723 7.706816,2.20723 4.453703,0 6.769963,1.34625 7.777393,4.52038 1.93761,6.10488 -2.93866,11.52241 -9.280099,10.31015 -2.805274,-0.53625 -5.100499,-0.1195 -5.100499,0.92613 0,1.04564 3.973006,1.90116 8.828908,1.90116 h 8.82892 z m 17.5931,-18.62258 -0.0647,-13.38222 -6.55698,7.20832 c -5.65305,6.21456 -6.55699,8.93402 -6.55699,19.72619 v 12.51787 l 6.62168,-6.34397 c 5.95219,-5.70254 6.61514,-7.697 6.55698,-19.72619 z m -49.597907,18.59234 c 0,-4.73119 -6.413475,-4.04784 -7.343711,0.78249 -0.568066,2.94974 0.330882,3.84867 3.280621,3.28062 2.234695,-0.43037 4.06309,-2.25877 4.06309,-4.06311 z m 24.398367,2.04515 c 2.27459,-3.68037 -2.84117,-7.90079 -5.886062,-4.8559 -2.546975,2.54697 -0.952907,7.25544 2.456358,7.25544 1.070684,0 2.614044,-1.07979 3.429704,-2.39954 z m 8.71004,-19.67273 c 0.87635,-1.41795 -6.92321,-2.20722 -21.811748,-2.20722 -13.069671,0 -23.770734,0.9625 -24.540027,2.20722 -0.876344,1.41795 6.923212,2.20723 21.81175,2.20723 13.069685,0 23.770735,-0.9625 24.540025,-2.20723 z m 8.38015,-12.2091 3.96569,-5.44871 h -20.11319 c -20.564601,0 -27.143078,1.71333 -29.426562,7.66397 -1.107057,2.88493 1.805368,3.36214 20.157174,3.30281 20.227548,-0.0654 21.677418,-0.3802 25.416888,-5.51807 z m 41.28246,28.29504 v -17.02247 l 9.28847,-9.46425 9.28847,-9.46426 h 26.02717 26.02714 v 17.02246 17.02247 l -9.28846,9.46426 -9.28848,9.46426 h -26.02715 -26.02716 z m 22.07228,10.78306 c 0,-1.00372 -2.93422,-1.39429 -6.52049,-0.86795 -5.62359,0.82537 -6.73098,0.1183 -8.05077,-5.14015 -1.92356,-7.66406 3.98985,-13.12521 10.4617,-9.66159 3.1784,1.70103 4.10956,1.43159 4.10956,-1.18913 0,-2.48177 -2.36255,-3.3885 -8.82892,-3.3885 h -8.82891 v 11.03614 11.03614 h 8.82891 c 4.8559,0 8.82892,-0.82123 8.82892,-1.82496 z m 28.69394,-9.21118 v -11.03614 h -9.93253 c -7.45858,0 -9.93251,0.84398 -9.93251,3.3885 0,2.64952 0.91801,2.8972 4.20949,1.13565 3.19691,-1.71092 5.39136,-1.29584 9.12274,1.72566 4.26268,3.45171 4.55608,4.64583 2.21587,9.01858 -2.09423,3.9131 -4.13409,4.82921 -9.12273,4.09702 -3.53396,-0.51866 -6.42537,-0.12181 -6.42537,0.88191 0,1.00373 4.46963,1.82496 9.93251,1.82496 h 9.93253 z m 11.94355,-0.16929 c 4.61031,-5.4791 5.71427,-9.10372 5.71427,-18.7615 0,-6.58372 -0.80646,-11.97039 -1.79213,-11.97039 -4.72416,0 -12.32403,14.83969 -13.23681,25.84646 -1.12436,13.55832 1.05503,14.70138 9.31467,4.88536 z m -44.33536,3.13147 c 1.99607,-1.99605 -2.95065,-7.62051 -5.38114,-6.11838 -3.0432,1.88079 -2.30227,7.57072 0.98584,7.57072 1.61863,0 3.59651,-0.65356 4.3953,-1.45234 z m 24.27951,0 c 1.99605,-1.99605 -2.95066,-7.62051 -5.38115,-6.11838 -3.04319,1.88079 -2.30227,7.57072 0.98583,7.57072 1.61864,0 3.59652,-0.65356 4.39532,-1.45234 z m 8.1123,-20.62 c 0,-1.33133 -9.19678,-2.20722 -23.17588,-2.20722 -13.97911,0 -23.17589,0.87589 -23.17589,2.20722 0,1.33133 9.19678,2.20723 23.17589,2.20723 13.9791,0 23.17588,-0.8759 23.17588,-2.20723 z m 8.82891,-12.13975 5.18396,-5.51806 h -22.07227 c -20.68988,0 -22.39695,0.3456 -27.25623,5.51806 l -5.18396,5.51806 h 22.07228 c 20.68987,0 22.39695,-0.3456 27.25622,-5.51806 z m 41.9373,28.03499 c 0,-17.10557 0.0556,-17.27118 8.91086,-26.48673 l 8.91085,-9.27355 h 26.40479 26.40477 v 17.02246 17.02247 l -9.28847,9.46426 -9.28848,9.46426 h -26.02715 -26.02717 z m 22.07227,11.12195 c 0,-0.9222 -3.22806,-1.66714 -7.17348,-1.65542 -5.93603,0.0177 -7.30484,-0.90923 -7.93492,-5.37306 -0.98277,-6.96254 5.19215,-11.89703 10.99886,-8.7894 3.17841,1.70103 4.10954,1.43159 4.10954,-1.18913 0,-2.48177 -2.36255,-3.3885 -8.8289,-3.3885 h -8.82892 v 11.03614 11.03614 h 8.82892 c 4.8559,0 8.8289,-0.75454 8.8289,-1.67677 z m 26.48673,-9.35937 v -11.03614 h -8.82891 c -6.46636,0 -8.82891,0.90673 -8.82891,3.3885 0,2.62072 0.93114,2.89016 4.10955,1.18913 5.80671,-3.10763 11.98162,1.82686 10.99886,8.7894 -0.63008,4.46383 -1.99889,5.39071 -7.93492,5.37306 -3.94542,-0.0111 -7.17349,0.73322 -7.17349,1.65542 0,0.92223 3.97301,1.67677 8.82891,1.67677 h 8.82891 z m 13.09307,0.21101 c 3.38953,-4.76018 4.54808,-9.73246 4.50005,-19.31324 l -0.0647,-12.90264 -6.55698,7.20832 c -5.59782,6.15389 -6.55698,8.97901 -6.55698,19.31324 0,6.65771 0.92562,12.10493 2.05694,12.10493 1.1313,0 4.11104,-2.88479 6.62168,-6.41061 z m -43.99425,1.26048 c 0,-1.61865 -0.65356,-3.59652 -1.45234,-4.39531 -1.99605,-1.99607 -7.62051,2.95066 -6.11838,5.38114 1.8808,3.0432 7.57072,2.30228 7.57072,-0.98583 z m 23.85931,-0.91968 c -0.89598,-4.65248 -4.81326,-4.35913 -5.81152,0.43522 -0.4164,1.9997 0.80032,3.42742 2.92086,3.42742 2.27336,0 3.35594,-1.44661 2.89066,-3.86264 z m 9.2491,-18.20963 c 0,-1.33133 -9.19679,-2.20722 -23.17588,-2.20722 -13.97911,0 -23.1759,0.87589 -23.1759,2.20722 0,1.33133 9.19679,2.20723 23.1759,2.20723 13.97909,0 23.17588,-0.8759 23.17588,-2.20723 z m 6.99969,-10.27462 c 2.22005,-2.0091 4.03643,-4.49224 4.03643,-5.51807 0,-1.0258 -9.26275,-1.86512 -20.58391,-1.86512 -19.10228,0 -20.95702,0.39718 -25.76785,5.51806 l -5.18396,5.51806 h 21.73143 c 17.12384,0 22.58721,-0.7745 25.76786,-3.65293 z m 43.76653,25.06956 c 0,-18.2579 0.0251,-18.33795 8.27709,-26.37337 l 8.27711,-8.05987 26.48672,-0.38656 26.48673,-0.38658 0.63731,16.41952 0.63732,16.4195 -9.10201,10.34041 -9.10199,10.34042 H 391.07493 364.7758 Z m 22.07227,11.99786 c 0,-1.04563 -2.51794,-1.41979 -5.59541,-0.8315 -3.50248,0.66953 -7.2177,-0.39852 -9.93252,-2.85541 -4.18385,-3.78633 -4.33712,-3.75694 -4.33712,0.83151 0,4.16592 1.23338,4.75656 9.93253,4.75656 5.46289,0 9.93252,-0.85552 9.93252,-1.90116 z m 26.48673,-9.13498 v -11.03614 h -8.82892 c -6.46635,0 -8.8289,0.90673 -8.8289,3.3885 0,2.62072 0.93113,2.89016 4.10954,1.18913 6.47186,-3.46362 12.38526,1.99753 10.46171,9.66159 -1.31979,5.2585 -2.42718,5.96552 -8.05077,5.14015 -3.58627,-0.52634 -6.52048,-0.13577 -6.52048,0.86795 0,1.00373 3.973,1.82496 8.8289,1.82496 h 8.82892 z M 390.613,412.783 c -0.52609,-2.73145 -0.95654,-0.49663 -0.95654,4.96626 0,5.46288 0.43045,7.6977 0.95654,4.96626 0.52612,-2.73144 0.52612,-7.20108 0,-9.93252 z m 40.31492,-13.65632 -0.0647,-13.38222 -6.55697,7.20832 c -5.65308,6.21456 -6.55702,8.93402 -6.55702,19.72619 v 12.51787 l 6.62167,-6.34397 c 5.95219,-5.70254 6.61516,-7.697 6.55699,-19.72619 z m -48.9145,19.17439 c -0.40912,-2.12446 -2.20654,-3.86265 -3.99426,-3.86265 -1.78773,0 -3.58513,1.73819 -3.99427,3.86265 -0.52191,2.71014 0.66986,3.86264 3.99427,3.86264 3.32441,0 4.51618,-1.1525 3.99426,-3.86264 z m 24.69969,0.68207 c 0,-4.31543 -4.27842,-6.66726 -7.06313,-3.88256 -1.24521,1.24521 -1.59668,3.34382 -0.78102,4.66359 2.16355,3.50071 7.84415,2.93511 7.84415,-0.78103 z m -35.31563,-5.88983 c 0,-1.49882 2.99673,-2.09885 7.7253,-1.54683 5.32755,0.62198 7.72529,0.0111 7.72529,-1.96573 0,-1.9272 -3.25738,-2.86763 -9.93252,-2.86763 -8.46104,0 -9.93253,0.65401 -9.93253,4.41446 0,2.42794 0.99326,4.41445 2.20723,4.41445 1.21398,0 2.20723,-1.10191 2.20723,-2.44872 z m 43.04093,-13.00187 c 0.87653,-1.41825 -6.96663,-2.20722 -21.94201,-2.20722 -14.06595,0 -23.30615,0.8751 -23.30615,2.20722 0,1.32346 8.7855,2.20723 21.942,2.20723 12.2471,0 22.54475,-0.97524 23.30616,-2.20723 z m 8.75357,-11.58794 3.48583,-4.96626 -19.94121,-0.63498 c -16.34326,-0.52042 -20.91956,0.077 -25.36358,3.31084 -2.9823,2.1702 -5.45358,4.69076 -5.49174,5.60124 -0.0381,0.91048 9.80684,1.65541 21.87778,1.65541 20.25563,0 22.21576,-0.38275 25.43292,-4.96625 z M 102.11579,373.60471 c 0,-2.42795 0.38078,-4.41445 0.84619,-4.41445 0.4654,0 1.36566,1.9865 2.00058,4.41445 0.63492,2.42795 0.25414,4.41446 -0.84618,4.41446 -1.10032,0 -2.00059,-1.98651 -2.00059,-4.41446 z m 100.08688,1.00843 c -0.71886,-1.87333 -0.68769,-4.02537 0.0693,-4.78232 0.75697,-0.75697 1.37631,0.19636 1.37631,2.11847 0,1.92213 1.24156,3.99577 2.75903,4.60808 2.16101,0.87198 2.146,1.15106 -0.0693,1.28754 -1.55559,0.0957 -3.41648,-1.35846 -4.13534,-3.23177 z m 8.67412,-1.00843 c 0.18298,-2.42795 1.11443,-4.41445 2.07005,-4.41445 0.95564,0 1.73753,1.9865 1.73753,4.41445 0,2.42795 -0.93151,4.41446 -2.07005,4.41446 -1.13853,0 -1.92042,-1.98651 -1.73753,-4.41446 z m 83.442,0.91969 c -0.0958,-2.52913 1.15008,-4.5984 2.76871,-4.5984 1.61865,0 2.94297,1.28065 2.94297,2.84589 0,1.56522 -0.74288,2.38673 -1.65085,1.82559 -0.90794,-0.56114 -2.15387,0.22748 -2.76869,1.75252 -0.61485,1.52503 -1.1963,0.70351 -1.29214,-1.8256 z m 8.65465,-0.91969 c 0,-2.42795 0.38079,-4.41445 0.84618,-4.41445 0.4654,0 1.36566,1.9865 2.00059,4.41445 0.63494,2.42795 0.25414,4.41446 -0.84619,4.41446 -1.10032,0 -2.00058,-1.98651 -2.00058,-4.41446 z m 8.66004,3.99292 c -1.52736,-6.16874 -1.13653,-8.40737 1.46778,-8.40737 3.56061,0 4.2277,5.67381 0.90832,7.7253 -1.21398,0.75028 -2.28323,1.05722 -2.3761,0.68207 z m 90.4963,-0.13022 c -1.39777,-4.56718 -1.23452,-8.2771 0.36417,-8.2771 1.10657,0 2.01193,1.4071 2.01193,3.12691 0,1.71978 1.24157,3.62788 2.75903,4.24019 1.64823,0.66509 1.20391,1.18345 -1.10361,1.28755 -2.12445,0.0958 -3.93864,-0.0742 -4.03152,-0.37755 z m -310.314394,-4.6892 c 0,-1.48718 1.655433,-2.82866 3.678727,-2.98107 2.023284,-0.1523 3.678705,0.93968 3.678705,2.42684 0,1.4872 -1.655421,2.82868 -3.678705,2.98108 -2.023294,0.15231 -3.678727,-0.93967 -3.678727,-2.42685 z m 18.208794,1.12274 c -0.95081,-1.53844 -1.13267,-3.39324 -0.40411,-4.1218 1.97538,-1.97538 4.12921,0.92991 3.06227,4.13072 -0.74764,2.24291 -1.26753,2.24117 -2.65816,-0.009 z m 82.58792,-1.10125 c 0,-1.58053 1.48987,-2.8737 3.31084,-2.8737 1.82096,0 3.31084,0.72145 3.31084,1.60322 0,0.88177 -1.48988,2.17491 -3.31084,2.87369 -1.89821,0.72841 -3.31084,0.0444 -3.31084,-1.60321 z m 203.06488,-0.42886 c 0,-1.89262 1.00945,-2.81722 2.24322,-2.05472 1.23378,0.76251 1.6718,2.31101 0.97334,3.44112 -1.89209,3.0615 -3.21656,2.49065 -3.21656,-1.3864 z m 15.45058,0.13022 c 0,-1.82097 0.99325,-3.31084 2.20724,-3.31084 1.21397,0 2.20722,1.48987 2.20722,3.31084 0,1.82096 -0.99325,3.31084 -2.20722,3.31084 -1.21399,0 -2.20724,-1.48988 -2.20724,-3.31084 z M 108.73747,361.46492 c 0,-2.06007 -2.0846,-3.31084 -5.51806,-3.31084 -5.314804,0 -5.518076,-0.5237 -5.518076,-14.2167 0,-7.81919 0.99587,-14.8322 2.213036,-15.58446 1.21718,-0.75225 4.25027,-5.83968 6.74019,-11.30542 4.89366,-10.74227 12.25664,-12.96492 11.75115,-3.54733 -0.35096,6.53852 2.26233,6.2499 5.38074,-0.59425 1.3828,-3.03493 3.9539,-5.51806 5.71353,-5.51806 3.95684,0 6.8204,19.71332 4.87465,33.55815 -0.73299,5.21552 -1.30721,12.71085 -1.27604,16.65627 0.0455,5.75748 -0.82838,7.17348 -4.42693,7.17348 -2.51394,5e-5 -4.4836,-1.45442 -4.4836,-3.31079 0,-1.82097 -1.02442,-3.31085 -2.2765,-3.31085 -1.25207,0 -2.84822,1.48988 -3.54699,3.31085 -0.69877,1.82096 -3.15073,3.31084 -5.4488,3.31084 -2.29805,0 -4.1783,-1.48988 -4.1783,-3.31084 z m -2.20723,-8.69864 c 0,-0.53534 -0.99324,-1.58721 -2.20722,-2.33749 -1.21397,-0.75028 -2.20723,-0.31228 -2.20723,0.97334 0,1.28562 0.99326,2.3375 2.20723,2.3375 1.21398,0 2.20722,-0.438 2.20722,-0.97335 z m 15.45059,-2.33745 c 0,-1.82096 -0.39036,-3.31084 -0.86746,-3.31084 -0.47711,0 -1.43919,1.48988 -2.13795,3.31084 -0.69877,1.82097 -0.30841,3.31084 0.86746,3.31084 1.17588,0 2.13795,-1.48987 2.13795,-3.31084 z m -5.14697,-4.5856 c 0.7349,-1.9151 -0.0864,-4.90457 -1.82511,-6.64327 -4.26069,-4.2607 -11.63664,0.66449 -9.46609,6.32084 1.82826,4.76439 9.50257,4.98352 11.2912,0.32243 z m 16.1831,-10.21558 c 0,-12.84496 -5.34607,-9.59811 -6.20647,3.76941 -0.61042,9.48382 -0.29787,10.37131 2.75903,7.83429 2.0633,-1.71237 3.44744,-6.37124 3.44744,-11.6037 z m -11.03613,-0.64941 c 0,-1.82097 -1.61149,-3.31084 -3.58111,-3.31084 -2.93294,0 -3.08376,0.59924 -0.83334,3.31084 1.51126,1.82097 3.12277,3.31084 3.5811,3.31084 0.45835,0 0.83335,-1.48987 0.83335,-3.31084 z m -13.24336,-2.44338 c 0,-0.47709 -1.48987,-0.86746 -3.31084,-0.86746 -1.82095,0 -3.31084,0.96209 -3.31084,2.13796 0,1.17586 1.48989,1.56623 3.31084,0.86747 1.82097,-0.69879 3.31084,-1.66086 3.31084,-2.13797 z m 12.77858,-6.16416 c -1.56533,-1.69924 -3.83931,-2.30274 -5.05328,-1.34114 -1.21398,0.9616 -4.19374,2.23665 -6.62169,2.83344 -2.42794,0.59679 -0.15397,1.20032 5.05329,1.34114 8.00523,0.21652 9.0281,-0.22121 6.62168,-2.83344 z m 88.75387,35.09427 c 0,-2.06008 -2.0846,-3.31085 -5.51807,-3.31085 -5.35594,0 -5.51807,-0.45011 -5.51807,-15.32032 0,-8.42617 1.00745,-15.94297 2.23877,-16.70395 1.23132,-0.76101 4.23127,-5.28928 6.66654,-10.0628 5.12855,-10.05277 10.95974,-11.59086 10.95974,-2.89083 0,4.89493 0.51101,5.36425 3.31084,3.04059 1.82095,-1.51127 3.31084,-4.18885 3.31084,-5.95018 0,-5.28558 7.40158,-2.21961 9.0639,3.75455 2.41951,8.69543 2.20735,32.69094 -0.30273,34.24227 -1.31944,0.81547 -1.67981,4.57845 -0.85797,8.95918 1.23036,6.5584 0.83433,7.55318 -3.00696,7.55318 -2.43318,0 -4.99566,-1.48988 -5.69444,-3.31084 -0.69877,-1.82097 -2.2949,-3.31085 -3.54699,-3.31085 -1.25208,0 -2.27649,1.48988 -2.27649,3.31085 0,1.83934 -1.96199,3.31084 -4.41446,3.31084 -2.45247,0 -4.41445,-1.4715 -4.41445,-3.31084 z m 13.20957,-12.69156 c -0.0273,-4.01591 -0.44326,-4.3327 -2.17344,-1.65542 -2.76547,4.27928 -2.76547,6.62168 0,6.62168 1.21397,0 2.19202,-2.23482 2.17344,-4.96626 z m -5.11318,-2.93018 c 0.73489,-1.9151 -0.28954,-5.10771 -2.27651,-7.09467 -3.34539,-3.34541 -3.87993,-3.34541 -7.22532,0 -4.51265,4.51263 -2.44137,10.57666 3.61266,10.57666 2.50415,0 5.15427,-1.56689 5.88917,-3.48199 z m 13.97586,-8.91828 c 0,-6.05963 -0.86064,-9.40063 -2.20721,-8.56839 -1.21397,0.75028 -2.20723,5.83376 -2.20723,11.29666 0,6.05963 0.86064,9.40061 2.20723,8.56838 1.21397,-0.75028 2.20721,-5.83377 2.20721,-11.29665 z m -8.82889,-0.8431 c 0,-2.46348 -1.4715,-4.41445 -3.32953,-4.41445 -2.77703,0 -2.87207,0.73256 -0.5727,4.41445 1.51628,2.42795 3.01459,4.41445 3.32956,4.41445 0.31497,0 0.57267,-1.9865 0.57267,-4.41445 z m -15.45059,-2.20722 c 2.85326,-1.84392 2.79499,-2.1443 -0.42153,-2.17344 -2.05282,-0.0186 -4.34627,0.95947 -5.09655,2.17344 -1.72644,2.79347 1.19551,2.79347 5.51808,0 z m 14.4431,-7.9445 c -2.42748,-2.42748 -4.37254,-2.84637 -6.22754,-1.34113 -1.48364,1.20391 -4.684,2.67721 -7.11195,3.274 -2.42795,0.59679 0.37443,1.20032 6.22754,1.34114 9.75322,0.23465 10.34717,-0.0388 7.11195,-3.27401 z m 88.56407,35.70603 c -0.66263,-1.7268 -3.50035,-3.46499 -6.30603,-3.86265 -4.5773,-0.64875 -5.1701,-2.05558 -5.77163,-13.69785 -0.53243,-10.30427 0.19799,-13.93875 3.54822,-17.65782 2.32025,-2.57564 5.60168,-7.93431 7.29209,-11.90821 3.55617,-8.36007 8.82046,-8.59503 10.94405,-0.48845 l 1.44247,5.50647 2.52339,-6.23047 c 3.00576,-7.42154 10.19946,-7.36397 10.30211,0.0823 0.0365,2.64505 0.78141,5.52428 1.65542,6.3983 2.46223,2.46223 1.87376,26.90364 -0.68582,28.48556 -1.31944,0.81546 -1.67982,4.57845 -0.85798,8.95918 1.25511,6.69022 0.87665,7.55318 -3.31239,7.55318 -2.60116,0 -5.30109,-1.48988 -5.99985,-3.31085 -0.69878,-1.82095 -2.15748,-3.31084 -3.24158,-3.31084 -1.08408,0 -1.97108,1.48989 -1.97108,3.31084 0,4.21055 -7.95669,4.35301 -9.56139,0.17129 z m -3.68196,-8.86983 c 0,-0.53535 -0.99326,-1.58722 -2.20724,-2.3375 -1.21397,-0.75028 -2.20722,-0.31228 -2.20722,0.97334 0,1.28563 0.99325,2.3375 2.20722,2.3375 1.21398,0 2.20724,-0.438 2.20724,-0.97334 z m 17.6578,-2.60775 c 0,-2.93296 -0.59923,-3.08379 -3.31083,-0.83336 -1.82096,1.51127 -3.31084,3.12276 -3.31084,3.58109 0,0.45835 1.48988,0.83336 3.31084,0.83336 1.82096,0 3.31083,-1.6115 3.31083,-3.58109 z m -6.81576,-3.91034 c 1.96898,-2.37249 1.76356,-3.86714 -0.89721,-6.5279 -4.13504,-4.13505 -9.94483,-2.46921 -9.94483,2.85147 0,7.08359 6.25428,9.20433 10.84204,3.67643 z m 14.30491,-0.4144 c 0.73688,-1.92023 1.33977,-7.00811 1.33977,-11.30638 0,-6.69644 -0.47389,-7.42174 -3.31084,-5.06728 -1.90134,1.57794 -3.31084,6.39141 -3.31084,11.30639 0,8.69267 2.84381,11.42092 5.28191,5.06727 z m -8.25081,-10.7604 c -0.71885,-1.87331 -2.81834,-3.40604 -4.66552,-3.40604 -2.88313,0 -2.83151,0.61551 0.36467,4.34837 4.12112,4.81311 6.32419,4.33039 4.30085,-0.94233 z m -16.89614,-0.0952 c 2.25041,-2.7116 2.0996,-3.31084 -0.83336,-3.31084 -1.96961,0 -3.5811,1.48988 -3.5811,3.31084 0,1.82097 0.375,3.31085 0.83336,3.31085 0.45833,0 2.06983,-1.48988 3.5811,-3.31085 z m 16.24879,-8.8289 c -1.45156,-3.78273 -3.41064,-4.18444 -6.42663,-1.31785 -1.15328,1.09613 -4.08337,2.47079 -6.51132,3.05478 -2.42795,0.58401 -0.2243,1.17705 4.89699,1.31787 7.43121,0.20438 9.05488,-0.41252 8.04096,-3.0548 z m 87.49087,35.31563 c 0,-2.06008 -2.08459,-3.31084 -5.51807,-3.31084 -5.29121,0 -5.51806,-0.5613 -5.51806,-13.65292 0,-10.24996 1.03027,-14.78863 4.13351,-18.20962 2.27343,-2.50619 5.08764,-7.53646 6.25381,-11.17839 2.61426,-8.16434 10.68105,-9.44761 10.40608,-1.65542 -0.23421,6.63652 3.08255,6.31505 5.69332,-0.55181 3.49643,-9.19632 8.25827,-6.76562 9.72906,4.96626 2.17981,17.38737 2.2271,28.17867 0.13817,31.5585 -1.08864,1.76147 -1.69278,5.93472 -1.34254,9.27388 0.51175,4.87777 -0.26353,6.0712 -3.94388,6.0712 -2.60035,0 -4.58081,-1.43141 -4.58081,-3.31084 0,-1.82097 -0.88699,-3.31084 -1.97108,-3.31084 -1.08409,0 -2.54278,1.48987 -3.24157,3.31084 -0.69877,1.82097 -3.28815,3.31084 -5.75422,3.31084 -2.51403,0 -4.48372,-1.45443 -4.48372,-3.31084 z m -2.20723,-8.69864 c 0,-0.53534 -0.99324,-1.58722 -2.20722,-2.3375 -1.21397,-0.75028 -2.20723,-0.31228 -2.20723,0.97335 0,1.28562 0.99326,2.33749 2.20723,2.33749 1.21398,0 2.20722,-0.438 2.20722,-0.97334 z m 15.45059,-1.23389 c 0,-1.21397 -0.438,-2.20722 -0.97334,-2.20722 -0.53533,0 -1.58721,0.99325 -2.33749,2.20722 -0.75029,1.21398 -0.31228,2.20723 0.97333,2.20723 1.28563,0 2.3375,-0.99325 2.3375,-2.20723 z m -4.77443,-7.48616 c 0.89777,-4.66175 -3.26801,-8.12767 -7.71697,-6.42045 -3.13084,1.20142 -4.02031,7.69528 -1.41138,10.3042 2.73812,2.73813 8.3096,0.3677 9.12835,-3.88375 z m 15.81057,-8.41863 c 0,-12.84496 -5.34608,-9.5981 -6.20648,3.76942 -0.61043,9.48381 -0.29786,10.3713 2.75903,7.83429 2.0633,-1.71237 3.44745,-6.37125 3.44745,-11.60371 z m -11.03614,-0.64941 c 0,-1.82096 -1.61149,-3.31084 -3.58109,-3.31084 -2.93296,0 -3.08378,0.59924 -0.83336,3.31084 1.51127,1.82097 3.12277,3.31085 3.58109,3.31085 0.45836,0 0.83336,-1.48988 0.83336,-3.31085 z m -14.34697,-1.10361 c 0.75028,-1.21397 -0.1843,-2.20723 -2.07696,-2.20723 -1.89261,0 -3.44111,0.99326 -3.44111,2.20723 0,1.21398 0.93463,2.20722 2.07695,2.20722 1.14234,0 2.69084,-0.99324 3.44112,-2.20722 z m 14.3244,-7.75251 c -1.74575,-2.10348 -3.68247,-2.5995 -5.23654,-1.34113 -1.3564,1.09831 -4.45269,2.48522 -6.88063,3.08201 -2.42795,0.5968 -0.0715,1.20032 5.23651,1.34114 8.37737,0.22224 9.28538,-0.18453 6.88066,-3.08202 z m -316.25041,-25.3559 c -0.63493,-2.42795 -0.25415,-4.41445 0.84618,-4.41445 1.10032,0 2.00059,1.9865 2.00059,4.41445 0,2.42795 -0.38079,4.41446 -0.84619,4.41446 -0.4654,0 -1.36566,-1.98651 -2.00058,-4.41446 z m 6.06262,0.55523 c 0.65923,-1.71793 1.21381,-3.7872 1.2324,-4.5984 0.04,-1.7461 4.29755,4.55602 4.34685,6.43433 0.0186,0.70816 -1.49883,1.28756 -3.37203,1.28756 -2.02978,0 -2.92156,-1.26197 -2.20722,-3.12349 z m 9.22931,0.54838 c -0.69877,-1.82095 -0.30841,-3.31084 0.86746,-3.31084 1.17588,0 2.13796,1.48989 2.13796,3.31084 0,1.82097 -0.39037,3.31085 -0.86747,3.31085 -0.4771,0 -1.43918,-1.48988 -2.13795,-3.31085 z m 84.67282,-1.10361 c 0,-2.42795 0.90026,-4.41445 2.00059,-4.41445 1.10032,0 1.48111,1.9865 0.84618,4.41445 -0.63494,2.42795 -1.5352,4.41446 -2.00059,4.41446 -0.46539,0 -0.84618,-1.98651 -0.84618,-4.41446 z m 7.63032,0.55523 c 0.65923,-1.71793 1.21379,-3.7872 1.23237,-4.5984 0.0399,-1.7461 4.29756,4.55602 4.34688,6.43433 0.0177,0.70816 -1.49882,1.28756 -3.37203,1.28756 -2.02979,0 -2.92157,-1.26197 -2.20722,-3.12349 z m 8.76621,-0.55523 c 0,-2.42795 0.78042,-4.41445 1.73427,-4.41445 0.95383,0 1.73424,1.9865 1.73424,4.41445 0,2.42795 -0.78041,4.41446 -1.73424,4.41446 -0.95385,0 -1.73427,-1.98651 -1.73427,-4.41446 z m 84.49636,0 c -0.63494,-2.42795 -0.25414,-4.41445 0.84618,-4.41445 1.10033,0 2.00059,1.9865 2.00059,4.41445 0,2.42795 -0.3808,4.41446 -0.84619,4.41446 -0.46539,0 -1.36565,-1.98651 -2.00058,-4.41446 z m 6.06263,0.55523 c 0.65923,-1.71793 1.19859,-3.59752 1.19859,-4.17685 0,-0.57935 0.99326,-0.4395 2.20723,0.31078 3.43199,2.12109 2.59711,6.98956 -1.1986,6.98956 -2.02978,0 -2.92156,-1.26197 -2.20722,-3.12349 z m 8.77778,-0.004 c 0.31183,-2.12445 1.4519,-3.86264 2.5335,-3.86264 1.08164,0 2.30136,1.73819 2.71048,3.86264 0.43878,2.27844 -0.6003,3.86265 -2.5335,3.86265 -1.86579,0 -3.03321,-1.66366 -2.71048,-3.86265 z m 86.69203,-0.55081 c -0.63493,-2.42795 -0.25414,-4.41445 0.84619,-4.41445 1.10032,0 2.00059,1.9865 2.00059,4.41445 0,2.42795 -0.3808,4.41445 -0.84619,4.41445 -0.4654,0 -1.36566,-1.9865 -2.00059,-4.41445 z m 5.08779,2.29314 c 0.0177,-0.65425 0.95842,-2.65157 2.0885,-4.4385 1.75592,-2.77658 2.26991,-2.68816 3.53481,0.60813 1.05543,2.75042 2.25608,3.21313 4.18446,1.61272 1.48741,-1.23444 3.3579,-1.59086 4.1567,-0.79209 3.15816,3.15819 1.10263,4.60165 -6.27297,4.40512 -4.2489,-0.11323 -7.71008,-0.74115 -7.6915,-1.39538 z M 11.619474,174.08408 V 115.826 l 6.403635,-6.85511 6.403624,-6.8551 h 79.713707 79.7137 l -0.58729,60.14693 -0.58728,60.14694 -11.95439,0.67986 c -7.6613,0.43571 -13.91137,2.21922 -17.40368,4.96626 -5.12767,4.03343 -9.46988,4.2864 -73.575646,4.2864 H 11.619474 Z M 146.26033,173.85066 V 119.7736 H 80.043513 13.826705 v 54.07706 54.07707 h 66.216808 66.216817 z m 6.62169,-4.67498 c 0,-35.48931 -0.75869,-53.60817 -2.20723,-52.71291 -1.37431,0.84936 -2.20724,21.77073 -2.20724,55.44119 0,35.48933 0.75869,53.60817 2.20724,52.71293 1.3743,-0.84937 2.20723,-21.77075 2.20723,-55.44121 z m 21.89801,46.06049 c -0.0959,-3.33843 -0.67524,-4.82831 -1.28755,-3.31084 -1.58256,3.92198 -9.45828,3.42251 -11.0403,-0.70017 -0.73008,-1.90257 -0.27347,-4.51316 1.0147,-5.80132 1.65133,-1.65134 1.59133,-3.54431 -0.20346,-6.41824 -1.93617,-3.10028 -1.91088,-4.71081 0.10574,-6.72734 1.98423,-1.98425 2.02162,-3.40989 0.14862,-5.66671 -1.86532,-2.24758 -1.86532,-3.65274 0,-5.51806 1.80923,-1.80922 1.83719,-3.3044 0.10096,-5.39641 -1.32092,-1.5916 -1.82507,-4.39634 -1.12038,-6.23277 1.54599,-4.02876 9.43461,-4.44487 10.99415,-0.5799 0.61232,1.51746 1.1133,-0.22073 1.1133,-3.86266 0,-3.64192 -0.50098,-5.38011 -1.1133,-3.86264 -1.59662,3.95684 -9.4645,3.40627 -11.06884,-0.77457 -0.74579,-1.94349 -0.0336,-4.35091 1.58277,-5.34985 2.38558,-1.47438 2.41036,-2.45288 0.13161,-5.19861 -1.54392,-1.86032 -2.16637,-4.41915 -1.38323,-5.6863 1.97958,-3.20301 9.38833,-2.88899 10.7377,0.45512 0.61231,1.51747 1.1133,-0.22072 1.1133,-3.86264 0,-3.64192 -0.50099,-5.38012 -1.1133,-3.86265 -1.58256,3.92198 -9.45828,3.4225 -11.04029,-0.70017 -0.73009,-1.90257 -0.22592,-4.56071 1.12037,-5.90699 1.79223,-1.79224 1.77372,-3.26 -0.0692,-5.48049 -3.90295,-4.70277 3.28574,-11.25426 8.02923,-7.31752 2.90788,2.41334 3.42161,2.13631 3.42161,-1.84503 0,-3.99401 -1.3017,-4.68472 -8.82891,-4.68472 h -8.8289 v 53.70919 c 0,29.54006 0.66216,54.37136 1.47148,55.18068 0.80931,0.80932 4.78233,1.47149 8.82891,1.47149 6.59703,0 7.33942,-0.62732 7.18317,-6.06988 z m 0.14045,-13.24337 c -0.0246,-4.41751 -0.56987,-5.22307 -2.00302,-2.95919 -1.08307,1.71087 -1.45822,4.44232 -0.83367,6.06988 1.79108,4.66747 2.87339,3.48061 2.83669,-3.11069 z m 0.0338,-12.02938 c 0,-3.56559 -0.6527,-4.2032 -2.45635,-2.39955 -1.35099,1.351 -1.789,3.53615 -0.97335,4.8559 2.28314,3.69419 3.4297,2.87303 3.4297,-2.45635 z m -4.41445,-4.94636 c 0,-0.53534 -0.99325,-1.58721 -2.20722,-2.33749 -1.21398,-0.75028 -2.20724,-0.31227 -2.20724,0.97335 0,1.28562 0.99326,2.33749 2.20724,2.33749 1.21397,0 2.20722,-0.43801 2.20722,-0.97335 z m 4.38065,-8.40736 c -0.0264,-3.87745 -0.47837,-4.26349 -2.06159,-1.76082 -1.11527,1.76301 -1.53807,3.99783 -0.93954,4.96627 1.91447,3.09769 3.03587,1.89994 3.00113,-3.20545 z m 0.0338,-24.16914 c 0,-3.5656 -0.6527,-4.2032 -2.45635,-2.39955 -1.35099,1.351 -1.789,3.53615 -0.97335,4.8559 2.28314,3.69419 3.4297,2.87303 3.4297,-2.45635 z m -0.0338,-25.49347 c -0.0246,-4.41752 -0.56987,-5.22308 -2.00302,-2.9592 -1.08306,1.71088 -1.45822,4.44232 -0.83367,6.06988 1.79108,4.66747 2.87339,3.48061 2.83669,-3.11068 z m -25.3493,-13.79516 c 0.89764,-1.45244 -20.90232,-2.20724 -63.74907,-2.20724 -41.027881,0 -65.617787,0.81645 -66.477342,2.20724 -0.897647,1.45242 20.902318,2.20722 63.749054,2.20722 41.027888,0 65.617798,-0.81645 66.477358,-2.20722 z m 264.20505,65.77535 c -1.75573,-1.75573 -2.64867,-11.28326 -2.64867,-28.26097 v -25.61229 l 7.27858,-7.05466 c 6.98464,-6.76977 8.00969,-7.05467 25.38311,-7.05467 h 18.10455 v 25.85137 25.85137 l -9.28849,9.46426 c -8.92636,9.0953 -9.81267,9.46426 -22.73444,9.46426 -7.51501,0 -14.61429,-1.16831 -16.09464,-2.64867 z m 11.7969,-4.73158 c -2.81758,-2.06027 -3.71376,-4.75596 -2.93516,-8.82891 0.76915,-4.0236 0.17808,-5.8631 -1.88397,-5.8631 -2.03406,0 -3.00475,2.85218 -3.00475,8.8289 0,8.11323 0.48151,8.82891 5.93993,8.82891 5.5137,0 5.64889,-0.21281 1.88395,-2.9658 z m 16.03706,-6.41492 c 0.49695,-6.00455 -0.17658,-8.27709 -2.45297,-8.27709 -2.20625,0 -2.8052,1.74089 -2.0172,5.8631 0.78516,4.10724 -0.13288,6.80331 -3.06511,9.0026 -3.96616,2.97467 -3.89622,3.1014 1.33215,2.41399 4.62445,-0.608 5.629,-2.06592 6.20313,-9.0026 z m 10.76063,0.16707 c 4.68021,-4.39683 5.10852,-6.6522 5.10852,-26.89968 V 118.9477 l -6.62169,6.34397 c -6.42928,6.15964 -6.62168,6.94126 -6.62168,26.89967 0,11.30564 0.68093,20.55571 1.51316,20.55571 0.83224,0 3.812,-2.15965 6.62169,-4.79921 z m -19.59118,-1.27068 c -0.89598,-4.65249 -4.81325,-4.35912 -5.81151,0.43522 -0.41639,1.99972 0.80032,3.42744 2.92087,3.42744 2.27335,0 3.35592,-1.44662 2.89064,-3.86266 z m 3.20957,-13.14167 c -2.71475,-0.52392 -7.68101,-0.53747 -11.03612,-0.0301 -3.35512,0.50734 -1.13397,0.93599 4.93591,0.95257 6.06987,0.0166 8.81497,-0.39853 6.10021,-0.92244 z m -13.38122,-10.36868 c -0.71854,-6.15479 -0.0227,-7.77891 3.85998,-9.01127 6.96968,-2.21208 11.80503,2.74137 10.25268,10.50309 -0.90132,4.50657 -0.47257,6.10756 1.46515,5.47108 1.50663,-0.49489 3.03958,-4.41317 3.40656,-8.70728 0.59882,-7.00706 0.0331,-7.93253 -5.51808,-9.02701 -3.4019,-0.67072 -8.91673,-0.68947 -12.25516,-0.0417 -5.37746,1.04347 -6.06987,2.15561 -6.06987,9.74942 0,5.55891 1.00788,8.57159 2.86763,8.57159 1.96178,0 2.59075,-2.37166 1.99111,-7.50795 z m 10.20187,-0.58624 c -1.07392,-5.53743 -6.23171,-6.29776 -6.23171,-0.91865 0,2.71122 1.42519,4.59839 3.47268,4.59839 2.05546,0 3.18145,-1.50172 2.75903,-3.67974 z m 14.73695,-20.59975 6.34398,-6.62168 h -13.35866 c -10.1724,0 -14.7458,1.09112 -19.17438,4.57466 -3.19864,2.51605 -5.81573,5.49581 -5.81573,6.62167 0,1.12587 5.77368,2.04702 12.83041,2.04702 11.37474,0 13.55014,-0.75124 19.17438,-6.62167 z m -45.90518,36.78711 c -0.62113,-1.61863 0.10041,-2.94297 1.6032,-2.94297 1.50289,0 2.73255,1.32434 2.73255,2.94297 0,1.61863 -0.72146,2.94297 -1.60322,2.94297 -0.88177,0 -2.11139,-1.32434 -2.73253,-2.94297 z m 1.06161,-7.37908 c 2.04347,-0.53959 3.57031,-2.9075 3.39293,-5.26203 -0.34786,-4.61808 -2.73698,-5.6776 -4.55166,-2.01856 -0.6171,1.24433 -0.8654,0.99602 -0.5518,-0.5518 1.06505,-5.25653 6.44891,-2.84412 7.26579,3.25566 0.68861,5.14203 0.0421,6.03074 -4.22891,5.81383 -3.49764,-0.17761 -3.90386,-0.55651 -1.32635,-1.2371 z M 16.16764,77.969994 c -2.501489,-2.501489 -4.548166,-6.313661 -4.548166,-8.471495 0,-6.835803 6.455793,-13.73685 12.816721,-13.700684 7.282035,0.04141 9.994301,1.744762 13.564743,8.518936 2.358213,4.47421 2.132203,6.090467 -1.543277,11.036135 -5.534563,7.447233 -14.325942,8.58119 -20.290021,2.617108 z m 17.524107,-4.548162 c 1.67857,-3.136446 1.67857,-5.692463 0,-8.828909 -4.169485,-7.790746 -17.657821,-4.418661 -17.657821,4.414455 0,8.833115 13.488336,12.2052 17.657821,4.414454 z m 425.994823,4.414454 c -5.30311,-5.303113 -5.60298,-10.564256 -0.97846,-17.166695 7.1551,-10.215341 25.25796,-3.887496 25.25796,8.828908 0,5.691474 -7.94375,12.752241 -14.34698,12.752241 -3.03493,0 -7.50457,-1.986504 -9.93252,-4.414454 z m 18.02965,-5.452703 c 1.8997,-4.169352 1.82493,-6.247329 -0.31758,-8.828908 -5.46461,-6.584452 -17.71207,-2.814043 -17.71207,5.452703 0,9.606388 13.99678,12.227402 18.02965,3.376205 z m 14.52629,76.468947 c -0.32824,-55.4476 -0.59668,-9.43461 -0.59655,102.25108 10e-5,111.6857 0.26867,157.05191 0.59677,100.81379 0.3281,-56.23809 0.32799,-147.61729 -2.2e-4,-203.06487 z M 369.74206,45.280086 c -65.85814,-0.324624 -173.62599,-0.324624 -239.48413,0 -65.858138,0.324623 -11.9742,0.590226 119.74206,0.590226 131.71627,0 185.6002,-0.265603 119.74207,-0.590226 z"
     style="fill:#000000;stroke-width:2.20722699" />
</svg>
