<?xml version="1.0" encoding="UTF-8" standalone="no"?>
<svg
   xmlns:dc="http://purl.org/dc/elements/1.1/"
   xmlns:cc="http://creativecommons.org/ns#"
   xmlns:rdf="http://www.w3.org/1999/02/22-rdf-syntax-ns#"
   xmlns:svg="http://www.w3.org/2000/svg"
   xmlns="http://www.w3.org/2000/svg"
   id="svg8"
   version="1.1"
   viewBox="0 0 500 500"
   height="500mm"
   width="500mm">
  <defs
     id="defs2" />
  <metadata
     id="metadata5">
    <rdf:RDF>
      <cc:Work
         rdf:about="">
        <dc:format>image/svg+xml</dc:format>
        <dc:type
           rdf:resource="http://purl.org/dc/dcmitype/StillImage" />
        <dc:title></dc:title>
      </cc:Work>
    </rdf:RDF>
  </metadata>
  <g
     transform="translate(0,203)"
     id="layer1">
    <path
       id="path3778"
       d="M 37.318208,278.20285 C 36.958958,277.8436 36.656264,178.32276 36.645554,57.045438 l -0.01947,-220.504228 2.327357,-3.15455 c 1.280045,-1.73501 5.377728,-6.54938 9.105958,-10.69862 l 6.778597,-7.54406 204.015904,0.25224 204.01591,0.25224 0.25205,221.989351 0.25206,221.989349 -4.54894,4.86743 c -2.50191,2.6771 -6.40949,7.00358 -8.68349,9.61444 l -4.13456,4.747 H 241.98916 c -112.20977,0 -204.311702,-0.29393 -204.670952,-0.65318 z m 403.065802,-2.78796 c 0,-0.79331 -0.9995,-2.14245 -2.22111,-2.9981 -1.99179,-1.3951 -22.29442,-1.55572 -196.65334,-1.55572 -174.358911,0 -194.661548,0.16062 -196.653344,1.55572 -1.221607,0.85565 -2.221104,2.20479 -2.221104,2.9981 0,1.25212 26.236005,1.44239 198.874448,1.44239 172.63844,0 198.87445,-0.19027 198.87445,-1.44239 z M 43.242683,271.11091 c 1.09399,-1.44115 1.333194,-39.06557 1.359385,-213.817958 0.03219,-214.815232 -0.0172,-217.976412 -3.388372,-216.852722 -0.764246,0.25474 -1.15141,62.730955 -1.33322,215.140073 -0.140918,118.129597 -0.0426,215.343237 0.218477,216.030287 0.651058,1.71335 1.57532,1.56645 3.14373,-0.49968 z M 444.38149,56.496405 c 0,-187.878805 -0.18989,-216.363405 -1.44239,-216.363405 -0.79331,0 -2.14246,0.9995 -2.99811,2.22111 -1.3962,1.99335 -1.55572,23.99187 -1.55572,214.535817 0,196.158633 0.12586,212.453783 1.65395,214.142303 4.54347,5.02048 4.34227,14.96098 4.34227,-214.535825 z m 9.88743,209.617655 6.06423,-6.74574 0.0191,-219.111663 c 0.0106,-120.511419 -0.31814,-219.080347 -0.73038,-219.042067 -0.41224,0.0383 -3.55621,3.29873 -6.98661,7.24543 l -6.23708,7.17581 -0.009,218.611995 c -0.005,131.159895 0.35594,218.611985 0.90326,218.611985 0.50172,0 3.64113,-3.03559 6.97646,-6.74575 z m -19.12927,1.92302 c 0.99733,-0.63324 1.20032,-43.71517 0.99937,-212.100781 l -0.25217,-211.306139 -192.37855,-0.27328 c -105.8082,-0.1503 -193.390412,-0.0293 -194.627131,0.26889 l -2.24858,0.54216 V 56.432165 c 0,168.076305 0.255371,211.367275 1.249211,211.768305 2.102004,0.84817 385.91971,0.68623 387.25785,-0.16339 z M 80.679188,230.98187 78.612399,228.07934 78.647812,73.831091 c 0.02734,-119.102928 0.311976,-154.735922 1.249211,-156.388579 0.66759,-1.177187 5.261244,-6.348922 10.208121,-11.492744 l 8.994321,-9.352408 144.658675,0.25653 144.65868,0.25654 -0.0232,157.643775 -0.0232,157.643775 -3.57703,3.99747 c -1.96735,2.19861 -6.3989,7.03306 -9.84787,10.74322 l -6.27084,6.74575 H 225.71034 82.745978 Z m 77.882742,-52.57431 v -52.47875 l -38.22587,0.26172 -38.225869,0.26172 -0.259112,50.26666 c -0.17276,33.51458 0.08874,50.91667 0.784688,52.21704 1.006656,1.88096 2.376184,1.95035 38.484983,1.95035 h 37.44118 z M 290.23191,73.735522 289.97896,-83.415266 H 226.01934 162.05972 L 161.80677,73.735522 161.55383,230.8863 h 64.46551 64.46551 z m 79.08376,155.788038 c 0.81668,-0.98403 1.05898,-15.49478 0.8719,-52.21703 l -0.25908,-50.85428 h -38.47571 -38.47571 l -0.25996,50.96782 c -0.14297,28.0323 -0.0447,51.52997 0.21849,52.21703 0.73348,1.91518 74.78774,1.80511 76.38007,-0.11354 z m 11.4164,-12.2113 5.68601,-6.57845 V 56.913532 c 0,-88.578159 -0.3752,-153.820277 -0.88461,-153.820277 -0.48655,0 -3.62898,2.810722 -6.98319,6.246053 l -6.09857,6.246057 -0.0124,154.15268 c -0.0102,126.451525 0.22293,154.152675 1.29717,154.152675 0.72027,0 3.86828,-2.96031 6.99559,-6.57846 z M 158.3215,73.735522 158.06224,24.516594 H 120.08622 82.110191 L 81.849943,72.48631 c -0.143136,26.383344 -0.04482,48.53187 0.218477,49.21893 0.371376,0.96908 9.003653,1.24921 38.49554,1.24921 h 38.01681 z m 211.86625,0 -0.25926,-49.218928 -36.47697,-0.278524 c -20.06234,-0.153183 -37.48884,-0.03218 -38.72555,0.26888 l -2.24858,0.547405 v 48.283807 c 0,26.556085 0.29981,48.583618 0.66624,48.950038 0.36643,0.36644 17.9096,0.66625 38.98481,0.66625 h 38.31857 z M 158.321,-31.198232 l -0.25876,-52.217034 -36.6432,-0.262065 c -32.328153,-0.231214 -36.829578,-0.0757 -38.225869,1.320586 -1.401989,1.401995 -1.582665,7.316911 -1.582665,51.81286 0,27.6266089 0.299811,50.53001 0.666246,50.896438 0.366434,0.366439 17.684516,0.66625 38.484628,0.66625 h 37.81838 z m 212.10717,1.577744 c 0,-45.717957 -0.16074,-50.816898 -1.65394,-52.466877 -1.5442,-1.706322 -4.05074,-1.827586 -37.77615,-1.827586 -26.76256,0 -36.43294,0.310734 -37.32145,1.199243 -0.90116,0.901161 -1.19924,13.776493 -1.19924,51.800627 0,27.8307703 0.29981,50.901206 0.66624,51.267634 0.36643,0.366439 17.90536,0.66625 38.9754,0.66625 h 38.30914 z m 6.89953,-63.006423 c 3.35075,-3.692264 6.09227,-7.065144 6.09227,-7.495269 0,-0.43013 -63.86975,-0.78205 -141.93278,-0.78205 H 99.554407 l -5.445438,5.746377 c -9.750716,10.289574 -25.10951,9.244164 135.811791,9.244164 h 141.31467 z m 61.50026,-67.177119 c 0.96352,-1.06467 1.45639,-2.41381 1.09528,-2.99811 -0.46007,-0.74441 -59.82443,-1.06234 -198.36574,-1.06234 -173.186686,0 -197.779223,0.18254 -198.273922,1.4717 -0.326493,0.85083 0.354628,2.11566 1.614498,2.99811 1.936383,1.3563 23.910486,1.5264 197.178644,1.5264 191.61566,0 195.0298,-0.0336 196.75124,-1.93576 z m 8.66178,-9.30714 c 4.26892,-4.43597 9.88354,-11.30707 9.88354,-12.09536 0,-0.35563 -90.50536,-0.60884 -201.12302,-0.56268 l -201.123034,0.0839 -6.252108,6.99732 c -3.438659,3.84852 -5.997986,7.40849 -5.687393,7.91105 0.338152,0.54714 80.927335,0.91372 200.870545,0.91372 H 444.3641 Z"
       style="fill:#000000;stroke-width:0.99936908" />
  </g>
</svg>
