<?xml version="1.0" encoding="UTF-8" standalone="no"?>
<svg
   xmlns:dc="http://purl.org/dc/elements/1.1/"
   xmlns:cc="http://creativecommons.org/ns#"
   xmlns:rdf="http://www.w3.org/1999/02/22-rdf-syntax-ns#"
   xmlns:svg="http://www.w3.org/2000/svg"
   xmlns="http://www.w3.org/2000/svg"
   id="svg8"
   version="1.1"
   viewBox="0 0 500 500"
   height="500mm"
   width="500mm">
  <defs
     id="defs2" />
  <metadata
     id="metadata5">
    <rdf:RDF>
      <cc:Work
         rdf:about="">
        <dc:format>image/svg+xml</dc:format>
        <dc:type
           rdf:resource="http://purl.org/dc/dcmitype/StillImage" />
        <dc:title></dc:title>
      </cc:Work>
    </rdf:RDF>
  </metadata>
  <g
     transform="translate(0,203)"
     id="layer1">
    <path
       id="path6381"
       d="m 110.28494,185.13413 c 0.0244,-61.13851 1.43624,-163.259372 3.13763,-226.935281 l 3.09343,-115.774379 22.28368,-22.35976 22.28368,-22.35978 47.70854,0.28249 c 26.2397,0.15538 66.17076,0.88667 88.7357,1.62511 l 41.02716,1.34262 6.23818,18.41789 c 29.20661,86.230936 44.96632,213.190614 44.96632,362.24698 v 57.09848 l -25.46002,25.31752 c -14.00301,13.92464 -28.38521,26.5773 -31.96045,28.11702 -4.949,2.13134 -32.22845,2.9597 -114.29923,3.47075 l -107.79882,0.67127 z m 17.29028,10.18043 V 96.724717 h -7.58383 -7.58384 v 98.589843 98.58985 h 7.58384 7.58383 z m 166.84439,0 V 96.724717 h -82.33878 -82.33879 v 98.589843 98.58985 h 82.33879 82.33878 z M 188.0486,270.42432 c -15.03482,-4.97202 -29.61192,-14.83305 -37.80403,-25.57347 -5.66925,-7.43276 -6.19181,-9.5524 -5.64668,-22.90479 0.55611,-13.6215 0.26821,-14.71404 -3.87735,-14.71404 -5.34975,0 -5.44611,1.04507 -1.20472,13.06643 3.65374,10.3558 2.55454,14.94028 -1.22527,5.11026 -19.65042,-51.10416 14.47377,-105.25062 68.51684,-108.71891 32.26527,-2.07064 60.52714,14.65804 76.09032,45.03921 5.49522,10.72733 6.10443,14.0813 6.10022,33.58555 -0.004,20.09812 -0.4999,22.61585 -6.83993,34.74831 -18.14433,34.72159 -58.6425,52.09035 -94.1094,40.36145 z m 42.53657,-1.52595 c 11.77473,-3.04339 37.38708,-17.33125 35.12423,-19.5941 -0.52203,-0.52203 -4.9202,0.45194 -9.7737,2.16436 -30.44553,10.74179 -61.8281,3.01445 -83.99302,-20.68163 -9.50162,-10.15801 -9.69849,-10.66487 -9.69849,-24.97063 v -14.60213 l -7.58383,7.35054 c -7.30356,7.07888 -7.58384,7.93523 -7.58384,23.17032 0,15.17298 0.3248,16.17929 7.94431,24.61316 13.55237,15.00088 35.70822,25.37437 54.97965,25.74181 4.21866,0.0804 13.48178,-1.35583 20.58469,-3.1917 z m 4.90758,-25.37229 c 0.653,-10.17655 0.58596,-10.29235 -5.95873,-10.29235 -6.36265,0 -6.61914,0.36384 -6.61914,9.38951 0,10.71273 1.2713,12.71915 7.49467,11.82829 3.62939,-0.51954 4.54126,-2.47944 5.0832,-10.92545 z m -14.74468,-1.62511 v -10.83405 h 8.66723 8.66725 v 10.83405 c 0,9.92062 0.42838,10.83406 5.08083,10.83406 2.79444,0 11.32626,-3.16896 18.95958,-7.04214 l 13.87876,-7.04213 0.63285,-16.79277 c 0.61125,-16.21949 0.81467,-16.79278 5.95873,-16.79278 4.88634,0 5.32588,-0.82428 5.32588,-9.98772 v -9.9877 l -7.04214,1.16588 c -3.87317,0.64123 -9.47979,1.77992 -12.45915,2.53042 -6.28838,1.58407 -11.90363,-2.0838 -14.00004,-9.14483 -1.73131,-5.83127 7.96586,-16.90248 13.01299,-14.85688 1.73462,0.70302 4.61646,1.87009 6.40407,2.59348 2.53611,1.02624 3.25022,-0.42464 3.25022,-6.60361 0,-6.58047 -1.77548,-9.69434 -10.50513,-18.42398 -13.8672,-13.86719 -22.70986,-18.27131 -35.53959,-17.70062 -8.04713,0.35795 -10.29234,-0.27456 -10.29234,-2.89952 0,-7.25706 -33.22857,-1.9588 -49.29493,7.86006 -6.96824,4.25858 -7.04213,4.47982 -7.04213,21.08379 0,15.0971 -0.5433,17.29046 -5.41703,21.86908 -2.97936,2.79898 -5.41703,6.8692 -5.41703,9.04494 0,2.77512 1.61694,3.95591 5.41703,3.95591 5.30337,0 5.41703,0.34581 5.41703,16.48098 0,15.08964 0.55571,17.18261 6.5829,24.79255 9.64551,12.17847 32.79846,25.47653 44.87884,25.77652 4.42198,0.10979 4.87532,-0.88635 4.87532,-10.71299 z M 183.16472,185.935 c -7.67597,-8.48185 -2.80619,-20.41407 8.33141,-20.41407 7.41523,0 11.91746,4.27093 11.91746,11.30524 0,11.28275 -12.9923,17.12726 -20.24887,9.10883 z m 14.67706,-1.60926 c 6.54468,-6.54466 2.77913,-16.0963 -6.34565,-16.0963 -9.12477,0 -12.89032,9.55164 -6.34566,16.0963 1.87274,1.87275 4.7283,3.40498 6.34566,3.40498 1.61737,0 4.47292,-1.53223 6.34565,-3.40498 z m 86.87143,32.87017 c 2.84765,-9.46204 2.78563,-9.96389 -1.23129,-9.96389 -3.64962,0 -4.22998,1.53597 -4.22998,11.19519 0,12.95885 1.27734,12.67086 5.46127,-1.2313 z M 151.41014,197.48137 c 4.76751,-4.91881 6.20839,-7.58384 4.10033,-7.58384 -1.78761,0 -6.55796,3.41273 -10.60076,7.58384 -4.76751,4.91881 -6.20839,7.58384 -4.10034,7.58384 1.78762,0 6.55797,-3.41273 10.60077,-7.58384 z m -6.71064,-4.11674 c 4.95735,-5.11467 6.73936,-8.63034 5.82879,-11.49933 -0.90809,-2.86114 0.69221,-6.05209 5.20217,-10.37291 5.93413,-5.68525 6.51373,-7.49553 6.51373,-20.34448 v -14.10392 l -7.70776,7.46718 c -7.60345,7.36613 -7.70123,7.68712 -7.225,23.71827 0.46604,15.68779 0.30134,16.27742 -4.7514,17.01123 -6.08182,0.88323 -8.40482,3.80117 -8.45119,10.61559 -0.0453,6.6712 2.22813,6.1363 10.59066,-2.49163 z m 128.05202,-9.96753 c 5.09305,-5.09306 5.28137,-6.54283 1.51825,-11.6892 -1.87306,-2.56153 -4.95536,-3.6067 -9.20894,-3.12265 -5.2647,0.59912 -6.52206,1.85648 -7.12118,7.12118 -0.48405,4.25358 0.56112,7.33588 3.12266,9.20894 5.14637,3.76312 6.59614,3.5748 11.68921,-1.51827 z M 144.82296,170.93795 c -0.0813,-11.6889 -0.26646,-12.12426 -2.99361,-7.04213 -1.59877,2.97936 -3.58733,8.58598 -4.41904,12.45916 -1.32535,6.17209 -0.95549,7.04212 2.99361,7.04212 4.05083,0 4.49703,-1.25804 4.41904,-12.45915 z m 139.89025,2.49525 c -4.18393,-13.90214 -5.46127,-14.19014 -5.46127,-1.23128 0,9.65922 0.58036,11.19518 4.22998,11.19518 4.01692,0 4.07894,-0.50184 1.23129,-9.9639 z m -54.7562,-52.1418 c -1.48968,-0.6011 -3.92735,-0.6011 -5.41702,0 -1.48969,0.60109 -0.27086,1.09291 2.7085,1.09291 2.97937,0 4.1982,-0.49182 2.70852,-1.09291 z m 94.79794,169.69556 11.91746,-2.49957 0.56403,-96.96475 0.56399,-96.964734 h -5.12147 c -2.81684,0 -11.11492,0.626447 -18.44021,1.392089 l -13.31871,1.392067 v 98.281188 98.28116 l 5.95873,-0.20888 c 3.2773,-0.11483 11.32158,-1.33373 17.87618,-2.7085 z m 21.66811,-108.12049 c 0,-86.426711 -0.36934,-97.199916 -3.25022,-94.808993 -2.80097,2.324597 -3.25022,16.174883 -3.25022,100.203873 0,86.42673 0.36934,97.19994 3.25022,94.80901 2.80097,-2.3246 3.25022,-16.17488 3.25022,-100.20389 z m 41.15536,2.74529 c -0.031,-117.564384 -8.06499,-207.773195 -26.13601,-293.46559 -5.93409,-28.1393 -19.86237,-78.86353 -23.38192,-85.15263 -1.09703,-1.96028 -4.66744,0.37584 -12.08673,7.9084 l -10.52974,10.6905 6.70578,23.43372 c 21.09125,73.704404 28.545,162.007376 28.58634,338.65672 l 0.0205,87.70796 18.41789,-18.32219 18.41788,-18.3222 -0.0131,-53.13469 z M 127.59406,74.514915 c 0.0109,-11.023646 0.63371,-25.162081 1.38522,-31.418745 l 1.36639,-11.375753 h -7.55884 -7.55885 l -1.399,21.126398 c -0.76946,11.619519 -1.40405,25.757953 -1.41022,31.418745 l -0.0112,10.292346 h 7.58384 7.58383 l 0.0188,-20.042991 z M 292.2528,63.139162 V 31.720417 h -80.17197 -80.17198 v 8.330171 c 0,4.581591 -0.63571,18.720025 -1.41269,31.418745 l -1.41269,23.088573 h 81.58467 81.58466 z m 41.90919,27.785459 c 2.86623,-0.803193 3.6374,-2.432418 2.73811,-5.784537 -0.68857,-2.566543 -1.26524,-9.076442 -1.28152,-14.466425 l -0.0296,-9.800005 -18.41788,2.023822 -18.41789,2.023822 v 13.373769 c 0,7.35556 0.70444,14.078175 1.56539,14.939158 1.54247,1.542464 26.07044,-0.131309 33.84337,-2.309604 z M 295.98996,72.386912 c -0.48224,-3.894516 -0.88676,-1.230554 -0.89891,5.91992 -0.013,7.150472 0.38239,10.336897 0.87681,7.08094 0.4944,-3.255957 0.50435,-9.106345 0.0221,-13.00086 z m 50.4331,-5.660964 V 50.25869 l -4.53598,4.535978 c -4.06171,4.061707 -4.37458,6.043125 -2.9923,18.950661 1.2764,11.91882 2.06179,13.984678 4.53598,11.931279 2.06485,-1.713665 2.9923,-7.587302 2.9923,-18.95066 z m -50.4331,-22.507565 c -0.48224,-3.894517 -0.88676,-1.230553 -0.89891,5.919919 -0.013,7.150474 0.38239,10.336898 0.87681,7.08094 0.4944,-3.255957 0.50435,-9.106343 0.0221,-13.000859 z M 328.54687,58.5995 335.589,57.525759 V 43.23101 28.936262 l -13.31871,1.392068 c -7.32529,0.765642 -15.61334,1.392087 -18.41788,1.392087 -4.8711,0 -5.09918,0.681745 -5.09918,15.242296 v 15.242316 l 11.37576,-1.265894 c 6.25666,-0.69624 14.5447,-1.74907 18.41788,-2.339635 z m 17.87619,-17.19342 c 0,-3.83742 -0.61254,-10.039871 -1.36121,-13.783187 -1.09199,-5.459905 -1.94912,-6.318136 -4.33362,-4.339167 -2.00305,1.662377 -2.97242,7.436384 -2.97242,17.705069 0,15.100933 0.039,15.20286 4.33362,11.316318 2.62442,-2.375062 4.33363,-6.67371 4.33363,-10.899033 z M 129.74204,14.385938 V -0.78173147 h -7.58384 -7.58384 V 14.385938 29.553608 h 7.58384 7.58384 z m 160.34395,0 V -0.78173147 H 210.99742 131.90885 V 14.385938 29.553608 h 79.08857 79.08857 z m 39.00258,11.734468 c 5.25482,-0.96655 5.39538,-1.451763 4.69412,-16.203167 l -0.72294,-15.2067789 -12.88762,1.4580667 c -27.92806,3.15970729 -26.80531,2.4005438 -27.06229,18.2982542 l -0.22637,14.003422 1.47749,-14.084265 1.47747,-14.0842647 0.374,13.1814207 c 0.20563,7.249799 1.06835,13.875796 1.91702,14.72447 1.41863,1.41861 17.9632,0.303245 30.95912,-2.087158 z M 344.25624,4.5471906 c 0,-14.7690836 -1.61648,-19.3171366 -5.67006,-15.9529626 -3.0923,2.5663765 -4.38928,28.010957 -1.57144,30.828807 3.52783,3.527826 7.2415,-4.10097 7.2415,-14.8758444 z M 130.49245,-29.290454 c 0.77902,-14.48805 1.4164,-35.832792 1.4164,-47.432758 v -21.090847 l -7.58384,-0.885365 -7.58384,-0.885377 v 31.740134 c 0,17.457071 -0.6306,39.200229 -1.40135,48.318127 l -1.40136,16.577998 h 7.5688 7.5688 z m 156.48326,-23.28649 c -3.05633,-22.619031 -5.55696,-42.157298 -5.55696,-43.418375 0,-1.567653 -23.30162,-2.292859 -73.67154,-2.292859 h -73.67155 l -0.0296,41.71109 c -0.0162,22.9411 -0.61436,43.892859 -1.32908,46.559465 l -1.29949,4.8483723 79.87596,0.568646 c 73.95236,0.5264915 79.92648,0.293538 80.55758,-3.1410871 0.37489,-2.0403592 -1.819,-22.2162232 -4.87533,-44.8352522 z m 43.87647,44.2534348 c 1.28165,-1.2816437 -9.56494,-85.1869418 -11.74755,-90.8746848 -1.12764,-2.938586 -3.16145,-3.453546 -9.80369,-2.482286 -28.73468,4.201693 -26.24489,3.133669 -24.84705,10.658528 3.38287,18.210604 7.94918,52.025805 9.22644,68.325179 l 1.42393,18.1709452 17.30997,-1.3348525 c 9.52049,-0.7341669 17.81757,-1.842441 18.43795,-2.4628289 z m 8.29761,-6.5435038 c 2.5155,-2.515506 2.92385,-6.070405 1.80449,-15.709372 -2.12245,-18.277048 -9.50081,-69.970155 -11.01539,-77.174385 -1.26823,-6.03236 -1.41757,-6.09514 -5.1539,-2.16681 -3.68621,3.87562 -3.68169,5.00127 0.107,26.79707 2.17517,12.513327 5.1742,33.72098 6.6645,47.128116 1.49028,13.407137 3.07691,24.376613 3.5258,24.376613 0.44893,0 2.27927,-1.463055 4.06745,-3.251232 z M 131.90885,-115.62267 c 0,-7.15047 0.24376,-13.73215 0.5417,-14.62597 0.29793,-0.8938 -2.49131,-1.9205 -6.1983,-2.28156 -6.28052,-0.6117 -6.83283,-0.0947 -8.10169,7.58384 -0.74893,4.53215 -1.37242,11.40925 -1.38554,15.28242 -0.0224,6.60815 0.44352,7.04214 7.55999,7.04214 h 7.58384 z m 141.72709,4.87533 c -0.97056,-4.46905 -1.73609,-11.32158 -1.70117,-15.22786 0.0397,-4.44369 -0.59423,-6.0659 -1.69351,-4.33362 -1.37449,2.16594 -1.76424,2.17904 -1.7902,0.0602 -0.0258,-2.10665 -14.65877,-2.70852 -65.85002,-2.70852 h -65.81687 l -1.35426,6.77128 c -0.74484,3.7242 -1.35425,10.54966 -1.35425,15.16767 v 8.39639 h 70.66248 70.66247 z m 4.92936,3.38564 c -0.69169,-1.72854 -1.20513,-1.2151 -1.3091,1.30911 -0.0941,2.28418 0.41802,3.56395 1.13805,2.84394 0.72001,-0.72001 0.79697,-2.58889 0.17096,-4.15305 z m 37.71444,1.08097 c 1.4346,-1.43459 -1.45495,-19.29485 -3.55056,-21.94608 -0.29855,-0.37768 -8.47797,0.52805 -18.17651,2.01272 -12.42893,1.90265 -17.32692,3.49893 -16.59427,5.40815 0.57169,1.48979 1.71718,6.32137 2.54552,10.73682 l 1.50608,8.02811 16.2435,-1.2285 c 8.93393,-0.67566 17.04574,-2.03072 18.02624,-3.01122 z m 10.33013,-18.65674 c -1.08377,-5.0067 -2.59157,-10.56568 -3.35066,-12.35329 -1.44258,-3.39715 -2.1123,-5.48373 -2.56703,-7.99798 -0.34844,-1.92652 -6.61108,6.30081 -6.70238,8.80499 -0.0379,1.03974 1.3937,0.67657 3.18132,-0.80701 2.04956,-1.70098 3.25021,-1.84623 3.25021,-0.3932 0,1.26734 -1.0685,2.96461 -2.37441,3.77172 -1.53538,0.94891 -1.84367,5.01392 -0.87242,11.50363 1.94945,13.02605 2.88948,14.28143 7.54145,10.07145 3.22927,-2.92243 3.54053,-4.9934 1.89392,-12.60031 z m -51.70938,3.42415 c -2.34701,-3.65861 -2.41114,-3.65292 -1.22919,0.10914 0.68586,2.18304 1.36012,5.59575 1.49837,7.58384 0.22645,3.25645 0.34827,3.24564 1.22917,-0.10914 0.5378,-2.04811 -0.13651,-5.46084 -1.49835,-7.58384 z m 34.71407,-10.37729 c 4.84294,-2.99309 -0.44714,-4.71944 -9.18549,-2.99759 -5.09281,1.00352 -12.94327,2.38534 -17.44543,3.0707 -4.50215,0.68537 -7.72519,1.99133 -7.16228,2.90214 1.11535,1.80467 30.20284,-0.75627 33.7932,-2.97525 z m -175.5389,-14.20468 v -10.97133 l -7.04214,0.67898 c -6.7523,0.65104 -7.06931,1.1026 -7.70256,10.97134 l -0.66042,10.29235 h 7.70256 7.70256 z m 135.91999,5.55431 c 0.52958,-4.15558 0.4798,-4.16274 -1.21168,-0.1743 -1.4442,3.40538 -2.27747,2.32525 -4.59684,-5.95873 l -2.83287,-10.11805 h -61.24067 c -67.70936,0 -63.87112,-0.8589 -63.87112,14.2928 v 7.43793 l 66.60045,-0.57302 c 64.75446,-0.55713 66.61575,-0.69313 67.15273,-4.90663 z m 31.4661,3.13628 c 4.46904,-1.24111 8.12554,-2.52458 8.12554,-2.85214 0,-0.32756 -1.58571,-5.2493 -3.52376,-10.93721 l -3.52375,-10.34165 -10.01881,1.39778 c -24.254,3.38383 -24.53604,3.49266 -23.16891,8.93971 3.66478,14.60162 5.01503,16.07483 14.72157,16.06216 5.09442,-0.007 12.91907,-1.02754 17.38812,-2.26865 z m 15.11868,-23.41033 c -3.83212,-11.27387 -3.94514,-11.37624 -7.82507,-7.08896 -3.76115,4.15603 -3.7709,4.84959 -0.21826,15.54559 3.65001,10.98911 3.79425,11.11979 7.82506,7.08897 3.98968,-3.98968 3.99588,-4.43198 0.21827,-15.5456 z m -49.40072,9.59478 c -0.797,-3.1755 -1.86697,-5.35574 -2.37771,-4.845 -0.51076,0.51076 -0.27655,3.52677 0.52045,6.70225 0.797,3.1755 1.86697,5.35573 2.37771,4.84499 0.51075,-0.51075 0.27654,-3.52676 -0.52045,-6.70224 z m -123.35341,-16.40586 8.46335,-8.66724 h -6.6078 c -4.63691,0 -8.96895,2.29312 -14.52402,7.68814 -4.35392,4.22848 -7.91623,8.12874 -7.91623,8.66724 0,0.53851 2.72731,0.9791 6.06068,0.9791 4.21571,0 8.63709,-2.63846 14.52402,-8.66724 z m 150.81019,4.55086 c 4.29039,-1.3246 9.49024,-4.27526 11.55521,-6.55703 3.69077,-4.07826 2.45528,-4.16183 -72.80502,-4.92516 l -76.55951,-0.77651 -8.66724,8.37473 -8.66725,8.37473 73.67155,-1.0412 c 44.84889,-0.63385 76.72343,-1.98343 81.47226,-3.44956 z m 29.03505,-24.05214 10.67116,-10.83406 -22.67006,-0.004 c -12.46854,-0.002 -50.97984,-0.64208 -85.5807,-1.42197 l -62.91064,-1.41805 -11.7674,11.10647 -11.7674,11.10648 29.17503,0.67636 c 16.04627,0.372 55.0509,0.88929 86.67695,1.14953 l 57.50192,0.47318 z"
       style="fill:#000000;stroke-width:2.16681004" />
  </g>
</svg>
