<?xml version="1.0" encoding="UTF-8" standalone="no"?>
<!-- Created with Inkscape (http://www.inkscape.org/) -->

<svg
   xmlns:dc="http://purl.org/dc/elements/1.1/"
   xmlns:cc="http://creativecommons.org/ns#"
   xmlns:rdf="http://www.w3.org/1999/02/22-rdf-syntax-ns#"
   xmlns:svg="http://www.w3.org/2000/svg"
   xmlns="http://www.w3.org/2000/svg"
   xmlns:sodipodi="http://sodipodi.sourceforge.net/DTD/sodipodi-0.dtd"
   xmlns:inkscape="http://www.inkscape.org/namespaces/inkscape"
   width="500"
   height="500"
   viewBox="0 0 132.29166 132.29167"
   version="1.1"
   id="svg8"
   inkscape:version="0.92.4 5da689c313, 2019-01-14"
   sodipodi:docname="icon.svg">
  <defs
     id="defs2" />
  <sodipodi:namedview
     id="base"
     pagecolor="#ffffff"
     bordercolor="#666666"
     borderopacity="1.0"
     inkscape:pageopacity="0.0"
     inkscape:pageshadow="2"
     inkscape:zoom="0.42657054"
     inkscape:cx="322.0882"
     inkscape:cy="275.94377"
     inkscape:document-units="mm"
     inkscape:current-layer="layer1"
     showgrid="false"
     units="px"
     inkscape:window-width="1920"
     inkscape:window-height="1003"
     inkscape:window-x="0"
     inkscape:window-y="0"
     inkscape:window-maximized="1" />
  <metadata
     id="metadata5">
    <rdf:RDF>
      <cc:Work
         rdf:about="">
        <dc:format>image/svg+xml</dc:format>
        <dc:type
           rdf:resource="http://purl.org/dc/dcmitype/StillImage" />
        <dc:title></dc:title>
      </cc:Work>
    </rdf:RDF>
  </metadata>
  <g
     inkscape:label="Layer 1"
     inkscape:groupmode="layer"
     id="layer1"
     transform="translate(0,-164.70832)">
    <path
       style="fill:#000000;stroke:#000000;stroke-width:0.57013446"
       d="m 22.725532,292.00375 c -1.919181,-4.08926 -3.645842,-9.13929 -4.952554,-14.48498 -0.955974,-3.91088 -1.021809,-7.98549 -0.85707,-53.05015 l 0.178448,-48.8139 3.630524,-3.52736 c 1.996782,-1.94006 4.479059,-3.87458 5.516186,-4.29896 1.548198,-0.6335 8.90118,-0.77159 41.087677,-0.77159 h 39.202017 l 1.83479,3.88432 c 2.35233,4.97997 4.00194,10.56584 5.07784,17.1944 0.69795,4.30019 0.85595,13.74236 0.85876,51.32232 l 0.003,46.05263 -4.99346,4.70274 -4.99345,4.70273 -27.236262,0.15964 c -18.536644,0.1087 -27.23632,-0.0242 -27.23632,-0.41603 0,-0.31661 -1.18665,-0.57567 -2.636988,-0.57567 -1.450337,0 -2.636973,0.24962 -2.636973,0.55471 0,0.34849 -3.782293,0.55469 -10.17488,0.55469 H 24.221821 Z m 19.760436,-0.2333 c -3.034518,-8.14147 -4.012984,-20.79663 -2.318914,-29.99233 1.262513,-6.85325 3.427817,-12.32295 11.060818,-27.94037 7.278293,-14.89165 10.646173,-23.61837 12.714007,-32.94404 1.654493,-7.4615 1.572225,-7.21114 2.369445,-7.21114 1.472205,0 -1.208981,14.27984 -4.479,23.85488 -1.103165,3.2302 -4.658869,11.97118 -7.901586,19.42442 -6.364605,14.62879 -7.837781,19.10624 -8.839534,26.86619 -1.035054,8.01787 0.336406,17.6722 3.687345,25.95688 l 1.738805,4.29895 h 9.919323 9.919324 l 0.105643,-2.63484 0.105643,-2.63485 0.219488,2.63485 c 0.197272,2.3683 0.364417,2.63484 1.652348,2.63484 1.307568,0 1.43289,-0.21831 1.43289,-2.49616 0,-1.3729 0.263687,-2.49617 0.585992,-2.49617 0.322291,0 0.585993,1.12327 0.585993,2.49617 0,2.12635 0.173637,2.49616 1.171984,2.49616 0.998363,0 1.172,-0.36981 1.172,-2.49616 0,-1.3729 0.263687,-2.49617 0.585992,-2.49617 0.322291,0 0.585992,1.12327 0.585992,2.49617 0,2.29276 0.11941,2.49616 1.464989,2.49616 1.342216,0 1.473842,-0.22081 1.570616,-2.63484 l 0.105643,-2.63485 0.219474,2.63485 0.219473,2.63484 h 8.705212 8.705212 l 0.362505,-4.5763 c 0.58503,-7.3855 3.27989,-60.21099 3.65748,-71.69543 0.52817,-16.06397 -1.29486,-25.08518 -6.977944,-34.53027 l -2.419789,-4.02161 H 69.37255 44.572278 v 2.18609 c 0,1.20233 -0.263701,2.34035 -0.585992,2.52889 -0.35794,0.20941 -0.585992,-0.64139 -0.585992,-2.18607 0,-2.3277 -0.116512,-2.52891 -1.464988,-2.52891 -1.342217,0 -1.473843,0.22081 -1.570617,2.63485 l -0.105643,2.63484 -0.219474,-2.63484 c -0.197272,-2.36831 -0.364432,-2.63485 -1.652363,-2.63485 -1.307567,0 -1.432875,0.21831 -1.432875,2.49616 0,1.3729 -0.263701,2.49617 -0.585992,2.49617 -0.322305,0 -0.586007,-1.12327 -0.586007,-2.49617 0,-2.12635 -0.173623,-2.49616 -1.171985,-2.49616 -0.973726,0 -1.171985,0.36981 -1.171985,2.18609 0,1.20233 -0.263701,2.34035 -0.585992,2.52889 -0.35794,0.20941 -0.586007,-0.64139 -0.586007,-2.18607 v -2.52891 h -4.383791 c -4.079688,0 -4.401544,0.0867 -4.639654,1.24808 -0.140712,0.68646 -1.214097,12.85525 -2.385299,27.0418 -2.323333,28.14218 -2.474103,29.60726 -2.540228,24.68431 -0.02463,-1.83054 0.933339,-14.43617 2.128728,-28.01254 l 2.173419,-24.68429 -2.062023,-0.57296 -2.062023,-0.57297 -0.299757,13.88585 c -0.164869,7.63721 -0.270092,29.23725 -0.23382,48.00011 0.05695,29.45357 0.196113,34.62296 1.018665,37.83778 1.114685,4.35665 2.938323,9.62053 4.619322,13.3336 l 1.192852,2.63484 h 9.277771 9.277756 z m 31.99876,-29.55148 c -0.386503,-0.44082 -0.616555,-1.37689 -0.511246,-2.08014 0.158276,-1.05693 0.547054,-1.2786 2.242457,-1.2786 1.695417,0 2.08418,0.22167 2.242471,1.2786 0.229226,1.53072 -0.822059,2.88167 -2.242471,2.88167 -0.565661,0 -1.344709,-0.36069 -1.731211,-0.80153 z m 2.706416,-1.17722 c 0.488392,-1.2048 -0.751514,-2.33781 -1.639002,-1.4977 -0.750094,0.71004 -0.28541,2.36705 0.663797,2.36705 0.342535,0 0.781367,-0.39122 0.975205,-0.86935 z m 27.316996,31.99896 c 0.27173,-0.25723 0.30474,-14.10892 0.0733,-30.78154 -0.23138,-16.67264 -0.53073,-30.20969 -0.66526,-30.08235 -0.26999,0.25557 -0.82119,9.64899 -2.1842,37.22277 -0.49766,10.06787 -1.01416,19.76747 -1.14775,21.55466 l -0.24291,3.24945 1.83633,-0.34765 c 1.00999,-0.19123 2.05868,-0.55812 2.33041,-0.81534 z m -55.833958,-0.3614 c 0,-0.16234 -0.402255,-1.20649 -0.893893,-2.32031 -3.032591,-6.87046 -4.639378,-18.17251 -3.749934,-26.37701 0.810306,-7.47464 2.407268,-12.29449 9.57373,-28.89505 5.485391,-12.70644 8.585164,-20.82018 8.529792,-22.32691 -0.01014,-0.27219 -1.032171,2.00128 -2.271468,5.05213 -1.239298,3.05088 -5.011781,11.16341 -8.383284,18.02787 -7.233572,14.72769 -7.679373,15.77048 -9.167403,21.44422 -1.589861,6.06196 -1.95709,9.01573 -1.930919,15.53135 0.02696,6.70253 1.181564,13.46997 3.321189,19.4655 0.235429,0.65969 4.97219,1.03904 4.97219,0.39821 z m 59.771478,-48.8094 c 0,-48.57184 -0.11636,-51.07857 -2.72953,-58.78523 -1.19428,-3.52218 -4.93419,-11.37143 -5.4181,-11.37143 -0.20164,0 -1.491235,1.0985 -2.865797,2.44109 l -2.499173,2.44112 2.074254,3.2446 c 1.140843,1.78453 2.867663,5.18331 3.837386,7.55281 3.39746,8.30168 3.52509,9.52264 4.10156,39.23602 1.30009,67.01184 1.16142,63.40299 2.39574,62.3456 1.06404,-0.91152 1.10366,-2.60256 1.10366,-47.10458 z m 4.68451,-4.66675 c -0.003,-38.05544 -0.15847,-47.32606 -0.86938,-51.79066 -0.86325,-5.42138 -3.44736,-13.65521 -5.43861,-17.32929 l -1.04918,-1.93587 -2.27557,2.20596 -2.27557,2.20596 2.38294,4.87594 c 5.95071,12.17629 6.00527,12.77925 6.0094,66.41314 l 0.003,44.89608 1.75799,-1.59433 1.75797,-1.59431 z M 63.138355,209.11025 c -0.187056,-0.44249 -0.325914,-0.31105 -0.354027,0.33515 -0.02536,0.58475 0.113033,0.91237 0.30777,0.72804 0.194722,-0.18432 0.215532,-0.66276 0.04623,-1.06319 z M 34.024314,176.76412 c 0.756949,-0.76272 1.639988,-1.38676 1.962278,-1.38676 0.322291,0 -0.03333,0.62404 -0.790293,1.38676 -1.250239,1.25977 -1.275947,1.38676 -0.2807,1.38676 0.602556,0 1.83242,-0.66824 2.733008,-1.485 1.84239,-1.67088 3.008143,-1.35183 1.35991,0.37219 -1.030939,1.07836 -1.027953,1.11281 0.0968,1.11281 0.638365,0 1.780005,-0.62405 2.536953,-1.38676 0.756963,-0.76272 1.639988,-1.38676 1.962278,-1.38676 0.322305,0 -0.03333,0.62404 -0.790293,1.38676 -1.250239,1.25977 -1.275947,1.38676 -0.2807,1.38676 0.602556,0 1.83242,-0.66824 2.733008,-1.485 1.89282,-1.71659 2.944844,-1.40513 1.112497,0.32937 l -1.220821,1.15563 h 24.489777 24.489777 l 2.587992,-2.49616 2.588006,-2.49617 H 60.401695 21.489581 l -1.643552,1.49054 c -0.90395,0.81979 -1.643552,1.70149 -1.643552,1.95933 0,0.9739 2.829855,1.47329 8.541284,1.5073 5.56379,0.0331 5.983666,-0.0448 7.280582,-1.3516 z m 68.573336,-6.6681 1.99983,-1.95313 -39.084506,0.15036 -39.084519,0.15035 -1.904254,1.80278 -1.904254,1.80279 h 38.988933 38.98895 z"
       id="path4758"
       inkscape:connector-curvature="0" />
  </g>
</svg>
