<?xml version="1.0" encoding="UTF-8" standalone="no"?>
<svg
   xmlns:dc="http://purl.org/dc/elements/1.1/"
   xmlns:cc="http://creativecommons.org/ns#"
   xmlns:rdf="http://www.w3.org/1999/02/22-rdf-syntax-ns#"
   xmlns:svg="http://www.w3.org/2000/svg"
   xmlns="http://www.w3.org/2000/svg"
   width="500mm"
   height="500mm"
   viewBox="0 0 500 500"
   version="1.1"
   id="svg8">
  <defs
     id="defs2" />
  <metadata
     id="metadata5">
    <rdf:RDF>
      <cc:Work
         rdf:about="">
        <dc:format>image/svg+xml</dc:format>
        <dc:type
           rdf:resource="http://purl.org/dc/dcmitype/StillImage" />
        <dc:title></dc:title>
      </cc:Work>
    </rdf:RDF>
  </metadata>
  <g
     id="layer1">
    <path
       style="fill:#000000;stroke-width:2.00109"
       d="m 134.35348,392.86309 c -4.63155,-4.71921 -8.42101,-10.01189 -8.42101,-11.76152 0,-3.94894 -5.1425,-8.44154 -7.78984,-6.80539 -3.21725,1.98836 -89.155651,-80.20666 -89.896231,-85.98045 -0.4355,-3.39533 -1.88532,-4.93659 -4.64372,-4.93659 -2.205789,0 -8.449409,-3.74292 -13.8747094,-8.31761 l -9.8641901,-8.31759 V 206.32456 145.90517 L 46.389129,139.45678 C 185.42574,120.18639 343.74447,99.019293 352.27786,98.559696 c 4.26977,-0.229963 18.25825,11.973324 76.52063,66.755114 l 71.29573,67.03653 0.021,60.28284 0.021,60.28285 -5.50299,1.06742 c -3.02665,0.58708 -30.71674,4.36146 -61.53353,8.38747 -30.81679,4.02603 -82.109,10.86002 -113.98271,15.18664 l -57.95215,7.86658 -7.50869,-7.33205 -7.50872,-7.33204 -22.80504,2.54181 c -25.36683,2.82734 -29.22813,4.09803 -24.46498,8.0511 5.25871,4.36434 3.90554,11.60411 -2.40664,12.87594 -5.75378,1.15935 -49.54821,7.21357 -52.18066,7.21357 -0.83361,0 -5.3051,-3.86116 -9.93665,-8.58038 z m 38.60462,2.57711 c 30.94302,-3.7713 31.77285,-4.44696 20.80415,-16.93963 -8.04971,-9.16812 -11.79925,-9.19025 -11.79925,-0.0696 0,6.8688 0.16395,7.00836 8.50464,7.23919 l 8.50463,0.23536 -9.00491,1.50815 c -4.95269,0.82947 -16.8842,2.61756 -26.51444,3.9735 -12.60605,1.77495 -17.50954,3.25876 -17.50954,5.29843 0,1.88296 1.50995,2.51725 4.50245,1.89137 2.47635,-0.51794 12.60687,-1.92947 22.51227,-3.13673 z m -35.486,-7.40404 c -4.07222,-4.07221 -8.1088,-6.69927 -8.97018,-5.8379 -1.79436,1.79438 10.25475,13.24194 13.93777,13.24194 1.34004,0 -0.89538,-3.33182 -4.96759,-7.40404 z m 31.98409,0.21222 10.50572,-1.32814 v -52.39065 -52.39065 l 50.52753,-7.10537 c 27.79014,-3.90795 50.87474,-6.80861 51.29911,-6.44591 0.42438,0.36268 1.22835,23.64995 1.78662,51.74944 0.86369,43.47186 1.45961,51.09001 3.99655,51.09001 6.64072,0 192.69728,-24.68903 205.06055,-27.2108 l 5.503,-1.12245 v -55.0937 -55.09368 l -6.50354,1.1715 c -11.11736,2.00263 -148.43892,20.84358 -191.6044,26.28872 -22.56229,2.84615 -66.45245,8.73804 -97.53368,13.09308 -31.08125,4.35505 -56.97035,7.91827 -57.53136,7.91827 -1.48946,0 -1.24885,83.27031 0.28296,97.92586 l 1.30296,12.46605 6.20113,-1.09672 c 3.41062,-0.60319 10.9287,-1.69438 16.70685,-2.42486 z m -27.52152,-53.34116 -0.007,-54.52971 -66.976411,-62.76472 C 7.5870996,154.48422 2.2623795,149.30609 4.7115296,149.30609 c 0.73459,0 18.1985504,15.98371 38.8087994,35.51935 20.61024,19.53565 51.55299,48.83367 68.761671,65.10672 l 31.28848,29.58738 57.71725,-8.04893 c 31.7445,-4.42689 85.63246,-11.66023 119.75105,-16.07406 83.29474,-10.77565 170.91841,-23.20392 172.12869,-24.41418 1.88276,-1.88278 -137.04934,-130.709 -140.6146,-130.38632 -17.60505,1.59336 -327.724911,43.5188 -341.68309,46.19251 l -8.0043605,1.53324 -0.53221,54.39879 -0.53222,54.3988 58.5638395,55.47865 c 32.2101,30.51325 58.316391,56.29942 58.013971,57.3026 -0.30241,1.00317 0.22152,1.34722 1.1643,0.76456 0.94279,-0.58268 6.10907,3.40259 11.48063,8.85616 5.37156,5.45356 10.02545,9.91557 10.34197,9.91557 0.31652,0 0.57256,-24.53837 0.56897,-54.52971 z m 182.10575,39.62883 c 28.06529,-3.81706 69.03761,-9.22001 91.0496,-12.00656 56.28229,-7.12489 81.3269,-10.72899 82.46526,-11.86733 4.14281,-4.14284 -7.48508,-3.63346 -48.83689,2.13939 -26.1998,3.65757 -75.55121,10.23881 -109.6698,14.62498 -79.84672,10.26484 -77.04197,9.77919 -77.04197,13.34037 0,2.19784 1.45083,2.68479 5.50299,1.84701 3.02665,-0.62576 28.46551,-4.26078 56.53081,-8.07786 z m -64.03489,3.50411 c 0,-0.76524 -2.47635,-4.14208 -5.503,-7.50409 l -5.503,-6.11277 6.32743,5.70865 c 5.60793,5.05954 7.27772,5.54808 14.68508,4.29662 l 8.35767,-1.41203 -5.64285,-5.88987 c -4.66861,-4.87297 -6.99612,-5.78755 -13.48075,-5.29716 -10.82352,0.81848 -13.7001,5.72804 -7.32943,12.50931 4.65323,4.95314 8.08885,6.52522 8.08885,3.70134 z m -36.5199,-6.85096 c 17.10754,-2.12938 20.51117,-3.1263 20.51117,-6.00765 0,-2.61308 2.51888,-3.8574 10.34028,-5.10808 5.68714,-0.9094 10.71487,-2.77906 11.17274,-4.15481 1.07653,-3.23464 0.42231,-3.18821 -44.36251,3.14826 -24.42965,3.45648 -38.1521,6.2436 -38.68775,7.85774 -0.45654,1.37575 0.48544,2.50136 2.0933,2.50136 1.60785,0 4.1088,1.42836 5.55767,3.17413 1.67136,2.01388 4.50396,2.80275 7.74911,2.15812 2.81314,-0.55882 14.34484,-2.1649 25.62599,-3.56907 z m -107.55861,-2.45087 c 0,-1.71261 -84.375631,-79.69312 -85.26566,-78.80308 -0.551831,0.55182 17.57683,18.66299 40.285899,40.24705 35.685211,33.91734 44.979761,41.8845 44.979761,38.55603 z M 282.0114,354.91812 c -0.004,-7.97935 -0.59535,-30.04137 -1.31552,-49.02671 l -1.30939,-34.51881 h -5.6883 -5.6883 v 44.11998 44.11996 l 5.50299,4.8435 c 3.02665,2.66393 6.17837,4.87197 7.00382,4.90675 0.82545,0.0348 1.49806,-6.46532 1.4947,-14.44467 z m -54.57666,1.2119 c 30.16245,-4.13771 38.57406,-5.93173 38.57406,-8.22706 0,-2.21367 -1.59908,-2.65259 -6.50355,-1.78506 -3.57695,0.63271 -20.46115,2.99654 -37.52044,5.25295 -36.77613,4.86435 -40.02181,5.52026 -40.02181,8.08784 0,2.76347 2.2778,2.59674 45.47174,-3.32867 z m -35.30262,-4.71381 c 3.0745,0 3.83851,-1.43664 3.83851,-7.21791 0,-5.75966 -0.63949,-6.97252 -3.16529,-6.00327 -1.74092,0.66806 -4.89264,1.21464 -7.00382,1.21464 -3.0745,0 -3.83852,1.43664 -3.83852,7.21791 0,5.75966 0.6395,6.97252 3.1653,6.00327 1.74092,-0.66806 4.89264,-1.21464 7.00382,-1.21464 z m 36.81786,-3.2637 c 1.24604,-0.47816 2.46919,-4.32075 2.71809,-8.53909 0.42597,-7.21905 -0.51435,-8.57929 -16.00258,-23.14951 -15.87131,-14.9306 -16.51816,-15.31289 -18.23184,-10.77493 -1.56011,4.13127 -0.35476,5.9853 9.88639,15.20698 6.41473,5.77617 13.1509,10.50375 14.96927,10.50573 1.88789,0.002 4.22293,2.63345 5.44325,6.13404 2.06529,5.92451 1.95425,6.10935 -3.30616,5.503 -3.72695,-0.4296 -5.63061,-1.93842 -6.03751,-4.78529 -0.32688,-2.28683 -5.77046,-9.28 -12.09687,-15.54041 -10.43771,-10.32879 -12.09629,-11.26382 -17.9158,-10.0999 -8.92987,1.78597 -8.27413,6.90902 1.97396,15.42166 6.89489,5.72728 8.47014,8.33812 8.85346,14.67386 0.25646,4.23887 0.53444,8.03704 0.61774,8.44042 0.18255,0.8841 25.91387,-1.76296 29.1286,-2.99656 z m 29.55473,-5.97599 5.503,-1.08375 v -33.85955 c 0,-28.76329 -0.45179,-33.85953 -3.00164,-33.85953 -2.52407,0 -3.00164,4.42307 -3.00164,27.80117 0,30.28024 0.02,30.23045 -12.00654,30.23045 -9.2589,0 -12.00654,1.93275 -12.00654,8.44566 v 6.0164 l 9.50518,-1.30355 c 5.22785,-0.71695 11.98153,-1.79124 15.00818,-2.3873 z m -67.03159,-6.42056 c 1.82949,-1.16159 0.8838,-3.14578 -3.50191,-7.34754 l -6.00821,-5.75624 v 7.3782 c 0,7.54425 3.4112,9.59797 9.51012,5.72558 z m 62.10204,-9.08941 c 1.70217,-1.05202 2.42818,-9.2838 2.42818,-27.53162 0,-23.83499 -0.29542,-25.9473 -3.5019,-25.03955 -1.92605,0.54528 -9.04287,1.58475 -15.81514,2.30996 l -12.31321,1.31856 -0.76225,7.99283 c -0.73084,7.66366 -0.10006,8.66176 15.31486,24.23571 15.62621,15.78736 10.30301,12.09665 -9.93707,-6.88963 -9.64576,-9.04823 -10.34716,-9.34558 -19.51064,-8.27115 -5.22784,0.61299 -9.50517,1.79988 -9.50517,2.63752 0,0.83765 7.57576,8.69411 16.83503,17.45877 l 16.83501,15.93576 8.75205,-1.32822 c 4.81362,-0.73054 9.84474,-2.00355 11.18025,-2.82894 z m -61.60671,-17.27324 c 2.48556,-1.60629 2.31354,-1.93979 -1.00054,-1.93979 -2.2012,0 -5.35292,0.87289 -7.00382,1.93979 -2.48556,1.6063 -2.31353,1.9398 1.00055,1.9398 2.2012,0 5.35291,-0.87289 7.00381,-1.9398 z m 3.70229,-5.15703 c 0.38536,-0.31897 0.19989,-1.39023 -0.41217,-2.38055 -1.70182,-2.7536 -13.29557,-0.38877 -13.29557,2.71196 0,1.99366 1.74454,2.3924 6.50355,1.48653 3.57695,-0.68088 6.81883,-1.49894 7.20419,-1.81794 z m 9.3048,-14.66302 c 6.48596,-0.96539 8.13213,-2.09491 8.67795,-5.95427 0.57857,-4.09115 0.014,-4.60597 -4.00218,-3.65025 -2.57168,0.61198 -9.85359,1.73341 -16.18204,2.4921 -10.56603,1.26673 -11.50627,1.78759 -11.50627,6.37429 0,4.71027 0.42759,4.90754 7.50409,3.46219 4.12725,-0.84298 11.10605,-2.06881 15.50845,-2.72406 z m 6.52688,2.43642 c -1.91322,-0.50085 -5.51519,-0.51902 -8.00436,-0.0404 -2.48918,0.47864 -0.92383,0.88845 3.47857,0.91066 4.4024,0.0222 6.43901,-0.36942 4.52579,-0.87028 z m 10.48239,-7.62999 c 0,-2.7515 -0.90049,-5.00273 -2.00109,-5.00273 -1.1006,0 -2.00109,2.25123 -2.00109,5.00273 0,2.75149 0.90049,5.00272 2.00109,5.00272 1.1006,0 2.00109,-2.25123 2.00109,-5.00272 z M 11.87032,270.37205 c -3.7336004,-3.8521 -7.6888504,-7.00381 -8.7894505,-7.00381 -1.1006,0 1.0536701,3.15171 4.7872701,7.00381 3.7336004,3.8521 7.6888604,7.00382 8.7894604,7.00382 1.1006,0 -1.05368,-3.15172 -4.78728,-7.00382 z"
       id="path74" />
  </g>
</svg>
