<?xml version="1.0" encoding="UTF-8" standalone="no"?>
<svg
   xmlns:dc="http://purl.org/dc/elements/1.1/"
   xmlns:cc="http://creativecommons.org/ns#"
   xmlns:rdf="http://www.w3.org/1999/02/22-rdf-syntax-ns#"
   xmlns:svg="http://www.w3.org/2000/svg"
   xmlns="http://www.w3.org/2000/svg"
   width="500mm"
   height="500mm"
   viewBox="0 0 500 500"
   version="1.1"
   id="svg8">
  <defs
     id="defs2" />
  <metadata
     id="metadata5">
    <rdf:RDF>
      <cc:Work
         rdf:about="">
        <dc:format>image/svg+xml</dc:format>
        <dc:type
           rdf:resource="http://purl.org/dc/dcmitype/StillImage" />
        <dc:title></dc:title>
      </cc:Work>
    </rdf:RDF>
  </metadata>
  <g
     id="layer1">
    <path
       style="fill:#000000;stroke-width:1.99633"
       d="m 81.068121,461.65993 c -29.333,-30.19953 -36.72782,-38.86761 -34.96763,-40.98852 1.74612,-2.10394 0.0564,-4.64597 -7.75872,-11.67247 -12.02192,-10.80873 -14.91739,-17.5309 -19.43229,-45.11443 -2.9656,-18.11809 -3.06889,-21.85595 -0.72503,-26.23569 2.40103,-4.48652 36.76014,-42.01519 174.884229,-191.01687 32.1448,-34.67628 34.40605,-37.62026 34.43677,-44.83438 0.0447,-10.519958 12.17564,-23.200488 22.25677,-23.265308 5.97691,-0.0384 8.93833,-2.45259 26.6863,-21.75467 13.78423,-14.991252 19.77884,-22.958697 19.36724,-25.74105 -1.69208,-11.43841 11.82502,-26.3011326 23.93521,-26.3179556 2.95465,-0.0041 5.92731,-0.905813 6.60591,-2.003796 2.42536,-3.924333 5.41843,-1.97542596 4.23115,2.75508 -1.04021,4.1445386 1.97104,7.4593206 23.57607,25.9524346 16.79669,14.377356 25.789,20.809467 27.93893,19.984457 3.47476,-1.333389 7.75095,2.72308 65.95475,62.565668 l 35.39844,36.3951 -10.4023,11.51692 c -9.96398,11.03164 -21.92126,32.06234 -21.92458,38.56137 -8.5e-4,1.69864 3.69638,6.63957 8.2161,10.97984 10.96512,10.52976 14.2901,18.51771 11.98267,28.7873 -2.66588,11.86501 -6.06506,16.26509 -44.24473,57.27289 -19.26333,20.69023 -56.69879,61.08881 -83.18991,89.77461 -26.49113,28.68581 -51.04618,54.2071 -54.56678,56.714 -3.74674,2.6679 -10.45873,4.94788 -16.1862,5.49821 l -9.78507,0.94023 -24.72138,-24.4401 c -13.59678,-13.44204 -25.58183,-24.11448 -26.63346,-23.71653 -1.05163,0.39795 -21.86091,22.28396 -46.24284,48.63557 -24.38193,26.35161 -45.04154,48.17186 -45.91025,48.48946 -0.86871,0.31758 -18.31943,-16.65703 -38.779369,-37.72137 z m 82.891019,-12.26534 c 40.66403,-44.06896 47.07522,-51.40561 44.92121,-51.40561 -0.50964,0 -20.92077,21.5649 -45.35808,47.92201 -24.4373,26.3571 -44.81688,47.53659 -45.28796,47.06551 -0.47107,-0.47107 19.35844,-22.6778 44.06558,-49.34828 l 44.92207,-48.49178 -34.10572,-35.62205 -34.10573,-35.62205 -5.40601,5.60607 c -23.99217,24.87997 -77.853569,85.13806 -77.364309,86.55225 0.33636,0.97225 6.45084,6.73966 13.58774,12.81648 10.4907,8.93246 13.96678,10.84018 18.14799,9.95987 11.409531,-2.40213 12.380039,13.33378 0.99854,16.19037 -6.36071,1.59643 -9.16486,-0.22061 -9.16486,-5.93871 0,-3.22256 -4.25278,-8.15181 -14.40858,-16.70048 -13.95264,-11.74465 -20.59951,-14.48835 -14.70224,-6.06881 4.11772,5.87886 67.278179,69.49998 68.996749,69.49998 0.78927,0 20.70789,-20.88665 44.26361,-46.41477 z m -72.251129,1.59315 c 2.74789,-3.311 2.08334,-9.59482 -0.91857,-8.68577 -1.09799,0.33249 -1.78234,2.17665 -1.52079,4.09812 0.26887,1.97525 -0.81566,3.49358 -2.49542,3.49358 -1.63403,0 -2.97096,0.89835 -2.97096,1.99634 0,2.9925 5.16233,2.40334 7.90574,-0.90227 z m 196.589069,-9.41846 c 10.33209,-7.4965 171.37689,-182.54552 176.30594,-191.63723 4.67498,-8.62307 5.82838,-20.46678 2.49542,-25.62415 -1.42365,-2.20291 -1.94327,-0.8347 -1.96577,5.17594 -0.018,4.63756 -1.97278,11.7493 -4.52232,16.44726 -2.47046,4.55226 -20.2473,25.13101 -39.50408,45.73058 -19.25678,20.59958 -51.06201,54.9716 -70.67831,76.38229 -63.81303,69.6503 -70.52468,75.8607 -81.98346,75.8607 -3.31957,0 -4.70931,0.80654 -3.83298,2.22447 2.13316,3.45155 16.43995,0.69724 23.68556,-4.55986 z m -8.54123,-4.16292 c 4.01498,-2.46485 13.2127,-10.89252 20.43937,-18.72815 11.42687,-12.38981 12.622,-14.38191 9.16976,-15.28469 -4.29058,-1.12202 -5.10179,-5.54784 -2.05898,-11.23339 1.4932,-2.79008 0.62088,-4.8057 -3.99267,-9.22576 -3.24682,-3.11065 -5.9033,-6.4395 -5.9033,-7.39742 0,-2.77552 14.59223,-19.47099 17.01809,-19.47099 1.20904,0 4.72766,2.64011 7.81914,5.86693 5.42181,5.65917 5.79766,5.7511 10.61297,2.59597 4.74256,-3.10743 5.17031,-3.05086 8.55709,1.13162 l 3.56498,4.40256 26.18982,-28.39005 c 23.19176,-25.14011 25.72505,-28.56201 22.12957,-29.89207 -4.67977,-1.73114 -5.36557,-8.04381 -1.24535,-11.46327 2.34106,-1.94293 1.50364,-3.58033 -4.97475,-9.72704 l -7.78966,-7.39085 9.21786,-9.63145 9.21785,-9.63146 6.75276,6.54505 6.75278,6.54504 -8.00138,8.15281 c -8.28705,8.44387 -9.78927,11.40338 -5.50597,10.84716 5.67148,-0.73647 7.48904,0.3822 7.54027,4.64078 0.0487,4.04878 0.7836,3.70631 7.45234,-3.47279 5.81384,-6.25878 6.69378,-8.1002 4.10863,-8.59805 -4.90322,-0.94428 -6.12024,-6.34175 -2.63075,-11.66737 4.06594,-6.20543 12.44836,-6.41828 13.33567,-0.33864 0.53716,3.68042 2.96358,1.733 15.35902,-12.32697 24.41219,-27.69031 26.05917,-38.87823 8.36141,-56.7986 l -10.16124,-10.28903 2.85449,-9.48477 c 1.56998,-5.21662 4.03731,-11.01513 5.48298,-12.88559 1.80167,-2.33107 1.15432,-2.14491 -2.05798,0.59183 -2.57755,2.19597 -5.42339,5.91908 -6.32409,8.27357 -0.90073,2.35449 -4.28976,5.60394 -7.53123,7.221 l -5.8936,2.9401 -22.68375,-19.41357 c -12.47607,-10.67747 -33.35084,-30.36018 -46.38838,-43.73936 -26.68843,-27.38782 -24.05898,-26.72091 -37.67194,-9.55474 l -6.03748,7.61336 6.25741,6.45602 c 3.56584,3.67899 6.25422,8.56193 6.24997,11.35182 -0.016,10.59263 -13.19044,24.00927 -23.35033,23.77984 -1.97599,-0.0446 -6.73695,-2.80278 -10.57989,-6.12923 l -6.98717,-6.04809 -10.97984,11.86092 c -6.03891,6.5235 -31.15958,33.7617 -55.82369,60.52933 -24.66414,26.76763 -53.20714,57.53697 -63.4289,68.37633 l -18.58502,19.70791 9.44381,10.2371 c 5.1941,5.6304 32.03788,33.36962 59.65285,61.64271 48.66787,49.8277 50.4475,51.40529 57.97774,51.39538 4.53689,-0.006 10.80556,-1.87457 15.06871,-4.49175 z m -19.41186,-12.39097 c -8.53075,-13.01959 13.90082,-36.15255 25.16847,-25.95543 6.41967,5.80971 5.01583,14.26582 -3.83824,23.1199 -9.23448,9.23446 -16.50427,10.20087 -21.33023,2.83553 z m 17.2527,-1.63663 c 5.15809,-3.98923 10.34946,-13.17563 9.17511,-16.23591 -2.59411,-6.76016 -19.30678,6.1857 -19.30678,14.95532 0,4.37942 5.26447,5.04484 10.13167,1.28059 z m -12.12801,-2.9859 c 0,-5.05665 5.42997,-12.13925 12.71008,-16.57846 6.16916,-3.76175 6.18576,-3.81427 1.20938,-3.82162 -2.77516,-0.004 -7.13414,1.45533 -9.68665,3.24317 -5.21518,3.65285 -10.31432,14.14876 -8.79601,18.10541 1.46345,3.81372 4.5632,3.1694 4.5632,-0.9485 z m -52.79933,-60.1667 c -0.62163,-1.00585 -0.21905,-4.22546 0.89464,-7.1547 2.09519,-5.51076 1.23238,-8.9835 -2.23196,-8.9835 -1.09798,0 -1.50404,0.79655 -0.90234,1.77013 0.60171,0.97357 -0.28171,2.91187 -1.96312,4.30733 -4.36682,3.62412 -8.58132,-0.6246 -4.95446,-4.99469 1.40548,-1.69351 1.81658,-3.07911 0.91354,-3.07911 -0.90302,0 -0.57013,-1.07173 0.73976,-2.38162 1.84462,-1.84462 1.40956,-3.41635 -1.92945,-6.97056 l -4.31108,-4.58894 12.72091,-13.49186 c 6.9965,-7.42054 12.9074,-13.78824 13.13534,-14.15046 0.22795,-0.36223 2.61702,0.78458 5.30904,2.54846 3.86502,2.53245 6.06943,2.76037 10.47995,1.08349 7.35302,-2.79563 10.80959,0.47307 4.88703,4.6214 -5.82265,4.07835 -3.50427,7.87056 3.24332,5.30513 7.01891,-2.66858 8.78288,-2.41526 8.78288,1.26135 0,1.74976 -1.747,3.63824 -3.88222,4.19661 -3.22294,0.84281 -3.49224,1.63965 -1.58588,4.69223 1.97182,3.1574 0.63525,5.45592 -9.45856,16.26581 -6.46516,6.92384 -12.3931,13.34619 -13.17319,14.27191 -0.78008,0.9257 -3.69136,0.19384 -6.4695,-1.62655 -4.91801,-3.22241 -5.0206,-3.19276 -3.89161,1.12449 0.79334,3.03379 0.437,3.98756 -1.12839,3.0201 -1.4833,-0.91672 -1.86983,-0.32443 -1.09906,1.68416 1.26302,3.29136 -2.21463,4.36138 -4.12559,1.26939 z m 27.53604,-21.03451 c 11.2195,-12.70024 11.31668,-12.91539 6.90119,-15.27849 -4.11718,-2.20345 -5.41254,-1.36547 -16.05396,10.38531 -10.4554,11.5454 -11.24507,13.02369 -8.16146,15.27849 1.87768,1.37298 3.98107,2.49633 4.67422,2.49633 0.69315,0 6.38116,-5.79673 12.64001,-12.88164 z m -10.01698,-7.77297 11.12301,-12.66927 -7.79574,-7.61235 c -6.58743,-6.43245 -8.27367,-7.21569 -10.87921,-5.0533 -3.35817,2.78704 -4.30377,7.05267 -1.12841,5.09018 1.07531,-0.66456 3.82282,-0.20872 6.10561,1.013 9.58075,5.12744 -1.23233,24.35563 -11.80879,20.9988 -2.32537,-0.73805 -4.78266,-3.55204 -5.46064,-6.25334 -0.98219,-3.91335 -1.7945,-4.44516 -3.9973,-2.617 -1.52054,1.26195 -2.76462,3.26461 -2.76462,4.45037 0,2.36807 11.93956,15.32219 14.12217,15.32219 0.7485,0 6.36627,-5.70117 12.48392,-12.66928 z m -6.64275,-5.29773 c 5.20163,-5.20163 5.2823,-11.97801 0.14254,-11.97801 -5.30063,0 -10.12427,5.29923 -10.12427,11.12244 0,5.97421 4.47912,6.35813 9.98167,0.85557 z m 109.49608,28.43624 c -4.20749,-3.80122 -7.24018,-7.57437 -6.73932,-8.38478 0.50086,-0.81041 -1.97703,-4.08141 -5.50645,-7.26889 l -6.4171,-5.7954 5.86341,6.48809 c 3.22488,3.56844 4.96507,6.48808 3.86708,6.48808 -2.60088,0 -13.0908,-10.94674 -11.76264,-12.2749 0.56003,-0.56003 -1.44868,-3.1928 -4.4638,-5.8506 l -5.48205,-4.83234 4.83973,5.48992 c 9.73121,11.03851 0.7749,5.07899 -12.02211,-7.99949 -19.27868,-19.70274 -19.31183,-19.39329 4.82616,-45.01642 l 20.32322,-21.57367 16.96884,14.27195 c 18.78192,15.79686 51.90469,47.88921 51.90469,50.28996 0,0.84399 -8.56646,10.74457 -19.03662,22.0013 -22.02899,23.68399 -25.12129,24.84618 -37.16304,13.96719 z m 35.01411,-15.26876 19.23358,-20.77018 -12.43878,-10.39362 -12.4388,-10.39359 -18.44657,19.68487 c -10.14561,10.82668 -18.48256,20.49409 -18.52656,21.48312 -0.10441,2.34489 21.38204,-17.17453 21.66432,-19.68109 0.32317,-2.86949 14.66332,-17.053 17.24134,-17.053 1.23276,0 4.35125,2.24587 6.93002,4.99083 5.55875,5.91702 3.12498,6.74713 -2.9764,1.0152 l -4.23187,-3.97566 -7.52155,7.70276 -7.52154,7.70277 7.58786,6.25456 c 4.17332,3.44 8.1053,6.25455 8.73774,6.25455 0.63242,0 4.16168,-3.10741 7.8428,-6.90536 5.63273,-5.81151 6.28853,-7.39268 4.13985,-9.98167 -1.40422,-1.69197 -1.65476,-3.07631 -0.55677,-3.07631 1.09798,0 3.16129,1.40368 4.58512,3.11929 2.20998,2.66287 1.23271,4.47538 -6.67836,12.38648 l -9.26716,9.26714 -5.55428,-4.9002 -5.55428,-4.9002 4.71911,5.36151 4.71911,5.36154 -4.29451,6.03108 c -2.36198,3.31711 -6.47641,7.74738 -9.14317,9.84504 -3.82671,3.01012 -4.8263,6.34034 -1.90307,6.34034 0.23058,0 9.07434,-9.3466 19.65282,-20.7702 z m -26.72647,18.08511 c 0,-0.37882 -2.02129,-2.40011 -4.49175,-4.49175 l -4.49175,-3.803 3.803,4.49176 c 3.57387,4.22112 5.1805,5.40056 5.1805,3.80299 z m 14.80264,-23.44455 c -2.83932,-2.96362 -4.16922,-5.69624 -2.96721,-6.0969 1.19808,-0.39937 0.14813,-1.99041 -2.33314,-3.53569 -4.13157,-2.57298 -4.28073,-2.53041 -1.7716,0.50565 2.94357,3.56172 0.3999,4.65829 -2.9756,1.28279 -1.37907,-1.37907 -4.13626,0.58542 -8.57647,6.11065 l -6.544,8.14315 7.67812,6.70617 7.6781,6.70618 7.47869,-7.22561 7.47866,-7.22559 z m -21.70183,-10.30346 c 6.57283,-6.8624 15.08123,-15.90851 18.9075,-20.10249 l 6.95687,-7.62539 -6.51959,-5.84986 c -3.58576,-3.21741 -7.30495,-5.84986 -8.26482,-5.84986 -0.9599,0 -9.8812,8.82424 -19.8251,19.60939 l -18.07984,19.60941 6.34293,6.34294 c 3.48864,3.48863 6.83535,6.34295 7.43719,6.34295 0.60181,0 6.47201,-5.61469 13.04486,-12.47709 z m -18.96204,-12.97617 c 23.41906,-24.55934 24.7887,-26.32616 22.32119,-28.79367 -1.7817,-1.78171 -3.30569,-1.09972 -6.43646,2.88039 -7.46555,9.49093 -18.05838,8.73283 -17.90869,-1.28166 0.18007,-12.04902 17.62286,-19.55727 20.96576,-9.02475 0.66983,2.11048 2.11913,3.28023 3.22063,2.59946 3.12058,-1.92861 -6.08759,-10.50081 -12.01848,-11.18839 -3.84494,-0.44576 -5.15988,-1.67333 -4.92811,-4.60065 0.21,-2.65241 -5.9101,2.66574 -18.2318,15.84279 -13.17149,14.08585 -18.47116,21.18044 -18.28313,24.47545 0.15731,2.75586 1.25212,4.26182 2.69627,3.70865 1.33733,-0.51224 3.04535,0.0619 3.79561,1.27586 0.77292,1.25062 2.31473,-0.70465 3.55753,-4.51158 4.06264,-12.4446 19.06431,-15.72448 20.74826,-4.53629 0.87482,5.81231 -6.94105,14.65164 -12.95519,14.65164 -4.23039,0 -4.68278,0.49114 -2.67774,2.90706 1.32694,1.59887 1.83309,3.84474 1.12477,4.99084 -0.70832,1.14607 -0.0838,2.08377 1.38789,2.08377 1.47164,0 7.60141,-5.16551 13.62169,-11.47892 z M 300.68009,296.7842 c -1.88866,-1.88863 -5.53917,7.77129 -4.16703,11.02665 1.08125,2.56519 1.83617,1.78544 3.26203,-3.36941 1.02036,-3.68885 1.42762,-7.1346 0.905,-7.65724 z m 10.70428,2.14181 c 0,-2.61053 -0.89835,-4.74641 -1.99633,-4.74641 -1.09799,0 -1.99634,1.72324 -1.99634,3.82939 0,2.10617 -0.61737,5.47499 -1.37194,7.48625 -1.2077,3.21911 -0.96872,3.32887 1.99633,0.91702 1.85256,-1.50693 3.36828,-4.87575 3.36828,-7.48625 z m -6.62162,-1.12805 c -0.63727,-1.59254 -1.11032,-1.11951 -1.20611,1.20612 -0.0866,2.10446 0.38514,3.28355 1.04852,2.62019 0.66336,-0.66338 0.73427,-2.38522 0.15751,-3.82631 z m 15.03279,-15.59636 c 0.98482,-6.71004 -1.46552,-8.15543 -3.41467,-2.01421 -1.10131,3.46995 -0.0353,8.00321 1.88191,8.00321 0.35956,0 1.04931,-2.69505 1.53276,-5.989 z m 11.55217,-5.23527 c 0,-7.31423 -3.45428,-5.61643 -4.36015,2.14304 -0.63771,5.46253 -0.26949,6.44559 1.77793,4.74641 1.42022,-1.1787 2.58222,-4.27894 2.58222,-6.88945 z m -135.78473,32.1507 -6.80623,-7.02224 6.0671,-6.0671 6.06709,-6.0671 6.33653,6.48116 c 3.48508,3.56463 6.33652,7.50154 6.33652,8.74867 0,2.17201 -8.19082,10.94886 -10.2178,10.94886 -0.53733,0 -4.03978,-3.16002 -7.78321,-7.02225 z m 9.01751,-10.94476 -3.74085,-4.13359 -3.99266,3.99267 c -3.90755,3.90754 -3.91292,4.08081 -0.25183,8.12626 l 3.74085,4.13359 3.99267,-3.99267 c 3.90754,-3.90755 3.91292,-4.08081 0.25182,-8.12626 z m 218.99786,-46.31495 c -8.04389,-8.04389 3.87451,-29.54575 16.37711,-29.54575 10.96828,0 14.33949,8.04794 8.27984,19.76602 -5.29718,10.24361 -18.82679,15.60988 -24.65695,9.77973 z m 16.03013,-3.52575 c 5.18596,-4.07927 10.93306,-15.29366 8.88646,-17.34026 -2.72092,-2.72092 -11.75467,1.88358 -15.38864,7.8436 -7.35294,12.05941 -3.64345,17.47723 6.50218,9.49666 z m -5.94492,-13.84184 c 2.46842,-2.31244 6.28473,-5.52077 8.4807,-7.12963 3.85658,-2.82551 3.80246,-2.92739 -1.58798,-2.98871 -9.91911,-0.1128 -20.09207,14.44922 -16.3394,23.38897 1.19323,2.84258 1.79538,2.3209 3.2135,-2.78407 0.95982,-3.45515 3.76475,-8.17411 6.23318,-10.48656 z M 96.592991,366.29256 c 21.602489,-23.47192 38.932779,-43.6848 38.511749,-44.91752 -0.42103,-1.23269 3.80939,-7.265 9.40094,-13.40512 21.45527,-23.56022 100.89871,-109.56082 119.52604,-129.39158 10.73848,-11.43227 19.27281,-21.51174 18.96518,-22.39883 -0.30766,-0.8871 -11.76298,-11.08749 -25.45628,-22.66754 l -24.89688,-21.05463 -7.26949,7.51417 c -7.0699,7.30788 -67.18491,72.16151 -156.544489,168.88425 -24.15565,26.14607 -44.72475,48.97569 -45.70913,50.73252 -2.02168,3.60813 1.31094,29.53664 5.87915,45.74103 2.27272,8.06181 5.14134,12.31047 13.20963,19.56457 8.31671,7.47743 10.76979,8.76527 12.70639,6.67067 1.31996,-1.42765 20.0747,-21.80005 41.67719,-45.27199 z m 216.954069,29.53373 c 4.67559,-4.67559 3.45553,-7.82383 -1.75935,-4.5399 -3.23849,2.03935 -5.95181,8.69893 -3.54421,8.69893 0.62948,0 3.0161,-1.87157 5.30356,-4.15903 z m 17.84801,-16.17749 c -2.40507,-0.88969 -4.04003,-3.30028 -4.04003,-5.95664 0,-4.14074 -0.53925,-3.9471 -7.48625,2.68828 -4.13934,3.95364 -8.75389,6.68726 -10.32165,6.11445 -2.44517,-0.89338 -2.44662,-0.61978 -0.01,1.98809 1.55369,1.66323 3.89798,2.61227 5.20956,2.10897 1.31157,-0.5033 3.54075,0.9361 4.95376,3.19865 2.52732,4.0469 2.67603,4.01007 9.15209,-2.26678 6.21459,-6.02342 6.35691,-6.46417 2.54301,-7.87502 z m -16.64578,-3.96748 c 6.61675,-6.21612 6.18838,-12.07718 -0.82325,-11.26353 -5.76196,0.66861 -10.99984,8.05646 -9.14285,12.8957 1.48637,3.8734 4.65871,3.35386 9.9661,-1.63217 z m 20.59109,-3.64468 c 4.75673,-4.75673 4.97656,-5.98901 1.0684,-5.98901 -1.60835,0 -3.85422,1.73765 -4.99084,3.86143 -3.87205,7.235 -2.12993,8.17994 3.92244,2.12758 z m 66.85781,-73.54757 c -1.53638,-1.54423 -8.68144,2.05606 -9.78433,4.93019 -2.28117,5.94462 1.07293,6.65989 5.74982,1.22616 2.59182,-3.01123 4.40735,-5.7816 4.03451,-6.15635 z m -2.97511,-14.29114 c 2.19596,-2.19597 3.99266,-5.36838 3.99266,-7.04981 0,-7.2891 -12.49343,-4.75372 -14.96615,3.03716 -2.62782,8.27952 4.20727,10.77887 10.97349,4.01265 z m 23.74166,-9.67132 c -3.03806,-1.0905 -7.77099,3.80066 -7.77099,8.03075 0,3.33662 0.65628,3.10063 4.84361,-1.7417 2.66396,-3.08068 3.98129,-5.91075 2.92738,-6.28905 z m 33.24837,-95.17805 c 2.07914,-3.27095 8.07395,-10.9578 13.3218,-17.08189 10.10554,-11.7929 11.12147,-13.81947 6.9278,-13.81947 -6.78674,0 -31.24224,36 -31.30444,46.08205 -0.0407,6.60598 2.87749,5.65845 5.03052,-1.63335 1.23423,-4.1801 3.94518,-10.2764 6.02432,-13.54734 z m -26.21674,9.3002 c 0.58516,-0.94681 -6.28013,-7.90902 -15.25619,-15.47159 -22.44281,-18.90866 -23.50244,-19.63552 -23.50244,-16.12151 0,2.12411 34.89938,33.31456 37.27607,33.31456 0.23026,0 0.89741,-0.77466 1.48256,-1.72146 z m 7.95347,-3.9411 c 1.13758,-1.84064 -32.88269,-31.85068 -37.09448,-32.72186 -6.44854,-1.33384 -1.30351,5.09628 15.33656,19.16726 18.29408,15.46965 19.94046,16.4953 21.75792,13.5546 z m 10.01559,-14.64578 c 3.92174,-4.58168 6.91139,-8.49951 6.64364,-8.70629 -0.26774,-0.20678 -8.40776,-7.23834 -18.08892,-15.62568 -9.68116,-8.38734 -18.25777,-15.24972 -19.0591,-15.24972 -3.27814,0 -16.96527,16.04077 -15.14663,17.75124 7.36112,6.92331 35.94018,30.16079 37.09381,30.16079 0.78472,0 4.63544,-3.74866 8.5572,-8.33034 z m -132.8217,-6.90308 c 2.55624,-1.79047 5.94795,-6.36727 7.53712,-10.17067 3.95957,-9.47656 2.64767,-11.16044 -31.5906,-40.54888 l -28.43408,-24.406398 -3.36924,7.93321 c -3.48624,8.208698 -12.15955,16.547128 -17.21167,16.547128 -1.5904,0 -2.5922,0.8071 -2.22619,1.79356 0.36598,0.98646 14.06778,13.11419 30.44843,26.95051 31.34616,26.47734 35.45116,28.4821 44.84623,21.90154 z m 145.613,-5.4716 c -1.16497,-4.94168 -36.15296,-33.42289 -38.35434,-31.22151 -2.33585,2.33585 -3.58529,0.99147 18.37139,19.76731 16.39198,14.01728 21.24263,16.79768 19.98295,11.4542 z m -63.54556,-9.33981 c 0.008,-1.70188 1.09359,-4.17234 2.41117,-5.48992 1.86324,-1.86325 1.47394,-2.39561 -1.7519,-2.39561 -6.51204,0 -9.67921,-5.09073 -6.9262,-11.13289 2.94321,-6.45967 2.90706,-8.24988 -0.10581,-5.23705 -3.5395,3.53951 -11.16969,2.90812 -13.26893,-1.09798 -3.74075,-7.13871 5.66026,-19.309 14.00265,-18.12743 5.36496,0.75986 7.57311,9.9167 3.55802,14.75457 -2.76013,3.32577 0.23363,3.93814 3.46334,0.70842 1.19096,-1.19094 4.29026,-1.86471 6.88736,-1.49725 3.39702,0.48064 4.89277,2.14137 5.33059,5.91853 0.55661,4.80229 1.02386,5.05787 5.47432,2.9945 8.46822,-3.92612 5.91642,-9.30948 -13.56916,-28.626044 l -18.46609,-18.305924 -5.989,4.86018 c -5.60413,4.54784 -5.70487,4.86081 -1.56748,4.87009 8.94419,0.0201 9.51305,10.954228 0.96955,18.636438 -6.04084,5.43187 -13.08557,3.66236 -14.54722,-3.654 -1.05906,-5.30117 -1.3754,-5.530454 -2.75435,-1.99634 -0.85682,2.19597 -3.91473,5.99991 -6.79534,8.45321 l -5.23746,4.46054 19.64463,19.71861 c 18.24991,18.31866 19.98458,19.56104 24.43315,17.49914 2.63375,-1.22071 4.7956,-3.61192 4.80416,-5.31379 z m 68.81955,2.20868 c 1.30814,-2.1166 -33.77045,-33.05205 -37.47864,-33.05205 -5.63709,0 -1.25715,5.69942 15.24473,19.83728 17.79616,15.24676 20.12327,16.62987 22.23391,13.21477 z m -4.71808,-17.73866 c -19.61745,-21.94344 -68.36935,-69.515718 -66.839,-65.221758 1.82269,5.11428 75.10087,80.465048 77.18189,79.364898 0.85942,-0.45435 -3.79487,-6.81876 -10.34289,-14.14314 z m -57.09342,1.64959 c 3.57268,-3.94777 3.53854,-3.97062 -2.68876,-1.79976 -7.48356,2.60878 -10.08594,5.79829 -4.73093,5.79829 2.09058,0 5.42945,-1.79934 7.41969,-3.99853 z m -1.00348,-4.98497 c 2.74496,-1.56916 4.09249,-2.85302 2.99451,-2.85302 -1.09799,0 -4.24221,1.28386 -6.98717,2.85302 -2.74496,1.56916 -4.09249,2.85302 -2.99451,2.85302 1.09799,0 4.24222,-1.28386 6.98717,-2.85302 z m -2.29422,-3.1898 c 6.39412,-2.229 8.55593,-5.79371 3.51355,-5.79371 -2.65832,0 -13.46825,7.78223 -10.99981,7.91892 0.65963,0.0365 4.02845,-0.91981 7.48626,-2.12521 z m -77.83372,-11.46577 10.10215,-11.66107 -6.91011,-6.697568 c -8.20062,-7.94835 -8.66809,-11.33378 -1.9193,-13.89966 2.74496,-1.04363 4.99084,-3.15728 4.99084,-4.69699 0,-1.53971 1.37745,-3.94265 3.06098,-5.33986 1.68355,-1.39722 2.80648,-3.18102 2.49541,-3.964 -0.31104,-0.78298 -8.10677,-7.89764 -17.3238,-15.81035 -13.51048,-11.598569 -17.21292,-13.876134 -19.10426,-11.752033 -1.29031,1.449091 -10.21788,10.947423 -19.83901,21.107413 -9.62116,10.15998 -17.16139,19.46756 -16.75608,20.6835 0.78989,2.36962 47.62689,43.335278 49.80132,43.558348 0.71484,0.0733 5.84568,-5.11414 11.40186,-11.52773 z m 67.26616,6.83345 c 5.80311,-4.24333 2.15692,-5.91496 -4.9197,-2.25549 -3.39599,1.75613 -6.17453,3.61907 -6.17453,4.13987 0,2.05273 7.43755,0.78945 11.09423,-1.88438 z m 31.50968,-19.86276 C 411.0583,90.413402 399.07335,78.548112 395.23041,75.429842 c -6.75875,-5.48424 29.83705,33.445778 39.92668,42.473348 9.69258,8.67232 6.13725,4.36476 -13.29345,-16.10604 z m -29.51021,11.60407 c 3.65391,-2.92738 3.59021,-2.96893 -1.11569,-0.72775 -6.11084,2.91028 -7.24338,3.83238 -4.70696,3.83238 1.07114,0 3.69132,-1.39708 5.82265,-3.10463 z m 15.16018,-19.523668 c -11.06288,-11.0629 -20.77701,-19.45171 -21.58692,-18.6418 -1.94954,1.94955 37.42594,41.398478 39.83519,39.909478 1.02636,-0.63432 -7.18536,-10.20477 -18.24827,-21.267678 z m -49.73771,9.718898 c 0.72316,-3.782994 4.4e-4,-4.990014 -3.26722,-5.456634 -10.45177,-1.492484 -2.94974,-21.560664 8.05996,-21.560664 4.75367,0 8.80346,5.2144 7.29946,9.39861 -0.59387,1.65218 1.06245,1.44901 5.2606,-0.6453 3.37005,-1.6812 6.09235,-4.11387 6.04955,-5.40594 -0.15192,-4.58675 -21.17673,-26.01981 -24.08757,-24.55533 -1.53183,0.77067 -5.031,2.70027 -7.77596,4.28799 -4.6953,2.71584 -4.73934,2.88852 -0.74351,2.91621 7.46862,0.0517 9.87013,5.17586 6.11567,13.04907 -5.0232,10.53376 -19.19937,12.36436 -19.47305,2.5146 l -0.12652,-4.55441 -1.81621,4.52079 c -0.99893,2.48644 -4.22502,5.43662 -7.16912,6.55596 l -5.35289,2.03517 5.76977,6.42021 c 19.75267,21.979478 18.64321,21.166538 24.73779,18.126148 3.16385,-1.57834 5.99376,-4.89755 6.51925,-7.64648 z m 34.0716,3.47462 c -3.02896,-1.02351 -10.59143,2.94901 -10.59143,5.56362 0,1.08755 2.91964,0.46195 6.48808,-1.39021 3.56845,-1.85217 5.41496,-3.7302 4.10335,-4.17341 z m -141.15169,-3.34176 c 4.49644,-4.496444 6.78754,-8.679858 6.78754,-12.393668 v -5.60612 l -9.13709,8.90007 c -5.02541,4.895054 -9.99794,10.472198 -11.05009,12.393678 -3.49983,6.39156 6.06553,4.04017 13.39964,-3.29396 z m 124.70249,4.72097 c 6.11498,-3.27263 4.48615,-5.80775 -2.12757,-3.31135 -3.29395,1.24333 -5.989,2.96199 -5.989,3.81926 0,2.16653 3.53237,1.94548 8.11657,-0.50791 z M 243.44816,92.050752 c 7.29562,-8.01921 9.42265,-11.47893 7.05726,-11.47893 -8.55561,0 -20.97075,12.98225 -20.97075,21.928678 0,3.84171 2.87821,1.68003 13.91349,-10.449748 z m 131.81891,9.482598 c 2.74495,-1.569164 4.09248,-2.853034 2.9945,-2.853034 -1.09799,0 -4.24221,1.28387 -6.98717,2.853034 -2.74496,1.56916 -4.09249,2.85302 -2.9945,2.85302 1.09798,0 4.24221,-1.28386 6.98717,-2.85302 z m -1.0921,-3.314954 c 2.79663,-1.274234 5.08476,-3.070934 5.08476,-3.992674 0,-3.09129 -5.33422,-1.71564 -8.9835,2.31678 -4.1414,4.576208 -3.2797,4.946618 3.89874,1.675894 z m -18.87125,-6.503454 c 0,-1.55718 0.61737,-4.47682 1.37194,-6.48809 1.20771,-3.21909 0.96872,-3.32887 -1.99633,-0.917 -3.64716,2.96671 -4.62147,10.23631 -1.37194,10.23631 1.09798,0 1.99633,-1.27405 1.99633,-2.83122 z m 3.36005,-1.53576 c -0.63727,-1.59254 -1.11032,-1.11949 -1.2061,1.20612 -0.0866,2.10447 0.38513,3.28355 1.04851,2.62019 0.66336,-0.66337 0.73427,-2.3852 0.15751,-3.82631 z m 8.61796,-5.99625 c 0,-1.98611 -0.89835,-3.61111 -1.99634,-3.61111 -1.09798,0 -2.00859,1.12294 -2.02358,2.49542 -0.016,1.37248 -0.53085,4.74129 -1.14634,7.48625 -1.08009,4.81695 -1.00958,4.85582 2.02359,1.1157 1.72847,-2.13133 3.14267,-5.50015 3.14267,-7.48626 z m -25.95235,-6.44233 c 0,-1.55718 0.52252,-4.47682 1.16115,-6.48809 1.06251,-3.3463 0.89298,-3.32776 -1.99633,0.21828 -3.56178,4.37134 -4.16521,9.10103 -1.16115,9.10103 1.09798,0 1.99633,-1.27405 1.99633,-2.83122 z m 11.97801,-6.39672 c 0,-2.61052 -0.89835,-4.7464 -1.99634,-4.7464 -1.09798,0 -1.99633,1.72323 -1.99633,3.8294 0,2.10616 -0.61737,5.47498 -1.37194,7.48625 -1.2077,3.21909 -0.96872,3.32887 1.99633,0.917 1.85256,-1.50692 3.36828,-4.87573 3.36828,-7.48625 z m 19.81851,-11.87969 c -6.88901,-6.9508 -13.35865,-12.122886 -14.37698,-11.493524 -1.01833,0.629361 3.78495,6.831314 10.67398,13.782114 6.88901,6.95079 13.35865,12.12288 14.37698,11.49351 1.01833,-0.62936 -3.78495,-6.83131 -10.67398,-13.7821 z m 17.55688,5.05641 c -0.16869,-2.24027 -2.13422,-5.60908 -4.36768,-7.48625 -4.04134,-3.39662 -4.04258,-3.39143 -0.25787,1.07871 8.01195,9.46299 -0.16969,3.63401 -27.40759,-19.526322 -26.46598,-22.504031 -28.32627,-23.720137 -29.51061,-19.291719 -2.15279,8.049562 -7.70933,14.875975 -14.87742,18.277457 l -6.87061,3.260321 15.39787,13.085733 15.39786,13.08574 4.06676,-4.88506 c 2.23669,-2.68678 5.63884,-5.44516 7.56031,-6.12974 1.92148,-0.68457 3.49359,-2.48117 3.49359,-3.99243 0,-1.511264 1.64424,-4.235777 3.65389,-6.054475 3.45214,-3.124146 4.47173,-2.595287 18.46609,9.578355 8.1467,7.08679 14.98095,12.92733 15.18721,12.97898 0.20626,0.0516 0.23695,-1.73903 0.0683,-3.9793 z M 319.56692,30.452346 c 3.1855,-3.41007 5.79179,-7.379172 5.79179,-8.82023 0,-1.441056 0.54528,-4.041102 1.21175,-5.777879 2.42,-6.30641 -2.5451,-2.901903 -12.86336,8.820229 -10.25678,11.652303 -10.3992,11.978005 -5.23772,11.978005 3.36131,0 7.42832,-2.272215 11.09754,-6.200125 z m -3.82345,-16.258635 c 5.7372,-7.2087266 5.79643,-7.4862526 1.59802,-7.4862526 -6.3599,0 -17.93513,12.3357656 -17.93513,19.1135306 v 5.538458 l 5.18951,-4.839741 c 2.85422,-2.661859 7.87063,-8.208555 11.1476,-12.325995 z"
       id="path74" />
  </g>
</svg>
