<?xml version="1.0" encoding="UTF-8" standalone="no"?>
<!-- Created with Inkscape (http://www.inkscape.org/) -->

<svg
   xmlns:dc="http://purl.org/dc/elements/1.1/"
   xmlns:cc="http://creativecommons.org/ns#"
   xmlns:rdf="http://www.w3.org/1999/02/22-rdf-syntax-ns#"
   xmlns:svg="http://www.w3.org/2000/svg"
   xmlns="http://www.w3.org/2000/svg"
   xmlns:sodipodi="http://sodipodi.sourceforge.net/DTD/sodipodi-0.dtd"
   xmlns:inkscape="http://www.inkscape.org/namespaces/inkscape"
   width="500"
   height="500"
   viewBox="0 0 132.29166 132.29167"
   version="1.1"
   id="svg8"
   inkscape:version="0.92.4 (5da689c313, 2019-01-14)"
   sodipodi:docname="icon.svg">
  <defs
     id="defs2" />
  <sodipodi:namedview
     id="base"
     pagecolor="#ffffff"
     bordercolor="#666666"
     borderopacity="1.0"
     inkscape:pageopacity="0.0"
     inkscape:pageshadow="2"
     inkscape:zoom="1.3898629"
     inkscape:cx="74.932264"
     inkscape:cy="269.77243"
     inkscape:document-units="mm"
     inkscape:current-layer="layer1"
     showgrid="false"
     units="px"
     inkscape:window-width="1920"
     inkscape:window-height="1017"
     inkscape:window-x="-8"
     inkscape:window-y="-8"
     inkscape:window-maximized="1" />
  <metadata
     id="metadata5">
    <rdf:RDF>
      <cc:Work
         rdf:about="">
        <dc:format>image/svg+xml</dc:format>
        <dc:type
           rdf:resource="http://purl.org/dc/dcmitype/StillImage" />
        <dc:title></dc:title>
      </cc:Work>
    </rdf:RDF>
  </metadata>
  <g
     inkscape:label="Ebene 1"
     inkscape:groupmode="layer"
     id="layer1"
     transform="translate(0,-164.70832)">
    <path
       style="fill:#000000;stroke-width:0.52479398"
       d="m 56.0178,292.94384 c -3.700823,-1.55297 -7.225041,-4.25698 -6.713262,-5.15084 0.193276,-0.33758 0.162333,-0.44288 -0.06876,-0.234 -1.095314,0.98999 -5.77892,-3.55733 -5.204833,-5.05337 0.175323,-0.45689 0.546282,-0.6901 0.824351,-0.51824 0.278069,0.17186 0.358921,0.69466 0.17967,1.16177 -0.179251,0.46712 -0.164,0.68741 0.03389,0.48951 0.197891,-0.19789 0.819677,0.22483 1.381745,0.93939 0.562068,0.71455 1.220278,1.17661 1.46269,1.02679 0.242412,-0.14982 0.906922,0.32024 1.476689,1.04459 1.922909,2.44458 1.655156,1.33944 -0.379037,-1.56447 -11.573073,-16.52111 -13.480382,-53.12536 -4.265341,-81.85856 3.874149,-12.07989 8.396342,-20.20171 14.85852,-26.68578 3.945349,-3.95872 7.743246,-6.03344 12.112198,-6.61669 l 2.699068,-0.36033 -2.099176,-0.37759 c -4.66609,-0.83933 -11.550133,2.38683 -16.25193,7.61637 -11.959389,13.30172 -19.377589,37.94804 -19.321795,64.19497 0.03609,16.98089 2.936253,30.96403 8.086815,38.99067 0.610667,0.95167 0.981403,1.8592 0.823858,2.01675 -0.157545,0.15755 -0.668152,-0.45169 -1.134683,-1.35387 -0.466531,-0.90216 -1.050127,-1.51553 -1.296882,-1.36303 -0.672508,0.41564 -4.510711,-11.72832 -5.882089,-18.61075 -1.069931,-5.36957 -1.20332,-7.5688 -1.209547,-19.94217 -0.0061,-12.09283 0.147572,-14.79703 1.177885,-20.72936 4.714789,-27.14677 15.667101,-46.67834 28.581542,-50.97029 l 2.228474,-0.7406 -2.263174,0.2262 c -11.213158,1.12073 -22.688143,17.79927 -28.138779,40.89886 -2.556776,10.83552 -3.43774,18.588 -3.443067,30.29897 -0.0064,13.97034 1.927556,25.81335 5.715028,34.99806 1.716386,4.16228 3.197078,6.63598 3.210314,5.36329 0.007,-0.67083 0.07514,-0.66893 0.516757,0.0144 0.661785,1.02403 0.664978,1.72296 0.006,1.3157 -0.308152,-0.19045 -0.378478,0.045 -0.173214,0.57991 0.2181,0.56836 0.140207,0.77362 -0.211168,0.55646 -0.935825,-0.57838 -4.684157,-8.75471 -6.130152,-13.37186 -2.98359,-9.52679 -3.710934,-15.41862 -3.705232,-30.01415 0.0056,-14.39731 0.677609,-20.2713 3.669128,-32.07277 4.57714,-18.05671 13.484961,-32.73544 22.699059,-37.40457 4.413103,-2.23629 7.294915,-2.63913 11.487636,-1.6058 7.673322,1.89114 13.144294,5.63891 17.252419,11.81841 13.804795,20.7654 13.531895,64.83597 -0.580769,93.78615 -2.556429,5.24417 -3.064419,5.95584 -4.44891,6.23274 -1.066475,0.2133 -2.148296,1.10999 -3.405666,2.82288 -2.626788,3.57839 -7.755128,8.17375 -10.920417,9.78545 -4.000432,2.03695 -9.00525,2.19605 -13.235861,0.42077 z m 11.446607,-0.25121 c 3.562165,-1.33277 8.260536,-5.12096 11.557019,-9.31816 l 2.576088,-3.27996 -1.49189,0.0224 c -1.158493,0.0174 -1.945443,0.61033 -3.521504,2.65351 -5.400787,7.00146 -13.219283,9.97512 -19.150647,7.28369 -2.822347,-1.28067 -6.321285,-1.45514 -5.334379,-0.26599 0.352419,0.42464 2.072155,1.48735 3.82164,2.36157 3.8477,1.92272 7.408349,2.09021 11.543673,0.54298 z m 0.684358,-3.96794 c 2.777855,-1.32058 9.594971,-7.69566 8.588148,-8.03127 -0.319725,-0.10657 -1.681335,0.96583 -3.025804,2.38312 -3.387992,3.57151 -5.969175,5.41546 -9.162185,6.54531 -2.080194,0.73609 -2.292116,0.89417 -0.891814,0.66524 1.010229,-0.16516 3.031473,-0.86824 4.491655,-1.5624 z m -1.665355,-0.48726 c 2.035717,-0.98126 8.194374,-6.31297 8.194374,-7.09408 0,-1.2672 -9.13893,2.06824 -14.893716,5.43577 -2.99839,1.75457 -3.443336,2.18328 -2.62397,2.52817 1.640994,0.69074 7.152506,0.17652 9.323312,-0.86986 z m -10.518242,-1.16338 c 0.820573,-0.41767 1.627444,-0.62391 1.793048,-0.45831 0.165599,0.1656 0.07071,0.30109 -0.210862,0.30109 -0.281578,0 -0.970371,0.36567 -1.530651,0.8126 -0.902667,0.72004 -0.824866,0.71873 0.683056,-0.0115 0.93596,-0.45325 1.644432,-1.09144 1.574382,-1.41821 -0.332803,-1.5524 12.033631,-6.9566 17.274292,-7.54895 6.04971,-0.68379 5.78036,-0.54096 7.787251,-4.12962 5.248171,-9.38461 9.504182,-24.4621 10.84957,-38.43608 0.710959,-7.38442 -0.151151,-22.86591 -1.685607,-30.26965 -1.608572,-7.76133 -4.897944,-15.92588 -7.992739,-19.83877 -0.580542,-0.734 -1.109997,-0.78979 -3.453385,-0.36387 -1.522244,0.27668 -3.63856,0.43064 -4.702926,0.34213 l -1.93521,-0.16093 -0.158624,-2.75517 c -0.115838,-2.01205 -0.368253,-2.75517 -0.935833,-2.75517 -0.941874,0 -5.287568,2.22714 -6.875573,3.52369 l -1.147714,0.93706 4.452378,4.88727 4.452379,4.88727 -0.361048,4.55902 c -0.198577,2.50746 -0.504888,6.21213 -0.680694,8.23258 l -0.319652,3.67356 -10.364682,0.14229 c -6.931269,0.0952 -10.364682,-0.0389 -10.364682,-0.40469 0,-0.96204 4.286418,-13.30653 5.347767,-15.40108 0.562642,-1.11035 0.891488,-2.15032 0.73077,-2.31104 -0.812402,-0.8124 -5.645684,12.24829 -7.678825,20.75004 -4.222812,17.65803 -4.298626,40.24312 -0.182846,54.46955 1.644596,5.68463 4.433061,11.87306 6.528988,14.48974 1.580323,1.97297 1.97585,2.84764 1.020782,2.25738 -0.934065,-0.57729 -4.132695,-5.92246 -5.571657,-9.3107 -6.420537,-15.11808 -7.468897,-40.49261 -2.53141,-61.27033 6.113516,-25.72662 18.650613,-41.58624 29.145564,-36.86958 4.457706,2.0034 8.417686,7.27618 11.534537,15.35845 1.083238,2.80892 1.479982,4.574 1.256924,5.5919 -0.214505,0.97888 -0.160115,1.25316 0.159091,0.80225 0.607355,-0.85793 2.059465,5.58928 2.760878,12.25799 0.643434,6.11752 0.632188,19.63256 -0.02162,25.94993 -1.243505,12.01566 -5.421946,26.90418 -9.999572,35.63025 -1.42237,2.71139 -2.586132,5.01392 -2.586132,5.11674 0,0.10282 0.679219,0.18694 1.509375,0.18694 1.331214,0 1.727323,-0.41814 3.355727,-3.54236 13.836357,-26.54607 15.179477,-69.59216 2.879954,-92.30078 -0.857676,-1.58354 -2.892145,-4.31972 -4.521037,-6.08041 -11.031616,-11.92424 -24.811253,-6.18948 -34.949928,14.54535 -7.270942,14.86996 -10.782385,31.36793 -10.782385,50.65935 0,19.64567 3.927643,35.37027 11.174779,44.73904 1.636709,2.11585 2.077798,2.1605 5.273803,0.53373 z m -0.188579,-7.11074 C 52.774454,275.05295 48.986,262.05788 48.968391,256.60998 l -0.0055,-1.70558 h 10.23347 10.233483 l -0.001,1.44318 c -0.0042,4.5906 -1.169,15.65088 -1.718428,16.31512 -1.322843,1.59904 -9.838344,9.00619 -10.354028,9.00619 -0.295338,0 -1.006224,-0.76751 -1.57975,-1.70558 z m 7.498918,-3.80475 c 4.454299,-4.1978 4.454929,-4.19877 4.768378,-7.34712 0.842394,-8.46116 0.977649,-13.38225 0.367807,-13.38225 -0.339993,0 -0.472168,0.23625 -0.293717,0.52498 0.178446,0.28874 0.06625,3.89014 -0.24933,8.00311 l -0.573783,7.47813 -5.098836,4.91943 c -2.804362,2.70569 -4.71107,4.71303 -4.237124,4.46075 0.473947,-0.25227 2.866415,-2.34794 5.316605,-4.65703 z m -6.804794,2.24306 C 54.646487,276.0268 51.41085,265.39858 50.759568,259.64201 l -0.354865,-3.13659 8.594179,-0.15846 8.594184,-0.15846 -9.052697,-0.11726 c -5.444867,-0.0705 -9.052697,0.0813 -9.052697,0.3809 0,1.62762 2.298873,11.9754 3.341471,15.04077 1.451888,4.26873 3.427071,8.30552 3.854641,7.87795 0.165316,-0.16532 0.06943,-0.60147 -0.213071,-0.96924 z m 5.603199,-3.05451 c 4.581362,-4.13673 4.378272,-3.60304 5.033304,-13.22679 l 0.34827,-5.11674 h -8.264325 -8.264325 l 0.351121,2.75516 c 0.762699,5.98472 5.147907,19.28618 6.358244,19.28618 0.188349,0 2.185316,-1.66401 4.437711,-3.69781 z m -5.139418,-5.94857 c -1.557048,-4.53698 -1.482013,-5.72417 0.465356,-7.36277 1.952029,-1.64252 2.558051,-1.68028 4.349708,-0.27096 1.580632,1.24333 1.828282,3.4223 0.642563,5.65368 -0.407109,0.76612 -1.126665,2.27854 -1.599006,3.36093 -1.321914,3.0292 -2.488389,2.61176 -3.858621,-1.38088 z m 3.007626,1.64328 c -0.02766,-0.789 -0.140855,-0.9196 -0.341085,-0.3936 -0.164811,0.43296 -0.55944,0.96069 -0.876957,1.17275 -0.356093,0.23782 -0.225393,0.38864 0.341085,0.3936 0.617011,0.005 0.904792,-0.37945 0.876957,-1.17275 z m -1.401751,-0.74116 c -0.360796,-0.14558 -0.674638,-0.77638 -0.697425,-1.40175 -0.02278,-0.62538 -0.163143,-0.83407 -0.311901,-0.46375 -0.383057,0.95358 0.196268,2.22071 0.992858,2.17163 0.526704,-0.0324 0.530273,-0.0988 0.01648,-0.30613 z m 1.965217,-2.26974 c 0.357149,-0.86224 0.841796,-1.44878 1.076993,-1.30343 0.235192,0.14536 0.598512,-0.0122 0.807369,-0.35015 0.254557,-0.41188 0.150606,-0.47282 -0.315317,-0.18486 -0.479352,0.29625 -0.608299,0.19927 -0.4155,-0.31252 0.9184,-2.43782 0.929237,-2.99024 0.07231,-3.68555 -0.648997,-0.5266 -0.786309,-0.54138 -0.492671,-0.0531 0.310594,0.51652 0.06709,0.59169 -1.027122,0.31706 -0.911011,-0.22865 -1.315275,-0.16749 -1.10815,0.16765 0.352714,0.5707 -0.729233,3.2882 -1.311843,3.29492 -0.195313,0.002 -0.456078,-0.2911 -0.579478,-0.6519 -0.123394,-0.36079 -0.131245,-0.10485 -0.01742,0.56877 0.149719,0.88619 0.01978,1.11681 -0.47011,0.83425 -0.395443,-0.22809 -0.495138,-0.19181 -0.2397,0.0872 0.240534,0.26276 0.712849,0.47774 1.049588,0.47774 0.336745,0 0.687727,0.53135 0.779959,1.18079 0.237622,1.6731 1.424648,1.46348 2.191115,-0.38693 z m -2.791589,-4.55033 c -0.189918,-0.18992 -0.05217,-0.72128 0.306133,-1.18079 0.575458,-0.73803 0.544999,-0.75203 -0.261174,-0.12002 -0.820998,0.64364 -0.832292,1.64612 -0.01852,1.64612 0.175391,0 0.163505,-0.15539 -0.0264,-0.34531 z m 2.65222,-2.07093 c -0.17439,-0.17439 -0.627024,-0.19303 -1.005857,-0.0414 -0.418644,0.16753 -0.294294,0.29188 0.317064,0.31706 0.553217,0.0228 0.863176,-0.10125 0.688793,-0.27563 z m -1.486994,-7.95928 -10.288222,-0.14204 -0.300622,-5.03884 c -0.165341,-2.77137 -0.164791,-7.1354 0.0012,-9.69785 l 0.30186,-4.65901 h 11.20539 11.20539 l 0.0021,1.44318 c 0.0052,3.14939 -1.233025,17.72802 -1.52639,17.9742 -0.17198,0.14432 -4.942389,0.19848 -10.600912,0.12036 z m 10.728952,-5.7619 c 0.184853,-2.81421 0.491165,-6.94696 0.680684,-9.18389 0.255428,-3.01479 0.180854,-4.06716 -0.288186,-4.06716 -0.348027,0 -0.509879,0.19885 -0.359672,0.44189 0.150201,0.24303 -0.02236,4.37579 -0.383457,9.18389 -0.361105,4.80811 -0.50556,8.74201 -0.321016,8.74201 0.184549,0 0.486788,-2.30253 0.671647,-5.11674 z m -19.965763,-1.87706 c -0.168113,-3.55796 -0.143916,-7.33118 0.05377,-8.38495 l 0.359432,-1.91594 9.555915,-0.15555 9.555916,-0.15555 -10.102284,-0.1186 -10.102285,-0.1186 v 8.30923 c 0,7.20298 0.168886,9.00897 0.84246,9.00897 0.0785,0 0.0052,-2.91105 -0.162926,-6.46901 z m 18.392063,3.71384 c 0.164003,-1.2267 0.455185,-4.76906 0.647066,-7.87191 l 0.348883,-5.64153 h -9.208818 -9.208821 l -0.36184,2.89607 c -0.199012,1.59284 -0.193965,5.13519 0.01121,7.87191 l 0.373053,4.97584 h 8.550537 8.550537 z m -11.012052,-3.09455 c 0.185436,-1.77416 0.337159,-3.89957 0.337159,-4.72314 0,-0.82357 0.188737,-1.4974 0.419416,-1.4974 0.230678,0 0.363656,0.88559 0.295511,1.96798 l -0.123909,1.96797 0.360487,-1.79506 c 0.198261,-0.98728 0.714716,-1.91128 1.147671,-2.05332 0.673054,-0.22081 0.68345,-0.13258 0.07171,0.60853 -0.472011,0.57182 -0.600464,1.47984 -0.37749,2.66838 0.196325,1.04653 0.111283,1.94172 -0.202917,2.1359 -0.775346,0.47919 -0.666882,1.1613 0.239999,1.5093 0.429497,0.16481 0.746236,0.13104 0.70388,-0.075 -0.04235,-0.20609 0.09267,-0.75895 0.300077,-1.22858 0.207409,-0.46963 0.30394,-2.00465 0.214515,-3.41116 -0.117685,-1.85102 -0.379993,-2.55729 -0.949778,-2.55729 -0.432955,0 -0.937906,-0.20737 -1.122114,-0.46083 -0.751846,-1.03449 -1.383976,0.37843 -1.727071,3.86035 -0.199726,2.02686 -0.584993,3.6852 -0.856149,3.6852 -0.569113,0 -0.641933,-2.9654 -0.15929,-6.48668 l 0.333732,-2.43482 h 3.152191 3.152191 l -0.337154,3.22575 c -0.185436,1.77416 -0.33716,3.75011 -0.33716,4.39101 0,0.77704 -0.695624,1.62561 -2.087924,2.54699 -1.148359,0.75994 -2.244707,1.38172 -2.436335,1.38172 -0.191623,0 -0.196688,-1.45159 -0.01123,-3.22575 z m 1.699257,1.57028 c 0.222628,-0.36021 0.144896,-0.464 -0.191707,-0.25597 -0.311387,0.19245 -0.674717,-0.0663 -0.807401,-0.57491 -0.183578,-0.70377 -0.255785,-0.6426 -0.302113,0.25598 -0.06473,1.25545 0.67785,1.58354 1.301221,0.5749 z m 2.836254,-8.84041 c 0,-0.28864 -0.368174,-0.52479 -0.818164,-0.52479 -0.44999,0 -0.672208,0.23615 -0.493821,0.52479 0.178388,0.28864 0.546563,0.52479 0.818165,0.52479 0.271602,0 0.49382,-0.23615 0.49382,-0.52479 z m -13.11985,-6.99337 c 0,-1.429 2.438874,-16.57629 2.950991,-18.32794 0.244142,-0.83507 1.220115,-0.91839 10.757211,-0.91839 h 10.488706 l -0.36046,5.90393 c -0.198256,3.24717 -0.479703,6.02201 -0.625439,6.16633 -0.14574,0.14432 -0.110107,-2.39437 0.07919,-5.64153 0.204685,-3.51124 0.147619,-5.90394 -0.140813,-5.90394 -0.266737,0 -0.389287,0.41328 -0.272332,0.91839 0.116961,0.50512 -0.08487,4.63787 -0.448509,9.1839 -0.363641,4.54603 -0.492714,8.2655 -0.286821,8.2655 0.205887,0 0.458181,-1.47598 0.560658,-3.27996 l 0.186323,-3.27996 0.101117,3.54236 0.101117,3.54236 H 59.983552 c -6.350007,0 -11.545468,-0.077 -11.545468,-0.17105 z m 2.430421,-7.29734 c 0.385524,-2.96399 1.024508,-6.62889 1.419964,-8.14423 0.631713,-2.42066 0.423016,-3.62551 -0.397911,-2.29722 -0.399887,0.64703 -2.402658,13.13296 -2.402783,14.97974 -2.03e-4,3.02662 0.693218,0.74743 1.38073,-4.53829 z m 18.817145,2.08925 c 0.189944,-2.09262 0.387214,-5.69402 0.438371,-8.00311 l 0.09301,-4.19835 h -8.396704 -8.396704 l -0.908162,3.67356 c -0.49949,2.02045 -1.065683,5.62185 -1.258208,8.00311 l -0.350046,4.32955 h 9.21654 9.216543 z m -13.162836,0.45363 c -0.153471,-0.39993 -0.2051,-1.75783 -0.11473,-3.01756 l 0.164307,-2.29042 2.352951,-0.16736 c 2.418193,-0.172 3.263405,-0.7825 2.790288,-2.01542 -0.333895,-0.87011 -1.833992,-0.91654 -2.667958,-0.0826 -0.849322,0.84932 -1.517185,0.0574 -0.847265,-1.00469 1.097093,-1.73926 2.087468,-1.94395 3.733763,-0.77168 1.473354,1.04912 1.568053,1.33295 1.633867,4.89707 0.03873,2.09654 -0.188485,4.09471 -0.50958,4.4816 -0.804541,0.96941 -6.161643,0.94567 -6.535643,-0.029 z m 6.290958,-0.62775 c 0.518864,-1.35214 0.362926,-4.41783 -0.224712,-4.41783 -0.360171,0 -0.345015,-0.37042 0.04498,-1.0991 0.486652,-0.90932 0.38343,-1.3171 -0.597808,-2.36157 -1.337595,-1.42381 -2.183259,-1.5826 -3.025265,-0.56804 -0.459588,0.55377 -0.280534,0.65102 0.883984,0.4801 1.899177,-0.27874 3.018049,0.94769 2.221836,2.43542 -0.401226,0.7497 -1.205436,1.09953 -2.791584,1.21433 l -2.228013,0.16126 -0.159951,2.49277 -0.159952,2.49277 h 2.858972 c 2.122892,0 2.940988,-0.21372 3.177518,-0.83011 z m -3.879808,-1.50049 c 0,-0.70455 0.256735,-1.43968 0.57052,-1.63361 0.878605,-0.54301 1.673982,0.58042 1.283027,1.81221 -0.488751,1.53991 -1.853547,1.40841 -1.853547,-0.1786 z m 1.566348,-0.94936 c 0.0044,-0.21648 -0.228123,-0.3936 -0.51676,-0.3936 -0.288636,0 -0.521178,0.53136 -0.516759,1.18079 0.0065,0.95483 0.105389,1.03015 0.516759,0.3936 0.2798,-0.43296 0.512341,-0.96431 0.51676,-1.18079 z m 3.943989,59.22676 c 4.165983,-1.97609 11.550858,-3.95903 14.825431,-3.98084 0.938069,-0.006 1.70558,-0.21284 1.70558,-0.45911 0,-0.77528 -5.331429,-0.0681 -9.962673,1.3215 -4.23312,1.27013 -11.553881,4.57238 -11.553881,5.21172 0,0.16474 0.177118,0.20923 0.393596,0.0989 0.216478,-0.11037 2.282854,-1.09683 4.591947,-2.19212 z m 18.761386,-4.33975 c -0.360796,-0.14559 -0.951189,-0.14559 -1.311985,0 -0.360796,0.14558 -0.0656,0.2647 0.655992,0.2647 0.721592,0 1.016789,-0.11912 0.655993,-0.2647 z M 72.97276,203.21219 c 0.361101,-4.04091 0.546893,-7.81943 0.412877,-8.3967 -0.134017,-0.57728 -2.195901,-2.93885 -4.581961,-5.24794 -4.320571,-4.1812 -3.596408,-3.0175 1.391491,2.23608 l 2.621262,2.76088 -0.164229,3.27425 c -0.09033,1.80084 -0.320958,5.28159 -0.512508,7.735 l -0.348274,4.46075 -9.70869,0.2864 -9.708689,0.28639 9.971086,-0.024 9.971086,-0.024 z m -17.708349,1.83678 c 1.315133,-4.49538 6.1693,-14.83697 7.882537,-16.79341 l 1.1489,-1.31198 -1.148638,1.83678 c -2.822221,4.513 -8.411598,17.84177 -8.411598,20.05881 0,0.22448 3.637253,0.40815 8.082778,0.40815 h 8.082783 l 0.294971,-3.01756 c 0.162234,-1.65966 0.439362,-4.82256 0.61584,-7.02866 l 0.320875,-4.01109 -4.22467,-4.48508 -4.224676,-4.48508 -1.319364,1.67385 c -0.725653,0.92061 -1.321987,1.38865 -1.325189,1.04007 -0.01023,-1.11309 5.688547,-6.23966 8.539616,-7.68217 8.138327,-4.11762 16.22037,1.53866 20.880661,14.61347 0.514398,1.44319 0.952523,2.33417 0.973609,1.97996 0.0211,-0.3542 -0.520407,-2.12848 -1.203321,-3.94282 -3.096348,-8.22623 -6.875925,-13.57726 -11.000197,-15.57378 -4.450783,-2.15459 -7.843235,-1.25097 -12.907975,3.4382 -3.750188,3.47211 -8.319218,10.12891 -7.671501,11.17694 0.182612,0.29548 -0.360949,2.1364 -1.207924,4.09094 -1.770791,4.08641 -4.280698,11.28346 -4.280698,12.27472 0,1.51823 1.012942,-0.53361 2.103181,-4.26026 z m 5.316724,0.86421 c -0.551616,-0.67667 0.164104,-6.16799 1.009898,-7.74838 0.640375,-1.19655 2.984519,-1.85229 4.101921,-1.14745 1.00019,0.6309 1.735573,3.86494 1.527975,6.71963 -0.140262,1.9287 -0.280518,2.10535 -1.72704,2.17514 -1.549994,0.0748 -1.551605,0.0722 -0.103977,-0.16868 1.394257,-0.23198 1.462202,-0.3714 1.311985,-2.69204 l -0.158419,-2.44739 -2.230375,0.16343 c -2.01968,0.148 -2.235318,0.0481 -2.282686,-1.05748 -0.05202,-1.21401 -0.05469,-1.21349 -0.472483,0.0911 -0.231093,0.72159 -0.443713,2.29923 -0.472482,3.50586 -0.04513,1.89161 0.110369,2.21846 1.128475,2.37233 l 1.180786,0.17846 -1.161489,0.32866 c -0.639205,0.18087 -1.382098,0.058 -1.652089,-0.27316 z m 5.175151,-6.06923 c 0,-0.26503 0.135156,-0.83409 0.300351,-1.26457 0.189723,-0.49442 -0.10022,-0.90984 -0.787191,-1.12788 -1.334384,-0.42351 -3.186718,0.10862 -3.186718,0.91547 0,0.42301 0.181579,0.41281 0.629753,-0.0354 0.762384,-0.76239 2.336236,-0.82526 2.777693,-0.11097 0.184418,0.29839 -0.02818,0.38492 -0.500507,0.20368 -0.839224,-0.32204 -2.382145,0.61128 -2.382145,1.44097 0,0.25329 0.708472,0.46053 1.574382,0.46053 0.865911,0 1.574382,-0.21684 1.574382,-0.48187 z m -2.62397,3.63064 c 0,-1.04959 0.262397,-1.57438 0.787191,-1.57438 0.823948,0 1.008334,0.91225 0.468647,2.31865 -0.525959,1.37062 -1.255838,0.93806 -1.255838,-0.74427 z m -4.191435,-10.75828 c 0,-0.28864 0.469203,-1.23326 1.042671,-2.09918 0.573469,-0.86591 1.042672,-1.33822 1.042672,-1.04958 0,0.28863 -0.469203,1.23326 -1.042672,2.09917 -0.573468,0.86591 -1.042671,1.33823 -1.042671,1.04959 z m 23.482795,-8.2655 c -0.258021,-0.79287 -3.778905,-2.80279 -5.777914,-3.29837 -1.398256,-0.34664 -1.443184,-0.29066 -1.443184,1.79829 v 2.15607 h 3.71729 c 2.737829,0 3.661041,-0.17285 3.503808,-0.65599 z M 46.57215,284.05962 c -0.495116,-0.75564 -0.782132,-1.49197 -0.637814,-1.63629 0.144318,-0.14432 0.667492,0.35585 1.162608,1.1115 0.495116,0.75564 0.782133,1.49197 0.637815,1.63629 -0.144319,0.14432 -0.667493,-0.35586 -1.162609,-1.1115 z"
       id="path3882"
       inkscape:connector-curvature="0" />
  </g>
</svg>
