<?xml version="1.0" encoding="UTF-8" standalone="no"?>
<svg
   xmlns:dc="http://purl.org/dc/elements/1.1/"
   xmlns:cc="http://creativecommons.org/ns#"
   xmlns:rdf="http://www.w3.org/1999/02/22-rdf-syntax-ns#"
   xmlns:svg="http://www.w3.org/2000/svg"
   xmlns="http://www.w3.org/2000/svg"
   id="svg8"
   version="1.1"
   viewBox="0 0 500 500"
   height="500mm"
   width="500mm">
  <defs
     id="defs2" />
  <metadata
     id="metadata5">
    <rdf:RDF>
      <cc:Work
         rdf:about="">
        <dc:format>image/svg+xml</dc:format>
        <dc:type
           rdf:resource="http://purl.org/dc/dcmitype/StillImage" />
        <dc:title></dc:title>
      </cc:Work>
    </rdf:RDF>
  </metadata>
  <g
     transform="translate(0,203)"
     id="layer1">
    <path
       id="path129"
       d="M 15.053526,230.09622 C 3.7333193,225.52795 3.8801019,227.00644 3.8801019,117.5504 V 16.379133 L 56.591156,-36.331935 109.30222,-89.042988 h 44.83235 44.83234 l 23.76202,-23.829622 c 13.0691,-13.10629 25.49014,-24.28154 27.60234,-24.83388 8.69871,-2.27477 2.85634,6.82146 -17.50149,27.24882 l -21.34182,21.414682 h 93.79073 93.7907 l 24.01759,-23.837242 c 13.20968,-13.11049 25.79742,-24.13896 27.97275,-24.50772 9.04895,-1.53395 4.64824,5.94392 -15.6178,26.53838 l -21.45881,21.806582 h 33.87184 c 35.17525,0 44.01654,1.78435 46.9694,9.47938 0.7126,1.857 1.29563,49.011149 1.29563,104.786992 V 126.63402 l -49.53685,49.79139 c -27.24527,27.38525 -52.07137,51.12958 -55.16912,52.7652 -4.75804,2.51221 -34.0572,2.95329 -188.76149,2.8416 -100.72107,-0.0728 -185.140621,-0.94391 -187.599004,-1.93599 z m 380.088014,-6.91259 5.03338,-5.85217 V 118.49037 19.649271 L 395.14169,13.797116 390.10846,7.9449589 211.07317,7.3219149 C 112.60376,6.9792419 27.981213,7.2815449 23.02305,7.9937029 4.9377396,10.591355 5.9658572,3.9552349 5.9658572,118.09172 c 0,105.98277 -0.1403355,104.34408 9.3859308,109.59708 2.970854,1.63819 57.503324,2.16307 189.463952,1.82362 l 185.29242,-0.47664 z M 81.557793,219.57858 c -4.740537,-1.9049 -7.595774,-6.84578 -9.696058,-16.77869 -1.609944,-7.61391 -9.167224,-10.26495 -29.26211,-10.26495 -14.019467,0 -18.356368,-0.77416 -22.323796,-3.98493 l -4.924041,-3.98494 -0.606849,-64.85461 -0.606838,-64.854639 5.205006,-5.205013 c 2.862743,-2.862753 7.448677,-5.205006 10.190949,-5.205006 6.203876,0 10.985957,-5.232061 12.86567,-14.076306 C 45.292764,16.757449 38.91443,17.33089 187.42718,17.33089 c 148.1966,0 142.03548,-0.546003 144.70955,12.824328 2.44007,12.200315 6.16519,14.290584 25.46756,14.290584 34.36677,0 34.22759,-0.308017 34.22759,75.752098 0,36.21284 -0.84096,59.52657 -2.29797,63.70616 -1.88756,5.41465 -3.94827,7.00747 -11.53866,8.91875 -9.81727,2.47204 -15.36404,8.12855 -15.36404,15.66807 0,2.5294 -2.47307,6.54422 -5.4957,8.92182 -5.43318,4.27375 -7.00462,4.32141 -138.18174,4.1907 -74.22718,-0.074 -134.761155,-0.96605 -137.395977,-2.02482 z m 272.649187,-2.58781 c 3.22378,-1.63134 5.65381,-5.14301 6.53276,-9.44059 1.86279,-9.10805 7.20843,-14.64981 15.66096,-16.23552 12.39316,-2.32498 12.30254,-1.80022 12.30254,-71.2397 V 56.599185 l -5.85215,-5.033807 c -5.21895,-4.489147 -7.8205,-5.033813 -24.04363,-5.033813 -20.81345,0 -26.17665,-2.43427 -28.25465,-12.824327 -0.73884,-3.694182 -2.88555,-8.420817 -4.77048,-10.50364 -3.24382,-3.584366 -10.64097,-3.786945 -138.27977,-3.786945 -104.690542,0 -135.607944,0.583145 -138.229589,2.607203 -1.857331,1.433962 -4.415083,6.580261 -5.6839,11.436223 -2.316653,8.866191 -6.868727,13.071486 -14.149414,13.071486 -2.153434,0 -5.969519,1.913749 -8.48017,4.252775 -4.498821,4.191288 -4.564811,5.152116 -4.564811,66.46312 0,76.63505 -1.260022,73.18488 26.744854,73.23246 22.006497,0.0373 27.625445,2.48515 31.184341,13.58466 5.3516,16.69058 -4.779356,15.58905 143.056479,15.55453 100.90517,-0.0236 132.89349,-0.63804 136.82663,-2.62834 z M 85.224832,188.36341 C 82.930486,186.06907 81.0533,182.784 81.0533,181.06324 c 0,-3.85248 7.354435,-11.47169 11.073039,-11.47169 9.293621,0 14.035581,14.67655 6.518009,20.17352 -5.226318,3.82157 -8.54268,3.47519 -13.419516,-1.40166 z m 13.982567,-3.49719 c 2.707631,-4.08497 2.575801,-4.97357 -1.31511,-8.86449 -5.184742,-5.18475 -7.15768,-5.36471 -11.475596,-1.04679 -4.189048,4.18905 -4.15631,8.06031 0.104201,12.32079 4.274569,4.27459 8.829536,3.40947 12.686537,-2.40951 z M 83.898453,77.464277 c -4.908496,-2.376727 -9.10244,-10.021005 -9.10244,-16.590968 0,-6.140193 11.102329,-16.427507 17.728983,-16.427507 6.724954,0 17.728974,10.321437 17.728974,16.629242 0,6.044143 -5.35612,15.950848 -9.47938,17.533086 -4.789825,1.838036 -11.682747,1.370826 -16.876137,-1.143853 z m 19.150157,-4.765884 c 2.81578,-2.81578 5.11961,-7.551399 5.11961,-10.52361 0,-6.954161 -8.689071,-15.643218 -15.643224,-15.643218 -6.954163,0 -15.643217,8.689057 -15.643217,15.643218 0,6.954161 8.689054,15.643218 15.643217,15.643218 2.972206,0 7.707834,-2.303829 10.523614,-5.119608 z m 332.58428,8.941726 c 0,-72.3844381 -0.66786,-102.019526 -2.32219,-103.041951 -1.33222,-0.823357 -9.50037,5.742988 -19.16014,15.4027539 -16.00613,16.0061211 -16.71572,17.1061921 -14.3639,22.2678601 1.79532,3.940305 2.47403,32.139741 2.47403,102.792228 v 97.36233 l 16.68609,-16.58824 16.68611,-16.58823 z m 55.23279,47.047241 c 2.72414,-4.15756 3.16855,-19.01691 3.16855,-105.945585 0,-55.610366 -0.75803,-101.578253 -1.68452,-102.150853 -0.9265,-0.57261 -14.53057,11.17645 -30.23127,26.109 -24.38699,23.193862 -28.2446,27.714661 -26.47327,31.024434 1.2909,2.412089 2.07347,41.382685 2.07347,103.255827 V 180.3617 l 24.98925,-23.41926 c 13.74407,-12.88058 26.41508,-25.59537 28.15779,-28.25508 z M 413.78132,-7.7633991 c 13.45673,-13.5490099 16.03906,-17.1314059 13.50852,-18.7399249 -1.92282,-1.222224 -74.88321,-2.000991 -189.30579,-2.020619 L 51.806915,-28.555883 35.143673,-12.63592 c -9.164781,8.7559809 -16.663315,16.4993729 -16.66342,17.2075389 -9.4e-5,0.708167 82.017637,1.042798 182.261657,0.743627 111.26389,-0.332062 184.18441,0.2258 187.19735,1.432111 2.71451,1.086837 5.89612,2.035559 7.0702,2.108274 1.17407,0.07271 9.62141,-7.40585 18.77186,-16.61903 z M 460.691,-54.684788 c 22.55468,-22.62352 27.50883,-28.6104 25.00018,-30.21162 -1.93137,-1.23275 -73.6074,-2.00916 -187.30074,-2.02888 -155.75767,-0.0271 -185.04106,0.42837 -189.80437,2.95165 -3.09775,1.64097 -16.880706,14.31197 -30.628811,28.15779 l -24.996535,25.174202 185.600226,0.03194 c 116.22529,0.02 186.76969,0.787692 188.72889,2.053823 1.72075,1.112037 3.61097,2.036257 4.20049,2.053823 0.58954,0.01752 13.72985,-12.664658 29.20067,-28.182728 z M 230.67114,-110.38479 c 11.77807,-11.73799 21.41466,-22.06251 21.41466,-22.94339 0,-5.00315 -7.75131,0.87185 -28.15779,21.3418 -16.39369,16.444692 -21.71082,22.943392 -18.7719,22.943392 2.41421,0 12.90647,-8.77617 25.51503,-21.341802 z m 201.83311,-1.60159 c 12.57972,-12.61886 21.46434,-22.94338 19.74359,-22.94338 -1.72075,0 -13.42116,10.32452 -26.00088,22.94338 -12.57974,12.618872 -21.46435,22.943392 -19.7436,22.943392 1.72076,0 13.42115,-10.32452 26.00089,-22.943392 z"
       style="fill:#000000;stroke-width:2.08576226" />
  </g>
</svg>
