<?xml version="1.0" encoding="UTF-8" standalone="no"?>
<!-- Created with Inkscape (http://www.inkscape.org/) -->

<svg
   xmlns:dc="http://purl.org/dc/elements/1.1/"
   xmlns:cc="http://creativecommons.org/ns#"
   xmlns:rdf="http://www.w3.org/1999/02/22-rdf-syntax-ns#"
   xmlns:svg="http://www.w3.org/2000/svg"
   xmlns="http://www.w3.org/2000/svg"
   xmlns:sodipodi="http://sodipodi.sourceforge.net/DTD/sodipodi-0.dtd"
   xmlns:inkscape="http://www.inkscape.org/namespaces/inkscape"
   width="500"
   height="500"
   viewBox="0 0 132.29166 132.29167"
   version="1.1"
   id="svg8"
   inkscape:version="0.92.4 5da689c313, 2019-01-14"
   sodipodi:docname="icon.svg">
  <defs
     id="defs2" />
  <sodipodi:namedview
     id="base"
     pagecolor="#ffffff"
     bordercolor="#666666"
     borderopacity="1.0"
     inkscape:pageopacity="0.0"
     inkscape:pageshadow="2"
     inkscape:zoom="0.42657054"
     inkscape:cx="322.0882"
     inkscape:cy="275.94377"
     inkscape:document-units="mm"
     inkscape:current-layer="layer1"
     showgrid="false"
     units="px"
     inkscape:window-width="1920"
     inkscape:window-height="1003"
     inkscape:window-x="0"
     inkscape:window-y="0"
     inkscape:window-maximized="1" />
  <metadata
     id="metadata5">
    <rdf:RDF>
      <cc:Work
         rdf:about="">
        <dc:format>image/svg+xml</dc:format>
        <dc:type
           rdf:resource="http://purl.org/dc/dcmitype/StillImage" />
        <dc:title></dc:title>
      </cc:Work>
    </rdf:RDF>
  </metadata>
  <g
     inkscape:label="Layer 1"
     inkscape:groupmode="layer"
     id="layer1"
     transform="translate(0,-164.70832)">
    <path
       style="fill:#000000;stroke-width:0.59615147"
       d="M 61.002619,292.27116 V 287.5128 H 35.309619 9.6166082 V 273.53513 259.55748 H 5.1352732 0.65393831 v -24.65463 -24.65462 l 3.61500719,-7.85607 c 3.1095231,-6.75756 4.2477188,-8.54982 8.1398375,-12.81742 l 4.52483,-4.96134 h 22.034508 22.034498 v -9.51671 -9.5167 h 2.98756 2.98756 v 5.81559 c 0,6.69554 0.74754,8.45947 3.58507,8.45947 2.83753,0 3.58507,-1.76393 3.58507,-8.45947 v -5.81559 h 2.98756 2.98756 v 9.50947 9.50946 l 22.159351,0.15594 22.15936,0.15594 3.53366,7.59525 3.53364,7.59525 -0.008,24.82103 -0.008,24.82104 -4.47264,4.92587 -4.47265,4.92587 v 9.24359 9.24357 l -4.33196,4.71494 -4.33196,4.71496 -16.879709,3.1e-4 -16.879713,3.2e-4 v 4.75836 4.75834 h -2.98756 -2.98756 v -4.75834 -4.75836 h -3.58507 -3.58507 v 4.75836 4.75834 h -2.987561 -2.98756 z m 5.37761,1.26393 c 0,-1.26765 -0.168049,-3.14125 -0.373441,-4.16355 -0.322665,-1.60595 -0.627395,-1.85874 -2.240678,-1.85874 h -1.867216 v 4.16356 4.16357 h 2.240668 c 2.203721,0 2.240667,-0.038 2.240667,-2.30484 z m 13.14526,0.90086 c 0,-0.77218 -0.170994,-2.64578 -0.379969,-4.16356 -0.359486,-2.61078 -0.480321,-2.75966 -2.240668,-2.76093 l -1.860698,-10e-4 0.198404,4.1649 0.198415,4.1649 h 2.042253 c 1.747864,-1.5e-4 2.042263,-0.20254 2.042263,-1.40412 z m 33.460661,-9.90042 v -2.37588 H 61.898894 10.811638 v 2.37564 2.37564 l 51.087256,2.4e-4 51.087256,2.3e-4 z m 8.94377,-16.20484 0.0189,-8.77321 h -3.88382 -3.88383 v 13.1119 13.11192 l 3.86492,-4.3387 3.86492,-4.3387 z m -8.94377,1.93308 v -11.30109 h 4.48134 4.48133 v -4.16356 -4.16356 H 61.898894 1.8489582 v 4.16356 4.16356 h 4.4813349 4.4813449 v 11.30109 11.30108 h 51.087256 51.087256 z m -90.821792,-3.86616 v -11.59849 h 39.734536 39.734526 v 11.59849 11.59849 H 61.898894 22.164358 Z m 1.79253,0 c 0,-6.54274 -0.221927,-10.4089 -0.59751,-10.4089 -0.375572,0 -0.59751,3.86616 -0.59751,10.4089 0,6.54273 0.221938,10.4089 0.59751,10.4089 0.375583,0 0.59751,-3.86617 0.59751,-10.4089 z m 13.14526,0 c 0,-10.01237 -0.04554,-10.4089 -1.195019,-10.4089 -1.149498,0 -1.19502,0.39653 -1.19502,10.4089 0,10.01237 0.04554,10.4089 1.19502,10.4089 1.149497,0 1.195019,-0.39653 1.195019,-10.4089 z m 12.547751,0 c 0,-10.01237 -0.04554,-10.4089 -1.19502,-10.4089 -1.149498,0 -1.19503,0.39653 -1.19503,10.4089 0,10.01237 0.04554,10.4089 1.19503,10.4089 1.149498,0 1.19502,-0.39653 1.19502,-10.4089 z m 13.14526,0 c 0,-10.01237 -0.04554,-10.4089 -1.19502,-10.4089 -1.149508,0 -1.19503,0.39653 -1.19503,10.4089 0,10.01237 0.04554,10.4089 1.19503,10.4089 1.149498,0 1.19502,-0.39653 1.19502,-10.4089 z m 12.54775,0 c 0,-10.01237 -0.04554,-10.4089 -1.19503,-10.4089 -1.149498,0 -1.19502,0.39653 -1.19502,10.4089 0,10.01237 0.04554,10.4089 1.19502,10.4089 1.149498,0 1.19503,-0.39653 1.19503,-10.4089 z m 13.145261,0 c 0,-10.01237 -0.04554,-10.4089 -1.195031,-10.4089 -1.149497,0 -1.195019,0.39653 -1.195019,10.4089 0,10.01237 0.04554,10.4089 1.195019,10.4089 1.149498,0 1.195031,-0.39653 1.195031,-10.4089 z m 11.95023,0 c 0,-8.85583 -0.13372,-10.4089 -0.896265,-10.4089 -0.76254,0 -0.896265,1.55307 -0.896265,10.4089 0,8.85583 0.133725,10.4089 0.896265,10.4089 0.762545,0 0.896265,-1.55307 0.896265,-10.4089 z m 29.84794,-20.49285 0.0277,-3.83862 -3.85541,4.13601 -3.85541,4.13601 -0.0232,3.86616 -0.0232,3.86616 3.85095,-4.16355 3.85095,-4.16356 0.0277,-3.83861 z M 23.359378,242.75453 v -6.98883 h 39.137026 39.137016 v 6.98883 6.98884 h 10.1577 10.1577 V 229.96646 210.18955 H 61.898894 1.8489582 v 19.77691 19.77691 h 10.7552098 10.75521 z m -15.6249334,2.52789 c -0.049303,-0.65428 -0.1165104,-1.50186 -0.1493723,-1.88353 -0.032904,-0.38165 0.2763492,-0.80544 0.6871333,-0.94175 0.5048783,-0.16753 0.7468927,0.44279 0.7468927,1.88352 0,2.21179 -1.1267265,3.03778 -1.2846537,0.94176 z m 6.4991034,-0.42309 c 0.582687,-0.88698 0.723327,-1.4065 0.312532,-1.1545 -0.480456,0.29476 -0.746892,0.11189 -0.746892,-0.5127 0,-0.60419 0.394959,-0.89553 1.045647,-0.77132 0.712631,0.13603 1.076672,0.81291 1.143043,2.1254 0.0845,1.6707 -0.09537,1.92578 -1.35818,1.92578 -1.445005,0 -1.447877,-0.0118 -0.39615,-1.61266 z m -6.4094696,-5.11552 c 0,-1.12202 0.8586607,-4.01514 1.9081418,-6.42914 2.1935988,-5.04569 2.1641948,-4.9945 2.6126978,-4.54804 0.186037,0.1852 -0.486159,2.26526 -1.493785,4.62237 -1.0076148,2.3571 -1.8320347,5.04479 -1.8320347,5.97264 0,0.92786 -0.2688806,1.85242 -0.59751,2.0546 -0.3539809,0.21779 -0.5975099,-0.46386 -0.5975099,-1.67243 z m 6.7154006,-0.46892 c 0.339629,-2.79177 4.021112,-11.37354 4.423309,-10.31103 0.131814,0.34819 -0.572764,2.41666 -1.565703,4.59659 -0.992949,2.17994 -1.805357,4.75657 -1.805357,5.72586 0,0.96928 -0.308386,1.95206 -0.685316,2.18395 -0.492448,0.30297 -0.595713,-0.31485 -0.366933,-2.19537 z M 7.6533344,226.41883 c -0.1705246,-0.888 -0.1722377,-2.45992 -0.00418,-3.49315 0.1732613,-1.06281 0.018175,-2.05583 -0.3571146,-2.28672 -0.8252975,-0.50775 -0.8837302,-4.50147 -0.065807,-4.50147 0.3286399,0 0.5975204,0.80298 0.5975204,1.78438 0,1.40491 0.2616417,1.78439 1.2302842,1.78439 0.6766564,0 1.0713656,0.25597 0.8771286,0.56882 -0.1942362,0.31284 -0.8150816,0.40728 -1.379667,0.20986 -0.8371636,-0.29276 -0.8887441,-0.21117 -0.2796186,0.44233 0.4107946,0.4407 0.7468926,1.26908 0.7468926,1.84083 0,0.8347 0.6181505,1.07498 3.136933,1.21933 3.059081,0.17532 3.141591,0.22777 3.32418,2.11286 0.105166,1.08584 -0.0913,1.93309 -0.448138,1.93309 -0.349458,0 -0.635365,-0.66915 -0.635365,-1.48699 0,-1.36582 -0.219096,-1.48698 -2.688805,-1.48698 -2.4697187,0 -2.688805,0.12116 -2.688805,1.48698 0,1.99074 -0.9764872,1.89953 -1.3657638,-0.12756 z m 73.4086106,0.67987 c -1.276725,-1.27092 -1.181555,-3.42075 0.206802,-4.67148 1.549858,-1.39622 3.702939,-0.97769 4.773854,0.92797 0.789156,1.40425 0.774271,1.72882 -0.143178,3.12266 -1.169647,1.77699 -3.38981,2.06193 -4.837478,0.62085 z m 3.83471,-0.54458 c 0.431038,-0.51701 0.576901,-1.52104 0.351077,-2.41668 -0.313797,-1.24461 -0.690842,-1.49727 -2.008639,-1.34602 -1.168708,0.13414 -1.676897,0.56955 -1.817558,1.55723 -0.361,2.53493 1.968089,4.01306 3.47512,2.20547 z m 3.591515,-1.79211 c 0,-2.0778 1.332191,-2.97177 1.994318,-1.33829 0.241106,0.5948 0.310809,0.5948 0.348549,0 0.05735,-0.90332 1.655661,-0.99571 1.951314,-0.1128 0.289103,0.86337 4.250831,0.91397 4.53748,0.0579 0.317233,-0.94736 1.326039,-0.86971 1.326039,0.10209 0,0.43747 0.600602,0.76963 1.344392,0.74349 0.937678,-0.0329 1.399568,0.33787 1.526738,1.22569 0.17357,1.21179 -0.0557,1.2738 -4.774206,1.29098 -3.152204,0.0115 -5.118486,-0.23538 -5.401416,-0.67813 -0.330718,-0.51754 -0.447208,-0.5054 -0.454018,0.0472 -0.0052,0.40898 -0.546912,0.74355 -1.20417,0.74355 -0.9674,0 -1.19502,-0.39653 -1.19502,-2.08179 z m 5.785772,0.18587 c -0.190747,-0.47449 -0.332327,-0.33354 -0.361,0.35936 -0.0259,0.627 0.115278,0.97831 0.313828,0.78066 0.19855,-0.19764 0.219776,-0.71066 0.04711,-1.14002 z m 2.98755,0 c -0.190737,-0.47449 -0.332317,-0.33354 -0.36099,0.35936 -0.02591,0.627 0.115278,0.97831 0.313828,0.78066 0.19855,-0.19764 0.219765,-0.71066 0.04711,-1.14002 z m -60.756854,18.25275 v -6.84013 h -5.97512 -5.97511 v 6.5212 6.5212 l 5.825738,0.19445 c 3.20416,0.10692 5.892955,0.25046 5.97512,0.31894 0.0821,0.0684 0.149372,-2.95358 0.149372,-6.71566 z m -6.57263,4.75836 c 0,-0.49071 -0.243706,-0.8922 -0.541584,-0.8922 -0.30029,0 -0.242954,-0.9686 0.128711,-2.17408 l 0.670295,-2.1741 0.734139,1.79098 c 0.751112,1.8324 0.483099,4.34158 -0.463733,4.34158 -0.290305,0 -0.527828,-0.40148 -0.527828,-0.89218 z m -0.796676,-6.04708 c -0.632325,-0.62944 -0.461895,-4.36182 0.199166,-4.36182 0.32863,0 0.59751,0.80296 0.59751,1.78438 0,1.18959 0.298755,1.78438 0.896265,1.78438 0.49295,0 0.896276,0.26766 0.896276,0.5948 0,0.66448 -1.969385,0.81528 -2.589217,0.19826 z m 19.917057,1.14002 v -6.69143 h -5.97512 -5.975121 v 6.69143 6.69144 h 5.975121 5.97512 z m -6.763994,4.1033 c -0.389506,-1.9387 0.07761,-4.25199 0.858567,-4.25199 0.290294,0 0.527817,0.40148 0.527817,0.89218 0,0.49071 0.243717,0.8922 0.541584,0.8922 0.304677,0 0.260827,0.91065 -0.100278,2.08178 -0.778251,2.52423 -1.372867,2.64975 -1.827721,0.38583 z m -0.406146,-5.70388 c 0,-0.4714 0.297585,-1.04016 0.661301,-1.26394 0.470627,-0.28953 0.448556,-0.53774 -0.07657,-0.86079 -0.883908,-0.54381 -0.254654,-1.77653 0.906846,-1.77653 0.567959,0 0.813316,0.73836 0.790566,2.37917 -0.02664,1.92135 -0.2494,2.37918 -1.157573,2.37918 -0.618526,0 -1.124585,-0.38568 -1.124585,-0.85709 z m 20.3154,1.41239 v -6.50324 h -5.97512 -5.97512 l -10e-4,6.69143 -10e-4,6.69144 5.976415,-0.18821 5.976447,-0.18819 z m -7.031328,4.13532 c -0.294264,-1.10772 -0.311436,-2.10327 -0.03813,-2.21231 0.273268,-0.109 0.496856,-0.57744 0.496856,-1.04088 0,-1.21949 1.177566,-1.03822 1.287955,0.19825 0.344162,3.85506 -0.938267,6.09808 -1.746653,3.05494 z m 0.237293,-6.53609 c -0.387271,-1.92755 -0.09829,-2.91288 0.854179,-2.91288 0.309232,0 0.562246,1.07063 0.562246,2.37917 0,2.82045 -0.889632,3.15567 -1.416425,0.53371 z m 19.341775,2.58896 v -6.69143 h -5.97511 -5.97512 v 6.69143 6.69144 h 5.97512 5.97511 z m -7.322291,-1.09321 c -0.649968,-0.64702 -0.54548,-4.40863 0.122465,-4.40863 0.312302,0 0.841885,0.4684 1.176854,1.04089 0.580035,0.99132 0.609899,0.99132 0.627197,0 0.01045,-0.57249 0.287056,-1.04089 0.615685,-1.04089 0.32863,0 0.59751,1.07063 0.59751,2.37917 0,2.59693 -0.85303,3.16649 -1.558934,1.0409 l -0.44444,-1.3383 -0.345489,1.3851 c -0.190016,0.7618 -0.545898,1.18559 -0.790848,0.94176 z m 20.467551,0.90502 V 236.3605 H 81.91554 75.940419 l -0.001,6.69143 -0.001,6.69144 5.976416,-0.18821 5.976426,-0.18819 v -6.50323 z m -6.922485,4.49461 c 0.540446,-0.82107 0.732697,-1.4233 0.427236,-1.3383 -0.305461,0.085 -0.582269,-0.11315 -0.615142,-0.44024 -0.0329,-0.32713 0.410795,-0.5948 0.985899,-0.5948 0.761391,0 1.072117,0.52551 1.143042,1.93308 0.08544,1.69671 -0.08733,1.93308 -1.413124,1.93308 -1.475453,0 -1.487706,-0.0346 -0.527911,-1.49282 z m -0.09829,-5.44383 c -1.162022,-0.46675 -0.878434,-1.56333 0.298755,-1.15524 0.911787,0.31609 0.902198,0.25175 -0.075,-0.50259 -1.344852,-1.03819 -0.891617,-2.7066 0.735266,-2.7066 0.814486,0 1.221468,0.51212 1.407003,1.77047 0.34528,2.34188 -0.550024,3.32342 -2.366077,2.59396 z m 19.568506,1.13741 v -6.69143 h -5.975118 -5.97511 v 6.69143 6.69144 h 5.97511 5.975118 z m -6.168049,4.84702 c 0.201883,-0.52371 -0.0084,-1.19286 -0.466887,-1.48698 -0.70603,-0.45273 -0.696462,-0.62461 0.06236,-1.12045 1.405321,-0.91834 1.586469,-0.74455 1.538607,1.47613 -0.02611,1.21347 -0.348173,2.08076 -0.772965,2.08178 -0.422368,10e-4 -0.573996,-0.39812 -0.361063,-0.95048 z m -1.073621,-6.5685 c -0.728905,-0.87428 -0.657457,-0.9334 0.673732,-0.55751 l 1.489095,0.42049 -1.493785,-1.19477 c -1.121943,-0.89737 -1.323658,-1.36469 -0.81036,-1.87745 1.222293,-1.22097 2.86615,-0.4041 3.012953,1.49722 0.193588,2.5071 -1.41114,3.46381 -2.871635,1.71202 z m 37.08961,-20.0563 0.0277,-19.5473 -3.85801,4.08265 -3.85801,4.08265 -0.0206,19.62821 -0.0206,19.62822 3.85094,-4.16357 3.85095,-4.16356 0.0277,-19.5473 z m -9.0839,-12.36234 c -0.0824,-0.21371 -1.49429,-3.35378 -3.13744,-6.97793 l -2.98756,-6.58937 -53.220138,-0.0125 -53.220135,-0.0124 -3.1012293,6.69142 c -1.7056745,3.6803 -3.0985761,6.82595 -3.0953484,6.99034 0.00313,0.1644 26.7596957,0.2989 59.4588087,0.2989 32.699102,0 59.385472,-0.17485 59.303042,-0.38855 z m 5.16832,-4.372 4.02598,-4.46016 -3.08304,-6.69224 c -1.69569,-3.68073 -3.16354,-6.77429 -3.26191,-6.87457 -0.20883,-0.21292 -6.14738,5.96664 -7.27769,7.57304 -0.66233,0.94128 -0.33579,2.04972 2.3522,7.98465 1.71671,3.79042 3.14316,6.90015 3.16989,6.91054 0.0267,0.0104 1.86029,-1.98818 4.07457,-4.44126 z m -7.44952,-14.42457 3.64016,-4.01485 -52.677752,-0.15195 -52.677768,-0.15195 -3.346502,3.66135 c -1.84057,2.01373 -3.436126,3.8888 -3.545669,4.1668 -0.109543,0.27801 23.4633,0.50547 52.384099,0.50547 H 115.28105 Z M 78.927979,175.69149 v -8.92192 l -1.941912,-10e-4 -1.941913,-0.001 0.187332,4.31366 c 0.327063,7.53077 -1.743394,10.824 -6.117922,9.73106 -2.294045,-0.57319 -3.330845,-3.45697 -3.330845,-9.26451 v -4.77746 h -1.941912 -1.941913 v 8.9219 8.92192 h 8.514543 8.514542 z"
       id="path4242"
       inkscape:connector-curvature="0" />
  </g>
</svg>
