<?xml version="1.0" encoding="UTF-8" standalone="no"?>
<!-- Created with Inkscape (http://www.inkscape.org/) -->

<svg
   xmlns:dc="http://purl.org/dc/elements/1.1/"
   xmlns:cc="http://creativecommons.org/ns#"
   xmlns:rdf="http://www.w3.org/1999/02/22-rdf-syntax-ns#"
   xmlns:svg="http://www.w3.org/2000/svg"
   xmlns="http://www.w3.org/2000/svg"
   xmlns:sodipodi="http://sodipodi.sourceforge.net/DTD/sodipodi-0.dtd"
   xmlns:inkscape="http://www.inkscape.org/namespaces/inkscape"
   width="500"
   height="500"
   viewBox="0 0 132.29166 132.29167"
   version="1.1"
   id="svg8"
   inkscape:version="0.92.4 (5da689c313, 2019-01-14)"
   sodipodi:docname="icon.svg">
  <defs
     id="defs2" />
  <sodipodi:namedview
     id="base"
     pagecolor="#ffffff"
     bordercolor="#666666"
     borderopacity="1.0"
     inkscape:pageopacity="0.0"
     inkscape:pageshadow="2"
     inkscape:zoom="1.3898629"
     inkscape:cx="83.26618"
     inkscape:cy="269.77243"
     inkscape:document-units="mm"
     inkscape:current-layer="layer1"
     showgrid="false"
     units="px"
     inkscape:window-width="1920"
     inkscape:window-height="1017"
     inkscape:window-x="-8"
     inkscape:window-y="-8"
     inkscape:window-maximized="1" />
  <metadata
     id="metadata5">
    <rdf:RDF>
      <cc:Work
         rdf:about="">
        <dc:format>image/svg+xml</dc:format>
        <dc:type
           rdf:resource="http://purl.org/dc/dcmitype/StillImage" />
        <dc:title></dc:title>
      </cc:Work>
    </rdf:RDF>
  </metadata>
  <g
     inkscape:label="Ebene 1"
     inkscape:groupmode="layer"
     id="layer1"
     transform="translate(0,-164.70832)">
    <path
       style="fill:#000000;stroke-width:0.52586424"
       d="m 48.274666,293.2547 c -10.406835,-0.50193 -21.882855,-1.70855 -24.299737,-2.55497 -1.585913,-0.55539 -2.011829,-1.14841 -2.502852,-3.4848 -0.848819,-4.03886 -2.530808,-10.39062 -3.133856,-11.8345 -1.740768,-4.16794 -2.449552,-10.28736 -3.125325,-26.98313 l -0.686485,-16.96039 -1.680421,-1.51466 -1.680423,-1.51466 -0.30949,-13.20653 c -0.330086,-14.08535 -0.10012,-16.07014 2.103341,-18.15347 2.57503,-2.43463 8.665147,-4.70516 17.435862,-6.50045 l 5.784507,-1.18404 0.03614,-2.82698 c 0.01987,-1.55485 0.205108,-3.30027 0.411628,-3.87872 0.206521,-0.57845 4.923037,-4.12803 10.481146,-7.88796 l 10.105655,-6.83624 26.762185,1.41849 c 14.719199,0.78016 27.050259,1.52902 27.402349,1.66413 0.45345,0.17401 0.75171,3.21101 1.02266,10.41346 0.21038,5.5923 0.53951,10.22933 0.7314,10.30451 0.19189,0.0752 1.60973,0.85961 3.15076,1.74316 4.00432,2.2959 4.20313,3.00479 4.81416,17.16575 0.6976,16.16762 0.7691,14.95926 -0.99167,16.76022 l -1.52653,1.56137 -0.2397,18.9157 c -0.21884,17.26932 -0.3397,19.30474 -1.38861,23.38554 -1.058,4.11618 -5.35974,13.85974 -6.98514,15.8215 -1.26363,1.52513 -3.07443,2.12173 -6.10543,2.01154 -2.4951,-0.0907 -3.70065,0.2184 -7.166626,1.83758 -3.520561,1.64467 -5.029618,2.02433 -9.728489,2.44754 -6.344858,0.57145 -25.491477,0.50762 -38.691012,-0.12899 z m 39.853056,-0.76175 c 4.359757,-0.32547 5.659851,-1.02008 5.598614,-2.9912 l -0.0356,-1.14563 -0.550264,1.13755 c -0.302651,0.62565 -1.055709,1.28696 -1.673468,1.46959 -0.617765,0.18262 -6.44758,0.47064 -12.955151,0.64005 -16.353196,0.4257 -46.138425,-0.98404 -53.050607,-2.51089 -1.267585,-0.28001 -2.443927,-0.36988 -2.614091,-0.19971 -2.781443,2.78144 42.670896,5.28815 65.280558,3.60024 z m 1.242854,-2.10793 2.707817,-0.29633 1.627456,-3.53081 c 4.006086,-8.6913 5.046467,-19.41043 2.73176,-28.14552 -1.008156,-3.80451 -4.391262,-11.56066 -5.282949,-12.11175 -0.202153,-0.12494 -1.856085,0.37408 -3.675402,1.10893 -8.87802,3.586 -21.405858,5.60213 -34.997678,5.63227 -13.692993,0.0303 -23.410969,-2.0302 -29.204421,-6.19238 -2.885618,-2.07311 -2.682299,-2.24722 -3.641797,3.1186 -1.675133,9.36788 -1.166841,21.40454 1.348691,31.93779 l 1.348028,5.64458 1.928142,0.51667 c 8.263129,2.21423 51.871557,3.76671 65.110353,2.31795 z m 9.730945,-1.23607 1.395609,-0.65269 -1.497747,-2.36171 c -0.823767,-1.29893 -1.658981,-3.09577 -1.856038,-3.99297 -0.347292,-1.5812 -0.396334,-1.52701 -1.598191,1.76578 -0.681952,1.86836 -1.243838,4.2876 -1.248633,5.37608 l -0.0087,1.97904 1.709059,-0.73043 c 0.939983,-0.40173 2.337083,-1.02413 3.104671,-1.3831 z m 4.537339,-1.45016 c -2.49174,-4.86194 -3.41298,-8.26591 -4.518592,-16.69619 -0.473609,-3.61129 -0.484578,-3.63122 -0.578708,-1.05173 -0.05277,1.44612 -0.393036,4.16747 -0.756146,6.04744 -0.58821,3.04542 -0.55303,3.74357 0.322634,6.40298 1.12098,3.40442 2.974582,5.69189 4.612282,5.69189 0.61637,0 1.02971,-0.17748 0.91853,-0.39439 z m 5.40078,-0.7888 c 3.24292,-3.42483 7.55292,-15.04537 8.21252,-22.14242 l 0.34693,-3.73275 -1.66365,1.39988 c -1.50605,1.26725 -8.36379,3.77999 -14.045,5.14621 l -2.125851,0.51123 0.387751,4.42247 c 0.3896,4.44346 1.64288,10.16662 2.66027,12.14817 0.99995,1.94757 2.68756,3.4304 3.90417,3.4304 0.66138,0 1.70667,-0.53243 2.32286,-1.18319 z M 17.736846,267.45301 c -0.194066,-1.80766 -0.591327,-3.52329 -0.882802,-3.81251 -0.355404,-0.35266 -0.433421,-0.0929 -0.236867,0.78879 0.161198,0.72307 0.455258,2.4387 0.653467,3.81252 0.526546,3.6496 0.878727,3.05372 0.466202,-0.7888 z m 81.011941,-17.50445 -0.363856,-11.58848 -1.744996,0.20372 -1.744991,0.20372 0.267523,6.91491 c 0.181091,4.68089 0.589804,7.93427 1.265076,10.0701 0.548656,1.73535 1.297376,5.0483 1.663825,7.3621 l 0.66627,4.20692 0.1775,-2.89226 c 0.09763,-1.59074 0.01378,-8.10707 -0.186351,-14.48073 z m 10.223873,14.85919 c 3.01457,-0.98781 5.64136,-2.22553 6.70477,-3.15921 l 1.74839,-1.53511 v -15.25185 c 0,-14.31955 -0.0563,-15.22866 -0.92026,-14.87241 -3.43779,1.41747 -7.41599,2.63363 -11.96342,3.65732 l -5.258638,1.18378 0.02025,2.70464 c 0.01115,1.48754 0.07029,8.75972 0.131466,16.16039 l 0.11122,13.45576 2.234922,-0.35961 c 1.22921,-0.19778 4.46529,-1.09045 7.1913,-1.9837 z M 16.911541,247.30748 c -0.316181,-8.37036 -0.665473,-15.31744 -0.776202,-15.43795 -0.742962,-0.80858 -0.795697,2.0975 -0.270014,14.87983 0.533135,12.96356 0.855081,16.54296 1.435718,15.96232 0.101956,-0.10195 -0.07332,-7.03385 -0.389502,-15.4042 z m 2.733814,-1.22008 c 1.427256,-8.36159 1.378086,-9.31747 -0.530043,-10.3042 -0.853313,-0.44127 -1.640707,-0.8023 -1.749764,-0.8023 -0.302292,0 0.127622,14.06831 0.530307,17.35352 0.262894,2.14475 0.40279,2.48453 0.541292,1.31466 0.102725,-0.86768 0.646419,-4.27044 1.208208,-7.56168 z m 52.030272,4.74331 c 10.92066,-1.96289 20.508707,-5.3448 20.508707,-7.23386 0,-0.70862 -0.275463,-0.66935 -1.859114,0.26503 -7.293943,4.30353 -28.825472,7.97414 -42.23049,7.19928 -12.364645,-0.71472 -20.936473,-3.12753 -25.572794,-7.19828 -2.012646,-1.76712 -2.47069,-1.39253 -0.836933,0.68446 2.225518,2.82929 9.420296,5.70682 17.64997,7.05907 6.389638,1.04991 24.61596,0.61275 32.340654,-0.7757 z m 22.756198,-3.87358 c -0.301436,-3.72803 -1.195762,-4.4212 -1.195762,-0.9268 0,1.74888 0.95752,5.0044 1.352149,4.59725 0.07126,-0.0735 0.0011,-1.72523 -0.156387,-3.67045 z m -27.83387,2.48476 c 7.342322,-0.96249 17.065232,-3.36459 21.286266,-5.25887 1.72129,-0.77247 3.925419,-2.24242 4.898063,-3.26655 l 1.768439,-1.86207 -2.892253,0.36756 c -1.59074,0.20215 -4.667046,0.59895 -6.836236,0.88176 -2.16919,0.28282 -11.16147,0.60947 -19.982843,0.72589 -17.107252,0.22577 -25.491001,-0.32874 -35.543106,-2.35085 -3.369967,-0.67792 -5.363973,-0.86336 -5.697466,-0.52987 -0.827269,0.82727 -1.545594,0.58822 -0.828572,-0.27574 0.530782,-0.63955 0.510188,-0.7888 -0.108841,-0.7888 -0.556791,0 -0.779568,0.70607 -0.822892,2.60807 -0.05286,2.32061 0.125623,2.76443 1.619358,4.02677 3.065238,2.59041 9.509461,4.83818 17.015543,5.9351 5.151885,0.75288 19.660816,0.63492 26.12454,-0.2124 z m 25.895798,-4.33545 c -0.565562,-0.56556 -0.86581,0.22652 -0.468798,1.23674 0.372417,0.94764 0.400546,0.94928 0.584724,0.0341 0.106419,-0.52878 0.05425,-1.10066 -0.115926,-1.27084 z m 1.794038,-3.68102 c 0,-0.64153 -0.147268,-0.66658 -0.788796,-0.13415 -0.433838,0.36005 -0.788797,1.0096 -0.788797,1.44344 0,0.64152 0.147269,0.66657 0.788797,0.13415 0.433838,-0.36005 0.788796,-1.0096 0.788796,-1.44344 z m -20.508707,-1.20171 c 9.378437,-0.53647 15.554734,-1.15933 21.42897,-2.16101 3.009263,-0.51315 3.286652,-0.67178 3.286652,-1.87965 0,-1.20135 -0.152685,-1.2915 -1.709059,-1.00918 -9.05959,1.64339 -16.321445,2.0829 -35.101442,2.12448 -16.386845,0.0363 -20.853937,-0.11735 -26.429316,-0.90896 -6.161655,-0.87485 -15.124032,-2.81742 -17.348886,-3.76033 -0.663901,-0.28136 -0.920263,-0.14636 -0.920263,0.48462 0,2.62567 15.008187,6.07379 30.763061,7.06778 9.915781,0.6256 15.669189,0.63494 26.030283,0.0423 z m 12.23194,-4.43192 c 13.781152,-1.4864 24.144426,-3.75195 30.036826,-6.56646 4.76508,-2.27604 4.9143,-2.71506 4.478,-13.17555 -0.19905,-4.77222 -0.38638,-10.43666 -0.4163,-12.58766 l -0.0544,-3.9109 -1.44613,1.38447 c -4.30352,4.12004 -19.335042,7.74242 -38.869197,9.36692 -9.981572,0.83009 -37.235019,0.35389 -45.293173,-0.7914 -10.918095,-1.55178 -19.023481,-3.95201 -21.785017,-6.45117 -0.893049,-0.8082 -0.934526,-0.27237 -0.934526,12.0727 v 12.91843 l 1.569391,1.32055 c 3.84806,3.23793 15.924991,5.98585 31.56006,7.181 8.290006,0.63369 32.348479,0.18886 41.154476,-0.76093 z M 77.197202,209.7319 c 20.14819,-1.44799 36.166218,-5.06327 40.653458,-9.17552 1.51309,-1.38664 1.77553,-1.92825 1.48852,-3.0718 -0.19204,-0.76513 -1.23081,-1.99106 -2.3141,-2.73104 -2.06525,-1.41072 -9.35219,-3.94712 -11.32689,-3.94259 -0.63582,0.001 -3.91992,1.87993 -7.297993,4.17437 -4.168163,2.83109 -7.269674,4.52004 -9.651161,5.2556 -5.571159,1.72076 -14.795244,2.70087 -25.487238,2.70815 -12.362082,0.008 -19.821941,-0.98467 -24.584156,-3.2728 l -2.234923,-1.07383 v -4.16 c 0,-4.85496 0.451139,-4.64265 -6.573304,-3.09348 -11.820009,2.60679 -17.616453,5.53758 -17.616453,8.90721 0,1.88194 1.627384,3.24635 5.696684,4.77613 5.665486,2.12984 18.727055,4.34179 28.747427,4.86832 7.698425,0.40452 23.760121,0.31567 30.500129,-0.16872 z m 3.943982,-8.61391 c 5.626332,-0.90117 9.852409,-2.06329 11.139099,-3.0631 0.748857,-0.5819 0.826869,-1.51247 0.574696,-6.85558 -0.208742,-4.42294 -0.457922,-6.05149 -0.875611,-5.72263 -1.135993,0.89442 -5.91173,2.18021 -11.364048,3.0596 -7.893297,1.27308 -27.819993,1.2828 -34.614965,0.0169 -2.696997,-0.50246 -5.832463,-1.36232 -6.967702,-1.91081 l -2.06407,-0.99725 v 6.20273 6.20273 l 1.777362,0.84342 c 2.499033,1.18586 7.230168,2.31899 12.158042,2.9119 5.818871,0.70011 24.179314,0.28241 30.237197,-0.68789 z m 22.349236,-10.43404 7.88796,-5.40198 v -6.1334 c 0,-3.37337 -0.15427,-6.28735 -0.34282,-6.47552 -0.18854,-0.18817 -2.2096,1.03478 -4.49123,2.71766 -2.28164,1.68288 -6.2297,4.47961 -8.773471,6.21497 l -4.625035,3.15518 0.304902,4.20691 c 0.167693,2.31381 0.306316,5.10264 0.308051,6.19741 0.0037,2.38267 -0.895994,2.79699 9.731643,-4.48123 z m 8.67676,-1.97911 c 0,-1.44612 -0.1048,-2.62932 -0.23288,-2.62932 -0.12808,0 -1.08707,0.50399 -2.13108,1.11998 -2.92615,1.72646 -2.06623,3.78538 1.70663,4.08625 0.4452,0.0355 0.65733,-0.79607 0.65733,-2.57691 z m -41.543282,-0.006 c 8.95874,-0.60599 15.432624,-1.71694 19.471388,-3.34136 3.765982,-1.51471 21.034024,-13.69731 19.653414,-13.86548 -0.5498,-0.067 -12.569791,-0.72758 -26.711081,-1.46803 l -25.711442,-1.34626 -8.391495,5.67494 c -10.350444,6.99973 -12.269488,8.59567 -11.801701,9.8147 0.800144,2.08515 7.314333,3.79444 17.189124,4.51034 8.042789,0.5831 7.995188,0.58303 16.301793,0.0212 z"
       id="path3854"
       inkscape:connector-curvature="0" />
  </g>
</svg>
