<?xml version="1.0" encoding="UTF-8" standalone="no"?>
<!-- Created with Inkscape (http://www.inkscape.org/) -->

<svg
   xmlns:dc="http://purl.org/dc/elements/1.1/"
   xmlns:cc="http://creativecommons.org/ns#"
   xmlns:rdf="http://www.w3.org/1999/02/22-rdf-syntax-ns#"
   xmlns:svg="http://www.w3.org/2000/svg"
   xmlns="http://www.w3.org/2000/svg"
   xmlns:sodipodi="http://sodipodi.sourceforge.net/DTD/sodipodi-0.dtd"
   xmlns:inkscape="http://www.inkscape.org/namespaces/inkscape"
   width="500"
   height="500"
   viewBox="0 0 132.29166 132.29167"
   version="1.1"
   id="svg8"
   inkscape:version="0.92.4 (5da689c313, 2019-01-14)"
   sodipodi:docname="icon.svg">
  <defs
     id="defs2" />
  <sodipodi:namedview
     id="base"
     pagecolor="#ffffff"
     bordercolor="#666666"
     borderopacity="1.0"
     inkscape:pageopacity="0.0"
     inkscape:pageshadow="2"
     inkscape:zoom="1.3898629"
     inkscape:cx="74.932264"
     inkscape:cy="227.32318"
     inkscape:document-units="mm"
     inkscape:current-layer="layer1"
     showgrid="false"
     units="px"
     inkscape:window-width="1920"
     inkscape:window-height="1017"
     inkscape:window-x="-8"
     inkscape:window-y="-8"
     inkscape:window-maximized="1" />
  <metadata
     id="metadata5">
    <rdf:RDF>
      <cc:Work
         rdf:about="">
        <dc:format>image/svg+xml</dc:format>
        <dc:type
           rdf:resource="http://purl.org/dc/dcmitype/StillImage" />
        <dc:title></dc:title>
      </cc:Work>
    </rdf:RDF>
  </metadata>
  <g
     inkscape:label="Ebene 1"
     inkscape:groupmode="layer"
     id="layer1"
     transform="translate(0,-164.70832)">
    <path
       style="fill:#000000;stroke-width:0.52403259"
       d="m 58.023329,289.80782 v -4.71629 H 55.14115 52.258971 v -4.45428 -4.45428 H 49.376793 46.494614 V 245.11614 214.0493 l 2.882179,-2.84637 2.882178,-2.84638 v -7.44965 -7.44965 l 2.882179,-3.02364 2.882179,-3.02364 v -7.37962 -7.37962 l 2.767652,-2.73327 2.767646,-2.73327 h 11.119215 11.11921 v 60.64158 60.64158 l -2.99678,3.02838 -2.99678,3.02838 H 68.913402 58.023329 Z m 24.327473,1.51751 2.92661,-2.67475 -0.1332,-60.34017 -0.13321,-60.34017 -10.49004,-0.14147 -10.490045,-0.14148 -2.591069,2.63063 -2.591073,2.63063 h 10.442947 10.44296 l 2.63816,-2.48916 2.63816,-2.48915 -2.48915,2.63816 -2.48916,2.63816 v 7.27108 7.27108 l -2.88218,3.02166 -2.88217,3.02167 v 7.52426 7.52427 l -2.88218,2.84638 c -1.5852,1.56551 -2.882183,3.26711 -2.882183,3.78134 0,0.83164 -0.550108,0.93495 -4.978308,0.93495 h -4.978309 v 3.93025 3.93024 h 4.693334 4.693335 l 0.180849,-3.79923 0.180854,-3.79924 0.10412,4.06125 0.104125,4.06125 H 57.761313 47.018646 v 20.43728 20.43727 h 10.474498 10.474493 l 0.143502,-20.30627 0.143495,-20.30626 0.124673,20.56828 0.124672,20.56828 h -4.978308 -4.978309 v 3.93025 3.93024 h 4.693334 4.693335 l 0.180849,-3.79924 0.180854,-3.79923 0.10412,4.06125 c 0.05727,2.23369 0.25653,4.06125 0.442808,4.06125 0.18627,0 1.54221,-1.12012 3.01319,-2.48915 l 2.6745,-2.48916 0.14706,7.06429 c 0.0977,4.69291 0.35863,7.24361 0.77731,7.59848 0.34665,0.29379 0.45202,0.3127 0.23417,0.042 -0.38806,-0.48219 3.6363,-5.01017 4.45291,-5.01017 0.22821,0 0.36422,3.00663 0.30224,6.68141 l -0.11268,6.68142 -0.16597,-6.15738 c -0.0913,-3.38657 -0.32014,-6.15739 -0.50857,-6.15739 -0.18845,0 -0.88841,0.51274 -1.55547,1.13941 -0.97333,0.91439 -1.21285,1.69058 -1.21285,3.93025 v 2.79083 h -7.86049 -7.860488 v -1.5721 c 0,-1.32754 -0.203791,-1.57209 -1.310081,-1.57209 -1.29467,0 -1.310081,0.0524 -1.310081,4.45427 v 4.45428 h 10.43842 10.43842 l 2.9266,-2.67475 z M 64.187398,272.93397 c -0.373305,-1.10989 0.188966,-2.51536 1.006294,-2.51536 0.515496,0 0.706433,0.4503 0.593923,1.40068 -0.178197,1.50527 -1.223862,2.23366 -1.600217,1.11468 z m -3.019874,-0.68124 c 0,-0.43233 -0.01766,-0.95702 -0.0393,-1.16598 -0.02159,-0.20895 0.214198,-0.46442 0.524032,-0.5677 0.309835,-0.10328 0.563335,0.42141 0.563335,1.16598 0,0.74456 -0.235814,1.35375 -0.524032,1.35375 -0.288218,0 -0.524033,-0.35373 -0.524033,-0.78605 z m -0.317055,-2.97124 c -0.253281,-0.40982 -0.09536,-0.50427 0.476324,-0.2849 0.470377,0.1805 0.978039,0.12948 1.128138,-0.11338 0.150098,-0.24287 -0.219801,-0.57042 -0.821993,-0.72789 -1.249099,-0.32665 -0.859947,-1.42624 0.482572,-1.36356 0.588755,0.0275 0.656984,0.13317 0.203314,0.31494 -0.517388,0.20729 -0.466253,0.43193 0.211064,0.9272 0.963324,0.7044 0.605184,1.86068 -0.576315,1.86068 -0.398307,0 -0.894702,-0.27589 -1.103104,-0.61309 z m 3.330604,-0.7095 c -0.139057,-0.72742 -0.04863,-1.44878 0.200924,-1.60302 0.249566,-0.15425 0.453755,0.44092 0.453755,1.32258 0,1.94544 -0.310935,2.07863 -0.654679,0.28044 z m -8.739872,-8.44268 c -1.412965,-1.7963 -1.369554,-2.5757 0.232707,-4.17796 0.961914,-0.96191 1.635521,-1.22477 2.489154,-0.97133 2.5308,0.75139 3.283232,3.63111 1.432365,5.48197 -1.429703,1.4297 -2.857901,1.31533 -4.154226,-0.33268 z m 3.854778,0.0332 c 1.181903,-1.1819 1.017163,-3.17369 -0.341187,-4.12512 -0.640562,-0.44866 -1.348006,-0.81576 -1.572098,-0.81576 -0.710551,0 -2.50356,2.06417 -2.50356,2.88218 0,0.99819 1.859524,2.88218 2.844747,2.88218 0.411743,0 1.119187,-0.37057 1.572098,-0.82348 z m -3.892812,-11.22925 c -1.259046,-1.25905 -1.330241,-2.50814 -0.232304,-4.07566 1.007196,-1.43798 3.393975,-1.54491 4.60536,-0.20635 2.75758,3.04709 -1.469198,7.18586 -4.373056,4.28201 z m 4.206728,-0.55107 c 0.743084,-1.38847 0.472987,-3.13091 -0.588399,-3.79585 -1.347104,-0.84394 -3.558459,-0.004 -3.934473,1.49383 -0.675048,2.6896 3.247078,4.68586 4.522872,2.30202 z m -4.920267,-10.1916 c 0.165904,-0.43233 0.504822,-0.78605 0.753155,-0.78605 0.248339,0 0.315788,0.35372 0.149889,0.78605 -0.165903,0.43232 -0.504821,0.78605 -0.753155,0.78605 -0.248339,0 -0.315787,-0.35373 -0.149889,-0.78605 z m 2.395982,0.058 c 0.421615,-0.45428 0.799642,-0.53051 1.005293,-0.20272 0.19919,0.31749 0.44198,0.24272 0.613668,-0.189 0.198064,-0.49805 0.296608,-0.43666 0.325451,0.20272 0.02903,0.64349 -0.355593,0.91706 -1.289372,0.91706 -1.110645,0 -1.218983,-0.12042 -0.65504,-0.72806 z m 2.509817,0.23495 c 0,-0.27121 0.235814,-0.63885 0.524032,-0.81698 0.288218,-0.17813 0.524033,0.0438 0.524033,0.49311 0,0.44934 -0.235815,0.81698 -0.524033,0.81698 -0.288218,0 -0.524032,-0.2219 -0.524032,-0.49311 z m -3.799236,-1.98211 c 0.936708,-0.11624 2.469503,-0.11624 3.406211,0 0.936708,0.11625 0.170311,0.21136 -1.703105,0.21136 -1.873417,0 -2.639814,-0.0951 -1.703106,-0.21136 z m -1.703106,-1.19301 c -0.209167,-0.33845 -0.144497,-0.85117 0.143721,-1.13939 0.349357,-0.34935 0.650807,-0.31891 0.904344,0.0913 0.209168,0.33845 0.144497,0.85117 -0.143721,1.13939 -0.349357,0.34935 -0.650806,0.31891 -0.904344,-0.0913 z m 2.730341,-0.52404 c 0.150743,-0.57643 0.36448,-1.04806 0.474972,-1.04806 0.110492,0 0.200899,0.47163 0.200899,1.04806 0,0.57644 -0.213738,1.04807 -0.474973,1.04807 -0.261235,0 -0.351642,-0.47163 -0.200898,-1.04807 z m 1.985952,0.47738 c 0.576436,-0.3574 1.192111,-0.86661 1.368165,-1.13157 0.176054,-0.26496 0.463418,-0.10825 0.638591,0.34824 0.19625,0.51141 0.03956,0.82999 -0.408247,0.82999 -0.399706,0 -1.158704,0.13571 -1.686657,0.30158 -0.80428,0.25269 -0.789989,0.19622 0.08815,-0.34824 z m -0.786049,-1.00141 c 0,-0.28822 0.249733,-0.52403 0.554961,-0.52403 0.305228,0 0.409217,0.23581 0.231088,0.52403 -0.178129,0.28822 -0.427862,0.52403 -0.554961,0.52403 -0.127099,0 -0.231088,-0.23581 -0.231088,-0.52403 z m 5.960498,-2.86489 c -0.162251,-0.42282 -0.173471,-1.07131 -0.02494,-1.44109 0.148542,-0.36978 0.288695,-0.15904 0.311448,0.46832 0.02274,0.62736 0.454048,1.2485 0.95843,1.3803 0.85946,0.2246 0.858428,0.24347 -0.01646,0.30044 -0.513431,0.0334 -1.066254,-0.28515 -1.228505,-0.70797 z m -13.51,-0.35854 c 0.151195,-0.24464 -0.132041,-0.4448 -0.629414,-0.4448 -1.491311,0 -0.352324,-0.66732 1.370274,-0.80283 1.380314,-0.10858 1.506971,-0.0167 0.931934,0.67619 -0.575345,0.69325 -0.497451,0.74852 0.575108,0.40811 0.812643,-0.25793 1.124427,-0.2058 0.903841,0.15112 -0.185209,0.29968 -1.031972,0.52509 -1.881694,0.50094 -0.849722,-0.0242 -1.421244,-0.24409 -1.270049,-0.48873 z m 6.139713,-0.49575 c 1.098032,-0.25834 2.453966,-0.71458 3.013187,-1.01386 0.559221,-0.29929 1.016765,-0.40592 1.016765,-0.23697 0,0.52033 -3.564779,1.82889 -4.830469,1.77318 -0.765696,-0.0337 -0.477719,-0.22162 0.800517,-0.52235 z m 4.170932,0.21184 c 0.509868,-0.13287 1.217312,-0.12413 1.572098,0.0194 0.354785,0.14354 -0.06238,0.25225 -0.92703,0.24157 -0.864653,-0.0107 -1.154936,-0.12813 -0.645068,-0.26099 z m -2.957655,-2.15103 c -0.142102,-0.22993 -0.04858,-0.75753 0.207894,-1.17247 0.351579,-0.56887 0.444532,-0.46604 0.377938,0.41805 -0.09582,1.27212 -0.190518,1.39406 -0.585832,0.75442 z m 3.340707,-6.13236 c 0,-0.43233 -0.01766,-0.95702 -0.0393,-1.16597 -0.02159,-0.20896 0.214198,-0.46443 0.524032,-0.5677 0.309835,-0.10329 0.563335,0.4214 0.563335,1.16597 0,0.74456 -0.235814,1.35375 -0.524032,1.35375 -0.288218,0 -0.524033,-0.35372 -0.524033,-0.78605 z m 3.53722,0.43899 c 0.360272,-0.14537 0.65504,-0.49439 0.65504,-0.7756 0,-0.28122 -0.235814,-0.36555 -0.524032,-0.18742 -0.288218,0.17812 -0.524033,-0.0438 -0.524033,-0.49311 0,-1.36509 1.335686,-0.91146 1.451932,0.49311 0.07859,0.94956 -0.142322,1.29869 -0.80276,1.2687 -0.547431,-0.0248 -0.649685,-0.14688 -0.256147,-0.30568 z m -4.000465,-4.50024 c 0.03867,-1.0835 0.150083,-1.32181 0.306224,-0.65505 0.134991,0.57644 0.624338,1.34284 1.087436,1.70311 0.74672,0.58092 0.712066,0.65504 -0.306224,0.65504 -0.958544,0 -1.138183,-0.28134 -1.087436,-1.7031 z m 3.60744,-0.3621 c 0,-1.26531 0.29142,-1.39296 0.707098,-0.30973 0.162356,0.4231 0.06968,0.90865 -0.20595,1.07899 -0.27563,0.17036 -0.501148,-0.17581 -0.501148,-0.76926 z m 12.052753,68.53612 c 0,-1.06083 -0.0581,-1.07672 -0.95832,-0.26201 -1.35407,1.22541 -4.11267,1.12419 -4.92765,-0.1808 -0.35999,-0.57644 -0.91498,-1.04806 -1.23331,-1.04806 -0.31833,0 -1.005592,0.47162 -1.527261,1.04806 -0.525091,0.58022 -1.614005,1.04807 -2.439366,1.04807 -0.81998,0 -1.962507,-0.47163 -2.538943,-1.04807 l -1.048065,-1.04806 v 1.31008 1.31008 h 7.336455 c 7.16298,0 7.33646,-0.0267 7.33646,-1.12929 z m -10.480655,-0.70483 c -0.3588,-0.43232 -1.2419,-0.78604 -1.962444,-0.78604 -1.105101,0 -1.20801,0.12299 -0.657719,0.78604 0.3588,0.43233 1.2419,0.78605 1.962444,0.78605 1.105101,0 1.208011,-0.12299 0.657719,-0.78605 z m 8.893375,0.28249 c 0.42398,-0.26813 0.58802,-0.67037 0.36454,-0.89386 -0.22349,-0.22348 -0.59987,-0.0932 -0.83638,0.28947 -0.30102,0.48706 -0.53758,0.52181 -0.78849,0.11583 -0.19714,-0.31899 -0.96294,-0.57997 -1.70176,-0.57997 -1.13465,0 -1.24198,0.1221 -0.69096,0.78604 0.73245,0.88254 2.4894,1.01841 3.65305,0.28249 z m -7.321278,-0.5445 c 0,-0.28822 -0.249732,-0.52403 -0.55496,-0.52403 -0.305228,0 -0.409217,0.23581 -0.231088,0.52403 0.178129,0.28822 0.427862,0.52403 0.554961,0.52403 0.127098,0 0.231087,-0.23581 0.231087,-0.52403 z m 6.812428,-7.95184 v -6.90377 l -1.31009,1.23076 c -1.10665,1.03965 -1.31008,1.70479 -1.31008,4.2836 v 3.05286 h -8.122501 -8.122504 v -1.5721 c 0,-1.32755 -0.203792,-1.5721 -1.310082,-1.5721 -1.288245,0 -1.310081,0.0699 -1.310081,4.19226 v 4.19226 h 10.742667 10.742671 z m -3.1442,-1.25677 v -2.39618 l -1.38075,1.0861 c -1.220663,0.96018 -2.101661,1.0861 -7.598474,1.0861 h -6.217719 v 1.31008 1.31008 h 7.598472 7.598471 z m -2.882179,-1.27204 c 0.211903,-0.34287 -3.400772,-0.52404 -10.449722,-0.52404 -6.833042,0 -10.773595,0.19167 -10.773595,0.52404 0,0.33183 3.832596,0.52403 10.449722,0.52403 6.401215,0 10.575202,-0.20303 10.773595,-0.52403 z m -10.326684,-5.10932 0.153966,-3.79924 h -5.525299 -5.5253 v 3.94858 3.94858 l 5.371334,-0.14935 5.371333,-0.14934 z m -4.315377,2.7345 c -0.902472,-0.6826 -0.770841,-1.00379 0.343315,-0.83772 0.205793,0.0306 0.239514,-0.29512 0.07494,-0.724 -0.164572,-0.42887 -0.0382,-0.77976 0.280876,-0.77976 0.319057,0 0.580099,0.70745 0.580099,1.5721 0,1.80902 0.05308,1.77709 -1.279232,0.76938 z m -3.437061,-0.50736 c 0,-0.43233 -0.01769,-0.95702 -0.0393,-1.16598 -0.02162,-0.20895 0.214198,-0.46442 0.524032,-0.5677 0.309835,-0.10328 0.563335,0.42141 0.563335,1.16598 0,0.74456 -0.235814,1.35375 -0.524032,1.35375 -0.288218,0 -0.524033,-0.35373 -0.524033,-0.78605 z m 2.384867,-3.26353 c -0.295803,-0.77085 -0.414822,-0.78914 -0.832935,-0.128 -0.3674,0.58095 -0.489798,0.39979 -0.495842,-0.73389 -0.0068,-1.27894 0.110161,-1.40717 0.778024,-0.85289 0.585764,0.48614 0.786049,0.4946 0.786049,0.0332 0,-0.34052 0.235815,-0.47338 0.524032,-0.29526 0.651048,0.40237 0.689093,2.19429 0.05491,2.58623 -0.258013,0.15946 -0.624422,-0.11478 -0.814237,-0.60943 z m 5.367571,-48.74671 0.153966,-3.79924 h -5.525299 -5.5253 v 3.58089 c 0,1.96949 0.165179,3.74607 0.367065,3.94796 0.201885,0.20188 2.618985,0.30014 5.371333,0.21834 l 5.004269,-0.14871 z m -7.157041,2.35815 c -0.03925,-0.50439 -0.354342,-0.91706 -0.700203,-0.91706 -0.484177,0 -0.486186,-0.14265 -0.0087,-0.6201 0.833185,-0.83319 1.298514,-0.26828 1.013297,1.23015 -0.145344,0.76358 -0.259843,0.87907 -0.30436,0.30701 z m 3.072831,-0.13101 c 0,-0.43233 -0.01766,-0.95702 -0.0393,-1.16597 -0.02159,-0.20896 0.214198,-0.46443 0.524032,-0.5677 0.309834,-0.10329 0.563335,0.4214 0.563335,1.16597 0,0.74456 -0.235815,1.35375 -0.524033,1.35375 -0.288217,0 -0.524032,-0.35372 -0.524032,-0.78605 z m -3.927702,-3.41033 c 0.146302,-0.23672 -0.03023,-0.52943 -0.392301,-0.65046 -0.362068,-0.12103 -0.0098,-0.34429 0.782783,-0.49612 1.692295,-0.32419 2.051556,0.86882 0.392302,1.30272 -0.576834,0.15085 -0.929086,0.0806 -0.782784,-0.15614 z m 3.403669,-0.2579 c 0,-0.43233 0.235815,-0.78605 0.524033,-0.78605 0.288218,0 0.524032,0.35372 0.524032,0.78605 0,0.43233 -0.235814,0.78605 -0.524032,0.78605 -0.288218,0 -0.524033,-0.35372 -0.524033,-0.78605 z m 14.672911,-3.66823 c 0,-0.67251 -1.513872,-0.78605 -10.48065,-0.78605 -8.966779,0 -10.480651,0.11354 -10.480651,0.78605 0,0.67251 1.513872,0.78605 10.480651,0.78605 8.966778,0 10.48065,-0.11354 10.48065,-0.78605 z m 2.882175,-3.93024 2.58077,-2.62017 H 62.962241 52.481589 l -2.580764,2.62017 -2.580764,2.62016 H 57.80071 68.28136 Z m -0.26201,-7.35447 v -4.24976 l -7.811477,0.16876 c -4.296313,0.0928 -7.701706,-0.008 -7.567544,-0.22426 0.134163,-0.21616 3.767234,-0.39302 8.073492,-0.39302 h 7.829559 v 4.45427 c 0,4.40188 0.0154,4.45428 1.31008,4.45428 h 1.31008 v -7.07444 -7.07444 H 63.263654 52.783004 v 7.01522 7.01522 l 8.908553,0.079 8.908555,0.079 z m 6.02637,-13.0828 2.58077,-2.62017 H 68.726602 58.245949 l -2.580766,2.62017 -2.580766,2.62016 h 10.48065 10.480655 z m -15.458958,-7.59848 v -4.45427 h 8.122508 8.1225 v 4.45427 c 0,4.10492 0.0822,4.45428 1.04807,4.45428 0.9963,0 1.04806,-0.34936 1.04806,-7.07444 v -7.07444 h -10.48065 -10.48065 v 7.07444 7.07444 h 1.310081 c 1.294669,0 1.310081,-0.0524 1.310081,-4.45428 z m 15.720978,0.26202 v -4.19226 h -7.59847 -7.598475 v 1.64862 1.64861 l 1.285058,-1.3866 c 1.658343,-1.78938 3.560608,-1.79162 4.965298,-0.006 1.335689,1.69805 1.372229,2.86608 0.137375,4.39106 -1.333726,1.64709 -3.651799,1.54272 -5.179365,-0.23318 l -1.208366,-1.40481 v 1.86333 1.86334 h 7.598475 7.59847 z m -5.07506,3.1049 c -2.3892,-0.88825 -2.94145,-3.85543 -1.04855,-5.63372 2.29551,-2.15652 5.59958,-0.84937 5.59958,2.2153 0,2.5313 -2.29679,4.25649 -4.55103,3.41842 z m 3.23181,-1.33652 c 1.35722,-1.35722 0.84242,-3.99953 -0.8977,-4.60766 -2.20742,-0.77143 -2.34384,0.0409 -0.36812,2.19209 l 1.7976,1.95727 -2.12844,-1.97578 c -2.76423,-2.56596 -3.45998,-1.87022 -0.89402,0.89401 l 1.97578,2.12845 -1.85906,-1.70241 c -2.10151,-1.92443 -2.59521,-2.08169 -2.59521,-0.82662 0,2.34615 3.28195,3.62788 4.96917,1.94065 z m -7.822118,0.28045 c 0.363563,-0.58826 -3.422205,-4.85691 -3.891382,-4.38774 -0.144109,0.14411 0.654826,1.20095 1.775407,2.34853 2.41666,2.47488 1.859361,2.83359 -0.639482,0.41161 l -1.728055,-1.67489 v 1.30807 c 0,0.71944 0.282977,1.59105 0.628839,1.93691 0.785409,0.78541 3.380869,0.82413 3.854673,0.0575 z m 1.280845,-2.19425 c 0,-1.36817 -1.639257,-2.99878 -3.01469,-2.99878 h -1.383163 l 1.777691,1.83412 c 1.87699,1.93656 2.620162,2.2669 2.620162,1.16466 z"
       id="path3921"
       inkscape:connector-curvature="0" />
  </g>
</svg>
