<?xml version="1.0" encoding="UTF-8" standalone="no"?>
<svg
   xmlns:dc="http://purl.org/dc/elements/1.1/"
   xmlns:cc="http://creativecommons.org/ns#"
   xmlns:rdf="http://www.w3.org/1999/02/22-rdf-syntax-ns#"
   xmlns:svg="http://www.w3.org/2000/svg"
   xmlns="http://www.w3.org/2000/svg"
   width="500mm"
   height="500mm"
   viewBox="0 0 500 500"
   version="1.1"
   id="svg8">
  <defs
     id="defs2" />
  <metadata
     id="metadata5">
    <rdf:RDF>
      <cc:Work
         rdf:about="">
        <dc:format>image/svg+xml</dc:format>
        <dc:type
           rdf:resource="http://purl.org/dc/dcmitype/StillImage" />
        <dc:title></dc:title>
      </cc:Work>
    </rdf:RDF>
  </metadata>
  <g
     id="layer1">
    <path
       style="fill:#000000;stroke-width:1.99021"
       d="m 205.12022,475.39145 v -14.92658 l -5.47308,-0.0466 c -7.89314,-0.0671 -24.52792,-9.82627 -29.5835,-17.35592 -2.38418,-3.55096 -5.35515,-12.31511 -6.60215,-19.47591 -1.247,-7.1608 -5.77854,-20.99877 -10.0701,-30.751 C 138.7002,359.45086 139.2403,365.1073 139.87153,251.24262 l 0.56682,-102.24586 6.2147,-11.94127 c 8.88865,-17.07917 16.40867,-40.843363 19.83835,-62.691663 4.22749,-26.93064 6.40096,-33.755302 12.78254,-40.136874 l 5.63798,-5.637989 h 33.87764 33.87765 l 0.6066,-9.453505 0.6066,-9.4535039 h 18.907 18.90701 l 0.6066,9.4535039 0.6066,9.453505 h 27.3635 27.36351 l 6.37027,6.572451 6.37027,6.572449 -0.50679,208.867956 -0.50677,208.86794 -4.47798,0.63597 c -4.18499,0.59436 -4.47797,1.60352 -4.47797,15.42414 0,14.44725 -0.11464,14.78817 -4.97553,14.78817 -4.57522,0 -4.97553,-0.72557 -4.97553,-9.0184 0,-6.4331 -0.91339,-9.36892 -3.18617,-10.24108 -4.23974,-1.62693 -6.69718,2.6776 -6.73441,11.79619 -0.0271,6.62591 -0.58873,7.46329 -5.006,7.46329 -4.86496,0 -4.97553,-0.33171 -4.97553,-14.92659 V 460.46487 H 277.76294 234.9734 v 14.92658 c 0,14.59488 -0.11058,14.92659 -4.97553,14.92659 -4.41727,0 -4.97895,-0.83738 -5.006,-7.46329 -0.0372,-9.11859 -2.49468,-13.42312 -6.73441,-11.79619 -2.2728,0.87216 -3.18618,3.80798 -3.18618,10.24108 0,8.29283 -0.40031,9.0184 -4.97553,9.0184 -4.86496,0 -4.97553,-0.33171 -4.97553,-14.92659 z m 7.96085,3.91797 c 0,-6.51344 0.90435,-9.36545 3.25583,-10.2678 5.59202,-2.14586 9.64113,2.24039 10.29867,11.15616 0.99571,13.50111 5.2618,8.86406 5.941,-6.4576 l 0.58848,-13.27531 h -13.02731 -13.0273 v 13.93148 c 0,11.05674 0.61601,13.93148 2.98531,13.93148 2.21441,0 2.98532,-2.32885 2.98532,-9.01841 z m 115.43226,1.30124 c 0,-8.34475 3.62084,-12.92363 9.3579,-11.83393 2.60433,0.49466 3.84937,3.07079 4.57358,9.46329 0.54731,4.83098 2.1146,9.15169 3.48287,9.60156 1.83305,0.6027 2.48777,-2.89207 2.48777,-13.27939 V 460.46487 H 335.47907 322.5427 v 12.60466 c 0,6.93259 0.59706,13.20175 1.32681,13.93149 3.05261,3.0526 4.64382,0.86293 4.64382,-6.39036 z M 200.64225,455.11253 c -1.91558,-0.50058 -5.05016,-0.50058 -6.96574,0 -1.91558,0.5006 -0.34829,0.91019 3.48287,0.91019 3.83116,0 5.39845,-0.40959 3.48287,-0.91019 z m 12.26446,-32.76264 0.17436,-15.22757 -7.16036,-4.22472 c -4.61416,-2.72241 -6.76641,-5.25135 -6.05249,-7.11178 0.70775,-1.84437 -3.56057,-7.03846 -11.81805,-14.38133 l -12.92593,-11.49425 1.29836,-12.43882 1.29837,-12.43882 h -9.1878 c -5.0533,0 -9.18781,0.40371 -9.18781,0.89714 0,6.03538 6.25234,26.08913 13.24446,42.48023 4.80732,11.26948 10.08085,26.94239 11.71894,34.82871 3.44331,16.57719 7.19904,22.56239 18.01326,28.70635 l 7.77373,4.41656 1.31831,-9.39209 c 0.72506,-5.16563 1.39676,-16.24446 1.49265,-24.61961 z m 135.01118,32.76264 c -1.91557,-0.50058 -5.05016,-0.50058 -6.96574,0 -1.91557,0.5006 -0.34828,0.91019 3.48287,0.91019 3.83116,0 5.39845,-0.40959 3.48287,-0.91019 z m 10.44861,-58.00937 v -59.38129 l -29.35561,-14.15617 -29.35562,-14.1562 -0.61187,19.30422 c -0.92952,29.3261 0.19303,33.5892 14.46609,54.93718 10.91836,16.33044 13.22621,21.4384 16.9045,37.41459 2.34291,10.17619 5.41136,20.03667 6.8188,21.91217 2.01176,2.68083 18.37827,13.37402 20.63616,13.4828 0.27366,0.0139 0.49755,-26.69759 0.49755,-59.3573 z m -167.84805,49.45329 c -2.88389,-3.4273 -6.00043,-10.80661 -7.3547,-17.41435 -3.01576,-14.71447 -5.91101,-23.45773 -14.67129,-44.30527 -3.90971,-9.30424 -8.19421,-22.06647 -9.52113,-28.36052 l -2.41257,-11.44371 h -7.56265 c -4.84808,0 -7.56265,0.92147 -7.56265,2.56717 0,6.35781 6.80337,27.61456 13.83958,43.24101 4.2344,9.40403 8.80416,22.87127 10.15501,29.92723 1.35086,7.05596 3.65157,15.21282 5.11269,18.12635 3.79914,7.5757 12.26868,13.60966 19.10311,13.60966 h 5.87915 z m 128.7374,-0.62767 c -5.47408,-6.34907 -6.23393,-6.5921 -22.08835,-7.06469 -13.80622,-0.41154 -16.41924,0.008 -16.41924,2.6375 0,1.71981 -2.17276,4.1169 -4.82836,5.32687 -4.03605,1.83895 -6.3821,1.33155 -14.29681,-3.09208 -8.54394,-4.77529 -11.26126,-5.25463 -27.82958,-4.90933 l -18.36113,0.38266 -0.77602,6.64716 -0.77602,6.64715 h 55.52231 55.52229 z m 18.70366,1.10216 c -2.87651,-3.0102 -6.30298,-9.95106 -7.61437,-15.42414 -5.99063,-25.00179 -8.1981,-30.66496 -16.6792,-42.78955 -12.28022,-17.55583 -16.90035,-27.45477 -16.95228,-36.32136 -0.0434,-7.41519 -0.0968,-7.46329 -8.28177,-7.46329 h -8.23807 l 1.20659,10.18773 c 0.95287,8.04551 3.91543,14.33802 14.08897,29.92522 10.49725,16.08314 13.50527,22.57991 16.24659,35.08958 1.85031,8.44365 4.22754,17.14328 5.28274,19.33252 3.42149,7.09862 12.12088,12.91607 19.33027,12.92648 l 6.84053,0.01 -5.23,-5.47308 z m -61.19167,-4.75336 c 0,-3.24663 -5.91817,-4.23597 -9.17425,-1.53366 -2.85004,2.36533 -2.7998,2.74263 0.5229,3.92766 4.23569,1.51065 8.65135,0.28874 8.65135,-2.394 z m -10.30152,-8.35395 c 0.78259,-4.0353 -5.03863,-6.67977 -8.05786,-3.66054 -1.56669,1.56669 -1.44644,3.04212 0.43248,5.30606 3.10789,3.74478 6.73165,2.96279 7.62538,-1.64552 z m 9.73289,-0.7531 c -1.82436,-1.82435 -3.82879,-2.80524 -4.45429,-2.17974 -0.62549,0.62548 0.3554,2.62991 2.17976,4.45427 1.82436,1.82437 3.82879,2.80527 4.45428,2.17976 0.6255,-0.6255 -0.35539,-2.62992 -2.17975,-4.45429 z m -23.31391,-1.37918 c 0,-1.61929 1.92676,-4.29372 4.28168,-5.94317 3.79961,-2.66135 5.07985,-2.66551 11.37088,-0.037 3.89906,1.62915 8.6063,4.33502 10.46054,6.01309 2.52735,2.28723 7.07039,2.91327 18.14735,2.50074 l 14.776,-0.55029 -1.2393,-6.0595 -1.2393,-6.05952 h -46.68838 -46.68838 l -0.59945,6.14371 -0.59945,6.14372 19.00891,0.39617 c 15.63043,0.32582 19.0089,-0.12703 19.0089,-2.54793 z m 33.33604,-14.60716 c -12.86174,-0.34665 -33.90823,-0.34665 -46.76997,0 -12.86174,0.34668 -2.33849,0.6303 23.38499,0.6303 25.72348,0 36.24672,-0.28362 23.38498,-0.6303 z m 21.11938,-5.47951 c -0.97109,-2.53063 -7.93339,-2.98531 -45.7124,-2.98531 -38.28815,0 -44.56683,0.42057 -44.56683,2.98531 0,2.56698 6.40597,2.98532 45.7124,2.98532 39.81558,0 45.56463,-0.3851 44.56683,-2.98532 z m -3.70503,-8.95595 c -0.76489,-1.23761 -19.05981,-1.97869 -48.38008,-1.95974 -31.17732,0.0202 -46.13875,0.68404 -44.16475,1.95974 4.09694,2.64764 94.18117,2.64764 92.54483,0 z m -3.98042,-7.96084 c -0.76459,-1.23714 -19.25938,-1.99022 -48.87764,-1.99022 -30.43827,0 -47.64762,0.71883 -47.64762,1.99022 0,1.27278 17.61936,1.99021 48.87764,1.99021 32.0783,0 48.45488,-0.68404 47.64762,-1.99021 z m -4.97553,-5.57857 c 0,-0.87897 -2.76426,-5.35695 -6.14281,-9.95105 l -6.14281,-8.35292 -51.07577,0.0634 -51.07577,0.0633 10.94616,9.82437 10.94617,9.82436 46.27242,0.0633 c 25.44982,0.0349 46.27241,-0.65576 46.27241,-1.53474 z M 226.515,387.67939 c -1.7551,-1.78226 -2.03566,-14.78383 -0.31902,-14.78383 0.64551,0 2.83809,2.01509 4.8724,4.47798 l 3.69876,4.47797 -1.1241,-4.47797 c -0.61825,-2.46289 -0.24123,-4.47798 0.83783,-4.47798 2.14848,0 5.02941,14.04178 3.24519,15.81719 -0.6078,0.60478 -2.75438,-0.93467 -4.77018,-3.421 -3.66289,-4.5179 -3.66548,-4.5181 -4.30666,-0.30862 -0.35286,2.31661 -1.31326,3.52992 -2.13422,2.69626 z m 17.7361,-6.22093 c -1.51247,-9.32024 -0.0143,-10.829 4.8251,-4.85955 3.79168,4.67697 3.8091,4.6787 3.8091,0.38011 0,-2.3751 0.8956,-3.76487 1.99021,-3.08836 2.09343,1.29382 2.83922,14.92659 0.81657,14.92659 -0.6455,0 -2.83808,-2.01509 -4.8724,-4.47797 l -3.69875,-4.47798 1.12409,4.47798 c 0.61826,2.46288 0.24123,4.47797 -0.83783,4.47797 -1.07906,0 -2.4993,-3.31145 -3.15609,-7.35879 z m 20.57547,2.54604 c 0,-2.64702 -0.54362,-6.2294 -1.20804,-7.96084 -0.66442,-1.73147 -0.32857,-3.1481 0.74633,-3.1481 1.0749,0 2.49172,2.68678 3.14849,5.97063 0.70039,3.5019 2.44907,5.97064 4.2292,5.97064 1.66929,0 3.03508,0.89559 3.03508,1.99021 0,1.09462 -2.23899,1.99021 -4.97553,1.99021 -3.93555,0 -4.97553,-1.00595 -4.97553,-4.81275 z m 13.44762,0.83233 c -2.20037,-7.53992 -1.9304,-11.1712 0.63945,-8.60134 1.18019,1.1802 1.84582,4.7178 1.47918,7.86134 l -0.66663,5.71553 z m -63.71843,-0.66033 c -0.81108,-2.0051 -1.44746,-5.58748 -1.41417,-7.96085 0.0552,-3.93262 0.24321,-4.00134 2.12113,-0.77509 1.13334,1.94705 1.76971,5.52943 1.41417,7.96085 -0.58206,3.9804 -0.79334,4.0576 -2.12113,0.77509 z m -16.24752,-1.57866 c 0.59194,-0.95779 -0.37284,-1.74143 -2.14397,-1.74143 -1.77112,0 -2.6375,-0.94287 -1.92528,-2.09528 0.71222,-1.15239 2.33237,-1.71705 3.60033,-1.25479 1.26795,0.46225 3.87267,-0.52488 5.78825,-2.19363 3.96198,-3.45144 4.78349,-0.62296 0.9951,3.42619 -2.0408,2.18129 -1.66279,2.45972 2.10395,1.54974 3.6,-0.8697 4.12927,-0.55207 2.45054,1.47066 -2.35898,2.84242 -12.59547,3.63216 -10.86892,0.83854 z m 82.44002,-16.33631 c 0,-4.35785 -2.27689,-5.30487 -5.35462,-2.22715 -4.18464,4.18464 -9.87957,3.54984 -13.41321,-1.49513 -6.12531,-8.7451 6.25173,-17.76263 13.93042,-10.14928 3.4882,3.45853 3.56945,3.45646 2.23829,-0.0569 -0.75972,-2.00504 -1.3813,-4.46792 -1.3813,-5.47302 0,-1.05985 -20.40333,-1.82743 -48.57599,-1.82743 h -48.57599 l -0.68174,11.11632 c -0.37497,6.11397 -0.30859,11.48754 0.14751,11.94127 0.45609,0.45371 23.51766,0.82495 51.24795,0.82495 40.68876,0 50.41868,-0.51211 50.41868,-2.65361 z m -93.1419,-1.72486 c -3.0699,-3.0699 -3.0699,-10.06549 0,-13.1354 5.58254,-5.58254 15.52365,-1.37668 15.52365,6.5677 0,5.33468 -3.62127,8.95595 -8.95595,8.95595 -2.29869,0 -5.25416,-1.07471 -6.5677,-2.38825 z m 12.29128,-4.0426 c 1.66918,-2.65056 1.40961,-4.20569 -1.12501,-6.74033 -5.96209,-5.96209 -14.85717,1.82994 -9.48222,8.30635 3.09456,3.72872 7.70121,3.04863 10.60723,-1.56602 z m 12.33048,3.30338 c -1.72011,-1.7201 -3.12747,-4.34292 -3.12747,-5.82848 0,-3.88694 5.63223,-8.95595 9.95105,-8.95595 4.23881,0 9.95106,5.04556 9.95106,8.78965 0,3.42868 -6.5305,9.12225 -10.46316,9.12225 -1.7512,0 -4.59137,-1.40735 -6.31148,-3.12747 z m 11.79912,-5.82848 c 0,-5.0331 -0.77701,-5.97063 -4.94828,-5.97063 -3.1912,0 -5.19439,1.27801 -5.6414,3.59912 -1.16279,6.03786 1.2999,9.6613 6.1028,8.97929 3.51702,-0.49942 4.48688,-1.92772 4.48688,-6.60778 z m 13.33441,6.5677 c -3.0699,-3.0699 -3.0699,-10.06549 0,-13.1354 5.58254,-5.58254 15.52365,-1.37668 15.52365,6.5677 0,5.33468 -3.62127,8.95595 -8.95595,8.95595 -2.29869,0 -5.25416,-1.07471 -6.5677,-2.38825 z m 12.29128,-4.0426 c 1.66918,-2.65056 1.40961,-4.20569 -1.12502,-6.74033 -5.96209,-5.96209 -14.85716,1.82994 -9.48221,8.30635 3.09456,3.72872 7.70121,3.04863 10.60723,-1.56602 z m 24.79564,-1.28231 c 0.85657,-6.02783 -2.13562,-8.95784 -7.43145,-7.27701 -2.6846,0.85207 -4.18076,3.00016 -4.18076,6.00248 0,8.08187 10.48141,9.23227 11.61221,1.27453 z m 21.22628,-34.08128 v -16.9168 l -77.1207,-0.52091 -77.12069,-0.52094 v 17.95865 17.95866 l 77.12069,-0.52094 77.1207,-0.52092 z m 62.69165,2.44772 c 0,-5.04865 -1.97015,-6.49698 -23.38498,-17.19099 -12.86174,-6.42283 -26.29567,-12.9099 -29.85317,-14.4157 l -6.46819,-2.73783 v 6.64617 c 0,6.57687 0.28533,6.78288 27.36541,19.75629 15.05097,7.21056 28.4849,13.18776 29.85317,13.28266 1.43301,0.0993 2.48776,-2.1649 2.48776,-5.3406 z m 0,-16.14686 c 0,-5.41592 -1.63316,-6.53399 -29.07153,-19.90212 -15.98936,-7.7901 -29.42329,-14.16382 -29.85318,-14.16382 -0.4299,0 -0.78163,2.93029 -0.78163,6.51176 0,6.3997 0.47085,6.73889 27.36541,19.71368 15.05097,7.26107 28.4849,13.28673 29.85317,13.39036 1.45857,0.11046 2.48776,-2.18553 2.48776,-5.54986 z m -62.06801,-12.67116 -0.62364,-6.46819 -77.1207,-0.52092 -77.12069,-0.52093 v 6.98912 6.98911 h 77.74434 77.74434 z m 62.06801,-3.42593 c 0,-5.6525 -1.28788,-6.53156 -29.15793,-19.90212 -16.03685,-7.69364 -29.47078,-13.98842 -29.85316,-13.98842 -0.38239,0 -0.6763,2.91069 -0.65315,6.46819 0.0412,6.33027 0.62469,6.75088 27.3654,19.72588 15.02783,7.29174 28.44281,13.33701 29.81108,13.43393 1.47158,0.10429 2.48776,-2.23933 2.48776,-5.73746 z m -62.06801,-12.49576 -0.62364,-6.46819 -77.1207,-0.52092 -77.12069,-0.52094 v 6.98913 6.9891 h 77.74434 77.74434 z m 62.06801,-3.54618 c 0,-5.81202 -1.07155,-6.54408 -29.1313,-19.90212 -16.02223,-7.6275 -29.45615,-13.86817 -29.85318,-13.86817 -0.39702,0 -0.6671,2.91068 -0.60017,6.46819 0.11868,6.30757 0.7982,6.7984 27.36542,19.76674 14.98404,7.31418 28.3632,13.35945 29.73147,13.43393 1.47294,0.0802 2.48776,-2.32602 2.48776,-5.89857 z m -62.06801,-12.37552 -0.62364,-6.46818 -77.1207,-0.52092 -77.12069,-0.52094 v 6.98913 6.9891 h 77.74434 77.74434 z M 358.3665,156.40604 V 43.407528 l -6.03881,-6.611656 c -5.60106,-6.132369 -6.35365,-6.402604 -10.38208,-3.727831 -8.58012,5.69698 -11.57638,12.366165 -14.57102,32.432556 -4.37834,29.33832 -7.81771,40.670543 -23.52929,77.525523 -4.93363,11.57292 -5.09212,13.27942 -5.1379,55.32154 l -0.0472,43.38026 28.33584,13.83832 c 15.58472,7.61109 29.01865,13.83832 29.85317,13.83832 0.83453,0 1.51733,-50.84933 1.51733,-112.99852 z m -61.69655,94.09151 v -6.96574 H 219.0517 141.43346 v 6.96574 6.96574 h 77.61824 77.61825 z m -0.9951,-42.78955 v -32.83849 l -77.1207,-0.52093 -77.12069,-0.52092 v 33.88034 33.88035 l 77.12069,-0.52094 77.1207,-0.52092 z m 0.687,-47.78778 c 1.15907,-6.58019 5.70404,-19.95159 10.09992,-29.71423 9.1139,-20.24071 14.91658,-40.763423 18.10042,-64.016883 2.56954,-18.766818 4.64925,-24.991597 10.40128,-31.131955 l 4.19477,-4.477976 h -75.53213 c -82.92586,0 -81.05401,-0.260817 -87.49309,12.190995 -1.70045,3.288301 -4.38834,14.616196 -5.9731,25.173106 -3.8112,25.38844 -7.70652,39.041103 -18.23672,63.917623 -4.81417,11.37298 -9.26854,25.03081 -9.89861,30.35072 l -1.14557,9.67257 h 76.68771 76.6877 z m -90.13367,-46.195 c -1.70399,-2.43279 -3.09817,-7.80636 -3.09817,-11.94127 v -7.518003 h 10.94616 10.94617 v 9.553013 c 0,5.25415 -1.07471,10.62773 -2.38826,11.94127 -3.95862,3.95862 -12.9927,2.83802 -16.4059,-2.03501 z m 14.19783,-2.813 c 1.32976,-3.46529 -1.26109,-8.9794 -4.76836,-10.14849 -1.16301,-0.38766 -3.56014,0.74072 -5.32695,2.50753 -2.43626,2.43626 -2.71557,4.14066 -1.15609,7.05459 2.5085,4.68717 9.53721,5.05348 11.2514,0.58637 z m 2.60612,-11.670743 c 0,-2.15606 -2.21135,-2.98532 -7.96085,-2.98532 -4.37846,0 -7.96084,0.87321 -7.96084,1.94046 0,1.07645 2.551,1.43025 5.72926,0.7946 3.25779,-0.65156 6.31331,-0.20083 7.08319,1.044863 1.88308,3.04688 3.10924,2.73352 3.10924,-0.794603 z m 22.29037,16.518753 c -1.31354,-1.31354 -2.38826,-6.68712 -2.38826,-11.94127 v -9.553013 h 10.94617 10.94616 v 7.518003 c 0,9.83874 -4.64817,16.36453 -11.65608,16.36453 -3.00286,0 -6.53445,-1.07471 -7.84799,-2.38825 z m 13.45947,-5.43438 c 1.55948,-2.91393 1.28017,-4.61833 -1.15609,-7.05459 -1.76681,-1.76681 -4.16394,-2.89519 -5.32695,-2.50753 -3.50727,1.16909 -6.09811,6.6832 -4.76836,10.14849 1.71419,4.46711 8.7429,4.1008 11.2514,-0.58637 z m -2.9372,-11.268703 c 2.89098,0.72559 5.00138,0.39947 5.00138,-0.77286 0,-1.11547 -3.58238,-2.02813 -7.96085,-2.02813 -6.01652,0 -7.96084,0.78864 -7.96084,3.22901 0,2.632033 0.54713,2.774923 2.95947,0.772863 1.69739,-1.408713 5.09233,-1.920833 7.96084,-1.200883 z m 8.61967,-75.443712 c 1.69516,-3.720458 3.79461,-4.975529 8.32297,-4.975529 4.52836,0 6.62782,1.255071 8.32298,4.975529 1.24685,2.736541 3.91443,4.975529 5.92796,4.975529 2.94432,0 3.66097,-1.558363 3.66097,-7.960846 v -7.960846 h -17.91191 -17.9119 v 7.960846 c 0,6.402483 0.71665,7.960846 3.66097,7.960846 2.01353,0 4.68111,-2.238988 5.92796,-4.975529 z m 13.91473,1.492659 c -0.42313,-2.19712 -2.4874,-3.48287 -5.59176,-3.48287 -3.10435,0 -5.16862,1.28575 -5.59175,3.48287 -0.52406,2.721226 0.69876,3.48287 5.59175,3.48287 4.893,0 6.11582,-0.761644 5.59176,-3.48287 z"
       id="path190" />
  </g>
</svg>
