<?xml version="1.0" encoding="UTF-8" standalone="no"?>
<svg
   xmlns:dc="http://purl.org/dc/elements/1.1/"
   xmlns:cc="http://creativecommons.org/ns#"
   xmlns:rdf="http://www.w3.org/1999/02/22-rdf-syntax-ns#"
   xmlns:svg="http://www.w3.org/2000/svg"
   xmlns="http://www.w3.org/2000/svg"
   id="svg8"
   version="1.1"
   viewBox="0 0 500 500"
   height="500mm"
   width="500mm">
  <defs
     id="defs2" />
  <metadata
     id="metadata5">
    <rdf:RDF>
      <cc:Work
         rdf:about="">
        <dc:format>image/svg+xml</dc:format>
        <dc:type
           rdf:resource="http://purl.org/dc/dcmitype/StillImage" />
        <dc:title></dc:title>
      </cc:Work>
    </rdf:RDF>
  </metadata>
  <g
     transform="translate(0,203)"
     id="layer1">
    <path
       id="path75"
       d="m 52.872984,287.54179 c -6.97513,-5.06562 -10.39568,-8.96332 -10.43503,-11.89067 -0.0322,-2.39517 -0.95298,-4.90765 -2.04617,-5.58328 -3.1897,-1.97135 -2.69843,-391.5133 0.4969,-394.01287 1.3665,-1.06895 44.97004,-10.21357 96.896746,-20.32139 51.92673,-10.10782 139.46182,-27.25423 194.52245,-38.10315 75.18276,-14.81369 100.77316,-19.17512 102.77258,-17.51576 1.46428,1.21525 3.68152,1.57964 4.92722,0.80976 1.30565,-0.80694 6.39332,2.66659 12.01281,8.20158 l 9.74794,9.60135 -0.0304,196.849674 c -0.0159,108.267306 -0.68756,197.875946 -1.49072,199.130296 -1.51775,2.37041 -45.14029,11.30558 -260.84545,53.42883 -70.51102,13.7695 -129.990716,25.46431 -132.177106,25.98845 -2.5328,0.6072 -7.74043,-1.78143 -14.35174,-6.58282 z m 14.35174,3.39612 c 0.67564,-1.0932 -0.166,-1.98763 -1.87032,-1.98763 -1.70431,0 -3.09874,0.89443 -3.09874,1.98763 0,1.09319 0.84164,1.98762 1.87032,1.98762 1.02868,0 2.42311,-0.89443 3.09874,-1.98762 z M 263.00586,251.0983 c 101.12045,-19.8506 186.33345,-36.3181 189.36219,-36.59446 3.02874,-0.27636 6.15926,-1.22378 6.95669,-2.10539 0.79744,-0.88159 0.33183,-0.95951 -1.03466,-0.17312 -3.55866,2.04791 -3.65765,-384.42367 -0.0994,-387.98194 1.85511,-1.85512 1.85511,-2.91519 0,-4.7703 -1.85511,-1.85512 -2.38515,-1.46131 -2.38515,1.77215 0,5.0279 8.51163,2.91411 -86.46172,21.47202 -167.57883,32.74512 -297.634996,58.711127 -299.337716,59.76346 -2.12509,1.313381 -2.47862,383.12834 -0.35671,385.25025 0.78698,0.78698 3.24666,0.98728 5.46597,0.44511 2.21931,-0.54218 86.770026,-17.22717 187.890486,-37.07778 z M 128.56204,215.83891 c -2.22247,-2.22246 -2.70236,-25.5807 -2.70236,-131.535835 0,-119.798242 0.24394,-129.123514 3.47835,-132.968578 2.96399,-3.523608 22.4046,-7.832779 131.47007,-29.141434 70.39544,-13.753501 129.86713,-24.737463 132.1593,-24.408803 3.30474,0.47385 4.53169,2.655156 5.92616,10.5357 0.96722,5.465971 1.86964,65.137336 2.00542,132.603035 0.21464,106.659775 -0.14212,123.037755 -2.73458,125.522545 -3.90445,3.74232 -71.68221,18.75183 -157.02243,34.77289 -90.23051,16.93912 -107.95895,19.24147 -112.57993,14.62048 z m 11.04539,-0.94887 c -0.4555,-0.28495 -3.06426,-2.29742 -5.79725,-4.47216 l -4.96906,-3.95406 3.7864,4.47215 c 2.08252,2.45969 4.69128,4.47216 5.79724,4.47216 1.10597,0 1.63816,-0.23315 1.18267,-0.51809 z m 13.47719,-1.05553 c 1.4091,-0.89579 1.71309,-2.59119 0.74535,-4.15702 -1.14347,-1.85016 -2.04254,-1.98363 -2.99382,-0.44443 -0.74776,1.2099 -2.42482,2.17992 -3.7268,2.15561 -1.30197,-0.0242 -0.49371,-1.58956 1.79615,-3.47834 4.10578,-3.38664 4.14484,-4.20393 2.82363,-59.08766 -0.73686,-30.60944 -0.72321,-82.039245 0.0303,-114.288476 1.35698,-58.074129 1.32998,-58.667171 -2.82363,-62.002659 l -4.19372,-3.367698 -1.04917,46.101657 -1.04917,46.101651 -0.44154,-46.83425 -0.44155,-46.834242 -5.96288,-5.712798 -5.96288,-5.712798 V 79.742365 203.21168 l 5.96288,4.24595 5.96288,4.24594 v -45.18819 c 0,-24.85351 0.4185,-44.7697 0.93,-44.2582 0.5115,0.51151 1.01978,21.67973 1.12949,47.04048 0.1809,41.8104 0.51121,46.10763 3.54216,46.08004 1.83846,-0.0159 4.41349,-0.71117 5.72228,-1.54319 z M 144.51426,92.175345 c 0,-13.66493 0.31756,-19.25513 0.70568,-12.42267 0.38813,6.83247 0.38813,18.01286 0,24.845325 -0.38812,6.83246 -0.70568,1.24226 -0.70568,-12.422655 z m 67.0204,110.380125 c 26.66936,-4.88259 51.29887,-9.44699 54.73223,-10.14313 l 6.2425,-1.2657 1.49614,-48.98874 c 1.44193,-47.212705 0.0499,-192.642808 -1.86236,-194.554974 -0.51323,-0.513217 -18.208,2.270646 -39.32176,6.18636 -51.96883,9.638031 -65.2757,11.786434 -66.34991,10.712233 -0.50137,-0.501376 10.95139,-2.898028 25.45059,-5.325895 53.1103,-8.893223 80.98043,-14.979056 79.47906,-17.355362 -1.04726,-1.657553 -10.90086,-0.500987 -36.22206,4.251568 -19.13089,3.590692 -44.62219,8.095421 -56.64733,10.010508 -20.00716,3.186281 -31.62824,6.89733 -21.59886,6.89733 6.13603,0 6.97792,2.112442 2.33896,5.868842 -4.02872,3.262263 -4.23501,5.633854 -5.5705,64.039612 -1.428,62.451223 0.31344,172.264358 2.79548,176.280378 1.9523,3.15889 1.10804,3.26034 55.03782,-6.61303 z M 180.6202,180.57692 c 13.48999,-14.85895 15.77404,-16.61254 18.57235,-14.25891 1.7549,1.47603 7.88649,6.5569 13.62576,11.29085 5.73926,4.73392 10.43503,9.17748 10.43503,9.87452 0,1.04756 -50.90511,10.13761 -56.33724,10.06007 -0.92265,-0.0139 5.2442,-7.6481 13.7041,-16.96653 z m 19.36995,9.81221 c 11.8021,-1.88099 20.74642,-4.01641 19.87626,-4.74538 -0.87019,-0.72894 -6.5667,-5.48388 -12.65895,-10.56651 l -11.07682,-9.24115 -12.27778,13.71327 c -13.03523,14.55925 -14.35328,16.84429 -8.79944,15.25508 1.91309,-0.54741 13.13461,-2.5343 24.93673,-4.41531 z m 108.91789,-6.66463 c 57.87953,-11.81393 76.40318,-16.28454 79.28085,-19.13411 6.75391,-6.68805 10.37489,-129.413215 5.88868,-199.584155 -2.5732,-40.248828 -2.86224,-41.779082 -7.89139,-41.779082 -2.17361,0 -15.79666,2.598999 -30.27343,5.775549 -14.47679,3.176552 -37.94904,8.189503 -52.16057,11.139891 l -25.83913,5.36434 V 67.537925 c 0,67.117025 0.53127,122.030995 1.18061,122.031035 0.64934,2e-5 14.06581,-2.62999 29.81438,-5.84446 z m 32.97273,-31.23758 c -7.45231,-6.0594 -13.2072,-11.35954 -12.78865,-11.77812 1.07768,-1.07765 53.67047,-12.91954 54.35203,-12.23799 0.73186,0.73185 -25.71646,35.0172 -27.01989,35.02628 -0.54659,0.004 -7.09117,-4.95078 -14.54349,-11.01017 z m 26.33964,-6.44544 c 5.57534,-6.99562 9.73213,-13.12415 9.23733,-13.61897 -0.89879,-0.89878 -40.56126,7.15851 -43.40838,8.81826 -2.06765,1.20536 18.82489,18.46985 21.71376,17.94311 1.27617,-0.23269 6.88196,-6.14677 12.45729,-13.1424 z m 29.11937,16.94662 c 0.29961,-2.04777 0.98675,-27.98629 1.52697,-57.64115 0.95388,-52.362815 0.92604,-52.886045 -0.96604,-18.140675 -1.07155,19.677495 -2.1214,44.491485 -2.333,55.142225 -0.2116,10.65073 -0.95988,19.37144 -1.66281,19.37935 -0.70294,0.008 -1.81784,1.42101 -2.47755,3.14023 -0.83455,2.17476 -0.20044,2.93071 2.08408,2.48453 1.80598,-0.35273 3.52873,-2.31676 3.82835,-4.36451 z m 1.83579,-183.61052 c -0.87873,-31.429332 -1.56035,-59.156711 -1.51469,-61.616397 0.10097,-5.444727 -3.6559,-5.784142 -8.21854,-0.742488 -3.10107,3.426627 -3.11152,3.830896 -0.12879,4.975512 1.78564,0.685214 3.83673,0.880033 4.55796,0.432933 0.72125,-0.447103 1.33602,6.929057 1.36615,16.391463 0.083,26.017457 3.41769,97.703212 4.54511,97.703212 0.54477,0 0.27153,-25.714903 -0.6072,-57.144235 z M 152.08905,-36.364118 c -7.65112,-3.319569 -10.82961,0.41641 -4.4532,5.234274 4.52233,3.416971 5.06268,3.445624 7.34692,0.38959 2.0988,-2.807933 1.66833,-3.644542 -2.89372,-5.623864 z m -9.51311,-2.354919 c 1.57313,-2.545389 -8.11703,-10.862593 -10.75572,-9.23179 -1.57344,0.972436 -0.8929,2.892761 2.18695,6.171117 4.74836,5.054397 6.86854,5.811702 8.56877,3.060673 z m 46.90645,-9.065404 c 67.44117,-11.818489 77.49872,-13.776658 77.49872,-15.088723 0,-0.704542 -2.26059,-3.404696 -5.02353,-6.000342 l -5.02352,-4.719357 -59.07741,11.553782 c -32.49257,6.354581 -59.42772,11.87774 -59.85588,12.273689 -1.0931,1.010863 8.29621,8.62329 10.73529,8.703682 1.10347,0.03637 19.43932,-2.98886 40.74633,-6.722731 z m 127.18936,-16.915343 c 60.89787,-12.891728 66.43591,-14.311875 70.2993,-18.02725 3.57912,-3.441983 3.29069,-3.472307 -7.9505,-0.83588 -6.41538,1.504617 -31.34184,6.848032 -55.39211,11.874256 -50.96396,10.650865 -49.3083,10.207024 -47.7117,12.790405 1.64203,2.656866 -0.93083,3.023117 40.75501,-5.801531 z m 6.95669,-8.960961 c 47.32467,-9.991795 66.63674,-14.426593 67.77358,-15.563442 0.43112,-0.431102 -1.22511,-2.653105 -3.68048,-4.937783 l -4.46433,-4.153961 -59.62877,11.740623 c -32.79582,6.457343 -60.01972,11.751753 -60.49754,11.765356 -0.47783,0.01352 1.6827,2.687906 4.80119,5.942896 3.84611,4.014483 7.00266,5.612719 9.81308,4.968597 2.27872,-0.522263 22.92619,-4.915291 45.88327,-9.762286 z m 68.57309,-22.988359 c 0,-1.093194 -0.94723,-1.987626 -2.10494,-1.987626 -1.15771,0 -1.55214,0.894432 -0.8765,1.987626 0.67563,1.093194 1.62285,1.987626 2.10493,1.987626 0.48208,0 0.87651,-0.894432 0.87651,-1.987626 z M 60.268034,94.566355 V -97.82996 l -7.9505,-7.76346 -7.9505,-7.76346 -0.0179,194.693795 -0.0179,194.693805 6.4777,5.4125 c 3.56274,2.97687 7.14853,5.43655 7.96842,5.46597 0.8199,0.0294 1.49072,-86.52487 1.49072,-192.342835 z m 5.4856,0.61223 c -0.432,-160.399054 -0.0733,-191.954122 2.19185,-192.823211 2.1669,-0.831388 2.21759,-1.630519 0.25354,-3.997064 -1.35017,-1.62686 -3.22295,-2.95792 -4.16174,-2.95792 -0.93883,0 -1.73181,88.096411 -1.76228,195.781135 -0.0373,131.658575 0.60792,195.781135 1.96988,195.781135 1.36487,0 1.85685,-62.53804 1.50875,-191.784075 z M 41.882144,-20.471428 c -0.29439,-53.376259 -0.53534,-10.287883 -0.53544,95.751953 -1.1e-4,106.039825 0.24076,149.711305 0.53525,97.047745 0.2945,-52.66357 0.29458,-139.423433 1.9e-4,-192.799698 z M 216.29665,-129.27794 c 74.3372,-14.64045 157.07212,-30.83558 183.85538,-35.98918 26.78326,-5.15359 50.00654,-10.60589 51.60729,-12.11622 2.47618,-2.33632 2.48845,-2.74605 0.0822,-2.74605 -4.43104,0 -375.947206,72.74941 -381.579636,74.72001 -4.46993,1.56388 1.74215,4.889 6.88447,3.68503 2.19547,-0.51403 64.813106,-12.91315 139.150306,-27.55359 z m -160.504116,16.61666 c -4.01951,-3.31322 -7.91099,-5.90887 -8.64772,-5.76811 -0.73674,0.14076 -2.06171,-0.9126 -2.94439,-2.34081 -0.88268,-1.4282 -2.19324,-2.00836 -2.91236,-1.28924 -0.71911,0.71911 2.94116,5.43668 8.13394,10.48349 6.68354,6.49566 10.06028,8.55714 11.56007,7.05735 1.49979,-1.49978 -0.0161,-3.87829 -5.18954,-8.14268 z m 138.640236,-19.5725 c 66.68484,-13.1383 152.23126,-29.96039 190.10314,-37.38243 l 68.85795,-13.49462 -6.24774,-7.11428 -6.24776,-7.11429 -194.78732,38.31398 c -107.13303,21.07268 -194.997796,38.36141 -195.255036,38.41939 -0.25724,0.058 2.87327,3.23664 6.95669,7.0637 4.87203,4.56615 8.79103,6.65543 11.39966,6.07732 2.18639,-0.48453 58.535566,-11.63048 125.220416,-24.76877 z m 43.61795,-27.15532 c 191.26757,-37.35657 195.08459,-38.13446 193.6909,-39.47291 -0.94809,-0.91052 10.85657,-3.16769 -206.30018,39.44662 -154.399576,30.29899 -186.355966,36.92715 -178.037156,36.92715 0.9417,0 86.732586,-16.60539 190.646436,-36.90086 z"
       style="fill:#000000;stroke-width:1.98762572" />
  </g>
</svg>
