<?xml version="1.0" encoding="UTF-8" standalone="no"?>
<!-- Created with Inkscape (http://www.inkscape.org/) -->

<svg
   xmlns:dc="http://purl.org/dc/elements/1.1/"
   xmlns:cc="http://creativecommons.org/ns#"
   xmlns:rdf="http://www.w3.org/1999/02/22-rdf-syntax-ns#"
   xmlns:svg="http://www.w3.org/2000/svg"
   xmlns="http://www.w3.org/2000/svg"
   xmlns:sodipodi="http://sodipodi.sourceforge.net/DTD/sodipodi-0.dtd"
   xmlns:inkscape="http://www.inkscape.org/namespaces/inkscape"
   width="500"
   height="500"
   viewBox="0 0 132.29166 132.29167"
   version="1.1"
   id="svg8"
   inkscape:version="0.92.4 (5da689c313, 2019-01-14)"
   sodipodi:docname="icon.svg">
  <defs
     id="defs2" />
  <sodipodi:namedview
     id="base"
     pagecolor="#ffffff"
     bordercolor="#666666"
     borderopacity="1.0"
     inkscape:pageopacity="0.0"
     inkscape:pageshadow="2"
     inkscape:zoom="1.3898629"
     inkscape:cx="254.97923"
     inkscape:cy="269.38455"
     inkscape:document-units="mm"
     inkscape:current-layer="layer1"
     showgrid="false"
     units="px"
     inkscape:window-width="1920"
     inkscape:window-height="1017"
     inkscape:window-x="-8"
     inkscape:window-y="-8"
     inkscape:window-maximized="1" />
  <metadata
     id="metadata5">
    <rdf:RDF>
      <cc:Work
         rdf:about="">
        <dc:format>image/svg+xml</dc:format>
        <dc:type
           rdf:resource="http://purl.org/dc/dcmitype/StillImage" />
        <dc:title></dc:title>
      </cc:Work>
    </rdf:RDF>
  </metadata>
  <g
     inkscape:label="Ebene 1"
     inkscape:groupmode="layer"
     id="layer1"
     transform="translate(0,-164.70832)">
    <path
       style="fill:#000000;stroke-width:0.50911206"
       d="m 45.93427,291.93716 c -14.852842,-3.94554 -31.404248,-20.64296 -34.379211,-34.6825 -0.924752,-4.36412 -0.922134,-4.97868 0.03494,-8.20149 0.566088,-1.90623 1.605923,-3.52634 3.7354,-5.81992 l 2.950937,-3.17835 -0.298893,-11.20046 -0.298893,-11.20047 11.554423,-11.96413 c 6.354933,-6.58027 17.008103,-17.52183 23.673711,-24.31456 l 12.11929,-12.35044 9.08586,4.90678 9.08586,4.90678 3.65391,-3.62953 c 2.00966,-1.99624 3.99848,-3.62953 4.41961,-3.62953 0.42113,0 1.2176,-0.3124 1.76992,-0.69422 1.69596,-1.17242 7.255446,-0.19102 11.588176,2.04561 4.97911,2.5703 12.14404,9.72857 14.5688,14.55526 2.216,4.41112 2.91368,10.02327 1.47365,11.85397 -0.50393,0.64064 -0.91624,1.3491 -0.91624,1.57435 0,0.22525 -0.94712,1.37458 -2.10471,2.55408 l -2.10471,2.14455 1.03042,9.91442 c 1.04649,10.06906 0.95175,13.08802 -0.49717,15.84378 -0.68014,1.29357 -40.792686,42.66058 -52.149466,53.78037 -5.61901,5.50175 -6.87723,6.48811 -8.92976,7.00029 -3.08084,0.76879 -5.587127,0.70945 -9.065854,-0.21464 z m 10.304924,-1.58644 c 3.62397,-2.1165 5.10318,-6.59381 4.00049,-12.10871 -0.81154,-4.05873 -4.51484,-11.49586 -7.68067,-15.42461 -2.744708,-3.40615 -3.238553,-4.41002 -1.406345,-2.85876 l 1.145505,0.96985 -0.97268,-1.14862 c -0.534973,-0.63174 -1.083089,-1.03821 -1.218038,-0.90326 -0.134948,0.13494 -1.613318,-1.02113 -3.285266,-2.56906 -6.033204,-5.58568 -13.15259,-10.01939 -18.671969,-11.62826 -3.918481,-1.14221 -8.881461,-1.05054 -11.48999,0.21222 -9.8390087,4.76298 -2.785516,24.85469 13.152665,37.46505 4.829056,3.82077 11.707309,7.52869 15.952052,8.59941 3.701845,0.93377 8.293366,0.66845 10.474246,-0.60525 z m 11.53313,-11.63282 c 0.75493,-2.71913 0.70532,-4.55044 -0.22042,-8.13659 -4.24055,-16.42721 -24.43478,-34.34368 -38.863052,-34.47959 -4.142028,-0.039 -6.121256,0.80695 -9.213386,3.93797 l -2.740883,2.77536 1.91234,-0.58692 c 4.59046,-1.40885 13.938115,1.49712 21.747613,6.76084 3.893333,2.62416 10.391404,8.79102 13.508688,12.82014 5.92259,7.655 9.33623,16.7809 8.32831,22.26459 l -0.41752,2.2716 2.70056,-2.81023 c 1.68029,-1.74853 2.91106,-3.56845 3.25775,-4.81717 z m -6.21691,2.22506 c -0.16252,-0.40613 -0.28316,-0.2855 -0.30759,0.30759 -0.0221,0.53669 0.0982,0.83738 0.2674,0.66821 0.16917,-0.16918 0.18726,-0.60829 0.0402,-0.9758 z m 32.90521,-27.77648 c 10.972076,-11.2694 20.329996,-21.23527 20.795396,-22.14637 0.4654,-0.91111 0.98857,-2.45841 1.16259,-3.43845 0.29443,-1.65819 -0.17077,-1.28126 -6.70098,5.42949 -3.85955,3.96626 -14.256276,14.61943 -23.103846,23.67371 -15.94444,16.31696 -16.08946,16.48466 -16.4244,18.99204 l -0.33791,2.52971 2.32996,-2.27516 c 1.28148,-1.25134 11.30712,-11.49557 22.27919,-22.76497 z m -0.76499,-5.13943 c 15.960916,-16.34075 22.971896,-23.85242 22.808516,-24.43738 -0.12972,-0.46452 -0.75583,-6.10292 -1.39135,-12.52979 l -1.15548,-11.68522 -6.13764,6.4224 c -3.3757,3.53232 -13.639126,14.08648 -22.807626,23.45369 l -16.66998,17.0313 0.86343,12.8042 c 0.47488,7.04231 0.99445,12.74332 1.15458,12.6689 0.16013,-0.0744 10.66113,-10.75207 23.33555,-23.7281 z m -24.49851,20.42053 c -0.12908,-0.49535 -0.24318,-0.21333 -0.25356,0.62671 -0.0104,0.84003 0.0952,1.24531 0.2347,0.90063 0.13945,-0.34468 0.14794,-1.03198 0.0189,-1.52734 z m -1.92524,-12.47084 -0.61764,-9.38547 -23.724181,-12.71226 -23.724177,-12.71226 -0.160768,5.11663 c -0.08842,2.81414 -0.01103,6.78367 0.17198,8.82117 l 0.332747,3.70455 1.693524,-1.48693 c 2.428604,-2.13234 4.878644,-2.79516 9.140591,-2.47283 4.669423,0.35315 10.528925,2.6032 15.817401,6.07389 7.763743,5.09514 16.377093,14.47947 19.847833,21.62442 0.83704,1.72315 1.59354,3.06135 1.68112,2.97378 0.0876,-0.0876 -0.11872,-4.38268 -0.45843,-9.54469 z m 1.42865,5.34059 c -0.11702,-0.77388 -0.2159,-0.26156 -0.21972,1.1385 -0.004,1.40006 0.0919,2.03324 0.21277,1.40706 0.12084,-0.62618 0.12397,-1.77168 0.007,-2.54556 z m -0.51515,-7.38913 c -0.12135,-0.63002 -0.22063,-0.11455 -0.22063,1.14551 0,1.26005 0.0993,1.77552 0.22063,1.1455 0.12135,-0.63003 0.12135,-1.66098 0,-2.29101 z m -22.760226,-0.0649 c 0,-0.10572 -0.400926,-0.50664 -0.890946,-0.89094 -0.807481,-0.63327 -0.825488,-0.61527 -0.192218,0.19222 0.665088,0.84805 1.083164,1.11774 1.083164,0.69872 z m 22.242766,-6.29896 c -0.12806,-0.49002 -0.23283,-0.0891 -0.23283,0.89095 0,0.98004 0.10477,1.38097 0.23283,0.89095 0.12805,-0.49002 0.12805,-1.29188 0,-1.7819 z m -1.62373,-3.52761 c -0.28001,-0.11345 -3.60196,-1.88964 -7.38212,-3.94709 -3.78016,-2.05745 -6.987566,-3.62014 -7.127571,-3.47267 -0.140006,0.14748 -0.02546,0.35527 0.254556,0.46177 0.280011,0.1065 3.601965,1.87485 7.382125,3.92968 3.78016,2.05482 6.98756,3.62321 7.12757,3.48531 0.14001,-0.13791 0.0255,-0.34356 -0.25456,-0.457 z m 12.98236,-10.71842 c 0,-0.36769 -0.6526,0.25318 -5.60933,5.33657 l -5.33658,5.47296 5.47296,-5.33658 c 3.01012,-2.93512 5.47295,-5.39795 5.47295,-5.47295 z M 25.697065,243.027 c -0.350015,-0.14124 -0.922766,-0.14124 -1.27278,0 -0.350015,0.14123 -0.06364,0.25679 0.63639,0.25679 0.700029,0 0.986404,-0.11556 0.63639,-0.25679 z m 47.606049,-5.39406 5.71497,-5.73123 -7.75972,-4.17993 -7.75973,-4.17994 -5.96832,5.94389 -5.968333,5.94388 4.695553,2.50935 c 2.58254,1.38014 5.84104,3.16036 7.2411,3.95605 1.40006,0.79568 2.89295,1.45175 3.31753,1.45793 0.42459,0.006 3.34372,-2.56782 6.48695,-5.72 z m -23.066847,-1.8676 c -0.824558,-0.80343 -15.050134,-8.29656 -15.291893,-8.05481 -0.197514,0.19752 14.930256,8.48247 15.546449,8.51426 0.126005,0.007 0.01146,-0.20025 -0.254556,-0.45945 z m 6.301467,-6.82272 c 4.44084,-4.45348 5.59829,-5.88678 5.08282,-6.29417 -0.36711,-0.29014 -3.8422,-2.19407 -7.72241,-4.23097 l -7.05493,-3.70344 -5.927427,5.98023 c -3.260085,3.28913 -5.698326,6.07667 -5.418315,6.19453 0.280012,0.11786 3.601968,1.9009 7.382125,3.96231 3.780157,2.06141 7.105851,3.7728 7.39043,3.80309 0.284579,0.0303 3.105047,-2.53993 6.267707,-5.71158 z m 54.800946,-28.85297 c 1.37315,-1.54006 -4.52213,4.3282 -13.100626,13.04059 -8.57848,8.71238 -16.22218,16.61634 -16.98598,17.56436 -1.66577,2.06751 26.511016,-26.59471 30.086606,-30.60495 z m -2.36363,0.94563 4.74745,-4.90507 -3.72923,-2.04645 C 107.9422,192.95821 96.985484,187.06388 85.645014,180.98525 L 65.025974,169.93314 48.117712,187.1751 c -9.299542,9.48308 -16.917132,17.37362 -16.927976,17.53454 -0.01084,0.16091 10.905533,6.14584 24.258618,13.29984 l 24.27833,13.00726 12.25046,-12.53821 c 6.73775,-6.89602 14.386806,-14.7455 16.997906,-17.44329 z m -42.167186,5.66314 c -11.34047,-6.10971 -20.619038,-11.31895 -20.619038,-11.57609 0,-0.25714 4.16087,-4.75701 9.246378,-9.99972 l 9.24638,-9.53219 21.1743,11.35499 c 11.64586,6.24524 21.116466,11.52339 21.045786,11.72921 -0.31138,0.9068 -18.341166,19.22873 -18.877276,19.18316 -0.32862,-0.0279 -9.87606,-5.04965 -21.21653,-11.15936 z m 38.850986,-8.15949 c -0.5367,-0.50838 -40.450046,-21.86843 -40.863306,-21.86843 -0.64941,0 -18.065784,18.5091 -17.583457,18.68666 0.277241,0.10207 9.553547,5.07907 20.614007,11.06002 l 20.10992,10.87444 9.06793,-9.18073 c 4.987366,-5.0494 8.882076,-9.35678 8.654906,-9.57196 z m -72.223282,28.0961 c -0.781575,-0.70708 -14.788539,-7.9041 -14.229682,-7.31146 0.637163,0.67567 13.571028,7.70028 14.229682,7.72838 0.305468,0.013 0.305468,-0.14057 0,-0.41692 z m 11.850827,-12.45198 c -0.0786,-0.23581 -3.538859,-2.25564 -7.689455,-4.4885 l -7.546536,-4.05975 -5.746556,6.00961 c -3.160606,3.30528 -5.712101,6.05086 -5.669989,6.10128 0.04211,0.0504 3.510002,1.93588 7.706422,4.18991 l 7.629855,4.09823 5.729589,-5.71101 c 3.151273,-3.14106 5.665275,-5.90395 5.58667,-6.13977 z m 75.487355,-16.34791 c 0,-0.27906 -1.1726,0.62952 -2.60577,2.01905 -1.43317,1.38953 -2.36837,2.06822 -2.07823,1.5082 0.29014,-0.56002 1.34818,-1.80774 2.3512,-2.77271 1.00303,-0.96497 1.82368,-1.9873 1.82368,-2.27186 0,-0.28456 -1.12925,0.59489 -2.50944,1.95433 -1.91935,1.89048 -2.49951,2.82143 -2.46716,3.95894 l 0.0423,1.48723 2.72172,-2.68791 c 1.49692,-1.47835 2.7217,-2.91622 2.7217,-3.19527 z m -2.59467,-1.00503 c 1.66687,-1.68785 2.5709,-2.98553 2.34006,-3.35904 -0.42919,-0.69444 -5.85474,4.36128 -5.85474,5.45565 0,1.15463 0.73944,0.71353 3.51468,-2.09661 z m 1.37635,-5.69162 c -0.29509,-0.76898 -0.70936,-0.54397 -2.81271,1.52776 -1.79222,1.76527 -2.39383,2.70806 -2.20029,3.44814 0.23522,0.8995 0.56408,0.72087 2.81271,-1.52775 1.85879,-1.8588 2.4529,-2.78985 2.20029,-3.44815 z m -3.50698,1.20455 c 2.63067,-2.59799 3.27289,-4.05107 2.10851,-4.7707 -0.88675,-0.54803 -6.58285,5.98121 -5.92339,6.78976 0.76463,0.93747 0.88644,0.87301 3.81488,-2.01906 z m -1.88576,-2.18858 c 2.75603,-2.78075 3.19715,-3.45945 2.72992,-4.20017 -0.30651,-0.48592 -0.79658,-0.88348 -1.08904,-0.88348 -0.29245,0 -1.95283,1.55087 -3.68972,3.44637 -2.61994,2.8592 -3.05139,3.57481 -2.53238,4.20018 0.34408,0.41458 0.77599,0.75379 0.9598,0.75379 0.18381,0 1.81345,-1.49251 3.62142,-3.31669 z m -6.11675,1.01309 c 0,-0.42695 -0.51547,-0.97539 -1.1455,-1.21876 -1.28378,-0.49592 -3.00952,-2.2602 -3.89991,-3.98704 -0.32485,-0.63002 -1.03315,-1.1455 -1.57399,-1.1455 -0.54084,0 -1.785186,-0.80185 -2.765226,-1.78189 -0.98004,-0.98004 -2.1224,-1.78189 -2.53858,-1.78189 -0.84073,0 -3.46213,-1.07056 -3.85927,-1.5761 -0.48281,-0.6146 -6.11038,-0.81798 -6.59155,-0.23822 -0.33022,0.3979 0.11336,0.50652 1.52046,0.37233 4.58758,-0.4375 12.835246,3.92022 17.636216,9.31823 2.58614,2.90774 3.21735,3.30774 3.21735,2.03884 z m 7.12757,-7.38027 c 0,-0.44211 -0.27776,-1.0816 -0.61724,-1.42108 -0.4836,-0.48359 -1.35787,0.11768 -4.03748,2.77676 -3.35816,3.33243 -3.4047,3.41509 -2.5647,4.55529 l 0.85552,1.16126 3.18195,-3.1342 c 1.75008,-1.72381 3.18195,-3.49593 3.18195,-3.93803 z m -10.69135,5.96078 c 0,-0.0876 -0.741,-0.83219 -1.64666,-1.65461 -0.90566,-0.82242 -1.24881,-1.01852 -0.76256,-0.43577 0.48626,0.58275 0.71178,1.2495 0.50116,1.48168 -0.21062,0.23218 -0.1124,0.26713 0.21827,0.0777 0.33066,-0.18947 0.74511,-0.11165 0.92099,0.17293 0.30184,0.48838 0.7688,0.7059 0.7688,0.35811 z m -3.77276,-2.33867 c -0.779726,-0.81386 -1.376246,-1.63481 -1.325606,-1.82432 0.0507,-0.18951 -0.0783,-0.49729 -0.28651,-0.68397 -0.20823,-0.18667 -0.20813,-0.0438 2.3e-4,0.31739 0.2853,0.49462 0.054,0.57527 -0.9366,0.32664 -2.10415,-0.52811 -1.523,0.51171 1.10285,1.97324 3.060736,1.7036 3.174016,1.69506 1.445636,-0.10898 z m 9.10028,-2.57484 c 3.46925,-3.49605 3.50518,-3.56 2.57655,-4.58613 -0.90129,-0.9959 -0.98445,-1.00216 -1.93441,-0.14558 -0.54595,0.49229 -2.13789,2.21557 -3.53764,3.82952 -2.10777,2.43032 -2.43711,3.06443 -1.91705,3.69106 0.34536,0.41614 0.77785,0.75661 0.96108,0.75661 0.18323,0 1.91639,-1.59546 3.85147,-3.54548 z m -0.62851,-4.25548 c 1.4431,-1.80669 1.49445,-2.00624 0.71648,-2.78421 -0.77796,-0.77796 -1.09059,-0.5874 -4.36183,2.65877 l -3.52381,3.49681 1.1078,0.90693 c 1.08027,0.8844 1.15001,0.8667 2.80732,-0.71259 0.93474,-0.89075 2.39906,-2.49531 3.25404,-3.56571 z m -13.099356,4.23718 c 0.17305,-0.28001 0.0856,-0.50911 -0.19447,-0.50911 -0.28001,0 -0.6507,0.2291 -0.82376,0.50911 -0.17306,0.28001 -0.0856,0.50911 0.19447,0.50911 0.28001,0 0.6507,-0.2291 0.82376,-0.50911 z m -1.27278,-0.99847 c 0,-0.48997 -2.7974,-1.55507 -4.02159,-1.5312 -0.44824,0.009 0.0858,0.56928 1.18672,1.24564 1.89053,1.16146 2.83487,1.25658 2.83487,0.28556 z m 1.78189,-0.52887 c -0.17306,-0.28001 -0.58751,-0.5056 -0.921,-0.50131 -0.36432,0.005 -0.30153,0.20478 0.15733,0.50131 0.97806,0.63208 1.15431,0.63208 0.76367,0 z m 8.138926,-3.04775 c 3.37952,-3.40562 3.48719,-3.58844 2.53191,-4.29912 -0.92707,-0.68969 -1.25727,-0.48558 -4.66362,2.88275 -3.300056,3.26323 -3.579496,3.69065 -2.800116,4.28292 0.476186,0.36186 0.986486,0.66522 1.134006,0.67412 0.14751,0.009 1.85654,-1.5844 3.79782,-3.54067 z m -10.175376,2.02953 c -0.17306,-0.28001 -0.58751,-0.5056 -0.92099,-0.50132 -0.36433,0.005 -0.30154,0.20478 0.15732,0.50132 0.97807,0.63208 1.15431,0.63208 0.76367,0 z m 10.356936,-7.98747 c -0.92418,-1.11357 -1.54554,-0.79538 -4.85818,2.48781 -3.016356,2.98954 -3.139036,3.20441 -2.336226,4.0915 0.8115,0.8967 0.99314,0.79155 4.297816,-2.4878 2.65196,-2.63164 3.32232,-3.57853 2.89659,-4.09151 z m -14.557116,6.60995 c -0.63002,-0.12135 -1.66097,-0.12135 -2.291,0 -0.63003,0.12135 -0.11455,0.22063 1.1455,0.22063 1.26005,0 1.77553,-0.0993 1.1455,-0.22063 z m 8.68333,-4.12309 c 3.321066,-3.34671 3.691176,-4.17252 1.870026,-4.17252 -0.962796,0 -7.258406,6.8163 -6.757896,7.31681 0.72559,0.7256 1.61608,0.15276 4.88787,-3.14429 z m 0.35341,-4.53964 c 0,-1.34934 -1.40213,-0.55027 -4.47528,2.55045 -2.50111,2.52354 -3.04124,3.33342 -2.55046,3.82419 0.49078,0.49078 1.30066,-0.0494 3.82419,-2.55045 1.76085,-1.7452 3.20155,-3.46609 3.20155,-3.82419 z m -5.85478,2.91268 c 1.94506,-1.96008 3.19282,-3.56378 2.7728,-3.56378 -0.42001,0 -2.35508,1.6037 -4.30014,3.56378 -1.94506,1.96008 -3.19283,3.56379 -2.77281,3.56379 0.42002,0 2.35508,-1.60371 4.30015,-3.56379 z m 0.98986,-4.0164 c -0.33313,-0.33313 -6.84465,6.12466 -6.84465,6.78816 0,0.28059 1.5972,-1.0748 3.54934,-3.01198 1.95214,-1.93718 3.43503,-3.63646 3.29531,-3.77618 z"
       id="path3815"
       inkscape:connector-curvature="0" />
  </g>
</svg>
