<?xml version="1.0" encoding="UTF-8" standalone="no"?>
<!-- Created with Inkscape (http://www.inkscape.org/) -->

<svg
   xmlns:dc="http://purl.org/dc/elements/1.1/"
   xmlns:cc="http://creativecommons.org/ns#"
   xmlns:rdf="http://www.w3.org/1999/02/22-rdf-syntax-ns#"
   xmlns:svg="http://www.w3.org/2000/svg"
   xmlns="http://www.w3.org/2000/svg"
   xmlns:sodipodi="http://sodipodi.sourceforge.net/DTD/sodipodi-0.dtd"
   xmlns:inkscape="http://www.inkscape.org/namespaces/inkscape"
   width="500"
   height="500"
   viewBox="0 0 132.29166 132.29167"
   version="1.1"
   id="svg8"
   inkscape:version="0.92.4 5da689c313, 2019-01-14"
   sodipodi:docname="icon.svg">
  <defs
     id="defs2" />
  <sodipodi:namedview
     id="base"
     pagecolor="#ffffff"
     bordercolor="#666666"
     borderopacity="1.0"
     inkscape:pageopacity="0.0"
     inkscape:pageshadow="2"
     inkscape:zoom="0.42657054"
     inkscape:cx="322.0882"
     inkscape:cy="275.94377"
     inkscape:document-units="mm"
     inkscape:current-layer="layer1"
     showgrid="false"
     units="px"
     inkscape:window-width="1920"
     inkscape:window-height="1003"
     inkscape:window-x="0"
     inkscape:window-y="0"
     inkscape:window-maximized="1" />
  <metadata
     id="metadata5">
    <rdf:RDF>
      <cc:Work
         rdf:about="">
        <dc:format>image/svg+xml</dc:format>
        <dc:type
           rdf:resource="http://purl.org/dc/dcmitype/StillImage" />
        <dc:title></dc:title>
      </cc:Work>
    </rdf:RDF>
  </metadata>
  <g
     inkscape:label="Layer 1"
     inkscape:groupmode="layer"
     id="layer1"
     transform="translate(0,-164.70832)">
    <path
       style="fill:#000000;stroke:#000000;stroke-width:0.56132412"
       d="m 82.557474,296.22034 c -0.770868,-0.28378 -2.613979,-1.32462 -4.0958,-2.31297 -1.481843,-0.98835 -3.392971,-1.95118 -4.246977,-2.13963 C 71.520018,291.17309 66.908331,287.37999 47.97445,270.18526 37.837315,260.97927 25.10153,249.45058 19.672704,244.56597 8.6834001,234.67829 7.706477,233.32169 7.6540581,227.87659 c -0.031535,-3.27199 2.2864205,-15.35125 2.7174289,-14.16123 0.108013,0.29805 -0.339492,2.75555 -0.994313,5.46112 -1.2889806,5.32569 -1.429111,6.40446 -0.7517585,5.78718 0.2413624,-0.21996 0.8741034,-2.13836 1.4060895,-4.26312 0.531987,-2.12477 0.983392,-3.37857 1.003114,-2.78619 0.01974,0.59234 -0.345602,2.53094 -0.811838,4.30799 -0.4662232,1.77704 -0.8517967,3.37189 -0.8568328,3.54412 -0.013785,0.47079 53.8292608,49.13199 54.0941618,48.88821 0.378548,-0.3484 -3.157793,-7.3816 -6.597755,-13.12183 -7.936746,-13.24397 -18.57313,-25.91483 -36.502028,-43.48386 -3.853569,-3.77625 -7.229251,-6.86589 -7.501521,-6.86589 -0.272268,0 -0.609466,0.42406 -0.749331,0.94238 -0.139881,0.5183 -0.16477,0.27597 -0.05527,-0.5385 0.109473,-0.81448 -0.05779,-1.48088 -0.3715,-1.48088 -0.313766,0 -0.591283,0.6664 -0.61669,1.48088 -0.02545,0.81447 -0.178924,1.17817 -0.341149,0.80822 -0.162223,-0.36999 -0.0013,-1.93204 0.357199,-3.47127 l 0.652144,-2.79861 -4.264908,-4.06773 c -4.8906503,-4.66455 -5.7189354,-5.83951 -5.7189354,-8.11264 0,-2.32478 1.9641457,-7.16805 4.2180425,-10.40095 C 13.854018,172.2332 27.698483,163.9356 34.88898,166.21063 c 2.313922,0.73212 11.335302,8.66669 11.321213,9.95733 -0.0053,0.48996 -0.182104,0.59908 -0.43884,0.27092 -0.934009,-1.19383 -3.607329,-1.86137 -5.209388,-1.3008 -0.861299,0.30139 -1.953356,0.41117 -2.42679,0.24397 -0.473446,-0.1672 -1.283771,0.0764 -1.800729,0.54127 -0.516956,0.4649 -1.423318,1.149 -2.014138,1.52025 -0.953533,0.59913 -0.828258,0.68137 1.115252,0.73206 1.251538,0.0327 1.875532,-0.12141 1.456637,-0.35969 -0.492318,-0.28003 -0.109613,-0.61674 1.166253,-1.02607 2.293817,-0.73592 5.790916,-0.78009 6.97991,-0.0882 0.822932,0.47889 3.65063,-0.76013 18.601183,-8.15057 5.062718,-2.50264 5.389835,-2.38146 12.944341,4.79544 19.574857,18.59646 34.304886,36.8378 43.381186,53.72228 4.33145,8.05776 5.82637,12.32879 5.83548,16.67201 0.005,2.28895 0.3277,3.08684 2.06184,5.09462 2.18878,2.53416 2.88838,4.19357 2.44054,5.7889 -0.17863,0.63632 -0.30053,0.44251 -0.34437,-0.54744 -0.15006,-3.38791 -3.60606,-6.27584 -7.51035,-6.27584 -2.28272,0 -7.42089,1.43632 -10.8424,3.03088 -1.52861,0.71239 -2.77929,1.17411 -2.77929,1.02601 0,-0.51975 5.64385,-2.89434 9.03686,-3.80213 2.21282,-0.59203 4.33869,-0.80238 5.99617,-0.59329 l 2.56789,0.32392 -1.57734,-1.90323 c -2.09399,-2.52666 -3.05,-2.92865 -6.96462,-2.92865 -12.50633,0 -33.904466,16.48001 -42.152412,32.46414 -3.847766,7.4568 -4.076766,12.389 -0.715667,15.41332 2.201902,1.98126 2.780188,2.07312 2.850753,0.4529 0.04135,-0.9489 0.169764,-0.83948 0.592313,0.50462 2.042802,6.49809 14.138816,5.56412 26.374183,-2.03643 5.11641,-3.17829 14.868,-12.32415 18.31894,-17.18106 3.65802,-5.14841 6.10567,-10.80361 6.13183,-14.16742 0.0138,-1.77519 0.22684,-2.47206 0.6774,-2.21581 1.02697,0.58416 0.18713,5.21028 -1.63275,8.99347 -7.64585,15.89439 -28.20254,31.71933 -41.03318,31.58813 -1.835786,-0.0188 -3.968501,-0.26632 -4.739368,-0.55011 z m -9.855249,-6.16288 c -1.642514,-1.05881 -2.541722,-4.08651 -2.098174,-7.06474 0.215461,-1.44671 0.12008,-2.34313 -0.249251,-2.34313 -0.963621,0 -1.466568,4.68024 -0.725129,6.74784 0.633837,1.76753 2.488621,3.48364 3.765116,3.48364 0.321826,0 0.01093,-0.37062 -0.692562,-0.82361 z m -3.966418,-3.619 c -0.195704,-0.96257 -0.108156,-2.76301 0.194625,-4.00096 0.505323,-2.06631 0.421757,-2.36434 -1.019212,-3.63489 -2.573138,-2.26882 -3.137991,-1.86462 -2.867052,2.05158 0.187701,2.71287 0.577576,3.84571 1.853297,5.385 0.888556,1.07217 1.745767,1.9494 1.904872,1.9494 0.159111,0 0.129225,-0.78756 -0.06651,-1.75013 z m 4.49473,-7.94287 c 5.327687,-15.25358 28.218893,-34.75928 42.304473,-36.04787 3.56095,-0.32576 3.88229,-0.43767 2.38256,-0.82971 -3.87533,-1.01308 -12.09237,1.7792 -19.95291,6.78026 -5.706236,3.63045 -14.49896,11.75203 -18.238546,16.84644 -1.627002,2.21645 -3.15969,3.86312 -3.405969,3.65927 -0.246278,-0.20385 -0.2512,-0.0571 -0.01093,0.32616 0.241395,0.38506 -0.006,1.31918 -0.553558,2.08789 -1.773055,2.49044 -4.382464,10.46794 -4.274317,13.06745 l 0.102173,2.45687 0.212241,-2.42326 c 0.116807,-1.33279 0.762379,-3.99837 1.434785,-5.9235 z M 36.744872,251.49928 C 21.842347,237.9841 9.4743892,227.02042 9.2605023,227.13552 c -0.2138737,0.11514 -0.5051617,-0.0951 -0.647333,-0.46719 -0.1421592,-0.37206 -0.1321379,0.6563 0.02226,2.28525 0.1543909,1.62897 0.6410902,3.77433 1.081548,4.76745 0.7311097,1.64851 10.2829647,10.49663 44.6937527,41.401 l 9.069292,8.14514 0.180186,-3.59742 0.18017,-3.59741 -27.095497,-24.57306 z m 31.693586,23.38078 C 66.069721,269.36514 59.97519,258.4533 56.171449,252.91685 47.38905,240.13377 36.93554,228.36541 19.922746,212.1087 c -5.392924,-5.15324 -5.542331,-5.24977 -6.261698,-4.04479 -0.667002,1.11726 -0.703197,1.03482 -0.381373,-0.86866 0.373448,-2.20877 -0.564697,-2.43923 -1.175714,-0.28886 -0.254204,0.89466 1.67951,3.0807 9.440657,10.67255 19.02733,18.61225 29.501198,31.39269 38.157535,46.56057 1.893712,3.31824 3.855439,7.11826 4.359382,8.44449 0.80216,2.11111 4.819104,6.21516 5.492402,5.61152 0.12246,-0.10983 -0.379454,-1.60181 -1.115479,-3.31546 z m 4.36762,0.7884 c 1.935975,-5.10066 3.382597,-7.93324 3.900981,-7.63838 0.280365,0.15946 0.336384,-0.12588 0.124446,-0.63412 -0.239592,-0.57459 -0.154771,-0.79293 0.224259,-0.57734 0.33526,0.1907 1.609241,-1.04176 2.831083,-2.7388 3.218104,-4.46966 14.457861,-14.58627 19.577746,-17.6214 2.413607,-1.43079 5.139157,-2.94009 5.460977,-3.24259 0.32181,-0.30247 -0.76669,-2.84391 -1.70532,-2.30617 -1.62494,0.93097 -1.10065,2.11425 -1.81584,1.21407 -0.69849,-0.87915 -1.472918,0.82303 -3.81242,2.48229 -7.238526,5.13388 -15.472335,13.40109 -18.30066,18.37494 -0.958175,1.68502 -1.840006,2.97359 -1.959638,2.86348 -0.119706,-0.11017 0.509401,-1.42938 1.397869,-2.93175 0.888468,-1.50236 1.45754,-2.87682 1.264633,-3.05437 -0.192918,-0.17756 -1.670192,2.06518 -3.28283,4.98382 -1.612636,2.91866 -2.945514,5.1281 -2.961948,4.90989 -0.01644,-0.21821 1.186197,-2.64982 2.672527,-5.40357 l 2.702441,-5.00685 -1.863524,-4.11976 c -2.537355,-5.60939 -9.242368,-16.26303 -15.211292,-24.16931 -8.382465,-11.10317 -16.520955,-20.14999 -29.013694,-32.25187 -2.906279,-2.81535 -5.657729,-5.60348 -6.114317,-6.19582 -0.456587,-0.59234 2.395592,1.95205 6.338184,5.65426 3.942594,3.70218 7.088989,6.46382 6.991999,6.137 -0.09702,-0.32684 -3.158231,-3.47707 -6.802738,-7.0005 l -6.62637,-6.40627 -3.409692,3.38195 c -1.875334,1.86005 -4.519549,4.94971 -5.876058,6.86587 -2.575627,3.63827 -3.544241,4.55205 -2.099305,1.98046 1.200206,-2.13602 5.777396,-7.63365 7.911043,-9.50189 1.716489,-1.50298 2.438175,-3.53413 1.255701,-3.53413 -0.302845,0 -1.929448,1.44163 -3.614685,3.20363 -1.685237,1.762 -3.31473,3.06105 -3.6211,2.8868 -0.30637,-0.17427 -0.436375,0.0163 -0.28889,0.42349 0.147472,0.40719 -0.476614,1.82115 -1.386884,3.14214 -2.815174,4.08541 -2.674766,4.35482 7.176077,13.76867 18.427817,17.6104 32.679852,35.24345 41.125367,50.88153 2.321315,4.29824 4.678298,8.90544 5.237772,10.23821 l 1.017231,2.42327 1.439897,-3.231 c 0.791953,-1.77706 1.441109,-3.33198 1.442607,-3.45538 8.95e-4,-0.1234 0.126174,-0.11077 0.27699,0.028 0.150854,0.13884 -0.369489,1.69377 -1.15633,3.45536 -1.50767,3.37537 -1.762823,4.54919 -0.988898,4.54919 0.258249,0 0.952408,-1.2722 1.542603,-2.82713 z m 16.438757,-24.92363 c 5.420963,-4.86008 12.349155,-9.69881 13.975415,-9.83517 0.70309,-0.0589 -0.60748,0.82179 -0.69304,0.47334 -0.0855,-0.34844 0.22633,-0.56145 0.69304,-0.47334 0.92102,0.17386 1.35507,-0.78498 0.47725,-1.05427 -0.80434,-0.24675 -7.093056,3.76503 -11.322793,7.22319 -4.096947,3.34958 -11.612765,10.92902 -11.625655,11.72406 -0.0048,0.27546 0.954716,-0.57269 2.131518,-1.88474 1.176801,-1.31206 4.040723,-4.08992 6.364265,-6.17307 z m 0.09117,-1.70665 c 7.034628,-6.35297 18.968105,-12.96399 24.463995,-13.97091 0.96543,-0.17687 -4.58925,2.01655 -3.51071,1.60009 -5.35747,1.96685 -4.97361,2.24232 -4.97361,2.75763 0,0.70102 -0.26258,0.43928 2.9257,-1.04764 1.58769,-0.74044 6.90099,-2.39037 7.31395,-2.38073 0.41298,0.01 -4.15813,1.57002 -5.66456,2.18163 -1.84155,0.74766 -2.63585,1.35947 -2.42415,1.8672 -1.04461,0.39056 -0.72592,0.39056 -1.04461,0.39056 -0.31871,0 -2.72452,-0.58062 -1.49646,2.77982 -0.29268,1.03013 1.14445,-0.33831 3.85268,-1.32077 6.34374,-2.30128 10.71022,-1.92284 14.13019,1.22461 l 1.86847,1.71962 -0.39052,-3.231 c -0.2148,-1.77706 -0.72199,-3.53646 -1.12712,-3.90979 -0.40514,-0.37334 -2.30425,-0.90898 -4.22026,-1.19033 l -3.48366,-0.51155 3.21813,0.2036 c 1.76998,0.11194 3.61309,0.30501 4.09582,0.42895 0.48271,0.12393 0.69498,0.12824 0.47171,0.01 -0.2233,-0.11869 -0.27039,-0.54098 -0.10473,-0.93844 0.58423,-1.40119 -9.09967,-17.92039 -15.63527,-26.67126 -3.47105,-4.64756 -10.132101,-12.60171 -15.107082,-18.03975 -7.81588,-8.54335 -21.673025,-21.99211 -23.275748,-22.58977 -1.071685,-0.39962 -2.10332,-0.18291 -4.724848,0.99255 -4.118187,1.84655 -22.854841,11.20687 -26.46587,13.22162 -1.448154,0.80799 -4.541959,2.50561 -6.8751,3.77249 -2.333152,1.26689 -4.242098,2.6662 -4.242098,3.10961 0,0.44337 3.239621,3.98987 7.199153,7.88108 9.241879,9.08239 14.124871,14.26578 20.361805,21.61442 6.715563,7.91255 14.094084,18.07179 13.740788,18.91916 -0.156737,0.37591 0.244049,1.24054 0.890638,1.92139 l 1.175624,1.23794 -1.019732,-1.6155 c -0.560867,-0.88851 -0.732954,-1.37317 -0.382424,-1.077 1.231163,1.04028 3.106206,4.65307 2.716292,5.23371 -0.253945,0.37814 -0.118497,0.43015 0.380785,0.14617 0.567403,-0.32273 0.671763,-0.1933 0.38967,0.48325 -0.211914,0.50824 -0.160574,0.79625 0.11414,0.64004 0.46401,-0.26392 5.808408,9.6239 6.804671,12.58947 0.434168,1.29242 0.497176,1.26216 2.803682,-1.34627 1.297751,-1.46759 4.560558,-4.65608 7.250677,-7.08552 z m 28.559795,-13.62259 -4.0958,-0.34832 3.80324,-0.0868 c 2.09179,-0.0478 4.19819,0.14806 4.68091,0.43519 0.48273,0.2871 0.61438,0.48292 0.29257,0.43514 -0.3218,-0.0478 -2.42823,-0.24358 -4.68092,-0.43514 z M 61.806694,222.35697 c -9.422435,-10.65376 -14.848677,-16.44124 -21.952377,-23.41376 -4.544705,-4.46078 -8.261337,-8.55993 -8.259164,-9.1092 0.0026,-0.73507 3.052984,-2.58079 11.556041,-6.99292 18.388003,-9.54135 23.989217,-12.1598 25.233798,-11.79625 0.613741,0.17927 2.370098,1.58991 3.903016,3.13473 1.532906,1.54482 4.673771,4.62622 6.979696,6.84752 8.501525,8.18954 21.952276,23.22476 21.952276,24.53819 0,1.05527 -1.08038,1.66907 -20.771618,11.80111 -7.299503,3.75592 -14.897522,7.27919 -15.697736,7.27919 -0.5059,0 -1.830668,-1.02987 -2.943932,-2.28861 z m 18.73228,-5.84981 c 15.533518,-7.80653 19.569766,-10.0342 19.908186,-10.98764 0.22786,-0.64198 -9.49818,-11.87015 -16.317953,-18.83817 -10.324108,-10.54853 -15.172542,-14.94338 -16.485662,-14.94338 -2.091539,0 -35.467221,16.96737 -35.467221,18.03065 0,0.30604 2.567199,3.092 5.704874,6.19102 8.160186,8.05965 15.999817,16.31698 21.099728,22.22396 4.276563,4.9533 5.242993,5.89782 6.052482,5.91524 0.210749,0.005 7.188242,-3.41172 15.505566,-7.59168 z m -5.036562,-5.69232 c -1.326795,-1.38725 -2.336564,-2.87053 -2.243908,-3.2962 0.274899,-1.26289 5.68747,-3.62132 6.821322,-2.97227 1.448992,0.82943 4.832616,5.08019 4.588525,5.76443 -0.28156,0.78916 -4.52756,3.00605 -5.779328,3.01743 -0.53582,0.005 -2.059791,-1.12615 -3.386611,-2.51339 z m 6.262455,-0.16436 c 1.045899,-0.58687 1.901635,-1.19109 1.901635,-1.34268 0,-0.15157 -0.945854,-1.23912 -2.10187,-2.41676 l -2.101857,-2.14115 -2.286506,1.07354 c -1.257585,0.59046 -2.286507,1.32391 -2.286507,1.62987 0,0.96017 3.176002,4.26836 4.0958,4.26626 0.482726,-8.2e-4 1.733418,-0.48218 2.779305,-1.06908 z m -16.66982,22.74574 c -6.890806,-9.69774 -23.71785,-29.24498 -24.530999,-28.49662 -0.154008,0.14175 2.358005,3.07925 5.582238,6.52779 6.232581,6.66616 13.189599,14.96702 17.803707,21.2427 1.545744,2.10237 2.930756,3.82249 3.077827,3.82249 0.147066,0 -0.722676,-1.39335 -1.932773,-3.09636 z M 13.097465,203.3308 c 0.195332,-0.46849 0.355156,-1.31661 0.355156,-1.88473 0,-0.56815 0.255981,-1.03297 0.568847,-1.03297 0.312877,0 1.142526,-1.22731 1.843697,-2.72734 0.701156,-1.50006 1.440124,-2.48123 1.642149,-2.18039 0.36079,0.53724 4.722039,-3.95097 4.722039,-4.85954 0,-0.86186 -1.124504,-0.47205 -1.752221,0.60741 -0.342752,0.5894 -0.93214,1.01346 -1.309776,0.94238 -0.377623,-0.0711 -0.724614,0.2342 -0.771082,0.67848 -0.209765,2.00555 -0.297358,2.19785 -0.85633,1.87992 -0.326488,-0.18571 -1.245468,0.95104 -2.042183,2.52609 -0.796728,1.57506 -1.451165,2.52037 -1.454307,2.10072 -0.0026,-0.41969 0.915839,-2.30604 2.042185,-4.19192 2.344259,-3.92509 2.547238,-4.62665 0.854884,-2.95486 -0.65616,0.6482 -1.446076,1.17854 -1.755349,1.17854 -0.309272,0 -0.562324,0.69431 -0.562324,1.54288 0,0.84859 -0.51334,2.1435 -1.14075,2.87757 -0.627415,0.7341 -1.105871,1.79666 -1.063234,2.36125 0.04267,0.56461 -0.107344,1.69296 -0.333169,2.50744 -0.433487,1.56295 0.405004,2.08429 1.011768,0.62907 z m -5.3783053,-6.82968 -4.4955475,-4.18121 -0.4321473,1.48712 c -0.3881587,1.33575 -0.00398,1.88436 3.7794939,5.38927 4.1087152,3.80677 4.2291232,3.87261 4.9276952,2.69408 0.660746,-1.11472 0.368796,-1.531 -3.7794943,-5.38926 z m -1.0275258,1.64328 c -2.2350112,-2.11949 -3.1420892,-3.12634 -2.0157435,-2.23739 4.0386694,3.18739 6.6424746,5.57281 6.3633936,5.82965 -0.156207,0.14377 -2.1126533,-1.47275 -4.3476501,-3.59226 z m 5.4115711,-0.19833 c 0.102584,-0.28325 -1.779418,-2.31221 -4.1822327,-4.50884 -3.6241491,-3.31315 -4.4365013,-3.83142 -4.7661591,-3.04079 -0.2959929,0.70991 0.6281547,1.90423 3.6219083,4.68074 3.7787785,3.5046 4.8811875,4.09835 5.3264835,2.86889 z m 1.742175,-1.61785 c 0.243708,-0.58451 -1.003485,-2.11352 -3.9532504,-4.84651 -2.3701041,-2.19594 -4.4851826,-3.99261 -4.7001553,-3.99261 -0.2149874,0 -0.5612528,0.4086 -0.7694797,0.908 -0.2726793,0.65397 0.8106849,2.00987 3.8722825,4.84649 2.3379919,2.16617 4.4632099,3.9385 4.7227299,3.9385 0.259519,0 0.632064,-0.38423 0.827873,-0.85387 z m 1.626113,-3.97224 c -0.147605,-0.1593 -2.165615,-2.03398 -4.48448,-4.16597 -3.2042099,-2.94597 -4.3972871,-3.73793 -4.9710496,-3.29969 -1.3225779,1.0102 -0.847183,1.784 3.3541721,5.45964 3.6296895,3.17551 4.2410135,3.51916 5.2394355,2.94531 0.62166,-0.35732 1.009527,-0.77998 0.861922,-0.93929 z m 2.088119,-1.65512 c 0.563014,-0.96818 0.107098,-1.56272 -3.903177,-5.08964 -3.454953,-3.03855 -4.7216934,-3.85511 -5.2978138,-3.41507 -0.4164297,0.31807 -0.7571537,0.84585 -0.7571537,1.17285 0,0.65617 8.1958125,8.42809 8.8877835,8.42809 0.238089,0 0.719751,-0.4933 1.070361,-1.09623 z m 2.533259,-0.30135 c -0.139668,-0.76815 0.947552,-2.37481 1.510328,-2.23193 0.280022,0.0711 0.544379,-0.11306 0.587441,-0.40924 0.152269,-1.04706 5.585722,-5.67024 6.347766,-5.40112 0.425216,0.15018 0.620414,0.0456 0.433777,-0.23228 -0.41741,-0.62158 1.716941,-1.74855 2.298296,-1.21352 0.23003,0.21171 0.330479,0.0517 0.223204,-0.35551 -0.107216,-0.40723 0.170748,-0.86274 0.617805,-1.01225 0.470875,-0.15743 0.651972,-0.0323 0.430476,0.29761 -0.210295,0.31316 0.213835,1.18706 0.942506,1.94199 l 1.324871,1.37262 3.384656,-1.79075 c 4.090317,-2.16412 3.610868,-3.13466 -1.386128,-2.80591 -1.742813,0.11465 -3.46451,-0.0144 -3.825991,-0.28663 -0.799815,-0.60248 -2.559365,-0.0587 -2.564905,0.79274 -0.004,0.69476 -3.511348,3.03877 -4.54627,3.03877 -0.37102,0 -0.979336,0.54524 -1.351789,1.21161 -0.957043,1.71233 -3.545659,4.17339 -4.38969,4.17339 -0.391033,0 -1.000025,0.76313 -1.353327,1.69586 -0.804613,2.12423 -0.829623,2.00363 0.3816,1.84003 0.563171,-0.0761 0.984091,-0.35753 0.935374,-0.62548 z m 15.00903,-9.10316 c -0.400617,-0.44427 -1.047234,-0.80775 -1.436917,-0.80775 -1.38654,0 -0.682534,-1.34773 0.746497,-1.42905 1.007911,-0.0574 1.209804,0.0566 0.657101,0.371 -0.650421,0.36996 -0.596187,0.65884 0.293554,1.56367 0.600257,0.61043 0.951145,1.10988 0.779764,1.10988 -0.171369,0 -0.639382,-0.3635 -1.039999,-0.80775 z m -8.776731,8.23905 c 0,-0.86991 -0.173026,-1.02547 -0.651163,-0.58543 -0.358138,0.32961 -0.474241,0.86272 -0.25802,1.1847 0.605239,0.90129 0.909183,0.70094 0.909183,-0.59927 z m 3.656965,-3.90413 c 4.082472,-2.07184 4.457709,-2.46987 3.218137,-3.41368 -0.800453,-0.6095 -3.992942,-0.61488 -3.584545,-0.005 0.322964,0.48145 -3.24711,2.90319 -3.989645,2.70634 -0.306966,-0.0814 -0.409802,0.0729 -0.228519,0.34287 0.181284,0.26996 -0.07448,0.79942 -0.568262,1.17661 -0.493816,0.37718 -0.76248,1.01045 -0.597036,1.40727 0.16546,0.39681 0.04573,0.72147 -0.265919,0.72147 -0.311713,0 -0.566752,0.28456 -0.566752,0.63237 0,0.34781 0.592423,0.13845 1.316508,-0.46522 0.724072,-0.60367 3.093792,-1.99956 5.266033,-3.10198 z m -13.772442,-2.85404 c -2.304818,-2.14727 -4.517019,-3.90414 -4.916019,-3.90414 -0.399001,0 -0.988296,0.45199 -1.3095248,1.00441 -0.4906084,0.84366 0.083358,1.61259 3.5863758,4.80481 4.090358,3.72742 4.195991,3.7831 5.500093,2.89972 l 1.329643,-0.90068 z m 7.558192,0.84251 1.868706,-2.44492 -4.315059,-3.94479 c -4.278161,-3.91104 -4.325462,-3.93613 -5.529196,-2.93357 l -1.214123,1.01124 4.556962,4.30475 4.556966,4.30475 -4.593916,-3.86831 c -2.526654,-2.12756 -4.767219,-3.8683 -4.979013,-3.8683 -0.211806,0 -0.735974,0.51709 -1.16482,1.14907 -0.723117,1.06565 -0.468648,1.43727 3.505224,5.11912 2.356719,2.18355 4.54473,3.89037 4.862261,3.79295 0.317519,-0.0974 1.418216,-1.27732 2.446008,-2.62199 z m 4.837995,-3.33413 c 0.532754,-0.5908 -0.238909,-1.54836 -3.797149,-4.71188 -4.395853,-3.9082 -5.026778,-4.19825 -6.569327,-3.02003 -0.614569,0.46941 0.114774,1.40636 3.508683,4.50741 4.329665,3.95604 5.64176,4.57298 6.857793,3.2245 z m 2.953689,-2.89139 c 0.143495,-0.0925 -1.67848,-1.965 -4.048836,-4.16116 -3.585727,-3.32223 -4.489648,-3.90442 -5.380677,-3.46556 -0.589003,0.29012 -1.070931,0.73333 -1.070931,0.98492 0,0.25158 1.903761,2.16501 4.230567,4.25205 3.467663,3.11034 4.390925,3.68312 5.119767,3.17625 0.489058,-0.3401 1.006598,-0.69402 1.15011,-0.7865 z m 13.171748,-0.17383 c -0.410109,-0.6107 -4.794881,-0.59604 -6.411279,0.0214 -0.827661,0.31618 -0.258963,0.44752 1.942664,0.44867 1.712088,8.3e-4 3.262802,0.13959 3.44602,0.30822 0.510925,0.47021 1.404378,-0.20983 1.022595,-0.77833 z M 34.51531,176.73134 c 0.703515,-0.40932 -0.04175,-1.29389 -3.781668,-4.48858 -3.151804,-2.69232 -4.995925,-3.89744 -5.703402,-3.72717 -0.57505,0.13838 -1.045539,0.3994 -1.045539,0.58002 0,0.57287 8.428069,8.16235 9.054647,8.15374 0.329869,-0.004 0.994048,-0.23764 1.475962,-0.51801 z m 2.163017,-1.94151 c 0.102714,-0.28362 -1.635868,-2.18028 -3.863548,-4.21477 -3.016869,-2.75524 -4.314584,-3.60577 -5.085931,-3.33336 -0.859086,0.3034 -0.29594,1.05103 3.304007,4.38645 4.075621,3.77613 5.195737,4.40342 5.645472,3.16168 z m 3.1045,-0.10358 c 0,-0.68878 -8.453951,-8.19864 -9.229328,-8.19864 -1.31252,0 -0.751706,0.75086 3.509809,4.69921 3.79622,3.51726 5.719519,4.69401 5.719519,3.49943 z m -2.544854,-4.87781 c -2.437869,-2.24364 -4.625644,-3.90161 -4.861704,-3.68434 -0.570635,0.52515 8.04069,8.47669 8.745756,8.07566 0.30164,-0.17158 -1.446181,-2.14767 -3.884052,-4.39132 z m 6.640659,4.01486 c 0,-0.11184 -0.460775,-0.5359 -1.023948,-0.94239 -0.928031,-0.66981 -0.94872,-0.65077 -0.220911,0.20333 0.764376,0.89699 1.244859,1.18227 1.244859,0.73906 z M 84.01106,294.07076 c -5.68134,-6.21396 4.968996,-24.03448 20.93355,-35.02675 4.82074,-3.3193 12.31693,-6.95626 14.24061,-6.90922 0.57806,0.0142 -0.0121,0.36913 -1.30998,0.78887 -13.02684,4.21071 -29.269644,19.10689 -33.700582,30.9066 -2.143659,5.70861 -0.986192,10.88556 2.575359,11.51869 1.291742,0.22963 1.292154,0.23272 0.04051,0.3053 -0.760057,0.0441 -1.868783,-0.5876 -2.779293,-1.58349 z m -6.147368,-6.95917 c -0.04486,-2.10995 3.50189,-9.60065 6.532264,-13.79584 5.636432,-7.8029 16.401624,-17.48719 23.260294,-20.92478 1.41348,-0.70842 0.0781,0.31738 -4.74732,3.64656 -5.01388,3.45926 -12.458831,10.38196 -16.266019,15.12497 -3.208916,3.99767 -6.787902,10.49479 -7.895794,14.33358 -0.484358,1.67832 -0.867198,2.37836 -0.883425,1.61551 z m 50.373958,-32.89775 c -0.40205,-0.5925 -1.31364,-1.29309 -2.02575,-1.55688 -0.83659,-0.30989 -0.96851,-0.49168 -0.37278,-0.51374 0.95104,-0.0352 3.87532,2.46151 3.3978,2.901 -0.14755,0.13577 -0.59722,-0.23787 -0.99927,-0.83038 z m -6.67809,-2.48561 c 0.72784,-0.1288 1.78104,-0.1239 2.34047,0.0109 0.55941,0.13478 -0.0361,0.24017 -1.32334,0.23419 -1.28725,-0.005 -1.74496,-0.1162 -1.01713,-0.24505 z M 11.226226,215.22185 c 0.01197,-0.88855 0.143058,-1.18684 0.291408,-0.6629 0.148361,0.52396 0.138606,1.25093 -0.02172,1.61552 -0.160277,0.36458 -0.281654,-0.0641 -0.269726,-0.95262 z"
       id="path3778"
       inkscape:connector-curvature="0"
       sodipodi:nodetypes="cccsscccccccccscsccsccccsscscccccccccccscccccscscccsssccsscccccccccscsccccccscccsccccccccccccccccscccccccscccscccccccccccccsccccccsccssssccccccsssccsscscccccsccccccccccccccsscscsccccscccccccsscsccssccccccccccccccccccccccscscscssscscssssccscscccccscccsccccscsccssccscccsccscssccccscsccsccccccsccccsccsccccscccccssccccccccccccccccscscccsscccsssccscccccccssccccsccccccccccccsssscccscsccscsccccccccccccscccccscsscssccssccsccccscccccccccccccccccccccccccc" />
  </g>
</svg>
