<?xml version="1.0" encoding="UTF-8" standalone="no"?>
<svg
   xmlns:dc="http://purl.org/dc/elements/1.1/"
   xmlns:cc="http://creativecommons.org/ns#"
   xmlns:rdf="http://www.w3.org/1999/02/22-rdf-syntax-ns#"
   xmlns:svg="http://www.w3.org/2000/svg"
   xmlns="http://www.w3.org/2000/svg"
   id="svg8"
   version="1.1"
   viewBox="0 0 500 500"
   height="500mm"
   width="500mm">
  <defs
     id="defs2" />
  <metadata
     id="metadata5">
    <rdf:RDF>
      <cc:Work
         rdf:about="">
        <dc:format>image/svg+xml</dc:format>
        <dc:type
           rdf:resource="http://purl.org/dc/dcmitype/StillImage" />
        <dc:title></dc:title>
      </cc:Work>
    </rdf:RDF>
  </metadata>
  <g
     transform="translate(0,203)"
     id="layer1">
    <path
       id="path75"
       d="M 70.422563,278.69618 V 260.11921 H 59.069967 47.71737 V 242.57428 225.02936 H 36.364774 25.012179 V 102.66043 -19.708517 L 36.364774,-30.920094 47.71737,-42.131672 v -29.038539 -29.038539 l 11.352597,-11.21159 11.352596,-11.21157 v -28.90818 -28.90817 l 11.293047,-11.41246 11.293048,-11.41244 190.989582,0.53724 190.98958,0.53724 V 35.608765 273.41622 l -11.80403,11.92846 -11.804,11.92848 H 260.90117 70.422563 Z m 379.344737,-11.25725 0.58083,-26.73807 -5.22508,4.90869 c -4.32216,4.06048 -5.22509,6.80832 -5.22509,15.9015 v 10.99281 h -31.99367 -31.99368 v -6.19233 -6.19232 h -18.57698 -18.57697 v 6.19232 6.19233 H 306.76298 274.7693 v -6.29083 -6.2908 l -12.90068,0.6145 c -12.36358,0.58894 -12.92787,0.85085 -13.5538,6.29083 l -0.65313,5.6763 h -30.68743 -30.68742 l -0.65313,-5.6763 -0.65313,-5.6763 H 166.4036 147.82663 l -0.65313,5.6763 -0.65313,5.6763 H 115.83295 85.145521 l -0.653128,-5.6763 c -0.512995,-4.45841 -1.871014,-5.81643 -6.329431,-6.32943 l -5.676293,-0.65312 v 16.30594 c 0,8.96829 0.624112,16.93006 1.386922,17.69287 0.762811,0.76283 85.520269,1.14985 188.349909,0.86006 L 449.18645,294.177 Z M 472.9237,36.318612 V -198.98976 l -10.32054,10.16536 -10.32054,10.16535 v 29.04563 29.04562 l -11.35259,11.21158 -11.3526,11.211577 v 29.03854 29.03854 l -11.3526,11.211577 -11.35259,11.211577 V 100.59632 c 0,65.03239 0.66472,118.24072 1.47718,118.24072 0.81245,0 5.92111,-4.37711 11.35259,-9.72694 l 9.87542,-9.72692 v 28.74942 28.74942 l 11.3526,-11.21158 11.35259,-11.21157 v 28.74941 28.74942 l 10.32054,-10.16535 10.32054,-10.16537 z M 144.73046,265.99162 c 0,-4.17853 -0.22878,-4.24109 -3.77471,-1.03206 -5.25702,4.75754 -14.66812,4.26171 -20.34552,-1.07194 l -4.77728,-4.48803 -4.77728,4.48803 c -5.67741,5.33365 -15.0885,5.82948 -20.345529,1.07194 -3.545935,-3.20903 -3.774716,-3.14647 -3.774716,1.03206 0,4.34294 0.683299,4.44813 28.897525,4.44813 28.21422,0 28.89751,-0.10527 28.89751,-4.44813 z m 101.14131,0 c 0,-4.17853 -0.22878,-4.24109 -3.77471,-1.03206 -5.25704,4.75754 -14.66811,4.26171 -20.34552,-1.07194 l -4.77728,-4.48803 -4.77728,4.48803 c -5.6774,5.33365 -15.0885,5.82948 -20.34551,1.07194 -3.54594,-3.20903 -3.77473,-3.14647 -3.77473,1.03206 0,4.34294 0.6833,4.44813 28.89752,4.44813 28.21422,0 28.89751,-0.10527 28.89751,-4.44813 z m 90.82077,0 c 0,-4.17853 -0.22878,-4.24109 -3.77471,-1.03206 -5.39535,4.88274 -15.84488,4.33989 -20.89957,-1.08566 l -4.19401,-4.50176 -4.79188,4.50176 c -5.69041,5.34586 -15.09835,5.84751 -20.36014,1.08566 -3.54593,-3.20903 -3.77472,-3.14647 -3.77472,1.03206 0,4.34294 0.68331,4.44813 28.89752,4.44813 28.21422,0 28.89751,-0.10527 28.89751,-4.44813 z m 101.14132,-1.17143 v -5.61954 l -3.2132,4.58749 c -4.34435,6.20243 -15.72019,6.24789 -21.46109,0.0859 l -4.194,-4.50175 -4.79189,4.50175 c -5.58081,5.24291 -16.1878,5.9616 -20.74381,1.40558 -4.14822,-4.1483 -5.45515,-3.90104 -5.45515,1.03195 0,3.93842 1.37607,4.12822 29.92957,4.12822 h 29.92957 z m -330.31712,-0.49214 c 1.67001,-1.05614 2.31614,-2.64051 1.43585,-3.52082 -0.8803,-0.88028 -2.36278,-0.3672 -3.2944,1.1402 -1.1857,1.91849 -2.11745,2.05535 -3.10575,0.45625 -1.69731,-2.7463 -11.488802,-3.0807 -11.488802,-0.39237 0,3.98132 11.304142,5.57303 16.453102,2.31674 z m 31.0214,-1.11268 c 1.77535,-2.13916 1.85347,-3.09616 0.25274,-3.09616 -1.27426,0 -2.31684,1.11462 -2.31684,2.47692 0,1.9265 -0.55044,1.9265 -2.47694,0 -2.90072,-2.9007 -11.97183,-3.34383 -11.97183,-0.58482 0,4.66218 12.86438,5.60022 16.51287,1.20406 z m 70.11991,1.11268 c 1.67001,-1.05614 2.31614,-2.64051 1.43585,-3.52082 -0.8803,-0.88028 -2.36278,-0.3672 -3.2944,1.1402 -1.18568,1.91849 -2.11744,2.05535 -3.10575,0.45625 -1.6973,-2.7463 -11.48879,-3.0807 -11.48879,-0.39237 0,3.98132 11.30414,5.57303 16.45309,2.31674 z m 26.38997,-0.59665 c -0.9745,-2.96782 -11.88144,-4.83057 -11.88144,-2.02921 0,3.11516 2.50916,4.60934 7.74041,4.60934 3.06638,0 4.66185,-0.99408 4.14103,-2.58013 z m 64.4308,0.59665 c 1.67001,-1.05614 2.31614,-2.64051 1.43586,-3.52082 -0.88031,-0.88028 -2.36279,-0.3672 -3.29441,1.1402 -1.18568,1.91849 -2.11743,2.05535 -3.10576,0.45625 -1.69729,-2.7463 -11.48878,-3.0807 -11.48878,-0.39237 0,3.98132 11.30415,5.57303 16.45309,2.31674 z M 326.372,264.1256 c 0,-1.20226 0.92886,-1.61186 2.06412,-0.91023 1.13526,0.70163 2.0641,0.4894 2.0641,-0.47163 0,-0.96102 -3.71539,-1.89547 -8.25643,-2.07656 -7.76607,-0.30969 -10.04473,1.10389 -6.88035,4.26827 2.22252,2.22254 11.00856,1.57617 11.00856,-0.80985 z m 69.67649,-0.3942 c -0.97452,-2.96782 -11.88144,-4.83057 -11.88144,-2.02921 0,3.11516 2.50914,4.60934 7.7404,4.60934 3.06638,0 4.66185,-0.99408 4.14104,-2.58013 z m 31.46482,0.3942 c 0,-1.20226 0.92886,-1.61186 2.06412,-0.91023 1.13525,0.70163 2.06411,0.4894 2.06411,-0.47163 0,-0.96102 -3.7154,-1.89547 -8.25644,-2.07656 -7.76606,-0.30969 -10.04473,1.10389 -6.88035,4.26827 2.22252,2.22254 11.00856,1.57617 11.00856,-0.80985 z m -186.8018,-1.94228 c 0.70163,-1.13527 0.29203,-2.06411 -0.91024,-2.06411 -1.20225,0 -2.18592,0.92884 -2.18592,2.06411 0,1.13526 0.4096,2.0641 0.91022,2.0641 0.50063,0 1.48431,-0.92884 2.18594,-2.0641 z m 186.8018,-29.92958 c 0,-14.79085 -0.83088,-25.80135 -1.94707,-25.80135 -4.37539,0 -8.37347,9.58198 -8.37347,20.06831 v 10.89332 h -31.55901 -31.55903 l 0.0814,-5.67631 0.0814,-5.6763 -19.09301,-0.59349 -19.09299,-0.59347 v 6.26977 6.2698 h -30.96169 -30.96163 v -6.19233 -6.19233 H 239.67945 225.2307 v 6.19233 6.19233 h -30.96163 -30.96163 v -6.19233 -6.19233 h -18.57698 -18.57697 v 6.19233 6.19233 H 94.159726 62.166044 v -6.19233 c 0,-5.5043 -0.688032,-6.19233 -6.19233,-6.19233 h -6.19232 v 16.51287 16.51286 H 238.64732 427.51323 v -25.80135 z m -305.48804,-2.06411 v -5.16027 H 93.127755 64.230233 v 5.16027 5.16027 h 28.897522 28.897515 z m 101.14131,0 v -5.16027 h -28.89751 -28.89752 v 5.16027 5.16027 h 28.89752 28.89751 z m 90.82077,0 v -5.16027 h -28.89751 -28.89752 v 5.16027 5.16027 h 28.89752 28.89751 z m 101.14131,-3.41608 c 0,-8.17787 -0.17545,-8.41761 -3.77471,-5.16027 -3.0772,2.78483 -8.4171,3.41608 -28.89751,3.41608 h -25.12281 v 5.16027 5.16027 h 28.89752 28.89751 z M 404.80812,102.20405 V -18.557163 L 216.45824,-18.030275 28.108338,-17.503389 27.575679,102.73094 27.04302,222.96525 H 215.92558 404.80812 Z M 37.396827,195.09979 V 177.55487 H 70.422563 103.4483 v 17.54492 17.54492 H 70.422563 37.396827 Z m 32.60013,0.51603 -0.606447,-14.96479 H 54.941743 40.492987 l -0.606458,14.96479 -0.606448,14.96478 h 15.661662 15.661673 z m -21.877192,7.7404 c 0.04207,-3.40577 0.504663,-4.54917 1.028011,-2.54086 0.523337,2.00832 0.488918,4.79487 -0.07651,6.19233 -0.565419,1.39746 -0.993602,-0.24569 -0.951541,-3.65147 z m 11.883698,3.03461 c -2.588372,-1.60026 -2.543043,-2.30796 0.33206,-5.18386 3.063792,-3.06465 3.419156,-2.98835 4.450467,0.95535 1.328126,5.07878 -0.620503,6.80167 -4.782527,4.22851 z m 0.500951,-15.41926 c 0.04207,-3.40578 0.504674,-4.54917 1.028011,-2.54086 0.523338,2.00832 0.488929,4.79487 -0.07651,6.19233 -0.565418,1.39746 -0.993601,-0.24569 -0.951541,-3.65147 z m -14.611718,-2.58013 c 0.183523,-4.35072 0.480308,-4.71224 1.270836,-1.54808 0.567264,2.27052 2.085008,4.81062 3.372754,5.64469 1.485902,0.96241 1.021587,1.52802 -1.270836,1.54808 -2.629401,0.0229 -3.547049,-1.51278 -3.372754,-5.64469 z m 55.491484,6.70835 V 179.61897 H 86.935425 72.486669 v 15.48082 15.48081 h 14.448756 14.448755 z m -22.302786,8.25643 c 0.04207,-3.40577 0.504663,-4.54917 1.028011,-2.54086 0.523337,2.00832 0.488918,4.79487 -0.07651,6.19233 -0.565419,1.39746 -0.993612,-0.24569 -0.951542,-3.65147 z m 11.518713,4.0087 c -1.660423,-1.66042 0.606624,-9.16897 2.76838,-9.16897 1.002861,0 1.823375,0.85289 1.823375,1.89529 0,1.04241 0.563799,3.36453 1.252894,5.16027 1.204811,3.13971 -3.218794,4.73928 -5.844649,2.11341 z m 1.648761,-14.6744 c -0.726308,-1.89273 -0.361262,-4.40062 0.811213,-5.5731 1.4663,-1.46628 2.131781,-0.39201 2.131781,3.44133 0,6.36746 -1.031022,7.1143 -2.942994,2.13177 z m -15.352885,-4.29908 c 0.2314,-4.6729 0.436278,-4.87778 1.158977,-1.15896 0.482844,2.48452 2.44626,4.93111 4.363149,5.43686 2.469378,0.6515 2.131565,0.9893 -1.158977,1.15896 -3.810486,0.1965 -4.593785,-0.7796 -4.363149,-5.43686 z m 57.513947,6.70835 v -17.54492 h 33.02572 33.02574 v 17.54492 17.54492 h -33.02574 -33.02572 z m 33.02572,1.03205 v -14.44876 h -15.48081 -15.4808 v 14.44876 14.44876 h 15.4808 15.48081 z m -24.63873,9.13116 c 2.23776,-2.69632 2.19267,-3.57458 -0.26328,-5.12865 -2.43789,-1.54262 -2.32694,-1.88079 0.62562,-1.90679 2.57297,-0.0227 3.46816,1.42931 3.16199,5.12866 -0.23603,2.85186 -1.72379,5.16027 -3.32577,5.16027 -2.40489,0 -2.43872,-0.55426 -0.19855,-3.25349 z m 10.59938,-0.33598 c 1.16735,-1.40656 2.93543,-2.05496 3.92905,-1.44087 0.99362,0.6141 1.25343,-0.32498 0.57734,-2.08683 -0.67608,-1.76186 -0.20102,-3.20337 1.0557,-3.20337 1.25672,0 2.28494,2.08991 2.28494,4.64424 0,3.53419 -1.19145,4.64425 -4.98474,4.64425 -3.73014,0 -4.45055,-0.64367 -2.86229,-2.55742 z M 142.13384,192.7062 c 1.86433,-0.7531 1.98528,-2.11628 0.4434,-4.9973 -1.45585,-2.7203 -1.45068,-3.96171 0.0165,-3.96171 1.17521,0 2.13673,0.85289 2.13673,1.89528 0,1.04242 0.56381,3.36454 1.2529,5.16028 0.87475,2.27955 0.096,3.21579 -2.58014,3.10203 -2.14366,-0.0913 -2.70313,-0.61938 -1.26938,-1.19858 z m 13.31956,-3.79874 c 0.0421,-3.40578 0.50467,-4.54917 1.02802,-2.54086 0.52334,2.00832 0.48892,4.79486 -0.0765,6.19233 -0.56542,1.39747 -0.9936,-0.24569 -0.95154,-3.65147 z m 42.94388,7.22438 v -14.44876 h -14.44875 -14.44876 v 14.44876 14.44876 h 14.44876 14.44875 z m -24.7693,10.44237 c 0,-1.06826 0.92885,-2.51636 2.06411,-3.21799 1.13526,-0.70164 2.06411,-2.20453 2.06411,-3.33979 0,-1.13526 -1.07236,-1.40136 -2.38303,-0.59132 -1.5228,0.94115 -1.82074,0.56298 -0.82536,-1.04756 2.11407,-3.42066 4.21966,-0.92001 4.33636,5.14995 0.0531,2.75979 -1.09981,4.98899 -2.58014,4.98899 -1.47182,0 -2.67605,-0.87403 -2.67605,-1.94228 z m 14.05623,0.86173 c -1.60698,-1.607 0.60235,-11.3041 2.57546,-11.3041 0.9359,0 2.36441,1.07237 3.17445,2.38303 0.99973,1.6176 0.54161,1.82183 -1.42627,0.63583 -2.44496,-1.47352 -2.46708,-1.21433 -0.14123,1.65478 3.64391,4.49496 -0.20932,10.60355 -4.18241,6.63046 z m -14.57225,-14.73522 c 1.41907,-0.57261 2.58013,-2.27959 2.58013,-3.79326 0,-1.51367 -1.16106,-3.22065 -2.58013,-3.79325 -1.54136,-0.62196 -1.12585,-1.10671 1.03205,-1.20406 2.52039,-0.11373 3.61219,1.39677 3.61219,4.99731 0,3.60055 -1.0918,5.11102 -3.61219,4.99732 -2.1579,-0.0975 -2.57341,-0.58211 -1.03205,-1.20406 z m 14.08589,-2.07431 c -0.72629,-1.89273 -0.36125,-4.40062 0.81123,-5.57309 1.46629,-1.46628 2.13177,-0.39202 2.13177,3.44132 0,6.36746 -1.03103,7.1143 -2.943,2.13177 z m 46.72183,4.98941 0.5995,-17.0289 h 33.02573 33.02574 l 0.5995,17.0289 0.59949,17.02889 h -34.22473 -34.22473 z m 32.16759,0 -0.60646,-14.96479 H 251.03205 236.5833 l -0.60646,14.96479 -0.60646,14.96478 h 15.66167 15.66167 z m -22.3477,11.5473 c 1.41999,-0.70603 1.4132,-2.32563 -0.021,-5.00547 -1.45587,-2.72028 -1.4507,-3.9617 0.0165,-3.9617 1.1752,0 2.13672,1.39328 2.13672,3.09616 0,1.70289 0.0696,3.76958 0.15482,4.59264 0.0851,0.82306 -0.86693,1.68225 -2.11572,1.9093 -1.35999,0.24728 -1.42869,-0.006 -0.17132,-0.63093 z m 12.35419,-0.77229 c -2.58837,-1.60026 -2.54302,-2.30796 0.33207,-5.18386 3.0638,-3.06465 3.41916,-2.98835 4.45047,0.95535 1.3281,5.07878 -0.62052,6.80167 -4.78254,4.22851 z m 0.16142,-15.31605 c -0.0458,-4.44058 0.55396,-5.47239 2.21522,-3.81113 1.6326,1.6326 1.6504,3.35776 0.0628,6.08911 -1.94197,3.34104 -2.22296,3.06003 -2.27798,-2.27798 z m -14.2721,-2.68334 c 0.1835,-4.35072 0.48029,-4.71224 1.27083,-1.54808 0.56728,2.27052 2.08502,4.81062 3.37276,5.64469 1.48591,0.96241 1.02158,1.52802 -1.27084,1.54808 -2.6294,0.0229 -3.54704,-1.51278 -3.37275,-5.64469 z m 55.49149,6.61403 v -15.57512 l -13.93273,0.61034 -13.93274,0.61034 -0.60645,14.96479 -0.60645,14.96478 h 14.53918 14.53919 z m -23.93435,11.12798 c -0.9125,-1.47645 -0.56622,-1.82272 0.91024,-0.91022 1.51472,0.9362 2.38294,-0.12006 2.38294,-2.89907 0,-2.77901 -0.86822,-3.83525 -2.38303,-2.89905 -1.4883,0.91982 -1.82224,0.56542 -0.88942,-0.9439 2.23935,-3.62336 5.33656,-0.72331 5.33656,4.99684 0,5.29082 -2.85424,6.70554 -5.35737,2.6554 z m 14.42158,-8.14218 c 0.96426,-10.381 3.299,-16.60457 3.34317,-8.9118 0.0124,2.17591 0.59844,7.43939 1.30212,11.69661 1.05261,6.36832 0.66763,7.74041 -2.17179,7.74041 -2.90212,0 -3.29564,-1.67448 -2.4735,-10.52522 z m -12.95307,-9.59983 c 0.1835,-4.35072 0.4803,-4.71224 1.27083,-1.54808 0.56728,2.27052 2.08502,4.81062 3.37276,5.64469 1.4859,0.96241 1.02159,1.52802 -1.27084,1.54808 -2.6294,0.0229 -3.54705,-1.51278 -3.37275,-5.64469 z m 53.85994,7.22438 0.5995,-17.0289 h 33.02574 33.02573 l 0.5995,17.0289 0.5995,17.02889 h -34.22473 -34.22474 z m 32.16758,0 -0.60646,-14.96479 h -14.44876 -14.44875 l -0.60646,14.96479 -0.60646,14.96478 h 15.66167 15.66168 z m -23.81118,11.53915 c -1.86432,-0.75312 -1.98529,-2.11629 -0.44341,-4.99732 2.96977,-5.54907 6.10321,-4.93371 6.10321,1.19857 0,5.16236 -0.85823,5.73839 -5.6598,3.79875 z m 13.81767,-0.76414 c -2.58837,-1.60026 -2.54302,-2.30796 0.33208,-5.18386 3.0638,-3.06465 3.41915,-2.98835 4.45046,0.95535 1.32812,5.07878 -0.62051,6.80167 -4.78254,4.22851 z m -13.83417,-13.69011 c -1.41907,-0.57261 -2.58013,-1.94737 -2.58013,-3.05503 0,-1.10767 0.91822,-1.44643 2.04047,-0.75284 1.17006,0.72313 1.51609,-0.10548 0.81122,-1.94229 -0.6761,-1.76186 -0.20105,-3.20337 1.05569,-3.20337 1.25673,0 2.28495,2.32213 2.28495,5.16027 0,2.83815 -0.23222,5.08693 -0.51603,4.99732 -0.28382,-0.0896 -1.67709,-0.63146 -3.09617,-1.20406 z m 11.86862,-4.94714 c 0,-2.33752 0.92886,-3.67596 2.06412,-2.97433 1.13526,0.70162 2.06411,2.61415 2.06411,4.25003 0,1.63589 -0.92885,2.97434 -2.06411,2.97434 -1.13526,0 -2.06412,-1.91252 -2.06412,-4.25004 z m 44.98479,7.86224 -0.60645,-14.96479 h -14.44876 -14.44876 l -0.60645,14.96479 -0.60646,14.96478 h 15.66167 15.66167 z m -23.82767,11.41806 c -1.41908,-0.50902 -2.58014,-1.83177 -2.58014,-2.93943 0,-1.10766 0.91822,-1.44642 2.04048,-0.75284 1.13944,0.70423 1.53303,-0.0613 0.89132,-1.7335 -0.63201,-1.64702 -0.26317,-3.54213 0.81968,-4.21136 1.08283,-0.66925 2.41486,1.11668 2.96006,3.96868 1.0679,5.58642 -0.057,7.12997 -4.1314,5.66845 z m 12.24755,-3.74183 c 0.35921,-2.87344 1.58198,-5.22445 2.71724,-5.22445 1.13526,0 2.35801,2.35101 2.71723,5.22445 0.46549,3.72345 -0.31517,5.22444 -2.71723,5.22444 -2.40207,0 -3.18274,-1.50099 -2.71724,-5.22444 z m -14.92624,-11.34998 c -2.58838,-1.60026 -2.54303,-2.30796 0.33207,-5.18387 3.0638,-3.06463 3.41915,-2.98835 4.45046,0.95536 1.32811,5.07878 -0.62051,6.80167 -4.78253,4.22851 z m 14.94971,-3.03461 c 0.0421,-3.40578 0.50468,-4.54917 1.028,-2.54086 0.52334,2.00832 0.48893,4.79486 -0.0766,6.19233 -0.56542,1.39747 -0.9936,-0.24569 -0.95153,-3.65147 z M 95.191862,173.54847 c 0,-1.06825 0.77404,-2.42069 1.720085,-3.00537 0.946056,-0.5847 1.720096,0.28933 1.720096,1.94229 0,1.65294 -0.77404,3.00537 -1.720096,3.00537 -0.946045,0 -1.720085,-0.87403 -1.720085,-1.94229 z m 26.833408,0 c 0,-1.06825 1.02802,-2.57764 2.28448,-3.35417 1.59252,-0.98423 1.43622,-1.94937 -0.51603,-3.18639 -2.22085,-1.40719 -2.09804,-1.78101 0.59334,-1.8061 2.3304,-0.0217 3.30056,1.58487 3.09615,5.12721 -0.27085,4.69405 -5.45794,7.75372 -5.45794,3.21945 z m 15.28372,0.19713 c 0.81003,-1.31069 0.48912,-2.38306 -0.71315,-2.38306 -1.20225,0 -2.18591,-1.39328 -2.18591,-3.09616 0,-1.70289 0.82051,-3.09616 1.82336,-3.09616 2.77821,0 4.28313,8.06585 1.79215,9.60535 -1.28725,0.79557 -1.58243,0.37118 -0.71645,-1.02999 z m 166.35782,-0.31896 c -2.24982,-1.45393 -2.35756,-2.00953 -0.3942,-2.0325 1.48608,-0.0165 2.16756,-0.89628 1.51442,-1.95308 -0.65317,-1.05682 -0.24355,-2.50492 0.91023,-3.21798 1.2122,-0.74919 2.09777,0.93328 2.09777,3.98558 0,5.97945 0.0656,5.92827 -4.12822,3.21798 z m 27.65619,-0.83313 c -0.66671,-1.73738 -0.73349,-4.3506 -0.14842,-5.80712 0.5851,-1.45652 1.22974,-0.32611 1.43252,2.51204 l 0.36871,5.16028 1.65263,-5.16028 c 1.53842,-4.80372 1.66682,-4.84779 1.85836,-0.63785 0.24975,5.48958 -3.4772,8.32817 -5.1638,3.93293 z m -225.81059,-1.35279 c 0,-1.20227 0.9182,-1.61843 2.04046,-0.92485 1.17006,0.72314 1.5161,-0.10547 0.81122,-1.94229 -0.67609,-1.76185 -0.20103,-3.20336 1.05569,-3.20336 1.25673,0 2.28494,1.85769 2.28494,4.12821 0,2.29345 -1.37607,4.12821 -3.09615,4.12821 -1.70289,0 -3.09616,-0.98367 -3.09616,-2.18592 z m 185.80135,0.63784 c 0.0165,-0.85144 1.03385,-2.94135 2.25884,-4.64424 1.90333,-2.64596 2.06568,-2.59031 1.11639,0.38267 -0.61095,1.91336 -0.002,3.92994 1.35338,4.48128 1.35529,0.55136 0.83868,1.07579 -1.14801,1.16542 -1.98671,0.0896 -3.59797,-0.53368 -3.5806,-1.38513 z m 29.67685,-1.48834 c 0.7406,-5.04598 2.72491,-5.64406 3.89395,-1.17365 0.69681,2.6646 0.1024,4.21007 -1.61933,4.21007 -1.49614,0 -2.51972,-1.36639 -2.27462,-3.03642 z M 103.68773,159.49391 c -0.22048,-4.27654 0.64974,-4.64424 10.99135,-4.64424 6.17692,0 11.74385,-0.83016 12.37094,-1.84484 0.62709,-1.01465 -0.24694,-5.16463 -1.94229,-9.22219 -4.27295,-10.2266 -3.70578,-12.06071 1.04576,-3.38173 2.17535,3.9734 3.88637,10.93977 3.80226,15.48082 -0.0841,4.54103 -0.57771,6.63094 -1.09688,4.64424 -0.75075,-2.87279 -3.20584,-3.61219 -11.99387,-3.61219 -8.78803,0 -11.24313,0.7394 -11.99386,3.61219 -0.71035,2.71824 -1.00323,2.46283 -1.18341,-1.03206 z m 198.15441,0 c -0.22135,-4.29342 0.6363,-4.64424 11.3538,-4.64424 12.73061,0 12.09239,1.14688 8.04042,-14.44876 -1.16918,-4.50007 -1.03445,-4.67865 1.05315,-1.3959 4.14506,6.51818 6.00846,15.87665 4.10311,20.60703 -1.42838,3.54625 -1.85138,3.74411 -1.95388,0.91393 -0.1063,-2.93368 -2.04101,-3.61219 -10.30005,-3.61219 -7.94924,0 -10.37523,0.78853 -11.11313,3.61219 -0.71037,2.71824 -1.00324,2.46283 -1.18342,-1.03206 z M 127.47116,133.17653 c -0.85795,-2.23578 -4.36083,-3.09617 -12.60549,-3.09617 -9.5597,0 -11.39086,-0.58773 -11.25442,-3.61218 0.0973,-2.1579 0.58211,-2.57341 1.20406,-1.03206 0.65058,1.6123 5.17829,2.58014 12.07036,2.58014 8.76835,0 11.22273,-0.74046 11.9732,-3.61219 0.51917,-1.98671 1.05171,-0.12901 1.1834,4.12821 0.25329,8.18847 -0.61158,9.75072 -2.57111,4.64425 z m 196.89951,0.51603 c -0.0521,-2.99474 -2.00336,-3.6122 -11.41537,-3.6122 -10.46794,0 -11.33393,-0.3619 -11.11316,-4.64424 0.1802,-3.49488 0.47305,-3.75029 1.18342,-1.03205 0.7379,2.82366 3.16389,3.61219 11.11313,3.61219 8.25904,0 10.19379,-0.67852 10.30005,-3.61219 0.097,-2.67674 0.63168,-2.36237 2.06488,1.21394 1.21926,3.04254 1.19413,6.09389 -0.0682,8.25643 -1.83832,3.14967 -2.00724,3.13479 -2.06487,-0.18184 z M 62.578946,129.66754 c -3.791998,-3.79199 -2.948263,-12.96955 1.568115,-17.05682 9.313897,-8.42896 22.540003,4.01643 15.57124,14.6521 -3.507504,5.35314 -12.876444,6.66765 -17.139355,2.40472 z m 13.623117,-2.0641 c 7.006193,-7.00618 -1.233065,-18.67848 -9.907724,-14.03594 -7.285581,3.89912 -4.132152,16.51286 4.128224,16.51286 1.816415,0 4.417192,-1.11461 5.7795,-2.47692 z m 83.389987,2.0641 c -3.792,-3.79199 -2.94827,-12.96955 1.56811,-17.05682 9.3139,-8.42896 22.54001,4.01643 15.57124,14.6521 -3.50751,5.35314 -12.87644,6.66765 -17.13935,2.40472 z m 13.62311,-2.0641 c 7.0062,-7.00618 -1.23306,-18.67848 -9.90772,-14.03594 -7.28558,3.89912 -4.13215,16.51286 4.12821,16.51286 1.81642,0 4.4172,-1.11461 5.77951,-2.47692 z m 86.22076,1.29744 c -8.35087,-8.35085 1.52603,-22.65341 12.26483,-17.76048 2.76032,1.25768 5.6189,4.67785 6.3524,7.60035 2.6093,10.39626 -10.97022,17.80713 -18.61723,10.16013 z m 14.15388,-2.06412 c 1.78399,-1.78396 3.2436,-4.10608 3.2436,-5.16027 0,-2.48716 -7.68593,-10.1731 -10.1731,-10.1731 -3.18151,0 -8.40388,6.24851 -8.40388,10.05516 0,7.98827 9.39075,11.22085 15.33338,5.27821 z m 80.7951,2.06412 c -8.35085,-8.35085 1.52605,-22.65341 12.26483,-17.76048 2.76032,1.25768 5.6189,4.67785 6.35241,7.60035 2.60929,10.39626 -10.97023,17.80713 -18.61724,10.16013 z m 15.81944,-4.22326 c 2.15809,-4.7365 1.89904,-5.85833 -2.10083,-9.09722 -8.5015,-6.88409 -18.00348,0.71246 -12.87573,10.29379 3.32087,6.20508 11.91708,5.51827 14.97656,-1.19657 z m -78.06642,-7.26716 c -0.93281,-1.50932 -0.59888,-1.86373 0.88942,-0.9439 1.3901,0.85913 2.38304,0.20373 2.38304,-1.57318 0,-1.67529 -1.16106,-3.51448 -2.58014,-4.08708 -1.54135,-0.62196 -1.12585,-1.10671 1.03206,-1.20406 2.25547,-0.10177 3.61219,1.34182 3.61219,3.84343 0,4.86257 -3.27702,7.29722 -5.33657,3.96479 z M 96.630372,114.82015 c -0.844622,-2.1492 -1.049397,-4.39391 -0.455045,-4.98825 1.882594,-1.8826 3.539037,1.20247 2.750201,5.12212 -0.722937,3.59223 -0.833342,3.58579 -2.295156,-0.13395 z m 8.913638,1.32748 c 0.0173,-0.85144 0.81737,-2.78766 1.77774,-4.30269 1.32757,-2.09433 2.01585,-1.72324 2.87132,1.54808 0.74649,2.85463 0.14819,4.30269 -1.77775,4.30269 -1.59661,0 -2.8887,-0.69663 -2.87131,-1.54808 z m 18.87128,-2.58013 c 0,-2.83815 0.4685,-3.99922 1.0411,-2.58013 0.57262,1.41907 0.57262,3.74119 0,5.16026 -0.5726,1.41908 -1.0411,0.25802 -1.0411,-2.58013 z m 180.06245,1.09179 c 0.74708,-5.09016 3.31729,-6.20262 3.31729,-1.43582 0,2.45974 -0.84665,4.47224 -1.88148,4.47224 -1.03479,0 -1.6809,-1.36639 -1.43581,-3.03642 z m 16.58655,-1.09179 c 0,-2.27052 0.72982,-4.12822 1.62182,-4.12822 0.89198,0 1.62178,1.8577 1.62178,4.12822 0,2.27052 -0.7298,4.12821 -1.62178,4.12821 -0.892,0 -1.62182,-1.85769 -1.62182,-4.12821 z m 9.76184,0 c 0,-2.83815 0.46851,-3.99922 1.04111,-2.58013 0.5726,1.41907 0.5726,3.74119 0,5.16026 -0.5726,1.41908 -1.04111,0.25802 -1.04111,-2.58013 z m 4.12821,0 c 0,-2.83815 0.46851,-3.99922 1.04112,-2.58013 0.5726,1.41907 0.5726,3.74119 0,5.16026 -0.57261,1.41908 -1.04112,0.25802 -1.04112,-2.58013 z m -200.54441,-0.91023 c 0,-1.76989 0.92885,-3.21799 2.06411,-3.21799 1.13526,0 2.0641,0.87403 2.0641,1.94228 0,1.06826 -0.92884,2.51636 -2.0641,3.21799 -1.13526,0.70164 -2.06411,-0.17235 -2.06411,-1.94228 z m 32.12638,-10.01536 c 0.77514,-2.03567 1.9293,-3.18125 2.56482,-2.54573 0.63552,0.63552 10e-4,2.30105 -1.40934,3.70122 -2.03854,2.02336 -2.27563,1.78627 -1.15548,-1.15549 z m 192.86143,0.72687 c 0,-1.06825 0.77404,-2.42068 1.72008,-3.00536 0.94607,-0.5847 1.72011,0.28933 1.72011,1.94229 0,1.65294 -0.77404,3.00536 -1.72011,3.00536 -0.94604,0 -1.72008,-0.87403 -1.72008,-1.94229 z M 64.230233,92.926418 c -5.004677,-5.004678 -5.23089,-8.922997 -0.772555,-13.381326 8.910069,-8.910075 22.697325,3.980035 14.245826,13.318826 -4.776834,5.278337 -8.241361,5.294417 -13.473271,0.0625 z m 11.205163,-1.179493 c 3.87849,-3.87848 4.130657,-7.428335 0.766667,-10.792336 -3.807784,-3.807785 -9.511506,-2.945875 -12.063726,1.823 -1.835872,3.430342 -1.577148,5.10004 1.279343,8.256434 4.344465,4.80058 5.824706,4.905912 10.017716,0.712902 z m 85.725434,1.52775 c -8.9082,-7.21344 0.35639,-20.365981 11.36897,-16.14007 5.0191,1.92602 6.22787,11.263985 2.05496,15.874976 -4.55174,5.029634 -7.46882,5.087244 -13.42393,0.265094 z m 11.28766,-1.52775 c 5.59862,-5.598606 2.50416,-13.269267 -5.35303,-13.269267 -3.07019,0 -7.91623,5.51278 -7.91623,9.005356 0,1.713024 6.37251,7.507513 8.25642,7.507513 0.97309,0 3.22886,-1.459614 5.01284,-3.243602 z m 89.58705,2.727575 c -4.9422,-3.982058 -5.83123,-8.903078 -2.4743,-13.695773 3.36154,-4.799259 10.91962,-5.763858 14.79524,-1.888246 3.47337,3.473378 3.08299,11.070887 -0.76668,14.920552 -3.91505,3.915057 -7.27893,4.108216 -11.55426,0.663467 z m 12.73376,-7.560293 c 0,-5.281393 -5.16688,-9.040197 -10.22149,-7.43593 -5.26214,1.670132 -5.70278,10.353176 -0.66838,13.17056 4.63914,2.596194 10.88987,-0.695439 10.88987,-5.73463 z m 82.0483,7.910985 c -4.14935,-2.416782 -4.84793,-12.222041 -1.13526,-15.934711 1.36231,-1.362312 4.42752,-2.476931 6.81157,-2.476931 2.38404,0 5.44924,1.114619 6.81155,2.476931 3.92484,3.92484 3.00939,13.605736 -1.51559,16.027431 -4.87815,2.610705 -6.35218,2.598238 -10.97227,-0.09268 z m 12.90068,-7.910985 c 0,-5.281393 -5.16688,-9.040197 -10.22148,-7.43593 -5.26213,1.670132 -5.70278,10.353176 -0.66838,13.17056 4.63915,2.596194 10.88986,-0.695439 10.88986,-5.73463 z m -260.49048,5.59939 c 3.16289,-3.162895 3.23155,-6.489516 0.0939,-4.550349 -1.4883,0.91983 -1.82225,0.565422 -0.88943,-0.943895 2.11793,-3.426874 5.13167,-0.971101 4.76597,3.883599 -0.16934,2.248165 -1.68928,4.087575 -3.37763,4.087575 -2.38758,0 -2.51931,-0.550436 -0.59281,-2.47693 z m 12.1994,-1.651287 c -0.59375,-2.270519 -0.23767,-4.128217 0.79131,-4.128217 1.02899,0 1.87087,1.857698 1.87087,4.128217 0,2.270519 -0.35609,4.128217 -0.79132,4.128217 -0.43521,0 -1.27711,-1.857698 -1.87086,-4.128217 z m 14.63401,1.651287 c 3.1629,-3.162895 3.23155,-6.489516 0.0939,-4.550349 -1.4883,0.91983 -1.82224,0.565422 -0.88942,-0.943895 2.11792,-3.426874 5.13166,-0.971101 4.76598,3.883599 -0.16935,2.248165 -1.68929,4.087575 -3.37765,4.087575 -2.38756,0 -2.5193,-0.550436 -0.5928,-2.47693 z m 12.515,0.63108 c 2.37553,-1.505023 2.37553,-1.942098 0,-2.806547 -2.35992,-0.858772 -2.34875,-1.481617 0.0693,-3.862051 1.58562,-1.560981 2.2671,-1.741261 1.51441,-0.400643 -0.7527,1.340638 -0.42453,3.020947 0.72924,3.734013 3.34573,2.067784 2.42929,5.183989 -1.51441,5.149476 -2.82687,-0.02477 -3.00048,-0.419179 -0.7985,-1.814248 z m 146.83417,-0.340082 c 0,-1.202261 -0.91822,-1.618426 -2.04047,-0.924844 -1.17006,0.723139 -1.51609,-0.105476 -0.81122,-1.942285 1.75037,-4.56135 4.9158,-3.965814 4.9158,0.924844 0,2.270519 -0.46443,4.128217 -1.03205,4.128217 -0.56764,0 -1.03206,-0.983672 -1.03206,-2.185932 z m 9.72247,-1.942285 c -0.59376,-2.270519 -0.23767,-4.128217 0.79131,-4.128217 1.02898,0 1.87087,1.857698 1.87087,4.128217 0,2.270519 -0.3561,4.128217 -0.79132,4.128217 -0.43522,0 -1.2771,-1.857698 -1.87086,-4.128217 z m 17.2739,2.458312 c -0.0964,-1.597929 -1.21721,-2.068567 -2.74309,-1.151856 -1.55439,0.933845 -1.37922,0.07162 0.44057,-2.168614 3.08808,-3.801654 5.48151,-1.4521 3.50658,3.442294 -0.8007,1.98433 -1.07874,1.956196 -1.20406,-0.121782 z m 9.87511,-0.175862 c 2.24407,-1.421758 2.27456,-1.962348 0.15068,-2.670358 -3.11796,-1.03932 -0.77156,-5.819093 2.83386,-5.772734 1.47709,0.01858 1.2225,0.830247 -0.63786,2.032507 -2.06411,1.333931 -2.23611,2.011433 -0.51603,2.032507 1.41908,0.01651 2.58014,1.424876 2.58014,3.127765 0,1.70289 -1.62548,3.081941 -3.61219,3.064561 -2.82688,-0.02477 -3.00047,-0.419179 -0.7985,-1.814248 z M 116.21769,78.993686 c 0.54226,-2.849378 3.18957,-3.74291 12.53599,-4.231216 6.51672,-0.340475 11.84857,-1.388113 11.84857,-2.328067 0,-0.939954 -1.44096,-5.157712 -3.20212,-9.372787 -1.76118,-4.215074 -2.31254,-7.113971 -1.22527,-6.442 3.30116,2.040227 8.03983,18.496477 6.54789,22.73919 -1.24833,3.549916 -1.54134,3.605358 -2.72683,0.516027 -1.80357,-4.700037 -20.03476,-5.032276 -20.03476,-0.36512 0,1.70289 -0.99695,3.096162 -2.21546,3.096162 -1.21849,0 -1.90611,-1.625484 -1.52801,-3.612189 z m 185.62445,0 c -0.22077,-4.282345 0.64522,-4.644245 11.11316,-4.644245 12.71625,0 13.69379,-1.558402 8.15651,-13.003181 -2.89613,-5.985874 -2.89434,-6.227354 0.0186,-2.572974 4.6766,5.865908 7.5282,17.637251 5.2263,21.57427 -1.71109,2.926534 -1.93077,2.890948 -1.98658,-0.321816 -0.0512,-2.942902 -1.947,-3.61219 -10.23197,-3.61219 -7.94925,0 -10.37524,0.788531 -11.11314,3.61219 -0.71036,2.718245 -1.00324,2.462832 -1.18341,-1.032054 z M 37.396827,25.842889 V -8.2149004 H 70.422563 103.4483 V 25.842889 59.900682 H 70.422563 37.396827 Z m 32.60013,15.996843 0.606459,-14.964788 H 55.032175 39.460934 V 42.446187 58.01743 L 54.425717,57.410975 69.39051,56.804519 Z M 45.13865,50.562923 c -0.547724,-2.86523 -0.191587,-5.706599 0.791425,-6.314129 0.983012,-0.60755 1.787295,1.736742 1.787295,5.209521 0,7.662859 -1.224743,8.187493 -2.57872,1.104608 z m 12.011746,3.379318 c -0.622132,-1.006625 0.295867,-3.014549 2.039998,-4.462046 2.53532,-2.104131 2.634227,-2.972399 0.4933,-4.3305 -1.884078,-1.195139 -1.949154,-1.708029 -0.21952,-1.73028 3.329487,-0.04273 5.317774,3.511998 2.825772,5.052154 -1.104202,0.682414 -1.484396,2.604306 -0.84489,4.270846 1.243779,3.241229 -2.403281,4.260135 -4.29466,1.199826 z m -7.087829,-19.32689 c 0.237999,-5.67989 0.428132,-5.917221 1.240149,-1.548082 0.527483,2.83815 2.02647,5.842687 3.331096,6.676752 1.523704,0.974114 1.080187,1.527771 -1.240149,1.548081 -2.762604,0.02415 -3.546079,-1.546182 -3.331096,-6.676751 z m 51.321613,7.740408 V 26.874944 H 86.935425 72.486669 v 15.480815 15.480814 h 14.448756 14.448755 z m -25.283901,8.207164 c -0.547735,-2.86523 -0.191597,-5.706599 0.791425,-6.314129 0.983012,-0.60755 1.787285,1.736742 1.787285,5.209521 0,7.662859 -1.224733,8.187493 -2.57871,1.104608 z m 11.207617,-1.33713 c 0.362767,-2.465412 2.052857,-4.858251 3.755742,-5.317412 2.462892,-0.664105 2.533041,-0.439284 0.34297,1.099159 -2.23537,1.570229 -2.138308,2.169956 0.516026,3.188511 4.702201,1.804403 4.027832,5.512305 -1.002552,5.512305 -3.210751,0 -4.107951,-1.113381 -3.612186,-4.482563 z M 80.888178,34.615351 c -0.07981,-3.121964 0.783774,-5.676299 1.919034,-5.676299 2.422667,0 2.422667,1.586516 0,7.22438 -1.571951,3.658117 -1.790481,3.481821 -1.919034,-1.548081 z m 5.359215,3.268166 c -2.080161,-2.080148 -1.648719,-5.228388 0.531814,-3.880731 1.049345,0.648521 2.334865,-0.457717 2.856728,-2.458334 0.591681,-2.268269 1.038961,-1.500833 1.188271,2.038845 0.229616,5.443487 -1.659031,7.218001 -4.576813,4.30022 z M 69.996957,8.813995 70.603416,-6.1507918 H 55.032175 39.460934 V 9.42045 24.991693 L 54.425717,24.385237 69.39051,23.778781 Z M 45.13865,17.537187 c -0.547724,-2.865231 -0.191587,-5.706601 0.791425,-6.314129 0.983012,-0.60755 1.787295,1.73674 1.787295,5.209521 0,7.662857 -1.224743,8.187492 -2.57872,1.104608 z m 14.448756,0 c -0.547724,-2.865231 -0.191587,-5.706601 0.791425,-6.314129 0.983012,-0.60755 1.787295,1.73674 1.787295,5.209521 0,7.662857 -1.224743,8.187492 -2.57872,1.104608 z M 43.898419,1.5896149 c 0.279193,-6.0559042 0.391711,-6.1686631 1.156873,-1.1593689 0.466181,3.0519494 2.416923,5.9629618 4.334979,6.4689162 2.473492,0.6524854 2.137163,0.989534 -1.156874,1.1593689 -3.97087,0.2047598 -4.599405,-0.7332334 -4.334978,-6.4689162 z M 58.440308,1.0735872 c 0.04207,-3.4057789 0.504663,-4.5491711 1.028011,-2.5408558 0.523337,2.0083164 0.488918,4.7948633 -0.07651,6.1923257 C 58.8264,6.1225207 58.398206,4.479367 58.440277,1.0735872 Z M 101.38418,9.330022 V -6.1507918 H 86.935425 72.486669 V 9.330022 24.810835 h 14.448756 14.448755 z m -25.283901,8.207165 c -0.547735,-2.865231 -0.191597,-5.706601 0.791425,-6.314129 0.983012,-0.60755 1.787285,1.73674 1.787285,5.209521 0,7.662857 -1.224733,8.187492 -2.57871,1.104608 z m 11.670096,2.826507 c -0.879041,-1.422316 -0.569574,-1.824816 0.767606,-0.998389 1.232229,0.761553 2.823834,0.440646 3.536912,-0.713129 0.713069,-1.153775 -0.122448,-2.097773 -1.856701,-2.097773 -1.954826,0 -2.701664,-1.176708 -1.965096,-3.096163 0.653468,-1.70289 2.172397,-3.096163 3.375404,-3.096163 1.203007,0 1.576117,0.611182 0.829124,1.358162 -0.746993,0.747002 -0.357406,2.563995 0.86574,4.03781 2.300527,2.771973 0.937105,6.988677 -2.259726,6.988677 -1.001252,0 -2.483226,-1.072366 -3.293263,-2.383032 z M 74.860047,1.5896149 c 0.279194,-6.0559042 0.391702,-6.1686631 1.156874,-1.1593689 0.466181,3.0519494 2.416913,5.9629618 4.334968,6.4689162 2.473502,0.6524854 2.137163,0.989534 -1.156873,1.1593689 C 75.224155,8.2632909 74.59562,7.3252977 74.860047,1.5896149 Z m 15.060391,2.4002899 c -0.76277,-1.2341929 -0.353157,-3.27766 0.910234,-4.5410384 1.686696,-1.6867072 2.297083,-1.0904481 2.297083,2.2439538 0,4.9838104 -1.072226,5.7517419 -3.207317,2.2970846 z M 140.74732,55.359436 c -0.11585,-2.802481 -2.53117,-3.633842 -11.99364,-4.128217 -9.34642,-0.488305 -11.99373,-1.381837 -12.53599,-4.231215 -0.3781,-1.986705 0.30952,-3.612191 1.52801,-3.612191 1.21851,0 2.21546,1.393273 2.21546,3.096163 0,4.862277 20.07337,4.371101 21.08925,-0.516026 0.6532,-3.142462 0.89974,-3.071064 1.89588,0.54899 0.62977,2.288643 0.42529,6.004037 -0.45443,8.256434 -1.30618,3.344331 -1.62606,3.451809 -1.74454,0.586062 z m 183.62335,-1.135053 c -0.0424,-1.743759 -3.74283,-2.580135 -11.41537,-2.580135 -10.46794,0 -11.33393,-0.361901 -11.11316,-4.644244 0.1802,-3.494888 0.47305,-3.7503 1.18342,-1.032054 0.7379,2.823658 3.16389,3.612189 11.11313,3.612189 8.28498,0 10.18083,-0.669287 10.23198,-3.612189 0.0598,-3.440189 0.16286,-3.440189 2.16668,0 1.42912,2.453687 1.42912,4.770691 0,7.224379 -1.16763,2.004683 -2.13186,2.463968 -2.16668,1.032054 z M 109.04308,35.133442 c -0.59346,-2.269404 -0.23736,-4.646329 0.79132,-5.282095 1.02868,-0.635766 1.87032,1.221003 1.87032,4.126153 0,6.324532 -1.17642,6.83544 -2.66164,1.155942 z m 12.38412,-0.0021 c -0.59375,-2.270519 -0.23767,-4.128217 0.79131,-4.128217 1.02899,0 1.87087,1.857698 1.87087,4.128217 0,2.270519 -0.35609,4.128217 -0.79132,4.128217 -0.43521,0 -1.27711,-1.857698 -1.87086,-4.128217 z m 14.44876,0 c -0.59375,-2.270519 -0.23767,-4.128217 0.79131,-4.128217 1.02898,0 1.87087,1.857698 1.87087,4.128217 0,2.270519 -0.35609,4.128217 -0.79131,4.128217 -0.43523,0 -1.27711,-1.857698 -1.87087,-4.128217 z m 12.98273,2.064109 c 2.0641,-1.33393 2.23611,-2.011433 0.51602,-2.032508 -1.41907,-0.01737 -2.58013,-1.424874 -2.58013,-3.127764 0,-1.702889 0.98366,-3.096163 2.18592,-3.096163 1.20226,0 1.65153,0.864676 0.99838,1.92148 -0.65315,1.056823 -0.22839,2.514269 0.94391,3.238792 2.58969,1.600509 0.70784,5.172512 -2.70195,5.12867 -1.47711,-0.01899 -1.22252,-0.830247 0.63785,-2.032507 z m 146.01917,0.702581 c 1.89691,-0.766279 2.0015,-2.200133 0.40215,-5.513337 -2.0638,-4.275388 -2.01942,-4.300777 0.98243,-0.561459 3.32118,4.137094 2.62286,7.54599 -1.48991,7.273362 -1.78941,-0.118686 -1.76077,-0.444733 0.10527,-1.198566 z m 10.25499,-2.76669 c -0.59376,-2.270519 -0.23767,-4.128217 0.79131,-4.128217 1.02898,0 1.87087,1.857698 1.87087,4.128217 0,2.270519 -0.3561,4.128217 -0.79132,4.128217 -0.43522,0 -1.2771,-1.857698 -1.87086,-4.128217 z m 27.14901,2.282368 c 2.24407,-1.421758 2.27456,-1.962349 0.15068,-2.670358 -3.11796,-1.03932 -0.77156,-5.819094 2.83386,-5.772734 1.47709,0.01858 1.2225,0.830246 -0.63786,2.032507 -2.06411,1.33393 -2.23611,2.011432 -0.51603,2.032507 1.41908,0.01651 2.58014,1.424875 2.58014,3.127764 0,1.70289 -1.62548,3.081942 -3.61219,3.064562 -2.82688,-0.02477 -3.00047,-0.41918 -0.7985,-1.814248 z m -10.93743,-5.805535 c -1.12014,-2.941767 -0.88306,-3.178851 1.15549,-1.155488 1.41065,1.400168 2.04485,3.065696 1.40933,3.701215 -0.63551,0.635518 -1.78968,-0.510062 -2.56482,-2.545727 z M 134.40993,9.330022 V -8.2149004 h 33.02572 33.02574 V 9.330022 26.874944 h -33.02574 -33.02572 z m 32.60013,-0.516027 0.60646,-14.9647868 H 152.04528 136.47404 V 9.42045 24.991693 l 14.96478,-0.606456 14.96478,-0.606456 z m -24.3437,11.990449 c 0,-1.068259 0.92885,-2.516355 2.0641,-3.217987 1.13526,-0.701632 2.06412,-2.20453 2.06412,-3.33979 0,-1.135259 -0.92886,-1.490059 -2.06412,-0.788427 -1.13525,0.701632 -2.0641,0.29203 -2.0641,-0.910231 0,-1.202261 0.87403,-2.185932 1.94229,-2.185932 3.3612,0 4.70303,4.191441 2.27747,7.114073 -1.75015,2.108798 -1.66617,3.070547 0.33833,3.874847 1.6956,0.680331 1.35123,1.12915 -0.9459,1.232768 -1.98671,0.08959 -3.61219,-0.711065 -3.61219,-1.779321 z m 15.99825,-3.267257 c -0.54772,-2.865231 -0.19158,-5.706601 0.79143,-6.314129 0.98301,-0.60755 1.78729,1.73674 1.78729,5.209521 0,7.662857 -1.22474,8.187492 -2.57872,1.104608 z M 144.21586,3.0884256 c -0.54773,-2.8652306 -0.19159,-5.7065994 0.79142,-6.3141289 0.98302,-0.607549 1.7873,1.7367415 1.7873,5.2095211 0,7.6628592 -1.22474,8.1874942 -2.57872,1.1046078 z m 13.30166,0.04933 c 0.0421,-3.4057789 0.50466,-4.5491711 1.02801,-2.5408558 0.52333,2.0083164 0.48891,4.7948622 -0.0765,6.1923258 -0.56541,1.3974016 -0.99361,-0.245752 -0.95153,-3.6515319 z M 198.39728,9.33002 V -6.1507939 H 183.94853 169.49977 V 9.33002 24.810833 h 14.44876 14.44875 z m -24.7693,11.474421 c 0,-1.068258 0.92885,-2.516354 2.06411,-3.217986 1.13526,-0.701632 2.06411,-2.20453 2.06411,-3.33979 0,-1.135259 -0.92885,-1.490059 -2.06411,-0.788427 -1.13526,0.701632 -2.06411,0.292029 -2.06411,-0.910231 0,-1.202261 0.87403,-2.185932 1.94229,-2.185932 3.36121,0 4.70304,4.191441 2.27748,7.114073 -1.75015,2.108797 -1.66617,3.070547 0.33832,3.874847 1.69561,0.680331 1.35124,1.12915 -0.9459,1.232768 -1.9867,0.08959 -3.61219,-0.711065 -3.61219,-1.779322 z m 14.44876,-0.243647 c 0,-1.202261 0.92886,-1.611862 2.06411,-0.910231 1.13526,0.701631 2.06411,0.29203 2.06411,-0.91023 0,-1.202262 -0.92885,-2.185932 -2.06411,-2.185932 -1.13525,0 -2.06411,-1.393274 -2.06411,-3.096163 0,-1.70289 1.62549,-3.081942 3.6122,-3.064562 2.82686,0.02477 3.00047,0.41918 0.79849,1.814248 -2.2495,1.425185 -2.27852,1.961047 -0.14467,2.67232 1.56223,0.520753 2.11392,2.33624 1.33039,4.378077 -1.46947,3.829374 -5.59641,4.789844 -5.59641,1.302473 z M 177.7562,4.3417503 c 0,-2.1759002 -1.16106,-4.4247056 -2.58014,-4.9973101 -1.54135,-0.6219573 -1.12584,-1.1067124 1.03206,-1.2040556 2.52039,-0.1137323 3.61219,1.3967612 3.61219,4.9973091 0,2.8381496 -0.46442,5.1602715 -1.03206,5.1602715 -0.56762,0 -1.03205,-1.7802929 -1.03205,-3.9562149 z m 11.24145,1.7122611 c -0.76277,-1.234193 -0.35316,-3.27766 0.91023,-4.5410385 1.6867,-1.6867072 2.29708,-1.0904481 2.29708,2.2439538 0,4.9838103 -1.07222,5.7517423 -3.20731,2.2970847 z M 233.48712,9.33002 V -8.3171653 l 33.54177,0.567159 33.54176,0.5671581 V 9.33002 25.842887 l -33.54176,0.567156 -33.54177,0.567155 z m 33.02574,0 V -6.1507939 H 251.03205 235.55123 V 9.33002 24.810833 h 15.48082 15.48081 z m -23.91354,11.067337 c -0.93282,-1.509317 -0.59888,-1.863725 0.88942,-0.943896 1.31067,0.810039 2.38303,0.543935 2.38303,-0.591325 0,-1.135261 -0.94399,-2.647529 -2.09777,-3.360596 -2.3577,-1.457158 -0.76741,-5.139465 2.2196,-5.139465 2.51747,0 2.53541,9.71033 0.0208,11.264437 -1.05683,0.653167 -2.59362,0.100114 -3.41509,-1.229155 z m 15.14251,-2.860172 c -0.54773,-2.865231 -0.19156,-5.706601 0.79142,-6.314129 0.98301,-0.60755 1.78729,1.73674 1.78729,5.209521 0,7.662857 -1.22474,8.187492 -2.57871,1.104608 z M 242.05282,1.5896128 c 0.2792,-6.0559041 0.39171,-6.168663 1.15688,-1.1593688 0.46618,3.0519494 2.41692,5.9629618 4.33497,6.4689162 2.47351,0.6524854 2.13717,0.9895339 -1.15687,1.1593688 -3.97087,0.2047598 -4.5994,-0.7332334 -4.33498,-6.4689162 z m 14.1395,2.4583115 c 0,-2.33752 0.88829,-3.7010495 1.97397,-3.0300489 1.08567,0.67098 1.45072,2.5834998 0.81121,4.2500408 -1.63731,4.2667398 -2.78518,3.7639438 -2.78518,-1.2199919 z M 297.47449,9.33002 V -6.1507939 H 283.02573 268.57697 V 9.33002 24.810833 h 14.44876 14.44876 z m -23.91354,11.067337 c -0.93282,-1.509317 -0.59888,-1.863725 0.88942,-0.943896 1.31067,0.810039 2.38303,0.543935 2.38303,-0.591325 0,-1.135261 -0.944,-2.647529 -2.09777,-3.360596 -2.3577,-1.457158 -0.76741,-5.139465 2.21959,-5.139465 2.51747,0 2.53542,9.71033 0.0208,11.264437 -1.05682,0.653167 -2.59361,0.100114 -3.41508,-1.229155 z m 13.593,0.163437 c 0,-1.202261 0.92884,-1.611862 2.0641,-0.910231 1.13526,0.701631 2.06411,0.369434 2.06411,-0.738229 0,-1.107662 -1.09329,-2.378348 -2.42956,-2.823762 -2.94691,-0.98231 -0.38466,-5.739274 3.06742,-5.694896 1.63625,0.02106 1.51742,0.627717 -0.35539,1.814248 -2.24951,1.425185 -2.2785,1.961047 -0.14469,2.67232 1.56224,0.520753 2.11392,2.33624 1.33039,4.378077 -1.46945,3.829374 -5.59638,4.789844 -5.59638,1.302473 z M 275.05039,1.5896128 c 0.23801,-5.6798824 0.42813,-5.9172212 1.24016,-1.548082 0.52748,2.8381496 2.02646,5.8426869 3.33109,6.676752 1.52371,0.9741142 1.08017,1.5277704 -1.24016,1.5480809 -2.7626,0.024149 -3.54607,-1.5461826 -3.33109,-6.6767509 z m 13.54742,3.9410435 c -0.58406,-1.5220321 -0.23323,-4.076367 0.77962,-5.676298 1.34022,-2.117094 1.85012,-1.363777 1.87314,2.7673088 0.0342,6.1639029 -0.97782,7.2737949 -2.65276,2.9089892 z M 328.43612,9.33002 V -8.2149025 h 34.05779 34.05779 V 9.33002 26.874941 h -34.05779 -34.05779 z m 33.02573,0 V -6.1507939 H 345.98103 330.50022 V 7.9539409 c 0,7.7576221 0.61924,14.7239871 1.37608,15.4808131 0.75683,0.756847 7.72319,1.376079 15.48082,1.376079 h 14.10473 z m -22.18916,11.934097 c -1.41909,-0.509029 -2.58015,-1.831772 -2.58015,-2.939434 0,-1.107663 0.91823,-1.446424 2.04048,-0.752843 1.13945,0.704233 1.53303,-0.0613 0.89133,-1.7335 -0.63201,-1.647014 -0.26318,-3.542134 0.81968,-4.21136 1.08282,-0.669245 2.41486,1.116684 2.96005,3.968683 1.0679,5.586426 -0.057,7.129966 -4.13139,5.668454 z m 13.41812,-3.726932 c -0.54773,-2.865231 -0.19154,-5.706601 0.79142,-6.314129 0.98301,-0.60755 1.78729,1.73674 1.78729,5.209521 0,7.662857 -1.22474,8.187492 -2.57871,1.104608 z M 336.69254,6.3556803 c 0,-1.0682589 0.92886,-2.5163548 2.06412,-3.2179866 1.13525,-0.7016318 2.06411,-2.204529 2.06411,-3.3397896 0,-1.1352596 -1.07237,-1.4013644 -2.38304,-0.59132505 -1.47646,0.91250115 -1.82273,0.56622595 -0.91023,-0.91023055 2.72439,-4.4081805 5.19466,-2.4327072 4.75825,3.8051839 -0.23813,3.4035288 -1.59399,6.1900758 -3.01306,6.1923258 -1.41909,0.00206 -2.58015,-0.869919 -2.58015,-1.9381779 z M 351.14131,4.169748 c 0,-3.8530095 0.55044,-4.4034238 2.47693,-2.4769299 1.92649,1.9264949 1.92649,3.0273658 0,4.9538609 -1.92649,1.926494 -2.47693,1.3760785 -2.47693,-2.476931 z m 42.92067,4.644245 0.60646,-14.9647869 H 379.0972 363.52596 V 9.420448 24.991691 l 14.96478,-0.606456 14.96479,-0.606456 z m -23.82767,12.450124 c -1.41908,-0.509029 -2.58014,-1.831772 -2.58014,-2.939434 0,-1.107663 0.91822,-1.446424 2.04048,-0.752843 1.13944,0.704233 1.53303,-0.0613 0.89132,-1.7335 -0.63201,-1.647014 -0.26317,-3.542134 0.81968,-4.21136 1.08283,-0.669245 2.41486,1.116684 2.96006,3.968683 1.0679,5.586426 -0.057,7.129966 -4.1314,5.668454 z m 11.86862,-0.703323 c 0,-1.202261 0.92886,-1.611862 2.06412,-0.910231 1.13525,0.701631 2.0641,0.29203 2.0641,-0.91023 0,-1.202262 -0.92885,-2.185932 -2.0641,-2.185932 -1.13526,0 -2.06412,-1.393274 -2.06412,-3.096163 0,-1.70289 1.62549,-3.081942 3.6122,-3.064562 2.82687,0.02477 3.00047,0.41918 0.79849,1.814248 -2.2495,1.425185 -2.27851,1.961047 -0.1447,2.67232 1.56225,0.520753 2.11392,2.33624 1.33039,4.378077 -1.46944,3.829374 -5.59638,4.789844 -5.59638,1.302473 z M 369.71828,6.3556803 c 0,-1.0682589 0.92886,-2.5163548 2.06411,-3.2179866 1.13526,-0.7016318 2.06411,-2.204529 2.06411,-3.3397896 0,-1.1352596 -0.92885,-1.4900584 -2.06411,-0.78842755 -1.13525,0.70163185 -2.06411,0.29203082 -2.06411,-0.91022955 0,-1.2022614 0.87403,-2.1859323 1.94229,-2.1859323 3.36119,0 4.70302,4.1914398 2.27747,7.1140732 -1.75014,2.1087964 -1.66617,3.0705472 0.33833,3.8748482 1.6956,0.6803304 1.35123,1.1291501 -0.94589,1.2327678 -1.98671,0.089586 -3.6122,-0.7110647 -3.6122,-1.7793236 z m 14.85116,-3.2179866 c 0.0421,-3.4057788 0.50467,-4.5491711 1.02801,-2.5408558 0.52333,2.0083164 0.48892,4.7948623 -0.0766,6.1923258 -0.56542,1.3974635 -0.9936,-0.2456901 -0.95153,-3.65147 z m 30.55922,-33.0257357 9.11597,-9.288488 H 236.41077 48.576892 l -9.115958,9.288488 -9.115958,9.288488 H 218.17884 406.0127 Z M 60.10202,-59.817614 v -16.51287 h 30.961618 30.961632 v 16.51287 16.512869 h 18.57698 18.57698 v -16.512869 -16.51287 h 30.96162 30.96163 v 16.51287 16.512869 h 17.54492 17.54492 v -16.512869 -16.51287 h 30.96163 30.96163 v 16.51287 16.512869 h 18.57696 18.57698 v -16.512869 -16.51287 h 30.96163 30.96162 v 16.51287 c 0,16.237655 0.0861,16.512869 5.16028,16.512869 h 5.16026 V -71.18107 -99.057404 l -188.34988,0.526895 -188.3499,0.526886 -0.575936,27.349439 -0.575936,27.349439 h 5.220176 c 5.149161,0 5.220186,-0.224677 5.220186,-16.512869 z m 39.539401,14.312421 c -2.661408,-1.066327 -5.324074,-3.793996 -5.917034,-6.06149 -1.077919,-4.121946 -4.724855,-5.82471 -4.724855,-2.206043 0,8.0747 -15.910086,11.070758 -22.705193,4.275655 l -4.128213,-4.128217 v 5.160271 5.160272 l 21.157113,-0.130845 c 15.356855,-0.09497 19.830511,-0.662353 16.318182,-2.069611 z m 20.319739,-2.247682 c 0,-4.058995 -0.316,-4.172843 -3.61219,-1.301393 -1.9867,1.730701 -5.00547,3.65903 -6.70835,4.285172 -1.70289,0.62614 -0.0774,1.211769 3.61218,1.301396 5.54353,0.134662 6.70836,-0.609419 6.70836,-4.285175 z m 99.07721,-11.032685 v -15.480817 h -28.89752 -28.89752 v 15.480817 15.480815 h 28.89752 28.89752 z m 97.0131,0 v -15.480817 h -28.89752 -28.89753 v 15.480817 15.480815 h 28.89753 28.89752 z m 99.07719,0 v -15.480817 h -28.89751 -28.89752 v 15.480817 15.480815 h 28.89752 28.89751 z m -340.577884,4.128217 c -7.393264,-7.627915 -10.320543,-8.929094 -10.320543,-4.587493 0,5.389094 6.45686,11.811873 11.874552,11.811873 h 5.448131 z m 38.323444,4.937899 c 0.77722,-1.257566 -2.0036,-5.669599 -6.1796,-9.804515 -7.188217,-7.11752 -7.744293,-7.31491 -10.438018,-3.705216 -2.817276,3.775259 -2.287535,8.227421 1.572529,13.216076 2.471009,3.193482 13.124379,3.401418 15.045089,0.293655 z m -9.53705,-7.518034 -7.113255,-7.740408 7.740415,7.113263 c 7.20459,6.62087 8.68945,8.367552 7.11325,8.367552 -0.34493,0 -3.82811,-3.483183 -7.74041,-7.740407 z m -25.690234,-2.580136 c -4.393507,-4.499361 -8.452612,-7.716231 -9.020248,-7.1486 -0.567625,0.567629 2.562635,4.713348 6.956141,9.212708 4.393506,4.499361 8.452622,7.716231 9.020248,7.148601 0.567635,-0.56763 -2.562635,-4.713349 -6.956141,-9.212709 z m 9.941968,-1.614185 c -1.702206,-4.906103 -6.84122,-8.706358 -11.773438,-8.706358 -3.605515,0 -3.246676,0.920246 2.785682,7.144062 7.038849,7.262254 11.217402,7.988591 8.987756,1.562296 z m 30.308146,2.646239 c 0,-4.601023 -7.60616,-11.352597 -12.78956,-11.352597 -4.1978,0 -4.01517,0.534393 2.46902,7.22438 7.60745,7.848895 10.32054,8.934132 10.32054,4.128217 z m -21.860783,-8.256434 c 6.348673,-6.348683 12.861923,-6.57735 19.147613,-0.672252 l 4.77728,4.48802 V -68.7463 -74.266377 H 91.063638 62.166126 v 5.160274 5.160272 l 4.128213,-4.128218 c 5.831182,-5.83118 15.417621,-5.368247 20.028699,0.967191 2.039699,2.802473 3.898546,5.124594 4.13075,5.160271 0.232214,0.03567 2.744333,-2.257258 5.582479,-5.095407 z m 341.797593,-43.346276 9.11597,-9.28849 H 259.11597 71.282085 l -9.115959,9.28849 -9.115958,9.28849 H 240.88403 428.71789 Z M 82.807212,-140.31785 v -16.51287 h 30.961618 30.96163 v 16.51287 16.51286 h 18.57698 18.57698 v -16.51286 -16.51287 h 30.96162 30.96163 v 16.51287 16.51286 h 17.4581 17.45808 l 0.60287,-15.99683 0.60284,-15.99685 h 30.96163 30.96163 l 0.60284,15.99685 0.60287,15.99683 h 17.45808 17.45811 v -16.51286 -16.51287 h 30.96162 30.96162 v 16.51287 c 0,16.23765 0.0861,16.51286 5.16028,16.51286 h 5.16027 v -27.86546 -27.86546 H 261.35259 72.486669 v 27.86546 27.86546 h 5.160267 c 5.074268,0 5.160276,-0.27521 5.160276,-16.51286 z m 12.38465,15.04851 c -1.702896,-0.62614 -4.721648,-2.55447 -6.708357,-4.28517 -3.296181,-2.87144 -3.612186,-2.75759 -3.612186,1.3014 0,3.67575 1.164834,4.41983 6.708346,4.28517 3.689595,-0.0896 5.315083,-0.67525 3.612197,-1.3014 z m 27.865468,-1.00214 c -5.7798,-3.27751 -7.15648,-5.8448 -7.19278,-13.4133 -0.0559,-11.66582 14.27761,-17.28549 22.67359,-8.88951 4.12822,4.12822 4.12822,4.12822 4.12822,-1.03205 v -5.16028 H 113.76883 84.871319 v 5.52008 5.52007 l 4.777278,-4.48802 c 7.337572,-6.89328 17.313663,-5.09296 22.181673,4.00299 2.96076,5.53223 -1.09251,15.94503 -7.16217,18.39952 -3.02079,1.22157 -0.28976,1.76575 9.10073,1.8134 11.03155,0.056 12.68282,-0.34811 9.2885,-2.2729 z m 19.60903,-1.98163 c 0,-4.05899 -0.31601,-4.17284 -3.61219,-1.3014 -1.98671,1.7307 -5.00546,3.65903 -6.70836,4.28517 -1.70288,0.62615 -0.0774,1.21177 3.6122,1.3014 5.54351,0.13466 6.70835,-0.60942 6.70835,-4.28517 z m 51.4307,3.9101 c -0.47302,-0.29592 -2.94996,-2.29757 -5.50429,-4.44812 -4.58914,-3.86372 -4.64424,-3.85733 -4.64424,0.53802 0,3.44274 1.24411,4.44812 5.50428,4.44812 3.02737,0 5.11727,-0.24211 4.64425,-0.53802 z m 27.65638,-1.54049 c -9.55371,-3.84928 -11.3832,-14.2103 -3.84095,-21.75256 6.25979,-6.25978 12.79507,-6.45819 19.05379,-0.57843 l 4.77728,4.48802 v -5.52007 -5.52008 h -28.89752 -28.89751 v 5.16028 5.16027 l 4.12821,-4.12822 c 5.27789,-5.27788 13.29909,-5.27788 18.57698,0 5.9395,5.93951 5.34364,15.25719 -1.31042,20.49128 l -5.43864,4.27802 13.17905,-0.13084 c 9.72383,-0.0965 11.99682,-0.60717 8.66973,-1.94768 z m 19.99012,-2.36961 c 0,-4.05899 -0.31599,-4.17284 -3.61219,-1.3014 -1.9867,1.7307 -5.00547,3.65903 -6.70835,4.28517 -1.70289,0.62615 -0.0774,1.21177 3.61218,1.3014 5.54353,0.13466 6.70836,-0.60942 6.70836,-4.28517 z m 47.99052,1.92889 c -2.55433,-1.23191 -4.64424,-3.2125 -4.64424,-4.40133 0,-1.33071 0.95205,-1.20946 2.47693,0.31541 1.3623,1.36232 4.7955,2.47694 7.62929,2.47694 5.12688,0 5.11717,-0.0364 -1.9609,-7.35515 l -7.11327,-7.35516 -1.30387,5.80708 c -2.59185,11.54336 -2.14092,13.04002 3.88401,12.89174 5.57421,-0.13717 5.59276,-0.17998 1.03205,-2.37953 z m 31.09655,0.44072 c -9.31482,-3.75303 -11.66091,-15.83646 -4.38996,-22.61038 5.39879,-5.02973 11.48113,-5.37124 17.72848,-0.99541 4.29513,3.00842 4.58751,2.94264 4.58751,-1.03207 0,-4.07462 -1.11999,-4.24526 -27.86547,-4.24526 -26.74548,0 -27.86546,0.17063 -27.86546,4.24526 0,3.97471 0.29238,4.04049 4.5875,1.03207 6.31854,-4.42569 11.82877,-4.02358 17.46863,1.2748 7.44428,6.99353 5.31114,18.52702 -4.13011,22.33099 -3.23351,1.30281 -0.42139,1.81684 9.93944,1.81684 10.36083,0 13.17295,-0.51403 9.93944,-1.81684 z m 17.89443,-2.56573 c -0.0186,-2.64209 -0.68538,-3.67834 -1.54808,-2.40373 -0.83408,1.23228 -3.37418,3.29395 -5.6447,4.58148 -3.84717,2.1816 -3.74177,2.34523 1.54808,2.40373 4.53818,0.0502 5.66996,-0.86841 5.6447,-4.58148 z m 51.63431,3.17989 c -1.70289,-0.62614 -4.72165,-2.55447 -6.70836,-4.28517 -3.29619,-2.87144 -3.61219,-2.75759 -3.61219,1.3014 0,3.67575 1.16485,4.41983 6.70836,4.28517 3.68959,-0.0896 5.31507,-0.67525 3.61219,-1.3014 z m 27.86546,-1.00214 c -5.77979,-3.27751 -7.15647,-5.8448 -7.19277,-13.4133 -0.056,-11.66582 14.27759,-17.28549 22.67358,-8.88951 l 4.12822,4.12822 v -5.16027 -5.16028 h -28.89752 -28.89752 v 5.52008 5.52007 l 4.77728,-4.48802 c 2.6275,-2.46841 6.84954,-4.48802 9.38232,-4.48802 4.61233,0 14.73792,8.35201 14.73792,12.15646 0,5.32613 -4.54349,12.91463 -8.74245,14.60153 -3.53767,1.42125 -1.41187,1.89442 8.74245,1.94594 11.03154,0.056 12.68281,-0.34811 9.28849,-2.2729 z m 19.60903,-1.98163 c 0,-4.05899 -0.316,-4.17284 -3.61219,-1.3014 -1.98671,1.7307 -5.00546,3.65903 -6.70836,4.28517 -1.70288,0.62615 -0.0774,1.21177 3.6122,1.3014 5.54351,0.13466 6.70835,-0.60942 6.70835,-4.28517 z m -331.43685,-2.92369 c 6.66223,-6.66223 1.91095,-19.46159 -7.224368,-19.46159 -5.496513,0 -5.028589,1.75541 2.724848,10.22227 6.12459,6.68814 5.94573,6.61564 -2.064111,-0.83667 -10.340928,-9.62114 -11.926119,-5.80318 -2.061384,4.96489 l 6.708355,7.32265 -7.32265,-6.70836 c -7.921943,-7.25738 -10.222275,-8.17358 -10.222275,-4.07147 0,9.52054 12.851336,15.17854 19.461585,8.56828 z m 19.64536,-4.12205 c -6.56775,-6.80078 -7.16498,-7.02951 -7.78773,-2.98255 -0.9152,5.94737 3.16257,10.3482 9.58855,10.3482 h 5.31244 z m 79.54392,4.00998 c 4.87333,-4.87332 3.13895,-13.47822 -3.45979,-17.16533 -8.59254,-4.80118 -9.37159,-0.89008 -1.52402,7.65124 l 7.08329,7.70948 -7.32264,-6.70834 c -10.76807,-9.86475 -14.58603,-8.27956 -4.96488,2.06138 7.45229,8.00984 7.52479,8.18869 0.83666,2.06411 -8.46686,-7.75343 -10.22228,-8.22136 -10.22228,-2.72486 0,9.21925 12.81152,13.87446 19.57366,7.11232 z m 19.6405,-3.87273 c -7.96899,-8.22192 -13.24561,-6.83772 -7.47972,1.96214 2.2747,3.47165 5.33084,5.26626 8.96817,5.26626 h 5.51759 z m 108.22215,3.9848 c 6.40617,-6.40615 1.44412,-19.46159 -7.39685,-19.46159 -5.31675,0 -4.80267,1.81376 2.89732,10.22227 l 6.70564,7.32264 -8.38373,-7.78238 c -10.88801,-10.10705 -13.62846,-7.36659 -3.52143,3.52142 l 7.78239,8.38374 -7.32265,-6.70563 c -8.27762,-7.58014 -10.22228,-8.19954 -10.22228,-3.25597 0,9.15482 12.91544,14.30166 19.46159,7.7555 z m 68.11558,0 c 6.66222,-6.66223 1.91094,-19.46159 -7.22437,-19.46159 -5.49652,0 -5.02858,1.75541 2.72484,10.22227 6.12458,6.68814 5.94573,6.61564 -2.06411,-0.83667 -10.34093,-9.62114 -11.92613,-5.80318 -2.06138,4.96489 l 6.70836,7.32265 -7.32266,-6.70836 c -7.92194,-7.25738 -10.22227,-8.17358 -10.22227,-4.07147 0,9.52054 12.85132,15.17854 19.46159,8.56828 z m 24.65089,0.74933 c -3.02056,-4.88736 -9.79475,-11.9545 -11.45899,-11.9545 -2.60521,0 -2.00296,9.1838 0.78506,11.97183 3.34209,3.34208 12.74072,3.32682 10.67393,-0.0173 z m -295.96367,-8.88925 c -3.8347,-3.9564 -7.90732,-7.19346 -9.05029,-7.19346 -1.14295,0 1.53324,3.69835 5.9471,8.21854 4.41385,4.52021 8.48647,7.75726 9.05027,7.19346 0.5638,-0.56379 -2.11238,-4.26214 -5.94708,-8.21854 z m 107.44469,-3.88406 c -1.92289,-5.05753 -11.15633,-9.43506 -13.96886,-6.62253 -0.72097,0.72097 1.87538,4.78013 5.7697,9.02035 l 7.08057,7.70948 -8.76973,-8.15931 c -10.74672,-9.99868 -11.66977,-7.36929 -1.18306,3.37007 7.21233,7.3861 7.72197,7.57631 10.3286,3.85481 1.97398,-2.81824 2.18201,-5.38739 0.74278,-9.17287 z m 59.74808,3.88406 c -3.83469,-3.9564 -7.90733,-7.19346 -9.05026,-7.19346 -1.14296,0 1.53322,3.69835 5.94708,8.21854 4.41385,4.52021 8.48649,7.75726 9.05028,7.19346 0.56379,-0.56379 -2.11239,-4.26214 -5.9471,-8.21854 z m 127.97473,0 c -3.83471,-3.9564 -7.90733,-7.19346 -9.05027,-7.19346 -1.14296,0 1.53322,3.69835 5.94709,8.21854 4.41384,4.52021 8.48648,7.75726 9.05026,7.19346 0.56379,-0.56379 -2.11238,-4.26214 -5.94708,-8.21854 z m -285.6581,-2.00726 c -1.33161,-5.30557 -10.2988,-11.24719 -12.95926,-8.58673 -0.76906,0.76905 1.72572,4.62141 5.54393,8.56081 7.70179,7.94621 9.40469,7.95216 7.41533,0.0259 z m 167.19279,0 c -1.33163,-5.30557 -10.29881,-11.24719 -12.95926,-8.58673 -0.76905,0.76905 1.72572,4.62141 5.54393,8.56081 7.70176,7.94621 9.4047,7.95216 7.41533,0.0259 z m 127.97471,0 c -1.33161,-5.30557 -10.2988,-11.24719 -12.95925,-8.58673 -0.76905,0.76905 1.72571,4.62141 5.54392,8.56081 7.70178,7.94621 9.4047,7.95216 7.41533,0.0259 z m 25.61041,-49.56453 9.11597,-9.28849 H 281.82116 93.987277 l -9.115958,9.28849 -9.115959,9.28849 h 187.83386 187.83386 z"
       style="fill:#000000;stroke-width:2.06410861" />
  </g>
</svg>
