<?xml version="1.0" encoding="UTF-8" standalone="no"?>
<svg
   xmlns:dc="http://purl.org/dc/elements/1.1/"
   xmlns:cc="http://creativecommons.org/ns#"
   xmlns:rdf="http://www.w3.org/1999/02/22-rdf-syntax-ns#"
   xmlns:svg="http://www.w3.org/2000/svg"
   xmlns="http://www.w3.org/2000/svg"
   id="svg8"
   version="1.1"
   viewBox="0 0 500 500"
   height="500mm"
   width="500mm">
  <defs
     id="defs2" />
  <metadata
     id="metadata5">
    <rdf:RDF>
      <cc:Work
         rdf:about="">
        <dc:format>image/svg+xml</dc:format>
        <dc:type
           rdf:resource="http://purl.org/dc/dcmitype/StillImage" />
        <dc:title></dc:title>
      </cc:Work>
    </rdf:RDF>
  </metadata>
  <g
     transform="translate(0,203)"
     id="layer1">
    <path
       id="path348"
       d="m 269.98493,290.22737 c -15.85131,-2.50546 -30.60943,-5.43043 -32.79582,-6.49994 -4.93979,-2.41633 -54.78965,-9.71873 -65.59165,-9.60836 -9.68186,0.099 -59.24159,-7.68792 -67.74946,-10.64481 l -6.133056,-2.13155 4.559496,-22.07964 c 2.50772,-12.14379 4.59677,-22.71965 4.64234,-23.5019 0.0456,-0.78223 -4.40939,-2.01818 -9.899896,-2.74652 -5.4905,-0.72833 -10.42278,-2.03627 -10.96061,-2.90649 -1.11559,-1.80506 9.81481,-55.00706 11.6856,-56.87786 0.67401,-0.674 5.829056,-1.9532 11.455686,-2.84264 5.62662,-0.88944 10.57446,-1.96143 10.9952,-2.38215 1.88158,-1.88158 22.92539,-108.9336 21.92576,-111.538603 -2.40276,-6.261478 -13.47004,-5.619912 -31.87548,1.847817 -12.682716,5.145823 -19.233226,6.798872 -23.354596,5.893668 -6.40436,-1.406643 -6.29361,-1.078108 -3.87547,-11.495851 1.61009,-6.936555 1.35583,-7.724987 -3.02886,-9.392029 -6.55912,-2.493774 -6.02384,-5.893469 0.92793,-5.893469 4.64153,0 5.92144,-1.026251 6.81703,-5.465971 0.96823,-4.7997574 5.24849,-7.524673 35.117736,-22.356745 24.39065,-12.111584 34.27288,-18.016705 34.9261,-20.870071 0.50103,-2.188613 8.51284,-41.024217 17.80401,-86.301336 9.29118,-45.27713 17.2493,-82.67831 17.68472,-83.11373 1.32856,-1.32855 138.98521,19.42055 144.30257,21.75085 2.73298,1.19771 7.65236,1.99738 10.93194,1.77704 5.67022,-0.38095 74.75559,9.28785 76.12124,10.65351 0.35754,0.35753 -5.33733,29.58882 -12.65527,64.95841 -7.31792,35.369581 -14.03023,69.674925 -14.91622,76.23409 -0.886,6.559165 -3.45737,19.0812077 -5.71416,27.8267607 C 389.07495,11.265403 374.48876,80.58385 358.918,156.56085 l -28.31048,138.13999 -15.90101,0.0409 c -8.74555,0.0225 -28.87026,-2.00895 -44.72158,-4.51443 z M 351.28858,172.7505 c 13.23814,-64.8863 24.55091,-119.893849 25.1395,-122.238989 1.17221,-4.670464 1.41499,-4.627789 -29.19835,-5.133322 -11.41589,-0.188427 -13.89143,-0.91713 -18.38554,-5.411232 -2.85635,-2.856337 -5.19336,-6.522552 -5.19336,-8.147138 0,-2.402384 -0.55747,-2.491112 -2.98637,-0.475301 -1.66217,1.379472 -5.40789,1.996152 -8.44741,1.390761 -7.44272,-1.482411 -11.33978,2.140792 -11.8614,11.027805 -0.36791,6.268594 0.193,7.453596 3.52804,7.453596 2.83098,0 4.31259,-1.735435 5.17868,-6.065856 0.95046,-4.752274 2.12338,-5.935964 5.41628,-5.46597 3.2096,0.458088 4.2049,2.00935 4.21072,6.562762 0.004,3.279583 0.60607,6.883963 1.33752,8.009734 1.83219,2.819905 -5.36421,32.908682 -8.30563,34.726584 -1.30943,0.809262 -2.99895,4.493923 -3.75451,8.188124 -1.112,5.437112 -2.30483,6.716712 -6.2613,6.716712 -2.68816,0 -4.7483,-0.89443 -4.57808,-1.98763 1.88793,-12.124958 1.59517,-13.913384 -2.2776,-13.913384 -2.84288,0 -4.24346,1.677497 -4.9785,5.962877 -0.79482,4.633852 -2.18727,6.098077 -6.24751,6.569447 -5.09796,0.59184 -5.20436,0.37482 -4.38476,-8.944321 1.42197,-16.168421 5.04614,-32.993117 9.05648,-42.043253 2.10593,-4.752493 3.54334,-8.876558 3.19423,-9.164625 -0.34909,-0.288066 -4.33326,-1.089576 -8.8537,-1.781131 -7.32999,-1.121379 -8.34312,-0.782747 -9.36649,3.13063 -0.63113,2.413395 -0.19965,4.973815 0.95883,5.689777 2.64098,1.632219 -3.53676,31.698496 -7.11291,34.617722 -1.33921,1.093194 -3.02646,4.36421 -3.74948,7.268946 -0.72302,2.904716 -1.86129,6.706051 -2.52951,8.447409 -0.9508,2.477716 0.1278,3.166096 4.96057,3.166096 5.26216,0 6.17554,0.73494 6.17554,4.96906 0,2.73299 -0.99874,4.96907 -2.21944,4.96907 -1.2207,0 -1.76525,1.73685 -1.21013,3.85967 1.26554,4.83941 -2.23578,22.03486 -5.24735,25.77044 -1.24026,1.53844 -2.25502,5.49068 -2.25502,8.78276 0,8.61622 -6.01967,9.51968 -32.94675,4.94476 -12.43671,-2.11301 -22.75261,-4.01216 -22.92422,-4.22037 -2.28215,-2.76894 -2.45197,-13.32782 -0.24986,-15.53677 3.34265,-3.35305 7.88839,-20.40312 5.64823,-21.18531 -1.99699,-0.69726 -0.34078,-10.36568 1.77567,-10.36568 0.83824,0 1.99188,-1.78887 2.56364,-3.975262 0.84923,-3.247463 2.71114,-3.975252 10.16994,-3.975252 h 9.1304 l 0.23537,-7.453596 c 0.1294,-4.099478 0.14172,-8.087788 0.027,-8.862923 -0.52013,-3.520005 6.319,-32.121423 8.8332,-36.940699 4.63544,-8.885304 3.63189,-12.003868 -4.34431,-13.500213 -8.70095,-1.632317 -11.28747,1.214579 -9.87498,10.868994 1.30841,8.943043 -4.19061,34.511165 -7.86464,36.567264 -1.60203,0.896539 -2.91279,3.301347 -2.91279,5.34399 0,6.760671 -2.35251,10.001932 -7.2594,10.001932 -4.49035,0 -4.74758,-0.527198 -3.50057,-7.174355 0.96014,-5.117997 0.55868,-7.672931 -1.40066,-8.913865 -4.41889,-2.798717 -5.2136,-2.184143 -6.57759,5.086552 -1.44803,7.718667 -3.31299,9.580118 -7.85278,7.838043 -2.50351,-0.960699 -2.9028,-3.53523 -2.08017,-13.412259 1.26424,-15.179339 6.49332,-38.648985 8.94925,-40.166835 1.00841,-0.623161 1.83339,-2.964802 1.83339,-5.203644 0,-3.10811 -0.82244,-3.725228 -3.47834,-2.609932 -19.01933,7.986757 -24.68727,9.474754 -36.8523,9.674709 -11.76051,0.193396 -13.61887,0.733493 -14.43927,4.19713 -0.51786,2.186388 -5.72764,27.351976 -11.57729,55.923519 -10.39345,50.764962 -10.53993,51.944302 -6.4308,51.773102 7.17011,-0.2987 81.61737,11.09437 83.52869,12.78286 1.06509,0.9409 -0.5391,13.03076 -3.90902,29.46011 -5.44896,26.5653 -5.97333,27.95423 -11.24761,29.79284 -3.0427,1.0607 -5.53219,3.31671 -5.53219,5.01337 0,1.69666 -0.99875,3.08484 -2.21944,3.08484 -1.2939,0 -1.75247,1.78572 -1.09965,4.28212 1.58461,6.05953 -2.68692,24.04574 -6.43629,27.10147 -2.47016,2.01315 -2.59944,2.90007 -0.60265,4.13414 1.40227,0.86667 1.97101,3.05958 1.26838,4.8906 -0.70058,1.82569 -0.72499,3.31943 -0.0542,3.31943 1.53413,0 39.77745,5.5425 48.22858,6.98963 5.69114,0.97453 6.18123,0.66529 5.15641,-3.25361 -0.6993,-2.67417 0.0264,-5.1779 1.89765,-6.54612 3.41142,-2.49449 7.90976,-20.57034 5.49111,-22.06513 -2.00774,-1.24086 -0.0556,-8.91441 2.26784,-8.91441 0.96569,0 1.75581,-0.79024 1.75581,-1.75606 0,-0.96585 -5.87156,-2.38488 -13.04792,-3.15339 -8.15913,-0.87378 -13.43969,-2.41823 -14.09352,-4.12208 -0.88754,-2.31288 8.77908,-54.11549 10.51106,-56.3279 0.32792,-0.41887 7.55802,-1.87008 16.06689,-3.2249 14.35982,-2.28641 18.42088,-2.01766 56.55753,3.74303 22.59778,3.41349 41.62796,6.75161 42.28929,7.41802 1.00905,1.01681 -6.79572,42.82491 -10.06961,53.94033 -0.56272,1.91054 -3.19961,4.01997 -5.85972,4.68761 -2.66012,0.66767 -4.83659,2.16457 -4.83659,3.32647 0,1.16191 -1.56526,3.87892 -3.47835,6.0378 -2.31741,2.61515 -2.71567,4.19311 -1.19323,4.72782 2.56503,0.90089 -2.04306,24.45116 -5.16147,26.37844 -0.95121,0.5879 -1.26933,3.47604 -0.70694,6.41808 0.7556,3.95259 2.39472,5.52528 6.27818,6.02368 2.89058,0.37099 5.83491,0.19757 6.54295,-0.38518 0.70801,-0.58281 12.11851,-54.14847 25.35661,-119.03477 z m -50.49545,117.88664 c -1.09319,-0.42263 -13.16802,-2.60717 -26.83295,-4.85452 -13.66492,-2.24737 -27.52861,-4.61875 -30.8082,-5.26973 -3.33837,-0.66266 -5.24325,-0.4253 -4.32789,0.53928 1.94481,2.04942 47.02967,10.18324 56.99998,10.28346 3.82618,0.0386 6.06226,-0.27586 4.96906,-0.69849 z m 9.93813,-0.90537 c 0.67563,-1.09319 -0.1133,-1.98762 -1.75303,-1.98762 -1.63979,0 -3.53421,0.89443 -4.20985,1.98762 -0.67563,1.0932 0.1133,1.98763 1.75303,1.98763 1.63979,0 3.53422,-0.89443 4.20985,-1.98763 z m -10.93194,-6.97523 c 0,-1.52095 1.56525,-3.67705 3.47834,-4.79131 1.91309,-1.11429 2.53919,-2.05316 1.39134,-2.08639 -1.14785,-0.0332 -3.09483,0.94738 -4.32662,2.17917 -3.25623,3.25623 -11.98503,0.42827 -13.51017,-4.37701 -1.19793,-3.77434 -1.59291,-3.85641 -4.76114,-0.9892 -4.86919,4.40656 -11.33148,3.88219 -14.89734,-1.20878 -2.9354,-4.19087 -3.16835,-4.21615 -6.9893,-0.75824 -4.98608,4.51235 -12.58953,2.89681 -15.5811,-3.31059 -1.19685,-2.48345 -2.23666,-3.33344 -2.31064,-1.88886 -0.0739,1.44457 -1.59304,4.08501 -3.37566,5.86765 -2.99642,2.99643 -2.95892,3.36643 0.49691,4.9005 4.90526,2.1775 56.96503,11.0284 58.89466,10.01292 0.81989,-0.43148 1.49072,-2.02891 1.49072,-3.54986 z m 3.69319,-14.13232 c 0.62057,-3.25899 0.0477,-3.12053 -4.47216,1.08085 -2.85115,2.65026 -5.18391,5.66625 -5.18391,6.70224 0,3.2979 8.9142,-3.8872 9.65607,-7.78309 z m 9.97833,4.70964 c 3.90825,-10.60967 4.34633,-15.4041 1.40748,-15.4041 -2.93868,0 -3.84011,1.96833 -6.14423,13.41647 -1.51097,7.50737 2.13926,9.03905 4.73675,1.98763 z m -32.42847,-4.38474 c 1.75923,-2.68493 2.5505,-5.93028 1.7584,-7.21194 -1.02449,-1.65766 -1.96978,-1.38395 -3.27492,0.94821 -1.00911,1.80316 -2.45058,2.89828 -3.20329,2.43359 -0.75272,-0.46468 -1.49756,1.30538 -1.6552,3.93346 -0.36839,6.14094 2.31209,6.09749 6.37501,-0.10336 z m -112.83818,1.81965 c -0.95279,-0.95279 -55.44919,-10.78406 -60.04512,-10.83228 -11.784936,-0.12363 42.03208,11.04824 56.31606,11.69064 2.64189,0.11886 4.31997,-0.26746 3.72906,-0.85836 z m 9.35615,-0.91325 c 0.67563,-1.0932 -0.16601,-1.98763 -1.87033,-1.98763 -1.7043,0 -3.09874,0.89443 -3.09874,1.98763 0,1.09319 0.84165,1.98762 1.87032,1.98762 1.02868,0 2.42311,-0.89443 3.09875,-1.98762 z m 82.08894,-2.38516 c 3.43448,-3.43447 3.04154,-11.27281 -0.53877,-10.74735 -1.60815,0.23603 -3.62062,1.19473 -4.47216,2.13042 -0.85332,0.93768 -0.28146,0.96585 1.27407,0.0628 2.11108,-1.22563 2.48674,-0.80505 1.49072,1.66897 -0.73238,1.81911 -1.87449,4.64914 -2.53806,6.28893 -1.44566,3.57256 1.44735,3.93313 4.7842,0.59628 z m 36.17479,-2.58391 c 4.64748,-4.94702 4.64933,-4.96906 0.4164,-4.96906 -3.61012,0 -8.36691,5.01076 -8.36691,8.81365 0,2.54597 3.56759,0.82081 7.95051,-3.84459 z m -21.0935,-8.73064 c -1.59964,-1.8507 -6.73235,4.62138 -6.72281,8.4771 0.01,3.69516 0.47653,3.47634 3.7038,-1.73408 2.03132,-3.27959 3.38988,-6.31396 3.01901,-6.74302 z m -106.512,5.40811 c 0.46573,-2.46043 -0.40754,-3.05149 -3.36553,-2.27796 -2.65323,0.69384 -5.57966,-0.6659 -8.71558,-4.04961 -4.31368,-4.65454 -4.99365,-4.82166 -7.87882,-1.9365 -4.08042,4.08041 -13.46682,1.94564 -14.85938,-3.3795 -0.99314,-3.79782 -1.07964,-3.79651 -6.02117,0.0904 -6.26143,4.92524 -7.48114,4.91524 -12.49895,-0.10256 -3.66739,-3.66739 -4.33682,-3.75566 -7.14974,-0.94275 -6.03002,6.03002 -1.71955,8.33175 23.45615,12.52524 28.5778,4.76017 36.14299,4.77511 37.03302,0.0731 z m 82.88392,-1.64653 c 1.69594,-3.27959 2.1976,-5.96288 1.11478,-5.96288 -2.13141,0 -6.08385,6.37151 -6.08385,9.80746 0,3.69138 1.78708,2.30871 4.96907,-3.84458 z m -74.53597,2.04999 c 0,-1.05886 -1.34164,-1.41039 -2.98144,-0.78115 -1.63979,0.62926 -2.98143,1.49561 -2.98143,1.92525 0,0.42963 1.34164,0.78116 2.98143,0.78116 1.6398,0 2.98144,-0.86637 2.98144,-1.92526 z m 130.24349,-3.79173 c -0.85191,-3.87875 -0.2636,-6.70905 1.82971,-8.80234 4.97568,-4.97568 3.59723,-7.15054 -4.36824,-6.89195 -4.09948,0.13297 -17.91777,-1.36524 -30.70731,-3.32961 -26.7572,-4.1097 -28.43171,-3.52265 -28.72091,10.06895 -0.17015,7.99354 -0.0871,8.09856 3.53944,4.47216 4.82256,-4.82256 8.69628,-4.6938 13.85049,0.46041 3.03564,3.03564 4.7703,3.57773 6.3604,1.98763 3.5511,-3.55109 13.0365,-2.58175 15.64747,1.59906 2.17979,3.49039 2.7297,3.54589 7.05496,0.71187 3.71022,-2.43102 5.71269,-2.60802 9.57852,-0.84663 2.68821,1.22484 4.88766,3.14057 4.88766,4.2572 0,1.11663 0.51827,2.03024 1.15174,2.03024 0.63346,0 0.58669,-2.57265 -0.10395,-5.71699 z M 105.012,259.04088 c 0,-0.48207 -0.89443,-1.4293 -1.98763,-2.10493 -1.09319,-0.67564 -1.98762,-0.28121 -1.98762,0.8765 0,1.15771 0.89443,2.10494 1.98762,2.10494 1.0932,0 1.98763,-0.39443 1.98763,-0.87651 z m 76.21274,-2.60184 c 0.50467,-0.81989 1.55518,-5.75084 2.33447,-10.95764 1.19785,-8.00341 0.9507,-9.28804 -1.59871,-8.30973 -1.65858,0.63646 -3.60318,4.28926 -4.32133,8.11735 -0.71816,3.82809 -1.7962,8.23829 -2.39566,9.80044 -1.12409,2.92935 4.26095,4.1444 5.98123,1.34958 z m -10.406,-4.87405 c 1.75488,-3.27903 1.76931,-4.56824 0.0575,-5.13883 -1.25677,-0.41893 -1.69405,-1.71791 -0.97173,-2.88665 0.78277,-1.26653 0.3732,-1.54395 -1.01385,-0.6867 -1.27994,0.79103 -1.88644,2.15134 -1.34779,3.0229 0.53865,0.87155 -0.94216,3.26944 -3.29068,5.32862 -2.34852,2.0592 -3.53088,2.48775 -2.62746,0.95235 1.11715,-1.89864 0.89817,-2.33156 -0.68458,-1.35337 -3.18773,1.97013 -0.87668,5.13883 3.74794,5.13883 2.08341,0 4.84218,-1.96972 6.1306,-4.37715 z m -23.21476,-0.73389 c 3.28251,-3.28251 4.44035,-13.82611 1.30555,-11.88871 -0.99983,0.61793 -2.17733,0.0451 -2.61667,-1.27292 -0.49543,-1.48628 -1.30614,-1.07433 -2.13462,1.08467 -0.79872,2.08142 -0.54579,2.99281 0.62904,2.26673 2.74968,-1.6994 2.45381,0.25976 -1.06762,7.06947 -3.27009,6.32365 -1.1761,7.80117 3.88432,2.74076 z m 168.09634,1.19816 c 0,-1.05887 -1.34164,-1.4104 -2.98143,-0.78116 -1.6398,0.62926 -2.98144,1.49561 -2.98144,1.92525 0,0.42963 1.34164,0.78116 2.98144,0.78116 1.63979,0 2.98143,-0.86637 2.98143,-1.92525 z m -186.75369,-6.18057 c 1.21584,-2.27181 1.62984,-5.62593 0.92001,-7.45359 -1.10088,-2.83454 -1.67212,-2.61492 -3.88585,1.4939 -2.58426,4.79654 -10.23662,7.9666 -8.39373,3.47719 3.85812,-9.39873 3.91226,-9.81466 1.15814,-8.89661 -3.52243,1.17415 -3.82672,12.73332 -0.31673,12.03133 1.36649,-0.2733 2.48453,0.39753 2.48453,1.49072 0,3.60836 5.7809,2.06632 8.03363,-2.14294 z m 37.24969,-6.90219 c -2.38177,-2.38177 -9.50605,3.29841 -9.50605,7.57918 0,4.23625 0.14861,4.20844 5.36056,-1.00351 2.94831,-2.94833 4.81378,-5.90737 4.14549,-6.57567 z m -57.17052,-1.05372 c 1.6051,-6.6908 1.75606,-10.76547 0.44731,-12.07423 -1.30875,-1.30873 -2.4406,0.59009 -3.35395,5.62669 -0.75821,4.18115 -1.86169,9.61455 -2.45216,12.07423 -0.59047,2.45969 -0.17139,4.47216 0.93128,4.47216 1.10266,0 3.09505,-4.54448 4.42752,-10.09885 z m 30.76965,4.13598 c 3.1275,-6.04793 1.76828,-7.92992 -2.58392,-3.57773 -1.77506,1.77507 -2.38515,1.79296 -2.38515,0.07 0,-1.27337 1.90201,-3.33313 4.22668,-4.57726 5.12969,-2.74537 13.66195,0.41537 13.66195,5.06097 0,3.8578 2.78008,3.87766 5.96288,0.0425 3.47365,-4.18549 7.91026,-3.71219 13.38121,1.42749 l 4.6931,4.40895 -1.34069,-8.3842 c -0.84013,-5.25385 -0.58315,-8.3841 0.68832,-8.3841 1.11596,0 2.58481,-1.44839 3.26411,-3.21863 1.00335,-2.61468 0.21199,-3.02304 -4.21737,-2.17631 -2.99886,0.57325 -16.65183,-0.68408 -30.33993,-2.79408 -20.03937,-3.08905 -25.77216,-3.36682 -29.4291,-1.42587 -2.61508,1.38796 -4.0906,3.58594 -3.47835,5.18145 0.58482,1.52401 1.06331,4.40895 1.06331,6.41096 0,3.24136 0.67176,3.38682 6.13317,1.32818 5.63047,-2.12239 6.5265,-1.8548 10.93194,3.26491 2.63933,3.06724 4.79877,7.31579 4.79877,9.44122 0,5.41129 1.38895,4.82474 4.96907,-2.09845 z m 180.07038,2.75218 c 2.30537,-2.77779 2.15938,-3.11278 -1.08264,-2.48453 -2.06099,0.39939 -4.11953,1.8442 -4.57452,3.21069 -1.18057,3.54571 2.50439,3.07271 5.65716,-0.72616 z M 306.1301,213.70509 c 2.8535,-14.48482 4.98928,-26.55192 4.7462,-26.81578 -0.61335,-0.66575 -79.4002,-12.39213 -79.74637,-11.8692 -1.13221,1.71035 -10.27624,52.2965 -9.58143,53.00584 1.02102,1.04239 66.77763,11.47944 74.34996,11.80101 4.91069,0.20852 5.18005,-0.47917 10.23164,-26.12187 z m 20.00526,23.09029 c 3.00628,-0.57494 5.46597,-1.2985 5.46597,-1.60791 0,-0.3094 2.23608,-11.54173 4.96906,-24.96073 2.73299,-13.41899 4.96907,-25.24068 4.96907,-26.27039 0,-1.02972 -2.45969,-1.40181 -5.46597,-0.82687 -3.00629,0.57494 -9.15371,1.59986 -13.66097,2.2776 l -8.19498,1.23227 -4.37232,22.22873 c -2.40477,12.22581 -4.87631,24.34041 -5.49229,26.92136 -1.08043,4.52692 -0.81213,4.64598 7.59823,3.37195 4.79503,-0.72638 11.17791,-1.79107 14.1842,-2.36601 z M 182.5294,232.09063 c 0,-1.0932 -0.84164,-1.98763 -1.87032,-1.98763 -1.02868,0 -2.42311,0.89443 -3.09874,1.98763 -0.67564,1.09319 0.166,1.98762 1.87032,1.98762 1.70431,0 3.09874,-0.89443 3.09874,-1.98762 z m 5.96288,-8.16316 c 0,-0.97622 -1.34165,-1.77497 -2.98144,-1.77497 -1.63979,0 -2.98144,1.31358 -2.98144,2.91907 0,1.77811 1.16532,2.47187 2.98144,1.77496 1.63979,-0.62926 2.98144,-1.94282 2.98144,-2.91906 z m -17.2931,-17.17907 c 5.24104,-23.32618 7.92577,-38.35354 7.01482,-39.26449 -1.19854,-1.19854 -77.97906,-12.66663 -78.916876,-11.78718 -0.61749,0.57905 -9.15809,40.77562 -10.7173,50.44127 -0.36181,2.24288 7.11827,4.0321 34.320806,8.20943 49.40367,7.58667 44.72102,8.3234 48.29855,-7.59903 z m 23.37545,10.28473 c 4.80003,-0.93725 5.35181,-2.36985 9.73162,-25.26696 2.55368,-13.35036 5.05367,-25.3872 5.55555,-26.74855 0.68883,-1.86849 -1.45284,-2.15494 -8.7378,-1.16876 -20.41714,2.76395 -18.85261,0.84804 -24.73768,30.29372 l -5.27588,26.39766 9.18783,-1.25678 c 5.0533,-0.69122 11.47766,-1.70387 14.27636,-2.25033 z m -81.61213,-0.84351 c 0,-1.09319 -0.89443,-1.98762 -1.98763,-1.98762 -1.09319,0 -1.98762,0.89443 -1.98762,1.98762 0,1.0932 0.89443,1.98763 1.98762,1.98763 1.0932,0 1.98763,-0.89443 1.98763,-1.98763 z m 211.68214,-33.53802 7.9505,-1.50692 -5.96287,-1.33062 c -13.77552,-3.07398 -59.84125,-9.32461 -67.37225,-9.1417 -22.03496,0.53516 -17.03268,3.12343 15.69581,8.12128 38.41182,5.86574 38.89704,5.9034 49.68881,3.85796 z m -132.17711,-19.87829 8.94431,-1.44337 -12.91956,-2.27198 c -39.47529,-6.94196 -59.5748,-9.02644 -69.89461,-7.24863 -10.51075,1.81069 -10.30634,1.87282 23.1854,7.04723 38.04803,5.87836 38.37316,5.90348 50.68446,3.91675 z m 57.26785,-9.23594 c -1.34783,-1.34781 -33.21414,-6.95561 -38.38541,-6.75502 -5.92549,0.22987 -1.1201,1.71323 15.20478,4.6936 15.87873,2.89889 24.81257,3.69338 23.18063,2.06142 z m 9.31761,-0.95177 c 0.67563,-1.0932 -0.16597,-1.98763 -1.87032,-1.98763 -1.7043,0 -3.09874,0.89443 -3.09874,1.98763 0,1.09319 0.84164,1.98762 1.87031,1.98762 1.02868,0 2.42312,-0.89443 3.09875,-1.98762 z m -9.93813,-7.9505 c 0.69394,-2.18639 2.24493,-3.97526 3.44664,-3.97526 1.20174,0 1.66528,-0.51968 1.03011,-1.15485 -0.63516,-0.63516 -3.08028,-0.12442 -5.43361,1.13508 -3.40474,1.82215 -5.26659,1.64269 -9.11456,-0.87859 -5.95534,-3.90211 -6.34068,-11.51011 -0.86052,-16.99027 4.84011,-4.8401 9.42373,-5.05688 14.26597,-0.67472 3.87322,3.50522 7.81939,2.08878 4.21698,-1.51363 -2.35867,-2.35868 -1.1272,-9.7374 1.62512,-9.7374 0.96569,0 1.75581,-1.24984 1.75581,-2.77741 0,-2.64315 -5.49445,-4.02049 -33.25965,-8.337542 -7.1136,-1.106052 -8.62749,-0.73214 -9.79315,2.418792 -0.75834,2.0499 -2.03315,4.1766 -2.83291,4.72598 -0.79976,0.54937 -0.98854,3.43419 -0.41955,6.41072 0.86361,4.5177 1.633,5.09157 4.65679,3.47328 4.99367,-2.67254 7.07098,-2.44247 10.6983,1.18484 4.63608,4.63608 3.95186,13.95954 -1.2941,17.63396 -5.83828,4.08928 -8.68706,3.90294 -13.47112,-0.88111 -2.884,-2.88401 -3.97525,-3.20229 -3.97525,-1.15945 0,1.54868 -1.11804,3.22574 -2.48453,3.7268 -5.37649,1.97137 2.89372,6.41751 15.98361,8.59291 20.70846,3.44153 23.82732,3.29063 25.25962,-1.22213 z m 8.94432,0.0624 c 0,-1.05887 -1.34165,-1.4104 -2.98144,-0.78116 -1.63979,0.62926 -2.98144,1.49561 -2.98144,1.92525 0,0.42963 1.34165,0.78116 2.98144,0.78116 1.63979,0 2.98144,-0.86637 2.98144,-1.92525 z m 3.50714,-6.52216 c 1.10345,-1.36649 2.63361,-6.28811 3.40037,-10.93693 1.17248,-7.10876 0.91155,-8.26721 -1.64144,-7.28755 -1.66954,0.64067 -3.60418,3.99704 -4.29919,7.45859 -0.69501,3.46155 -1.70437,7.85899 -2.24302,9.77208 -1.13227,4.02136 1.83987,4.63888 4.78328,0.99381 z m -12.30648,-1.02424 c 2.75855,-1.88894 5.1788,-8.41702 3.12055,-8.41702 -0.86833,0 -3.67945,2.23608 -6.24697,4.96906 -3.21438,3.42156 -3.78654,4.95959 -1.83718,4.93864 1.55705,-0.0159 3.79066,-0.68756 4.9636,-1.49072 z M 228.154,131.82496 c 1.31096,-1.57961 2.06572,-4.93373 1.67722,-7.4536 -0.6631,-4.30096 -0.92107,-4.18196 -4.21248,1.94322 -2.04461,3.80495 -4.42738,5.95541 -5.71621,5.15887 -1.33909,-0.82761 -1.65116,-0.46157 -0.79185,0.92881 1.94608,3.14884 6.17495,2.87888 9.04332,-0.5773 z m 19.73352,-8.34129 c -2.79438,-3.36702 -8.80925,-0.37566 -10.23913,5.09221 -1.45049,5.54665 2.69329,6.36347 7.9633,1.56973 3.35056,-3.04776 3.91181,-4.6907 2.27583,-6.66194 z m -4.73554,5.25041 c 1.97867,-2.18639 4.04478,-3.97525 4.59138,-3.97525 0.5466,0 -0.62509,1.78886 -2.60375,3.97525 -1.97866,2.18639 -4.04478,3.97525 -4.59137,3.97525 -0.5466,0 0.62508,-1.78886 2.60374,-3.97525 z m -23.8515,-3.97525 c 3.12751,-6.04793 1.76827,-7.92991 -2.58392,-3.57773 -2.29167,2.29167 -3.38759,9.54061 -1.44238,9.54061 0.51853,0 2.33035,-2.6833 4.0263,-5.96288 z m 43.72776,-9.93813 c 0.67564,-1.09319 -0.16596,-1.98763 -1.87031,-1.98763 -1.70431,0 -3.09875,0.89444 -3.09875,1.98763 0,1.09319 0.84164,1.98763 1.87031,1.98763 1.02868,0 2.42312,-0.89444 3.09875,-1.98763 z m 6.95669,-8.16316 c 0,-0.97622 -1.34165,-1.77497 -2.98144,-1.77497 -1.63979,0 -2.98143,1.31358 -2.98143,2.91907 0,1.77811 1.16532,2.47187 2.98143,1.77497 1.63979,-0.62927 2.98144,-1.94283 2.98144,-2.91907 z m 34.78345,-7.737852 c -0.67563,-1.093194 -2.07007,-1.987626 -3.09875,-1.987626 -1.02867,0 -1.87031,0.894432 -1.87031,1.987626 0,1.093192 1.39444,1.987632 3.09875,1.987632 1.70431,0 2.54595,-0.89444 1.87031,-1.987632 z m -49.33909,-1.398116 c -3.04737,-0.787955 -3.41031,-2.200063 -2.28199,-8.878525 1.26826,-7.506746 1.08578,-7.905325 -3.33299,-7.279859 -3.44416,0.487505 -4.84323,2.131411 -5.31495,6.245041 -0.35215,3.070842 -2.14101,6.176805 -3.97525,6.90213 -2.54766,1.007448 -1.92725,1.628084 2.62787,2.628893 6.93586,1.523873 18.02807,1.869306 12.27731,0.38232 z m 30.45665,-1.583323 c 0,-1.639791 -0.89443,-2.981438 -1.98763,-2.981438 -1.09319,0 -1.98762,1.341647 -1.98762,2.981438 0,1.639791 0.89443,2.981439 1.98762,2.981439 1.0932,0 1.98763,-1.341648 1.98763,-2.981439 z M 260.0468,93.07412 c 0,-3.332115 -3.52513,-4.157198 -4.69841,-1.099713 -0.69229,1.804088 0.006,2.970029 1.77935,2.970029 1.60548,0 2.91906,-0.84164 2.91906,-1.870316 z m -17.88863,-4.209871 c 0,-1.028675 -1.34165,-1.870316 -2.98144,-1.870316 -3.07368,0 -3.94881,2.345319 -1.71039,4.583763 1.58798,1.587974 4.69183,-0.20709 4.69183,-2.713447 z m 63.60403,2.104936 c 0,-1.093194 -0.94723,-1.987626 -2.10494,-1.987626 -1.15771,0 -1.55214,0.894432 -0.8765,1.987626 0.67563,1.093194 1.62285,1.987626 2.10493,1.987626 0.48208,0 0.87651,-0.894432 0.87651,-1.987626 z m -91.43079,-4.969064 c 0,-1.639792 -0.89443,-2.981439 -1.98762,-2.981439 -1.0932,0 -1.98763,1.341647 -1.98763,2.981439 0,1.639791 0.89443,2.981438 1.98763,2.981438 1.09319,0 1.98762,-1.341647 1.98762,-2.981438 z m 73.54215,2.104935 c 0,-0.482079 -0.89443,-1.429302 -1.98762,-2.104935 -1.0932,-0.675634 -1.98763,-0.28121 -1.98763,0.876503 0,1.157712 0.89443,2.104935 1.98763,2.104935 1.09319,0 1.98762,-0.394424 1.98762,-0.876503 z m 21.93469,-3.595655 c 0.0389,-1.366492 1.30233,-7.637929 2.80754,-13.936516 3.20055,-13.39292 2.65886,-14.01783 -13.98514,-16.134174 l -10.11298,-1.285894 -2.45116,11.454587 c -1.34812,6.300019 -2.87146,12.945764 -3.38518,14.768318 -0.74502,2.643144 1.19424,3.701515 9.5827,5.22986 14.94798,2.723465 17.46425,2.709671 17.54422,-0.0962 z m -18.64519,-7.113185 c -4.12565,-4.558799 -4.15592,-8.157018 -0.11707,-13.923219 3.702,-5.285316 14.02175,-5.369651 17.29304,-0.14132 3.01599,4.82033 0.12025,12.762803 -5.60409,15.370985 -6.75258,3.076686 -7.70213,2.969493 -11.57182,-1.306466 z m 11.6177,-7.269861 c 0,-7.047246 -6.20712,-9.441083 -10.22666,-3.944045 -3.53974,4.840902 0.0962,11.321913 5.88898,10.497207 3.35227,-0.477228 4.33768,-1.96592 4.33768,-6.553162 z M 196.44278,83.136002 c 0,-3.332116 -3.52514,-4.157199 -4.69841,-1.099714 -0.69229,1.804088 0.006,2.97003 1.77935,2.97003 1.60548,0 2.91906,-0.841641 2.91906,-1.870316 z m 65.05334,0.669452 c -0.66049,-0.660468 -2.37481,-0.731069 -3.80962,-0.156824 -1.58559,0.63449 -1.11462,1.105478 1.20086,1.200844 2.09528,0.08626 3.26923,-0.383472 2.60876,-1.043941 z m -19.33795,-2.774388 c 0,-1.093194 -0.89443,-1.987625 -1.98762,-1.987625 -1.0932,0 -1.98763,0.894431 -1.98763,1.987625 0,1.093194 0.89443,1.987626 1.98763,1.987626 1.09319,0 1.98762,-0.894432 1.98762,-1.987626 z m -25.83913,-3.975251 c 0,-1.093194 -0.89443,-1.987626 -1.98763,-1.987626 -1.09319,0 -1.98762,0.894432 -1.98762,1.987626 0,1.093194 0.89443,1.987626 1.98762,1.987626 1.0932,0 1.98763,-0.894432 1.98763,-1.987626 z m 49.45069,-5.465971 c 3.70583,-14.530796 4.4276,-20.007281 2.77175,-21.03065 -0.92188,-0.569773 -7.03709,-1.642455 -13.58932,-2.38376 l -11.91317,-1.347829 -2.42803,11.755415 c -3.54566,17.166348 -3.34628,18.106972 4.03174,19.022572 18.16897,2.254763 19.08425,1.994145 21.12703,-6.015748 z m -21.75849,-2.735947 c -3.02461,-5.651535 0.39345,-13.103085 7.19695,-15.689781 9.23433,-3.510882 16.39618,3.537557 12.91036,12.705938 -3.11075,8.181902 -16.27952,10.136096 -20.10731,2.983843 z m 13.01143,-0.983656 c 3.82769,-3.82769 3.30401,-8.468736 -1.28142,-11.3562 -4.30516,-2.710963 -9.60783,1.447309 -9.60783,7.534314 0,7.650451 5.22635,9.484791 10.88925,3.821886 z m -59.13058,5.997084 c -0.66047,-0.660468 -2.3748,-0.731068 -3.80961,-0.156823 -1.5856,0.634489 -1.11462,1.105477 1.20085,1.200844 2.09529,0.08626 3.26923,-0.383473 2.60876,-1.043941 z m 23.69825,-11.718703 c 4.19228,-18.133527 4.21671,-18.082465 -9.74346,-20.367101 -6.83246,-1.118159 -12.7169,-1.767198 -13.07653,-1.442301 -1.53834,1.389768 -6.58356,27.160269 -5.5246,28.219236 1.71457,1.714566 15.34385,4.195779 21.08181,3.837947 4.25135,-0.26513 5.29551,-1.738417 7.26278,-10.247781 z m -20.77478,2.583913 c -3.95348,-3.953487 -2.83434,-12.975817 2.03236,-16.384595 9.4356,-6.608935 19.31633,-0.877139 16.66923,9.669799 -1.784,7.107949 -13.94282,11.47357 -18.70159,6.714796 z m 12.52204,-8.54679 c 0,-4.962843 -0.79704,-5.962877 -4.75243,-5.962877 -5.55745,0 -9.3569,4.964532 -7.50095,9.801081 0.8844,2.304692 3.04658,3.18368 6.7761,2.754691 4.62077,-0.531491 5.47728,-1.562453 5.47728,-6.592895 z m 82.48647,-6.95669 c 0,-1.093194 -0.89444,-1.987626 -1.98763,-1.987626 -1.09319,0 -1.98762,0.894432 -1.98762,1.987626 0,1.093194 0.89443,1.987625 1.98762,1.987625 1.09319,0 1.98763,-0.894431 1.98763,-1.987625 z m -25.83914,-2.864129 c 0,-0.482079 -0.89443,-1.429302 -1.98762,-2.104936 -1.0932,-0.675633 -1.98763,-0.281209 -1.98763,0.876504 0,1.157712 0.89443,2.104935 1.98763,2.104935 1.09319,0 1.98762,-0.394424 1.98762,-0.876503 z m 46.70921,-1.111123 c 0.67563,-1.093194 -0.16597,-1.987625 -1.87032,-1.987625 -1.70431,0 -3.09875,0.894431 -3.09875,1.987625 0,1.093194 0.84164,1.987626 1.87032,1.987626 1.02867,0 2.42311,-0.894432 3.09875,-1.987626 z M 263.2594,40.071407 c 1.18683,-4.72872 -1.24405,-8.598489 -5.46541,-8.700553 -1.61051,-0.03896 -3.64592,10.391069 -2.41614,12.380901 2.06105,3.334858 6.6598,1.187427 7.88155,-3.680348 z m 34.55229,2.200958 c 0,-1.639792 -0.89443,-2.981439 -1.98762,-2.981439 -1.0932,0 -1.98763,1.341647 -1.98763,2.981439 0,1.639791 0.89443,2.981438 1.98763,2.981438 1.09319,0 1.98762,-1.341647 1.98762,-2.981438 z m 76.34092,-5.609716 1.32437,-5.609696 -7.04446,5.609696 c -6.78871,5.406064 -6.8816,5.652907 -2.55847,6.799528 5.40863,1.43451 6.55738,0.491004 8.27856,-6.799528 z m -122.59462,5.402665 c -0.66049,-0.660468 -2.37481,-0.731069 -3.80962,-0.156824 -1.58559,0.63449 -1.11462,1.105478 1.20086,1.200844 2.09528,0.08626 3.26923,-0.383453 2.60876,-1.043941 z m 98.64712,-1.536037 c 6.81166,-2.846102 13.19824,-13.016047 13.19824,-21.016797 0,-5.563881 -5.03487,-15.2174012 -8.6629,-16.6095938 -1.56585,-0.6008795 -8.08357,0.4567762 -14.48379,2.3503475 -10.28618,3.0432736 -11.91007,4.2378966 -13.99155,10.2928593 -4.45145,12.949163 3.08931,26.965204 14.84128,27.585562 1.4016,0.07394 5.49603,-1.09709 9.09872,-2.602378 z M 95.351824,26.468375 c 2.73603,-13.094021 2.7511,-14.941996 0.13003,-15.947794 -4.0062,-1.5373097 -4.24537,-1.1452697 -7.42713,12.174426 -3.72327,15.586643 -3.61978,18.583545 0.64175,18.583545 2.82709,0 4.19833,-3.051423 6.65535,-14.810177 z m 26.717676,4.872048 c 0.58615,0 0.51295,-0.894431 -0.16269,-1.987625 -0.67563,-1.093195 -4.25336,-1.987626 -7.9505,-1.987626 -3.69715,0 -7.27878,-0.900752 -7.95918,-2.001659 -2.27084,-3.674305 5.47907,-4.653031 17.38012,-2.194895 11.12996,2.298848 12.53605,2.133776 25.64989,-3.011253 7.63092,-2.993901 14.61178,-6.845462 15.51301,-8.559034 2.20763,-4.1975075 8.3239,-34.31356 7.19751,-35.439953 -0.49186,-0.491854 -16.34734,7.059971 -35.23442,16.7818307 C 98.702144,12.397794 100.57934,10.492436 96.281494,33.765585 l -1.36548,7.394246 13.043856,-4.909714 c 7.17414,-2.700329 13.52347,-4.909694 14.10963,-4.909694 z m 149.90306,8.281781 c 0,-2.588048 -2.36283,-4.309252 -4.28491,-3.121348 -2.05564,1.270471 -0.28313,4.777696 2.41459,4.777696 1.02868,0 1.87032,-0.74536 1.87032,-1.656348 z m 99.22715,-9.531083 c 5.09932,-6.482741 5.49563,-19.767116 0.79012,-26.4851719 -3.14354,-4.48805935 -3.1375,-4.6900413 0.10316,-3.44646337 1.91717,0.73568 2.94028,0.508395 2.30903,-0.51296698 -0.96166,-1.55601195 -14.57109,-0.71023795 -16.66457,1.03563298 -0.38322,0.31956997 1.18204,2.59770747 3.47834,5.06252237 5.02364,5.3922489 5.74736,20.7696349 1.25688,26.7065739 -6.99005,9.241664 1.38195,6.97754 8.72696,-2.360127 z m -164.8188,6.335676 c 0,-0.482079 -0.89443,-1.429301 -1.98763,-2.104935 -1.09319,-0.675634 -1.98762,-0.281209 -1.98762,0.876503 0,1.157712 0.89443,2.104935 1.98762,2.104935 1.0932,0 1.98763,-0.394424 1.98763,-0.876503 z m 12.6606,-3.595654 c 2.10867,-7.868454 1.4579,-9.747317 -3.14578,-9.082556 -3.15825,0.456041 -4.76887,2.456666 -5.71184,7.09493 -1.17262,5.767851 -0.83275,6.459783 3.17293,6.459783 2.97218,0 4.89067,-1.509303 5.68469,-4.472157 z m 35.04242,2.484532 c 0,-1.093194 -1.34165,-1.987626 -2.98144,-1.987626 -1.63979,0 -2.98144,0.894432 -2.98144,1.987626 0,1.093194 1.34165,1.987625 2.98144,1.987625 1.63979,0 2.98144,-0.894431 2.98144,-1.987625 z m -27.82676,-3.975252 c 0,-1.093194 -0.89444,-1.987625 -1.98763,-1.987625 -1.09319,0 -1.98763,0.894431 -1.98763,1.987625 0,1.093194 0.89444,1.987626 1.98763,1.987626 1.09319,0 1.98763,-0.894432 1.98763,-1.987626 z m 69.17134,0.70835 c 2.99477,-0.802146 4.96735,-3.194174 5.71442,-6.929559 0.62752,-3.137487 2.37076,-5.704545 3.87391,-5.704545 1.50314,0 2.73298,-1.630012 2.73298,-3.622229 0,-2.966393 -2.60918,-4.026095 -14.41017,-5.8527227 -11.86956,-1.837242 -15.17447,-3.1890064 -18.74514,-7.6670476 -3.71858,-4.663546 -4.78723,-5.061197 -7.51582,-2.79664895 -2.69421,2.23597895 -3.62754,2.06257895 -6.10021,-1.13340395 -2.76781,-3.5774541 -3.05961,-3.5927611 -5.62295,-0.294924 -3.51186,4.5181119 -4.54598,4.3855569 -5.89027,-0.7550611 -0.7395,-2.827837 -2.13632,-3.838441 -4.20707,-3.043818 -1.70502,0.65427 -3.10002,0.323225 -3.10002,-0.73566 0,-2.490752 7.3539,-2.510956 8.89067,-0.02443 0.64612,1.045449 2.48777,1.396971 4.09256,0.781158 1.60477,-0.615812 4.48303,-0.443759 6.39612,0.38234 1.91309,0.826099 5.41604,1.314799 7.78432,1.085999 2.40087,-0.231948 5.23215,1.176233 6.39934,3.1828111 1.8605,3.1984669 2.10011,3.2276659 2.15381,0.26244595 0.0332,-1.83500805 1.49374,-4.76967605 3.24556,-6.52148705 3.82286,-3.8228637 25.01745,-104.5202807 22.55855,-107.1777607 -0.91665,-0.99068 -9.5824,1.43265 -19.92264,5.57126 -10.96154,4.38728 -20.77986,7.08309 -24.48334,6.72239 -6.57348,-0.64023 -6.79428,-1.36129 -4.3715,-14.27582 1.16433,-6.20637 0.83172,-6.76719 -4.66548,-7.86662 -8.16586,-1.63318 -11.98339,-9.90848 -12.50157,-27.0998 -0.38337,-12.71951 0.0519,-14.47719 4.74826,-19.17354 5.3846,-5.38459 23.52685,-9.39902 23.52685,-5.2059 0,2.39653 -4.69825,4.4464 -10.19103,4.4464 -2.14668,0 -6.1425,2.23945 -8.8796,4.97656 -4.61288,4.61288 -4.8777,5.88387 -3.62348,17.39173 1.66793,15.30392 3.65462,19.37185 9.46078,19.37185 3.06142,0 5.11903,-1.66852 6.38986,-5.18153 1.46237,-4.04252 7.99132,-8.30252 29.70117,-19.37935 22.04634,-11.24853 27.9587,-15.12682 28.4619,-18.66998 0.34933,-2.45969 0.0853,-4.47216 -0.58661,-4.47216 -0.67197,0 -22.42415,-3.16509 -48.33816,-7.03353 -25.91403,-3.86844 -49.31176,-7.22256 -51.99498,-7.4536 -4.86817,-0.41917 -4.9175,-0.23167 -23.15629,88.02928 -10.59088,51.251313 -17.54496,89.22371 -16.53537,90.290626 1.05301,1.112804 3.33368,0.401142 5.76456,-1.798776 3.7373,-3.382201 4.27758,-3.408957 7.62709,-0.377698 2.79953,2.533541 4.13658,2.73064 5.98496,0.882259 1.84838,-1.848379 3.34958,-1.410612 6.71975,1.959552 2.3868,2.386808 3.64539,5.0339137 2.79683,5.8824567 -0.84854,0.848543 -2.68631,-0.02105 -4.08393,-1.932413 -2.97867,-4.0735587 -6.31456,-4.4986017 -7.77529,-0.990688 -0.73334,1.761115 -1.94121,1.35817 -4.14833,-1.3838917 -2.41639,-3.002044 -3.64627,-3.335908 -5.49146,-1.490719 -1.30773,1.307736 -4.3392,2.377704 -6.73658,2.377704 -4.92867,0 -5.903,1.7933987 -7.78211,14.3242417 -1.74439,11.6324003 -2.71262,12.9351103 -12.00506,16.1522413 -5.43644,1.882142 -7.85472,3.881674 -7.85472,6.494607 0,5.847535 21.33139,4.681574 35.83581,-1.958786 6.06137,-2.774983 14.02256,-5.608582 17.69154,-6.296877 5.41195,-1.015299 6.89579,-2.375968 7.86261,-7.210073 1.15809,-5.7905296 1.43036,-5.9190893 9.65338,-4.5583806 11.24162,1.8602388 11.87658,2.3937969 10.46996,8.7981056 -1.15266,5.248047 -0.80697,5.545039 7.83278,6.729246 4.97127,0.681398 11.16346,1.772187 13.76045,2.423989 4.33076,1.086953 4.83478,0.431673 6.08603,-7.912301 1.31889,-8.7949051 1.59356,-9.097382 8.26153,-9.097382 8.26784,0 9.5561,2.5094173 7.03913,13.711616 -1.72271,7.667246 -1.5095,8.568595 2.3997,10.145199 5.17461,2.086967 12.59875,2.364559 18.80201,0.703043 z M 238.18292,-3.4430263 c 0,-1.656354 -1.76678,-2.981439 -3.97525,-2.981439 -2.18639,0 -3.97525,-0.894431 -3.97525,-1.987625 0,-3.5541027 7.75309,-2.0951557 9.8682,1.856957 2.57304,4.8077701 2.58779,6.09354505 0.0699,6.09354505 -1.0932,0 -1.98763,-1.34164695 -1.98763,-2.98143805 z m -12.64454,-1.987626 c -0.62924,-1.639791 -2.51379,-2.981438 -4.18791,-2.981438 -1.67409,0 -3.04381,-0.894432 -3.04381,-1.9876257 0,-5.422051 11.6272,0.9095707 11.86255,6.4597827 0.11469,2.7030321 -3.46354,1.551183 -4.63083,-1.490719 z m -11.92575,-1.987626 c -0.62925,-1.639791 -2.51379,-2.9814377 -4.18791,-2.9814377 -1.6741,0 -3.04381,-0.894432 -3.04381,-1.987627 0,-3.2391 5.09337,-2.267624 8.63625,1.647228 3.65552,4.0392947 4.1995,6.3032757 1.51453,6.3032757 -0.97624,0 -2.2898,-1.341647 -2.91906,-2.981439 z m -5.2441,37.1023533 c 0,-2.588048 -2.36282,-4.309252 -4.2849,-3.121347 -2.05564,1.27047 -0.28314,4.777695 2.41459,4.777695 1.02867,0 1.87031,-0.745359 1.87031,-1.656348 z m -62.61021,-2.318903 c 0.67564,-1.093194 -0.166,-1.987626 -1.87032,-1.987626 -1.7043,0 -3.09874,0.894432 -3.09874,1.987626 0,1.093194 0.84164,1.987626 1.87032,1.987626 1.02868,0 2.42311,-0.894432 3.09874,-1.987626 z M 269.98493,17.047148 c 0,-5.703015 -5.38935,-4.17137 -6.54217,1.859285 -0.57351,3.000063 -0.54125,6.26607 0.0718,7.257795 1.49454,2.418206 6.4705,-4.593045 6.4705,-9.11708 z m 45.17709,9.11716 c -0.66049,-0.660468 -2.37482,-0.731069 -3.80963,-0.156824 -1.58559,0.63449 -1.11462,1.105478 1.20087,1.200844 2.09527,0.08626 3.26922,-0.383452 2.60876,-1.043941 z M 323.353,15.439417 c 2.34427,-6.7248126 2.40924,-6.667251 -4.54184,-4.024445 -6.15176,2.338899 -7.16084,9.987323 -1.31766,9.987323 2.41389,0 4.53234,-2.155819 5.8595,-5.962878 z m -98.08965,-1.987625 c -0.67563,-1.093194 -3.18811,-1.898461 -5.58328,-1.789499 -4.05394,0.184451 -4.0115,0.308082 0.61422,1.789499 2.73298,0.875251 5.24546,1.680537 5.58328,1.789499 0.33782,0.108922 0.0614,-0.696305 -0.61422,-1.789499 z M 312.28723,5.5538621 C 313.1337,2.3169937 312.04486,1.4117497 306.05927,0.37599773 302.0697,-0.31436425 295.27592,-1.6240312 290.962,-2.5343493 c -8.95432,-1.889549 -11.03894,-1.152998 -11.03894,3.900324 0,2.8550054 2.51733,3.98348 12.42266,5.5688699 18.28699,2.9268787 18.82473,2.8896497 19.94151,-1.3809825 z m 73.47691,-16.0744771 c 5.39314,-1.46156 7.4536,-3.09768 7.4536,-5.91859 0,-2.144253 -0.69655,-3.89864 -1.54787,-3.89864 -0.85134,0 -18.06914,4.801555 -38.2618,10.6701237 -30.69558,8.92100905 -36.8117,11.316316 -37.31042,14.6121177 -0.55834,3.6900073 1.4111,3.3862782 30.8082,-4.75151867 17.2726,-4.78145203 34.75881,-9.60252003 38.85829,-10.71349273 z m -8.20076,15.4918642 c -1.96302,-1.94839 -2.19132,-1.7200913 -1.11268,1.1126729 0.74642,1.9602362 1.85782,3.0633682 2.46979,2.4513984 0.61197,-0.61197 0.001,-2.2157852 -1.35711,-3.5640713 z M 138.80163,-11.39353 c 20.2241,-10.269169 35.1939,-18.718743 33.26624,-18.776832 -1.92766,-0.05808 -15.79135,6.06438 -30.80819,13.605479 C 108.13449,0.06978373 95.081434,7.468045 99.049124,7.3593617 100.68891,7.3144417 118.57754,-1.1243612 138.80163,-11.39353 Z m 248.31352,7.7292247 c 0.11409,-3.427982 -0.77032,-4.022566 -4.82935,-3.246633 -5.81566,1.111735 -6.23503,3.757431 -1.63626,10.3230939 3.16031,4.51197 3.41027,4.5605675 4.82936,0.9391532 0.82311,-2.1005031 1.55943,-5.707527 1.63625,-8.0156141 z M 349.87379,-11.8121 c 34.07171,-9.991401 34.56518,-10.606899 10.84241,-13.523696 -14.21126,-1.74732 -42.44933,6.930072 -43.39276,13.334325 -0.73588,4.9952897 -5.59837,7.3935467 -5.59837,2.7612027 0,-3.7787857 -1.27909,-3.8529257 -12.89104,-0.747204 -10.92493,2.92197 -11.456,5.05092 -1.51924,6.090337 17.05237,1.7837311 22.05396,1.030534 52.559,-7.9149647 z m -45.00817,-3.469216 c 5.08438,-2.124386 6.51468,-4.090066 7.51135,-10.322964 0.67711,-4.234401 5.22706,-15.530107 10.11102,-25.101569 13.53624,-26.528035 14.28224,-39.136408 3.07104,-51.905241 -5.15177,-5.86754 -17.80921,-12.91727 -17.80921,-9.91908 0,0.56061 -4.47216,22.816873 -9.93813,49.458372 -5.46597,26.641497 -9.93813,49.488473 -9.93813,50.771058 0,2.5682237 6.39781,1.445983 16.99206,-2.980576 z m 31.30133,-9.838892 c 15.2491,-4.705169 15.80267,-4.733549 34.53204,-1.770382 14.88851,2.355503 19.3616,2.482196 20.53619,0.581653 0.82594,-1.336383 4.35841,-16.736149 7.84993,-34.221704 3.49152,-17.485555 6.90912,-33.253626 7.5947,-35.040166 0.76909,-2.00421 -1.77499,-0.85522 -6.64269,3.00007 -7.31243,5.791547 -9.03358,6.252825 -23.54323,6.309735 -14.60565,0.05728 -16.03413,-0.318678 -21.32899,-5.613535 -10.89796,-10.897953 -7.37193,-29.640533 7.39771,-39.322253 3.74198,-2.45294 6.80362,-5.79331 6.80362,-7.42305 0,-3.69531 2.78154,-3.69318 23.85151,0.0183 9.29215,1.63681 17.88938,2.97723 19.10496,2.97873 2.02481,0.003 6.73417,-18.05047 6.73417,-25.81499 0,-2.7319 -5.31684,-4.05909 -31.3051,-7.81435 -17.21781,-2.48794 -33.21213,-4.95333 -35.5429,-5.47865 -3.84691,-0.86702 -4.5485,0.48017 -7.60628,14.60564 -6.92867,32.00688 -5.44115,29.51006 -21.15945,35.51636 l -14.05458,5.37056 7.64508,3.42281 c 10.10108,4.52238 19.99204,16.060603 21.74916,25.371313 1.80639,9.571673 -3.52317,30.592827 -10.39051,40.982928 -7.71072,11.666077 -13.23379,29.123837 -9.21362,29.123107 0.81989,-1.49e-4 8.46462,-2.15209 16.98828,-4.782092 z m -164.683,-8.053132 c 2.14427,-0.22034 4.52608,-2.53721 5.35551,-5.209511 4.02193,-12.95799 31.7463,-153.433049 30.77918,-155.953319 -0.63465,-1.65386 -3.68619,-2.90036 -7.10035,-2.90036 -4.5755,0 -6.23298,1.05459 -7.02882,4.47216 -2.30199,9.88535 -32.82395,159.942359 -32.82395,161.374387 0,0.846624 1.56525,0.881 3.47834,0.07639 1.91309,-0.804609 5.21613,-1.641497 7.34009,-1.859747 z m 205.89784,-57.758867 c 12.69055,-6.56254 15.89669,-25.056703 6.05071,-34.902693 -6.53271,-6.53271 -9.3657,-6.99687 -18.75667,-3.07307 -6.81165,2.84609 -13.19824,13.01604 -13.19824,21.01679 0,6.42197 5.60559,15.976193 10.53911,17.962993 6.30926,2.54083 8.82846,2.37621 15.36509,-1.00402 z m 16.08949,-0.29177 c 2.49526,-3.02484 2.30413,-3.08663 -2.24117,-0.72458 -6.66341,3.46278 -7.16501,4.03144 -3.55608,4.03144 1.68813,0 4.29689,-1.48809 5.79725,-3.30686 z m 6.63756,-13.730483 c 6.40263,-13.49254 -1.13007,-28.67805 -14.22562,-28.67805 h -6.64157 l 6.11696,5.46598 c 8.02955,7.17502 9.68687,18.34311 4.26486,28.739413 l -3.84496,7.37244 5.43922,-2.81273 c 2.99157,-1.547 6.99256,-6.086183 8.89111,-10.087053 z m 0.67553,6.052803 c -0.61197,-0.61197 -1.72337,0.49117 -2.46978,2.4514 -1.07865,2.83277 -0.85035,3.06107 1.11267,1.11267 1.35838,-1.34828 1.96908,-2.95211 1.35711,-3.56407 z m -135.4827,-16.566663 c 1.26192,-5.68266 2.82332,-12.43947 3.46978,-15.01512 0.8918,-3.55328 0.23764,-4.92824 -2.71168,-5.69951 -4.29019,-1.12191 -4.51457,-0.64694 -7.99868,16.93213 -1.24273,6.27014 -1.66957,12.35476 -0.94856,13.52139 2.64173,4.27442 5.95131,0.33854 8.18914,-9.73889 z m 17.35712,4.26163 13.76612,-5.40095 -9.58056,-2.05265 c -5.26929,-1.12896 -9.98408,-3.2694 -10.47729,-4.75653 -0.72036,-2.172 1.20291,-2.41666 9.77703,-1.24375 5.87059,0.80308 12.63643,2.20235 15.0352,3.10949 3.13409,1.18522 8.55539,-0.0588 19.2652,-4.42075 l 14.90377,-6.0701 2.9173,-13.21795 c 1.60451,-7.26987 3.52575,-16.17011 4.26942,-19.77832 l 1.35214,-6.56037 -35.60372,17.82271 -35.60372,17.8227 -2.48267,11.59536 c -1.36544,6.37745 -2.92646,13.16062 -3.46892,15.07371 -1.29385,4.56297 -0.29165,4.44202 15.9307,-1.9226 z m 126.07636,-21.36446 c -0.33563,-0.26969 -3.59009,-1.05827 -7.23217,-1.75241 l -6.62196,-1.26206 5.13124,6.09813 c 2.82219,3.35396 5.21189,7.14753 5.3105,8.43015 0.0986,1.28261 1.04402,-0.67296 2.10094,-4.34572 1.05692,-3.67276 1.64706,-6.8984 1.31145,-7.16809 z m -30.48016,-5.10397 c -4.14704,-1.50536 -6.90114,-0.74844 -6.90114,1.89666 0,0.87709 2.43469,1.12928 5.41042,0.56043 4.80554,-0.91864 4.97221,-1.19333 1.49072,-2.45709 z m -73.96143,-17.05105 c 37.18512,-18.57755 36.43061,-18.14904 34.80951,-19.77015 -1.15762,-1.15762 -73.09339,34.17895 -73.09339,35.90522 0,2.49724 6.32455,-0.16829 38.28388,-16.13507 z m 24.36105,-23.28507 c -5.95852,-1.98617 -5.99885,-1.96486 -7.88411,4.16668 l -1.38653,4.50953 7.26143,-3.46273 7.26144,-3.46274 z"
       style="fill:#000000;stroke-width:1.98762572" />
  </g>
</svg>
