<?xml version="1.0" encoding="UTF-8" standalone="no"?>
<svg
   xmlns:dc="http://purl.org/dc/elements/1.1/"
   xmlns:cc="http://creativecommons.org/ns#"
   xmlns:rdf="http://www.w3.org/1999/02/22-rdf-syntax-ns#"
   xmlns:svg="http://www.w3.org/2000/svg"
   xmlns="http://www.w3.org/2000/svg"
   id="svg8"
   version="1.1"
   viewBox="0 0 500 500"
   height="500mm"
   width="500mm">
  <defs
     id="defs2" />
  <metadata
     id="metadata5">
    <rdf:RDF>
      <cc:Work
         rdf:about="">
        <dc:format>image/svg+xml</dc:format>
        <dc:type
           rdf:resource="http://purl.org/dc/dcmitype/StillImage" />
        <dc:title></dc:title>
      </cc:Work>
    </rdf:RDF>
  </metadata>
  <g
     transform="translate(0,203)"
     id="layer1">
    <path
       id="path665"
       d="m 228.00319,284.68645 c -0.33976,-10.3325 -0.91153,-11.83431 -4.50543,-11.83431 -3.30554,0 -4.11629,-1.3721 -4.11629,-6.96636 0,-6.93581 -0.0517,-6.97282 -11.81342,-8.44233 -15.63227,-1.95311 -42.75139,-9.91728 -59.26261,-17.40381 -7.31927,-3.31873 -13.30776,-5.16595 -13.30776,-4.10496 0,1.06097 -3.70466,1.92905 -8.23257,1.92905 h -8.23257 l 0.43406,-52.99715 c 0.23873,-29.14842 0.73421,-43.50396 1.10107,-31.90119 0.65488,20.71227 0.75687,21.09595 5.60795,21.09595 4.85956,0 4.95159,-0.35443 5.58789,-21.5213 l 0.64696,-21.52133 -7.20351,-0.60369 c -5.9025,-0.49468 -7.33381,-1.52813 -7.92507,-5.72211 -0.39686,-2.81513 -2.48073,-7.58892 -4.63081,-10.60842 -3.57467,-5.02017 -3.90924,-9.6464 -3.90924,-54.05319 V 11.468152 h -8.11111 c -4.461106,0 -8.590486,-0.775652 -9.1764,-1.7236729 -0.585913,-0.9480416 2.656968,-5.347319 7.206404,-9.77617213 l 8.271696,-8.05250007 -8.575328,-1.0290704 -8.575328,-1.0290705 8.62588,-9.776173 8.625866,-9.776173 h -8.566625 -8.566629 l 9.42079,-11.027138 c 10.441924,-12.222403 11.747084,-17.170164 4.789964,-18.158234 -3.951794,-0.561242 -4.722814,-2.091191 -5.258133,-10.433853 -0.618674,-9.641801 -0.72438,-9.776173 -7.690407,-9.776173 -6.022996,0 -7.47485,0.985014 -9.859125,6.68896 -3.76855,9.015548 -8.631709,12.65757 -16.901528,12.65757 -13.208282,0 -22.210208,-14.962952 -16.795355,-27.917136 3.846504,-9.202161 8.663383,-12.834066 17.021375,-12.834066 7.910204,0 16.29987,6.617276 18.252288,14.39635 0.992563,3.954686 2.579697,4.947352 7.892164,4.936116 5.282888,-0.01111 7.656167,-1.491867 11.545871,-7.203495 4.24309,-6.230524 6.0274,-7.198163 13.37791,-7.254887 4.665,-0.036 10.27962,-1.425247 12.47694,-3.087213 5.14506,-3.891541 9.38279,-3.861971 9.38279,0.06548 0,1.876178 1.91432,3.087213 4.88006,3.087213 3.26887,0 6.49653,2.373634 9.77617,7.189432 3.88971,5.711627 6.26299,7.192322 11.54586,7.203495 5.31247,0.01132 6.8996,-0.98143 7.89217,-4.936117 3.02405,-12.048755 19.95163,-18.755044 28.80554,-11.412042 14.66283,12.160649 7.56864,37.766895 -10.46328,37.766895 -8.00312,0 -16.37897,-6.573988 -18.34226,-14.396351 -1.00976,-4.023181 -2.56292,-4.950179 -8.29393,-4.950179 -6.9522,0 -7.06035,0.137689 -7.67882,9.776172 -0.53532,8.342663 -1.30633,9.872611 -5.25812,10.433854 -6.95713,0.98807 -5.65196,5.93583 4.78995,18.158233 l 9.42078,11.027139 h -8.56662 -8.56662 l 8.62587,9.776172 8.62587,9.776174 -8.57533,1.0290703 -8.57532,1.0290704 8.27169,8.05250007 c 4.54943,4.42885313 7.79231,8.82813053 7.2064,9.77617233 -0.5859,0.9480209 -4.71529,1.7236729 -9.17639,1.7236729 h -8.1111 v 48.563127 c 0,46.969176 -0.151,48.775216 -4.60089,55.024496 -4.10453,5.7643 -4.68388,9.48301 -5.37007,34.46966 l -0.76918,28.0083 8.97181,7.31229 c 18.23294,14.86034 53.94126,30.37813 69.90379,30.37813 5.46619,0 5.95763,-0.61012 5.95763,-7.39619 0,-5.68124 0.96066,-7.64739 4.14312,-8.47962 4.10968,-1.0747 4.13876,-2.26951 3.60175,-147.99378 l -0.54137,-146.910307 8.7471,2.55e-4 8.74709,2.56e-4 v -12.538044 -12.53804 l -10.80524,0.70373 c -10.08032,0.65652 -10.79428,0.39305 -10.64181,-3.92709 l 0.16341,-4.63082 h -55.92878 c -53.31497,0 -56.10289,0.19237 -59.65398,4.11628 -5.75137,6.3552 -22.2079,5.68839 -32.305106,-1.30898 -4.305764,-2.98389 -7.828651,-6.0995 -7.828651,-6.92358 0,-0.82408 3.522887,-3.93969 7.828651,-6.92359 10.183745,-7.05734 27.712496,-7.77993 31.753676,-1.30898 2.47278,3.95957 4.79964,4.11628 61.1145,4.11628 55.9207,0 58.74228,-0.18642 62.97296,-4.16095 l 4.42912,-4.16094 5.28979,4.16094 c 5.015,3.94479 8.15982,4.15787 60.53498,4.10148 l 55.24519,-0.0595 37.04655,-32.81132 37.04654,-32.81133 11.49128,-0.0595 c 6.32023,-0.0327 11.99055,0.43978 12.60074,1.04999 0.6102,0.6102 -3.40317,15.49233 -8.9186,33.07141 -5.51543,17.57908 -10.04241,33.05616 -10.05993,34.39349 -0.0185,1.33734 3.91867,5.877 8.7471,10.08813 l 8.77897,7.65662 -42.32138,0.0614 -42.32137,0.0614 -5.91547,-6.17443 -5.91547,-6.17442 -54.67022,0.001 -54.67023,0.001 -0.67765,16.97858 c -0.37268,9.33821 -1.53039,17.287292 -2.57267,17.664618 -1.13027,0.409187 -1.89503,59.391178 -1.89503,146.154535 V 197.78295 l 4.63082,2.03166 c 3.17655,1.39362 4.83335,4.13225 5.27575,8.7206 0.79372,8.23203 4.18457,8.55739 24.35049,2.33643 25.39878,-7.83522 56.83316,-26.81824 59.25088,-35.78122 0.6107,-2.26397 1.12301,-13.14639 1.13847,-24.18317 l 0.0281,-20.06688 H 324.5063 c -12.12705,0 -12.23734,-0.0549 -21.61048,-10.76989 l -9.42125,-10.7699 V 59.813465 10.326378 L 284.503,0.1308795 l -8.97157,-10.1954965 4.21328,-5.698748 4.21326,-5.698749 h 58.94027 58.94029 l 4.47506,4.763468 c 2.46127,2.619907 4.47504,5.673519 4.47504,6.7858002 0,1.1122839 -3.70466,5.6398377 -8.23256,10.06121954 L 394.32353,8.1872687 V 58.331418 108.47557 l -9.65419,11.18241 c -9.62325,11.14658 -9.69246,11.18239 -21.61049,11.18239 h -11.95629 v 53.51168 53.51168 h -7.08202 c -3.89512,0 -7.64876,-0.91694 -8.34138,-2.03766 -0.75608,-1.22338 -5.28127,3.9e-4 -11.32359,3.06225 -14.70606,7.45211 -37.88169,14.72445 -56.09321,17.60162 l -15.95059,2.51997 v 6.92111 c 0,5.97285 -0.69089,6.92112 -5.04265,6.92112 -4.68066,0 -5.09594,0.84947 -5.78525,11.83431 l -0.74262,11.83432 -0.38917,-11.83432 c -0.36438,-11.08101 -0.71014,-11.83431 -5.4318,-11.83431 -4.68067,0 -5.09595,0.84947 -5.78526,11.83431 l -0.74262,11.83432 z m 22.2504,-20.06688 v -6.17442 H 235.8466 221.43961 v 6.17442 6.17443 h 14.40699 14.40699 z m 40.13376,-15.26597 c 10.1878,-3.02927 24.3118,-8.19435 31.38665,-11.47791 l 12.86339,-5.97011 V 207.14134 182.3771 l -14.92153,10.11367 c -53.46454,36.23776 -123.36895,35.08824 -173.06535,-2.84588 -5.29667,-4.04304 -10.08538,-7.35098 -10.64158,-7.35098 -0.55619,0 -1.01125,11.17205 -1.01125,24.82678 v 24.82677 l 12.86338,5.83111 c 32.03233,14.52062 53.2086,18.55046 93.13089,17.72284 26.28899,-0.54499 33.622,-1.45766 49.3954,-6.14781 z m -158.3469,-17.03864 c -0.63748,-1.66125 -1.15906,-14.98483 -1.15906,-29.60797 v -26.58751 h -5.14535 -5.14536 v 29.35034 29.35031 l 6.30441,0.25766 c 4.75623,0.19429 6.01978,-0.4841 5.14536,-2.76283 z m 217.00393,-26.60969 v -29.58579 h -5.03687 -5.03688 l -0.62301,28.99212 c -0.34266,15.94565 -0.35289,29.25926 -0.0227,29.58578 0.33015,0.32653 2.87709,0.59368 5.65989,0.59368 h 5.05959 v -29.58579 z m -99.18108,3.85902 -0.63878,-7.71803 H 235.8466 222.46868 l -0.63877,7.71803 -0.63878,7.71803 h 14.65547 14.65547 z M 239.96288,52.630983 V -93.49707 h -5.14535 -5.14535 V 52.630983 198.75905 h 5.14535 5.14535 z m 109.0815,99.819867 v -21.61048 h -5.14536 -5.14535 v 21.61048 21.61049 h 5.14535 5.14536 z m -214.0467,-29.52406 c 0,-3.24161 1.83747,-7.51832 4.11628,-9.58063 3.89704,-3.52679 4.11628,-6.33901 4.11628,-52.801601 V 11.468152 h -16.46513 -16.46514 v 49.076407 c 0,46.462591 0.21923,49.274811 4.11629,52.801601 2.26395,2.04887 4.11628,5.74269 4.11628,8.20853 0,6.05678 1.55582,7.22754 9.60466,7.22754 6.1676,0 6.86048,-0.59137 6.86048,-5.85544 z m 247.72439,-4.3471 9.54327,-10.20254 V 59.92265 11.468152 H 343.89902 295.5327 l 0.0348,48.880863 0.035,48.880865 9.17056,9.77618 9.17059,9.77617 h 29.6176 29.6176 l 9.54327,-10.20254 z M 157.63723,6.3944219 c 0,-0.5266168 -2.87443,-4.2312716 -6.38764,-8.2325665 -6.38207,-7.2687862 -6.40303,-7.2751189 -24.08518,-7.2751189 -17.11758,0 -17.91996,0.2155721 -24.48448,6.5781705 -3.732824,3.6179865 -6.786945,7.3226414 -6.786945,8.2325663 0,0.909925 13.892455,1.6543961 30.872125,1.6543961 16.97967,0 30.87212,-0.4308515 30.87212,-0.9574475 z m 244.03366,-8.3453938 c 7.39391,-9.0233071 7.51215,-9.4253001 3.93508,-13.3779251 -3.50828,-3.876615 -6.49607,-4.075075 -61.34935,-4.075075 -50.76634,0 -58.11151,0.407311 -61.42524,3.406199 -5.27432,4.773185 -4.80191,6.6769168 3.85738,15.54484013 l 7.6212,7.80480227 h 49.86897 49.86897 z M 152.38174,-20.433043 144.79252,-29.69468 h -18.02741 -18.02743 l -7.58921,9.261637 -7.589213,9.261638 h 33.205853 33.20584 z m -0.65681,-20.535431 c -4.67208,-5.068607 -8.49469,-11.088672 -8.49469,-13.37792 0,-3.830741 -1.31146,-4.162269 -16.46513,-4.162269 -15.15368,0 -16.46514,0.331528 -16.46514,4.162269 0,2.289248 -3.82261,8.309313 -8.49469,13.37792 l -8.494697,9.215652 h 33.454527 33.45451 z m -72.685625,-32.28372 c 2.368935,-6.224173 2.314224,-8.345246 -0.381658,-14.797418 -8.876752,-21.245058 -37.247751,-7.547182 -29.979877,14.474672 4.995718,15.137184 24.643629,15.346043 30.361535,0.322746 z m 45.667655,10.879257 c 0,-0.993374 -1.36473,-2.938764 -3.03275,-4.323091 -4.18977,-3.477206 -5.90579,-14.385496 -3.32916,-21.16257 2.02041,-5.314067 1.81208,-5.638472 -3.62097,-5.638472 -3.37134,0 -7.63014,1.985644 -10.25779,4.782646 -3.75735,3.999515 -4.35731,6.611329 -3.66409,15.950598 0.45593,6.142373 0.92711,11.399493 1.04708,11.682487 0.63254,1.492089 22.85768,0.236233 22.85768,-1.291598 z m 28.41595,-10.286058 c 0.52142,-9.141362 -0.16656,-11.912114 -3.96051,-15.950597 -2.52535,-2.688112 -6.28243,-4.887478 -8.34906,-4.887478 -3.32716,0 -3.75753,1.900073 -3.75753,16.589373 v 16.589375 l 7.71803,-0.638778 7.71803,-0.638775 z m 51.14525,0.317403 c 8.5244,-20.401759 -16.9633,-36.895128 -28.29579,-18.310531 -2.15202,3.52918 -3.91623,7.111313 -3.92046,7.960297 -0.004,0.848983 4.39159,1.710546 9.76848,1.914582 l 9.77618,0.370976 -9.63186,0.76497 -9.63185,0.764967 2.19032,6.283166 c 4.80302,13.777957 24.02537,13.940531 29.74498,0.251573 z m -69.27048,-8.613945 c 0,-17.112825 -0.26462,-18.261398 -3.983,-17.289017 -10.8176,2.828868 -15.29137,18.06564 -8.49451,28.930649 2.47007,3.948495 5.88327,6.68896 8.33097,6.68896 3.84624,0 4.14654,-1.327518 4.14654,-18.330592 z m 306.13146,-42.899113 -5.418,-5.65989 -38.46236,0.6044 -38.46238,0.6044 4.74939,5.05549 c 4.72052,5.02476 4.98725,5.05548 43.88037,5.05548 h 39.13098 z m -334.56295,-3.61933 c 1.82205,-3.99895 1.73369,-6.319 -0.39191,-10.29071 -2.3615,-4.41251 -4.17589,-5.12777 -13.007491,-5.12777 -7.885844,0 -11.890892,1.24151 -17.290095,5.35967 l -7.026897,5.35968 6.832634,4.83011 c 5.010748,3.54219 9.725541,4.85701 17.681994,4.93103 9.632565,0.0896 11.113205,-0.47812 13.201765,-5.06201 z m 139.05658,2.59026 c -0.52833,-1.585 -4.67655,-2.57268 -10.80524,-2.57268 -6.1287,0 -10.27692,0.98768 -10.80525,2.57268 -0.61878,1.85636 2.38974,2.57267 10.80525,2.57267 8.41551,0 11.42403,-0.71631 10.80524,-2.57267 z m -38.59015,-7.10807 c -48.55792,-1.45701 -96.73717,-1.50454 -96.73501,-0.0955 10e-4,0.84898 26.16649,1.34977 58.14486,1.11286 31.97837,-0.23691 49.34394,-0.69475 38.59015,-1.01743 z m 35.82588,-1.1245 c -0.80496,-1.41498 -2.86228,-4.20096 -4.57181,-6.19109 -2.90192,-3.37825 -3.35926,-3.39123 -6.89043,-0.19554 -6.3405,5.73806 -4.69674,8.9593 4.57182,8.9593 6.0917,0 7.95767,-0.69668 6.89042,-2.57267 z m 188.51221,1.02907 c 6.6e-4,-1.49612 -170.76566,-1.32817 -181.11712,0.17813 -2.82994,0.41181 36.76355,0.8875 87.98555,1.0571 51.22198,0.16962 93.1312,-0.38624 93.13157,-1.23522 z m 11.24539,-34.13123 c 5.13446,-16.22522 9.33534,-30.58075 9.33534,-31.90119 0,-1.50867 -3.82178,-2.40079 -10.28478,-2.40079 -8.71692,0 -11.46224,1.03941 -18.00873,6.81832 -4.24817,3.75006 -20.45404,18.1056 -36.01303,31.90119 l -28.28908,25.08288 h 36.96247 36.96249 z"
       style="fill:#000000;stroke-width:2.05814147" />
  </g>
</svg>
