<?xml version="1.0" encoding="UTF-8" standalone="no"?>
<svg
   xmlns:dc="http://purl.org/dc/elements/1.1/"
   xmlns:cc="http://creativecommons.org/ns#"
   xmlns:rdf="http://www.w3.org/1999/02/22-rdf-syntax-ns#"
   xmlns:svg="http://www.w3.org/2000/svg"
   xmlns="http://www.w3.org/2000/svg"
   width="500mm"
   height="500mm"
   viewBox="0 0 500 500"
   version="1.1"
   id="svg8">
  <defs
     id="defs2" />
  <metadata
     id="metadata5">
    <rdf:RDF>
      <cc:Work
         rdf:about="">
        <dc:format>image/svg+xml</dc:format>
        <dc:type
           rdf:resource="http://purl.org/dc/dcmitype/StillImage" />
        <dc:title></dc:title>
      </cc:Work>
    </rdf:RDF>
  </metadata>
  <g
     id="layer1">
    <path
       style="fill:#000000;stroke-width:1.99166"
       d="m 203.5089,493.37283 c -7.52532,-3.452 -11.83062,-6.71882 -12.49623,-9.48202 -0.55851,-2.31857 -0.76964,-109.07638 -0.46919,-237.23957 l 0.54628,-233.023971 8.96247,-1.543724 c 20.59258,-3.5469367 90.07085,-11.10579869 92.72362,-10.0878337 2.46394,0.945504 2.87595,18.7512527 2.87595,124.2883987 v 123.18481 l 6.97075,5.56196 6.97074,5.56197 6e-5,110.72624 c 6e-5,102.94223 -0.24495,110.94467 -3.48534,113.83325 -5.52347,4.92378 -40.49152,11.4661 -66.92469,12.5212 -22.9865,0.91753 -24.7665,0.70295 -35.67442,-4.30071 z m 18.45156,-4.90272 c 0,-2.93824 -5.79238,-3.44808 -8.06488,-0.70987 -1.85772,2.2384 -1.8033,3.56535 0.24751,6.03644 2.39004,2.87981 2.86416,2.84526 5.22302,-0.38067 1.42688,-1.95141 2.59435,-4.17706 2.59435,-4.9459 z m 30.16639,6.16193 c 28.79414,-2.80189 47.50827,-7.47667 47.50827,-11.8675 0,-3.32009 -0.77838,-3.37974 -11.45203,-0.87756 -6.29862,1.47655 -23.10323,3.76367 -37.34359,5.08249 -14.24035,1.31884 -26.55001,3.35401 -27.3548,4.52262 -3.99672,5.80355 -1.52049,6.07501 28.64215,3.13995 z m -42.11634,-2.95572 c 0,-1.87503 -12.27587,-7.24273 -14.57453,-6.37281 -1.29501,0.49011 0.7823,2.30194 4.61625,4.02633 7.32421,3.29421 9.95828,3.91487 9.95828,2.34648 z m 0,-8.85117 c 0,-2.19391 -2.87183,-5.59578 -6.7444,-7.98914 -3.70942,-2.29256 -7.28216,-6.1747 -7.93943,-8.62698 -0.65727,-2.45231 -1.20728,-44.00788 -1.22223,-92.34574 -0.0283,-91.32787 0.31069,-95.1501 8.00623,-90.28295 5.50654,3.4827 7.89983,2.06071 7.89983,-4.6937 0,-5.62514 -1.10501,-7.16449 -7.46871,-10.40424 -4.1078,-2.09128 -7.97077,-4.06774 -8.58439,-4.39214 -1.66794,-0.88179 -2.41883,187.58568 -0.81233,203.88913 1.25789,12.76555 1.875,14.26808 6.63657,16.15858 7.96948,3.16415 10.22886,2.87416 10.22886,-1.31282 z m 6.97081,-0.16244 c 0.677,-1.09541 -0.16631,-1.99166 -1.87411,-1.99166 -1.70777,0 -3.10504,0.89625 -3.10504,1.99166 0,1.09541 0.84335,1.99166 1.87411,1.99166 1.03077,0 2.42803,-0.89625 3.10504,-1.99166 z m 67.71637,-3.16078 c 9.8587,-1.85892 18.58338,-4.37287 19.38817,-5.58658 2.15794,-3.25445 1.87463,-205.90005 -0.28973,-207.23771 -1.60272,-0.99053 -65.7604,5.65878 -77.35444,8.01704 -3.4619,0.70415 -4.48123,2.28559 -4.48123,6.95242 v 6.04092 l 17.13011,-1.38992 c 13.62663,-1.10567 17.4901,-0.8214 18.89026,1.38984 0.96807,1.52888 1.77387,43.73221 1.79064,93.7852 l 0.0305,91.00541 -4.42648,3.10043 c -2.43454,1.70522 -8.14811,3.10041 -12.69682,3.10041 -11.27386,0 -20.7182,2.0642 -20.7182,4.52824 0,2.88489 40.45774,0.49516 62.73723,-3.7057 z m -16.9291,-41.3047 v -13.1121 l 6.47289,-1.0449 c 17.34226,-2.7995 16.36789,-3.34963 17.03714,9.61923 0.33329,6.45827 -0.11492,12.45266 -0.99583,13.32086 -0.88099,0.86821 -6.30708,2.19742 -12.05799,2.95379 l -10.45621,1.37524 z m 15.93327,-2.33848 c 0,-2.73853 -0.94915,-4.97915 -2.10921,-4.97915 -1.16006,0 -1.45411,-1.1203 -0.65346,-2.48957 0.80065,-1.36926 -0.49083,-0.78224 -2.86996,1.30452 -6.04548,5.30255 -5.70295,11.14334 0.65348,11.14334 3.98332,0 4.97915,-0.99583 4.97915,-4.97914 z m 22.16424,44.31439 c 2.16517,-4.06342 2.07885,-4.22638 -0.92576,-1.7478 -1.82247,1.5034 -3.31356,3.51995 -3.31356,4.48123 0,3.04224 1.76985,1.90108 4.23932,-2.73343 z m -50.93071,-7.56213 c 4.14569,-3.44063 4.32076,-179.45979 0.18183,-182.89475 -1.79171,-1.48697 -7.791,-1.80408 -17.92492,-0.94745 l -15.23184,1.28757 v 93.90787 93.90786 l 15.05001,-1.43755 c 8.27748,-0.79067 16.3437,-2.51127 17.92492,-3.82355 z m -22.12446,-70.16234 c -2.10627,-5.48891 0.014,-33.95712 2.59322,-34.81034 1.8686,-0.61825 2.48958,3.65939 2.48958,17.14963 0,16.39887 -2.38585,24.68879 -5.0828,17.66071 z m 13.44712,-17.67573 c 0.74116,-15.67134 4.58145,-15.97758 4.58145,-0.36535 0,7.4914 -0.87075,11.57631 -2.58979,12.14931 -1.98363,0.66121 -2.44978,-2.09681 -1.99166,-11.78396 z m -28.75912,-0.69792 c -0.33338,-59.64834 -1.22652,-92.78971 -2.50927,-93.11001 -1.30097,-0.32484 -2.17117,31.79278 -2.50927,92.61272 -0.45697,82.20223 -0.16312,93.11001 2.50927,93.11001 2.67209,0 2.9662,-10.8554 2.50927,-92.61272 z m -7.48842,-2.03374 v -92.65479 l -5.12177,-2.33363 c -4.14523,-1.88871 -5.47701,-1.78562 -6.98491,0.54062 -1.10521,1.70499 -1.65484,38.79811 -1.35111,91.18258 l 0.51202,88.30834 4.70187,3.80584 c 2.58603,2.09321 5.49883,3.80584 6.47288,3.80584 1.00822,0 1.77102,-39.90837 1.77102,-92.6548 z m 7.59491,-100.88056 c -0.9017,-9.13044 -5.60325,-9.81619 -5.60325,-0.81726 0,5.14457 0.86916,7.13677 3.11368,7.13677 2.30072,0 2.95072,-1.64997 2.48957,-6.31951 z m 55.89471,-15.70839 c 16.84498,-2.03979 30.99844,-4.07989 31.4521,-4.53357 0.45368,-0.45366 -1.94396,-2.57794 -5.32806,-4.72061 -6.12925,-3.88076 -6.2886,-3.87773 -41.4104,0.78715 -19.39161,2.57559 -38.84246,4.16396 -43.22411,3.52971 -5.44711,-0.78847 -7.07717,-0.5433 -5.15419,0.77524 2.22062,1.52264 1.80153,2.10323 -1.99166,2.75914 -4.55091,0.78692 -4.43672,1.00523 2.1667,4.14227 7.77319,3.69275 11.81105,3.51854 63.48962,-2.73933 z m -38.24131,-10.87885 c 13.33887,-1.67015 28.12693,-2.58169 32.86236,-2.02564 6.98918,0.82071 7.67262,0.64773 3.63073,-0.91887 -3.80644,-1.47534 -2.16465,-1.72625 6.9708,-1.06532 7.89553,0.57121 10.59847,0.27059 7.96663,-0.88604 -3.54684,-1.55876 -3.38317,-1.76591 1.49375,-1.89055 l 5.47706,-0.13999 V 127.06152 6.4759693 l -6.47289,1.055285 c -3.56009,0.580406 -23.05344,2.8846227 -43.31856,5.1204807 -20.26512,2.235858 -38.86223,4.507405 -41.3269,5.047883 l -4.48123,0.982686 V 139.2299 259.77752 l 6.47289,-1.0837 c 3.56008,-0.59602 17.38649,-2.45018 30.72536,-4.12034 z m -1.29774,-38.74227 c -8.17199,-8.17199 -7.59899,-20.83682 1.31654,-29.09946 13.7675,-12.75929 33.71646,1.70705 26.47202,19.19666 -5.26958,12.72193 -19.79363,17.89773 -27.78856,9.9028 z m 16.96894,-6.93095 c 3.31414,-3.31412 4.88863,-7.11705 4.88863,-11.80768 0,-6.46725 -4.0635,-13.17856 -7.97924,-13.17856 -5.8393,0 -12.47915,4.79359 -15.00137,10.83012 -6.39181,15.29774 6.70372,25.54438 18.09198,14.15612 z m -21.05413,-62.57254 c -7.78476,-7.78476 -9.11317,-14.46925 -5.01042,-25.21214 4.21555,-11.03828 12.71397,-17.41106 23.21847,-17.41106 13.94264,0 23.60272,13.87577 19.71403,28.31728 -4.91206,18.24206 -26.02224,26.20576 -37.92208,14.30592 z m 27.54429,-4.1548 c 7.29086,-7.29086 9.20827,-14.37288 6.28748,-23.22296 -2.09584,-6.35047 -12.64525,-14.59322 -15.29095,-11.94753 -2.21845,2.21845 1.48239,7.20356 5.34778,7.20356 3.65169,0 4.04581,1.2611 4.04581,12.94577 0,12.78958 -0.0661,12.94605 -5.47705,12.9677 -3.01239,0.0122 -8.83799,0.57745 -12.94578,1.25642 l -7.46872,1.23451 v -12.25984 c 0,-11.05593 0.46229,-12.43559 4.70752,-14.04963 5.21896,-1.98425 8.66157,-8.06991 4.56506,-8.06991 -3.8665,0 -12.79568,10.2416 -14.32557,16.43118 -4.82563,19.52307 16.3858,31.67933 30.55442,17.51073 z m -10.06608,-5.32235 c 3.87148,-1.03752 4.48123,-2.5243 4.48123,-10.92692 0,-9.11309 -0.32203,-9.72601 -5.11008,-9.72601 -9.09823,0 -12.81484,3.38982 -12.81484,11.68808 0,10.42296 2.29417,11.95281 13.44369,8.96485 z m 7.89941,-16.17169 c -0.45632,-3.01239 -0.8297,-0.54771 -0.8297,5.47705 0,6.02477 0.37338,8.48945 0.8297,5.47706 0.45635,-3.01238 0.45635,-7.94173 0,-10.95411 z M 234.00559,70.867081 c -2.69194,-2.179796 -4.75498,-6.678509 -5.45457,-11.894333 -1.02381,-7.633051 -0.4923,-9.02142 5.90128,-15.414995 8.17145,-8.171471 16.26402,-9.224698 22.95834,-2.987978 16.15075,15.046717 -6.31874,44.132963 -23.40505,30.297306 z m 17.68519,-7.716956 c 8.90972,-11.326887 2.38483,-26.894748 -9.39513,-22.416013 -6.88708,2.618463 -10.23782,7.508997 -10.31356,15.052997 -0.10144,10.105029 1.68042,12.610754 8.96766,12.610754 4.77209,0 7.76232,-1.460935 10.74103,-5.247738 z M 228.43335,258.27798 c -1.36926,-0.5525 -3.60988,-0.5525 -4.97914,0 -1.36927,0.55251 -0.24896,1.00458 2.48957,1.00458 2.73853,0 3.85884,-0.45207 2.48957,-1.00458 z m 15.97117,-1.97903 c -1.34842,-0.54555 -4.03716,-0.57875 -5.97498,-0.0739 -1.93782,0.50497 -0.83456,0.95134 2.45167,0.99193 3.28624,0.0406 4.87172,-0.37256 3.52331,-0.91814 z m 13.9037,-2.00428 c -1.36927,-0.55251 -3.60988,-0.55251 -4.97915,0 -1.36926,0.5525 -0.24895,1.00457 2.48958,1.00457 2.73853,0 3.85883,-0.45207 2.48957,-1.00457 z"
       id="path74" />
  </g>
</svg>
