<?xml version="1.0" encoding="UTF-8" standalone="no"?>
<!-- Created with Inkscape (http://www.inkscape.org/) -->

<svg
   xmlns:dc="http://purl.org/dc/elements/1.1/"
   xmlns:cc="http://creativecommons.org/ns#"
   xmlns:rdf="http://www.w3.org/1999/02/22-rdf-syntax-ns#"
   xmlns:svg="http://www.w3.org/2000/svg"
   xmlns="http://www.w3.org/2000/svg"
   xmlns:sodipodi="http://sodipodi.sourceforge.net/DTD/sodipodi-0.dtd"
   xmlns:inkscape="http://www.inkscape.org/namespaces/inkscape"
   width="500"
   height="500"
   viewBox="0 0 132.29166 132.29167"
   version="1.1"
   id="svg8"
   inkscape:version="0.92.4 5da689c313, 2019-01-14"
   sodipodi:docname="icon.svg">
  <defs
     id="defs2" />
  <sodipodi:namedview
     id="base"
     pagecolor="#ffffff"
     bordercolor="#666666"
     borderopacity="1.0"
     inkscape:pageopacity="0.0"
     inkscape:pageshadow="2"
     inkscape:zoom="0.42657054"
     inkscape:cx="603.40158"
     inkscape:cy="369.71489"
     inkscape:document-units="mm"
     inkscape:current-layer="layer1"
     showgrid="false"
     units="px"
     inkscape:window-width="1920"
     inkscape:window-height="1003"
     inkscape:window-x="0"
     inkscape:window-y="0"
     inkscape:window-maximized="1" />
  <metadata
     id="metadata5">
    <rdf:RDF>
      <cc:Work
         rdf:about="">
        <dc:format>image/svg+xml</dc:format>
        <dc:type
           rdf:resource="http://purl.org/dc/dcmitype/StillImage" />
        <dc:title></dc:title>
      </cc:Work>
    </rdf:RDF>
  </metadata>
  <g
     inkscape:label="Layer 1"
     inkscape:groupmode="layer"
     id="layer1"
     transform="translate(0,-164.70832)">
    <path
       style="fill:#000000;stroke:#000000;stroke-width:0.56018025"
       d="m 55.150338,294.54517 c -1.282909,-0.23825 -3.639614,-0.88351 -5.237122,-1.43391 -2.767562,-0.95354 -2.923338,-1.11435 -3.302746,-3.40927 -0.626032,-3.78661 -1.679685,-58.93456 -1.672033,-87.51303 l 0.0071,-25.91091 4.810925,-4.89803 4.810913,-4.89803 5.882657,0.23532 c 5.375541,0.21504 12.4255,1.71271 13.798794,2.93136 0.446423,0.39615 1.480063,60.98318 1.662388,97.44199 l 0.100837,20.15648 -5.474065,3.91042 -5.474053,3.91042 -3.790418,-0.0448 c -2.08473,-0.0246 -4.840073,-0.23975 -6.122982,-0.47799 z m 8.226371,-1.37637 c -0.194687,-0.46816 -0.353962,-1.07354 -0.353962,-1.3453 0,-0.27176 -1.514561,-0.49411 -3.36568,-0.49411 -1.851132,0 -5.193121,-0.46762 -7.426662,-1.03915 -2.233542,-0.57153 -4.154322,-0.95301 -4.268398,-0.84774 -0.114124,0.10525 -0.04472,0.66445 0.154126,1.24259 0.399078,1.16033 3.11513,2.01011 8.783633,2.74813 5.782116,0.75282 6.881276,0.70795 6.476943,-0.26442 z m 7.185662,-3.5563 4.620022,-3.33124 -0.327198,-21.01884 c -0.179965,-11.56037 -0.376134,-21.07654 -0.43596,-21.14706 -0.05979,-0.0706 -0.993791,0.47432 -2.0755,1.21077 -1.081709,0.73646 -2.178176,1.339 -2.436592,1.339 -0.258415,0 -0.469853,-2.52229 -0.469853,-5.60508 v -5.60507 l 2.332563,-1.70481 2.332563,-1.70481 -0.07581,-15.96395 c -0.04164,-8.78019 -0.238522,-22.30005 -0.437349,-30.04415 l -0.361518,-14.08018 -4.373553,3.54181 c -3.433265,2.78035 -4.460368,3.95642 -4.777305,5.47021 -1.140752,5.44848 0.408129,111.97465 1.628092,111.97465 0.130578,0 2.316417,-1.49905 4.857428,-3.33125 z m -7.733326,-6.22044 c -0.202469,-3.77359 -0.666236,-25.74921 -1.03059,-48.83471 -0.39457,-24.99972 -0.888671,-42.23372 -1.221825,-42.61679 -1.588315,-1.82631 -12.4297,-3.33368 -13.941663,-1.93844 -0.534009,0.49279 0.224428,67.53629 0.989983,87.51058 l 0.388247,10.12983 1.527574,0.54819 c 2.546492,0.91388 8.369632,1.97427 11.090833,2.01964 l 2.565556,0.0427 z m -8.65653,2.72359 c -2.258608,-0.3348 -2.903527,-1.36074 -2.700607,-4.29615 l 0.179585,-2.59789 2.796841,0.0892 c 3.855855,0.12306 4.585465,0.8183 4.373849,4.16793 -0.157875,2.49912 -0.300399,2.7441 -1.630855,2.80333 -0.801809,0.0357 -2.160286,-0.0393 -3.018813,-0.16647 z m 1.852531,-3.06961 c 0,-0.75607 -1.67698,-1.6491 -2.196492,-1.16969 -0.15408,0.14218 -0.124766,0.63219 0.06513,1.08891 0.430231,1.03463 2.131328,1.09909 2.131328,0.0808 z m 7.422498,-26.56015 c -0.125809,-1.10988 -0.228746,-0.2018 -0.228746,2.01796 0,2.21976 0.102973,3.12784 0.228746,2.01796 0.125809,-1.10988 0.125809,-2.92604 0,-4.03592 z m 11.115935,-19.02816 0.169489,-5.03733 -2.064704,1.84669 c -2.042686,1.82702 -2.064692,1.89503 -2.064692,6.38415 v 4.53746 l 1.895215,-1.34682 c 1.871524,-1.32999 1.897326,-1.40976 2.064692,-6.38415 z M 62.8739,220.72623 c -0.108311,-2.45579 -0.19751,-0.59059 -0.198246,4.1449 -5.81e-4,4.73549 0.08791,6.74477 0.196905,4.46507 0.109023,-2.2797 0.109616,-6.15418 0.0012,-8.60997 z m -1.707456,-41.3897 c -1.158654,-0.66416 -6.127763,-1.57969 -10.444337,-1.92433 l -3.845083,-0.307 -0.382683,3.37868 c -0.210477,1.85827 -0.382683,4.43286 -0.382683,5.72129 v 2.34262 h 4.864974 c 3.976362,0 5.334412,0.22965 7.43505,1.25727 l 2.570064,1.25728 0.476271,-5.64284 c 0.37611,-4.45614 0.31479,-5.7354 -0.291573,-6.08297 z m 1.659363,3.15738 c -0.161767,-0.36996 -0.294136,-0.0672 -0.294136,0.67265 0,0.73992 0.132369,1.04262 0.294136,0.67266 0.161766,-0.36996 0.161766,-0.97536 0,-1.34531 z m 4.812289,-8.56533 c 3.684385,-2.95727 4.604481,-3.96029 3.945244,-4.30074 -1.57848,-0.81517 -9.179139,-2.06686 -12.550561,-2.06686 h -3.330578 l -3.98966,3.71009 -3.989672,3.71011 1.672733,0.29229 c 0.920013,0.16077 3.204886,0.44857 5.07749,0.63957 1.872604,0.191 4.365534,0.67333 5.539835,1.07186 1.174313,0.39852 2.289239,0.74166 2.477638,0.76251 0.188387,0.0209 2.504769,-1.69762 5.147531,-3.81883 z"
       id="path5104"
       inkscape:connector-curvature="0" />
  </g>
</svg>
