<?xml version="1.0" encoding="UTF-8" standalone="no"?>
<svg
   xmlns:dc="http://purl.org/dc/elements/1.1/"
   xmlns:cc="http://creativecommons.org/ns#"
   xmlns:rdf="http://www.w3.org/1999/02/22-rdf-syntax-ns#"
   xmlns:svg="http://www.w3.org/2000/svg"
   xmlns="http://www.w3.org/2000/svg"
   width="500mm"
   height="500mm"
   viewBox="0 0 500 500"
   version="1.1"
   id="svg8">
  <defs
     id="defs2" />
  <metadata
     id="metadata5">
    <rdf:RDF>
      <cc:Work
         rdf:about="">
        <dc:format>image/svg+xml</dc:format>
        <dc:type
           rdf:resource="http://purl.org/dc/dcmitype/StillImage" />
        <dc:title></dc:title>
      </cc:Work>
    </rdf:RDF>
  </metadata>
  <g
     id="layer1">
    <path
       style="fill:#000000;stroke-width:2.09841"
       d="m 337.17908,497.08856 c 0,-7.48415 26.0588,-48.99764 53.30474,-84.91814 23.23506,-30.63269 24.26145,-35.67212 11.88004,-58.32967 -4.54272,-8.31304 -9.60017,-20.9744 -11.23878,-28.13638 -4.38169,-19.15148 -8.00273,-23.703 -18.84602,-23.68868 -11.76501,0.0147 -21.65355,2.9041 -45.59203,13.31801 -19.30362,8.39762 -20.63255,8.66823 -41.96815,8.54548 -17.92916,-0.10302 -24.91027,-1.12071 -37.47856,-5.46277 l -15.44527,-5.33599 -12.88325,4.10802 c -7.08577,2.25943 -20.90964,4.57887 -30.7197,5.15432 C 124.20596,326.0961 63.099753,280.36526 46.639723,216.40739 44.54588,208.27148 40.335258,199.41441 35.666359,193.3249 11.180069,161.38809 3.3677418,114.14301 16.162587,75.375889 22.463742,56.284045 37.189116,33.485804 51.702646,20.351814 64.15836,9.0800464 81.173264,-1.9079168 81.173264,1.320151 c 0,0.9655187 -3.541059,3.6227189 -7.869031,5.9048883 C 60.089381,14.193336 36.791181,39.222423 28.179746,55.701954 11.907377,86.842095 8.6365712,122.63036 19.191768,154.04605 c 4.975798,14.80957 17.70233,39.27418 21.709949,41.73371 0.798045,0.48979 1.610809,-7.27898 1.80613,-17.26391 1.124938,-57.50763 41.230822,-105.235864 102.039723,-121.432959 17.5856,-4.684121 49.0785,-4.523944 65.47782,0.33302 6.92474,2.0509 15.18128,3.915679 18.34784,4.143954 3.16658,0.228287 8.36015,2.771753 11.54125,5.652163 3.18113,2.880409 9.81661,7.926166 14.74551,11.212794 13.32977,8.888352 34.76282,32.584248 43.11476,47.666698 15.94491,28.79437 21.37456,61.49759 15.23828,91.7814 -1.94553,9.60156 -3.13457,17.86016 -2.64231,18.3524 0.49224,0.49227 7.5679,-0.49633 15.72363,-2.19684 9.73273,-2.02933 23.47337,-7.58309 39.98412,-16.16093 27.61422,-14.34649 41.03308,-17.28531 56.1756,-12.30287 22.09833,7.27117 32.31849,21.68837 36.38252,51.32352 1.83317,13.3676 4.64325,21.48932 13.79476,39.86976 13.97456,28.0673 18.65112,47.59138 16.95576,70.78821 -2.76532,37.83606 -15.29101,62.60492 -50.94654,100.74387 -7.27649,7.78332 -15.28974,18.17043 -17.80723,23.08249 -2.51747,4.91208 -4.95549,7.82123 -5.41782,6.46477 -1.61278,-4.73192 7.74396,-18.66391 26.06579,-38.81142 21.30486,-23.42782 30.18312,-37.18737 37.90398,-58.74378 4.70012,-13.1225 5.52852,-18.94779 5.62042,-39.52269 0.12339,-27.61317 -2.30928,-36.85732 -16.84226,-64.00145 -6.94599,-12.97347 -9.94318,-21.87584 -13.19286,-39.18585 -6.04903,-32.22156 -10.69727,-39.31842 -30.77447,-46.98596 -16.01802,-6.11734 -28.00403,-3.63243 -59.99872,12.43886 -22.75076,11.42795 -30.7852,14.41308 -42.41428,15.75874 -13.01494,1.506 -18.04159,4.05064 -18.14644,9.18622 -0.0539,2.63637 11.15658,1.76385 23.16815,-1.80318 6.25434,-1.85734 19.40963,-7.39163 29.23398,-12.29848 32.74642,-16.35538 46.52957,-18.13567 66.13704,-8.54266 15.23091,7.4518 20.68938,16.82797 25.09342,43.10379 2.57613,15.36995 5.70665,24.74009 13.67089,40.91897 12.66364,25.72542 14.70723,33.24741 14.72216,54.18863 0.008,11.87925 -1.40899,20.64941 -5.12791,31.72791 -8.14726,24.27025 -17.44583,38.52249 -45.91182,70.37051 -6.72699,7.52621 -14.70086,18.40544 -17.71971,24.17608 -3.81226,7.28721 -5.73299,9.36382 -6.28815,6.7985 -1.13348,-5.23753 6.38897,-16.55735 25.17178,-37.87863 34.17876,-38.79795 45.6264,-62.83799 45.65407,-95.87359 0.0169,-20.13085 -2.10723,-27.82499 -14.77237,-53.50941 -7.63249,-15.47838 -10.93561,-25.11334 -12.58937,-36.72215 -1.23311,-8.65592 -3.18095,-18.74797 -4.32855,-22.42678 -5.14805,-16.50285 -20.49488,-26.53269 -40.66817,-26.57849 -11.07048,-0.0251 -15.88368,1.51983 -39.86975,12.7976 -28.76318,13.52388 -39.80651,17.29114 -50.74351,17.31029 -5.01629,0.008 -7.79182,1.5774 -11.15952,6.30694 l -4.48261,6.29521 h 7.38403 c 14.25446,0 29.82576,-4.86 51.65718,-16.12285 27.71718,-14.29935 43.56061,-17.71945 57.4724,-12.40648 12.32322,4.70627 16.79763,12.09996 22.45186,37.10035 2.45766,10.86663 7.39087,25.4232 10.96268,32.34795 20.55381,39.84794 19.28951,36.11306 19.15318,56.57962 -0.20962,31.46824 -7.71623,46.92739 -43.23175,89.03133 -11.20701,13.28607 -22.9486,29.39587 -26.09235,35.79956 -3.14374,6.40367 -6.11761,10.45593 -6.6086,9.00498 -1.52211,-4.49828 7.26338,-19.96374 19.90128,-35.03298 27.6682,-32.99121 36.46926,-44.81565 42.24505,-56.75731 8.29765,-17.15571 11.5125,-32.47056 10.2134,-48.65465 -1.06646,-13.28556 -2.94849,-18.03237 -18.98062,-47.87214 -3.10041,-5.77062 -8.16602,-20.87916 -11.25694,-33.57454 -4.2886,-17.61478 -6.94903,-24.41285 -11.23124,-28.69879 -12.1331,-12.14362 -32.35245,-9.78288 -65.80562,7.68315 -21.76276,11.36243 -36.48057,15.76962 -52.66254,15.76962 -7.91989,0 -9.84981,0.91727 -13.90133,6.6071 l -4.70467,6.6071 19.11952,-1.09016 c 17.46155,-0.9956 21.08705,-2.01065 41.80855,-11.70532 25.69814,-12.02304 35.53598,-15.07911 48.59533,-15.09587 18.23566,-0.0235 25.94024,9.58088 32.81593,40.90726 2.07928,9.47338 7.74241,24.87518 12.99839,35.35107 5.18713,10.33872 9.83064,22.92767 10.48028,28.41293 2.51484,21.23388 -7.56493,47.98709 -26.57509,70.53412 -27.51228,32.63106 -37.92706,46.61987 -42.39201,56.93963 -2.66212,6.15287 -5.54842,11.20316 -6.41401,11.22283 -7.13646,0.16242 11.03002,-29.98347 34.12103,-56.6212 40.48493,-46.70328 46.34862,-71.00244 26.61529,-110.29384 -5.42858,-10.80896 -10.96478,-25.87232 -13.06392,-35.54554 -4.263,-19.6447 -9.68285,-31.4186 -16.02537,-34.81303 -8.11384,-4.3424 -28.90879,-1.08347 -48.15856,7.54721 -32.40641,14.52952 -43.4635,17.71014 -61.77111,17.7688 -14.63531,0.047 -17.84773,0.75031 -23.93401,5.24062 -7.7965,5.75207 -7.16473,6.3258 9.10838,8.27195 15.08731,1.80435 34.68873,-2.049 54.27193,-10.66906 30.04891,-13.2268 47.351,-16.13663 61.29841,-10.30904 9.74566,4.07201 12.89007,9.81236 16.76306,30.6022 2.13323,11.45084 6.45116,24.22213 12.06095,35.67295 16.50662,33.69378 11.65734,46.96219 -41.03014,112.26484 -6.5182,8.07887 -14.88779,20.5175 -18.5991,27.64138 -3.71128,7.1239 -7.47251,12.50466 -8.35826,11.95722 -3.10652,-1.91993 10.82409,-25.13009 28.80463,-47.99224 31.42544,-39.95718 41.78544,-56.84117 44.22011,-72.06687 1.15695,-7.23511 -0.0491,-11.44631 -8.38483,-29.27869 -6.50589,-13.91781 -10.75005,-26.66861 -12.79211,-38.43159 -2.63514,-15.17934 -3.97628,-18.43626 -9.73909,-23.65102 -6.4058,-5.7966 -7.31853,-5.99952 -21.99468,-4.88956 -12.22749,0.92476 -19.872,3.19729 -37.9529,11.28243 l -22.64135,10.1244 -30.42691,0.0638 c -28.77234,0.0603 -44.06658,2.58729 -44.06658,7.28114 0,4.07068 27.00111,9.41579 47.2142,9.34649 20.2835,-0.0695 21.78973,-0.41055 45.11577,-10.21305 30.66005,-12.88456 47.24509,-15.00941 55.18438,-7.07012 3.47593,3.47592 6.34046,10.29057 8.71487,20.73249 1.94537,8.55507 7.24955,22.28089 11.78706,30.50184 12.64402,22.90813 11.6189,27.46815 -13.8582,61.64471 -21.62213,29.00527 -44.60614,63.89165 -49.42381,75.0181 -3.73133,8.61753 -6.10908,11.24569 -6.10908,6.75243 z M 204.45477,317.53558 c 13.62802,-1.68075 11.65191,-6.45285 -7.73496,-18.67921 l -16.63686,-10.49204 41.86732,-58.62199 c 23.02706,-32.2421 42.26739,-59.02202 42.75635,-59.51095 0.48893,-0.48895 8.12999,4.39906 16.9801,10.86225 8.85014,6.46317 16.93,11.23278 17.95528,10.59912 4.72117,-2.91784 1.16787,-17.69168 -4.25506,-17.69168 -2.45529,0 -4.65577,-3.3897 -7.03956,-10.84407 -3.23381,-10.11236 -3.23104,-11.01719 0.041,-13.40978 4.09478,-2.9942 2.5333,-7.63093 -8.28241,-24.59396 -4.9948,-7.83368 -7.27482,-9.74748 -10.42255,-8.74843 -2.99817,0.95158 -7.63926,-2.12054 -18.13768,-12.00605 -7.75977,-7.30664 -19.93482,-16.376946 -27.05576,-20.156183 -14.78727,-7.848039 -41.06289,-15.161943 -54.47003,-15.161943 -7.86825,0 -9.10716,-0.602696 -9.10716,-4.430342 0,-3.961385 -0.83298,-4.286974 -7.86904,-3.075855 -17.83199,3.069443 -19.15641,3.597962 -19.80709,7.904258 -0.45,2.978164 -3.88383,5.582876 -11.06914,8.396415 -9.25073,3.622277 -10.67849,3.720958 -12.75471,0.881557 -2.02641,-2.77129 -3.7352,-2.256332 -12.824476,3.864745 -22.538396,15.178243 -42.234312,44.696898 -48.010363,71.954108 -4.217372,19.90176 -4.006631,29.3399 0.688371,30.83004 5.217739,1.65605 9.735282,28.31731 5.395756,31.84418 -4.403095,3.57857 -3.571241,7.30818 5.861538,26.28038 11.984305,24.10417 37.864835,50.29009 60.519404,61.23351 20.29366,9.80299 27.27929,11.52542 27.27929,6.7262 0,-2.95947 1.41503,-3.35159 8.39364,-2.3259 4.6165,0.67852 12.17077,1.7888 16.78727,2.46732 6.10164,0.89676 8.39363,2.23004 8.39363,4.88257 0,3.81693 -0.0778,3.81338 22.5579,1.02173 z M 168.33888,284.1675 c 0.80708,-2.30823 1.51234,-5.33653 1.56722,-6.72952 0.0549,-1.39299 1.3286,-3.00425 2.83047,-3.58056 5.03921,-1.93373 4.7601,2.10666 -0.5757,8.33385 -3.78743,4.42015 -4.87273,4.98133 -3.82199,1.97623 z m -13.30162,-5.6657 c -1.38496,-1.38495 -2.48939,-3.98172 -2.45429,-5.77061 0.0526,-2.67742 0.44199,-2.60323 2.20268,0.41967 3.00632,5.16157 6.87665,4.7968 4.10256,-0.38665 -3.38315,-6.32147 -2.589,-8.88294 2.52775,-8.15291 2.74472,0.39158 5.00558,2.41648 5.43456,4.86735 l 0.73456,4.19682 -3.26942,-4.19682 c -3.50734,-4.50223 -4.62452,-2.03319 -1.39236,3.07724 1.23379,1.95075 1.12796,4.06321 -0.28907,5.77063 -2.77874,3.34817 -4.387,3.38528 -7.59697,0.1752 z m 26.9558,-14.44889 c 2.88259,-5.38621 1.46376,-7.37593 -2.15251,-3.01861 -1.45991,1.7591 -3.67189,3.19835 -4.91553,3.19835 -1.47318,0 -1.38364,-0.87754 0.25695,-2.51811 1.38495,-1.38495 2.51808,-3.89199 2.51808,-5.57125 0,-2.42364 -0.86532,-2.27004 -4.19681,0.74491 -2.30824,2.08894 -4.19682,2.77311 -4.19682,1.52039 0,-1.25273 -2.12462,-2.57945 -4.72142,-2.94825 -5.80832,-0.8249 -7.64184,-8.9463 -2.46799,-10.93172 4.97196,-1.90791 9.62764,2.60947 8.17734,7.93441 -1.09234,4.01067 -0.93852,4.09602 1.64214,0.91109 2.64747,-3.26738 3.318,-3.21608 9.55149,0.73068 7.49073,4.74279 7.73881,5.44135 3.78304,10.65243 -3.8669,5.09401 -6.12184,4.60953 -3.27796,-0.70432 z m -15.30993,-15.73349 c -1.9997,-1.99971 -6.00878,1.23931 -4.51852,3.6506 0.88577,1.43321 2.05952,1.39701 3.56655,-0.10997 1.23546,-1.23545 1.66384,-2.8287 0.95197,-3.54057 z m 22.43464,-1.82367 c -3.88364,-2.90611 -3.75578,-3.1137 2.74654,-4.45912 6.98172,-1.44458 8.87321,-4.00021 4.19682,-5.67037 -1.44266,-0.51523 -1.89231,-1.71806 -0.99924,-2.67296 0.89307,-0.95491 3.25378,-0.0822 5.24601,1.93937 3.43233,3.48283 3.4022,3.84164 -0.57455,6.84305 -2.30825,1.74211 -3.96076,4.04508 -3.67222,5.11776 0.77032,2.86377 -2.29747,2.37877 -6.94336,-1.09773 z m -42.24444,-2.48322 c -1.90798,-4.9721 2.16631,-10.20682 7.9442,-10.20682 3.34236,0 5.2334,1.38496 5.73046,4.19682 0.7239,4.09519 0.66879,4.10011 -2.27594,0.20396 -3.53383,-4.67548 -7.85131,-2.86522 -7.85131,3.29201 0,2.95786 0.98119,3.92096 3.14762,3.0896 1.73119,-0.6643 3.14761,-0.29319 3.14761,0.82471 0,3.44431 -8.44463,2.24289 -9.84264,-1.40028 z m 30.78464,-6.06072 c -1.4599,-1.75908 -2.0379,-3.81479 -1.28447,-4.56824 0.75346,-0.75342 2.74655,0.44973 4.42912,2.67373 2.43865,3.22343 3.07271,3.3839 3.12592,0.79111 0.0367,-1.7889 -0.98413,-4.30339 -2.26851,-5.5878 -2.72324,-2.72322 -0.75551,-6.89774 3.25135,-6.89774 3.65998,0 8.52284,5.98013 6.44008,7.91976 -0.89954,0.83767 -2.05706,0.34272 -2.57231,-1.09993 -0.51524,-1.44267 -1.918,-2.62301 -3.11727,-2.62301 -1.32475,0 -1.16399,1.2248 0.40963,3.1209 3.07948,3.71054 1.37502,9.46956 -2.80264,9.46956 -1.62609,0 -4.15099,-1.43924 -5.6109,-3.19834 z m 29.41981,-8.97243 c 0,-0.9233 1.13313,-2.81187 2.51808,-4.19682 1.8138,-1.8138 1.84843,-2.5181 0.12385,-2.5181 -1.31682,0 -2.97785,0.94429 -3.69113,2.09841 -2.53773,4.10615 -5.43462,2.17487 -3.14761,-2.09841 2.46369,-4.60345 0.18919,-5.64505 -3.74217,-1.7137 -4.03067,4.03066 -4.67088,0.99787 -0.83574,-3.95897 l 3.52869,-4.56076 5.99639,4.85095 c 4.52961,3.66438 5.64993,5.94255 4.58002,9.31355 -1.3485,4.24867 -5.33038,6.32826 -5.33038,2.78385 z m -19.51261,-12.23814 c -2.4803,-2.48028 -1.63466,-8.654 1.34182,-9.79619 4.2296,-1.62305 8.19003,1.672 7.3365,6.10392 -0.77838,4.04184 -6.07519,6.29541 -8.67832,3.69227 z m 6.39726,-6.19318 c -1.99969,-1.99969 -6.00877,1.23933 -4.51851,3.6506 0.88578,1.43322 2.05951,1.39703 3.56655,-0.10995 1.23545,-1.23546 1.66384,-2.82871 0.95196,-3.54059 z m -18.33817,-1.896 c -1.51375,-1.82397 -2.02601,-5.36617 -1.23295,-8.52595 1.10096,-4.38655 2.42737,-5.28175 7.0362,-4.74868 3.78742,0.4381 5.88819,2.05506 6.30594,4.85375 0.62002,4.15379 0.59308,4.15476 -2.62559,0.0954 -2.98823,-3.76863 -3.52585,-3.82753 -6.62741,-0.72597 -3.71321,3.71318 -2.31581,7.97493 2.61491,7.97493 1.73118,0 2.56401,0.94428 1.85072,2.0984 -1.82676,2.95576 -4.30803,2.60943 -7.32182,-1.02195 z m 41.24608,-0.37698 c -2.84077,-2.84078 -1.29094,-5.32053 1.74868,-2.79789 2.56599,2.1296 3.1476,2.01551 3.1476,-0.61739 0,-1.77632 1.18036,-3.70597 2.62301,-4.2881 2.09841,-0.84673 2.09841,-1.09152 0,-1.22406 -3.64378,-0.23014 -3.3125,-4.36248 0.34975,-4.36248 4.08407,0 5.07986,4.0651 2.4087,9.83276 -2.14604,4.63379 -7.35048,6.38443 -10.27774,3.45716 z m -11.93307,-8.09462 c -1.4599,-1.75908 -2.0379,-3.81479 -1.28445,-4.56824 0.75345,-0.75344 2.74655,0.44974 4.42911,2.67374 2.43867,3.22342 3.07273,3.38388 3.12592,0.79111 0.0367,-1.78892 -0.98412,-4.30341 -2.26851,-5.5878 -2.72324,-2.72324 -0.75552,-6.89775 3.25135,-6.89775 3.65997,0 8.52282,5.98013 6.44008,7.91974 -0.89954,0.8377 -2.05708,0.34275 -2.57231,-1.09991 -0.51523,-1.44266 -1.91801,-2.62301 -3.11727,-2.62301 -1.32474,0 -1.16399,1.22478 0.40963,3.12089 3.07948,3.71054 1.37502,9.46955 -2.80264,9.46955 -1.62608,0 -4.15101,-1.43923 -5.61091,-3.19832 z m 28.8952,-9.5495 c 1.44266,-1.52921 2.59299,-4.24403 2.55629,-6.03292 -0.0533,-2.59279 -0.68728,-2.43234 -3.12593,0.7911 -1.68257,2.22399 -3.67567,3.42716 -4.42912,2.67371 -0.75346,-0.75345 -0.17543,-2.80915 1.28446,-4.56823 3.10956,-3.74679 -0.0565,-4.35878 -3.70006,-0.71521 -4.13888,4.13886 -5.0248,0.52797 -1.03173,-4.2051 l 3.72467,-4.41492 6.29523,5.14271 c 5.09271,4.16035 5.86574,5.82494 4.04691,8.71418 -1.2366,1.96431 -3.5973,3.98178 -5.24602,4.48327 -2.41402,0.73426 -2.48697,0.37044 -0.3747,-1.86859 z m -21.15242,-13.3106 c -1.58838,-4.13921 4.06983,-9.79743 8.20905,-8.20907 1.80912,0.69423 2.92185,3.1615 2.56228,5.68147 -0.76067,5.33132 -8.95737,7.25474 -10.77133,2.5276 z m 8.69313,-3.18814 c 0.5246,-1.5738 -0.2623,-2.36071 -1.83611,-1.83611 -1.51478,0.50493 -3.1673,2.15744 -3.67221,3.67222 -0.52461,1.5738 0.26229,2.36071 1.8361,1.8361 1.51479,-0.50492 3.1673,-2.15742 3.67222,-3.67221 z m -20.47931,-5.24303 c -1.88696,-2.27364 -1.91538,-4.10764 -0.11582,-7.47019 3.13304,-5.85413 13.31666,-5.1095 14.23471,1.04083 0.6117,4.09812 0.55198,4.10313 -2.5395,0.21323 -2.61666,-3.29249 -3.72336,-3.52095 -6.37911,-1.31688 -4.46051,3.70191 -4.01799,6.16142 1.50822,8.38269 4.63485,1.86298 4.63956,1.90022 0.25693,2.03078 -2.45546,0.0732 -5.58991,-1.22304 -6.96544,-2.88046 z M 229.89259,126.394 c -2.50157,-3.07536 -2.42869,-3.37167 0.55479,-2.2554 2.60932,0.97627 3.18081,0.31431 2.37823,-2.75474 -0.70881,-2.71058 0.019,-4.03982 2.2121,-4.03982 4.69763,0 6.16083,3.45207 3.5394,8.35027 -2.76557,5.16748 -4.90976,5.34023 -8.68452,0.69969 z m 8.6613,-4.85314 c 0,-1.15411 -1.00001,-2.0984 -2.22225,-2.0984 -1.22224,0 -1.63864,0.94429 -0.92536,2.0984 0.71329,1.15412 1.71331,2.09841 2.22225,2.09841 0.50897,0 0.92536,-0.94429 0.92536,-2.09841 z m -17.57755,-0.59457 c -3.27824,-2.40196 -3.52952,-3.64834 -1.49998,-7.44057 1.66172,-3.10495 1.72479,-4.5553 0.19807,-4.5553 -1.2319,0 -2.9982,2.05 -3.92507,4.55557 -1.1648,3.14877 -2.17181,3.76828 -3.26087,2.00613 -1.75977,-2.84735 3.964,-12.85692 7.35194,-12.85692 1.19564,0 1.58615,0.95094 0.86782,2.11322 -0.71829,1.16228 0.15298,2.67309 1.93615,3.35737 2.53387,0.97233 2.755,2.15447 1.01221,5.41092 -3.00913,5.62258 -0.49405,7.6686 3.20615,2.60824 1.62491,-2.22218 3.52732,-3.46736 4.2276,-2.76708 0.70028,0.70028 -0.40285,3.33884 -2.45144,5.86346 -3.27276,4.03329 -4.20247,4.24016 -7.66258,1.70496 z m -16.58924,-10.1872 c -3.87021,-2.1659 -4.97383,-8.10389 -1.50614,-8.10389 1.15413,0 2.09841,-0.94429 2.09841,-2.0984 0,-3.896918 -4.31921,-2.133164 -6.01728,2.45715 -1.06878,2.88918 -2.22141,3.68799 -3.15108,2.18377 -0.80622,-1.30449 -0.2691,-4.28812 1.19362,-6.630297 2.30385,-3.689041 1.98385,-4.893043 -2.39283,-9.003604 l -5.05231,-4.745093 3.43541,5.578187 c 2.84469,4.619055 2.95327,5.978314 0.63148,7.905241 -4.03738,3.350706 -9.67269,0.475527 -9.38767,-4.789685 0.192,-3.54712 0.4461,-3.72131 1.20306,-0.824695 0.5278,2.01972 2.49568,3.672211 4.37308,3.672211 2.65489,0 2.85385,-0.559573 0.89534,-2.51809 -1.38495,-1.384952 -2.51809,-4.217809 -2.51809,-6.295231 0,-5.351488 8.46888,-4.991892 9.88404,0.419675 0.60361,2.308253 2.40377,4.19682 4.00035,4.19682 1.59658,0 2.6668,0.819434 2.37828,1.820947 -0.28854,1.001513 1.75693,3.686822 4.54545,5.967348 4.60447,3.765596 4.79097,4.544856 2.03075,8.485606 -2.30149,3.28584 -3.91436,3.84953 -6.64387,2.32203 z m -26.68705,205.93375 c 0,-1.15412 -1.75676,-2.0984 -3.90394,-2.0984 -2.14715,0 -8.285,-0.60051 -13.63966,-1.33443 -6.32975,-0.86761 -9.73571,-0.5516 -9.73571,0.90326 0,2.5846 5.71924,3.93714 18.36108,4.34222 4.90503,0.15717 8.91823,-0.65853 8.91823,-1.81265 z m 48.26339,-6.53996 c 0,-1.01951 -1.88856,-1.85366 -4.19682,-1.85366 -2.30824,0 -4.1968,1.32801 -4.1968,2.95115 0,1.91804 1.46917,2.56696 4.1968,1.85367 2.30826,-0.60364 4.19682,-1.93166 4.19682,-2.95116 z m 14.8897,-5.45372 c 6.02686,-3.56014 7.99307,-6.89199 4.06718,-6.89199 -4.08449,0 -16.64625,7.03936 -15.59555,8.73942 1.63171,2.64016 4.78765,2.13442 11.52837,-1.84743 z m -27.84211,-2.81821 c -12.28503,-9.17194 -15.30876,-12.17372 -13.79402,-13.69399 0.87016,-0.87333 3.70301,0.30733 6.29523,2.62365 2.59223,2.31633 7.74799,6.2946 11.45726,8.84061 6.69669,4.59657 6.7981,4.60142 14.42294,0.68964 l 7.67884,-3.93948 -11.27533,-6.57011 c -14.19374,-8.27065 -18.61977,-11.79103 -18.61977,-14.80983 0,-1.31351 4.58703,0.90726 10.19341,4.93505 5.6064,4.02778 13.58743,8.74133 17.73569,10.47461 7.15853,2.99101 7.82608,2.9072 13.12075,-1.64709 l 5.57854,-4.79845 -15.56906,-7.69463 c -8.56296,-4.23206 -17.31213,-9.62075 -19.44258,-11.97488 -4.97829,-5.50095 -1.19983,-5.54474 5.76423,-0.0668 6.41562,5.04653 26.51198,14.62293 30.74717,14.65174 3.27323,0.0222 12.7257,-8.02761 12.7257,-10.83737 0,-0.95296 -1.76171,-1.73265 -3.91488,-1.73265 -4.93855,0 -32.51677,-13.69378 -35.97845,-17.86488 -2.10288,-2.53378 -1.97299,-3.11919 0.69199,-3.11919 1.80438,0 3.8754,0.96224 4.60225,2.13831 1.87811,3.03884 19.42646,11.65027 29.35306,14.40429 7.18418,1.99318 8.77157,1.81842 11.01664,-1.21278 3.71635,-5.0177 3.24999,-9.03432 -1.0492,-9.03625 -4.14066,-0.002 -26.64429,-10.44595 -33.04664,-15.33716 -6.66983,-5.09558 -1.9763,-6.58887 5.02962,-1.60021 7.07576,5.0384 21.52051,11.58204 29.79682,13.4983 4.4279,1.02522 5.90604,0.2659 7.86904,-4.04244 1.32937,-2.91762 2.41701,-5.583 2.41701,-5.92309 0,-0.34006 -3.54107,-1.70334 -7.86903,-3.0295 -10.0446,-3.07779 -29.90233,-14.4876 -29.90233,-17.18123 0,-2.77915 3.60633,-2.61066 5.375,0.25111 1.85121,2.99534 26.11454,14.4764 30.59804,14.47854 1.89625,9e-4 4.08917,-1.65084 4.87318,-3.67056 1.93263,-4.97874 4.13617,-32.00072 2.60953,-32.00072 -0.67076,0 -5.19379,5.66569 -10.05122,12.59044 -4.85744,6.92476 -9.71175,12.59045 -10.78735,12.59045 -1.0756,0 -7.23035,-3.77713 -13.67722,-8.39362 -6.44686,-4.61651 -12.46345,-8.39365 -13.37019,-8.39365 -2.41535,0 -58.95106,79.52099 -58.15108,81.79313 1.015,2.88288 25.37733,18.58945 29.00678,18.70089 1.91424,0.0587 0.95014,-1.54398 -2.46037,-4.09026 z m 47.98375,-11.35191 c 5.41777,-4.76634 5.54003,-5.185 1.53198,-5.24601 -2.39558,-0.0366 -6.57339,2.29439 -9.284,5.1797 -6.76717,7.20331 -0.42212,7.25761 7.75202,0.0663 z m 22.08382,-16.681 c 2.11778,-3.97586 2.00263,-4.10144 -1.27835,-1.39435 -1.98315,1.63626 -4.65306,4.94125 -5.93313,7.34443 -2.11778,3.97586 -2.00264,4.10145 1.27836,1.39434 1.98314,-1.63624 4.65304,-4.94124 5.93312,-7.34442 z m -7.87624,1.74378 c 5.33457,-8.14157 1.90337,-8.91135 -5.72384,-1.28414 -6.11858,6.11859 -6.31957,6.71222 -2.2725,6.71222 2.45987,0 6.0258,-2.42062 7.99634,-5.42808 z m 10.56573,-15.556 c 2.5019,-4.83818 2.6312,-6.29523 0.55865,-6.29523 -3.39575,0 -8.46539,7.88453 -6.80112,10.57741 1.90587,3.08375 2.72337,2.52297 6.24247,-4.28218 z m 6.52175,2.62302 c 4.65105,-6.12701 3.41594,-10.72907 -1.34556,-5.01358 -4.12191,4.94779 -5.32023,8.68577 -2.78452,8.68577 0.73835,0 2.59689,-1.65249 4.13008,-3.67219 z m 8.95805,-16.53386 c 1.38257,-3.03445 1.92909,-6.10186 1.21445,-6.81651 -1.612,-1.61199 -7.25141,5.84394 -7.25141,9.58717 0,4.61437 3.37861,3.06375 6.03696,-2.77066 z m -7.87881,-2.4599 c 1.26956,-3.43194 0.91786,-4.61334 -1.37338,-4.61334 -1.69401,0 -3.08,0.86705 -3.08,1.92677 0,1.05973 -0.62263,3.5493 -1.38359,5.53234 -0.93832,2.44519 -0.49629,3.30981 1.3734,2.68658 1.51634,-0.50544 3.52496,-2.99499 4.46357,-5.53235 z m 14.54405,-14.58079 c 1.32409,-4.32796 2.9013,-18.96437 3.50489,-32.52533 1.04721,-23.52774 0.90765,-24.65629 -3.04898,-24.65629 -3.88772,0 -4.14248,1.47309 -4.0828,23.60709 0.0349,12.9839 -0.95463,27.08446 -2.1992,31.3346 -1.24458,4.25015 -1.72704,8.26336 -1.07216,8.91824 2.67058,2.67056 4.61354,0.78955 6.89825,-6.67831 z m -8.67928,-4.8247 c 2.84971,-13.28777 2.94466,-29.27443 0.17387,-29.27443 -1.15411,0 -2.11807,3.06891 -2.14212,6.81983 -0.0241,3.7509 -1.28045,12.7216 -2.79202,19.93487 -2.18132,10.40946 -2.20815,13.11506 -0.1301,13.11506 1.4462,0 3.63527,-4.7427 4.89041,-10.59533 z m -19.01583,-16.49293 c 4.78372,-6.81966 8.66186,-13.19357 8.61806,-14.16425 -0.0439,-0.97068 -5.19836,-5.31839 -11.45457,-9.66161 l -11.37498,-7.89674 -8.42586,11.40568 c -4.63422,6.27313 -8.68645,12.33577 -9.0049,13.47257 -0.40728,1.45376 18.43987,17.33696 22.72402,19.15039 0.12128,0.0514 4.13451,-5.48637 8.91823,-12.30604 z m -21.61026,-2.75638 c -4.20836,-6.00828 -4.11479,-8.51271 0.53241,-14.25178 7.44374,-9.19261 21.38189,-4.22184 21.38189,7.62544 0,10.88299 -15.62382,15.60725 -21.9143,6.62634 z m 16.5184,-0.73217 c 1.81362,-1.81361 3.29749,-4.57903 3.29749,-6.14534 0,-3.99641 -5.89598,-9.44284 -10.22224,-9.44284 -8.29904,0 -12.05469,12.50508 -4.99122,16.61918 5.18018,3.01718 8.12234,2.76262 11.91597,-1.031 z m -221.713088,9.19927 c -0.456837,-1.37053 -1.952599,-2.86586 -3.323906,-3.32296 -1.533407,-0.51112 -2.002373,0.4482 -1.218141,2.49186 1.463678,3.81429 5.800996,4.60794 4.542047,0.8311 z M 50.903149,196.1322 c -0.767896,-4.09325 -2.297666,-7.44227 -3.399498,-7.44227 -2.861835,0 -2.481866,11.27255 0.479794,14.2342 3.629689,3.6297 4.496528,1.6132 2.919704,-6.79193 z M 300.28532,168.53055 c 3.78701,-1.45321 4.24032,-6.52243 1.27966,-14.30957 -1.84941,-4.86436 -2.54165,-5.13568 -7.42549,-2.91046 -3.30293,1.50493 -4.94536,3.6022 -4.24671,5.42279 0.62656,1.63284 1.70969,5.24176 2.40696,8.01988 1.32973,5.29807 2.53588,5.86861 7.98558,3.77736 z m 4.75267,-20.10382 c -0.66985,-1.67398 -1.16708,-1.17674 -1.26777,1.26779 -0.091,2.21206 0.40483,3.45144 1.10212,2.75415 0.69729,-0.69729 0.77183,-2.50716 0.16557,-4.02194 z m -4.3722,-4.64016 c 1.17287,-3.05645 -7.55065,-21.98038 -13.84408,-30.0319 -2.98533,-3.81929 -4.23076,-4.18991 -7.05147,-2.09839 -3.1356,2.32502 -3.06206,3.07335 0.86841,8.83538 2.3618,3.46238 6.62262,10.78058 9.46857,16.26267 5.26166,10.13555 8.53191,12.3136 10.55857,7.03224 z M 276.32525,109.0505 c 0,-1.89558 -16.39594,-17.29028 -25.87326,-24.29326 -6.62528,-4.895557 -8.37023,-5.411651 -9.93531,-2.938533 -3.06616,4.845086 -2.62302,5.558424 12.14318,19.547983 12.53474,11.87548 14.63833,13.12148 18.88566,11.18628 2.62885,-1.1978 4.77973,-2.77391 4.77973,-3.50247 z m -2.21137,-9.798974 C 264.58614,89.237568 247.19795,75.375889 244.1641,75.375889 c -1.32362,0 2.30224,3.207785 8.05747,7.128414 5.75522,3.920628 14.19672,11.002762 18.75893,15.738068 4.56218,4.735299 8.76061,8.609649 9.32985,8.609649 0.56925,0 -2.21917,-3.42023 -6.19647,-7.600494 z M 238.55389,75.124717 c 0,-4.568769 -5.51216,-10.240863 -9.95209,-10.240863 -3.9477,0 -11.03446,5.940906 -11.02631,9.24346 0.002,1.263776 3.54418,4.266076 7.86902,6.671767 6.98461,3.885171 8.1565,4.016229 10.48637,1.172729 1.44266,-1.760674 2.62301,-4.84187 2.62301,-6.847093 z M 121.08802,71.949436 c 10.94958,-7.24609 10.56871,-8.089633 -1.09419,-2.423353 -5.19356,2.523221 -9.44284,5.343804 -9.44284,6.267956 0,2.648297 1.61726,2.058216 10.53703,-3.844603 z m 92.11154,-5.074371 c -3.01926,-1.865998 -25.92243,-6.18803 -32.79143,-6.18803 -2.36094,0 -5.46813,1.416424 -6.90489,3.147611 -2.24282,2.702435 -1.46302,3.17136 5.51368,3.315538 4.46928,0.0924 13.79167,1.783181 20.71643,3.757392 10.73505,3.060518 12.85835,3.153563 14.40835,0.631395 1.15838,-1.884836 0.81654,-3.576981 -0.94214,-4.663906 z m -39.69632,-8.865037 c 0,-0.917108 -1.88856,-0.656737 -4.19682,0.578601 -2.30823,1.235339 -4.19681,3.165127 -4.19681,4.288425 0,1.131341 1.87204,0.873252 4.19681,-0.57859 2.30826,-1.441528 4.19682,-3.371327 4.19682,-4.288436 z m 36.72215,2.677007 c -2.30826,-0.991885 -6.0854,-1.775676 -8.39364,-1.741753 -3.37379,0.04962 -3.16804,0.391155 1.04921,1.741753 7.1748,2.297781 12.69163,2.297781 7.34443,0 z m -17.28301,-3.57554 c -2.58092,-0.498087 -7.30233,-0.510975 -10.49205,-0.02859 -3.18972,0.482329 -1.07805,0.889851 4.69256,0.905598 5.77063,0.01577 8.3804,-0.378875 5.79949,-0.876962 z"
       id="path304" />
  </g>
</svg>
