<?xml version="1.0" encoding="UTF-8" standalone="no"?>
<svg
   xmlns:dc="http://purl.org/dc/elements/1.1/"
   xmlns:cc="http://creativecommons.org/ns#"
   xmlns:rdf="http://www.w3.org/1999/02/22-rdf-syntax-ns#"
   xmlns:svg="http://www.w3.org/2000/svg"
   xmlns="http://www.w3.org/2000/svg"
   id="svg8"
   version="1.1"
   viewBox="0 0 500 500"
   height="500mm"
   width="500mm">
  <defs
     id="defs2" />
  <metadata
     id="metadata5">
    <rdf:RDF>
      <cc:Work
         rdf:about="">
        <dc:format>image/svg+xml</dc:format>
        <dc:type
           rdf:resource="http://purl.org/dc/dcmitype/StillImage" />
        <dc:title></dc:title>
      </cc:Work>
    </rdf:RDF>
  </metadata>
  <g
     transform="translate(0,203)"
     id="layer1">
    <path
       id="path778"
       d="M 225.28779,71.808386 V -152.49378 l 22.12977,-24.80838 22.12976,-24.80837 52.49387,0.53665 52.49387,0.53666 0.52385,223.029238 0.52387,223.029232 -22.83053,25.54464 -22.83055,25.54465 h -52.31695 -52.31696 z m 6.17575,177.984034 c 0,-28.13398 -0.75003,-44.25953 -2.05858,-44.25953 -1.30856,0 -2.05859,16.12555 -2.05859,44.25953 0,28.13397 0.75003,44.25952 2.05859,44.25952 1.30855,0 2.05858,-16.12554 2.05858,-44.25952 z m 90.57765,4.11716 v -40.14237 h -13.38078 c -12.0084,0 -13.3808,-0.42227 -13.3808,-4.11715 0,-3.93419 -1.3724,-4.11717 -30.87874,-4.11717 h -30.87874 v 44.25953 44.25952 h 44.25953 44.25953 z m 6.17575,-4.11716 c 0,-28.13398 -0.75002,-44.25953 -2.05858,-44.25953 -1.30856,0 -2.05858,16.12555 -2.05858,44.25953 0,28.13397 0.75002,44.25952 2.05858,44.25952 1.30856,0 2.05858,-16.12554 2.05858,-44.25952 z m 24.2892,18.69271 21.01814,-23.50823 -0.52391,-221.412577 -0.52389,-221.412603 -21.10047,23.49387 -21.10048,23.49385 V 70.566421 c 0,121.784799 0.2728,221.426959 0.60625,221.426959 0.33343,0 10.06441,-10.57871 21.62436,-23.50825 z m -31.77908,-59.86437 c 0.97169,-2.53222 -1.02604,-3.08787 -11.10196,-3.08787 -9.54929,0 -12.28691,0.68799 -12.28691,3.08787 0,2.36306 2.60595,3.08787 11.10197,3.08787 7.96939,0 11.43631,-0.87129 12.2869,-3.08787 z M 231.46354,26.43619 c 0,-116.653029 -0.70215,-177.03813 -2.05858,-177.03813 -1.35644,0 -2.05859,60.385101 -2.05859,177.03813 0,116.65303 0.70215,177.03812 2.05859,177.03812 1.35643,0 2.05858,-60.38509 2.05858,-177.03812 z m 89.99717,66.389297 c -0.56543,-61.652005 -2.0508,-119.764516 -3.35438,-131.234658 -4.45127,-39.166437 -12.55086,-71.320879 -24.89701,-98.838069 l -5.99183,-13.3547 h -26.8477 -26.84766 V 26.43619 203.47431 h 44.47669 44.4767 z M 328.21694,26.43619 V -150.60194 H 309.6897 c -10.18999,0 -18.52725,0.72289 -18.52725,1.60644 0,0.88353 3.29974,9.43042 7.33276,18.99306 9.90382,23.48284 16.44717,49.672589 20.64639,82.636857 2.78135,21.834053 3.69048,50.4404797 4.42263,139.161778 0.53391,64.698435 1.70639,111.678105 2.78715,111.678105 1.10058,0 1.86556,-72.59675 1.86556,-177.03811 z m 21.36363,-201.22648 19.76161,-22.12977 -49.89742,-0.61796 -49.89744,-0.61797 -11.97977,12.96946 c -6.58889,7.1332 -15.70719,17.36968 -20.26288,22.74773 l -8.28309,9.77827 h 50.39869 50.39868 z M 124.41722,78.779097 V 3.4898864 l 12.86614,-14.2892264 12.86615,-14.289218 17.49795,0.544733 17.49796,0.544734 0.54045,74.746095 0.54046,74.746106 -12.89196,14.26764 -12.89194,14.26763 -18.01261,0.0205 -18.0126,0.0193 z m 30.4524,11.987807 C 154.19418,35.49379 153.71488,28.420417 149.95257,18.201858 145.88455,7.1530111 145.57568,6.8643772 137.15914,6.2466377 L 128.53439,5.6136234 V 78.811684 152.00973 h 13.54181 13.54182 z m 29.15535,-38.381495 0.0911,-73.892068 -12.53387,13.6785104 C 161.72603,2.9281815 157.79045,5.8503605 153.16005,5.8503605 h -5.88833 l 2.94495,7.0482795 c 6.54377,15.661411 9.19647,41.992414 9.19647,91.28515 v 48.3881 l 12.26034,-13.14722 12.26034,-13.14722 z M 158.03005,21.289732 c 0.009,-7.925544 0.38121,-10.915553 0.82685,-6.644488 0.44563,4.271087 0.43816,10.755622 -0.0167,14.41008 -0.4547,3.654479 -0.8193,0.159953 -0.81017,-7.765592 z m 11.79955,-29.334806 10.8296,-11.836851 -15.02016,-0.610481 c -16.56734,-0.673366 -18.32982,0.259166 -31.30675,16.5644977 l -6.14387,7.7196859 H 143.59422 159 Z"
       style="fill:#000000;stroke-width:2.05858302" />
  </g>
</svg>
