<?xml version="1.0" encoding="UTF-8" standalone="no"?>
<svg
   xmlns:dc="http://purl.org/dc/elements/1.1/"
   xmlns:cc="http://creativecommons.org/ns#"
   xmlns:rdf="http://www.w3.org/1999/02/22-rdf-syntax-ns#"
   xmlns:svg="http://www.w3.org/2000/svg"
   xmlns="http://www.w3.org/2000/svg"
   id="svg8"
   version="1.1"
   viewBox="0 0 500 500"
   height="500mm"
   width="500mm">
  <defs
     id="defs2" />
  <metadata
     id="metadata5">
    <rdf:RDF>
      <cc:Work
         rdf:about="">
        <dc:format>image/svg+xml</dc:format>
        <dc:type
           rdf:resource="http://purl.org/dc/dcmitype/StillImage" />
        <dc:title></dc:title>
      </cc:Work>
    </rdf:RDF>
  </metadata>
  <g
     transform="translate(0,203)"
     id="layer1">
    <path
       id="path554"
       d="m 269.8472,274.63883 -26.25146,-20.07031 0.50373,-219.828334 0.50372,-219.828366 8.91268,-2.76326 c 15.36797,-4.76464 42.02118,-10.23404 56.44696,-11.58325 l 13.86417,-1.29669 22.77684,24.30408 22.77685,24.30407 1.23648,21.92058 c 1.75107,31.042815 0.82003,403.47988 -1.01868,407.49599 -0.85496,1.86746 -7.31748,5.08139 -14.76797,7.3444 -12.82443,3.89532 -46.70091,10.13821 -54.77066,10.09339 -2.17866,-0.0119 -15.77436,-9.05366 -30.21266,-20.0923 z m 69.82456,10.35494 c 25.35734,-6.08306 26.73803,-6.85418 26.73803,-14.93313 0,-3.8396 -0.51994,-6.9811 -1.15545,-6.9811 -0.6355,0 -8.23385,1.80727 -16.88523,4.01617 -8.65138,2.20888 -22.56172,4.88236 -30.91188,5.94107 -16.1353,2.04576 -18.3093,3.5377 -18.35735,12.59795 l -0.0303,5.72016 12.37872,-1.28002 c 6.80829,-0.70402 19.50886,-2.9905 28.22348,-5.0811 z m -43.21043,-0.49905 c -0.63224,-1.57998 -1.10157,-1.11068 -1.19659,1.19662 -0.086,2.08786 0.38209,3.25766 1.04024,2.59953 0.65814,-0.65815 0.72849,-2.36642 0.15627,-3.79615 z m -1.7696,-213.809999 -0.57366,-204.109511 -14.85446,-13.70388 c -8.16996,-7.53713 -17.52827,-15.54621 -20.79625,-17.79795 -3.26799,-2.25175 -1.67042,-0.21994 3.55013,4.51512 l 9.49195,8.6092 -0.0786,211.316088 -0.0786,211.316052 10.3927,7.93336 10.39271,7.93335 1.56396,-5.95117 c 0.86017,-3.27314 1.30581,-97.80043 0.9903,-210.060659 z M 320.8561,269.62493 c 8.31835,-1.0252 9.72704,-1.62645 5.95956,-2.54362 -6.10384,-1.48594 -8.95295,-8.87534 -7.14266,-18.52506 1.2576,-6.70358 2.10452,-7.42046 12.25132,-10.37022 8.57723,-2.49347 11.5141,-2.65942 13.78021,-0.77871 4.04256,3.35503 3.77654,19.41803 -0.39796,24.03082 -4.19424,4.63459 -1.35233,4.59534 12.19055,-0.16835 l 9.90297,-3.48341 0.50543,-183.628844 0.50543,-183.628846 -12.389,1.31281 c -15.5245,1.64499 -35.71081,5.75722 -46.05912,9.382805 l -7.92238,2.77564 -0.50541,183.501 -0.50541,183.500975 4.4666,-0.0178 c 2.45663,-0.01 9.36857,-0.62137 15.35987,-1.35978 z m -51.49644,-53.58453 -9.7e-4,-51.00033 -9.40686,-8.04163 c -5.17377,-4.4229 -10.52094,-8.70903 -11.8826,-9.52472 -1.95564,-1.1715 -2.47574,9.54885 -2.47574,51.02942 v 52.51251 l 10.39812,7.9802 c 5.71897,4.38911 11.06658,7.99477 11.88357,8.01255 0.817,0.0178 1.48501,-22.91782 1.48448,-50.968 z m 70.76599,49.80371 c -0.65815,-0.65813 -2.36641,-0.72848 -3.79615,-0.15627 -1.57998,0.63225 -1.11067,1.10157 1.19662,1.1966 2.08787,0.086 3.25766,-0.38212 2.59953,-1.04025 z m -6.89083,-4.07628 c -1.36165,-0.54944 -3.58982,-0.54944 -4.95148,0 -1.36166,0.54944 -0.24758,0.99899 2.47574,0.99899 2.72332,0 3.8374,-0.44955 2.47574,-0.99899 z m 11.03283,-8.30089 c 0.93502,-9.73663 -0.40053,-11.66761 -7.36312,-10.64572 -3.63277,0.53317 -5.58062,1.74454 -4.81003,2.99137 0.76928,1.24472 0.12913,1.64797 -1.57685,0.99331 -2.2373,-0.85853 -2.70169,0.35545 -2.10179,5.49415 0.56393,4.83035 1.90852,6.8241 5.02269,7.44755 8.19461,1.64057 10.17893,0.4897 10.8291,-6.28066 z m -4.32184,2.68051 c 0.62704,-1.63399 1.49032,-2.97089 1.91845,-2.97089 0.4281,0 0.77839,1.3369 0.77839,2.97089 0,1.63399 -0.8633,2.9709 -1.91844,2.9709 -1.05512,0 -1.40541,-1.33691 -0.7784,-2.9709 z m 1.02896,-8.91267 c 0,-2.72332 0.44956,-3.83741 0.999,-2.47575 0.54943,1.36166 0.54943,3.58983 0,4.95149 -0.54944,1.36166 -0.999,0.24757 -0.999,-2.47574 z m -14.84577,5.44663 c -0.54943,-1.36166 -0.99899,-0.24757 -0.99899,2.47575 0,2.72331 0.44956,3.8374 0.99899,2.47574 0.54944,-1.36166 0.54944,-3.58983 0,-4.95149 z M 269.36063,55.802192 V -44.523024 l -8.26281,-7.122077 c -17.31442,-14.924088 -15.51903,-25.34421 -15.38985,89.319638 l 0.11447,101.617803 10.28363,8.30956 c 5.65601,4.57027 10.9521,8.35816 11.76909,8.41753 0.817,0.0594 1.48545,-45.03837 1.48545,-100.217238 z m 0,-156.026542 V -146.633 l -9.69783,-9.18191 c -9.26086,-8.76819 -13.96884,-19.40193 -9.74559,-22.01204 1.96286,-1.21312 0.21689,-4.72743 -2.34867,-4.72743 -0.97117,0 -1.81973,24.94309 -1.90349,55.95181 l -0.15112,55.95182 10.43791,8.323809 c 5.74084,4.578095 11.10635,8.365983 11.92334,8.41753 0.817,0.05156 1.48545,-20.790173 1.48545,-46.314939 z m 59.41786,-6.23282 c 11.43793,-2.61795 24.80695,-4.76752 29.70892,-4.77684 l 8.91268,-0.017 -0.69384,-18.3215 c -0.38162,-10.07683 -1.06215,-18.70494 -1.51228,-19.17358 -1.5009,-1.56262 -34.3522,3.60623 -50.34293,7.92099 l -15.78148,4.25839 0.0178,8.20056 c 0.01,4.51031 0.58466,12.92535 1.2782,18.70011 1.03019,8.57791 1.84265,10.267965 4.43913,9.23418 1.74736,-0.69595 12.53584,-3.40732 23.97378,-6.02527 z m -32.35841,-25.09689 c -0.54944,-1.36166 -0.999,-0.24757 -0.999,2.47575 0,2.72332 0.44956,3.8374 0.999,2.47574 0.54943,-1.36166 0.54943,-3.58983 0,-4.95149 z m -1.64182,-9.0619 c -1.30034,-3.21972 -39.74312,-36.19553 -40.8758,-35.06284 -1.3761,1.37611 1.50979,4.30049 22.39025,22.68885 14.55429,12.81722 20.18748,16.58801 18.48555,12.37399 z m 17.30084,-5.16224 c 8.90515,-2.58541 20.67702,-4.90443 41.07471,-8.09158 l 7.54024,-1.17817 -16.17209,-17.71441 c -14.8734,-16.29184 -16.77027,-17.7144 -23.62074,-17.7144 -10.19038,0 -38.22265,5.03607 -51.95778,9.33436 l -11.31047,3.5395 19.23285,17.21976 c 10.57806,9.47086 20.63079,17.26946 22.33941,17.33021 1.7086,0.0607 7.50184,-1.16562 12.87387,-2.72527 z m -21.71919,-44.64687 c 11.43687,-2.20709 23.47546,-4.01288 26.75243,-4.01288 3.27698,0 5.48657,-0.763 4.91024,-1.69556 -1.37563,-2.22578 -18.27377,-0.83772 -36.70253,3.01486 -21.55878,4.5069 -34.05382,8.5266 -32.80179,10.55244 0.61797,0.9999 4.59593,0.54714 9.07386,-1.03276 4.38544,-1.54727 17.33092,-4.61901 28.76779,-6.8261 z m -141.81559,377.12638 -18.81565,-14.9798 -0.9903,-101.028411 c -0.54466,-55.565618 -0.29253,-102.274026 0.56029,-103.796456 2.34543,-4.186991 26.12022,-10.809358 38.80639,-10.809358 h 11.22109 l 17.78406,17.864561 17.78406,17.864558 0.9903,87.602128 c 1.12159,99.215778 0.67887,109.477768 -4.89886,113.556308 -5.57005,4.07292 -16.09664,6.73807 -30.75185,7.78586 l -12.87387,0.92043 z m 51.49548,7.3711 10.89327,-3.40549 0.60161,-9.2971 0.60162,-9.29707 -8.50499,3.00072 c -4.67773,1.65041 -13.63832,3.53729 -19.91241,4.19306 -10.86338,1.13544 -11.40744,1.45451 -11.40744,6.68996 0,3.02369 -0.54098,6.90744 -1.20219,8.63052 -0.99801,2.60078 0.43167,3.11233 8.41753,3.01189 5.29085,-0.0666 14.5217,-1.65348 20.513,-3.52649 z M 164.90372,4.858887 c -0.82771,-1.3429623 -5.73846,-6.294985 -10.91276,-11.004468 l -9.40783,-8.562703 0.0583,96.806264 0.0584,96.80626 10.33978,7.49727 10.33979,7.49726 0.51463,-93.29904 C 166.17706,49.285242 165.73142,6.2018692 164.90372,4.858887 Z m 39.59242,166.475993 7.42723,-3.12179 V 93.564636 18.916161 l -11.38842,1.056212 c -6.26364,0.580909 -15.17631,2.584004 -19.80596,4.451329 l -8.41753,3.395116 v 74.328422 74.32843 l 12.37872,-1.00948 c 6.8083,-0.55523 15.72098,-2.41431 19.80596,-4.13131 z M 137.3633,-20.463538 c -1.8134,-2.003774 -4.05021,-3.643225 -4.97071,-3.643225 -0.92049,0 -1.67362,43.117775 -1.67362,95.817294 v 95.817289 l 4.45633,2.95929 4.45634,2.9593 0.51437,-95.133367 c 0.46722,-86.414036 0.21217,-95.467267 -2.78271,-98.776581 z m 45.66107,40.898737 c 5.34743,-1.622207 14.08177,-2.949463 19.40963,-2.949463 h 9.68705 l -0.594,-11.3884224 -0.59398,-11.3884226 -10.89327,0.717716 c -12.82197,0.84479 -28.80274,6.3036922 -28.52057,9.7424214 0.10893,1.3275534 0.33175,5.9788026 0.49515,10.3361126 0.16339,4.357309 0.5199,7.912735 0.79223,7.900951 0.27234,-0.01188 4.87033,-1.348707 10.21776,-2.970893 z m -25.41495,-31.159774 c -5.09018,-4.350953 -8.78477,-8.380928 -8.2102,-8.9555 0.57457,-0.574571 5.0537,2.650709 9.95361,7.167294 10.04883,9.262686 9.94266,9.240285 24.84221,5.241077 5.9913,-1.608132 13.42725,-2.934456 16.52434,-2.947385 l 5.63107,-0.02351 -8.50028,-10.152638 -8.50026,-10.152638 -11.98527,1.144325 c -11.89404,1.135614 -22.20107,4.122102 -29.81061,8.637704 -3.73258,2.214959 -3.33251,2.917051 6.93208,12.165258 5.9913,5.398051 11.22738,8.9083822 11.63573,7.800734 0.40834,-1.107648 -3.42224,-5.573769 -8.51242,-9.924723 z M 138.1612,-27.467774 c -2.93788,-2.937882 -6.03706,-4.643697 -6.88707,-3.790701 -1.69267,1.698634 6.46143,9.132307 10.01737,9.132307 1.21622,0 -0.19242,-2.403722 -3.1303,-5.341606 z m 32.91921,-4.664789 c 12.88793,-2.244335 13.21557,-2.444028 9.94299,-6.060183 -4.21597,-4.658598 -15.30609,-4.90032 -31.48499,-0.686253 -6.44694,1.679216 -12.13386,3.465265 -12.6376,3.969 -0.50373,0.503733 1.0996,3.061259 3.56297,5.683391 4.16731,4.435904 4.92438,4.581359 10.8842,2.091184 3.52295,-1.47198 12.40254,-3.720693 19.73243,-4.997139 z"
       style="fill:#000000;stroke-width:1.98059523" />
  </g>
</svg>
