<?xml version="1.0" encoding="UTF-8" standalone="no"?>
<svg
   xmlns:dc="http://purl.org/dc/elements/1.1/"
   xmlns:cc="http://creativecommons.org/ns#"
   xmlns:rdf="http://www.w3.org/1999/02/22-rdf-syntax-ns#"
   xmlns:svg="http://www.w3.org/2000/svg"
   xmlns="http://www.w3.org/2000/svg"
   id="svg8"
   version="1.1"
   viewBox="0 0 500 500"
   height="500mm"
   width="500mm">
  <defs
     id="defs2" />
  <metadata
     id="metadata5">
    <rdf:RDF>
      <cc:Work
         rdf:about="">
        <dc:format>image/svg+xml</dc:format>
        <dc:type
           rdf:resource="http://purl.org/dc/dcmitype/StillImage" />
        <dc:title></dc:title>
      </cc:Work>
    </rdf:RDF>
  </metadata>
  <g
     transform="translate(0,203)"
     id="layer1">
    <path
       id="path77"
       d="M 256.79381,267.49769 C 218.12466,263.07427 171.84951,247.90209 137.07303,228.24501 76.797342,194.17476 26.344253,132.81622 7.9456685,71.206729 2.7666138,53.864147 1.7397708,45.925084 1.5603177,21.838158 1.3696232,-3.7573775 2.0051072,-8.6876575 7.4307313,-23.706306 18.800989,-55.180276 38.10772,-81.041438 64.296432,-99.877318 c 7.889213,-5.674212 21.311694,-17.033162 29.827739,-25.242132 19.464399,-18.76252 39.109469,-30.41757 65.525389,-38.87497 89.6043,-28.68799 199.42169,0.0783 270.07753,70.746062 40.59352,40.600322 61.5517,86.4052235 61.80697,135.081569 0.0451,8.577937 1.57878,21.796016 3.40845,29.373518 12.34045,51.107741 -8.35516,109.604601 -52.0324,147.071391 -41.57807,35.66608 -120.99644,56.66876 -186.1163,49.21957 z m 83.25672,-6.76418 c 11.22217,-2.44928 26.88762,-7.17799 34.81212,-10.50825 7.92449,-3.33027 17.15928,-6.31007 20.52173,-6.62178 3.36247,-0.31169 13.41183,-4.90253 22.33191,-10.20184 39.78241,-23.63431 65.90791,-59.38997 74.78066,-102.3457 C 498.90527,100.03138 495.655,70.765304 481.80772,34.807488 461.90784,-16.867364 403.51778,-76.110138 345.64277,-103.34601 269.66772,-139.09972 200.79702,-147.13561 130.82822,-128.41073 70.587274,-112.28919 29.466274,-76.157398 9.8476652,-22.108732 2.4706301,-1.7852315 0.96382521,22.549847 5.4791805,48.442835 11.373502,82.243427 13.282476,83.16143 12.108469,51.630759 11.283247,29.467555 11.918303,19.609156 14.915143,8.0608835 25.679179,-33.418144 54.454118,-67.154922 97.651825,-88.942568 127.57823,-104.03659 178.56698,-113.44864 213.61055,-110.34749 c 58.03259,5.13555 117.92685,26.540622 158.70186,56.717025 44.41552,32.870654 61.26942,51.7289895 80.53825,90.116645 14.53052,28.947961 20.23191,51.026665 20.23191,78.34858 0,38.68349 -10.83245,68.19871 -34.44319,93.84739 -12.65567,13.74805 -37.43396,33.59241 -41.94455,33.59241 -1.32204,0 4.84469,-5.09036 13.70382,-11.31189 29.16064,-20.47872 49.55512,-49.72443 57.14414,-81.94483 5.58086,-23.69432 3.43053,-60.877853 -4.83182,-83.551644 -18.39272,-50.473988 -41.17789,-79.731566 -90.59638,-116.331346 -32.21035,-23.855278 -73.76844,-41.729578 -120.1839,-51.69156 -28.50389,-6.11768 -75.77047,-6.67213 -102.76577,-1.20547 C 81.726374,-90.105548 31.147133,-47.076654 17.547675,8.2075885 15.508491,16.497238 13.840068,32.606362 13.840068,44.005634 c 0,107.233256 113.200382,207.214576 251.435272,222.073736 16.90072,1.81669 54.16366,-0.84733 74.77519,-5.34586 z M 228.1352,234.33165 c -4.00916,-1.7439 -9.0535,-5.86312 -11.20965,-9.1538 -3.72424,-5.68393 -3.7045,-6.22152 0.39511,-10.75155 3.62383,-4.00428 6.36427,-4.62026 17.10035,-3.84368 30.05711,2.17415 39.14533,27.31101 9.76531,27.00963 -4.81896,-0.0494 -12.04198,-1.51671 -16.05112,-3.2606 z m 27.8895,-2.058 c 5.14384,-3.76126 3.59656,-8.99796 -4.16037,-14.08049 -11.90221,-7.79862 -33.66135,-7.27691 -33.66135,0.80712 0,11.74228 26.971,21.20761 37.82172,13.27337 z m -37.82172,-48.78938 c -27.26096,-7.29368 -56.81501,-32.64947 -65.1848,-55.92505 -6.20756,-17.26267 -4.46275,-37.916547 4.26737,-50.514119 13.1492,-18.974316 39.26929,-28.100292 67.18699,-23.474181 42.6058,7.060004 77.97751,40.736555 80.5802,76.71846 2.93874,40.62743 -38.63921,66.09367 -86.84976,53.19489 z m 47.32994,-2.00762 C 309.60152,168.3897 315.58498,118.46524 277.41181,82.362625 262.36622,68.133132 250.91735,62.015173 230.30705,57.191152 173.71276,43.944739 134.609,85.81413 158.64732,133.91907 c 18.36594,36.7535 68.36088,58.99819 106.8856,47.55758 z M 334.05735,80.495941 c -11.55733,-11.557297 -4.77006,-30.72275 12.7378,-35.968218 23.93115,-7.169946 39.35469,16.481938 22.03937,33.797263 -6.63789,6.637891 -9.40464,7.807123 -18.47406,7.807123 -8.2638,0 -11.93673,-1.269782 -16.30311,-5.636168 z m 31.44971,-3.189347 c 14.31574,-12.791121 7.24751,-30.210097 -12.25857,-30.210097 -7.00411,0 -10.65699,1.54992 -15.81909,6.712012 -8.28296,8.282944 -8.65899,16.808092 -1.07584,24.39122 7.97069,7.970704 19.63301,7.613414 29.1535,-0.893135 z M 95.355607,44.912155 c -2.525827,-0.949621 -6.869219,-2.504501 -9.651966,-3.455271 -2.782748,-0.950792 -6.522104,-3.960852 -8.309663,-6.689028 -4.331527,-6.61075 -7.163733,-19.818335 -4.249802,-19.818335 1.245029,0 1.723261,-2.066591 1.062742,-4.592425 -0.835211,-3.1938455 -0.07045,-4.5924245 2.511183,-4.5924245 2.041672,0 3.712128,-1.033296 3.712128,-2.296213 0,-1.262916 1.09428,-2.296213 2.431734,-2.296213 1.337442,0 1.908665,0.846327 1.269374,1.880727 -0.639302,1.034401 1.88296,1.433769 5.605015,0.887489 4.035303,-0.592258 6.767364,0.03898 6.767364,1.563592 0,1.406256 1.58237,2.55683 3.516384,2.55683 1.93401,0 4.18356,1.808267 4.999,4.0183725 0.81542,2.210104 2.20312,4.53502 3.08377,5.166478 3.06295,2.196258 4.98398,16.073487 2.22505,16.073487 -1.43779,0 -1.93532,1.098417 -1.10562,2.440897 0.82972,1.342504 -0.30274,4.442391 -2.51657,6.888639 -4.34813,4.804617 -4.5067,4.836259 -11.350123,2.263398 z M 80.715158,23.522041 c -2.267773,-2.250886 -2.531526,-1.987143 -1.285403,1.285419 0.862297,2.264571 2.146255,3.538969 2.853224,2.831988 0.70698,-0.706981 0.0011,-2.559795 -1.567821,-4.117407 z m 3.542088,-9.684161 c 0,-2.579543 -0.744161,-2.790267 -3.061611,-0.866959 -1.683893,1.397499 -3.061612,2.931047 -3.061612,3.407855 0,0.476832 1.377719,0.866958 3.061612,0.866958 1.683892,0 3.061611,-1.533548 3.061611,-3.407854 z m 12.24647,-0.916764 c 0,-1.115615 -2.125641,-2.584272 -4.723652,-3.2636525 -3.875939,-1.013594 -4.237569,-0.649576 -2.01506,2.0283815 3.031642,3.652908 6.738712,4.332448 6.738712,1.235271 z M 488.22019,27.48225 c -5.21087,-57.50378 -42.4403,-113.899658 -100.15275,-151.71337 -39.29761,-25.74815 -79.62287,-40.57515 -127.8688,-47.01547 -47.7763,-6.37764 -106.39872,5.42018 -140.86071,28.34837 -14.45723,9.61866 -34.655193,29.42547 -25.13042,24.64377 3.157287,-1.58505 7.19048,-4.03644 8.96263,-5.44751 1.77216,-1.41108 5.3887,-2.70206 8.03675,-2.86884 2.64804,-0.16677 12.98031,-2.48974 22.96059,-5.16213 66.56196,-17.8231 138.69833,-8.92503 211.50776,26.08964 53.26437,25.615292 95.79466,65.123932 131.28685,121.95938 2.3098,3.698807 2.43787,3.310655 0.82964,-2.514675 -8.83849,-32.014807 -26.92698,-60.723452 -57.23876,-90.844933 -26.83729,-26.668772 -58.49581,-46.902942 -95.39487,-60.970462 -39.25823,-14.96695 -57.69764,-18.14763 -103.5108,-17.85497 -35.18899,0.22479 -41.02416,0.84856 -59.21547,6.33003 -11.09891,3.34436 -27.37332,9.70324 -36.16534,14.13083 -17.26464,8.69432 -21.29063,9.27993 -7.38227,1.07381 24.22935,-14.29566 55.46788,-22.54325 92.43012,-24.4034 58.94614,-2.96647 113.43607,11.28533 163.57486,42.78286 57.83029,36.329422 94.82351,84.100626 107.45447,138.761384 2.79528,12.096539 5.61409,21.99372 6.26405,21.99372 0.64999,0 0.47559,-7.793115 -0.38753,-17.318034 z"
       style="fill:#000000;stroke-width:2.29621243" />
  </g>
</svg>
