<?xml version="1.0" encoding="UTF-8" standalone="no"?>
<svg
   xmlns:dc="http://purl.org/dc/elements/1.1/"
   xmlns:cc="http://creativecommons.org/ns#"
   xmlns:rdf="http://www.w3.org/1999/02/22-rdf-syntax-ns#"
   xmlns:svg="http://www.w3.org/2000/svg"
   xmlns="http://www.w3.org/2000/svg"
   width="500mm"
   height="500mm"
   viewBox="0 0 500 500"
   version="1.1"
   id="svg8">
  <defs
     id="defs2" />
  <metadata
     id="metadata5">
    <rdf:RDF>
      <cc:Work
         rdf:about="">
        <dc:format>image/svg+xml</dc:format>
        <dc:type
           rdf:resource="http://purl.org/dc/dcmitype/StillImage" />
        <dc:title></dc:title>
      </cc:Work>
    </rdf:RDF>
  </metadata>
  <g
     id="layer1">
    <path
       style="fill:#000000;stroke-width:1.99311"
       d="m 234.38802,497.01436 c -2.92973,-1.57737 -9.96239,-3.86211 -15.62817,-5.07719 -15.00448,-3.21788 -38.64175,-13.54119 -52.90452,-23.10541 -9.56413,-6.41346 -13.8136,-8.1316 -18.43441,-7.4534 -3.30281,0.48474 -7.6557,-0.0425 -9.67309,-1.17155 -3.47883,-1.94705 -3.63135,-5.83735 -2.9576,-75.43976 0.70218,-72.53875 0.66187,-73.43075 -3.48794,-77.18372 -2.30908,-2.08826 -4.19834,-4.86419 -4.19834,-6.1687 0,-1.30451 -1.7938,-3.99521 -3.98622,-5.97933 -3.75867,-3.40155 -3.98622,-6.13873 -3.98622,-47.94861 v -44.34114 l -6.39187,-2.22822 c -12.33479,-4.29993 -19.414657,-15.40641 -13.555697,-21.26537 1.306797,-1.3068 1.153287,-4.15798 -0.45297,-8.41346 -1.94633,-5.15643 -1.91051,-7.26803 0.1801,-10.61562 1.871807,-2.99725 1.999887,-4.78864 0.45296,-6.33557 -2.70944,-2.70945 -2.81533,-10.68278 -0.16364,-12.32162 3.047637,-1.88355 2.371437,-4.98278 -1.08715,-4.98278 -1.69415,0 -5.28175,-2.20148 -7.97245,-4.89218 -6.94252,-6.94252 -6.5044,-15.72646 1.16701,-23.39787 5.05194,-5.05195 7.10096,-5.85083 12.326157,-4.80579 3.44684,0.68936 7.76997,2.61358 9.60696,4.27604 2.61981,2.37088 4.52924,2.57048 8.8554,0.92568 5.25842,-1.99924 5.45201,-2.53589 4.15463,-11.517042 -3.48638,-24.134592 -3.60352,-31.462458 -0.54353,-34.002022 7.09854,-5.891267 21.32765,4.592764 21.32765,15.714246 0,4.085784 2.09597,7.203104 7.97245,11.857364 4.38485,3.472862 7.97245,7.459352 7.97245,8.858864 0,1.5786 3.97226,3.02973 10.46383,3.82261 8.94807,1.09292 10.94004,0.70396 13.75117,-2.6851 4.94632,-5.963202 12.47892,-8.205584 19.42737,-5.783332 11.41971,3.98093 15.66368,17.190112 8.12336,25.283682 -8.57203,9.20101 -21.8306,8.05728 -28.01014,-2.41626 -3.82661,-6.48561 -9.73386,-9.14246 -20.32742,-9.14246 -3.79344,0 -3.84009,0.22752 -0.74741,3.64489 1.81421,2.00469 3.34212,5.36806 3.39535,7.47417 0.0541,2.1428 4.81148,7.68155 10.80186,12.57611 11.88305,9.70932 13.67374,13.34311 9.97816,20.24836 -2.07233,3.87217 -1.98619,5.48525 0.49511,9.2722 2.70025,4.1211 2.66503,5.10167 -0.34835,9.70068 -2.55534,3.89994 -2.8125,5.76652 -1.08177,7.85192 1.24876,1.50467 1.98144,5.25647 1.62818,8.33734 -0.50184,4.37669 -2.71124,6.69117 -10.10381,10.58436 l -9.46151,4.98278 -0.006,43.19725 c -0.006,43.03543 -0.0242,43.21922 -4.93297,49.05292 -2.70996,3.22061 -4.41642,6.36644 -3.79214,6.99072 0.62429,0.62428 -0.74607,2.30985 -3.04524,3.74571 -4.06262,2.53715 -4.1803,4.00347 -4.1803,52.08829 v 49.47766 l 16.81725,7.88082 c 16.56028,7.7604 59.55626,20.45764 61.77191,18.242 0.62442,-0.62442 1.13531,-74.76437 1.13531,-164.75543 0,-161.46154 -0.0526,-163.65294 -3.98622,-166.10953 -3.56988,-2.22943 -3.98623,-4.648002 -3.98623,-23.156184 0,-15.938936 -0.68393,-21.234347 -2.98966,-23.147942 -3.43332,-2.849402 -3.90927,-10.502437 -0.99215,-15.95314 2.16386,-4.043206 2.28105,-4.011893 -26.29315,-7.025159 -9.60957,-1.01337 -11.4651,-1.860735 -12.15748,-5.551968 -0.48821,-2.602727 -0.74149,-1.949353 -0.62927,1.623258 0.1841,5.861265 0.004,5.973175 -9.14391,5.667318 -9.68029,-0.323674 -21.53951,-5.767972 -21.53951,-9.888294 0,-5.903364 25.84261,-9.146563 31.73285,-3.982413 1.79567,1.574321 11.56092,3.604708 22.74533,4.7292 l 19.59871,1.970474 7.3083,-6.712791 c 4.01955,-3.692033 8.56897,-6.717073 10.10982,-6.722311 4.01684,-0.01365 16.13303,9.653413 16.13303,12.871946 0,3.238669 5.01743,4.073512 44.84501,7.46167 22.309,1.89784 27.87329,2.865667 21.92423,3.813387 -7.61104,1.212486 -7.53887,1.248691 1.59216,0.798662 8.47696,-0.417794 12.81778,-2.685311 38.17275,-19.940357 L 395.78455,0.94895704 405.44648,2.763261 c 6.63346,1.245623 9.55233,2.7299874 9.31232,4.7356754 -0.19228,1.606754 -3.95284,11.4419236 -8.35682,21.8559326 l -8.00725,18.934562 7.2636,7.471198 c 4.42849,4.555079 6.52337,8.147546 5.36715,9.204032 -1.07915,0.986059 -14.7806,0.49201 -31.7931,-1.146404 l -29.89668,-2.879239 -5.97934,-6.631737 c -5.88779,-6.530199 -6.36077,-6.666464 -30.89323,-8.900091 -13.70264,-1.247596 -29.20811,-2.799098 -34.4566,-3.447782 l -9.54272,-1.179428 1.04083,5.907806 c 0.62769,3.562959 -0.10823,7.426474 -1.85431,9.734061 -2.06005,2.722615 -2.9134,9.435244 -2.9585,23.272279 -0.0594,18.219602 -0.37764,19.719262 -5.04616,23.778494 l -4.98278,4.33247 v 162.76684 c 0,159.96238 0.0684,162.82866 3.96625,166.35623 3.54114,3.20468 6.58532,3.45454 28.40185,2.33102 13.43957,-0.69213 26.91777,-1.82746 29.95154,-2.52298 l 5.51594,-1.26457 -0.53316,-47.96826 -0.53318,-47.96828 -6.37949,-1.65205 c -3.50871,-0.90864 -7.01922,-2.6872 -7.80112,-3.95232 -0.99952,-1.61725 -0.2889,-1.81601 2.39327,-0.66933 10.53936,4.50575 23.08394,5.77855 34.12588,3.46247 6.20968,-1.30249 12.12857,-3.20639 13.15307,-4.23089 1.09543,-1.09544 -1.7258,-1.03367 -6.84887,0.14988 -7.36902,1.70247 -18.77761,1.46163 -42.94501,-0.90661 -2.38517,-0.23373 -7.42667,-3.16093 -11.2033,-6.5049 l -6.86661,-6.07993 -1.45212,-43.74786 -1.4521,-43.74787 -7.77397,-7.54817 c -4.97104,-4.8266 -7.77398,-9.3537 -7.77398,-12.55589 0,-5.68926 5.18483,-16.76847 7.84728,-16.76847 2.23438,0 1.63376,3.70284 -1.53565,9.46728 -3.16556,5.75746 -0.64154,10.70889 8.26478,16.21331 24.05241,14.86521 82.70688,12.51555 100.30624,-4.01821 6.29267,-5.91163 5.92614,-10.31416 -1.36979,-16.45328 -17.20282,-14.47522 -70.81189,-17.32589 -94.89779,-5.04621 -4.12459,2.10283 -7.60856,3.82333 -7.7422,3.82333 -0.13354,0 -0.24294,-1.4619 -0.24294,-3.24868 0,-8.11519 32.44283,-15.80154 59.75801,-14.15786 18.8382,1.13358 40.22977,6.96178 40.22977,10.96072 0,1.24316 1.3021,3.42626 2.89354,4.85134 2.49791,2.23677 2.53269,2.11414 0.25424,-0.8969 -4.3347,-5.72846 1.11515,-4.03527 5.67656,1.76362 6.56878,8.35084 5.49344,17.90659 -2.90663,25.82888 l -7.0375,6.63722 -1.79773,44.3972 -1.79771,44.3972 -8.6045,7.41278 c -7.89577,6.8022 -11.88799,9.02426 -22.30105,12.41275 -3.5738,1.16294 -3.69975,4.2805 -2.98966,74.00314 0.64244,63.0804 0.34255,73.04135 -2.24835,74.68047 -4.46475,2.82461 -13.28068,2.33883 -16.53037,-0.91088 -2.48902,-2.48899 -4.85371,-2.23125 -18.08923,1.97183 -8.37426,2.65931 -23.51826,5.74608 -33.65335,6.85947 -10.13507,1.11339 -21.56657,2.50277 -25.40331,3.08749 -4.20704,0.64117 -9.09016,-0.0751 -12.30264,-1.8048 z m 61.13388,-7.22254 c 4.38485,-1.21225 13.12963,-4.06611 19.43284,-6.3419 l 11.46039,-4.1378 v -16.48521 c 0,-13.06008 -0.64265,-16.73181 -3.09319,-17.67216 -1.70124,-0.65283 -2.57157,-0.34298 -1.93403,0.68856 1.48032,2.39522 -14.86495,7.28948 -37.82468,11.32585 -21.94368,3.85777 -44.92155,2.74426 -69.17545,-3.35219 -18.74868,-4.71265 -46.76653,-18.03529 -45.87737,-21.81493 0.30121,-1.28039 -0.42413,-1.72739 -1.61187,-0.99332 -1.87225,1.1571 -16.65656,-7.42752 -18.81994,-10.92794 -2.42827,-3.92902 9.58644,0.1443 19.52611,6.61998 15.76922,10.27352 33.87534,18.62376 46.51691,21.45282 6.16992,1.38077 9.98918,3.18936 9.25242,4.38146 -0.76954,1.24516 0.0907,1.51379 2.225,0.6948 1.9138,-0.7344 4.35612,-1.33527 5.42736,-1.33527 1.07126,0 1.26875,-1.09862 0.43886,-2.4414 -0.82987,-1.34276 -1.55548,-4.61734 -1.61245,-7.27681 -0.0955,-4.45243 -1.79244,-5.2766 -21.42551,-10.40542 -11.72705,-3.06347 -28.25678,-8.77408 -36.73273,-12.6902 -11.66405,-5.38914 -15.78797,-6.51002 -16.96203,-4.61037 -0.85316,1.38045 -3.15833,2.51774 -5.12261,2.52733 -3.10878,0.0159 -3.64528,2.22624 -4.14163,17.06907 l -0.57021,17.05165 11.53233,8.56878 c 20.07425,14.91559 49.42345,28.04332 71.85065,32.13837 12.06729,2.20341 56.80948,0.85014 67.24083,-2.03375 z m 43.53192,-4.53297 c 3.04734,-2.22826 3.28145,-5.04012 2.07441,-24.9139 l -1.3606,-22.40216 h -7.78583 c -7.19994,0 -7.58983,0.27967 -5.1814,3.71666 1.92949,2.7535 2.29784,8.82233 1.42143,23.41906 -0.65063,10.83633 -0.82192,20.37508 -0.38064,21.19724 1.24637,2.32218 7.41074,1.76311 11.21263,-1.0169 z M 147.03507,456.99499 c 0,-1.57962 -0.8969,-3.42636 -1.99311,-4.10386 -1.10102,-0.68047 -1.99311,-9.65408 -1.99311,-20.04875 0,-18.74265 0.0197,-18.81693 4.98278,-18.81693 2.74053,0 4.98278,-0.78194 4.98278,-1.73764 0,-0.95567 -3.47035,-1.64662 -7.71189,-1.53541 l -7.71189,0.20222 -1.05842,21.96481 c -0.65671,13.62836 -0.28475,22.91038 0.98004,24.4562 2.79467,3.41562 9.52282,3.14669 9.52282,-0.38064 z m 117.13102,-0.54522 c -2.99495,-0.45477 -8.37635,-0.46392 -11.95867,-0.0203 -3.58232,0.44359 -1.13191,0.81568 5.44536,0.82686 6.57727,0.012 9.50826,-0.35174 6.51331,-0.80653 z m -27.98078,-1.77315 c -0.66231,-0.66229 -2.38137,-0.73309 -3.82014,-0.15726 -1.58996,0.63624 -1.1177,1.10853 1.20418,1.20416 2.10106,0.0865 3.27825,-0.38453 2.61596,-1.04682 z m 43.47529,-0.60228 c -2.91977,-1.14191 -1.41394,-1.82878 5.97933,-2.72737 13.41351,-1.63029 36.78898,-9.07941 36.78898,-11.72361 0,-1.3075 -1.75157,-1.60332 -4.4845,-0.7574 -2.46648,0.76346 -16.36843,1.88198 -30.89323,2.48557 -24.54217,1.01992 -26.40873,1.37405 -26.40873,5.0103 0,2.34137 -1.80106,4.43823 -4.48451,5.22106 -3.03363,0.88498 -0.2931,1.68057 8.47073,2.45906 19.0452,1.69182 19.27624,1.69231 15.03193,0.0323 z m -23.4157,-6.66427 c 1.61953,-1.9493 -0.71144,-2.49139 -10.71281,-2.49139 -12.21491,0 -14.41674,0.70178 -11.46446,3.65403 2.34467,2.3447 20.03378,1.41735 22.17727,-1.16264 z m -57.38892,-1.49483 c -1.64432,-1.06265 -3.88657,-1.93206 -4.98278,-1.93206 -1.09621,0 -0.64776,0.86941 0.99656,1.93206 1.64431,1.06265 3.88656,1.93206 4.98278,1.93206 1.09621,0 0.64776,-0.86941 -0.99656,-1.93206 z m 54.64756,-3.20291 c 6.21105,-2.38341 2.95435,-3.77298 -8.84256,-3.77298 -10.08461,0 -11.45254,0.39683 -8.58806,2.49139 3.62493,2.65062 12.21678,3.28233 17.43062,1.28159 z m -66.60623,-1.73937 c 0,-0.52582 -3.5876,-2.78629 -7.97245,-5.02328 -4.38484,-2.23699 -7.97245,-3.62198 -7.97245,-3.07778 0,0.5442 3.36338,2.76502 7.47417,4.93518 8.45676,4.46449 8.47073,4.46971 8.47073,3.16588 z M 252.67,272.51451 V 107.08623 h -7.97245 -7.97245 v 164.09953 c 0,90.25476 0.59794,164.69749 1.32875,165.42828 0.7308,0.73082 4.3184,1.32875 7.97245,1.32875 H 252.67 Z M 340.36692,388.115 v -47.83469 h -7.97245 -7.97245 v 47.83469 47.83468 h 7.97245 7.97245 z m -181.37318,37.1166 c 0,-0.41387 -1.56957,-1.98344 -3.48794,-3.48794 -3.16119,-2.47918 -3.23169,-2.40868 -0.75251,0.75251 2.60374,3.32003 4.24045,4.37584 4.24045,2.73543 z m -5.97933,-66.24908 v -48.59888 h -7.97245 -7.97245 v 48.6851 c 0,53.14999 -0.39383,51.45509 11.4604,49.32029 l 4.4845,-0.80761 z m 207.52722,-32.12416 c 4.79898,-2.12753 9.91837,-5.31356 11.37641,-7.08007 1.89232,-2.29266 3.03313,-14.36438 3.98622,-42.18112 0.73438,-21.43311 0.77237,-38.96845 0.0845,-38.96741 -0.68792,0.001 -2.37483,1.35625 -3.74869,3.01165 -8.30776,10.01024 -56.35316,12.11786 -73.42331,3.22087 -11.2826,-5.88054 -9.74314,-7.44178 1.7372,-1.76175 18.32238,9.06519 59.44522,6.42374 71.96389,-4.62247 4.06876,-3.59019 4.17047,-3.96318 0.73548,-2.69728 -23.9804,8.8376 -26.05734,9.22931 -44.96077,8.47928 -15.4341,-0.61236 -21.009,-1.72518 -29.36869,-5.86234 l -10.31836,-5.10649 1.11264,40.94276 c 0.61194,22.51852 1.97051,42.54572 3.01903,44.50491 2.28113,4.26233 10.82032,8.9123 21.1563,11.52053 11.47313,2.89519 36.57408,1.06511 46.64822,-3.40107 z M 155.84106,307.18073 c 6.57036,-2.52129 2.64394,-3.77299 -11.83536,-3.77299 -12.47499,0 -14.41246,0.41702 -11.57513,2.49139 3.54738,2.5935 17.93864,3.38134 23.41049,1.2816 z m -7.28792,-6.13897 c -1.90558,-0.49885 -5.49319,-0.51695 -7.97244,-0.0403 -2.47926,0.47673 -0.92014,0.8849 3.4647,0.90703 4.38485,0.0221 6.41333,-0.36795 4.50774,-0.86681 z m 15.82701,-7.14901 c 2.94251,-2.94251 3.51794,-9.17792 4.22804,-45.81584 l 0.82197,-42.40977 -24.15242,0.0391 -24.15242,0.0391 0.063,15.94489 c 0.0551,13.94451 0.40616,15.49234 2.79798,12.33768 1.68466,-2.22196 3.22651,-2.81184 4.01501,-1.53603 1.5279,2.47222 -2.21641,10.12602 -4.95374,10.12602 -1.05765,0 -1.89572,2.91493 -1.86238,6.47762 0.0502,5.36557 0.40937,5.87882 2.09215,2.98967 1.11735,-1.91837 2.88387,-3.48795 3.92561,-3.48795 3.27653,0 2.06114,5.21033 -2.09215,8.969 -2.31882,2.09851 -3.98622,6.13873 -3.98622,9.65886 0,5.71236 0.15835,5.8348 2.82671,2.18561 1.55469,-2.12615 3.42116,-3.2713 4.1477,-2.54475 1.67979,1.67978 -2.49095,9.63485 -5.05142,9.63485 -1.05765,0 -1.92299,3.63089 -1.92299,8.06865 0,7.17508 0.71738,8.39222 6.47761,10.9902 8.91855,4.02242 32.14115,2.96993 36.77792,-1.66684 z m 193.4774,-54.31636 c 5.63293,-1.6728 10.87579,-4.06749 11.65083,-5.32149 0.93487,-1.51266 0.28446,-1.84845 -1.93254,-0.99771 -1.83791,0.70526 -10.84709,2.21496 -20.02037,3.35488 -15.55111,1.93246 -37.29831,0.528 -50.04046,-3.23167 -3.14293,-0.92734 -3.48483,-0.64846 -1.61615,1.31828 6.99006,7.35682 43.84144,10.25795 61.95869,4.87771 z M 162.33038,202.54891 c 16.43731,-2.86243 25.56348,-8.86509 25.56348,-16.81415 0,-6.81041 -1.56454,-6.97926 -18.87063,-2.0366 -15.71783,4.48904 -37.13965,3.99981 -53.01191,-1.21068 -11.16846,-3.66635 -13.44783,-3.89347 -15.00161,-1.49483 -3.494887,5.39524 -0.88794,10.69954 7.53877,15.33897 14.407,7.93195 32.15434,9.98358 53.7819,6.21729 z M 289.5953,191.18185 c -0.61366,-0.61365 -2.2219,-0.001 -3.5739,1.36087 -1.95377,1.96843 -1.72484,2.19736 1.11574,1.11573 1.96565,-0.74847 3.07182,-1.86294 2.45816,-2.4766 z m 25.35944,-5.69115 c -1.37026,-0.55291 -3.61251,-0.55291 -4.98278,0 -1.37026,0.55292 -0.24914,1.0053 2.49139,1.0053 2.74053,0 3.86166,-0.45238 2.49139,-1.0053 z m 39.86224,0 c -1.37027,-0.55291 -3.61252,-0.55291 -4.98278,0 -1.37027,0.55292 -0.24914,1.0053 2.49139,1.0053 2.74053,0 3.86165,-0.45238 2.49139,-1.0053 z m -177.16894,-6.51677 c 9.72165,-4.70617 13.68588,-11.73133 9.47975,-16.79941 -1.8276,-2.20212 -4.01093,-2.03727 -12.67952,0.95737 -14.57073,5.03359 -44.46747,4.95453 -59.27569,-0.15676 -11.93432,-4.11932 -16.661497,-2.745 -15.570087,4.52665 0.810487,5.40001 9.278747,11.32013 20.859357,14.5827 14.87459,4.19056 45.55096,2.52198 57.18619,-3.11054 z m 160.22749,4.41609 c -3.01458,-0.45667 -7.94754,-0.45667 -10.96212,0 -3.01458,0.45667 -0.5481,0.83031 5.48106,0.83031 6.02916,0 8.49564,-0.37364 5.48106,-0.83031 z M 168.76009,162.7674 c 4.82339,-1.11189 11.32592,-3.84174 14.45007,-6.06633 8.63277,-6.14708 7.45423,-11.87788 -4.61371,-22.43462 -9.94599,-8.70051 -10.48166,-8.90787 -15.84592,-6.1339 -7.2436,3.74581 -28.26194,3.7001 -35.56674,-0.0773 -5.54964,-2.86983 -5.99834,-2.70404 -16.84247,6.22345 -6.12751,5.0445 -11.140927,10.69943 -11.140927,12.5665 0,5.36057 8.988877,12.41727 19.375487,15.21069 11.54198,3.10415 38.16751,3.48167 50.18421,0.71156 z m -61.79214,-34.53541 c 3.21035,-3.41725 4.29498,-6.65359 3.83538,-11.44407 -0.79,-8.23425 -5.61175,-9.69398 -11.421667,-3.45776 -5.54152,5.94813 -5.91032,19.66653 -0.5287,19.66653 2.001337,0 5.653087,-2.14412 8.114987,-4.7647 z m 14.15667,-8.43458 c 0,-3.75139 -3.28125,-3.47135 -4.76954,0.40706 -2.11015,5.49896 -1.38959,7.45019 1.77987,4.81977 1.64432,-1.36466 2.98967,-3.71673 2.98967,-5.22683 z m 38.9297,4.33198 c 6.78186,-2.83365 8.66786,-5.75708 5.1262,-7.94595 -0.98212,-0.60698 -4.3455,0.23146 -7.47417,1.8632 -7.44254,3.88163 -17.37127,3.78221 -25.88794,-0.25921 -7.35353,-3.48948 -9.9118,-2.78037 -7.99453,2.21595 2.66759,6.95162 23.72768,9.34999 36.23044,4.12601 z M 95.688963,109.532 c 1.55398,-1.89347 1.32074,-2.24484 -0.91947,-1.38519 -3.45129,1.32438 -7.60425,9.48902 -7.36518,14.47982 0.0894,1.86679 1.52156,0.25501 3.18254,-3.58173 1.66098,-3.83674 3.95693,-8.11754 5.10211,-9.5129 z m 115.154027,11.88385 c 6.26453,-5.07272 5.8676,-13.88929 -0.88689,-19.69927 -9.93095,-8.542234 -21.33242,-4.449412 -22.31365,8.01001 -0.98734,12.53712 13.27764,19.72434 23.20054,11.68926 z m -56.05909,-4.89172 c 4.26611,-2.20695 5.61094,-7.24745 1.57468,-5.90203 -0.90123,0.30041 -6.95531,0.62104 -13.4535,0.71252 -12.17788,0.17142 -15.19064,2.49563 -7.3304,5.65506 6.3847,2.56634 13.69074,2.38927 19.20922,-0.46555 z m -26.6975,-5.42885 c 0.69827,-1.12981 -0.10176,-1.46395 -1.87548,-0.78331 -3.4529,1.325 -4.08466,2.7536 -1.2177,2.7536 1.03151,0 2.42345,-0.88663 3.09318,-1.97029 z m 25.66713,-3.59251 c 0.5359,-0.86711 -2.10186,-1.21744 -5.86171,-0.77849 -3.75985,0.43894 -6.83608,1.14839 -6.83608,1.57657 0,1.49997 11.73329,0.76252 12.69779,-0.79808 z m -4.29698,-3.30937 c 9.60964,-1.61945 11.00675,-4.254982 5.41236,-10.209944 -6.20127,-6.60094 -13.73081,-6.22313 -20.68745,1.038042 l -5.62696,5.873282 5.44345,1.36621 c 4.11617,1.0331 4.7898,1.81977 2.76267,3.22629 -1.95268,1.35489 -1.59813,1.60122 1.30545,0.90699 2.19242,-0.52419 7.31814,-1.51458 11.39048,-2.20087 z m 24.94229,1.68866 c -0.6623,-0.66229 -2.38136,-0.7331 -3.82013,-0.15736 -1.58998,0.63626 -1.11769,1.10854 1.20417,1.20418 2.10107,0.0865 3.27825,-0.38453 2.61596,-1.04683 z m 79.59568,-2.90674 c 7.91311,-3.008572 8.57638,-4.841282 8.61052,-23.792656 l 0.0305,-16.94145 h -16.94143 -16.94145 v 18.192232 c 0,18.772072 0.95643,21.247924 8.969,23.217434 6.80393,1.67243 10.50083,1.51896 16.27286,-0.67556 z M 129.1264,75.103077 l -2.13489,-4.889416 1.02556,4.982779 c 0.56406,2.740529 1.15995,6.776576 1.32421,8.969006 0.29094,3.88342 0.31955,3.88101 1.10933,-0.0934 0.44588,-2.24377 -0.15002,-6.279826 -1.32421,-8.969006 z m 15.91556,3.03176 c 0,-4.382733 -6.69174,-12.903956 -10.13351,-12.903956 -1.22882,0 -1.48337,2.895236 -0.65714,7.47417 1.72584,9.564605 1.75704,9.609645 6.65809,9.609645 2.86763,0 4.13256,-1.27941 4.13256,-4.179859 z M 404.45112,58.579245 c -3.82287,-4.069258 -7.45942,-4.954539 -28.74928,-6.998704 -13.40503,-1.287098 -26.59014,-2.329914 -29.30022,-2.317367 l -4.92741,0.02281 4.45437,4.484502 c 3.64932,3.674012 8.14202,4.886506 24.85852,6.708824 11.2223,1.223376 24.37233,2.344501 29.22231,2.49139 l 8.81817,0.267067 z M 265.35896,55.199012 c 4.0694,-4.281665 4.08086,-4.408716 0.26626,-2.950854 -12.5271,4.787608 -27.97808,4.807545 -39.38656,0.05082 -2.66235,-1.11006 -3.22288,-0.714076 -2.31996,1.638924 1.89448,4.936882 10.80211,7.294941 24.49881,6.485398 9.94428,-0.587754 13.60883,-1.717805 16.94145,-5.22429 z m -3.81373,-4.239838 c 2.91749,-1.329305 5.07655,-3.968514 5.07655,-6.205551 0,-3.333043 -0.93102,-3.703172 -6.47761,-2.57516 -16.65156,3.386436 -19.42264,3.418352 -25.68197,0.295791 -5.60959,-2.798444 -6.86581,-2.85176 -9.3219,-0.395652 -3.32242,3.322407 -1.7,6.787088 4.31459,9.213833 6.29961,2.541749 26.23475,2.334723 32.09034,-0.333261 z m 143.09954,-24.31165 c 4.1108,-10.226619 7.47417,-19.1824846 7.47417,-19.9019246 0,-0.719439 -4.08524,-1.308072 -9.07828,-1.308072 -8.1027,0 -11.63687,1.75685 -32.88635,16.3479096 -13.09444,8.99135 -23.80806,16.953238 -23.80806,17.693085 0,1.080053 24.3807,3.936491 46.83813,5.487541 3.24441,0.224079 5.37714,-3.184909 11.46039,-18.318539 z M 251.98746,42.098609 c 2.36512,-0.634486 4.76614,-2.935336 5.33562,-5.113 0.76699,-2.932938 0.25579,-3.660222 -1.97185,-2.805396 -1.65398,0.634694 -4.53684,1.153991 -6.40632,1.153991 -1.97025,0 -3.52529,1.675649 -3.69935,3.986224 -0.32432,4.305548 0.21697,4.528603 6.7419,2.778181 z m -13.64427,-4.250126 c -0.83392,-4.330145 -7.59742,-5.959243 -7.59742,-1.829958 0,2.738502 2.59509,4.75136 6.62375,5.137665 0.90254,0.08654 1.34068,-1.401925 0.97367,-3.307707 z m 71.62877,0.09804 c -1.91837,-0.501321 -5.05752,-0.501321 -6.97589,0 -1.91837,0.501324 -0.34879,0.911496 3.48795,0.911496 3.83674,0 5.40631,-0.410172 3.48794,-0.911496 z m -19.97263,-1.82338 c -0.66231,-0.662293 -2.38137,-0.733103 -3.82014,-0.157356 -1.58997,0.636253 -1.1177,1.108535 1.20418,1.204172 2.10106,0.08654 3.27825,-0.384527 2.61596,-1.046822 z m -109.58509,-8.39048 c 0.66944,-5.862248 0.27503,-6.350241 -5.13243,-6.350241 -4.38971,0 -6.15875,1.123792 -7.05939,4.484501 -1.79823,6.710082 -1.63141,7.125867 3.22827,8.046262 7.08525,1.341907 8.19166,0.579017 8.96355,-6.180522 z m 75.32122,2.809806 c 3.72288,-2.722238 3.69248,-2.910827 -1.11389,-6.909581 -6.39284,-5.318643 -12.03803,-5.293393 -18.87483,0.08443 -5.19506,4.08644 -5.30006,4.475788 -1.88095,6.975892 4.74825,3.472004 17.03106,3.387347 21.86967,-0.150739 z m -91.1196,-6.999626 c -0.35163,-0.921589 -2.88159,-0.825983 -5.62212,0.212456 -4.857,1.840412 -4.88444,1.960568 -1.08685,4.760149 3.41525,2.517721 4.10891,2.491509 5.62212,-0.212456 0.94941,-1.696493 1.43849,-3.83856 1.08685,-4.760149 z m 49.68674,6.431234 c -1.91837,-0.501321 -5.05753,-0.501321 -6.9759,0 -1.91837,0.501323 -0.34879,0.911496 3.48795,0.911496 3.83674,0 5.40632,-0.410173 3.48795,-0.911496 z m -17.93801,-1.993112 c -1.91837,-0.501321 -5.05752,-0.501321 -6.97589,0 -1.91837,0.501324 -0.3488,0.911496 3.48794,0.911496 3.83674,0 5.40632,-0.410172 3.48795,-0.911496 z"
       id="path306" />
  </g>
</svg>
