<?xml version="1.0" encoding="UTF-8" standalone="no"?>
<!-- Created with Inkscape (http://www.inkscape.org/) -->

<svg
   xmlns:dc="http://purl.org/dc/elements/1.1/"
   xmlns:cc="http://creativecommons.org/ns#"
   xmlns:rdf="http://www.w3.org/1999/02/22-rdf-syntax-ns#"
   xmlns:svg="http://www.w3.org/2000/svg"
   xmlns="http://www.w3.org/2000/svg"
   xmlns:sodipodi="http://sodipodi.sourceforge.net/DTD/sodipodi-0.dtd"
   xmlns:inkscape="http://www.inkscape.org/namespaces/inkscape"
   width="500"
   height="500"
   viewBox="0 0 132.29166 132.29167"
   version="1.1"
   id="svg8"
   inkscape:version="0.92.4 (5da689c313, 2019-01-14)"
   sodipodi:docname="icon.svg">
  <defs
     id="defs2" />
  <sodipodi:namedview
     id="base"
     pagecolor="#ffffff"
     bordercolor="#666666"
     borderopacity="1.0"
     inkscape:pageopacity="0.0"
     inkscape:pageshadow="2"
     inkscape:zoom="1.3898629"
     inkscape:cx="74.932264"
     inkscape:cy="269.77243"
     inkscape:document-units="mm"
     inkscape:current-layer="layer1"
     showgrid="false"
     units="px"
     inkscape:window-width="1920"
     inkscape:window-height="1017"
     inkscape:window-x="-8"
     inkscape:window-y="-8"
     inkscape:window-maximized="1" />
  <metadata
     id="metadata5">
    <rdf:RDF>
      <cc:Work
         rdf:about="">
        <dc:format>image/svg+xml</dc:format>
        <dc:type
           rdf:resource="http://purl.org/dc/dcmitype/StillImage" />
        <dc:title></dc:title>
      </cc:Work>
    </rdf:RDF>
  </metadata>
  <g
     inkscape:label="Ebene 1"
     inkscape:groupmode="layer"
     id="layer1"
     transform="translate(0,-164.70832)">
    <path
       style="fill:#000000;stroke-width:0.56703329"
       d="m 39.495529,290.95968 v -1.7011 H 28.968135 c -6.277065,0 -10.977152,0.24071 -11.641375,0.59619 -0.612689,0.3279 -4.295927,0.64686 -8.184973,0.70879 l -7.0709911,0.11261 2.664e-4,-13.34049 2.665e-4,-13.34049 3.9692333,-3.93882 3.9692329,-3.93882 v -42.01134 -42.01135 l 1.59037,-1.52367 1.59037,-1.52367 h 58.515163 58.515172 v 58.58186 58.58186 l -1.59037,1.52367 -1.59037,1.52367 h -13.68606 c -8.5124,0 -13.818558,0.21435 -14.036526,0.56704 -0.192746,0.31187 -2.592323,0.56703 -5.332398,0.56703 -4.261822,0 -5.130302,0.16392 -6.008268,1.13407 -0.995166,1.09964 -1.746446,1.13406 -24.753834,1.13406 H 39.495529 Z m 47.063766,0 c 0,-0.31186 -0.370806,-0.56703 -0.824019,-0.56703 -0.453207,0 -1.346284,-1.18068 -1.984616,-2.62373 -1.060591,-2.39764 -1.160599,-3.75618 -1.160599,-15.7657 v -13.14197 l 1.984617,-1.92357 1.984617,-1.92356 v -9.24482 -9.24482 H 63.310929 40.062562 v 27.50112 27.50112 h 23.248367 c 15.12089,0 23.248366,-0.19823 23.248366,-0.56704 z M 14.546063,277.35088 V 264.87615 H 8.592212 2.6383621 v 12.47473 12.47474 h 5.9538499 5.953851 z m -8.0825717,9.49781 c -0.5103402,-0.38983 -1.0938793,-1.39765 -1.2967531,-2.2396 -0.2860354,-1.18707 -0.044144,-1.85552 1.0772573,-2.97692 1.6930555,-1.69306 3.1904362,-1.83499 4.7877755,-0.45381 1.778601,1.53791 1.994385,3.16067 0.647902,4.87244 -1.296394,1.6481 -3.6348817,2.0058 -5.2161817,0.79789 z m 4.5669637,-0.53868 c 0.374242,-0.37424 0.680441,-1.34387 0.680441,-2.15473 0,-1.87391 -0.961259,-2.83516 -2.8351673,-2.83516 -1.8739079,0 -2.8351666,0.96125 -2.8351666,2.83516 0,1.87391 0.9612587,2.83517 2.8351666,2.83517 0.8108576,0 1.7804843,-0.3062 2.1547263,-0.68044 z M 6.0817174,273.02166 C 5.4353453,272.19994 4.9064955,271.21369 4.9064955,270.83 c 0,-0.38369 0.5288498,-1.36993 1.1752219,-2.19166 2.1666218,-2.75442 6.3379706,-1.31197 6.3379706,2.19166 0,3.50363 -4.1713488,4.94608 -6.3379706,2.19166 z m 4.7381256,0.0359 c 1.155599,-1.15559 1.135292,-3.00251 -0.04738,-4.30935 -1.8797095,-2.07704 -4.7318996,-0.64394 -4.7318996,2.37758 0,2.54452 2.9672094,3.74386 4.7792806,1.93179 z m 17.187162,11.43453 c 0.0935,-0.0935 0.101227,-5.77415 0.01717,-12.62366 l -0.152829,-12.45365 -6.095608,2.52931 -6.095608,2.52932 v 12.64098 12.64099 l 6.078437,-2.54664 c 3.343141,-1.40065 6.154938,-2.62314 6.248438,-2.71664 z m 69.892956,-7.14126 V 264.8761 h -6.237366 -6.237367 v 12.47473 12.47474 h 6.237367 6.237366 z m -8.701132,9.16965 c -1.308174,-1.44552 -1.170249,-3.8062 0.302552,-5.17832 1.641119,-1.52894 3.043807,-1.45918 4.738635,0.23565 1.609133,1.60913 1.753069,2.94339 0.509111,4.71939 -1.112809,1.58875 -4.202091,1.71303 -5.550298,0.22328 z m 5.06756,-0.94766 c 0.860422,-1.31318 0.860422,-1.52199 0,-2.83517 -0.510863,-0.77967 -1.241911,-1.44782 -1.624556,-1.48477 -3.200285,-0.30904 -5.035823,2.734 -2.923352,4.84647 1.349987,1.34998 3.47994,1.10339 4.547908,-0.52653 z m -5.06756,-12.09411 c -3.26318,-3.60577 1.87176,-8.56495 5.200093,-5.02211 0.678098,0.72181 1.232906,1.87005 1.232906,2.55165 0,2.94739 -4.453588,4.65769 -6.432999,2.47046 z m 4.300795,-0.23887 c 1.716631,-1.32295 1.491558,-4.194 -0.39622,-5.05413 -2.975332,-1.35565 -5.546494,2.2851 -3.337542,4.72597 1.094103,1.20897 2.43762,1.32705 3.733762,0.32816 z m 10.046526,-1.20472 -0.002,-12.47319 -2.5388,2.49163 -2.538786,2.49163 v 12.47473 12.47474 l 2.540356,-2.49318 2.54037,-2.49317 -0.002,-12.47319 z m -64.050621,9.43734 v -7.21903 l -5.528575,5.47215 c -4.488095,4.4423 -6.222228,5.75878 -9.214291,6.99512 -2.027144,0.83762 -3.792036,1.62372 -3.921981,1.74688 -0.129945,0.12315 4.016487,0.22392 9.214292,0.22392 h 9.450555 z M 126.25164,230.57063 V 172.44972 H 68.414228 10.576829 v 41.52337 41.52337 l 4.97276,-4.94972 4.972759,-4.94972 h 9.486591 9.48659 v -4.99722 c 0,-4.81227 0.06296,-5.05752 1.7011,-6.62697 1.611989,-1.54438 1.7011,-1.86691 1.7011,-6.15704 0,-7.17882 -2.240437,-6.6012 25.604384,-6.6012 h 23.727515 v 13.60879 c 0,7.48484 0.210687,13.6088 0.468194,13.6088 0.257501,0 1.067474,-0.63791 1.799939,-1.41758 1.326575,-1.41207 1.372153,-1.41758 11.723029,-1.41758 h 10.39128 v 13.45995 13.45994 l -8.07289,8.08732 -8.0729,8.08732 h 12.89268 12.89268 z m -9.76707,55.53593 c -1.9551,-1.06099 -2.70767,-2.46695 -2.70767,-5.05845 0,-3.90914 4.22963,-6.43209 7.67371,-4.57732 3.97144,2.13875 4.07593,7.69828 0.18252,9.71164 -1.95307,1.00997 -3.18102,0.99188 -5.14856,-0.0759 z m 5.90745,-1.23949 c 2.37886,-2.05482 1.63809,-6.50746 -1.28725,-7.73748 -2.29832,-0.96637 -4.25416,-0.54435 -5.63953,1.21686 -3.59783,4.57389 2.51675,10.32994 6.92678,6.52062 z M 101.7049,231.42118 c -0.25198,-0.96355 -0.77344,-1.13406 -3.468337,-1.13406 h -3.171769 v -6.12229 -6.12229 l 2.268134,-2.21477 c 1.247473,-1.21813 2.273809,-2.60953 2.280744,-3.092 0.0069,-0.48248 0.511588,-1.51515 1.121458,-2.29482 0.60986,-0.77967 1.11452,-1.86412 1.12145,-2.40989 0.0161,-1.26639 2.81363,-1.40227 2.91867,-0.14176 0.0389,0.4678 0.11967,1.16951 0.1793,1.55934 0.0596,0.38984 -0.10882,1.15533 -0.37434,1.7011 -0.38854,0.79861 -0.22604,0.99231 0.8325,0.99231 1.36223,0 3.26089,-2.44457 3.26089,-4.19848 0,-0.62733 0.52169,-0.90482 1.7011,-0.90482 1.56053,0 1.7011,0.16123 1.7011,1.95115 0,1.07314 -0.29879,2.13582 -0.66398,2.36152 -0.43996,0.27191 -0.24865,0.564 0.56704,0.86574 1.15499,0.42726 1.23101,0.81878 1.23101,6.33962 0,5.10775 -0.14547,6.01589 -1.10239,6.88189 -0.60632,0.5487 -1.18044,1.54512 -1.27582,2.21426 -0.0982,0.68844 -0.58685,1.21975 -1.12573,1.22383 -1.42576,0.0108 -1.90154,0.76296 -0.75978,1.20109 0.64829,0.24877 1.18956,0.0492 1.5336,-0.56561 0.74731,-1.33536 1.59605,-0.60397 1.59605,1.37538 0,1.4749 -0.19659,1.66763 -1.7011,1.66763 -1.27152,0 -1.7011,-0.26251 -1.7011,-1.03956 0,-1.48332 -0.43308,-1.73517 -2.16224,-1.25742 -0.92705,0.25613 -1.49264,0.78815 -1.44472,1.35895 0.12179,1.45068 -2.97839,1.2699 -3.36174,-0.19604 z m 2.43244,0 c 0,-0.31186 -0.38275,-0.56703 -0.85055,-0.56703 -0.46781,0 -0.85056,0.25517 -0.85056,0.56703 0,0.31187 0.38275,0.56704 0.85056,0.56704 0.4678,0 0.85055,-0.25517 0.85055,-0.56704 z m 7.08791,0 c -0.19274,-0.31186 -0.71813,-0.56703 -1.16753,-0.56703 -0.4494,0 -0.81708,0.25517 -0.81708,0.56703 0,0.31187 0.52539,0.56704 1.16753,0.56704 0.64214,0 1.00983,-0.25517 0.81708,-0.56704 z m -4.25275,-7.37143 v -5.67033 h -5.67034 -5.670332 v 5.67033 5.67034 h 5.670332 5.67034 z m -7.10761,3.99144 c -2.833953,-1.13573 -3.756289,-4.32226 -1.864615,-6.44194 2.131115,-2.38797 4.085555,-2.5234 6.180675,-0.42828 1.43722,1.43721 1.70179,2.06606 1.39611,3.31833 -0.68445,2.80393 -3.38632,4.48399 -5.71217,3.55189 z m 3.94843,-1.48029 c 0.49008,-0.49008 0.89105,-1.62009 0.89105,-2.51115 0,-0.89105 -0.40097,-2.02107 -0.89105,-2.51115 -0.49008,-0.49007 -1.6201,-0.89105 -2.51116,-0.89105 -3.06584,0 -4.546489,3.46606 -2.463764,5.76745 1.151304,1.27217 3.771794,1.34902 4.974924,0.1459 z m 8.26248,-7.41255 c 0,-3.34789 -0.23625,-5.38428 -0.65464,-5.64286 -0.36843,-0.22771 -0.50204,-0.15766 -0.30558,0.1602 0.19198,0.31064 -0.53409,1.42078 -1.61349,2.46698 l -1.96255,1.90218 v 5.39066 5.39067 l 2.26813,-2.21478 2.26813,-2.21477 z m -3.4022,-2.75355 1.33175,-1.41758 h -1.45029 c -0.97341,0 -1.5478,-0.3729 -1.74686,-1.13407 -0.38856,-1.48586 -2.19935,-1.45226 -3.14272,0.0583 -0.55437,0.8877 -1.1661,1.13052 -2.39402,0.9503 -1.25895,-0.18477 -2.012507,0.13697 -3.18355,1.35928 l -1.534188,1.60135 h 5.394058 c 5.02052,0 5.4863,-0.0982 6.72582,-1.41759 z m -6.23737,-3.11868 c 0,-0.63004 -0.37803,-1.13407 -0.85055,-1.13407 -0.47253,0 -0.85055,0.50403 -0.85055,1.13407 0,0.63004 0.37802,1.13407 0.85055,1.13407 0.47252,0 0.85055,-0.50403 0.85055,-1.13407 z m 6.80441,0 c 0,-0.63004 -0.37803,-1.13407 -0.85055,-1.13407 -0.47253,0 -0.85055,0.50403 -0.85055,1.13407 0,0.63004 0.37802,1.13407 0.85055,1.13407 0.47252,0 0.85055,-0.50403 0.85055,-1.13407 z m -5.80193,-2.83517 c 0.60795,-0.97349 0.56629,-1.13406 -0.29424,-1.13406 -0.55136,0 -1.32119,0.51033 -1.71072,1.13406 -0.60795,0.97349 -0.56629,1.13407 0.29424,1.13407 0.55137,0 1.32119,-0.51033 1.71072,-1.13407 z m 6.93599,0 c 0.46608,-0.87086 0.43123,-1.13406 -0.15016,-1.13406 -0.83344,0 -2.11797,1.10047 -2.11797,1.8145 0,0.92111 1.68089,0.41684 2.26813,-0.68044 z m -6.23736,-2.26813 c 0,-0.31187 -0.38275,-0.56703 -0.85055,-0.56703 -0.46781,0 -0.85056,0.25516 -0.85056,0.56703 0,0.31187 0.38275,0.56703 0.85056,0.56703 0.4678,0 0.85055,-0.25516 0.85055,-0.56703 z m 7.08791,0 c -0.19274,-0.31187 -0.71813,-0.56703 -1.16753,-0.56703 -0.4494,0 -0.81708,0.25516 -0.81708,0.56703 0,0.31187 0.52539,0.56703 1.16753,0.56703 0.64214,0 1.00983,-0.25516 0.81708,-0.56703 z M 14.259832,184.12274 c -1.787866,-1.78787 -2.280857,-3.91201 -1.400956,-6.03628 0.934548,-2.25619 2.61521,-3.36861 5.089387,-3.36861 2.474177,0 4.154838,1.11242 5.089387,3.36861 0.8799,2.12427 0.38691,4.24841 -1.400956,6.03628 -1.899586,1.89958 -5.477277,1.89958 -7.376862,0 z m 6.832889,-0.5901 c 1.99533,-1.99533 1.945215,-5.462 -0.102244,-7.07253 -3.269924,-2.57212 -7.691887,-0.47691 -7.691887,3.64456 0,4.25198 4.840985,6.38112 7.794131,3.42797 z m 94.341669,0.30136 c -2.23668,-2.23667 -2.29069,-5.27449 -0.13382,-7.52578 3.28474,-3.42852 9.24997,-0.98023 9.24997,3.79645 0,2.88097 -2.50586,5.38682 -5.38682,5.38682 -1.5339,0 -2.50222,-0.43037 -3.72933,-1.65749 z m 6.89163,-0.56703 c 2.42217,-2.42217 1.94096,-6.02011 -0.98337,-7.35252 -5.16399,-2.35287 -9.47938,3.53953 -5.50381,7.5151 2.03068,2.03068 4.3521,1.9725 6.48718,-0.16258 z m -38.28517,79.29058 c -0.776773,-1.78992 -0.841024,-1.04919 -0.861562,9.93329 -0.0152,8.12068 0.201586,12.48723 0.686598,13.83054 0.61382,1.70006 0.729262,0.36905 0.861562,-9.93329 0.122145,-9.51174 -0.01548,-12.2841 -0.686598,-13.83054 z m 45.61298,-34.43082 c 0,-58.08499 -7e-4,-58.12028 -1.13406,-57.09459 -1.12002,1.0136 -1.13407,1.74644 -1.13407,59.14723 0,58.08499 5.7e-4,58.12028 1.13407,57.0946 1.12001,-1.0136 1.13406,-1.74645 1.13406,-59.14724 z M 39.495529,260.6458 v -12.47473 l -5.386816,5.36441 -5.386817,5.36442 v 12.47474 12.47473 l 5.386817,-5.36442 5.386816,-5.36442 z m 76.549511,5.38468 v -5.95385 l -5.95385,5.93359 -5.95385,5.93359 v 5.95385 5.95385 l 5.95385,-5.93359 5.95385,-5.93359 z m 0,-13.04177 v -5.95385 l -5.95385,5.93359 -5.95385,5.93359 v 5.95385 5.95385 l 5.95385,-5.93359 5.95385,-5.93359 z m -93.962729,8.15519 c 6.125944,-2.50412 6.556233,-2.79628 11.884643,-8.06959 3.040716,-3.00927 5.528575,-5.79514 5.528575,-6.19083 0,-0.55172 -2.149529,-0.71943 -9.221152,-0.71943 h -9.221153 l -8.775295,8.78902 -8.7752947,8.78901 h 6.1118033 c 5.9570424,0 6.2727524,-0.0658 12.4678734,-2.59818 z m 84.890189,-6.19083 8.7753,-8.78902 h -9.92547 -9.925482 l -6.311727,6.37913 -6.311722,6.37912 1.052663,2.40989 1.052664,2.40989 h 6.409234 6.40924 z m -18.047962,-2.35602 c 0.922376,-0.83474 1.036957,-1.94211 1.036957,-10.02192 v -9.0835 l -1.417584,1.33175 c -1.392492,1.30818 -1.417583,1.48556 -1.417583,10.02193 0,4.7796 0.171284,8.69017 0.380627,8.69017 0.209343,0 0.847255,-0.42229 1.417583,-0.93843 z m 2.738057,-16.13949 c 0,-8.92815 -0.195026,-13.48827 -0.567034,-13.25836 -0.352536,0.21788 -0.567033,5.49837 -0.567033,13.95925 0,8.92814 0.195025,13.48827 0.567033,13.25835 0.352536,-0.21788 0.567034,-5.49836 0.567034,-13.95924 z m -3.685717,-2.20121 c 1.024709,-1.13229 0.990397,-1.13407 -21.938531,-1.13407 -22.244724,0 -22.997035,0.0356 -23.991168,1.13407 -1.024711,1.13229 -0.990399,1.13407 21.938531,1.13407 22.244722,0 22.997034,-0.0356 23.991168,-1.13407 z m 1.984617,-6.23736 v -4.53627 H 66.713128 43.464762 v 4.53627 4.53626 h 23.248366 23.248367 z m -43.118151,0.25505 c -0.601305,-0.72452 -0.571407,-1.03711 0.170118,-1.77863 0.494796,-0.4948 1.302163,-0.74517 1.794149,-0.55638 1.159062,0.44478 1.157401,2.42478 -0.0024,2.86984 -1.187012,0.4555 -1.126205,0.47208 -1.961859,-0.53483 z m 2.291752,-1.1056 c 0,-0.46781 -0.382748,-0.85055 -0.85055,-0.85055 -0.467803,0 -0.85055,0.38274 -0.85055,0.85055 0,0.4678 0.382747,0.85055 0.85055,0.85055 0.467802,0 0.85055,-0.38275 0.85055,-0.85055 z m 3.488166,1.48217 c -1.12106,-0.70966 -0.558212,-2.61624 0.772349,-2.61624 0.813009,0 1.126301,0.38117 1.126301,1.37033 0,1.51234 -0.725602,1.98848 -1.89865,1.24591 z m 1.615133,-1.48217 c 0,-0.46781 -0.382747,-0.85055 -0.85055,-0.85055 -0.467802,0 -0.85055,0.38274 -0.85055,0.85055 0,0.4678 0.382748,0.85055 0.85055,0.85055 0.467803,0 0.85055,-0.38275 0.85055,-0.85055 z m 3.543959,1.60908 c -1.010301,-0.40767 -0.877961,-2.43031 0.185726,-2.83849 0.491986,-0.18879 1.299351,0.0616 1.79415,0.55638 0.741526,0.74152 0.77142,1.05411 0.170116,1.77863 -0.763267,0.91968 -0.988067,0.97232 -2.149992,0.50348 z m 1.559341,-1.60908 c 0,-0.46781 -0.382747,-0.85055 -0.85055,-0.85055 -0.467802,0 -0.85055,0.38274 -0.85055,0.85055 0,0.4678 0.382748,0.85055 0.85055,0.85055 0.467803,0 0.85055,-0.38275 0.85055,-0.85055 z m 3.488168,1.48271 c -1.118655,-0.70892 -0.552364,-2.5889 0.839964,-2.78852 1.421841,-0.20385 2.22725,1.37345 1.282555,2.51174 -0.747429,0.9006 -1.071472,0.94285 -2.122519,0.27678 z m 1.615132,-1.52997 c 0,-0.49379 -0.303005,-0.7968 -0.673352,-0.67335 -1.051404,0.35047 -1.22579,1.57116 -0.224449,1.57116 0.49379,0 0.897801,-0.40402 0.897801,-0.89781 z m 3.408194,1.18854 c -0.942183,-1.13525 -0.314585,-2.55887 1.128073,-2.55887 0.64331,0 1.317779,0.386 1.498816,0.85777 0.325829,0.8491 -0.672819,2.54443 -1.498816,2.54443 -0.235495,0 -0.743126,-0.3795 -1.128073,-0.84333 z m 1.954405,-0.81859 c 0.419349,-0.67851 -0.647337,-1.3508 -1.402614,-0.88401 -0.634147,0.39192 -0.217837,1.41187 0.576282,1.41187 0.275056,0 0.646905,-0.23754 0.826332,-0.52786 z m 3.148895,0.81859 c -1.01034,-1.21738 -0.262304,-2.67425 1.261501,-2.45688 1.453267,0.20731 2.062425,2.07095 0.91467,2.79831 -1.063023,0.67367 -1.374245,0.62484 -2.176171,-0.34143 z m 2.132192,-0.96409 c -0.350466,-1.0514 -1.571153,-1.22579 -1.571153,-0.22445 0,0.49379 0.404012,0.89781 0.897801,0.89781 0.493795,0 0.796801,-0.30301 0.673352,-0.67336 z m 3.02476,1.02874 c -0.944694,-1.13829 -0.139286,-2.71559 1.282556,-2.51174 1.392327,0.19962 1.958618,2.0796 0.839963,2.78852 -1.051047,0.66607 -1.37509,0.62382 -2.122519,-0.27678 z m 2.07854,-1.02874 c -0.350466,-1.0514 -1.571153,-1.22579 -1.571153,-0.22445 0,0.49379 0.404011,0.89781 0.897801,0.89781 0.493795,0 0.796801,-0.30301 0.673352,-0.67336 z m 2.996981,0.7329 c -0.684954,-1.27985 0.571632,-2.65261 1.945531,-2.12539 1.129825,0.43355 1.102619,2.41759 -0.03918,2.85573 -1.247082,0.47855 -1.262568,0.47262 -1.906372,-0.73034 z m 2.236266,-0.91009 c 0,-0.46781 -0.382747,-0.85055 -0.85055,-0.85055 -0.467802,0 -0.85055,0.38274 -0.85055,0.85055 0,0.4678 0.382748,0.85055 0.85055,0.85055 0.467803,0 0.85055,-0.38275 0.85055,-0.85055 z m 5.386817,-4.81979 c 0.231451,-0.3745 -7.543403,-0.56703 -22.897923,-0.56703 -14.887256,0 -23.374399,0.20393 -23.59881,0.56703 -0.231454,0.3745 7.543402,0.56704 22.897923,0.56704 14.887256,0 23.3744,-0.20393 23.59881,-0.56704 z m 36.857175,-51.60003 c 1.02568,-1.13336 0.9904,-1.13407 -56.811089,-1.13407 -57.117274,0 -57.85018,0.0141 -58.863719,1.13407 -1.025679,1.13336 -0.990399,1.13407 56.811081,1.13407 57.117277,0 57.850187,-0.0141 58.863727,-1.13407 z"
       id="path3895"
       inkscape:connector-curvature="0" />
  </g>
</svg>
